mtllib Materials_Modular_Temple.mtl
o object1
g object1
v -1.40000000 -0.12499999 -0.00588745
v -1.40000000 0.05000000 -0.00588745
v 0.00588745 0.05000000 1.40000000
v 0.00588745 -0.12499998 1.40000000
v -1.45000000 0.10000000 0.01482323
v -0.01482323 0.10000000 1.45000000
v -1.60000000 0.05000000 0.07695526
v -0.07695526 0.05000000 1.60000000
v -0.05624458 0.10000000 1.55000000
v -1.55000000 0.10000000 0.05624458
v -1.60000000 -0.12499999 0.07695527
v -0.07695526 -0.12499998 1.60000000
v -1.47538874 -0.24999999 0.02533959
v -1.44057087 -0.22642714 0.01091754
v -0.01091758 -0.22642713 1.44057086
v -0.02533961 -0.24999998 1.47538874
v -0.06015026 -0.22642713 1.55942914
v -1.55942909 -0.22642714 0.06015031
v 0.52071068 0.10000000 1.45000000
v 0.54142136 0.05000000 1.40000000
v 0.54142136 -0.12499996 1.40000000
v 0.52461636 -0.22642711 1.44057086
v 0.51019432 -0.24999996 1.47538874
v -0.04572823 -0.24999998 1.52461126
v 0.51019432 -0.24999996 1.52461126
v 0.52461126 -0.24999996 1.51019432
v 0.52461126 -0.24999996 1.48980568
v -1.47538874 -0.24999996 -0.51019432
v -1.48980568 -0.24999996 -0.52461126
v -1.51019432 -0.24999996 -0.52461126
v -1.52461126 -0.24999996 -0.51019432
v -1.52461126 -0.24999999 0.04572823
v 0.52461636 -0.22642711 1.55942914
v 0.54142136 -0.12499996 1.60000000
v 0.54142136 0.05000000 1.60000000
v 0.52071068 0.10000000 1.55000000
v -1.44057086 -0.22642711 -0.52461636
v -1.40000000 -0.12499996 -0.54142136
v -1.40000000 0.05000000 -0.54142136
v -1.60000000 -0.12499996 -0.54142136
v -1.55942914 -0.22642711 -0.52461636
v -1.45000000 0.10000000 -0.52071068
v 0.55000000 0.10000000 1.47928932
v 0.55000000 0.10000000 1.52071068
v -1.55000000 0.10000000 -0.52071068
v -1.52071068 0.10000000 -0.55000000
v -1.47928932 0.10000000 -0.55000000
v -1.45857864 0.05000000 -0.60000000
v -1.54142136 0.05000000 -0.60000000
v -1.54142136 -0.12499996 -0.60000000
v -1.45857864 -0.12499996 -0.60000000
v -1.47538364 -0.22642711 -0.55942914
v -1.52461636 -0.22642711 -0.55942914
v -1.60000000 0.05000000 -0.54142136
v 0.60000000 -0.12499996 1.45857864
v 0.60000000 0.05000000 1.45857864
v 0.55942914 -0.22642711 1.47538364
v 0.60000000 -0.12499996 1.54142136
v 0.55942914 -0.22642711 1.52461636
v 0.60000000 0.05000000 1.54142136
vt 1.00000000 0.00000000
vt 1.00000000 1.00000000
vt 0.00000000 1.00000000
vt 0.00000000 0.00000014
vt 0.98979592 0.00000000
vt 1.00000000 1.00000000
vt 0.00000000 1.00000000
vt 0.01020408 0.00000000
vt 1.00000000 1.00000000
vt 0.00000000 1.00000000
vt 0.00961538 0.00000000
vt 0.99038462 0.00000000
vt 1.00000000 1.00000000
vt 0.00000000 0.99999985
vt 0.00000000 0.00000000
vt 1.00000000 0.00000000
vt 1.00000000 0.00000000
vt 0.99296720 1.00000000
vt 0.00703281 0.99999947
vt 0.00000000 0.00000000
vt 1.00000000 1.00000000
vt 0.00000000 0.99999987
vt 0.00780209 0.00000000
vt 0.99219788 0.00000000
vt 0.99168824 0.00000000
vt 1.00000000 1.00000000
vt 0.00000000 1.00000000
vt 0.00831175 0.00000010
vt 1.00000000 1.00000000
vt 0.03723304 1.00000000
vt 0.00000000 0.00000000
vt 0.96276696 0.00000000
vt 1.00000000 1.00000000
vt 0.00000000 1.00000000
vt 0.00000000 0.00000011
vt 1.00000000 0.00000000
vt 1.00000000 0.99999999
vt 0.03042517 1.00000000
vt 0.00000000 0.00000003
vt 0.96957479 0.00000002
vt 0.97377603 0.99999997
vt 0.00000000 0.99999996
vt 0.02622399 0.00000002
vt 1.00000000 0.00000002
vt 0.27831994 1.00000000
vt 0.00703532 1.00000000
vt 0.00000000 0.99296468
vt 0.00000000 0.98301523
vt 0.00703532 0.97597990
vt 0.26837050 0.97597990
vt 0.97597990 0.26837049
vt 0.97597990 0.00703532
vt 0.98301523 0.00000000
vt 0.99296468 0.00000000
vt 1.00000000 0.00703532
vt 1.00000000 0.27831994
vt 1.00000000 0.00000002
vt 0.97533716 0.99999999
vt 0.02466289 0.99999999
vt 0.00000000 0.00000003
vt 0.97282401 0.00000000
vt 1.00000000 0.99999984
vt 0.00000001 0.99999999
vt 0.02717600 0.00000000
vt 0.96650799 0.00000000
vt 1.00000000 1.00000000
vt 0.00000000 1.00000000
vt 0.03349201 0.00000000
vt 1.00000000 0.00000000
vt 1.00000000 1.00000000
vt 0.00000000 0.99999988
vt 0.00000000 0.00000000
vt 0.00000000 0.99999996
vt 0.02622399 0.00000002
vt 1.00000000 0.00000002
vt 0.97377601 0.99999997
vt 0.03042517 0.99999986
vt 0.00000000 0.00000003
vt 0.96957485 0.00000013
vt 1.00000000 1.00000000
vt 0.00000000 1.00000000
vt 0.00000000 0.00000018
vt 0.99999999 0.00000000
vt 1.00000000 1.00000000
vt 0.00000001 0.99999999
vt 0.02717600 0.00000015
vt 0.97282401 0.00000000
vt 1.00000000 0.99999984
vt 0.02466289 0.99999999
vt 0.00000000 0.00000003
vt 1.00000000 0.00000114
vt 0.97533703 1.00000000
vt 0.00680189 1.00000000
vt 0.00000000 0.00000587
vt 1.00000000 0.00000000
vt 0.99319816 1.00000000
vt 0.00000000 1.00000000
vt 0.03723304 0.00000000
vt 1.00000000 0.00000000
vt 0.96276696 1.00000000
vt 0.26896344 0.04761905
vt 0.01394730 0.04761905
vt 0.00000000 0.03367175
vt 0.00000000 0.01394730
vt 0.01394730 0.00000000
vt 0.28868790 0.00000000
vt 1.00000000 0.71131210
vt 1.00000000 0.98605270
vt 0.98605270 1.00000000
vt 0.96632825 1.00000000
vt 0.95238095 0.98605270
vt 0.95238095 0.73103656
vt 0.25000000 0.00000000
vt 0.75000000 0.00000000
vt 1.00000000 1.00000000
vt 0.00000000 1.00000000
vt 0.00000000 1.00000000
vt 0.00000000 0.00000000
vt 1.00000000 0.00000000
vt 1.00000000 1.00000000
vt 0.00000000 0.00000000
vt 1.00000000 0.00000000
vt 0.79714569 1.00000000
vt 0.20285429 1.00000000
vt 0.00000000 0.00000000
vt 1.00000000 0.00000000
vt 0.79714567 1.00000000
vt 0.20285429 1.00000000
vt 1.00000000 0.99999989
vt 0.00000000 1.00000000
vt 0.00000000 0.00000000
vt 1.00000000 0.00000001
vt 0.00000000 1.00000000
vt 0.00000000 0.00000000
vt 1.00000000 0.00000000
vt 1.00000000 1.00000000
vt 0.75000000 0.00000000
vt 1.00000000 1.00000000
vt 0.00000000 1.00000000
vt 0.24999999 0.00000000
vt 1.00000000 1.00000000
vt 0.00000000 1.00000000
vt 0.03349201 0.00000000
vt 0.96650799 0.00000000
vt 1.00000000 1.00000000
vt 0.00000000 1.00000000
vt 0.25000000 0.00000000
vt 0.75000000 0.00000000
vt 0.00000000 1.00000000
vt 0.00000000 0.00000000
vt 1.00000000 0.00000000
vt 1.00000000 1.00000000
vt 0.79714569 1.00000000
vt 0.20285429 1.00000000
vt 0.00000000 0.00000000
vt 1.00000000 0.00000000
vt 0.29293607 1.00000000
vt 0.00000000 0.00000000
vt 1.00000000 0.00000000
vt 0.70706398 1.00000000
vt 0.00000000 0.00000001
vt 1.00000000 0.00000000
vt 0.70706400 1.00000000
vt 0.29293612 1.00000000
vt 0.00000000 0.00000000
vt 1.00000000 0.00000000
vt 0.70706398 1.00000000
vt 0.29293607 1.00000000
vt 0.00000000 1.00000000
vt 0.00000000 0.00000000
vt 1.00000000 0.00000000
vt 1.00000000 1.00000000
vt 0.79714569 1.00000000
vt 0.20285429 1.00000000
vt 0.00000000 0.00000000
vt 1.00000000 0.00000000
vt 0.00000000 0.00000000
vt 1.00000000 0.00000000
vt 0.79714569 1.00000000
vt 0.20285429 1.00000000
vt 0.00000000 0.00000000
vt 1.00000000 0.00000000
vt 0.79714567 1.00000000
vt 0.20285429 1.00000000
vt 0.00000000 0.00000000
vt 1.00000000 0.00000000
vt 0.70706398 1.00000000
vt 0.29293607 1.00000000
vt 0.00000000 1.00000000
vt 0.00000000 0.00000000
vt 1.00000000 0.00000000
vt 1.00000000 1.00000000
vt 0.00000000 0.00000001
vt 1.00000000 0.00000000
vt 0.70706400 1.00000000
vt 0.29293612 1.00000000
vt 0.29293607 1.00000000
vt 0.00000000 0.00000000
vt 1.00000000 0.00000000
vt 0.70706398 1.00000000
vt 0.00000000 1.00000000
vt 0.00000000 0.00000000
vt 1.00000000 0.00000000
vt 1.00000000 1.00000000
vt 1.00000000 1.00000000
vt 0.00000000 1.00000000
vt 0.25000000 0.00000000
vt 0.75000000 0.00000000
vt 0.25000000 0.00000000
vt 0.75000000 0.00000000
vt 1.00000000 1.00000000
vt 0.00000000 1.00000000
vt 0.75000000 0.00000000
vt 1.00000000 1.00000000
vt 0.00000000 1.00000000
vt 0.24999999 0.00000000
vn 0.70710678 0.00000000 -0.70710678
vn 0.70710678 0.00000000 -0.70710678
vn 0.70710678 0.00000000 -0.70710678
vn 0.70710678 0.00000000 -0.70710678
vn 0.50000000 0.70710678 -0.50000000
vn 0.50000000 0.70710678 -0.50000000
vn 0.50000000 0.70710678 -0.50000000
vn 0.50000000 0.70710678 -0.50000000
vn -0.50000000 0.70710678 0.50000000
vn -0.50000000 0.70710678 0.50000000
vn -0.50000000 0.70710678 0.50000000
vn -0.50000000 0.70710678 0.50000000
vn -0.70710678 -0.00000000 0.70710678
vn -0.70710678 -0.00000000 0.70710678
vn -0.70710678 -0.00000000 0.70710678
vn -0.70710678 -0.00000000 0.70710678
vn 0.39642444 -0.82806723 -0.39642443
vn 0.39642444 -0.82806723 -0.39642443
vn 0.39642444 -0.82806723 -0.39642443
vn 0.39642444 -0.82806723 -0.39642443
vn -0.65653216 -0.37139068 0.65653217
vn -0.65653216 -0.37139068 0.65653217
vn -0.65653216 -0.37139068 0.65653217
vn -0.65653216 -0.37139068 0.65653217
vn 0.65653217 -0.37139068 -0.65653216
vn 0.65653217 -0.37139068 -0.65653216
vn 0.65653217 -0.37139068 -0.65653216
vn 0.65653217 -0.37139068 -0.65653216
vn 0.00000000 0.70710678 -0.70710678
vn 0.00000000 0.70710678 -0.70710678
vn 0.00000000 0.70710678 -0.70710678
vn 0.00000000 0.70710678 -0.70710678
vn -0.00000000 0.00000000 -1.00000000
vn -0.00000000 0.00000000 -1.00000000
vn -0.00000000 0.00000000 -1.00000000
vn -0.00000000 0.00000000 -1.00000000
vn 0.00000001 -0.37139068 -0.92847669
vn 0.00000001 -0.37139068 -0.92847669
vn 0.00000001 -0.37139068 -0.92847669
vn 0.00000001 -0.37139068 -0.92847669
vn 0.00000003 -0.82806723 -0.56062881
vn 0.00000003 -0.82806723 -0.56062881
vn 0.00000003 -0.82806723 -0.56062881
vn 0.00000003 -0.82806723 -0.56062881
vn 0.00000004 -1.00000000 0.00000000
vn 0.00000004 -1.00000000 0.00000000
vn 0.00000004 -1.00000000 0.00000000
vn 0.00000004 -1.00000000 0.00000000
vn 0.00000004 -1.00000000 0.00000000
vn 0.00000004 -1.00000000 0.00000000
vn 0.00000004 -1.00000000 0.00000000
vn 0.00000004 -1.00000000 0.00000000
vn 0.00000004 -1.00000000 0.00000000
vn 0.00000004 -1.00000000 0.00000000
vn 0.00000004 -1.00000000 0.00000000
vn 0.00000004 -1.00000000 0.00000000
vn 0.00000003 -0.82806723 0.56062881
vn 0.00000003 -0.82806723 0.56062881
vn 0.00000003 -0.82806723 0.56062881
vn 0.00000003 -0.82806723 0.56062881
vn 0.00000001 -0.37139068 0.92847669
vn 0.00000001 -0.37139068 0.92847669
vn 0.00000001 -0.37139068 0.92847669
vn 0.00000001 -0.37139068 0.92847669
vn 0.00000000 0.70710678 0.70710678
vn 0.00000000 0.70710678 0.70710678
vn 0.00000000 0.70710678 0.70710678
vn 0.00000000 0.70710678 0.70710678
vn 0.00000000 -0.00000000 1.00000000
vn 0.00000000 -0.00000000 1.00000000
vn 0.00000000 -0.00000000 1.00000000
vn 0.00000000 -0.00000000 1.00000000
vn 0.56062881 -0.82806723 -0.00000003
vn 0.56062881 -0.82806723 -0.00000003
vn 0.56062881 -0.82806723 -0.00000003
vn 0.56062881 -0.82806723 -0.00000003
vn 0.92847669 -0.37139068 -0.00000001
vn 0.92847669 -0.37139068 -0.00000001
vn 0.92847669 -0.37139068 -0.00000001
vn 0.92847669 -0.37139068 -0.00000001
vn 1.00000000 0.00000000 0.00000000
vn 1.00000000 0.00000000 0.00000000
vn 1.00000000 0.00000000 0.00000000
vn 1.00000000 0.00000000 0.00000000
vn -0.92847669 -0.37139068 -0.00000001
vn -0.92847669 -0.37139068 -0.00000001
vn -0.92847669 -0.37139068 -0.00000001
vn -0.92847669 -0.37139068 -0.00000001
vn -0.56062881 -0.82806723 -0.00000003
vn -0.56062881 -0.82806723 -0.00000003
vn -0.56062881 -0.82806723 -0.00000003
vn -0.56062881 -0.82806723 -0.00000003
vn -0.39642443 -0.82806723 0.39642444
vn -0.39642443 -0.82806723 0.39642444
vn -0.39642443 -0.82806723 0.39642444
vn -0.39642443 -0.82806723 0.39642444
vn 0.70710678 0.70710678 -0.00000001
vn 0.70710678 0.70710678 -0.00000001
vn 0.70710678 0.70710678 -0.00000001
vn 0.70710678 0.70710678 -0.00000001
vn -0.00000000 1.00000000 0.00000000
vn -0.00000000 1.00000000 0.00000000
vn -0.00000000 1.00000000 0.00000000
vn -0.00000000 1.00000000 0.00000000
vn -0.00000000 1.00000000 0.00000000
vn -0.00000000 1.00000000 0.00000000
vn -0.00000000 1.00000000 0.00000000
vn -0.00000000 1.00000000 0.00000000
vn -0.00000000 1.00000000 0.00000000
vn -0.00000000 1.00000000 0.00000000
vn -0.00000000 1.00000000 0.00000000
vn -0.00000000 1.00000000 0.00000000
vn -0.00000001 0.70710678 -0.70710678
vn -0.00000001 0.70710678 -0.70710678
vn -0.00000001 0.70710678 -0.70710678
vn -0.00000001 0.70710678 -0.70710678
vn -0.00000000 -0.00000000 -1.00000000
vn -0.00000000 -0.00000000 -1.00000000
vn -0.00000000 -0.00000000 -1.00000000
vn -0.00000000 -0.00000000 -1.00000000
vn -0.00000000 -0.37139068 -0.92847669
vn -0.00000000 -0.37139068 -0.92847669
vn -0.00000000 -0.37139068 -0.92847669
vn -0.00000000 -0.37139068 -0.92847669
vn -0.65653217 -0.37139068 -0.65653216
vn -0.65653217 -0.37139068 -0.65653216
vn -0.65653217 -0.37139068 -0.65653216
vn -0.65653217 -0.37139068 -0.65653216
vn -1.00000000 -0.00000000 0.00000000
vn -1.00000000 -0.00000000 0.00000000
vn -1.00000000 -0.00000000 0.00000000
vn -1.00000000 -0.00000000 0.00000000
vn -0.70710678 -0.00000000 -0.70710678
vn -0.70710678 -0.00000000 -0.70710678
vn -0.70710678 -0.00000000 -0.70710678
vn -0.70710678 -0.00000000 -0.70710678
vn -0.50000000 0.70710678 -0.50000000
vn -0.50000000 0.70710678 -0.50000000
vn -0.50000000 0.70710678 -0.50000000
vn -0.50000000 0.70710678 -0.50000000
vn -0.70710678 0.70710678 0.00000001
vn -0.70710678 0.70710678 0.00000001
vn -0.70710678 0.70710678 0.00000001
vn -0.70710678 0.70710678 0.00000001
vn 0.50000000 0.70710678 -0.50000000
vn 0.50000000 0.70710678 -0.50000000
vn 0.50000000 0.70710678 -0.50000000
vn 0.50000000 0.70710678 -0.50000000
vn 0.70710678 -0.00000000 -0.70710678
vn 0.70710678 -0.00000000 -0.70710678
vn 0.70710678 -0.00000000 -0.70710678
vn 0.70710678 -0.00000000 -0.70710678
vn 0.65653216 -0.37139068 -0.65653217
vn 0.65653216 -0.37139068 -0.65653217
vn 0.65653216 -0.37139068 -0.65653217
vn 0.65653216 -0.37139068 -0.65653217
vn 0.39642443 -0.82806723 -0.39642443
vn 0.39642443 -0.82806723 -0.39642443
vn 0.39642443 -0.82806723 -0.39642443
vn 0.39642443 -0.82806723 -0.39642443
vn 0.00000000 -0.82806723 -0.56062881
vn 0.00000000 -0.82806723 -0.56062881
vn 0.00000000 -0.82806723 -0.56062881
vn 0.00000000 -0.82806723 -0.56062881
vn -0.39642443 -0.82806723 -0.39642443
vn -0.39642443 -0.82806723 -0.39642443
vn -0.39642443 -0.82806723 -0.39642443
vn -0.39642443 -0.82806723 -0.39642443
vn 0.70710678 -0.00000000 -0.70710678
vn 0.70710678 -0.00000000 -0.70710678
vn 0.70710678 -0.00000000 -0.70710678
vn 0.70710678 -0.00000000 -0.70710678
vn 0.65653217 -0.37139068 -0.65653216
vn 0.65653217 -0.37139068 -0.65653216
vn 0.65653217 -0.37139068 -0.65653216
vn 0.65653217 -0.37139068 -0.65653216
vn 0.92847669 -0.37139068 0.00000000
vn 0.92847669 -0.37139068 0.00000000
vn 0.92847669 -0.37139068 0.00000000
vn 0.92847669 -0.37139068 0.00000000
vn 0.65653216 -0.37139068 0.65653217
vn 0.65653216 -0.37139068 0.65653217
vn 0.65653216 -0.37139068 0.65653217
vn 0.65653216 -0.37139068 0.65653217
vn 0.39642443 -0.82806723 0.39642443
vn 0.39642443 -0.82806723 0.39642443
vn 0.39642443 -0.82806723 0.39642443
vn 0.39642443 -0.82806723 0.39642443
vn 0.70710678 -0.00000000 0.70710678
vn 0.70710678 -0.00000000 0.70710678
vn 0.70710678 -0.00000000 0.70710678
vn 0.70710678 -0.00000000 0.70710678
vn 0.56062881 -0.82806723 -0.00000000
vn 0.56062881 -0.82806723 -0.00000000
vn 0.56062881 -0.82806723 -0.00000000
vn 0.56062881 -0.82806723 -0.00000000
vn 0.39642443 -0.82806723 -0.39642443
vn 0.39642443 -0.82806723 -0.39642443
vn 0.39642443 -0.82806723 -0.39642443
vn 0.39642443 -0.82806723 -0.39642443
vn 1.00000000 -0.00000000 0.00000000
vn 1.00000000 -0.00000000 0.00000000
vn 1.00000000 -0.00000000 0.00000000
vn 1.00000000 -0.00000000 0.00000000
vn 0.50000000 0.70710678 -0.50000000
vn 0.50000000 0.70710678 -0.50000000
vn 0.50000000 0.70710678 -0.50000000
vn 0.50000000 0.70710678 -0.50000000
vn 0.70710678 0.70710678 0.00000001
vn 0.70710678 0.70710678 0.00000001
vn 0.70710678 0.70710678 0.00000001
vn 0.70710678 0.70710678 0.00000001
vn 0.50000000 0.70710678 0.50000000
vn 0.50000000 0.70710678 0.50000000
vn 0.50000000 0.70710678 0.50000000
vn 0.50000000 0.70710678 0.50000000
s 1
usemtl Sandstone_5
f 1/1/1 2/2/2 4/4/4
f 2/2/2 3/3/3 4/4/4
s 2
f 2/5/5 5/6/6 3/8/8
f 5/6/6 6/7/7 3/8/8
s 3
f 7/9/9 8/10/10 9/11/11
f 7/9/9 9/11/11 10/12/12
s 4
f 11/13/13 12/14/14 8/15/15
f 11/13/13 8/15/15 7/16/16
s 5
f 13/17/17 14/18/18 15/19/19
f 13/17/17 15/19/19 16/20/20
s 6
f 18/24/24 17/23/23 12/22/22
f 18/24/24 12/22/22 11/21/21
s 7
f 4/28/28 15/27/27 1/25/25
f 15/27/27 14/26/26 1/25/25
s 8
f 6/29/29 19/30/30 3/32/32
f 19/30/30 20/31/31 3/32/32
s 9
f 3/33/33 20/34/34 21/35/35
f 3/33/33 21/35/35 4/36/36
s 10
f 4/40/40 21/39/39 22/38/38
f 4/40/40 22/38/38 15/37/37
s 11
f 15/41/41 22/42/42 23/43/43
f 15/41/41 23/43/43 16/44/44
s 12
f 23/49/49 27/48/48 26/47/47
f 16/50/50 23/49/49 25/46/46
f 32/56/56 16/50/50 24/45/45
f 32/56/56 31/55/55 13/51/51
f 31/55/55 28/52/52 13/51/51
f 30/54/54 29/53/53 28/52/52
f 31/55/55 30/54/54 28/52/52
f 32/56/56 13/51/51 16/50/50
f 16/50/50 25/46/46 24/45/45
f 23/49/49 26/47/47 25/46/46
s 13
f 17/57/57 24/58/58 25/59/59
f 17/57/57 25/59/59 33/60/60
s 14
f 33/64/64 34/63/63 12/62/62
f 33/64/64 12/62/62 17/61/61
s 15
f 9/65/65 8/66/66 36/68/68
f 8/66/66 35/67/67 36/68/68
s 16
f 8/69/69 12/70/70 34/71/71
f 8/69/69 34/71/71 35/72/72
s 17
f 14/76/76 13/75/75 28/74/74
f 14/76/76 28/74/74 37/73/73
s 18
f 37/77/77 38/78/78 1/79/79
f 37/77/77 1/79/79 14/80/80
s 19
f 2/84/84 1/83/83 38/82/82
f 2/84/84 38/82/82 39/81/81
s 20
f 40/85/85 41/86/86 11/88/88
f 41/86/86 18/87/87 11/88/88
s 21
f 32/92/92 18/91/91 41/90/90
f 32/92/92 41/90/90 31/89/89
s 22
f 24/93/93 17/94/94 18/95/95
f 24/93/93 18/95/95 32/96/96
s 23
f 39/97/97 42/98/98 2/100/100
f 42/98/98 5/99/99 2/100/100
s 24
f 42/111/111 47/110/110 46/109/109
f 5/112/112 42/111/111 45/108/108
f 5/112/112 10/107/107 9/106/106
f 9/106/106 36/105/105 6/101/101
f 36/105/105 19/102/102 6/101/101
f 44/104/104 43/103/103 19/102/102
f 36/105/105 44/104/104 19/102/102
f 9/106/106 6/101/101 5/112/112
f 5/112/112 45/108/108 10/107/107
f 42/111/111 46/109/109 45/108/108
s 25
f 46/113/113 47/114/114 49/116/116
f 47/114/114 48/115/115 49/116/116
s 26
f 50/117/117 49/118/118 48/119/119
f 50/117/117 48/119/119 51/120/120
s 27
f 50/121/121 51/122/122 52/123/123
f 50/121/121 52/123/123 53/124/124
s 28
f 40/125/125 50/126/126 53/127/127
f 40/125/125 53/127/127 41/128/128
s 29
f 40/129/129 11/130/130 7/131/131
f 40/129/129 7/131/131 54/132/132
s 30
f 40/133/133 54/134/134 49/135/135
f 40/133/133 49/135/135 50/136/136
s 31
f 46/137/137 49/138/138 54/139/139
f 46/137/137 54/139/139 45/140/140
s 32
f 54/141/141 7/142/142 45/144/144
f 7/142/142 10/143/143 45/144/144
s 33
f 39/145/145 48/146/146 42/148/148
f 48/146/146 47/147/147 42/148/148
s 34
f 51/149/149 48/150/150 39/151/151
f 51/149/149 39/151/151 38/152/152
s 35
f 37/153/153 52/154/154 51/155/155
f 37/153/153 51/155/155 38/156/156
s 36
f 29/157/157 52/158/158 28/160/160
f 52/158/158 37/159/159 28/160/160
s 37
f 53/161/161 52/162/162 29/163/163
f 53/161/161 29/163/163 30/164/164
s 38
f 41/165/165 53/166/166 31/168/168
f 53/166/166 30/167/167 31/168/168
s 39
f 21/172/172 20/171/171 55/169/169
f 20/171/171 56/170/170 55/169/169
s 40
f 21/176/176 55/175/175 22/173/173
f 55/175/175 57/174/174 22/173/173
s 41
f 59/180/180 57/179/179 58/177/177
f 57/179/179 55/178/178 58/177/177
s 42
f 33/184/184 59/183/183 34/181/181
f 59/183/183 58/182/182 34/181/181
s 43
f 25/188/188 26/187/187 59/186/186
f 25/188/188 59/186/186 33/185/185
s 44
f 58/192/192 60/191/191 34/189/189
f 60/191/191 35/190/190 34/189/189
s 45
f 26/196/196 27/195/195 59/193/193
f 27/195/195 57/194/194 59/193/193
s 46
f 23/200/200 22/199/199 57/198/198
f 23/200/200 57/198/198 27/197/197
s 47
f 55/204/204 56/203/203 58/201/201
f 56/203/203 60/202/202 58/201/201
s 48
f 19/208/208 43/207/207 56/206/206
f 19/208/208 56/206/206 20/205/205
s 49
f 60/212/212 56/211/211 43/210/210
f 60/212/212 43/210/210 44/209/209
s 50
f 36/216/216 35/215/215 44/213/213
f 35/215/215 60/214/214 44/213/213
