mtllib Materials_Modular_Temple.mtl
o object1
g object1
v -0.34913781 0.10000000 1.55000000
v -1.54999999 0.10000000 0.34913779
v -1.59999999 0.05000000 0.36984848
v -0.36984849 0.05000000 1.60000000
v -0.36984849 -0.12499997 1.60000000
v -1.59999999 -0.12499996 0.36984848
v -1.55942913 -0.22642711 0.35304347
v -0.35304350 -0.22642712 1.55942913
v -1.52461126 -0.24999996 0.33862144
v -0.33862146 -0.24999997 1.52461126
v -1.39999999 0.05000000 0.28700576
v -1.39999999 -0.12499996 0.28700576
v -0.28700578 -0.12499997 1.40000000
v -0.28700578 0.05000000 1.39999999
v -1.44057085 -0.22642711 0.30381076
v -0.30381078 -0.22642712 1.44057086
v -1.47538873 -0.24999997 0.31823280
v -0.31823282 -0.24999997 1.47538873
v -1.44999999 0.10000000 0.30771644
v -0.30771646 0.10000000 1.45000000
v 0.51019432 -0.24999996 1.52461126
v 0.52461636 -0.22642711 1.55942914
v 0.54142136 -0.12499996 1.60000000
v 0.54142136 0.05000000 1.60000000
v 0.52071068 0.10000000 1.55000000
v -1.47538874 -0.24999996 -0.51019432
v -1.44057086 -0.22642711 -0.52461636
v -1.40000000 -0.12499996 -0.54142136
v -1.40000000 0.05000000 -0.54142136
v -1.45000000 0.10000000 -0.52071068
v -1.52461126 -0.24999996 -0.51019432
v -1.55942914 -0.22642711 -0.52461636
v -1.60000000 -0.12499996 -0.54142136
v -1.60000000 0.05000000 -0.54142136
v -1.55000000 0.10000000 -0.52071068
v -1.47928932 0.10000000 -0.55000000
v -1.52071068 0.10000000 -0.55000000
v -1.54142136 0.05000000 -0.60000000
v -1.45857864 0.05000000 -0.60000000
v -1.45857864 -0.12499996 -0.60000000
v -1.54142136 -0.12499996 -0.60000000
v -1.52461636 -0.22642711 -0.55942914
v -1.47538364 -0.22642711 -0.55942914
v -1.48980568 -0.24999996 -0.52461126
v -1.51019432 -0.24999996 -0.52461126
v 0.52461126 -0.24999996 1.51019432
v 0.52461126 -0.24999996 1.48980568
v 0.51019432 -0.24999996 1.47538874
v 0.55000000 0.10000000 1.52071068
v 0.52071068 0.10000000 1.45000000
v 0.55000000 0.10000000 1.47928932
v 0.60000000 0.05000000 1.54142136
v 0.60000000 0.05000000 1.45857864
v 0.60000000 -0.12499996 1.45857864
v 0.60000000 -0.12499996 1.54142136
v 0.55942914 -0.22642711 1.52461636
v 0.55942914 -0.22642711 1.47538364
v 0.54142136 -0.12499996 1.40000000
v 0.52461636 -0.22642711 1.44057086
v 0.54142136 0.05000000 1.40000000
vt 0.01190477 0.00000028
vt 0.98809524 0.00000000
vt 1.00000000 1.00000000
vt 0.00000000 1.00000000
vt 0.00000000 1.00000000
vt 0.00000000 0.00000000
vt 1.00000000 0.00000000
vt 1.00000000 0.99999997
vt 0.00000000 0.00000001
vt 1.00000000 0.00000000
vt 0.99034027 1.00000000
vt 0.00965974 1.00000000
vt 0.00000000 0.00000000
vt 1.00000000 0.00000000
vt 0.99154672 1.00000000
vt 0.00845328 1.00000000
vt 1.00000000 0.00000000
vt 1.00000000 1.00000000
vt 0.00000000 1.00000000
vt 0.00000000 0.00000000
vt 0.98954667 0.00000000
vt 1.00000000 1.00000000
vt 0.00000000 1.00000000
vt 0.01045333 0.00000000
vt 0.99118708 0.00000000
vt 1.00000000 1.00000000
vt 0.00000000 1.00000000
vt 0.00881292 0.00000000
vt 1.00000000 0.00000000
vt 0.98717949 1.00000000
vt 0.01282051 1.00000000
vt 0.00000000 0.00000000
vt 0.98356762 1.00000000
vt 0.01643238 0.99999999
vt 0.00000000 0.00000002
vt 1.00000000 0.00000011
vt 1.00000000 1.00000000
vt 0.00000000 1.00000000
vt 0.00000000 0.00000000
vt 1.00000000 0.00000001
vt 1.00000000 1.00000000
vt 0.00000000 0.99999999
vt 0.02272727 0.00000001
vt 0.97727274 0.00000007
vt 0.98155872 0.99999999
vt 0.01844130 1.00000000
vt 0.00000000 0.00000000
vt 1.00000000 0.00000000
vt 0.98288895 0.00000001
vt 1.00000000 1.00000000
vt 0.01711106 0.99999999
vt 0.00000000 0.00000000
vt 1.00000000 0.99999996
vt 0.01988212 1.00000000
vt 0.00000000 0.00000000
vt 0.98011789 0.00000000
vt 1.00000000 1.00000000
vt 0.00000000 1.00000000
vt 0.00000000 0.00000000
vt 1.00000000 0.00000000
vt 0.97560976 0.99999999
vt 0.00000000 1.00000000
vt 0.02439024 0.00000001
vt 1.00000000 0.00000000
vt 0.98356762 0.99999997
vt 0.01643238 0.99999999
vt 0.00000000 0.00000002
vt 1.00000000 0.00000000
vt 0.01844130 0.99999993
vt 0.00000000 0.00000000
vt 1.00000000 0.00000007
vt 0.98155870 1.00000000
vt 1.00000000 1.00000000
vt 0.00000000 0.99999997
vt 0.00000000 0.00000000
vt 1.00000000 0.00000003
vt 0.00000000 1.00000000
vt 0.02272727 0.00000013
vt 0.97727272 0.00000007
vt 1.00000000 0.99999994
vt 0.25000000 0.00000000
vt 0.75000000 0.00000000
vt 1.00000000 1.00000000
vt 0.00000000 1.00000000
vt 0.00000000 1.00000000
vt 0.00000000 0.00000000
vt 1.00000000 0.00000000
vt 1.00000000 1.00000000
vt 0.00000000 0.00000000
vt 1.00000000 0.00000000
vt 0.79714569 1.00000000
vt 0.20285429 1.00000000
vt 0.00000000 0.00000000
vt 1.00000000 0.00000000
vt 0.79714567 1.00000000
vt 0.20285429 1.00000000
vt 0.00000000 0.00000000
vt 1.00000000 0.00000000
vt 0.70706398 1.00000000
vt 0.29293607 1.00000000
vt 0.00000000 0.00000001
vt 1.00000000 0.00000000
vt 0.70706400 1.00000000
vt 0.29293612 1.00000000
vt 0.00000000 1.00000000
vt 0.00000000 0.00000000
vt 1.00000000 0.00000000
vt 1.00000000 1.00000000
vt 0.75000000 0.00000000
vt 1.00000000 1.00000000
vt 0.00000000 1.00000000
vt 0.24999999 0.00000000
vt 1.00000000 1.00000000
vt 0.00000000 1.00000000
vt 0.25000000 0.00000000
vt 0.75000000 0.00000000
vt 0.00000000 1.00000000
vt 0.00000000 0.00000000
vt 1.00000000 0.00000000
vt 1.00000000 1.00000000
vt 0.79714569 1.00000000
vt 0.20285429 1.00000000
vt 0.00000000 0.00000000
vt 1.00000000 0.00000000
vt 0.29293607 1.00000000
vt 0.00000000 0.00000000
vt 1.00000000 0.00000000
vt 0.70706398 1.00000000
vt 0.57875111 0.00000000
vt 0.99296468 0.00000000
vt 1.00000000 0.00703532
vt 1.00000000 0.01698477
vt 0.99296468 0.02402010
vt 0.58870056 0.02402010
vt 0.02402010 0.58870057
vt 0.02402010 0.99296468
vt 0.01698477 1.00000000
vt 0.00703532 1.00000000
vt 0.00000000 0.99296468
vt 0.00000000 0.57875112
vt 0.01394730 1.00000000
vt 0.00000000 0.98605270
vt 0.00000000 0.57183914
vt 0.57183915 0.00000000
vt 0.98605270 0.00000000
vt 1.00000000 0.01394730
vt 1.00000000 0.03367175
vt 0.98605270 0.04761905
vt 0.59156360 0.04761905
vt 0.04761905 0.59156359
vt 0.04761905 0.98605270
vt 0.03367175 1.00000000
vt 0.25000000 0.00000000
vt 0.75000000 0.00000000
vt 1.00000000 1.00000000
vt 0.00000000 1.00000000
vt 0.00000000 1.00000000
vt 0.00000000 0.00000000
vt 1.00000000 0.00000000
vt 1.00000000 1.00000000
vt 0.00000000 0.00000000
vt 1.00000000 0.00000000
vt 0.79714569 1.00000000
vt 0.20285429 1.00000000
vt 0.00000000 0.00000000
vt 1.00000000 0.00000000
vt 0.79714567 1.00000000
vt 0.20285429 1.00000000
vt 1.00000000 0.00000005
vt 0.98011789 1.00000000
vt 0.00000000 0.99999996
vt 0.01988211 0.00000003
vt 1.00000000 0.00000014
vt 0.98288895 1.00000000
vt 0.00000000 0.99999994
vt 0.01711105 0.00000003
vt 1.00000000 1.00000000
vt 0.00000000 0.99999999
vt 0.00000000 0.00000002
vt 1.00000000 0.00000002
vt 0.00000000 0.00000000
vt 1.00000000 0.00000000
vt 0.70706398 1.00000000
vt 0.29293607 1.00000000
vt 0.00000000 0.00000001
vt 1.00000000 0.00000000
vt 0.70706400 1.00000000
vt 0.29293612 1.00000000
vt 0.00000000 1.00000000
vt 0.00000000 0.00000000
vt 1.00000000 0.00000000
vt 1.00000000 1.00000000
vt 0.75000000 0.00000000
vt 1.00000000 1.00000000
vt 0.00000000 1.00000000
vt 0.24999999 0.00000000
vt 1.00000000 0.99999995
vt 0.02439024 1.00000000
vt 0.00000000 0.00000006
vt 0.97560976 0.00000000
vt 1.00000000 1.00000000
vt 0.00000000 1.00000000
vt 0.25000000 0.00000000
vt 0.75000000 0.00000000
vt 0.00000000 1.00000000
vt 0.00000000 0.00000000
vt 1.00000000 0.00000000
vt 1.00000000 1.00000000
vt 0.79714569 1.00000000
vt 0.20285429 1.00000000
vt 0.00000000 0.00000000
vt 1.00000000 0.00000000
vt 0.29293607 1.00000000
vt 0.00000000 0.00000000
vt 1.00000000 0.00000000
vt 0.70706398 1.00000000
vn -0.50000000 0.70710678 0.50000000
vn -0.50000000 0.70710678 0.50000000
vn -0.50000000 0.70710678 0.50000000
vn -0.50000000 0.70710678 0.50000000
vn -0.70710679 -0.00000000 0.70710677
vn -0.70710679 -0.00000000 0.70710677
vn -0.70710679 -0.00000000 0.70710677
vn -0.70710679 -0.00000000 0.70710677
vn -0.65653217 -0.37139068 0.65653216
vn -0.65653217 -0.37139068 0.65653216
vn -0.65653217 -0.37139068 0.65653216
vn -0.65653217 -0.37139068 0.65653216
vn -0.39642444 -0.82806723 0.39642443
vn -0.39642444 -0.82806723 0.39642443
vn -0.39642444 -0.82806723 0.39642443
vn -0.39642444 -0.82806723 0.39642443
vn 0.70710679 -0.00000000 -0.70710677
vn 0.70710679 -0.00000000 -0.70710677
vn 0.70710679 -0.00000000 -0.70710677
vn 0.70710679 -0.00000000 -0.70710677
vn 0.65653217 -0.37139068 -0.65653216
vn 0.65653217 -0.37139068 -0.65653216
vn 0.65653217 -0.37139068 -0.65653216
vn 0.65653217 -0.37139068 -0.65653216
vn 0.39642444 -0.82806723 -0.39642443
vn 0.39642444 -0.82806723 -0.39642443
vn 0.39642444 -0.82806723 -0.39642443
vn 0.39642444 -0.82806723 -0.39642443
vn 0.50000001 0.70710678 -0.49999999
vn 0.50000001 0.70710678 -0.49999999
vn 0.50000001 0.70710678 -0.49999999
vn 0.50000001 0.70710678 -0.49999999
vn -0.00000000 -0.82806723 0.56062881
vn -0.00000000 -0.82806723 0.56062881
vn -0.00000000 -0.82806723 0.56062881
vn -0.00000000 -0.82806723 0.56062881
vn -0.00000001 -0.00000000 1.00000000
vn -0.00000001 -0.00000000 1.00000000
vn -0.00000001 -0.00000000 1.00000000
vn -0.00000001 -0.00000000 1.00000000
vn -0.00000000 0.70710678 0.70710678
vn -0.00000000 0.70710678 0.70710678
vn -0.00000000 0.70710678 0.70710678
vn -0.00000000 0.70710678 0.70710678
vn -0.00000000 -0.37139068 0.92847669
vn -0.00000000 -0.37139068 0.92847669
vn -0.00000000 -0.37139068 0.92847669
vn -0.00000000 -0.37139068 0.92847669
vn 0.56062881 -0.82806723 -0.00000001
vn 0.56062881 -0.82806723 -0.00000001
vn 0.56062881 -0.82806723 -0.00000001
vn 0.56062881 -0.82806723 -0.00000001
vn 0.92847669 -0.37139068 -0.00000001
vn 0.92847669 -0.37139068 -0.00000001
vn 0.92847669 -0.37139068 -0.00000001
vn 0.92847669 -0.37139068 -0.00000001
vn 1.00000000 -0.00000000 -0.00000001
vn 1.00000000 -0.00000000 -0.00000001
vn 1.00000000 -0.00000000 -0.00000001
vn 1.00000000 -0.00000000 -0.00000001
vn 0.70710678 0.70710678 -0.00000001
vn 0.70710678 0.70710678 -0.00000001
vn 0.70710678 0.70710678 -0.00000001
vn 0.70710678 0.70710678 -0.00000001
vn -0.56062881 -0.82806723 0.00000000
vn -0.56062881 -0.82806723 0.00000000
vn -0.56062881 -0.82806723 0.00000000
vn -0.56062881 -0.82806723 0.00000000
vn -0.92847669 -0.37139068 -0.00000000
vn -0.92847669 -0.37139068 -0.00000000
vn -0.92847669 -0.37139068 -0.00000000
vn -0.92847669 -0.37139068 -0.00000000
vn -1.00000000 -0.00000000 -0.00000000
vn -1.00000000 -0.00000000 -0.00000000
vn -1.00000000 -0.00000000 -0.00000000
vn -1.00000000 -0.00000000 -0.00000000
vn -0.70710678 0.70710678 -0.00000001
vn -0.70710678 0.70710678 -0.00000001
vn -0.70710678 0.70710678 -0.00000001
vn -0.70710678 0.70710678 -0.00000001
vn 0.00000001 0.70710678 -0.70710678
vn 0.00000001 0.70710678 -0.70710678
vn 0.00000001 0.70710678 -0.70710678
vn 0.00000001 0.70710678 -0.70710678
vn 0.00000000 -0.00000000 -1.00000000
vn 0.00000000 -0.00000000 -1.00000000
vn 0.00000000 -0.00000000 -1.00000000
vn 0.00000000 -0.00000000 -1.00000000
vn 0.00000000 -0.37139068 -0.92847669
vn 0.00000000 -0.37139068 -0.92847669
vn 0.00000000 -0.37139068 -0.92847669
vn 0.00000000 -0.37139068 -0.92847669
vn 0.65653217 -0.37139068 -0.65653216
vn 0.65653217 -0.37139068 -0.65653216
vn 0.65653217 -0.37139068 -0.65653216
vn 0.65653217 -0.37139068 -0.65653216
vn 0.39642443 -0.82806723 -0.39642443
vn 0.39642443 -0.82806723 -0.39642443
vn 0.39642443 -0.82806723 -0.39642443
vn 0.39642443 -0.82806723 -0.39642443
vn -0.00000000 -0.82806723 -0.56062881
vn -0.00000000 -0.82806723 -0.56062881
vn -0.00000000 -0.82806723 -0.56062881
vn -0.00000000 -0.82806723 -0.56062881
vn 0.70710678 -0.00000000 -0.70710678
vn 0.70710678 -0.00000000 -0.70710678
vn 0.70710678 -0.00000000 -0.70710678
vn 0.70710678 -0.00000000 -0.70710678
vn 0.50000000 0.70710678 -0.50000000
vn 0.50000000 0.70710678 -0.50000000
vn 0.50000000 0.70710678 -0.50000000
vn 0.50000000 0.70710678 -0.50000000
vn -0.50000000 0.70710678 -0.50000000
vn -0.50000000 0.70710678 -0.50000000
vn -0.50000000 0.70710678 -0.50000000
vn -0.50000000 0.70710678 -0.50000000
vn -0.70710678 -0.00000000 -0.70710678
vn -0.70710678 -0.00000000 -0.70710678
vn -0.70710678 -0.00000000 -0.70710678
vn -0.70710678 -0.00000000 -0.70710678
vn -0.65653216 -0.37139068 -0.65653217
vn -0.65653216 -0.37139068 -0.65653217
vn -0.65653216 -0.37139068 -0.65653217
vn -0.65653216 -0.37139068 -0.65653217
vn -0.39642443 -0.82806723 -0.39642443
vn -0.39642443 -0.82806723 -0.39642443
vn -0.39642443 -0.82806723 -0.39642443
vn -0.39642443 -0.82806723 -0.39642443
vn 0.00000000 -1.00000000 -0.00000003
vn 0.00000000 -1.00000000 -0.00000003
vn 0.00000000 -1.00000000 -0.00000003
vn 0.00000000 -1.00000000 -0.00000003
vn 0.00000000 -1.00000000 -0.00000003
vn 0.00000000 -1.00000000 -0.00000003
vn 0.00000000 -1.00000000 -0.00000003
vn 0.00000000 -1.00000000 -0.00000003
vn 0.00000000 -1.00000000 -0.00000003
vn 0.00000000 -1.00000000 -0.00000003
vn 0.00000000 -1.00000000 -0.00000003
vn 0.00000000 -1.00000000 -0.00000003
vn -0.00000000 1.00000000 -0.00000000
vn -0.00000000 1.00000000 -0.00000000
vn -0.00000000 1.00000000 -0.00000000
vn -0.00000000 1.00000000 -0.00000000
vn -0.00000000 1.00000000 -0.00000000
vn -0.00000000 1.00000000 -0.00000000
vn -0.00000000 1.00000000 -0.00000000
vn -0.00000000 1.00000000 -0.00000000
vn -0.00000000 1.00000000 -0.00000000
vn -0.00000000 1.00000000 -0.00000000
vn -0.00000000 1.00000000 -0.00000000
vn -0.00000000 1.00000000 -0.00000000
vn 0.70710678 0.70710678 -0.00000001
vn 0.70710678 0.70710678 -0.00000001
vn 0.70710678 0.70710678 -0.00000001
vn 0.70710678 0.70710678 -0.00000001
vn 1.00000000 -0.00000000 -0.00000000
vn 1.00000000 -0.00000000 -0.00000000
vn 1.00000000 -0.00000000 -0.00000000
vn 1.00000000 -0.00000000 -0.00000000
vn 0.92847669 -0.37139068 -0.00000000
vn 0.92847669 -0.37139068 -0.00000000
vn 0.92847669 -0.37139068 -0.00000000
vn 0.92847669 -0.37139068 -0.00000000
vn 0.65653216 -0.37139068 -0.65653217
vn 0.65653216 -0.37139068 -0.65653217
vn 0.65653216 -0.37139068 -0.65653217
vn 0.65653216 -0.37139068 -0.65653217
vn -0.00000000 -0.37139068 -0.92847669
vn -0.00000000 -0.37139068 -0.92847669
vn -0.00000000 -0.37139068 -0.92847669
vn -0.00000000 -0.37139068 -0.92847669
vn 0.00000000 -0.82806723 -0.56062881
vn 0.00000000 -0.82806723 -0.56062881
vn 0.00000000 -0.82806723 -0.56062881
vn 0.00000000 -0.82806723 -0.56062881
vn -0.00000000 -0.00000000 -1.00000000
vn -0.00000000 -0.00000000 -1.00000000
vn -0.00000000 -0.00000000 -1.00000000
vn -0.00000000 -0.00000000 -1.00000000
vn 0.39642443 -0.82806723 -0.39642443
vn 0.39642443 -0.82806723 -0.39642443
vn 0.39642443 -0.82806723 -0.39642443
vn 0.39642443 -0.82806723 -0.39642443
vn 0.56062881 -0.82806723 0.00000000
vn 0.56062881 -0.82806723 0.00000000
vn 0.56062881 -0.82806723 0.00000000
vn 0.56062881 -0.82806723 0.00000000
vn 0.70710678 -0.00000000 -0.70710678
vn 0.70710678 -0.00000000 -0.70710678
vn 0.70710678 -0.00000000 -0.70710678
vn 0.70710678 -0.00000000 -0.70710678
vn 0.50000000 0.70710678 -0.50000000
vn 0.50000000 0.70710678 -0.50000000
vn 0.50000000 0.70710678 -0.50000000
vn 0.50000000 0.70710678 -0.50000000
vn -0.00000001 0.70710678 -0.70710678
vn -0.00000001 0.70710678 -0.70710678
vn -0.00000001 0.70710678 -0.70710678
vn -0.00000001 0.70710678 -0.70710678
vn 0.50000000 0.70710678 0.50000000
vn 0.50000000 0.70710678 0.50000000
vn 0.50000000 0.70710678 0.50000000
vn 0.50000000 0.70710678 0.50000000
vn 0.70710678 -0.00000000 0.70710678
vn 0.70710678 -0.00000000 0.70710678
vn 0.70710678 -0.00000000 0.70710678
vn 0.70710678 -0.00000000 0.70710678
vn 0.65653217 -0.37139068 0.65653216
vn 0.65653217 -0.37139068 0.65653216
vn 0.65653217 -0.37139068 0.65653216
vn 0.65653217 -0.37139068 0.65653216
vn 0.39642443 -0.82806723 0.39642443
vn 0.39642443 -0.82806723 0.39642443
vn 0.39642443 -0.82806723 0.39642443
vn 0.39642443 -0.82806723 0.39642443
s 1
usemtl Sandstone_5
f 1/1/1 2/2/2 3/3/3
f 1/1/1 3/3/3 4/4/4
s 2
f 5/5/5 4/6/6 6/8/8
f 4/6/6 3/7/7 6/8/8
s 3
f 5/9/9 6/10/10 8/12/12
f 6/10/10 7/11/11 8/12/12
s 4
f 8/13/13 7/14/14 9/15/15
f 8/13/13 9/15/15 10/16/16
s 5
f 14/20/20 13/19/19 12/18/18
f 14/20/20 12/18/18 11/17/17
s 6
f 13/24/24 16/23/23 15/22/22
f 13/24/24 15/22/22 12/21/21
s 7
f 16/28/28 18/27/27 17/26/26
f 16/28/28 17/26/26 15/25/25
s 8
f 20/32/32 14/31/31 19/29/29
f 14/31/31 11/30/30 19/29/29
s 9
f 10/33/33 21/34/34 22/35/35
f 10/33/33 22/35/35 8/36/36
s 10
f 5/37/37 23/38/38 4/40/40
f 23/38/38 24/39/39 4/40/40
s 11
f 4/41/41 24/42/42 25/43/43
f 4/41/41 25/43/43 1/44/44
s 12
f 8/45/45 22/46/46 5/48/48
f 22/46/46 23/47/47 5/48/48
s 13
f 15/49/49 17/50/50 26/51/51
f 15/49/49 26/51/51 27/52/52
s 14
f 15/53/53 27/54/54 12/56/56
f 27/54/54 28/55/55 12/56/56
s 15
f 12/57/57 28/58/58 29/59/59
f 12/57/57 29/59/59 11/60/60
s 16
f 11/61/61 29/62/62 30/63/63
f 11/61/61 30/63/63 19/64/64
s 17
f 7/68/68 32/67/67 31/66/66
f 7/68/68 31/66/66 9/65/65
s 18
f 7/72/72 6/71/71 33/70/70
f 7/72/72 33/70/70 32/69/69
s 19
f 3/76/76 34/75/75 33/74/74
f 3/76/76 33/74/74 6/73/73
s 20
f 3/80/80 2/79/79 34/77/77
f 2/79/79 35/78/78 34/77/77
s 21
f 39/84/84 38/83/83 37/82/82
f 39/84/84 37/82/82 36/81/81
s 22
f 41/88/88 38/87/87 40/85/85
f 38/87/87 39/86/86 40/85/85
s 23
f 43/92/92 42/91/91 40/89/89
f 42/91/91 41/90/90 40/89/89
s 24
f 27/96/96 43/95/95 28/93/93
f 43/95/95 40/94/94 28/93/93
s 25
f 26/100/100 44/99/99 43/98/98
f 26/100/100 43/98/98 27/97/97
s 26
f 44/104/104 45/103/103 43/101/101
f 45/103/103 42/102/102 43/101/101
s 27
f 40/108/108 39/107/107 28/105/105
f 39/107/107 29/106/106 28/105/105
s 28
f 30/112/112 29/111/111 36/109/109
f 29/111/111 39/110/110 36/109/109
s 29
f 35/116/116 37/115/115 38/114/114
f 35/116/116 38/114/114 34/113/113
s 30
f 33/120/120 34/119/119 41/117/117
f 34/119/119 38/118/118 41/117/117
s 31
f 33/124/124 41/123/123 32/121/121
f 41/123/123 42/122/122 32/121/121
s 32
f 31/128/128 32/127/127 42/126/126
f 31/128/128 42/126/126 45/125/125
s 33
f 47/132/132 46/131/131 21/130/130
f 18/134/134 21/130/130 10/129/129
f 9/140/140 17/135/135 10/129/129
f 31/139/139 26/136/136 17/135/135
f 31/139/139 44/137/137 26/136/136
f 31/139/139 45/138/138 44/137/137
f 9/140/140 31/139/139 17/135/135
f 17/135/135 18/134/134 10/129/129
f 18/134/134 48/133/133 21/130/130
f 48/133/133 47/132/132 21/130/130
s 34
f 25/142/142 49/141/141 51/152/152
f 1/143/143 25/142/142 20/150/150
f 20/150/150 19/149/149 2/144/144
f 19/149/149 35/145/145 2/144/144
f 30/148/148 36/147/147 35/145/145
f 36/147/147 37/146/146 35/145/145
f 19/149/149 30/148/148 35/145/145
f 20/150/150 2/144/144 1/143/143
f 25/142/142 50/151/151 20/150/150
f 25/142/142 51/152/152 50/151/151
s 35
f 51/153/153 49/154/154 53/156/156
f 49/154/154 52/155/155 53/156/156
s 36
f 54/157/157 53/158/158 52/159/159
f 54/157/157 52/159/159 55/160/160
s 37
f 54/161/161 55/162/162 56/163/163
f 54/161/161 56/163/163 57/164/164
s 38
f 58/165/165 54/166/166 57/167/167
f 58/165/165 57/167/167 59/168/168
s 39
f 58/169/169 59/170/170 13/172/172
f 59/170/170 16/171/171 13/172/172
s 40
f 59/173/173 48/174/174 16/176/176
f 48/174/174 18/175/175 16/176/176
s 41
f 58/177/177 13/178/178 60/180/180
f 13/178/178 14/179/179 60/180/180
s 42
f 59/181/181 57/182/182 48/184/184
f 57/182/182 47/183/183 48/184/184
s 43
f 57/185/185 56/186/186 46/187/187
f 57/185/185 46/187/187 47/188/188
s 44
f 58/189/189 60/190/190 53/191/191
f 58/189/189 53/191/191 54/192/192
s 45
f 51/193/193 53/194/194 60/195/195
f 51/193/193 60/195/195 50/196/196
s 46
f 60/197/197 14/198/198 50/200/200
f 14/198/198 20/199/199 50/200/200
s 47
f 24/201/201 52/202/202 25/204/204
f 52/202/202 49/203/203 25/204/204
s 48
f 55/205/205 52/206/206 24/207/207
f 55/205/205 24/207/207 23/208/208
s 49
f 22/209/209 56/210/210 55/211/211
f 22/209/209 55/211/211 23/212/212
s 50
f 46/213/213 56/214/214 21/216/216
f 56/214/214 22/215/215 21/216/216
