mtllib Materials_Modular_Temple.mtl
o object1
g object1
v 0.50000000 -0.20000000 -0.50000000
v -0.50000000 -0.20000000 -0.50000000
v -0.50000000 -0.00000000 -0.50000000
v 0.50000000 -0.00000000 -0.50000000
v -0.50000000 -0.20000000 -0.08578644
v 0.08578644 -0.20000000 0.50000000
v 0.50000000 -0.20000000 0.50000000
v 0.08578644 -0.00000000 0.50000000
v 0.50000000 -0.00000000 0.50000000
v -0.50000000 -0.00000000 -0.08578644
vt 0.00000000 1.00000000
vt 0.00000000 0.00000000
vt 1.00000000 0.00000000
vt 1.00000000 1.00000000
vt 0.00000000 0.00000000
vt 0.41421356 0.00000000
vt 1.00000000 0.58578644
vt 1.00000000 1.00000000
vt 0.00000000 1.00000000
vt 0.00000000 1.00000000
vt 0.00000000 0.00000000
vt 1.00000000 0.00000000
vt 1.00000000 1.00000000
vt 0.00000000 1.00000000
vt 0.00000000 0.00000000
vt 1.00000000 0.00000000
vt 1.00000000 1.00000000
vt 0.00000000 1.00000000
vt 0.00000000 0.00000000
vt 1.00000000 0.00000000
vt 1.00000000 1.00000000
vt 0.00000000 0.00000000
vt 0.41421356 0.00000000
vt 1.00000000 0.58578644
vt 1.00000000 1.00000000
vt 0.00000000 1.00000000
vt 0.00000000 1.00000000
vt 0.00000000 0.00000000
vt 1.00000000 0.00000000
vt 1.00000000 1.00000000
vn -0.00000000 0.00000000 -1.00000000
vn -0.00000000 0.00000000 -1.00000000
vn -0.00000000 0.00000000 -1.00000000
vn -0.00000000 0.00000000 -1.00000000
vn 0.00000000 -1.00000000 0.00000000
vn 0.00000000 -1.00000000 0.00000000
vn 0.00000000 -1.00000000 0.00000000
vn 0.00000000 -1.00000000 0.00000000
vn 0.00000000 -1.00000000 0.00000000
vn 0.00000000 -0.00000000 1.00000000
vn 0.00000000 -0.00000000 1.00000000
vn 0.00000000 -0.00000000 1.00000000
vn 0.00000000 -0.00000000 1.00000000
vn -0.70710678 -0.00000000 0.70710678
vn -0.70710678 -0.00000000 0.70710678
vn -0.70710678 -0.00000000 0.70710678
vn -0.70710678 -0.00000000 0.70710678
vn 1.00000000 -0.00000000 0.00000000
vn 1.00000000 -0.00000000 0.00000000
vn 1.00000000 -0.00000000 0.00000000
vn 1.00000000 -0.00000000 0.00000000
vn -0.00000000 1.00000000 -0.00000000
vn -0.00000000 1.00000000 -0.00000000
vn -0.00000000 1.00000000 -0.00000000
vn -0.00000000 1.00000000 -0.00000000
vn -0.00000000 1.00000000 -0.00000000
vn -1.00000000 0.00000000 -0.00000000
vn -1.00000000 0.00000000 -0.00000000
vn -1.00000000 0.00000000 -0.00000000
vn -1.00000000 0.00000000 -0.00000000
s 1
usemtl Sandstone_Trim
f 1/1/1 2/2/2 3/3/3
f 1/1/1 3/3/3 4/4/4
s 2
f 6/7/7 5/6/6 2/5/5
f 1/9/9 6/7/7 2/5/5
f 1/9/9 7/8/8 6/7/7
s 3
f 9/13/13 8/12/12 7/10/10
f 8/12/12 6/11/11 7/10/10
s 4
f 8/17/17 10/16/16 6/14/14
f 10/16/16 5/15/15 6/14/14
s 5
f 4/21/21 9/20/20 7/19/19
f 4/21/21 7/19/19 1/18/18
s 6
usemtl Sandstone_Floor
f 10/23/23 8/24/24 9/25/25
f 10/23/23 9/25/25 4/26/26
f 4/26/26 3/22/22 10/23/23
s 7
usemtl Sandstone_Trim
f 10/30/30 3/29/29 5/27/27
f 3/29/29 2/28/28 5/27/27
