mtllib Materials_Modular_Temple.mtl
o object1
g object1
v -0.50000000 0.00000000 -0.37867966
v -0.50000000 0.00000000 -0.50000000
v -1.50000000 0.00000000 -0.50000000
v -1.50000000 0.00000000 0.03553391
v -0.03553391 0.00000000 1.50000000
v 0.50000000 0.00000000 1.50000000
v 0.50000000 0.00000000 0.50000000
v 0.37867966 0.00000000 0.50000000
v -0.50000000 -0.20000000 -0.37867966
v -0.50000000 -0.20000000 -0.50000000
v -1.50000000 -0.20000000 -0.50000000
v -1.50000000 -0.20000000 0.03553391
v -0.03553391 -0.20000000 1.50000000
v 0.50000000 -0.20000000 1.50000000
v 0.50000000 -0.20000000 0.50000000
v 0.37867966 -0.20000000 0.50000000
vt 0.50000000 0.06066017
vt 0.50000000 0.00000000
vt 1.00000000 0.00000000
vt 1.00000000 0.26776695
vt 0.26776695 1.00000000
vt 0.00000000 1.00000000
vt 0.00000000 0.50000000
vt 0.06066017 0.50000000
vt 0.50000000 0.06066017
vt 0.50000000 0.00000000
vt 1.00000000 0.00000000
vt 1.00000000 0.26776695
vt 0.26776695 1.00000000
vt 0.00000000 1.00000000
vt 0.00000000 0.50000000
vt 0.06066017 0.50000000
vt 0.00000000 1.00000000
vt 0.00000000 0.00000000
vt 1.00000000 0.00000000
vt 1.00000000 1.00000000
vt 0.00000000 1.00000000
vt 0.00000000 0.00000000
vt 1.00000000 0.00000000
vt 1.00000000 1.00000000
vt 0.00000000 1.00000000
vt 0.00000000 0.00000000
vt 1.00000000 0.00000000
vt 1.00000000 1.00000000
vt 0.00000000 1.00000000
vt 0.00000000 0.00000000
vt 1.00000000 0.00000000
vt 1.00000000 1.00000000
vt 0.00000000 1.00000000
vt 0.00000000 0.00000000
vt 1.00000000 0.00000000
vt 1.00000000 1.00000000
vt 0.00000000 1.00000000
vt 0.00000000 0.00000000
vt 1.00000000 0.00000000
vt 1.00000000 1.00000000
vt 0.00000000 1.00000000
vt 0.00000000 0.00000000
vt 1.00000000 0.00000000
vt 1.00000000 1.00000000
vt 0.00000000 1.00000000
vt 0.00000000 0.00000000
vt 1.00000000 0.00000000
vt 1.00000000 1.00000000
vn 0.00000000 1.00000000 0.00000000
vn 0.00000000 1.00000000 0.00000000
vn 0.00000000 1.00000000 0.00000000
vn 0.00000000 1.00000000 0.00000000
vn 0.00000000 1.00000000 0.00000000
vn 0.00000000 1.00000000 0.00000000
vn 0.00000000 1.00000000 0.00000000
vn 0.00000000 1.00000000 0.00000000
vn 0.00000000 -1.00000000 0.00000000
vn 0.00000000 -1.00000000 0.00000000
vn 0.00000000 -1.00000000 0.00000000
vn 0.00000000 -1.00000000 0.00000000
vn 0.00000000 -1.00000000 0.00000000
vn 0.00000000 -1.00000000 0.00000000
vn 0.00000000 -1.00000000 0.00000000
vn 0.00000000 -1.00000000 0.00000000
vn 1.00000000 0.00000000 0.00000000
vn 1.00000000 0.00000000 0.00000000
vn 1.00000000 0.00000000 0.00000000
vn 1.00000000 0.00000000 0.00000000
vn 0.00000000 0.00000000 -1.00000000
vn 0.00000000 0.00000000 -1.00000000
vn 0.00000000 0.00000000 -1.00000000
vn 0.00000000 0.00000000 -1.00000000
vn -1.00000000 0.00000000 0.00000000
vn -1.00000000 0.00000000 0.00000000
vn -1.00000000 0.00000000 0.00000000
vn -1.00000000 0.00000000 0.00000000
vn -0.70710678 0.00000000 0.70710678
vn -0.70710678 0.00000000 0.70710678
vn -0.70710678 0.00000000 0.70710678
vn -0.70710678 0.00000000 0.70710678
vn -0.00000000 0.00000000 1.00000000
vn -0.00000000 0.00000000 1.00000000
vn -0.00000000 0.00000000 1.00000000
vn -0.00000000 0.00000000 1.00000000
vn 1.00000000 0.00000000 -0.00000000
vn 1.00000000 0.00000000 -0.00000000
vn 1.00000000 0.00000000 -0.00000000
vn 1.00000000 0.00000000 -0.00000000
vn 0.00000000 0.00000000 -1.00000000
vn 0.00000000 0.00000000 -1.00000000
vn 0.00000000 0.00000000 -1.00000000
vn 0.00000000 0.00000000 -1.00000000
vn 0.70710678 0.00000000 -0.70710678
vn 0.70710678 0.00000000 -0.70710678
vn 0.70710678 0.00000000 -0.70710678
vn 0.70710678 0.00000000 -0.70710678
s 1
usemtl Sandstone_Floor
f 2/2/2 3/3/3 4/4/4
f 8/8/8 4/4/4 5/5/5
f 5/5/5 6/6/6 7/7/7
f 5/5/5 7/7/7 8/8/8
f 8/8/8 1/1/1 4/4/4
f 1/1/1 2/2/2 4/4/4
s 2
usemtl Sandstone_Trim
f 12/12/12 11/11/11 10/10/10
f 13/13/13 12/12/12 16/16/16
f 16/16/16 15/15/15 13/13/13
f 15/15/15 14/14/14 13/13/13
f 12/12/12 9/9/9 16/16/16
f 12/12/12 10/10/10 9/9/9
s 3
f 2/17/17 1/18/18 10/20/20
f 1/18/18 9/19/19 10/20/20
s 4
f 3/21/21 2/22/22 11/24/24
f 2/22/22 10/23/23 11/24/24
s 5
f 4/25/25 3/26/26 12/28/28
f 3/26/26 11/27/27 12/28/28
s 6
f 5/29/29 4/30/30 13/32/32
f 4/30/30 12/31/31 13/32/32
s 7
f 6/33/33 5/34/34 14/36/36
f 5/34/34 13/35/35 14/36/36
s 8
f 7/37/37 6/38/38 15/40/40
f 6/38/38 14/39/39 15/40/40
s 9
f 8/41/41 7/42/42 16/44/44
f 7/42/42 15/43/43 16/44/44
s 10
f 1/45/45 8/46/46 9/48/48
f 8/46/46 16/47/47 9/48/48
