mtllib Materials_Modular_Temple.mtl
o object1
g object1
v -1.00000000 0.00000000 0.00000000
v -1.00000000 0.00000000 1.00000000
v -0.00000000 0.00000000 1.00000000
v -0.00000000 0.00000000 0.00000000
v -0.10000000 0.30000000 0.10000000
v -0.10000000 0.30000000 0.90000000
v -0.50000000 0.30000000 0.85000000
v -0.85000000 0.30000000 0.85000000
v -0.85000000 0.30000000 0.15000000
v -0.50000000 0.30000000 0.15000000
v -0.50000000 0.30000000 0.10000000
v -0.90000000 0.30000000 0.10000000
v -0.90000000 0.30000000 0.90000000
v -0.50000000 0.30000000 0.90000000
v -0.15000000 0.30000000 0.15000000
v -0.15000000 0.30000000 0.85000000
v -0.15000000 0.40000000 0.15000000
v -0.15000000 0.40000000 0.85000000
v -0.85000000 0.40000000 0.85000000
v -0.85000000 0.40000000 0.15000000
vt 0.00000000 1.00000000
vt 0.00000000 0.00000000
vt 1.00000000 0.00000000
vt 1.00000000 1.00000000
vt 1.00000000 0.00000000
vt 1.00000000 1.00000000
vt 0.00000000 1.00000000
vt 0.00000000 0.00000000
vt 0.50000000 0.06250000
vt 0.06250000 0.06250000
vt 0.06250000 0.93750000
vt 0.50000000 0.93750000
vt 0.50000000 1.00000000
vt 0.00000000 1.00000000
vt 0.00000000 0.00000000
vt 0.50000000 0.00000000
vt 0.93750000 0.93750000
vt 0.93750000 0.06250000
vt 1.00000000 0.00000000
vt 1.00000000 1.00000000
vt 1.00000000 0.00000000
vt 1.00000000 1.00000000
vt 0.00000000 1.00000000
vt 0.00000000 0.00000000
vt 1.00000000 0.00000000
vt 1.00000000 1.00000000
vt 0.00000000 1.00000000
vt 0.00000000 0.00000000
vt 1.00000000 0.00000000
vt 1.00000000 1.00000000
vt 0.00000000 1.00000000
vt 0.00000000 0.00000000
vt 0.00000000 0.50000000
vt 1.00000000 0.00000000
vt 1.00000000 1.00000000
vt 0.00000000 1.00000000
vt 0.00000000 0.00000000
vt 1.00000000 0.00000000
vt 1.00000000 1.00000000
vt 0.00000000 1.00000000
vt 0.00000000 0.00000000
vt 0.00000000 0.50000000
vt 1.00000000 0.00000000
vt 1.00000000 1.00000000
vt 0.00000000 1.00000000
vt 0.00000000 0.00000000
vt 0.00000000 0.50000000
vt 1.00000000 0.00000000
vt 1.00000000 1.00000000
vt 0.00000000 1.00000000
vt 0.00000000 0.00000000
vt 1.00000000 0.00000000
vt 1.00000000 1.00000000
vt 0.00000000 1.00000000
vt 0.00000000 0.00000000
vt 0.00000000 0.50000000
vn 0.00000000 -1.00000000 0.00000000
vn 0.00000000 -1.00000000 0.00000000
vn 0.00000000 -1.00000000 0.00000000
vn 0.00000000 -1.00000000 0.00000000
vn 0.94868330 0.31622777 0.00000000
vn 0.94868330 0.31622777 0.00000000
vn 0.94868330 0.31622777 0.00000000
vn 0.94868330 0.31622777 0.00000000
vn 0.00000000 1.00000000 -0.00000000
vn 0.00000000 1.00000000 -0.00000000
vn 0.00000000 1.00000000 -0.00000000
vn 0.00000000 1.00000000 -0.00000000
vn 0.00000000 1.00000000 -0.00000000
vn 0.00000000 1.00000000 -0.00000000
vn 0.00000000 1.00000000 -0.00000000
vn 0.00000000 1.00000000 -0.00000000
vn 0.00000000 1.00000000 -0.00000000
vn 0.00000000 1.00000000 -0.00000000
vn 0.00000000 1.00000000 -0.00000000
vn 0.00000000 1.00000000 -0.00000000
vn 1.00000000 0.00000000 0.00000000
vn 1.00000000 0.00000000 0.00000000
vn 1.00000000 0.00000000 0.00000000
vn 1.00000000 0.00000000 0.00000000
vn 0.00000000 1.00000000 0.00000000
vn 0.00000000 1.00000000 0.00000000
vn 0.00000000 1.00000000 0.00000000
vn 0.00000000 1.00000000 0.00000000
vn 0.00000000 0.00000000 -1.00000000
vn 0.00000000 0.00000000 -1.00000000
vn 0.00000000 0.00000000 -1.00000000
vn 0.00000000 0.00000000 -1.00000000
vn 0.00000000 0.00000000 -1.00000000
vn -1.00000000 0.00000000 0.00000000
vn -1.00000000 0.00000000 0.00000000
vn -1.00000000 0.00000000 0.00000000
vn -1.00000000 0.00000000 0.00000000
vn 0.00000000 0.00000000 1.00000000
vn 0.00000000 0.00000000 1.00000000
vn 0.00000000 0.00000000 1.00000000
vn 0.00000000 0.00000000 1.00000000
vn 0.00000000 0.00000000 1.00000000
vn 0.00000000 0.31622777 -0.94868330
vn 0.00000000 0.31622777 -0.94868330
vn 0.00000000 0.31622777 -0.94868330
vn 0.00000000 0.31622777 -0.94868330
vn 0.00000000 0.31622777 -0.94868330
vn -0.94868330 0.31622777 0.00000000
vn -0.94868330 0.31622777 0.00000000
vn -0.94868330 0.31622777 0.00000000
vn -0.94868330 0.31622777 0.00000000
vn 0.00000000 0.31622777 0.94868330
vn 0.00000000 0.31622777 0.94868330
vn 0.00000000 0.31622777 0.94868330
vn 0.00000000 0.31622777 0.94868330
vn 0.00000000 0.31622777 0.94868330
s 1
usemtl Sandstone_5
f 4/4/4 3/3/3 1/1/1
f 3/3/3 2/2/2 1/1/1
s 2
f 3/5/5 4/6/6 6/8/8
f 4/6/6 5/7/7 6/8/8
s 3
f 14/16/16 7/9/9 8/10/10
f 8/10/10 12/14/14 13/15/15
f 9/11/11 11/13/13 12/14/14
f 5/20/20 11/13/13 15/17/17
f 15/17/17 16/18/18 6/19/19
f 15/17/17 6/19/19 5/20/20
f 11/13/13 10/12/12 15/17/17
f 9/11/11 10/12/12 11/13/13
f 8/10/10 9/11/11 12/14/14
f 16/18/18 14/16/16 6/19/19
f 16/18/18 7/9/9 14/16/16
f 13/15/15 14/16/16 8/10/10
s 4
usemtl Sandstone_4
f 17/21/21 18/22/22 15/24/24
f 18/22/22 16/23/23 15/24/24
s 5
f 20/28/28 19/27/27 18/26/26
f 20/28/28 18/26/26 17/25/25
s 6
f 17/30/30 15/31/31 10/33/33
f 10/33/33 9/32/32 20/29/29
f 20/29/29 17/30/30 10/33/33
s 7
f 9/37/37 8/36/36 20/34/34
f 8/36/36 19/35/35 20/34/34
s 8
f 7/42/42 16/40/40 18/39/39
f 7/42/42 18/39/39 19/38/38
f 19/38/38 8/41/41 7/42/42
s 9
usemtl Sandstone_5
f 1/44/44 12/45/45 11/47/47
f 11/47/47 5/46/46 4/43/43
f 4/43/43 1/44/44 11/47/47
s 10
f 1/48/48 2/49/49 13/50/50
f 1/48/48 13/50/50 12/51/51
s 11
f 3/53/53 6/54/54 14/56/56
f 14/56/56 13/55/55 2/52/52
f 2/52/52 3/53/53 14/56/56
o object2
g object2
v -0.35000000 1.00000000 0.80000000
v -0.20000000 1.00000000 0.80000000
v -0.20000000 0.00000000 0.80000000
v -0.35000000 0.00000000 0.80000000
v -0.80000000 0.00000000 0.65000000
v -0.80000000 0.00000000 0.80000000
v -0.65000000 0.00000000 0.80000000
v -0.65000000 0.00000000 0.75000000
v -0.35000000 0.00000000 0.75000000
v -0.20000000 0.00000000 0.65000000
v -0.25000000 0.00000000 0.65000000
v -0.25000000 0.00000000 0.35000000
v -0.20000000 0.00000000 0.35000000
v -0.20000000 0.00000000 0.20000000
v -0.35000000 0.00000000 0.20000000
v -0.35000000 0.00000000 0.25000000
v -0.65000000 0.00000000 0.25000000
v -0.65000000 0.00000000 0.20000000
v -0.80000000 0.00000000 0.20000000
v -0.80000000 0.00000000 0.35000000
v -0.75000000 0.00000000 0.35000000
v -0.75000000 0.00000000 0.65000000
v -0.65000000 1.00000000 0.80000000
v -0.65000000 1.00000000 0.75000000
v -0.35000000 1.00000000 0.75000000
v -0.20000000 1.00000000 0.65000000
v -0.25000000 1.00000000 0.65000000
v -0.25000000 1.00000000 0.35000000
v -0.20000000 1.00000000 0.35000000
v -0.20000000 1.00000000 0.20000000
v -0.35000000 1.00000000 0.20000000
v -0.35000000 1.00000000 0.25000000
v -0.65000000 1.00000000 0.25000000
v -0.65000000 1.00000000 0.20000000
v -0.80000000 1.00000000 0.20000000
v -0.80000000 1.00000000 0.35000000
v -0.75000000 1.00000000 0.35000000
v -0.75000000 1.00000000 0.65000000
v -0.80000000 1.00000000 0.65000000
v -0.80000000 1.00000000 0.80000000
vt 1.00000000 0.00000000
vt 1.00000000 1.00000000
vt 0.00000000 1.00000000
vt 0.00000000 0.00000000
vt 0.00000000 0.25000000
vt 0.00000000 0.00000000
vt 0.25000000 0.00000000
vt 0.25000000 0.08333333
vt 0.75000000 0.08333333
vt 0.75000000 0.00000000
vt 1.00000000 0.00000000
vt 1.00000000 0.25000000
vt 0.91666667 0.25000000
vt 0.91666667 0.75000000
vt 1.00000000 0.75000000
vt 1.00000000 1.00000000
vt 0.75000000 1.00000000
vt 0.75000000 0.91666667
vt 0.25000000 0.91666667
vt 0.25000000 1.00000000
vt 0.00000000 1.00000000
vt 0.00000000 0.75000000
vt 0.08333333 0.75000000
vt 0.08333333 0.25000000
vt 1.00000000 0.00000000
vt 1.00000000 1.00000000
vt 0.00000000 1.00000000
vt 0.00000000 0.00000000
vt 1.00000000 0.00000000
vt 1.00000000 1.00000000
vt 0.00000000 1.00000000
vt 0.00000000 0.00000000
vt 1.00000000 0.00000000
vt 1.00000000 1.00000000
vt 0.00000000 1.00000000
vt 0.00000000 0.00000000
vt 1.00000000 0.00000000
vt 1.00000000 1.00000000
vt 0.00000000 1.00000000
vt 0.00000000 0.00000000
vt 1.00000000 0.00000000
vt 1.00000000 1.00000000
vt 0.00000000 1.00000000
vt 0.00000000 0.00000000
vt 1.00000000 0.00000000
vt 1.00000000 1.00000000
vt 0.00000000 1.00000000
vt 0.00000000 0.00000000
vt 1.00000000 0.00000000
vt 1.00000000 1.00000000
vt 0.00000000 1.00000000
vt 0.00000000 0.00000000
vt 1.00000000 0.00000000
vt 1.00000000 1.00000000
vt 0.00000000 1.00000000
vt 0.00000000 0.00000000
vt 1.00000000 0.00000000
vt 1.00000000 1.00000000
vt 0.00000000 1.00000000
vt 0.00000000 0.00000000
vt 1.00000000 0.00000000
vt 1.00000000 1.00000000
vt 0.00000000 1.00000000
vt 0.00000000 0.00000000
vt 1.00000000 0.00000000
vt 1.00000000 1.00000000
vt 0.00000000 1.00000000
vt 0.00000000 0.00000000
vt 1.00000000 0.00000000
vt 1.00000000 1.00000000
vt 0.00000000 1.00000000
vt 0.00000000 0.00000000
vt 1.00000000 0.00000000
vt 1.00000000 1.00000000
vt 0.00000000 1.00000000
vt 0.00000000 0.00000000
vt 1.00000000 0.00000000
vt 1.00000000 1.00000000
vt 0.00000000 1.00000000
vt 0.00000000 0.00000000
vt 1.00000000 0.00000000
vt 1.00000000 1.00000000
vt 0.00000000 1.00000000
vt 0.00000000 0.00000000
vt 1.00000000 0.00000000
vt 1.00000000 1.00000000
vt 0.00000000 1.00000000
vt 0.00000000 0.00000000
vt 1.00000000 0.00000000
vt 1.00000000 1.00000000
vt 0.00000000 1.00000000
vt 0.00000000 0.00000000
vt 1.00000000 0.00000000
vt 1.00000000 1.00000000
vt 0.00000000 1.00000000
vt 0.00000000 0.00000000
vt 0.00000000 0.25000000
vt 0.00000000 0.00000000
vt 0.25000000 0.00000000
vt 0.25000000 0.08333333
vt 0.75000000 0.08333333
vt 0.75000000 0.00000000
vt 1.00000000 0.00000000
vt 1.00000000 0.25000000
vt 0.91666667 0.25000000
vt 0.91666667 0.75000000
vt 1.00000000 0.75000000
vt 1.00000000 1.00000000
vt 0.75000000 1.00000000
vt 0.75000000 0.91666667
vt 0.25000000 0.91666667
vt 0.25000000 1.00000000
vt 0.00000000 1.00000000
vt 0.00000000 0.75000000
vt 0.08333333 0.75000000
vt 0.08333333 0.25000000
vt 1.00000000 0.00000000
vt 1.00000000 1.00000000
vt 0.00000000 1.00000000
vt 0.00000000 0.00000000
vn 0.00000000 0.00000000 1.00000000
vn 0.00000000 0.00000000 1.00000000
vn 0.00000000 0.00000000 1.00000000
vn 0.00000000 0.00000000 1.00000000
vn 0.00000000 -1.00000000 0.00000000
vn 0.00000000 -1.00000000 0.00000000
vn 0.00000000 -1.00000000 0.00000000
vn 0.00000000 -1.00000000 0.00000000
vn 0.00000000 -1.00000000 0.00000000
vn 0.00000000 -1.00000000 0.00000000
vn 0.00000000 -1.00000000 0.00000000
vn 0.00000000 -1.00000000 0.00000000
vn 0.00000000 -1.00000000 0.00000000
vn 0.00000000 -1.00000000 0.00000000
vn 0.00000000 -1.00000000 0.00000000
vn 0.00000000 -1.00000000 0.00000000
vn 0.00000000 -1.00000000 0.00000000
vn 0.00000000 -1.00000000 0.00000000
vn 0.00000000 -1.00000000 0.00000000
vn 0.00000000 -1.00000000 0.00000000
vn 0.00000000 -1.00000000 0.00000000
vn 0.00000000 -1.00000000 0.00000000
vn 0.00000000 -1.00000000 0.00000000
vn 0.00000000 -1.00000000 0.00000000
vn 1.00000000 0.00000000 0.00000000
vn 1.00000000 0.00000000 0.00000000
vn 1.00000000 0.00000000 0.00000000
vn 1.00000000 0.00000000 0.00000000
vn 0.00000000 0.00000000 1.00000000
vn 0.00000000 0.00000000 1.00000000
vn 0.00000000 0.00000000 1.00000000
vn 0.00000000 0.00000000 1.00000000
vn 0.00000000 0.00000000 -1.00000000
vn 0.00000000 0.00000000 -1.00000000
vn 0.00000000 0.00000000 -1.00000000
vn 0.00000000 0.00000000 -1.00000000
vn 1.00000000 0.00000000 0.00000000
vn 1.00000000 0.00000000 0.00000000
vn 1.00000000 0.00000000 0.00000000
vn 1.00000000 0.00000000 0.00000000
vn 0.00000000 0.00000000 1.00000000
vn 0.00000000 0.00000000 1.00000000
vn 0.00000000 0.00000000 1.00000000
vn 0.00000000 0.00000000 1.00000000
vn 1.00000000 0.00000000 0.00000000
vn 1.00000000 0.00000000 0.00000000
vn 1.00000000 0.00000000 0.00000000
vn 1.00000000 0.00000000 0.00000000
vn 0.00000000 0.00000000 -1.00000000
vn 0.00000000 0.00000000 -1.00000000
vn 0.00000000 0.00000000 -1.00000000
vn 0.00000000 0.00000000 -1.00000000
vn -1.00000000 0.00000000 0.00000000
vn -1.00000000 0.00000000 0.00000000
vn -1.00000000 0.00000000 0.00000000
vn -1.00000000 0.00000000 0.00000000
vn 0.00000000 0.00000000 -1.00000000
vn 0.00000000 0.00000000 -1.00000000
vn 0.00000000 0.00000000 -1.00000000
vn 0.00000000 0.00000000 -1.00000000
vn 1.00000000 0.00000000 0.00000000
vn 1.00000000 0.00000000 0.00000000
vn 1.00000000 0.00000000 0.00000000
vn 1.00000000 0.00000000 0.00000000
vn 0.00000000 0.00000000 -1.00000000
vn 0.00000000 0.00000000 -1.00000000
vn 0.00000000 0.00000000 -1.00000000
vn 0.00000000 0.00000000 -1.00000000
vn -1.00000000 0.00000000 0.00000000
vn -1.00000000 0.00000000 0.00000000
vn -1.00000000 0.00000000 0.00000000
vn -1.00000000 0.00000000 0.00000000
vn 0.00000000 0.00000000 1.00000000
vn 0.00000000 0.00000000 1.00000000
vn 0.00000000 0.00000000 1.00000000
vn 0.00000000 0.00000000 1.00000000
vn -1.00000000 0.00000000 0.00000000
vn -1.00000000 0.00000000 0.00000000
vn -1.00000000 0.00000000 0.00000000
vn -1.00000000 0.00000000 0.00000000
vn 0.00000000 0.00000000 -1.00000000
vn 0.00000000 0.00000000 -1.00000000
vn 0.00000000 0.00000000 -1.00000000
vn 0.00000000 0.00000000 -1.00000000
vn -1.00000000 0.00000000 0.00000000
vn -1.00000000 0.00000000 0.00000000
vn -1.00000000 0.00000000 0.00000000
vn -1.00000000 0.00000000 0.00000000
vn 0.00000000 0.00000000 1.00000000
vn 0.00000000 0.00000000 1.00000000
vn 0.00000000 0.00000000 1.00000000
vn 0.00000000 0.00000000 1.00000000
vn -1.00000000 0.00000000 0.00000000
vn -1.00000000 0.00000000 0.00000000
vn -1.00000000 0.00000000 0.00000000
vn -1.00000000 0.00000000 0.00000000
vn 0.00000000 1.00000000 0.00000000
vn 0.00000000 1.00000000 0.00000000
vn 0.00000000 1.00000000 0.00000000
vn 0.00000000 1.00000000 0.00000000
vn 0.00000000 1.00000000 0.00000000
vn 0.00000000 1.00000000 0.00000000
vn 0.00000000 1.00000000 0.00000000
vn 0.00000000 1.00000000 0.00000000
vn 0.00000000 1.00000000 0.00000000
vn 0.00000000 1.00000000 0.00000000
vn 0.00000000 1.00000000 0.00000000
vn 0.00000000 1.00000000 0.00000000
vn 0.00000000 1.00000000 0.00000000
vn 0.00000000 1.00000000 0.00000000
vn 0.00000000 1.00000000 0.00000000
vn 0.00000000 1.00000000 0.00000000
vn 0.00000000 1.00000000 0.00000000
vn 0.00000000 1.00000000 0.00000000
vn 0.00000000 1.00000000 0.00000000
vn 0.00000000 1.00000000 0.00000000
vn 1.00000000 0.00000000 0.00000000
vn 1.00000000 0.00000000 0.00000000
vn 1.00000000 0.00000000 0.00000000
vn 1.00000000 0.00000000 0.00000000
s 1
usemtl Sandstone_4
f 24/60/60 23/59/59 21/57/57
f 23/59/59 22/58/58 21/57/57
s 2
f 39/77/77 38/76/76 37/75/75
f 42/80/80 37/75/75 32/70/70
f 32/70/70 31/69/69 29/65/65
f 23/67/67 24/66/66 29/65/65
f 31/69/69 23/67/67 29/65/65
f 31/69/69 30/68/68 23/67/67
f 36/74/74 34/72/72 32/70/70
f 36/74/74 35/73/73 34/72/72
f 34/72/72 33/71/71 32/70/70
f 32/70/70 29/65/65 42/80/80
f 29/65/65 28/64/64 42/80/80
f 28/64/64 27/63/63 26/62/62
f 28/64/64 26/62/62 42/80/80
f 26/62/62 25/61/61 42/80/80
f 42/80/80 41/79/79 37/75/75
f 37/75/75 36/74/74 32/70/70
f 41/79/79 39/77/77 37/75/75
f 41/79/79 40/78/78 39/77/77
s 3
f 27/84/84 28/83/83 43/81/81
f 28/83/83 44/82/82 43/81/81
s 4
usemtl Sandstone_6
f 28/88/88 29/87/87 44/85/85
f 29/87/87 45/86/86 44/85/85
s 5
usemtl Sandstone_4
f 30/92/92 31/91/91 46/89/89
f 31/91/91 47/90/90 46/89/89
s 6
usemtl Sandstone_6
f 31/96/96 32/95/95 47/93/93
f 32/95/95 48/94/94 47/93/93
s 7
usemtl Sandstone_4
f 32/100/100 33/99/99 48/97/97
f 33/99/99 49/98/98 48/97/97
s 8
f 33/104/104 34/103/103 49/101/101
f 34/103/103 50/102/102 49/101/101
s 9
f 34/108/108 35/107/107 50/105/105
f 35/107/107 51/106/106 50/105/105
s 10
f 35/112/112 36/111/111 51/109/109
f 36/111/111 52/110/110 51/109/109
s 11
usemtl Sandstone_6
f 36/116/116 37/115/115 52/113/113
f 37/115/115 53/114/114 52/113/113
s 12
usemtl Sandstone_4
f 37/120/120 38/119/119 53/117/117
f 38/119/119 54/118/118 53/117/117
s 13
f 38/124/124 39/123/123 54/121/121
f 39/123/123 55/122/122 54/121/121
s 14
f 39/128/128 40/127/127 55/125/125
f 40/127/127 56/126/126 55/125/125
s 15
f 40/132/132 41/131/131 56/129/129
f 41/131/131 57/130/130 56/129/129
s 16
usemtl Sandstone_6
f 41/136/136 42/135/135 57/133/133
f 42/135/135 58/134/134 57/133/133
s 17
usemtl Sandstone_4
f 42/140/140 25/139/139 58/137/137
f 25/139/139 59/138/138 58/137/137
s 18
f 25/144/144 26/143/143 59/141/141
f 26/143/143 60/142/142 59/141/141
s 19
f 26/148/148 27/147/147 60/145/145
f 27/147/147 43/146/146 60/145/145
s 20
f 29/152/152 24/151/151 45/149/149
f 24/151/151 21/150/150 45/149/149
s 21
f 53/167/167 54/168/168 55/169/169
f 55/169/169 56/170/170 57/171/171
f 48/162/162 53/167/167 58/172/172
f 58/172/172 44/156/156 45/157/157
f 45/157/157 22/159/159 47/161/161
f 22/159/159 46/160/160 47/161/161
f 45/157/157 21/158/158 22/159/159
f 60/154/154 43/155/155 44/156/156
f 58/172/172 60/154/154 44/156/156
f 58/172/172 59/153/153 60/154/154
f 58/172/172 45/157/157 48/162/162
f 45/157/157 47/161/161 48/162/162
f 48/162/162 50/164/164 52/166/166
f 50/164/164 51/165/165 52/166/166
f 48/162/162 49/163/163 50/164/164
f 53/167/167 57/171/171 58/172/172
f 48/162/162 52/166/166 53/167/167
f 53/167/167 55/169/169 57/171/171
s 22
f 23/176/176 30/175/175 22/173/173
f 30/175/175 46/174/174 22/173/173
