mtllib Materials_Modular_Temple.mtl
o object1
g object1
v -0.20000000 1.00000000 0.80000000
v -0.20000000 1.00000000 0.65000000
v -0.20000000 0.00000000 0.65000000
v -0.20000000 0.00000000 0.80000000
v -0.80000000 0.00000000 0.65000000
v -0.80000000 0.00000000 0.80000000
v -0.65000000 0.00000000 0.80000000
v -0.65000000 0.00000000 0.75000000
v -0.35000000 0.00000000 0.75000000
v -0.35000000 0.00000000 0.80000000
v -0.25000000 0.00000000 0.65000000
v -0.25000000 0.00000000 0.35000000
v -0.20000000 0.00000000 0.35000000
v -0.20000000 0.00000000 0.20000000
v -0.35000000 0.00000000 0.20000000
v -0.35000000 0.00000000 0.25000000
v -0.65000000 0.00000000 0.25000000
v -0.65000000 0.00000000 0.20000000
v -0.80000000 0.00000000 0.20000000
v -0.80000000 0.00000000 0.35000000
v -0.75000000 0.00000000 0.35000000
v -0.75000000 0.00000000 0.65000000
v -0.65000000 1.00000000 0.80000000
v -0.65000000 1.00000000 0.75000000
v -0.35000000 1.00000000 0.75000000
v -0.35000000 1.00000000 0.80000000
v -0.25000000 1.00000000 0.65000000
v -0.25000000 1.00000000 0.35000000
v -0.20000000 1.00000000 0.35000000
v -0.20000000 1.00000000 0.20000000
v -0.35000000 1.00000000 0.20000000
v -0.35000000 1.00000000 0.25000000
v -0.65000000 1.00000000 0.25000000
v -0.65000000 1.00000000 0.20000000
v -0.80000000 1.00000000 0.20000000
v -0.80000000 1.00000000 0.35000000
v -0.75000000 1.00000000 0.35000000
v -0.75000000 1.00000000 0.65000000
v -0.80000000 1.00000000 0.65000000
v -0.80000000 1.00000000 0.80000000
vt 1.00000000 0.00000000
vt 1.00000000 1.00000000
vt 0.00000000 1.00000000
vt 0.00000000 0.00000000
vt 0.00000000 0.25000000
vt 0.00000000 0.00000000
vt 0.25000000 0.00000000
vt 0.25000000 0.08333333
vt 0.75000000 0.08333333
vt 0.75000000 0.00000000
vt 1.00000000 0.00000000
vt 1.00000000 0.25000000
vt 0.91666667 0.25000000
vt 0.91666667 0.75000000
vt 1.00000000 0.75000000
vt 1.00000000 1.00000000
vt 0.75000000 1.00000000
vt 0.75000000 0.91666667
vt 0.25000000 0.91666667
vt 0.25000000 1.00000000
vt 0.00000000 1.00000000
vt 0.00000000 0.75000000
vt 0.08333333 0.75000000
vt 0.08333333 0.25000000
vt 1.00000000 0.00000000
vt 1.00000000 1.00000000
vt 0.00000000 1.00000000
vt 0.00000000 0.00000000
vt 1.00000000 0.00000000
vt 1.00000000 1.00000000
vt 0.00000000 1.00000000
vt 0.00000000 0.00000000
vt 1.00000000 0.00000000
vt 1.00000000 1.00000000
vt 0.00000000 1.00000000
vt 0.00000000 0.00000000
vt 1.00000000 0.00000000
vt 1.00000000 1.00000000
vt 0.00000000 1.00000000
vt 0.00000000 0.00000000
vt 1.00000000 0.00000000
vt 1.00000000 1.00000000
vt 0.00000000 1.00000000
vt 0.00000000 0.00000000
vt 1.00000000 0.00000000
vt 1.00000000 1.00000000
vt 0.00000000 1.00000000
vt 0.00000000 0.00000000
vt 1.00000000 0.00000000
vt 1.00000000 1.00000000
vt 0.00000000 1.00000000
vt 0.00000000 0.00000000
vt 1.00000000 0.00000000
vt 1.00000000 1.00000000
vt 0.00000000 1.00000000
vt 0.00000000 0.00000000
vt 1.00000000 0.00000000
vt 1.00000000 1.00000000
vt 0.00000000 1.00000000
vt 0.00000000 0.00000000
vt 1.00000000 0.00000000
vt 1.00000000 1.00000000
vt 0.00000000 1.00000000
vt 0.00000000 0.00000000
vt 1.00000000 0.00000000
vt 1.00000000 1.00000000
vt 0.00000000 1.00000000
vt 0.00000000 0.00000000
vt 1.00000000 0.00000000
vt 1.00000000 1.00000000
vt 0.00000000 1.00000000
vt 0.00000000 0.00000000
vt 1.00000000 0.00000000
vt 1.00000000 1.00000000
vt 0.00000000 1.00000000
vt 0.00000000 0.00000000
vt 1.00000000 0.00000000
vt 1.00000000 1.00000000
vt 0.00000000 1.00000000
vt 0.00000000 0.00000000
vt 1.00000000 0.00000000
vt 1.00000000 1.00000000
vt 0.00000000 1.00000000
vt 0.00000000 0.00000000
vt 1.00000000 0.00000000
vt 1.00000000 1.00000000
vt 0.00000000 1.00000000
vt 0.00000000 0.00000000
vt 1.00000000 0.00000000
vt 1.00000000 1.00000000
vt 0.00000000 1.00000000
vt 0.00000000 0.00000000
vt 1.00000000 0.00000000
vt 1.00000000 1.00000000
vt 0.00000000 1.00000000
vt 0.00000000 0.00000000
vt 0.00000000 0.25000000
vt 0.00000000 0.00000000
vt 0.25000000 0.00000000
vt 0.25000000 0.08333333
vt 0.75000000 0.08333333
vt 0.75000000 0.00000000
vt 1.00000000 0.00000000
vt 1.00000000 0.25000000
vt 0.91666667 0.25000000
vt 0.91666667 0.75000000
vt 1.00000000 0.75000000
vt 1.00000000 1.00000000
vt 0.75000000 1.00000000
vt 0.75000000 0.91666667
vt 0.25000000 0.91666667
vt 0.25000000 1.00000000
vt 0.00000000 1.00000000
vt 0.00000000 0.75000000
vt 0.08333333 0.75000000
vt 0.08333333 0.25000000
vt 1.00000000 0.00000000
vt 1.00000000 1.00000000
vt 0.00000000 1.00000000
vt 0.00000000 0.00000000
vn 1.00000000 0.00000000 0.00000000
vn 1.00000000 0.00000000 0.00000000
vn 1.00000000 0.00000000 0.00000000
vn 1.00000000 0.00000000 0.00000000
vn 0.00000000 -1.00000000 0.00000000
vn 0.00000000 -1.00000000 0.00000000
vn 0.00000000 -1.00000000 0.00000000
vn 0.00000000 -1.00000000 0.00000000
vn 0.00000000 -1.00000000 0.00000000
vn 0.00000000 -1.00000000 0.00000000
vn 0.00000000 -1.00000000 0.00000000
vn 0.00000000 -1.00000000 0.00000000
vn 0.00000000 -1.00000000 0.00000000
vn 0.00000000 -1.00000000 0.00000000
vn 0.00000000 -1.00000000 0.00000000
vn 0.00000000 -1.00000000 0.00000000
vn 0.00000000 -1.00000000 0.00000000
vn 0.00000000 -1.00000000 0.00000000
vn 0.00000000 -1.00000000 0.00000000
vn 0.00000000 -1.00000000 0.00000000
vn 0.00000000 -1.00000000 0.00000000
vn 0.00000000 -1.00000000 0.00000000
vn 0.00000000 -1.00000000 0.00000000
vn 0.00000000 -1.00000000 0.00000000
vn 1.00000000 0.00000000 0.00000000
vn 1.00000000 0.00000000 0.00000000
vn 1.00000000 0.00000000 0.00000000
vn 1.00000000 0.00000000 0.00000000
vn 0.00000000 0.00000000 1.00000000
vn 0.00000000 0.00000000 1.00000000
vn 0.00000000 0.00000000 1.00000000
vn 0.00000000 0.00000000 1.00000000
vn -1.00000000 0.00000000 0.00000000
vn -1.00000000 0.00000000 0.00000000
vn -1.00000000 0.00000000 0.00000000
vn -1.00000000 0.00000000 0.00000000
vn 1.00000000 0.00000000 0.00000000
vn 1.00000000 0.00000000 0.00000000
vn 1.00000000 0.00000000 0.00000000
vn 1.00000000 0.00000000 0.00000000
vn 0.00000000 0.00000000 1.00000000
vn 0.00000000 0.00000000 1.00000000
vn 0.00000000 0.00000000 1.00000000
vn 0.00000000 0.00000000 1.00000000
vn 1.00000000 0.00000000 0.00000000
vn 1.00000000 0.00000000 0.00000000
vn 1.00000000 0.00000000 0.00000000
vn 1.00000000 0.00000000 0.00000000
vn 0.00000000 0.00000000 -1.00000000
vn 0.00000000 0.00000000 -1.00000000
vn 0.00000000 0.00000000 -1.00000000
vn 0.00000000 0.00000000 -1.00000000
vn -1.00000000 0.00000000 0.00000000
vn -1.00000000 0.00000000 0.00000000
vn -1.00000000 0.00000000 0.00000000
vn -1.00000000 0.00000000 0.00000000
vn 0.00000000 0.00000000 -1.00000000
vn 0.00000000 0.00000000 -1.00000000
vn 0.00000000 0.00000000 -1.00000000
vn 0.00000000 0.00000000 -1.00000000
vn 1.00000000 0.00000000 0.00000000
vn 1.00000000 0.00000000 0.00000000
vn 1.00000000 0.00000000 0.00000000
vn 1.00000000 0.00000000 0.00000000
vn 0.00000000 0.00000000 -1.00000000
vn 0.00000000 0.00000000 -1.00000000
vn 0.00000000 0.00000000 -1.00000000
vn 0.00000000 0.00000000 -1.00000000
vn -1.00000000 0.00000000 0.00000000
vn -1.00000000 0.00000000 0.00000000
vn -1.00000000 0.00000000 0.00000000
vn -1.00000000 0.00000000 0.00000000
vn 0.00000000 0.00000000 1.00000000
vn 0.00000000 0.00000000 1.00000000
vn 0.00000000 0.00000000 1.00000000
vn 0.00000000 0.00000000 1.00000000
vn -1.00000000 0.00000000 -0.00000000
vn -1.00000000 0.00000000 -0.00000000
vn -1.00000000 0.00000000 -0.00000000
vn -1.00000000 0.00000000 -0.00000000
vn 0.00000000 0.00000000 -1.00000000
vn 0.00000000 0.00000000 -1.00000000
vn 0.00000000 0.00000000 -1.00000000
vn 0.00000000 0.00000000 -1.00000000
vn -1.00000000 0.00000000 0.00000000
vn -1.00000000 0.00000000 0.00000000
vn -1.00000000 0.00000000 0.00000000
vn -1.00000000 0.00000000 0.00000000
vn 0.00000000 0.00000000 1.00000000
vn 0.00000000 0.00000000 1.00000000
vn 0.00000000 0.00000000 1.00000000
vn 0.00000000 0.00000000 1.00000000
vn 0.00000000 0.00000000 1.00000000
vn 0.00000000 0.00000000 1.00000000
vn 0.00000000 0.00000000 1.00000000
vn 0.00000000 0.00000000 1.00000000
vn 0.00000000 1.00000000 0.00000000
vn 0.00000000 1.00000000 0.00000000
vn 0.00000000 1.00000000 0.00000000
vn 0.00000000 1.00000000 0.00000000
vn 0.00000000 1.00000000 0.00000000
vn 0.00000000 1.00000000 0.00000000
vn 0.00000000 1.00000000 0.00000000
vn 0.00000000 1.00000000 0.00000000
vn 0.00000000 1.00000000 0.00000000
vn 0.00000000 1.00000000 0.00000000
vn 0.00000000 1.00000000 0.00000000
vn 0.00000000 1.00000000 0.00000000
vn 0.00000000 1.00000000 0.00000000
vn 0.00000000 1.00000000 0.00000000
vn 0.00000000 1.00000000 0.00000000
vn 0.00000000 1.00000000 0.00000000
vn 0.00000000 1.00000000 0.00000000
vn 0.00000000 1.00000000 0.00000000
vn 0.00000000 1.00000000 0.00000000
vn 0.00000000 1.00000000 0.00000000
vn 0.00000000 0.00000000 -1.00000000
vn 0.00000000 0.00000000 -1.00000000
vn 0.00000000 0.00000000 -1.00000000
vn 0.00000000 0.00000000 -1.00000000
s 1
usemtl Sandstone_4
f 4/4/4 3/3/3 1/1/1
f 3/3/3 2/2/2 1/1/1
s 2
f 16/18/18 15/17/17 14/16/16
f 14/16/16 13/15/15 12/14/14
f 21/23/23 12/14/14 8/8/8
f 11/13/13 9/9/9 8/8/8
f 4/11/11 10/10/10 9/9/9
f 11/13/13 4/11/11 9/9/9
f 11/13/13 3/12/12 4/11/11
f 8/8/8 6/6/6 22/24/24
f 6/6/6 5/5/5 22/24/24
f 8/8/8 7/7/7 6/6/6
f 8/8/8 22/24/24 21/23/23
f 21/23/23 19/21/21 17/19/19
f 19/21/21 18/20/20 17/19/19
f 21/23/23 20/22/22 19/21/21
f 12/14/14 11/13/13 8/8/8
f 21/23/23 17/19/19 12/14/14
f 17/19/19 16/18/18 12/14/14
f 16/18/18 14/16/16 12/14/14
s 3
f 7/28/28 8/27/27 23/25/25
f 8/27/27 24/26/26 23/25/25
s 4
usemtl Sandstone_6
f 8/32/32 9/31/31 24/29/29
f 9/31/31 25/30/30 24/29/29
s 5
usemtl Sandstone_4
f 9/36/36 10/35/35 25/33/33
f 10/35/35 26/34/34 25/33/33
s 6
usemtl Sandstone_6
f 11/40/40 12/39/39 27/37/37
f 12/39/39 28/38/38 27/37/37
s 7
usemtl Sandstone_4
f 12/44/44 13/43/43 28/41/41
f 13/43/43 29/42/42 28/41/41
s 8
f 13/48/48 14/47/47 29/45/45
f 14/47/47 30/46/46 29/45/45
s 9
f 14/52/52 15/51/51 30/49/49
f 15/51/51 31/50/50 30/49/49
s 10
f 15/56/56 16/55/55 31/53/53
f 16/55/55 32/54/54 31/53/53
s 11
usemtl Sandstone_6
f 16/60/60 17/59/59 32/57/57
f 17/59/59 33/58/58 32/57/57
s 12
usemtl Sandstone_4
f 17/64/64 18/63/63 33/61/61
f 18/63/63 34/62/62 33/61/61
s 13
f 18/68/68 19/67/67 34/65/65
f 19/67/67 35/66/66 34/65/65
s 14
f 19/72/72 20/71/71 35/69/69
f 20/71/71 36/70/70 35/69/69
s 15
f 20/76/76 21/75/75 36/73/73
f 21/75/75 37/74/74 36/73/73
s 16
usemtl Sandstone_6
f 21/80/80 22/79/79 37/77/77
f 22/79/79 38/78/78 37/77/77
s 17
usemtl Sandstone_4
f 22/84/84 5/83/83 38/81/81
f 5/83/83 39/82/82 38/81/81
s 18
f 5/88/88 6/87/87 39/85/85
f 6/87/87 40/86/86 39/85/85
s 19
f 6/92/92 7/91/91 40/89/89
f 7/91/91 23/90/90 40/89/89
s 20
f 10/96/96 4/95/95 26/93/93
f 4/95/95 1/94/94 26/93/93
s 21
f 30/108/108 31/109/109 32/110/110
f 28/106/106 32/110/110 33/111/111
f 33/111/111 35/113/113 37/115/115
f 37/115/115 38/116/116 24/100/100
f 24/100/100 25/101/101 27/105/105
f 1/103/103 2/104/104 27/105/105
f 25/101/101 1/103/103 27/105/105
f 25/101/101 26/102/102 1/103/103
f 40/98/98 23/99/99 24/100/100
f 38/116/116 40/98/98 24/100/100
f 38/116/116 39/97/97 40/98/98
f 35/113/113 36/114/114 37/115/115
f 33/111/111 34/112/112 35/113/113
f 24/100/100 28/106/106 37/115/115
f 24/100/100 27/105/105 28/106/106
f 28/106/106 33/111/111 37/115/115
f 28/106/106 30/108/108 32/110/110
f 28/106/106 29/107/107 30/108/108
s 22
f 3/120/120 11/119/119 2/117/117
f 11/119/119 27/118/118 2/117/117
