mtllib Materials_Modular_Temple.mtl
o object1
g object1
v 0.15000000 1.00000000 0.35000000
v -0.15000000 1.00000000 0.35000000
v -0.15000000 0.00000000 0.35000000
v 0.15000000 0.00000000 0.35000000
v 0.15000000 0.00000000 0.65000000
v -0.15000000 0.00000000 0.65000000
v 0.15000000 1.00000000 0.65000000
v -0.15000000 1.00000000 0.65000000
vt 1.00000000 0.00000000
vt 1.00000000 1.00000000
vt 0.00000000 1.00000000
vt 0.00000000 0.00000000
vt 1.00000000 0.00000000
vt 1.00000000 1.00000000
vt 0.00000000 1.00000000
vt 0.00000000 0.00000000
vt 1.00000000 0.00000000
vt 1.00000000 1.00000000
vt 0.00000000 1.00000000
vt 0.00000000 0.00000000
vt 1.00000000 0.00000000
vt 1.00000000 1.00000000
vt 0.00000000 1.00000000
vt 0.00000000 0.00000000
vt 1.00000000 0.00000000
vt 1.00000000 1.00000000
vt 0.00000000 1.00000000
vt 0.00000000 0.00000000
vt 1.00000000 0.00000000
vt 1.00000000 1.00000000
vt 0.00000000 1.00000000
vt 0.00000000 0.00000000
vn 0.00000000 0.00000000 -1.00000000
vn 0.00000000 0.00000000 -1.00000000
vn 0.00000000 0.00000000 -1.00000000
vn 0.00000000 0.00000000 -1.00000000
vn 0.00000000 -1.00000000 0.00000000
vn 0.00000000 -1.00000000 0.00000000
vn 0.00000000 -1.00000000 0.00000000
vn 0.00000000 -1.00000000 0.00000000
vn 0.00000000 0.00000000 1.00000000
vn 0.00000000 0.00000000 1.00000000
vn 0.00000000 0.00000000 1.00000000
vn 0.00000000 0.00000000 1.00000000
vn 1.00000000 0.00000000 0.00000000
vn 1.00000000 0.00000000 0.00000000
vn 1.00000000 0.00000000 0.00000000
vn 1.00000000 0.00000000 0.00000000
vn 0.00000000 1.00000000 0.00000000
vn 0.00000000 1.00000000 0.00000000
vn 0.00000000 1.00000000 0.00000000
vn 0.00000000 1.00000000 0.00000000
vn -1.00000000 0.00000000 0.00000000
vn -1.00000000 0.00000000 0.00000000
vn -1.00000000 0.00000000 0.00000000
vn -1.00000000 0.00000000 0.00000000
s 1
usemtl Sandstone_4
f 4/4/4 3/3/3 1/1/1
f 3/3/3 2/2/2 1/1/1
s 2
f 5/5/5 6/6/6 4/8/8
f 6/6/6 3/7/7 4/8/8
s 3
f 7/9/9 8/10/10 5/12/12
f 8/10/10 6/11/11 5/12/12
s 4
f 1/13/13 7/14/14 4/16/16
f 7/14/14 5/15/15 4/16/16
s 5
f 1/20/20 2/19/19 7/17/17
f 2/19/19 8/18/18 7/17/17
s 6
f 3/24/24 6/23/23 2/21/21
f 6/23/23 8/22/22 2/21/21
o object2
g object2
v -0.20000000 1.15000000 0.30000000
v 0.20000000 1.15000000 0.30000000
v 0.25000000 1.10000000 0.25000000
v -0.25000000 1.10000000 0.25000000
v -0.20000000 1.15000000 0.70000000
v 0.20000000 1.15000000 0.70000000
v -0.25000000 1.10000000 0.75000000
v 0.25000000 1.10000000 0.75000000
v 0.25000000 1.00000000 0.75000000
v -0.25000000 1.00000000 0.75000000
v 0.25000000 1.00000000 0.25000000
v 0.20000000 0.80000000 0.30000000
v 0.20000000 0.80000000 0.70000000
v -0.20000000 0.80000000 0.30000000
v -0.20000000 0.80000000 0.70000000
v -0.25000000 1.00000000 0.25000000
vt 0.90000000 1.00000000
vt 0.10000000 1.00000000
vt 0.00000000 0.00000000
vt 1.00000000 0.00000000
vt 1.00000000 0.00000000
vt 1.00000000 1.00000000
vt 0.00000000 1.00000000
vt 0.00000000 0.00000000
vt 0.90000000 1.00000000
vt 0.10000000 1.00000000
vt 0.00000000 0.00000000
vt 1.00000000 0.00000000
vt 0.00000000 1.00000000
vt 0.00000000 0.00000000
vt 1.00000000 0.00000000
vt 1.00000000 1.00000000
vt 0.00000000 1.00000000
vt 0.00000000 0.00000000
vt 1.00000000 0.00000000
vt 1.00000000 1.00000000
vt 1.00000000 0.00000000
vt 1.00000000 1.00000000
vt 0.00000000 1.00000000
vt 0.00000000 0.00000000
vt 0.00000000 1.00000000
vt 0.00000000 0.00000000
vt 1.00000000 0.00000000
vt 1.00000000 1.00000000
vt 1.00000000 0.00000000
vt 1.00000000 1.00000000
vt 0.00000000 1.00000000
vt 0.00000000 0.00000000
vt 1.00000000 0.00000000
vt 1.00000000 1.00000000
vt 0.00000000 1.00000000
vt 0.00000000 0.00000000
vt 1.00000000 0.00000000
vt 1.00000000 1.00000000
vt 0.00000000 1.00000000
vt 0.00000000 0.00000000
vt 0.00000000 1.00000000
vt 0.00000000 0.00000000
vt 1.00000000 0.00000000
vt 1.00000000 1.00000000
vt 0.90000000 1.00000000
vt 0.10000000 1.00000000
vt 0.00000000 0.00000000
vt 1.00000000 0.00000000
vt 0.00000000 1.00000000
vt 0.00000000 0.00000000
vt 1.00000000 0.00000000
vt 1.00000000 1.00000000
vt 0.90000000 1.00000000
vt 0.10000000 1.00000000
vt 0.00000000 0.00000000
vt 1.00000000 0.00000000
vn 0.00000000 0.70710678 -0.70710678
vn 0.00000000 0.70710678 -0.70710678
vn 0.00000000 0.70710678 -0.70710678
vn 0.00000000 0.70710678 -0.70710678
vn 0.00000000 1.00000000 0.00000000
vn 0.00000000 1.00000000 0.00000000
vn 0.00000000 1.00000000 0.00000000
vn 0.00000000 1.00000000 0.00000000
vn 0.00000000 0.70710678 0.70710678
vn 0.00000000 0.70710678 0.70710678
vn 0.00000000 0.70710678 0.70710678
vn 0.00000000 0.70710678 0.70710678
vn 0.00000000 0.00000000 1.00000000
vn 0.00000000 0.00000000 1.00000000
vn 0.00000000 0.00000000 1.00000000
vn 0.00000000 0.00000000 1.00000000
vn 1.00000000 0.00000000 0.00000000
vn 1.00000000 0.00000000 0.00000000
vn 1.00000000 0.00000000 0.00000000
vn 1.00000000 0.00000000 0.00000000
vn 0.97014250 -0.24253563 0.00000000
vn 0.97014250 -0.24253563 0.00000000
vn 0.97014250 -0.24253563 0.00000000
vn 0.97014250 -0.24253563 0.00000000
vn 0.00000000 -1.00000000 0.00000000
vn 0.00000000 -1.00000000 0.00000000
vn 0.00000000 -1.00000000 0.00000000
vn 0.00000000 -1.00000000 0.00000000
vn -0.97014250 -0.24253563 0.00000000
vn -0.97014250 -0.24253563 0.00000000
vn -0.97014250 -0.24253563 0.00000000
vn -0.97014250 -0.24253563 0.00000000
vn 0.00000000 -0.24253563 -0.97014250
vn 0.00000000 -0.24253563 -0.97014250
vn 0.00000000 -0.24253563 -0.97014250
vn 0.00000000 -0.24253563 -0.97014250
vn 0.00000000 -0.24253563 0.97014250
vn 0.00000000 -0.24253563 0.97014250
vn 0.00000000 -0.24253563 0.97014250
vn 0.00000000 -0.24253563 0.97014250
vn -1.00000000 0.00000000 0.00000000
vn -1.00000000 0.00000000 0.00000000
vn -1.00000000 0.00000000 0.00000000
vn -1.00000000 0.00000000 0.00000000
vn -0.70710678 0.70710678 0.00000000
vn -0.70710678 0.70710678 0.00000000
vn -0.70710678 0.70710678 0.00000000
vn -0.70710678 0.70710678 0.00000000
vn 0.00000000 0.00000000 -1.00000000
vn 0.00000000 0.00000000 -1.00000000
vn 0.00000000 0.00000000 -1.00000000
vn 0.00000000 0.00000000 -1.00000000
vn 0.70710678 0.70710678 0.00000000
vn 0.70710678 0.70710678 0.00000000
vn 0.70710678 0.70710678 0.00000000
vn 0.70710678 0.70710678 0.00000000
s 1
usemtl Sandstone_5
f 9/25/25 10/26/26 11/27/27
f 9/25/25 11/27/27 12/28/28
s 2
f 13/29/29 14/30/30 10/31/31
f 13/29/29 10/31/31 9/32/32
s 3
f 14/33/33 13/34/34 16/36/36
f 13/34/34 15/35/35 16/36/36
s 4
f 16/40/40 15/39/39 17/37/37
f 15/39/39 18/38/38 17/37/37
s 5
f 11/44/44 16/43/43 19/41/41
f 16/43/43 17/42/42 19/41/41
s 6
f 21/48/48 20/47/47 17/45/45
f 20/47/47 19/46/46 17/45/45
s 7
f 21/52/52 23/51/51 20/49/49
f 23/51/51 22/50/50 20/49/49
s 8
f 22/56/56 23/55/55 18/54/54
f 22/56/56 18/54/54 24/53/53
s 9
f 20/60/60 22/59/59 19/57/57
f 22/59/59 24/58/58 19/57/57
s 10
f 23/64/64 21/63/63 17/62/62
f 23/64/64 17/62/62 18/61/61
s 11
f 15/68/68 12/67/67 18/65/65
f 12/67/67 24/66/66 18/65/65
s 12
f 13/69/69 9/70/70 15/72/72
f 9/70/70 12/71/71 15/72/72
s 13
f 12/76/76 11/75/75 19/74/74
f 12/76/76 19/74/74 24/73/73
s 14
f 10/77/77 14/78/78 16/79/79
f 10/77/77 16/79/79 11/80/80
