mtllib Materials_Modular_Temple.mtl
o object1
g object1
v 0.12426407 0.01000000 -0.30000000
v -0.12426407 0.01000000 -0.30000000
v -0.12426407 0.00500000 -0.30000000
v 0.12426407 0.00500000 -0.30000000
v 0.00000000 0.00500000 -0.30000000
v 0.00000000 0.01000000 -0.30000000
v 0.30000000 0.00500000 -0.12426407
v 0.30000000 0.00500000 0.12426407
v 0.12426407 0.00500000 0.30000000
v 0.00000000 0.00500000 0.30000000
v 0.00000000 0.00500000 0.35000000
v 0.14497475 0.00500000 0.35000000
v 0.35000000 0.00500000 0.14497475
v 0.35000000 0.00500000 -0.14497475
v 0.14497475 0.00500000 -0.35000000
v 0.00000000 0.00500000 -0.35000000
v -0.12426407 0.00500000 0.30000000
v -0.30000000 0.00500000 0.12426407
v -0.30000000 0.00500000 -0.12426407
v -0.14497475 0.00500000 -0.35000000
v -0.35000000 0.00500000 -0.14497475
v -0.35000000 0.00500000 0.14497475
v -0.14497475 0.00500000 0.35000000
v -0.30000000 0.01000000 0.12426407
v -0.12426407 0.01000000 0.30000000
v 0.12426407 0.01000000 0.30000000
v 0.00000000 0.01000000 0.30000000
v 0.30000000 0.01000000 0.12426407
v 0.30000000 0.01000000 -0.12426407
v -0.30000000 0.01000000 -0.12426407
v 0.14497475 0.01000000 -0.35000000
v -0.14497475 0.01000000 -0.35000000
v 0.00000000 0.01000000 -0.35000000
v 0.35000000 0.01000000 -0.14497475
v 0.35000000 0.01000000 0.14497475
v 0.14497475 0.01000000 0.35000000
v 0.00000000 0.01000000 0.35000000
v 0.00000000 0.01000000 0.40000000
v 0.16568542 0.01000000 0.40000000
v 0.40000000 0.01000000 0.16568542
v 0.40000000 0.01000000 -0.16568542
v 0.16568542 0.01000000 -0.40000000
v 0.00000000 0.01000000 -0.40000000
v -0.14497475 0.01000000 0.35000000
v -0.35000000 0.01000000 0.14497475
v -0.35000000 0.01000000 -0.14497475
v -0.16568542 0.01000000 -0.40000000
v -0.40000000 0.01000000 -0.16568542
v -0.40000000 0.01000000 0.16568542
v -0.16568542 0.01000000 0.40000000
v -0.16568542 0.00500000 -0.40000000
v 0.16568542 0.00500000 -0.40000000
v 0.00000000 0.00500000 -0.40000000
v 0.40000000 0.00500000 -0.16568542
v 0.40000000 0.00500000 0.16568542
v 0.16568542 0.00500000 0.40000000
v 0.00000000 0.00500000 0.40000000
v 0.00000000 0.00500000 0.50000000
v 0.50000000 0.00500000 0.50000000
v 0.50000000 0.00500000 -0.50000000
v 0.00000000 0.00500000 -0.50000000
v -0.16568542 0.00500000 0.40000000
v -0.40000000 0.00500000 0.16568542
v -0.40000000 0.00500000 -0.16568542
v -0.50000000 0.00500000 -0.50000000
v -0.50000000 0.00500000 0.50000000
v 0.50000000 0.00000000 -0.50000000
v 0.50000000 0.00000000 0.50000000
v -0.50000000 0.00000000 -0.50000000
v -0.50000000 0.00000000 0.50000000
v 0.00000000 0.01000000 -0.20000000
v 0.08284271 0.01000000 -0.20000000
v 0.20000000 0.01000000 -0.08284271
v 0.20000000 0.01000000 0.08284271
v 0.08284271 0.01000000 0.20000000
v 0.00000000 0.01000000 0.20000000
v -0.08284271 0.01000000 0.20000000
v -0.20000000 0.01000000 0.08284271
v -0.20000000 0.01000000 -0.08284271
v -0.08284271 0.01000000 -0.20000000
v 0.08284271 0.00500000 -0.20000000
v 0.20000000 0.00500000 -0.08284271
v -0.20000000 0.00500000 0.08284271
v -0.08284271 0.00500000 0.20000000
v 0.08284271 0.00500000 0.20000000
v 0.20000000 0.00500000 0.08284271
v -0.08284271 0.00500000 -0.20000000
v -0.20000000 0.00500000 -0.08284271
v 0.00000000 0.00500000 -0.00000000
vt 1.00000000 0.00000000
vt 1.00000000 1.00000000
vt 0.00000000 1.00000000
vt 0.00000000 0.00000000
vt 0.00000000 0.50000000
vt 1.00000000 0.50000000
vt 0.92857143 0.50000000
vt 0.92857143 0.32247990
vt 0.67752010 0.07142857
vt 0.32247990 0.07142857
vt 0.07142857 0.32247990
vt 0.07142857 0.50000000
vt 0.00000000 0.50000000
vt 0.00000000 0.29289322
vt 0.29289322 0.00000000
vt 0.70710678 0.00000000
vt 1.00000000 0.29289322
vt 1.00000000 0.50000000
vt 0.07142857 0.67752010
vt 0.32247990 0.92857143
vt 0.67752010 0.92857143
vt 0.92857143 0.67752010
vt 1.00000000 0.70710678
vt 0.70710678 1.00000000
vt 0.29289322 1.00000000
vt 0.00000000 0.70710678
vt 1.00000000 0.00000000
vt 1.00000000 1.00000000
vt 0.00000000 1.00000000
vt 0.00000000 0.00000000
vt 1.00000000 0.00000000
vt 1.00000000 1.00000000
vt 0.00000000 1.00000000
vt 0.00000000 0.00000000
vt 0.00000000 0.50000000
vt 1.00000000 0.50000000
vt 1.00000000 0.00000000
vt 1.00000000 1.00000000
vt 0.00000000 1.00000000
vt 0.00000000 0.00000000
vt 1.00000000 0.00000000
vt 1.00000000 1.00000000
vt 0.00000000 1.00000000
vt 0.00000000 0.00000000
vt 1.00000000 0.00000000
vt 1.00000000 1.00000000
vt 0.00000000 1.00000000
vt 0.00000000 0.00000000
vt 1.00000000 0.00000000
vt 1.00000000 1.00000000
vt 0.00000000 1.00000000
vt 0.00000000 0.00000000
vt 1.00000000 0.50000000
vt 0.00000000 0.50000000
vt 0.93750000 0.50000000
vt 0.93750000 0.31878157
vt 0.68121843 0.06250000
vt 0.31878157 0.06250000
vt 0.06250000 0.31878157
vt 0.06250000 0.50000000
vt 0.00000000 0.50000000
vt 0.00000000 0.29289322
vt 0.29289322 0.00000000
vt 0.70710678 0.00000000
vt 1.00000000 0.29289322
vt 1.00000000 0.50000000
vt 0.06250000 0.68121843
vt 0.31878157 0.93750000
vt 0.68121843 0.93750000
vt 0.93750000 0.68121843
vt 1.00000000 0.70710678
vt 0.70710678 1.00000000
vt 0.29289322 1.00000000
vt 0.00000000 0.70710678
vt 1.00000000 0.00000000
vt 1.00000000 1.00000000
vt 0.00000000 1.00000000
vt 0.00000000 0.00000000
vt 0.00000000 0.50000000
vt 1.00000000 0.50000000
vt 0.90000000 0.50000000
vt 0.90000000 0.33431458
vt 0.66568542 0.10000000
vt 0.33431458 0.10000000
vt 0.10000000 0.33431458
vt 0.10000000 0.50000000
vt 0.00000000 0.50000000
vt 0.00000000 0.00000000
vt 1.00000000 0.00000000
vt 1.00000000 0.50000000
vt 0.10000000 0.66568542
vt 0.33431458 0.90000000
vt 0.66568542 0.90000000
vt 0.90000000 0.66568542
vt 1.00000000 1.00000000
vt 0.00000000 1.00000000
vt 1.00000000 0.00000000
vt 1.00000000 1.00000000
vt 0.00000000 1.00000000
vt 0.00000000 0.00000000
vt 0.00000000 0.00000000
vt 1.00000000 0.00000000
vt 1.00000000 1.00000000
vt 0.00000000 1.00000000
vt 1.00000000 0.00000000
vt 1.00000000 1.00000000
vt 0.00000000 1.00000000
vt 0.00000000 0.00000000
vt 1.00000000 0.50000000
vt 1.00000000 0.00000000
vt 1.00000000 1.00000000
vt 0.00000000 1.00000000
vt 0.00000000 0.00000000
vt 1.00000000 0.00000000
vt 1.00000000 1.00000000
vt 0.00000000 1.00000000
vt 0.00000000 0.00000000
vt 1.00000000 0.50000000
vt 1.00000000 0.00000000
vt 1.00000000 1.00000000
vt 0.00000000 1.00000000
vt 0.00000000 0.00000000
vt 1.00000000 0.00000000
vt 1.00000000 1.00000000
vt 0.00000000 1.00000000
vt 0.00000000 0.00000000
vt 1.00000000 0.00000000
vt 1.00000000 1.00000000
vt 0.00000000 1.00000000
vt 0.00000000 0.00000000
vt 1.00000000 0.00000000
vt 1.00000000 1.00000000
vt 0.00000000 1.00000000
vt 0.00000000 0.00000000
vt 0.00000000 0.50000000
vt 1.00000000 0.50000000
vt 1.00000000 0.00000000
vt 1.00000000 1.00000000
vt 0.00000000 1.00000000
vt 0.00000000 0.00000000
vt 1.00000000 0.00000000
vt 1.00000000 1.00000000
vt 0.00000000 1.00000000
vt 0.00000000 0.00000000
vt 1.00000000 0.00000000
vt 1.00000000 1.00000000
vt 0.00000000 1.00000000
vt 0.00000000 0.00000000
vt 1.00000000 0.00000000
vt 1.00000000 1.00000000
vt 0.00000000 1.00000000
vt 0.00000000 0.00000000
vt 1.00000000 0.00000000
vt 1.00000000 1.00000000
vt 0.00000000 1.00000000
vt 0.00000000 0.00000000
vt 1.00000000 0.00000000
vt 1.00000000 1.00000000
vt 0.00000000 1.00000000
vt 0.00000000 0.00000000
vt 1.00000000 0.00000000
vt 1.00000000 1.00000000
vt 0.00000000 1.00000000
vt 0.00000000 0.00000000
vt 1.00000000 0.50000000
vt 0.00000000 0.50000000
vt 1.00000000 0.00000000
vt 1.00000000 1.00000000
vt 0.00000000 1.00000000
vt 0.00000000 0.00000000
vt 1.00000000 0.00000000
vt 1.00000000 1.00000000
vt 0.00000000 1.00000000
vt 0.00000000 0.00000000
vt 1.00000000 0.00000000
vt 1.00000000 1.00000000
vt 0.00000000 1.00000000
vt 0.00000000 0.00000000
vt 1.00000000 0.00000000
vt 1.00000000 1.00000000
vt 0.00000000 1.00000000
vt 0.00000000 0.00000000
vt 0.83333333 0.50000000
vt 0.83333333 0.36192881
vt 0.63807119 0.16666667
vt 0.36192881 0.16666667
vt 0.16666667 0.36192881
vt 0.16666667 0.50000000
vt 0.00000000 0.50000000
vt 0.00000000 0.29289322
vt 0.29289322 0.00000000
vt 0.70710678 0.00000000
vt 1.00000000 0.29289322
vt 1.00000000 0.50000000
vt 0.16666667 0.63807119
vt 0.36192881 0.83333333
vt 0.63807119 0.83333333
vt 0.83333333 0.63807119
vt 1.00000000 0.70710678
vt 0.70710678 1.00000000
vt 0.29289322 1.00000000
vt 0.00000000 0.70710678
vt 0.00000000 1.00000000
vt 0.00000000 0.00000000
vt 1.00000000 0.00000000
vt 1.00000000 1.00000000
vt 0.29289322 1.00000000
vt 0.00000000 0.70710678
vt 0.00000000 0.29289322
vt 0.29289322 0.00000000
vt 0.70710678 0.00000000
vt 1.00000000 0.29289322
vt 1.00000000 0.70710678
vt 0.70710678 1.00000000
vt 0.50000000 0.50000000
vt 0.00000000 1.00000000
vt 0.00000000 0.00000000
vt 1.00000000 0.00000000
vt 1.00000000 1.00000000
vt 1.00000000 0.50000000
vt 0.00000000 1.00000000
vt 0.00000000 0.00000000
vt 1.00000000 0.00000000
vt 1.00000000 1.00000000
vt 0.00000000 1.00000000
vt 0.00000000 0.00000000
vt 1.00000000 0.00000000
vt 1.00000000 1.00000000
vt 0.00000000 1.00000000
vt 0.00000000 0.00000000
vt 1.00000000 0.00000000
vt 1.00000000 1.00000000
vt 0.00000000 1.00000000
vt 0.00000000 0.00000000
vt 1.00000000 0.00000000
vt 1.00000000 1.00000000
vt 1.00000000 0.50000000
vt 0.00000000 1.00000000
vt 0.00000000 0.00000000
vt 1.00000000 0.00000000
vt 1.00000000 1.00000000
vt 0.00000000 1.00000000
vt 0.00000000 0.00000000
vt 1.00000000 0.00000000
vt 1.00000000 1.00000000
vt 1.00000000 0.00000000
vt 1.00000000 1.00000000
vt 0.00000000 1.00000000
vt 0.00000000 0.00000000
vn 0.00000000 0.00000000 -1.00000000
vn 0.00000000 0.00000000 -1.00000000
vn 0.00000000 0.00000000 -1.00000000
vn 0.00000000 0.00000000 -1.00000000
vn 0.00000000 0.00000000 -1.00000000
vn 0.00000000 0.00000000 -1.00000000
vn 0.00000000 1.00000000 0.00000000
vn 0.00000000 1.00000000 0.00000000
vn 0.00000000 1.00000000 0.00000000
vn 0.00000000 1.00000000 0.00000000
vn 0.00000000 1.00000000 0.00000000
vn 0.00000000 1.00000000 0.00000000
vn 0.00000000 1.00000000 0.00000000
vn 0.00000000 1.00000000 0.00000000
vn 0.00000000 1.00000000 0.00000000
vn 0.00000000 1.00000000 0.00000000
vn 0.00000000 1.00000000 0.00000000
vn 0.00000000 1.00000000 0.00000000
vn 0.00000000 1.00000000 0.00000000
vn 0.00000000 1.00000000 0.00000000
vn 0.00000000 1.00000000 0.00000000
vn 0.00000000 1.00000000 0.00000000
vn 0.00000000 1.00000000 0.00000000
vn 0.00000000 1.00000000 0.00000000
vn 0.00000000 1.00000000 0.00000000
vn 0.00000000 1.00000000 0.00000000
vn -0.70710678 0.00000000 0.70710678
vn -0.70710678 0.00000000 0.70710678
vn -0.70710678 0.00000000 0.70710678
vn -0.70710678 0.00000000 0.70710678
vn 0.00000000 0.00000000 1.00000000
vn 0.00000000 0.00000000 1.00000000
vn 0.00000000 0.00000000 1.00000000
vn 0.00000000 0.00000000 1.00000000
vn 0.00000000 0.00000000 1.00000000
vn 0.00000000 0.00000000 1.00000000
vn 0.70710678 0.00000000 0.70710678
vn 0.70710678 0.00000000 0.70710678
vn 0.70710678 0.00000000 0.70710678
vn 0.70710678 0.00000000 0.70710678
vn 1.00000000 0.00000000 0.00000000
vn 1.00000000 0.00000000 0.00000000
vn 1.00000000 0.00000000 0.00000000
vn 1.00000000 0.00000000 0.00000000
vn -1.00000000 0.00000000 0.00000000
vn -1.00000000 0.00000000 0.00000000
vn -1.00000000 0.00000000 0.00000000
vn -1.00000000 0.00000000 0.00000000
vn 0.00000000 0.00000000 1.00000000
vn 0.00000000 0.00000000 1.00000000
vn 0.00000000 0.00000000 1.00000000
vn 0.00000000 0.00000000 1.00000000
vn 0.00000000 0.00000000 1.00000000
vn 0.00000000 0.00000000 1.00000000
vn 0.00000000 1.00000000 0.00000000
vn 0.00000000 1.00000000 0.00000000
vn 0.00000000 1.00000000 0.00000000
vn 0.00000000 1.00000000 0.00000000
vn 0.00000000 1.00000000 0.00000000
vn 0.00000000 1.00000000 0.00000000
vn 0.00000000 1.00000000 0.00000000
vn 0.00000000 1.00000000 0.00000000
vn 0.00000000 1.00000000 0.00000000
vn 0.00000000 1.00000000 0.00000000
vn 0.00000000 1.00000000 0.00000000
vn 0.00000000 1.00000000 0.00000000
vn 0.00000000 1.00000000 0.00000000
vn 0.00000000 1.00000000 0.00000000
vn 0.00000000 1.00000000 0.00000000
vn 0.00000000 1.00000000 0.00000000
vn 0.00000000 1.00000000 0.00000000
vn 0.00000000 1.00000000 0.00000000
vn 0.00000000 1.00000000 0.00000000
vn 0.00000000 1.00000000 0.00000000
vn 0.00000000 0.00000000 -1.00000000
vn 0.00000000 0.00000000 -1.00000000
vn 0.00000000 0.00000000 -1.00000000
vn 0.00000000 0.00000000 -1.00000000
vn 0.00000000 0.00000000 -1.00000000
vn 0.00000000 0.00000000 -1.00000000
vn 0.00000000 1.00000000 0.00000000
vn 0.00000000 1.00000000 0.00000000
vn 0.00000000 1.00000000 0.00000000
vn 0.00000000 1.00000000 0.00000000
vn 0.00000000 1.00000000 0.00000000
vn 0.00000000 1.00000000 0.00000000
vn 0.00000000 1.00000000 0.00000000
vn 0.00000000 1.00000000 0.00000000
vn 0.00000000 1.00000000 0.00000000
vn 0.00000000 1.00000000 0.00000000
vn 0.00000000 1.00000000 0.00000000
vn 0.00000000 1.00000000 0.00000000
vn 0.00000000 1.00000000 0.00000000
vn 0.00000000 1.00000000 0.00000000
vn 0.00000000 1.00000000 0.00000000
vn 0.00000000 1.00000000 0.00000000
vn 1.00000000 0.00000000 -0.00000000
vn 1.00000000 0.00000000 -0.00000000
vn 1.00000000 0.00000000 -0.00000000
vn 1.00000000 0.00000000 -0.00000000
vn 0.00000000 -1.00000000 0.00000000
vn 0.00000000 -1.00000000 0.00000000
vn 0.00000000 -1.00000000 0.00000000
vn 0.00000000 -1.00000000 0.00000000
vn -0.00000000 0.00000000 1.00000000
vn -0.00000000 0.00000000 1.00000000
vn -0.00000000 0.00000000 1.00000000
vn -0.00000000 0.00000000 1.00000000
vn -0.00000000 0.00000000 1.00000000
vn -1.00000000 0.00000000 0.00000000
vn -1.00000000 0.00000000 0.00000000
vn -1.00000000 0.00000000 0.00000000
vn -1.00000000 0.00000000 0.00000000
vn 0.00000000 0.00000000 -1.00000000
vn 0.00000000 0.00000000 -1.00000000
vn 0.00000000 0.00000000 -1.00000000
vn 0.00000000 0.00000000 -1.00000000
vn 0.00000000 0.00000000 -1.00000000
vn 0.70710678 0.00000000 -0.70710678
vn 0.70710678 0.00000000 -0.70710678
vn 0.70710678 0.00000000 -0.70710678
vn 0.70710678 0.00000000 -0.70710678
vn 1.00000000 0.00000000 0.00000000
vn 1.00000000 0.00000000 0.00000000
vn 1.00000000 0.00000000 0.00000000
vn 1.00000000 0.00000000 0.00000000
vn 0.70710678 0.00000000 0.70710678
vn 0.70710678 0.00000000 0.70710678
vn 0.70710678 0.00000000 0.70710678
vn 0.70710678 0.00000000 0.70710678
vn 0.00000000 0.00000000 1.00000000
vn 0.00000000 0.00000000 1.00000000
vn 0.00000000 0.00000000 1.00000000
vn 0.00000000 0.00000000 1.00000000
vn 0.00000000 0.00000000 1.00000000
vn 0.00000000 0.00000000 1.00000000
vn -0.70710678 0.00000000 0.70710678
vn -0.70710678 0.00000000 0.70710678
vn -0.70710678 0.00000000 0.70710678
vn -0.70710678 0.00000000 0.70710678
vn -1.00000000 0.00000000 0.00000000
vn -1.00000000 0.00000000 0.00000000
vn -1.00000000 0.00000000 0.00000000
vn -1.00000000 0.00000000 0.00000000
vn -0.70710678 0.00000000 -0.70710678
vn -0.70710678 0.00000000 -0.70710678
vn -0.70710678 0.00000000 -0.70710678
vn -0.70710678 0.00000000 -0.70710678
vn -0.70710678 0.00000000 0.70710678
vn -0.70710678 0.00000000 0.70710678
vn -0.70710678 0.00000000 0.70710678
vn -0.70710678 0.00000000 0.70710678
vn -1.00000000 0.00000000 0.00000000
vn -1.00000000 0.00000000 0.00000000
vn -1.00000000 0.00000000 0.00000000
vn -1.00000000 0.00000000 0.00000000
vn -0.70710678 0.00000000 -0.70710678
vn -0.70710678 0.00000000 -0.70710678
vn -0.70710678 0.00000000 -0.70710678
vn -0.70710678 0.00000000 -0.70710678
vn 0.00000000 0.00000000 -1.00000000
vn 0.00000000 0.00000000 -1.00000000
vn 0.00000000 0.00000000 -1.00000000
vn 0.00000000 0.00000000 -1.00000000
vn 0.00000000 0.00000000 -1.00000000
vn 0.00000000 0.00000000 -1.00000000
vn 0.70710678 0.00000000 -0.70710678
vn 0.70710678 0.00000000 -0.70710678
vn 0.70710678 0.00000000 -0.70710678
vn 0.70710678 0.00000000 -0.70710678
vn 1.00000000 0.00000000 0.00000000
vn 1.00000000 0.00000000 0.00000000
vn 1.00000000 0.00000000 0.00000000
vn 1.00000000 0.00000000 0.00000000
vn 0.70710678 0.00000000 0.70710678
vn 0.70710678 0.00000000 0.70710678
vn 0.70710678 0.00000000 0.70710678
vn 0.70710678 0.00000000 0.70710678
vn 0.70710678 0.00000000 -0.70710678
vn 0.70710678 0.00000000 -0.70710678
vn 0.70710678 0.00000000 -0.70710678
vn 0.70710678 0.00000000 -0.70710678
vn 0.00000000 1.00000000 0.00000000
vn 0.00000000 1.00000000 0.00000000
vn 0.00000000 1.00000000 0.00000000
vn 0.00000000 1.00000000 0.00000000
vn 0.00000000 1.00000000 0.00000000
vn 0.00000000 1.00000000 0.00000000
vn 0.00000000 1.00000000 0.00000000
vn 0.00000000 1.00000000 0.00000000
vn 0.00000000 1.00000000 0.00000000
vn 0.00000000 1.00000000 0.00000000
vn 0.00000000 1.00000000 0.00000000
vn 0.00000000 1.00000000 0.00000000
vn 0.00000000 1.00000000 0.00000000
vn 0.00000000 1.00000000 0.00000000
vn 0.00000000 1.00000000 0.00000000
vn 0.00000000 1.00000000 0.00000000
vn 0.00000000 1.00000000 0.00000000
vn 0.00000000 1.00000000 0.00000000
vn 0.00000000 1.00000000 0.00000000
vn 0.00000000 1.00000000 0.00000000
vn -0.70710678 0.00000000 0.70710678
vn -0.70710678 0.00000000 0.70710678
vn -0.70710678 0.00000000 0.70710678
vn -0.70710678 0.00000000 0.70710678
vn 0.00000000 1.00000000 0.00000000
vn 0.00000000 1.00000000 -0.00000000
vn 0.00000000 1.00000000 -0.00000000
vn 0.00000000 1.00000000 -0.00000000
vn 0.00000000 1.00000000 -0.00000000
vn 0.00000000 1.00000000 -0.00000000
vn 0.00000000 1.00000000 -0.00000000
vn 0.00000000 1.00000000 -0.00000000
vn 0.00000000 1.00000000 0.00000000
vn 0.00000000 0.00000000 1.00000000
vn 0.00000000 0.00000000 1.00000000
vn 0.00000000 0.00000000 1.00000000
vn 0.00000000 0.00000000 1.00000000
vn 0.00000000 0.00000000 1.00000000
vn 0.70710678 0.00000000 0.70710678
vn 0.70710678 0.00000000 0.70710678
vn 0.70710678 0.00000000 0.70710678
vn 0.70710678 0.00000000 0.70710678
vn 1.00000000 0.00000000 0.00000000
vn 1.00000000 0.00000000 0.00000000
vn 1.00000000 0.00000000 0.00000000
vn 1.00000000 0.00000000 0.00000000
vn 0.70710678 0.00000000 -0.70710678
vn 0.70710678 0.00000000 -0.70710678
vn 0.70710678 0.00000000 -0.70710678
vn 0.70710678 0.00000000 -0.70710678
vn 0.00000000 0.00000000 -1.00000000
vn 0.00000000 0.00000000 -1.00000000
vn 0.00000000 0.00000000 -1.00000000
vn 0.00000000 0.00000000 -1.00000000
vn 0.00000000 0.00000000 -1.00000000
vn -0.70710678 0.00000000 -0.70710678
vn -0.70710678 0.00000000 -0.70710678
vn -0.70710678 0.00000000 -0.70710678
vn -0.70710678 0.00000000 -0.70710678
vn -1.00000000 0.00000000 0.00000000
vn -1.00000000 0.00000000 0.00000000
vn -1.00000000 0.00000000 0.00000000
vn -1.00000000 0.00000000 0.00000000
vn -0.70710678 0.00000000 -0.70710678
vn -0.70710678 0.00000000 -0.70710678
vn -0.70710678 0.00000000 -0.70710678
vn -0.70710678 0.00000000 -0.70710678
s 1
usemtl Blue_Fabric_1
f 6/6/6 1/1/1 4/4/4
f 4/4/4 5/5/5 6/6/6
f 5/5/5 3/3/3 6/6/6
f 3/3/3 2/2/2 6/6/6
s 2
usemtl Blue_Fabric_3
f 9/11/11 10/12/12 11/13/13
f 23/26/26 11/13/13 17/19/19
f 22/25/25 23/26/26 18/20/20
f 21/24/24 22/25/25 19/21/21
f 19/21/21 3/22/22 20/23/23
f 3/22/22 16/18/18 20/23/23
f 15/17/17 16/18/18 4/8/8
f 14/16/16 15/17/17 7/9/9
f 7/9/9 8/10/10 13/15/15
f 8/10/10 12/14/14 13/15/15
f 7/9/9 13/15/15 14/16/16
f 15/17/17 4/8/8 7/9/9
f 16/18/18 5/7/7 4/8/8
f 3/22/22 5/7/7 16/18/18
f 19/21/21 20/23/23 21/24/24
f 22/25/25 18/20/20 19/21/21
f 23/26/26 17/19/19 18/20/20
f 11/13/13 10/12/12 17/19/19
f 8/10/10 9/11/11 12/14/14
f 9/11/11 11/13/13 12/14/14
s 3
usemtl Blue_Fabric_1
f 18/30/30 17/29/29 24/27/27
f 17/29/29 25/28/28 24/27/27
s 4
f 9/33/33 26/32/32 27/36/36
f 17/34/34 10/35/35 27/36/36
f 27/36/36 25/31/31 17/34/34
f 10/35/35 9/33/33 27/36/36
s 5
f 9/40/40 8/39/39 26/37/37
f 8/39/39 28/38/38 26/37/37
s 6
f 8/44/44 7/43/43 28/41/41
f 7/43/43 29/42/42 28/41/41
s 7
f 19/48/48 18/47/47 30/45/45
f 18/47/47 24/46/46 30/45/45
s 8
f 33/53/53 32/50/50 20/51/51
f 31/49/49 33/53/53 16/54/54
f 16/54/54 15/52/52 31/49/49
f 33/53/53 20/51/51 16/54/54
s 9
f 36/59/59 37/60/60 38/61/61
f 50/74/74 38/61/61 44/67/67
f 49/73/73 50/74/74 45/68/68
f 46/69/69 48/72/72 49/73/73
f 46/69/69 47/71/71 48/72/72
f 32/70/70 43/66/66 47/71/71
f 42/65/65 43/66/66 31/56/56
f 41/64/64 42/65/65 34/57/57
f 40/63/63 41/64/64 35/58/58
f 35/58/58 39/62/62 40/63/63
f 41/64/64 34/57/57 35/58/58
f 42/65/65 31/56/56 34/57/57
f 43/66/66 33/55/55 31/56/56
f 32/70/70 33/55/55 43/66/66
f 46/69/69 32/70/70 47/71/71
f 49/73/73 45/68/68 46/69/69
f 50/74/74 44/67/67 45/68/68
f 38/61/61 37/60/60 44/67/67
f 35/58/58 36/59/59 39/62/62
f 36/59/59 38/61/61 39/62/62
s 10
f 53/79/79 51/77/77 47/76/76
f 52/78/78 53/79/79 43/80/80
f 43/80/80 42/75/75 52/78/78
f 53/79/79 47/76/76 43/80/80
s 11
usemtl Blue_Fabric_3
f 56/85/85 57/86/86 58/87/87
f 66/96/96 58/87/87 62/91/91
f 64/93/93 65/95/95 66/96/96
f 51/94/94 61/90/90 65/95/95
f 60/89/89 61/90/90 52/82/82
f 54/83/83 59/88/88 60/89/89
f 54/83/83 55/84/84 59/88/88
f 60/89/89 52/82/82 54/83/83
f 61/90/90 53/81/81 52/82/82
f 51/94/94 53/81/81 61/90/90
f 64/93/93 51/94/94 65/95/95
f 66/96/96 63/92/92 64/93/93
f 66/96/96 62/91/91 63/92/92
f 58/87/87 57/86/86 62/91/91
f 55/84/84 56/85/85 59/88/88
f 56/85/85 58/87/87 59/88/88
s 12
usemtl Blue_Fabric_1
f 68/100/100 67/99/99 59/97/97
f 67/99/99 60/98/98 59/97/97
s 13
f 70/104/104 69/103/103 67/102/102
f 70/104/104 67/102/102 68/101/101
s 14
f 58/109/109 66/105/105 70/108/108
f 70/108/108 68/107/107 58/109/109
f 68/107/107 59/106/106 58/109/109
s 15
f 69/113/113 70/112/112 65/110/110
f 70/112/112 66/111/111 65/110/110
s 16
f 61/118/118 60/114/114 67/117/117
f 67/117/117 69/116/116 61/118/118
f 69/116/116 65/115/115 61/118/118
s 17
f 54/122/122 52/121/121 41/119/119
f 52/121/121 42/120/120 41/119/119
s 18
f 55/126/126 54/125/125 40/123/123
f 54/125/125 41/124/124 40/123/123
s 19
f 56/130/130 55/129/129 39/127/127
f 55/129/129 40/128/128 39/127/127
s 20
f 38/136/136 50/131/131 62/134/134
f 57/135/135 39/132/132 38/136/136
f 57/135/135 56/133/133 39/132/132
f 38/136/136 62/134/134 57/135/135
s 21
f 63/140/140 62/139/139 49/137/137
f 62/139/139 50/138/138 49/137/137
s 22
f 64/144/144 63/143/143 49/142/142
f 64/144/144 49/142/142 48/141/141
s 23
f 51/148/148 64/147/147 48/146/146
f 51/148/148 48/146/146 47/145/145
s 24
f 34/149/149 31/150/150 14/152/152
f 31/150/150 15/151/151 14/152/152
s 25
f 35/153/153 34/154/154 13/156/156
f 34/154/154 14/155/155 13/156/156
s 26
f 36/157/157 35/158/158 13/159/159
f 36/157/157 13/159/159 12/160/160
s 27
f 23/164/164 44/161/161 37/165/165
f 11/166/166 37/165/165 36/162/162
f 36/162/162 12/163/163 11/166/166
f 11/166/166 23/164/164 37/165/165
s 28
f 45/167/167 44/168/168 22/170/170
f 44/168/168 23/169/169 22/170/170
s 29
f 46/171/171 45/172/172 21/174/174
f 45/172/172 22/173/173 21/174/174
s 30
f 32/175/175 46/176/176 20/178/178
f 46/176/176 21/177/177 20/178/178
s 31
f 7/182/182 4/181/181 29/179/179
f 4/181/181 1/180/180 29/179/179
s 32
f 6/194/194 71/183/183 72/184/184
f 1/193/193 72/184/184 73/185/185
f 29/192/192 73/185/185 74/186/186
f 74/186/186 26/190/190 28/191/191
f 75/187/187 27/189/189 26/190/190
f 25/202/202 27/189/189 77/195/195
f 78/196/196 24/201/201 25/202/202
f 78/196/196 30/200/200 24/201/201
f 79/197/197 2/199/199 30/200/200
f 79/197/197 80/198/198 2/199/199
f 78/196/196 79/197/197 30/200/200
f 25/202/202 77/195/195 78/196/196
f 27/189/189 76/188/188 77/195/195
f 75/187/187 76/188/188 27/189/189
f 74/186/186 75/187/187 26/190/190
f 28/191/191 29/192/192 74/186/186
f 29/192/192 1/193/193 73/185/185
f 80/198/198 6/194/194 2/199/199
f 80/198/198 71/183/183 6/194/194
f 1/193/193 6/194/194 72/184/184
s 33
f 81/203/203 82/204/204 72/206/206
f 82/204/204 73/205/205 72/206/206
s 34
usemtl Blue_Fabric_3
f 83/207/207 84/208/208 89/215/215
f 87/213/213 88/214/214 89/215/215
f 81/212/212 87/213/213 89/215/215
f 82/211/211 81/212/212 89/215/215
f 86/210/210 82/211/211 89/215/215
f 85/209/209 86/210/210 89/215/215
f 84/208/208 85/209/209 89/215/215
f 88/214/214 83/207/207 89/215/215
s 35
usemtl Blue_Fabric_1
f 81/217/217 72/218/218 71/220/220
f 71/220/220 80/219/219 87/216/216
f 87/216/216 81/217/217 71/220/220
s 36
f 88/221/221 87/222/222 80/223/223
f 88/221/221 80/223/223 79/224/224
s 37
f 83/225/225 88/226/226 78/228/228
f 88/226/226 79/227/227 78/228/228
s 38
f 84/229/229 83/230/230 77/232/232
f 83/230/230 78/231/231 77/232/232
s 39
f 76/237/237 75/236/236 85/233/233
f 85/233/233 84/234/234 76/237/237
f 84/234/234 77/235/235 76/237/237
s 40
f 86/238/238 85/239/239 74/241/241
f 85/239/239 75/240/240 74/241/241
s 41
f 82/242/242 86/243/243 73/245/245
f 86/243/243 74/244/244 73/245/245
s 42
f 3/249/249 19/248/248 30/247/247
f 3/249/249 30/247/247 2/246/246
