mtllib Materials_Modular_Temple.mtl
o object1
g object1
v -0.02250000 -0.00000000 0.45979957
v -0.02250000 -0.00000000 0.50479957
v -0.02250000 0.76500004 0.50479957
v -0.02250000 0.76500004 0.45979957
v 0.02250000 -0.00000000 0.45979957
v 0.02250000 -0.00000000 0.50479957
v 0.02250000 0.76500004 0.50479957
v 0.02250000 0.76500004 0.45979957
v 0.25000000 0.76500004 0.50479957
v 0.25000000 0.81000004 0.50479957
v -0.25000000 0.81000004 0.50479957
v -0.25000000 0.76500004 0.50479957
v -0.24750000 0.76500004 0.45979957
v -0.24750000 0.76500004 0.41479957
v -0.27000000 0.76500004 0.41479957
v -0.27000000 0.76500004 0.45979957
v -0.27000000 0.76500004 0.48229957
v 0.27000000 0.81000004 0.48229957
v 0.27000000 0.81000004 0.45979957
v 0.27000000 0.81000004 0.41479957
v 0.24750000 0.81000004 0.41479957
v 0.24750000 0.81000004 0.45979957
v -0.24750000 0.81000004 0.45979957
v -0.24750000 0.81000004 0.41479957
v -0.27000000 0.81000004 0.41479957
v -0.27000000 0.81000004 0.45979957
v -0.27000000 0.81000004 0.48229957
v 0.24750000 0.76500004 0.41479957
v 0.24750000 0.76500004 0.45979957
v 0.27000000 0.76500004 0.41479957
v 0.27000000 0.76500004 0.48229957
v 0.27000000 0.76500004 0.45979957
vt 1.00000000 0.00000000
vt 1.00000000 1.00000000
vt 0.00000000 1.00000000
vt 0.00000000 0.00000000
vt 1.00000000 0.00000000
vt 1.00000000 1.00000000
vt 0.00000000 1.00000000
vt 0.00000000 0.00000000
vt 1.00000000 0.45500000
vt 1.00000000 0.54500000
vt 0.05555555 0.54500000
vt 0.05555555 1.00000000
vt 0.00000000 1.00000000
vt 0.00000000 0.00000000
vt 0.05555555 0.00000000
vt 0.05555555 0.45500000
vt 1.00000000 1.00000000
vt 0.50000000 1.00000000
vt 0.50000000 0.09090909
vt 0.00000000 0.09090909
vt 0.00000000 0.00000000
vt 0.50000000 0.00000000
vt 0.75000000 0.00000000
vt 1.00000000 0.08080808
vt 1.00000000 0.03703704
vt 1.00000000 0.96296296
vt 0.75000000 1.00000000
vt 0.50000000 1.00000000
vt 0.00000000 1.00000000
vt 0.00000000 0.95833333
vt 0.50000000 0.95833333
vt 0.50000000 0.04166667
vt 0.00000000 0.04166667
vt 0.00000000 0.00000000
vt 0.50000000 0.00000000
vt 0.75000000 0.00000000
vt 1.00000000 1.00000000
vt 0.00000000 1.00000000
vt 0.00000000 0.00000000
vt 1.00000000 0.00000000
vt 1.00000000 1.00000000
vt 0.00000000 1.00000000
vt 0.00000000 0.00000000
vt 1.00000000 0.00000000
vt 0.00000000 0.33333333
vt 0.00000000 0.00000000
vt 1.00000000 0.00000000
vt 1.00000000 0.33333333
vt 1.00000000 1.00000000
vt 0.00000000 1.00000000
vt 1.00000000 1.00000000
vt 0.00000000 1.00000000
vt 0.00000000 0.00000000
vt 1.00000000 0.00000000
vt 0.50000000 0.00000000
vt 1.00000000 0.00000000
vt 1.00000000 0.91919192
vt 0.75000000 1.00000000
vt 0.50000000 1.00000000
vt 0.00000000 1.00000000
vt 0.00000000 0.90909091
vt 0.50000000 0.90909091
vt 1.00000000 1.00000000
vt 0.00000000 1.00000000
vt 0.00000000 0.00000000
vt 1.00000000 0.00000000
vt 0.00000000 0.33333333
vt 0.00000000 0.00000000
vt 1.00000000 0.00000000
vt 1.00000000 0.33333333
vt 1.00000000 1.00000000
vt 0.00000000 1.00000000
vt 1.00000000 1.00000000
vt 0.00000000 1.00000000
vt 0.00000000 0.00000000
vt 1.00000000 0.00000000
vt 1.00000000 1.00000000
vt 0.00000000 1.00000000
vt 0.00000000 0.00000000
vt 1.00000000 0.00000000
vt 1.00000000 0.45454545
vt 1.00000000 0.54545455
vt 0.05555555 0.54545455
vt 0.05555555 1.00000000
vt 0.00000000 1.00000000
vt 0.00000000 0.00000000
vt 0.05555555 0.00000000
vt 0.05555555 0.45454545
vt 0.00000000 1.00000000
vt 0.00000000 0.00000000
vt 1.00000000 0.00000000
vt 1.00000000 1.00000000
vn -1.00000000 0.00000000 0.00000000
vn -1.00000000 0.00000000 0.00000000
vn -1.00000000 0.00000000 0.00000000
vn -1.00000000 0.00000000 0.00000000
vn 1.00000000 0.00000000 0.00000000
vn 1.00000000 0.00000000 0.00000000
vn 1.00000000 0.00000000 0.00000000
vn 1.00000000 0.00000000 0.00000000
vn 0.00000000 0.00000000 1.00000000
vn 0.00000000 0.00000000 1.00000000
vn 0.00000000 0.00000000 1.00000000
vn 0.00000000 0.00000000 1.00000000
vn 0.00000000 0.00000000 1.00000000
vn 0.00000000 0.00000000 1.00000000
vn 0.00000000 0.00000000 1.00000000
vn 0.00000000 0.00000000 1.00000000
vn 0.00000000 -1.00000000 0.00000000
vn 0.00000000 -1.00000000 0.00000000
vn 0.00000000 -1.00000000 0.00000000
vn 0.00000000 -1.00000000 0.00000000
vn 0.00000000 -1.00000000 0.00000000
vn 0.00000000 -1.00000000 0.00000000
vn 0.00000000 -1.00000000 0.00000000
vn 0.00000000 -1.00000000 0.00000000
vn 0.00000000 1.00000000 0.00000000
vn 0.00000000 1.00000000 0.00000000
vn 0.00000000 1.00000000 0.00000000
vn 0.00000000 1.00000000 0.00000000
vn 0.00000000 1.00000000 0.00000000
vn 0.00000000 1.00000000 0.00000000
vn 0.00000000 1.00000000 0.00000000
vn 0.00000000 1.00000000 0.00000000
vn 0.00000000 1.00000000 0.00000000
vn 0.00000000 1.00000000 0.00000000
vn 0.00000000 1.00000000 0.00000000
vn 0.00000000 1.00000000 0.00000000
vn -1.00000000 0.00000000 0.00000000
vn -1.00000000 0.00000000 0.00000000
vn -1.00000000 0.00000000 0.00000000
vn -1.00000000 0.00000000 0.00000000
vn 0.00000000 0.00000000 -1.00000000
vn 0.00000000 0.00000000 -1.00000000
vn 0.00000000 0.00000000 -1.00000000
vn 0.00000000 0.00000000 -1.00000000
vn 1.00000000 0.00000000 0.00000000
vn 1.00000000 0.00000000 0.00000000
vn 1.00000000 0.00000000 0.00000000
vn 1.00000000 0.00000000 0.00000000
vn 1.00000000 0.00000000 0.00000000
vn 1.00000000 0.00000000 0.00000000
vn 0.74740932 0.00000000 0.66436384
vn 0.74740932 0.00000000 0.66436384
vn 0.74740932 0.00000000 0.66436384
vn 0.74740932 0.00000000 0.66436384
vn 0.00000000 -1.00000000 0.00000000
vn 0.00000000 -1.00000000 0.00000000
vn 0.00000000 -1.00000000 0.00000000
vn 0.00000000 -1.00000000 0.00000000
vn 0.00000000 -1.00000000 0.00000000
vn 0.00000000 -1.00000000 0.00000000
vn 0.00000000 -1.00000000 0.00000000
vn 0.00000000 -1.00000000 0.00000000
vn -0.74740932 0.00000000 0.66436384
vn -0.74740932 0.00000000 0.66436384
vn -0.74740932 0.00000000 0.66436384
vn -0.74740932 0.00000000 0.66436384
vn -1.00000000 0.00000000 0.00000000
vn -1.00000000 0.00000000 0.00000000
vn -1.00000000 0.00000000 0.00000000
vn -1.00000000 0.00000000 0.00000000
vn -1.00000000 0.00000000 0.00000000
vn -1.00000000 0.00000000 0.00000000
vn 0.00000000 0.00000000 -1.00000000
vn 0.00000000 0.00000000 -1.00000000
vn 0.00000000 0.00000000 -1.00000000
vn 0.00000000 0.00000000 -1.00000000
vn 1.00000000 0.00000000 0.00000000
vn 1.00000000 0.00000000 0.00000000
vn 1.00000000 0.00000000 0.00000000
vn 1.00000000 0.00000000 0.00000000
vn 0.00000000 0.00000000 -1.00000000
vn 0.00000000 0.00000000 -1.00000000
vn 0.00000000 0.00000000 -1.00000000
vn 0.00000000 0.00000000 -1.00000000
vn 0.00000000 0.00000000 -1.00000000
vn 0.00000000 0.00000000 -1.00000000
vn 0.00000000 0.00000000 -1.00000000
vn 0.00000000 0.00000000 -1.00000000
vn 0.00000000 -1.00000000 0.00000000
vn 0.00000000 -1.00000000 0.00000000
vn 0.00000000 -1.00000000 0.00000000
vn 0.00000000 -1.00000000 0.00000000
s 1
usemtl Sandstone_6
f 1/1/1 2/2/2 4/4/4
f 2/2/2 3/3/3 4/4/4
s 2
f 8/8/8 7/7/7 6/6/6
f 8/8/8 6/6/6 5/5/5
s 3
f 7/11/11 9/12/12 10/13/13
f 2/9/9 6/10/10 7/11/11
f 7/11/11 3/16/16 2/9/9
f 11/14/14 12/15/15 3/16/16
f 7/11/11 11/14/14 3/16/16
f 7/11/11 10/13/13 11/14/14
s 4
f 12/24/24 17/23/23 16/22/22
f 16/22/22 15/21/21 13/19/19
f 13/19/19 4/18/18 3/17/17
f 15/21/21 14/20/20 13/19/19
f 12/24/24 13/19/19 3/17/17
f 12/24/24 16/22/22 13/19/19
s 5
f 26/35/35 27/36/36 11/25/25
f 11/25/25 10/26/26 23/32/32
f 23/32/32 24/33/33 25/34/34
f 10/26/26 22/31/31 23/32/32
f 19/28/28 21/30/30 22/31/31
f 19/28/28 20/29/29 21/30/30
f 10/26/26 19/28/28 22/31/31
f 10/26/26 18/27/27 19/28/28
f 23/32/32 26/35/35 11/25/25
f 23/32/32 25/34/34 26/35/35
s 6
f 28/37/37 29/38/38 21/40/40
f 29/38/38 22/39/39 21/40/40
s 7
f 28/41/41 21/42/42 30/44/44
f 21/42/42 20/43/43 30/44/44
s 8
f 19/45/45 18/46/46 31/47/47
f 20/50/50 19/45/45 32/48/48
f 32/48/48 30/49/49 20/50/50
f 19/45/45 31/47/47 32/48/48
s 9
f 31/51/51 18/52/52 9/54/54
f 18/52/52 10/53/53 9/54/54
s 10
f 32/59/59 31/58/58 9/57/57
f 29/62/62 9/57/57 7/56/56
f 7/56/56 8/55/55 29/62/62
f 29/62/62 32/59/59 9/57/57
f 29/62/62 28/61/61 32/59/59
f 28/61/61 30/60/60 32/59/59
s 11
f 12/66/66 11/65/65 17/63/63
f 11/65/65 27/64/64 17/63/63
s 12
f 17/69/69 27/68/68 26/67/67
f 16/70/70 26/67/67 25/72/72
f 25/72/72 15/71/71 16/70/70
f 16/70/70 17/69/69 26/67/67
s 13
f 15/73/73 25/74/74 14/76/76
f 25/74/74 24/75/75 14/76/76
s 14
f 24/80/80 23/79/79 14/77/77
f 23/79/79 13/78/78 14/77/77
s 15
f 22/85/85 29/84/84 8/83/83
f 4/88/88 8/83/83 5/82/82
f 4/88/88 5/82/82 1/81/81
f 4/88/88 13/87/87 23/86/86
f 4/88/88 23/86/86 8/83/83
f 23/86/86 22/85/85 8/83/83
s 16
f 6/89/89 2/90/90 5/92/92
f 2/90/90 1/91/91 5/92/92
