mtllib Materials_Modular_Temple.mtl
o object1
g object1
v -0.18284271 0.00500000 -0.10000000
v -0.08284271 0.00500000 -0.20000000
v -0.08284271 0.01000000 -0.20000000
v -0.18284271 0.01000000 -0.10000000
v 0.10000000 0.00500000 0.01715729
v 0.10000000 0.00500000 0.18284271
v 0.20000000 0.00500000 0.08284271
v 0.20000000 0.00500000 -0.08284271
v 0.08284271 0.00500000 -0.20000000
v -0.01715729 0.00500000 -0.10000000
v 0.10000000 0.01000000 0.01715729
v 0.10000000 0.01000000 0.18284271
v -0.01715729 0.01000000 -0.10000000
v 0.07426407 0.01000000 -0.00857864
v 0.20000000 0.01000000 -0.08284271
v 0.08284271 0.01000000 -0.20000000
v 0.20000000 0.01000000 0.08284271
v 0.20000000 0.01000000 -0.00857864
v -0.30000000 0.01000000 -0.00857864
v -0.30000000 0.01000000 0.12426407
v -0.12426407 0.01000000 0.30000000
v 0.12426407 0.01000000 0.30000000
v 0.30000000 0.01000000 0.12426407
v 0.30000000 0.01000000 -0.00857864
v 0.30000000 0.01000000 -0.12426407
v 0.12426407 0.01000000 -0.30000000
v -0.12426407 0.01000000 -0.30000000
v -0.30000000 0.01000000 -0.12426407
v -0.12426407 0.00500000 -0.30000000
v 0.12426407 0.00500000 -0.30000000
v 0.00000000 0.00500000 -0.30000000
v 0.30000000 0.00500000 -0.12426407
v 0.30000000 0.00500000 0.12426407
v 0.12426407 0.00500000 0.30000000
v 0.00000000 0.00500000 0.30000000
v 0.00000000 0.00500000 0.35000000
v 0.14497475 0.00500000 0.35000000
v 0.35000000 0.00500000 0.14497475
v 0.35000000 0.00500000 -0.14497475
v 0.14497475 0.00500000 -0.35000000
v 0.00000000 0.00500000 -0.35000000
v -0.12426407 0.00500000 0.30000000
v -0.30000000 0.00500000 0.12426407
v -0.30000000 0.00500000 -0.12426407
v -0.14497475 0.00500000 -0.35000000
v -0.35000000 0.00500000 -0.14497475
v -0.35000000 0.00500000 0.14497475
v -0.14497475 0.00500000 0.35000000
v 0.14497475 0.01000000 -0.35000000
v -0.14497475 0.01000000 -0.35000000
v 0.00000000 0.01000000 -0.35000000
v 0.35000000 0.01000000 -0.14497475
v 0.35000000 0.01000000 0.14497475
v 0.14497475 0.01000000 0.35000000
v 0.00000000 0.01000000 0.35000000
v 0.00000000 0.01000000 0.40000000
v 0.16568542 0.01000000 0.40000000
v 0.40000000 0.01000000 0.16568542
v 0.40000000 0.01000000 -0.16568542
v 0.16568542 0.01000000 -0.40000000
v 0.00000000 0.01000000 -0.40000000
v -0.14497475 0.01000000 0.35000000
v -0.35000000 0.01000000 0.14497475
v -0.35000000 0.01000000 -0.14497475
v -0.16568542 0.01000000 -0.40000000
v -0.40000000 0.01000000 -0.16568542
v -0.40000000 0.01000000 0.16568542
v -0.16568542 0.01000000 0.40000000
v -0.16568542 0.00500000 -0.40000000
v 0.16568542 0.00500000 -0.40000000
v 0.00000000 0.00500000 -0.40000000
v 0.40000000 0.00500000 -0.16568542
v 0.40000000 0.00500000 0.16568542
v 0.16568542 0.00500000 0.40000000
v 0.00000000 0.00500000 0.40000000
v 0.00000000 0.00500000 0.50000000
v 0.50000000 0.00500000 0.50000000
v 0.50000000 0.00500000 -0.50000000
v 0.00000000 0.00500000 -0.50000000
v -0.16568542 0.00500000 0.40000000
v -0.40000000 0.00500000 0.16568542
v -0.40000000 0.00500000 -0.16568542
v -0.50000000 0.00500000 -0.50000000
v -0.50000000 0.00500000 0.50000000
v 0.50000000 0.00000000 -0.50000000
v 0.50000000 0.00000000 0.50000000
v -0.50000000 0.00000000 -0.50000000
v -0.50000000 0.00000000 0.50000000
vt 0.00000000 1.00000000
vt 0.00000000 0.00000000
vt 1.00000000 0.00000000
vt 1.00000000 1.00000000
vt 0.43277675 0.26120387
vt 0.00000000 0.26120387
vt 0.26120387 0.00000000
vt 0.69398063 0.00000000
vt 1.00000000 0.30601937
vt 1.00000000 0.73879613
vt 0.73879613 1.00000000
vt 0.73879613 0.56722325
vt 0.00000000 1.00000000
vt 0.00000000 0.00000000
vt 1.00000000 0.00000000
vt 1.00000000 1.00000000
vt 0.00000000 1.00000000
vt 0.00000000 0.00000000
vt 1.00000000 0.00000000
vt 1.00000000 1.00000000
vt 1.00000000 0.78033009
vt 0.00000000 1.00000000
vt 0.00000000 0.00000000
vt 1.00000000 0.00000000
vt 1.00000000 1.00000000
vt 0.00000000 1.00000000
vt 0.00000000 0.00000000
vt 1.00000000 0.00000000
vt 1.00000000 1.00000000
vt 1.00000000 0.55177670
vt 0.00000000 1.00000000
vt 0.00000000 0.00000000
vt 1.00000000 0.00000000
vt 1.00000000 1.00000000
vt 0.00000000 1.00000000
vt 0.00000000 0.00000000
vt 1.00000000 0.00000000
vt 1.00000000 1.00000000
vt 0.51429774 0.16666667
vt 0.36192881 0.16666667
vt 0.19526215 0.33333333
vt 0.47140452 0.33333333
vt 0.51429774 0.37622655
vt 0.51429774 1.00000000
vt 0.29289322 1.00000000
vt 0.00000000 0.70710678
vt 0.00000000 0.29289322
vt 0.29289322 0.00000000
vt 0.51429774 0.00000000
vt 0.66666667 0.52859548
vt 0.66666667 0.80473785
vt 0.83333333 0.63807119
vt 0.83333333 0.36192881
vt 0.63807119 0.16666667
vt 0.70710678 0.00000000
vt 1.00000000 0.29289322
vt 1.00000000 0.70710678
vt 0.70710678 1.00000000
vt 1.00000000 0.00000000
vt 1.00000000 1.00000000
vt 0.00000000 1.00000000
vt 0.00000000 0.00000000
vt 0.00000000 0.50000000
vt 0.92857143 0.50000000
vt 0.92857143 0.32247990
vt 0.67752010 0.07142857
vt 0.32247990 0.07142857
vt 0.07142857 0.32247990
vt 0.07142857 0.50000000
vt 0.00000000 0.50000000
vt 0.00000000 0.29289322
vt 0.29289322 0.00000000
vt 0.70710678 0.00000000
vt 1.00000000 0.29289322
vt 1.00000000 0.50000000
vt 0.07142857 0.67752010
vt 0.32247990 0.92857143
vt 0.67752010 0.92857143
vt 0.92857143 0.67752010
vt 1.00000000 0.70710678
vt 0.70710678 1.00000000
vt 0.29289322 1.00000000
vt 0.00000000 0.70710678
vt 1.00000000 0.00000000
vt 1.00000000 1.00000000
vt 0.00000000 1.00000000
vt 0.00000000 0.00000000
vt 1.00000000 0.50000000
vt 0.00000000 0.50000000
vt 0.93750000 0.50000000
vt 0.93750000 0.31878157
vt 0.68121843 0.06250000
vt 0.31878157 0.06250000
vt 0.06250000 0.31878157
vt 0.06250000 0.50000000
vt 0.00000000 0.50000000
vt 0.00000000 0.29289322
vt 0.29289322 0.00000000
vt 0.70710678 0.00000000
vt 1.00000000 0.29289322
vt 1.00000000 0.50000000
vt 0.06250000 0.68121843
vt 0.31878157 0.93750000
vt 0.68121843 0.93750000
vt 0.93750000 0.68121843
vt 1.00000000 0.70710678
vt 0.70710678 1.00000000
vt 0.29289322 1.00000000
vt 0.00000000 0.70710678
vt 1.00000000 0.00000000
vt 1.00000000 1.00000000
vt 0.00000000 1.00000000
vt 0.00000000 0.00000000
vt 0.00000000 0.50000000
vt 1.00000000 0.50000000
vt 0.90000000 0.50000000
vt 0.90000000 0.33431458
vt 0.66568542 0.10000000
vt 0.33431458 0.10000000
vt 0.10000000 0.33431458
vt 0.10000000 0.50000000
vt 0.00000000 0.50000000
vt 0.00000000 0.00000000
vt 1.00000000 0.00000000
vt 1.00000000 0.50000000
vt 0.10000000 0.66568542
vt 0.33431458 0.90000000
vt 0.66568542 0.90000000
vt 0.90000000 0.66568542
vt 1.00000000 1.00000000
vt 0.00000000 1.00000000
vt 1.00000000 0.00000000
vt 1.00000000 1.00000000
vt 0.00000000 1.00000000
vt 0.00000000 0.00000000
vt 0.00000000 0.00000000
vt 1.00000000 0.00000000
vt 1.00000000 1.00000000
vt 0.00000000 1.00000000
vt 1.00000000 0.00000000
vt 1.00000000 1.00000000
vt 0.00000000 1.00000000
vt 0.00000000 0.00000000
vt 1.00000000 0.50000000
vt 1.00000000 0.00000000
vt 1.00000000 1.00000000
vt 0.00000000 1.00000000
vt 0.00000000 0.00000000
vt 1.00000000 0.00000000
vt 1.00000000 1.00000000
vt 0.00000000 1.00000000
vt 0.00000000 0.00000000
vt 1.00000000 0.50000000
vt 1.00000000 0.00000000
vt 1.00000000 1.00000000
vt 0.00000000 1.00000000
vt 0.00000000 0.00000000
vt 1.00000000 0.00000000
vt 1.00000000 1.00000000
vt 0.00000000 1.00000000
vt 0.00000000 0.00000000
vt 1.00000000 0.00000000
vt 1.00000000 1.00000000
vt 0.00000000 1.00000000
vt 0.00000000 0.00000000
vt 1.00000000 0.00000000
vt 1.00000000 1.00000000
vt 0.00000000 1.00000000
vt 0.00000000 0.00000000
vt 0.00000000 0.50000000
vt 1.00000000 0.50000000
vt 1.00000000 0.00000000
vt 1.00000000 1.00000000
vt 0.00000000 1.00000000
vt 0.00000000 0.00000000
vt 1.00000000 0.00000000
vt 1.00000000 1.00000000
vt 0.00000000 1.00000000
vt 0.00000000 0.00000000
vt 1.00000000 0.00000000
vt 1.00000000 1.00000000
vt 0.00000000 1.00000000
vt 0.00000000 0.00000000
vt 1.00000000 0.00000000
vt 1.00000000 1.00000000
vt 0.00000000 1.00000000
vt 0.00000000 0.00000000
vt 1.00000000 0.00000000
vt 1.00000000 1.00000000
vt 0.00000000 1.00000000
vt 0.00000000 0.00000000
vt 1.00000000 0.00000000
vt 1.00000000 1.00000000
vt 0.00000000 1.00000000
vt 0.00000000 0.00000000
vt 1.00000000 0.00000000
vt 1.00000000 1.00000000
vt 0.00000000 1.00000000
vt 0.00000000 0.00000000
vt 1.00000000 0.50000000
vt 0.00000000 0.50000000
vt 1.00000000 0.00000000
vt 1.00000000 1.00000000
vt 0.00000000 1.00000000
vt 0.00000000 0.00000000
vt 1.00000000 0.00000000
vt 1.00000000 1.00000000
vt 0.00000000 1.00000000
vt 0.00000000 0.00000000
vt 1.00000000 0.00000000
vt 1.00000000 1.00000000
vt 0.00000000 1.00000000
vt 0.00000000 0.00000000
vt 1.00000000 0.00000000
vt 1.00000000 1.00000000
vt 0.00000000 1.00000000
vt 0.00000000 0.00000000
vt 1.00000000 0.00000000
vt 1.00000000 1.00000000
vt 0.00000000 1.00000000
vt 0.00000000 0.00000000
vt 1.00000000 0.53451780
vt 1.00000000 0.00000000
vt 1.00000000 1.00000000
vt 0.00000000 1.00000000
vt 0.00000000 0.00000000
vt 1.00000000 0.00000000
vt 1.00000000 1.00000000
vt 0.00000000 1.00000000
vt 0.00000000 0.00000000
vt 0.00000000 0.50000000
vt 1.00000000 0.00000000
vt 1.00000000 1.00000000
vt 0.00000000 1.00000000
vt 0.00000000 0.00000000
vt 1.00000000 0.00000000
vt 1.00000000 1.00000000
vt 0.00000000 1.00000000
vt 0.00000000 0.00000000
vt 1.00000000 0.46548220
vt 1.00000000 0.00000000
vt 1.00000000 1.00000000
vt 0.00000000 1.00000000
vt 0.00000000 0.00000000
vt 0.00000000 1.00000000
vt 0.00000000 0.00000000
vt 1.00000000 0.00000000
vt 1.00000000 1.00000000
vn 0.70710678 0.00000000 0.70710678
vn 0.70710678 0.00000000 0.70710678
vn 0.70710678 0.00000000 0.70710678
vn 0.70710678 0.00000000 0.70710678
vn 0.00000000 1.00000000 0.00000000
vn 0.00000000 1.00000000 0.00000000
vn 0.00000000 1.00000000 0.00000000
vn 0.00000000 1.00000000 0.00000000
vn 0.00000000 1.00000000 0.00000000
vn 0.00000000 1.00000000 0.00000000
vn 0.00000000 1.00000000 0.00000000
vn 0.00000000 1.00000000 0.00000000
vn 1.00000000 0.00000000 0.00000000
vn 1.00000000 0.00000000 0.00000000
vn 1.00000000 0.00000000 0.00000000
vn 1.00000000 0.00000000 0.00000000
vn 0.70710678 0.00000000 -0.70710678
vn 0.70710678 0.00000000 -0.70710678
vn 0.70710678 0.00000000 -0.70710678
vn 0.70710678 0.00000000 -0.70710678
vn 0.70710678 0.00000000 -0.70710678
vn -0.70710678 0.00000000 0.70710678
vn -0.70710678 0.00000000 0.70710678
vn -0.70710678 0.00000000 0.70710678
vn -0.70710678 0.00000000 0.70710678
vn -1.00000000 0.00000000 -0.00000000
vn -1.00000000 0.00000000 -0.00000000
vn -1.00000000 0.00000000 -0.00000000
vn -1.00000000 0.00000000 -0.00000000
vn -1.00000000 0.00000000 -0.00000000
vn -0.70710678 0.00000000 -0.70710678
vn -0.70710678 0.00000000 -0.70710678
vn -0.70710678 0.00000000 -0.70710678
vn -0.70710678 0.00000000 -0.70710678
vn 0.00000000 0.00000000 -1.00000000
vn 0.00000000 0.00000000 -1.00000000
vn 0.00000000 0.00000000 -1.00000000
vn 0.00000000 0.00000000 -1.00000000
vn 0.00000000 1.00000000 0.00000000
vn 0.00000000 1.00000000 0.00000000
vn 0.00000000 1.00000000 0.00000000
vn 0.00000000 1.00000000 0.00000000
vn 0.00000000 1.00000000 0.00000000
vn 0.00000000 1.00000000 0.00000000
vn 0.00000000 1.00000000 0.00000000
vn 0.00000000 1.00000000 0.00000000
vn 0.00000000 1.00000000 0.00000000
vn 0.00000000 1.00000000 0.00000000
vn 0.00000000 1.00000000 0.00000000
vn 0.00000000 1.00000000 0.00000000
vn 0.00000000 1.00000000 0.00000000
vn 0.00000000 1.00000000 0.00000000
vn 0.00000000 1.00000000 0.00000000
vn 0.00000000 1.00000000 0.00000000
vn 0.00000000 1.00000000 0.00000000
vn 0.00000000 1.00000000 0.00000000
vn 0.00000000 1.00000000 0.00000000
vn 0.00000000 1.00000000 0.00000000
vn 0.00000000 0.00000000 -1.00000000
vn 0.00000000 0.00000000 -1.00000000
vn 0.00000000 0.00000000 -1.00000000
vn 0.00000000 0.00000000 -1.00000000
vn 0.00000000 0.00000000 -1.00000000
vn 0.00000000 1.00000000 0.00000000
vn 0.00000000 1.00000000 0.00000000
vn 0.00000000 1.00000000 0.00000000
vn 0.00000000 1.00000000 0.00000000
vn 0.00000000 1.00000000 0.00000000
vn 0.00000000 1.00000000 0.00000000
vn 0.00000000 1.00000000 0.00000000
vn 0.00000000 1.00000000 0.00000000
vn 0.00000000 1.00000000 0.00000000
vn 0.00000000 1.00000000 0.00000000
vn 0.00000000 1.00000000 0.00000000
vn 0.00000000 1.00000000 0.00000000
vn 0.00000000 1.00000000 0.00000000
vn 0.00000000 1.00000000 0.00000000
vn 0.00000000 1.00000000 0.00000000
vn 0.00000000 1.00000000 0.00000000
vn 0.00000000 1.00000000 0.00000000
vn 0.00000000 1.00000000 0.00000000
vn 0.00000000 1.00000000 0.00000000
vn 0.00000000 1.00000000 0.00000000
vn 0.00000000 0.00000000 1.00000000
vn 0.00000000 0.00000000 1.00000000
vn 0.00000000 0.00000000 1.00000000
vn 0.00000000 0.00000000 1.00000000
vn 0.00000000 0.00000000 1.00000000
vn 0.00000000 0.00000000 1.00000000
vn 0.00000000 1.00000000 0.00000000
vn 0.00000000 1.00000000 0.00000000
vn 0.00000000 1.00000000 0.00000000
vn 0.00000000 1.00000000 0.00000000
vn 0.00000000 1.00000000 0.00000000
vn 0.00000000 1.00000000 0.00000000
vn 0.00000000 1.00000000 0.00000000
vn 0.00000000 1.00000000 0.00000000
vn 0.00000000 1.00000000 0.00000000
vn 0.00000000 1.00000000 0.00000000
vn 0.00000000 1.00000000 0.00000000
vn 0.00000000 1.00000000 0.00000000
vn 0.00000000 1.00000000 0.00000000
vn 0.00000000 1.00000000 0.00000000
vn 0.00000000 1.00000000 0.00000000
vn 0.00000000 1.00000000 0.00000000
vn 0.00000000 1.00000000 0.00000000
vn 0.00000000 1.00000000 0.00000000
vn 0.00000000 1.00000000 0.00000000
vn 0.00000000 1.00000000 0.00000000
vn 0.00000000 0.00000000 -1.00000000
vn 0.00000000 0.00000000 -1.00000000
vn 0.00000000 0.00000000 -1.00000000
vn 0.00000000 0.00000000 -1.00000000
vn 0.00000000 0.00000000 -1.00000000
vn 0.00000000 0.00000000 -1.00000000
vn 0.00000000 1.00000000 0.00000000
vn 0.00000000 1.00000000 0.00000000
vn 0.00000000 1.00000000 0.00000000
vn 0.00000000 1.00000000 0.00000000
vn 0.00000000 1.00000000 0.00000000
vn 0.00000000 1.00000000 0.00000000
vn 0.00000000 1.00000000 0.00000000
vn 0.00000000 1.00000000 0.00000000
vn 0.00000000 1.00000000 0.00000000
vn 0.00000000 1.00000000 0.00000000
vn 0.00000000 1.00000000 0.00000000
vn 0.00000000 1.00000000 0.00000000
vn 0.00000000 1.00000000 0.00000000
vn 0.00000000 1.00000000 0.00000000
vn 0.00000000 1.00000000 0.00000000
vn 0.00000000 1.00000000 0.00000000
vn 1.00000000 0.00000000 -0.00000000
vn 1.00000000 0.00000000 -0.00000000
vn 1.00000000 0.00000000 -0.00000000
vn 1.00000000 0.00000000 -0.00000000
vn 0.00000000 -1.00000000 0.00000000
vn 0.00000000 -1.00000000 0.00000000
vn 0.00000000 -1.00000000 0.00000000
vn 0.00000000 -1.00000000 0.00000000
vn -0.00000000 0.00000000 1.00000000
vn -0.00000000 0.00000000 1.00000000
vn -0.00000000 0.00000000 1.00000000
vn -0.00000000 0.00000000 1.00000000
vn -0.00000000 0.00000000 1.00000000
vn -1.00000000 0.00000000 0.00000000
vn -1.00000000 0.00000000 0.00000000
vn -1.00000000 0.00000000 0.00000000
vn -1.00000000 0.00000000 0.00000000
vn 0.00000000 0.00000000 -1.00000000
vn 0.00000000 0.00000000 -1.00000000
vn 0.00000000 0.00000000 -1.00000000
vn 0.00000000 0.00000000 -1.00000000
vn 0.00000000 0.00000000 -1.00000000
vn 0.70710678 0.00000000 -0.70710678
vn 0.70710678 0.00000000 -0.70710678
vn 0.70710678 0.00000000 -0.70710678
vn 0.70710678 0.00000000 -0.70710678
vn 1.00000000 0.00000000 0.00000000
vn 1.00000000 0.00000000 0.00000000
vn 1.00000000 0.00000000 0.00000000
vn 1.00000000 0.00000000 0.00000000
vn 0.70710678 0.00000000 0.70710678
vn 0.70710678 0.00000000 0.70710678
vn 0.70710678 0.00000000 0.70710678
vn 0.70710678 0.00000000 0.70710678
vn 0.00000000 0.00000000 1.00000000
vn 0.00000000 0.00000000 1.00000000
vn 0.00000000 0.00000000 1.00000000
vn 0.00000000 0.00000000 1.00000000
vn 0.00000000 0.00000000 1.00000000
vn 0.00000000 0.00000000 1.00000000
vn -0.70710678 0.00000000 0.70710678
vn -0.70710678 0.00000000 0.70710678
vn -0.70710678 0.00000000 0.70710678
vn -0.70710678 0.00000000 0.70710678
vn -1.00000000 0.00000000 0.00000000
vn -1.00000000 0.00000000 0.00000000
vn -1.00000000 0.00000000 0.00000000
vn -1.00000000 0.00000000 0.00000000
vn -0.70710678 0.00000000 -0.70710678
vn -0.70710678 0.00000000 -0.70710678
vn -0.70710678 0.00000000 -0.70710678
vn -0.70710678 0.00000000 -0.70710678
vn -0.70710678 0.00000000 0.70710678
vn -0.70710678 0.00000000 0.70710678
vn -0.70710678 0.00000000 0.70710678
vn -0.70710678 0.00000000 0.70710678
vn -1.00000000 0.00000000 0.00000000
vn -1.00000000 0.00000000 0.00000000
vn -1.00000000 0.00000000 0.00000000
vn -1.00000000 0.00000000 0.00000000
vn -0.70710678 0.00000000 -0.70710678
vn -0.70710678 0.00000000 -0.70710678
vn -0.70710678 0.00000000 -0.70710678
vn -0.70710678 0.00000000 -0.70710678
vn 0.00000000 0.00000000 -1.00000000
vn 0.00000000 0.00000000 -1.00000000
vn 0.00000000 0.00000000 -1.00000000
vn 0.00000000 0.00000000 -1.00000000
vn 0.00000000 0.00000000 -1.00000000
vn 0.00000000 0.00000000 -1.00000000
vn 0.70710678 0.00000000 -0.70710678
vn 0.70710678 0.00000000 -0.70710678
vn 0.70710678 0.00000000 -0.70710678
vn 0.70710678 0.00000000 -0.70710678
vn 1.00000000 0.00000000 0.00000000
vn 1.00000000 0.00000000 0.00000000
vn 1.00000000 0.00000000 0.00000000
vn 1.00000000 0.00000000 0.00000000
vn 0.70710678 0.00000000 0.70710678
vn 0.70710678 0.00000000 0.70710678
vn 0.70710678 0.00000000 0.70710678
vn 0.70710678 0.00000000 0.70710678
vn 0.70710678 0.00000000 -0.70710678
vn 0.70710678 0.00000000 -0.70710678
vn 0.70710678 0.00000000 -0.70710678
vn 0.70710678 0.00000000 -0.70710678
vn 1.00000000 0.00000000 0.00000000
vn 1.00000000 0.00000000 0.00000000
vn 1.00000000 0.00000000 0.00000000
vn 1.00000000 0.00000000 0.00000000
vn 1.00000000 0.00000000 0.00000000
vn 0.70710678 0.00000000 0.70710678
vn 0.70710678 0.00000000 0.70710678
vn 0.70710678 0.00000000 0.70710678
vn 0.70710678 0.00000000 0.70710678
vn 0.00000000 0.00000000 1.00000000
vn 0.00000000 0.00000000 1.00000000
vn 0.00000000 0.00000000 1.00000000
vn 0.00000000 0.00000000 1.00000000
vn 0.00000000 0.00000000 1.00000000
vn -0.70710678 0.00000000 0.70710678
vn -0.70710678 0.00000000 0.70710678
vn -0.70710678 0.00000000 0.70710678
vn -0.70710678 0.00000000 0.70710678
vn -1.00000000 0.00000000 0.00000000
vn -1.00000000 0.00000000 0.00000000
vn -1.00000000 0.00000000 0.00000000
vn -1.00000000 0.00000000 0.00000000
vn -1.00000000 0.00000000 0.00000000
vn -0.70710678 0.00000000 -0.70710678
vn -0.70710678 0.00000000 -0.70710678
vn -0.70710678 0.00000000 -0.70710678
vn -0.70710678 0.00000000 -0.70710678
vn 0.00000000 0.00000000 1.00000000
vn 0.00000000 0.00000000 1.00000000
vn 0.00000000 0.00000000 1.00000000
vn 0.00000000 0.00000000 1.00000000
s 1
usemtl Blue_Fabric_1
f 1/1/1 2/2/2 4/4/4
f 2/2/2 3/3/3 4/4/4
s 2
usemtl Blue_Fabric_3
f 5/5/5 6/6/6 7/7/7
f 5/5/5 8/8/8 10/12/12
f 9/9/9 2/10/10 10/12/12
f 2/10/10 1/11/11 10/12/12
f 8/8/8 9/9/9 10/12/12
f 5/5/5 7/7/7 8/8/8
s 3
usemtl Blue_Fabric_1
f 6/13/13 5/14/14 12/16/16
f 5/14/14 11/15/15 12/16/16
s 4
f 14/21/21 11/20/20 5/17/17
f 5/17/17 10/18/18 14/21/21
f 10/18/18 13/19/19 14/21/21
s 5
f 9/22/22 8/23/23 16/25/25
f 8/23/23 15/24/24 16/25/25
s 6
f 18/30/30 15/29/29 8/26/26
f 8/26/26 7/27/27 18/30/30
f 7/27/27 17/28/28 18/30/30
s 7
f 7/31/31 6/32/32 17/34/34
f 6/32/32 12/33/33 17/34/34
s 8
f 10/35/35 1/36/36 13/38/38
f 1/36/36 4/37/37 13/38/38
s 9
f 24/49/49 18/39/39 17/40/40
f 23/48/48 17/40/40 12/41/41
f 21/46/46 12/41/41 11/42/42
f 11/42/42 14/43/43 21/46/46
f 14/43/43 4/51/51 19/44/44
f 4/51/51 28/58/58 19/44/44
f 4/51/51 27/57/57 28/58/58
f 3/52/52 26/56/56 27/57/57
f 16/53/53 25/55/55 26/56/56
f 16/53/53 15/54/54 25/55/55
f 3/52/52 16/53/53 26/56/56
f 4/51/51 3/52/52 27/57/57
f 14/43/43 13/50/50 4/51/51
f 14/43/43 19/44/44 21/46/46
f 19/44/44 20/45/45 21/46/46
f 21/46/46 22/47/47 12/41/41
f 22/47/47 23/48/48 12/41/41
f 15/54/54 24/49/49 25/55/55
f 15/54/54 18/39/39 24/49/49
f 23/48/48 24/49/49 17/40/40
s 10
f 31/63/63 29/61/61 27/60/60
f 31/63/63 27/60/60 26/59/59
f 26/59/59 30/62/62 31/63/63
s 11
usemtl Blue_Fabric_3
f 34/68/68 35/69/69 36/70/70
f 48/83/83 36/70/70 42/76/76
f 43/77/77 47/82/82 48/83/83
f 43/77/77 46/81/81 47/82/82
f 44/78/78 45/80/80 46/81/81
f 29/79/79 41/75/75 45/80/80
f 40/74/74 41/75/75 30/65/65
f 39/73/73 40/74/74 32/66/66
f 32/66/66 33/67/67 38/72/72
f 33/67/67 37/71/71 38/72/72
f 32/66/66 38/72/72 39/73/73
f 40/74/74 30/65/65 32/66/66
f 41/75/75 31/64/64 30/65/65
f 29/79/79 31/64/64 41/75/75
f 44/78/78 29/79/79 45/80/80
f 43/77/77 44/78/78 46/81/81
f 48/83/83 42/76/76 43/77/77
f 36/70/70 35/69/69 42/76/76
f 33/67/67 34/68/68 37/71/71
f 34/68/68 36/70/70 37/71/71
s 12
usemtl Blue_Fabric_1
f 51/88/88 50/85/85 45/86/86
f 49/84/84 51/88/88 41/89/89
f 41/89/89 40/87/87 49/84/84
f 51/88/88 45/86/86 41/89/89
s 13
f 54/94/94 55/95/95 56/96/96
f 68/109/109 56/96/96 62/102/102
f 67/108/108 68/109/109 63/103/103
f 63/103/103 64/104/104 66/107/107
f 64/104/104 65/106/106 66/107/107
f 50/105/105 61/101/101 65/106/106
f 60/100/100 61/101/101 49/91/91
f 59/99/99 60/100/100 52/92/92
f 53/93/93 58/98/98 59/99/99
f 53/93/93 57/97/97 58/98/98
f 59/99/99 52/92/92 53/93/93
f 60/100/100 49/91/91 52/92/92
f 61/101/101 51/90/90 49/91/91
f 50/105/105 51/90/90 61/101/101
f 64/104/104 50/105/105 65/106/106
f 63/103/103 66/107/107 67/108/108
f 68/109/109 62/102/102 63/103/103
f 56/96/96 55/95/95 62/102/102
f 53/93/93 54/94/94 57/97/97
f 54/94/94 56/96/96 57/97/97
s 14
f 71/114/114 69/112/112 65/111/111
f 70/113/113 71/114/114 61/115/115
f 61/115/115 60/110/110 70/113/113
f 71/114/114 65/111/111 61/115/115
s 15
usemtl Blue_Fabric_3
f 74/120/120 75/121/121 76/122/122
f 84/131/131 76/122/122 80/126/126
f 82/128/128 83/130/130 84/131/131
f 69/129/129 79/125/125 83/130/130
f 78/124/124 79/125/125 70/117/117
f 72/118/118 77/123/123 78/124/124
f 72/118/118 73/119/119 77/123/123
f 78/124/124 70/117/117 72/118/118
f 79/125/125 71/116/116 70/117/117
f 69/129/129 71/116/116 79/125/125
f 82/128/128 69/129/129 83/130/130
f 84/131/131 81/127/127 82/128/128
f 84/131/131 80/126/126 81/127/127
f 76/122/122 75/121/121 80/126/126
f 73/119/119 74/120/120 77/123/123
f 74/120/120 76/122/122 77/123/123
s 16
usemtl Blue_Fabric_1
f 86/135/135 85/134/134 77/132/132
f 85/134/134 78/133/133 77/132/132
s 17
f 88/139/139 87/138/138 85/137/137
f 88/139/139 85/137/137 86/136/136
s 18
f 76/144/144 84/140/140 88/143/143
f 88/143/143 86/142/142 76/144/144
f 86/142/142 77/141/141 76/144/144
s 19
f 87/148/148 88/147/147 83/145/145
f 88/147/147 84/146/146 83/145/145
s 20
f 79/153/153 78/149/149 85/152/152
f 85/152/152 87/151/151 79/153/153
f 87/151/151 83/150/150 79/153/153
s 21
f 72/157/157 70/156/156 59/154/154
f 70/156/156 60/155/155 59/154/154
s 22
f 73/161/161 72/160/160 58/158/158
f 72/160/160 59/159/159 58/158/158
s 23
f 74/165/165 73/164/164 57/162/162
f 73/164/164 58/163/163 57/162/162
s 24
f 56/171/171 68/166/166 80/169/169
f 75/170/170 57/167/167 56/171/171
f 75/170/170 74/168/168 57/167/167
f 56/171/171 80/169/169 75/170/170
s 25
f 81/175/175 80/174/174 67/172/172
f 80/174/174 68/173/173 67/172/172
s 26
f 82/179/179 81/178/178 66/176/176
f 81/178/178 67/177/177 66/176/176
s 27
f 69/183/183 82/182/182 65/180/180
f 82/182/182 66/181/181 65/180/180
s 28
f 52/184/184 49/185/185 39/187/187
f 49/185/185 40/186/186 39/187/187
s 29
f 53/188/188 52/189/189 38/191/191
f 52/189/189 39/190/190 38/191/191
s 30
f 54/192/192 53/193/193 38/194/194
f 54/192/192 38/194/194 37/195/195
s 31
f 48/199/199 62/196/196 55/200/200
f 36/201/201 55/200/200 54/197/197
f 54/197/197 37/198/198 36/201/201
f 36/201/201 48/199/199 55/200/200
s 32
f 63/202/202 62/203/203 48/204/204
f 63/202/202 48/204/204 47/205/205
s 33
f 64/206/206 63/207/207 46/209/209
f 63/207/207 47/208/208 46/209/209
s 34
f 50/210/210 64/211/211 46/212/212
f 50/210/210 46/212/212 45/213/213
s 35
f 32/217/217 30/216/216 25/214/214
f 30/216/216 26/215/215 25/214/214
s 36
f 32/220/220 25/219/219 24/222/222
f 24/222/222 23/218/218 33/221/221
f 33/221/221 32/220/220 24/222/222
s 37
f 34/226/226 33/225/225 23/224/224
f 34/226/226 23/224/224 22/223/223
s 38
f 21/227/227 42/230/230 35/231/231
f 35/231/231 34/229/229 22/228/228
f 35/231/231 22/228/228 21/227/227
s 39
f 43/235/235 42/234/234 20/232/232
f 42/234/234 21/233/233 20/232/232
s 40
f 19/240/240 28/236/236 44/239/239
f 44/239/239 43/238/238 19/240/240
f 43/238/238 20/237/237 19/240/240
s 41
f 29/244/244 44/243/243 27/241/241
f 44/243/243 28/242/242 27/241/241
s 42
f 2/245/245 9/246/246 3/248/248
f 9/246/246 16/247/247 3/248/248
