mtllib Materials_Modular_Temple.mtl
o object1
g object1
v -0.02250000 0.99999847 0.50420043
v -0.02250000 0.99999937 0.45920039
v 0.02250000 0.99999937 0.45920039
v 0.02250000 0.99999847 0.50420043
v -0.02250000 0.00000000 0.50450000
v -0.02250000 0.00000090 0.45949997
v 0.02250000 0.00000090 0.45949997
v 0.02250000 0.00000000 0.50450000
vt 0.00000000 0.00000000
vt 1.00000000 0.00000000
vt 1.00000000 1.00000000
vt 0.00000000 1.00000000
vt 0.00000000 0.00000000
vt 1.00000000 0.00000000
vt 1.00000000 1.00000000
vt 0.00000000 1.00000000
vt 0.00000000 1.00000000
vt 0.00000000 0.00000000
vt 1.00000000 0.00000000
vt 1.00000000 1.00000000
vt 0.00000000 1.00000000
vt 0.00000000 0.00000000
vt 1.00000000 0.00000000
vt 1.00000000 1.00000000
vt 0.00000000 1.00000000
vt 0.00000000 0.00000000
vt 1.00000000 0.00000000
vt 1.00000000 1.00000000
vt 0.00000000 1.00000000
vt 0.00000000 0.00000000
vt 1.00000000 0.00000000
vt 1.00000000 1.00000000
vn 0.00000000 1.00000000 0.00001994
vn 0.00000000 1.00000000 0.00001994
vn 0.00000000 1.00000000 0.00001994
vn 0.00000000 1.00000000 0.00001994
vn 0.00000000 -1.00000000 -0.00001994
vn 0.00000000 -1.00000000 -0.00001994
vn 0.00000000 -1.00000000 -0.00001994
vn 0.00000000 -1.00000000 -0.00001994
vn -1.00000000 0.00000000 0.00000000
vn -1.00000000 0.00000000 0.00000000
vn -1.00000000 0.00000000 0.00000000
vn -1.00000000 0.00000000 0.00000000
vn 0.00000000 -0.00029957 -0.99999996
vn 0.00000000 -0.00029957 -0.99999996
vn 0.00000000 -0.00029957 -0.99999996
vn 0.00000000 -0.00029957 -0.99999996
vn 1.00000000 0.00000000 0.00000000
vn 1.00000000 0.00000000 0.00000000
vn 1.00000000 0.00000000 0.00000000
vn 1.00000000 0.00000000 0.00000000
vn 0.00000000 0.00029957 0.99999996
vn 0.00000000 0.00029957 0.99999996
vn 0.00000000 0.00029957 0.99999996
vn 0.00000000 0.00029957 0.99999996
s 1
usemtl Sandstone_6
f 4/4/4 3/3/3 1/1/1
f 3/3/3 2/2/2 1/1/1
s 2
f 5/5/5 6/6/6 7/7/7
f 5/5/5 7/7/7 8/8/8
s 3
f 1/9/9 2/10/10 6/11/11
f 1/9/9 6/11/11 5/12/12
s 4
f 7/16/16 6/15/15 3/13/13
f 6/15/15 2/14/14 3/13/13
s 5
f 8/20/20 7/19/19 4/17/17
f 7/19/19 3/18/18 4/17/17
s 6
f 4/21/21 1/22/22 8/24/24
f 1/22/22 5/23/23 8/24/24
