mtllib Materials_Modular_Temple.mtl
o object1
g object1
v -0.31587674 0.02500000 -0.23860291
v -0.31969836 0.00000000 -0.18283199
v -0.29280405 0.00000000 -0.24822844
v -0.24281322 0.10416667 -0.26908377
v -0.20051328 0.10000000 -0.28673058
v -0.20051328 0.00000000 -0.28673058
v -0.16201114 0.10000000 -0.19443982
v -0.14276007 0.00000000 -0.14829444
v -0.14276007 0.05000000 -0.14829444
v -0.22022552 0.06606371 -0.11597717
v -0.18506001 0.10416667 -0.13064762
v -0.23505084 0.00000000 -0.10979229
v -0.29403027 0.00000000 -0.12130481
vt 0.00000000 0.00000000
vt 1.00000000 0.00000000
vt 0.00000000 1.00000000
vt 0.24000000 0.00000000
vt 1.00000000 0.63333333
vt 0.96000000 1.00000000
vt 0.00000000 1.00000000
vt 0.00000000 0.20000000
vt 0.33333333 0.00000000
vt 1.00000000 0.00000000
vt 1.00000000 1.00000000
vt 0.00000000 1.00000000
vt 0.00000000 0.50000000
vt 0.63421159 0.16063707
vt 1.00000000 0.54166667
vt 0.48000000 1.00000000
vt 0.00000000 1.00000000
vt 0.00000000 0.00000000
vt 1.00000000 1.00000000
vt 0.00000000 0.00000000
vt 1.00000000 0.14803510
vt 1.00000000 1.00000000
vt 0.00000000 0.46206897
vt 1.00000000 0.00000000
vt 1.00000000 0.00000000
vt 0.66666667 1.00000000
vt 0.00000000 1.00000000
vt 0.00000000 0.00000000
vt 0.33333333 1.00000000
vt 0.00000000 0.76000000
vt 0.00000000 0.00000000
vt 1.00000000 0.00000000
vt 1.00000000 0.36578841
vt 0.77777778 1.00000000
vt 0.00000000 0.00000000
vt 1.00000000 0.00000000
vt 1.00000000 0.66666667
vt 0.66666667 1.00000000
vt 0.22222222 1.00000000
vt 0.00000000 0.66666667
vn -0.75513319 -0.57735027 -0.31054876
vn -0.75513319 -0.57735027 -0.31054876
vn -0.75513319 -0.57735027 -0.31054876
vn -0.38502141 0.00000000 -0.92290764
vn -0.38502141 0.00000000 -0.92290764
vn -0.38502141 0.00000000 -0.92290764
vn -0.38502141 0.00000000 -0.92290764
vn -0.38502141 0.00000000 -0.92290764
vn 0.92290764 0.00000000 -0.38502141
vn 0.92290764 0.00000000 -0.38502141
vn 0.92290764 0.00000000 -0.38502141
vn 0.92290764 0.00000000 -0.38502141
vn 0.92290764 0.00000000 -0.38502141
vn 0.38502141 0.00000000 0.92290764
vn 0.38502141 0.00000000 0.92290764
vn 0.38502141 0.00000000 0.92290764
vn 0.38502141 0.00000000 0.92290764
vn 0.38502141 0.00000000 0.92290764
vn -0.18986068 0.13366764 0.97266946
vn -0.18986068 0.13366764 0.97266946
vn -0.18986068 0.13366764 0.97266946
vn 0.80071656 0.54258999 0.25386827
vn 0.80071656 0.54258999 0.25386827
vn 0.80071656 0.54258999 0.25386827
vn 0.08355613 0.99589321 -0.03485820
vn 0.08355613 0.99589321 -0.03485820
vn 0.08355613 0.99589321 -0.03485820
vn 0.08355613 0.99589321 -0.03485820
vn -0.65259425 0.70710678 0.27225125
vn -0.65259425 0.70710678 0.27225125
vn -0.65259425 0.70710678 0.27225125
vn -0.65259425 0.70710678 0.27225125
vn -0.65259425 0.70710678 0.27225125
vn -0.65259425 0.70710678 0.27225125
vn 0.00000000 -1.00000000 0.00000000
vn 0.00000000 -1.00000000 0.00000000
vn 0.00000000 -1.00000000 0.00000000
vn 0.00000000 -1.00000000 0.00000000
vn 0.00000000 -1.00000000 0.00000000
vn 0.00000000 -1.00000000 0.00000000
s 1
usemtl Sandstone_4
f 3/3/3 2/2/2 1/1/1
s 2
f 4/5/5 5/6/6 6/7/7
f 6/7/7 3/8/8 1/4/4
f 1/4/4 4/5/5 6/7/7
s 3
f 7/9/9 9/13/13 8/12/12
f 8/12/12 6/11/11 7/9/9
f 6/11/11 5/10/10 7/9/9
s 4
f 9/16/16 11/15/15 10/14/14
f 12/18/18 8/17/17 10/14/14
f 8/17/17 9/16/16 10/14/14
s 5
f 10/19/19 13/20/20 12/21/21
s 6
f 9/22/22 7/23/23 11/24/24
s 7
f 11/25/25 7/26/26 4/28/28
f 7/26/26 5/27/27 4/28/28
s 8
f 1/30/30 2/29/29 13/34/34
f 10/33/33 4/31/31 1/30/30
f 10/33/33 11/32/32 4/31/31
f 1/30/30 13/34/34 10/33/33
s 9
f 12/40/40 13/39/39 2/38/38
f 2/38/38 6/36/36 8/35/35
f 2/38/38 3/37/37 6/36/36
f 8/35/35 12/40/40 2/38/38
o object2
g object2
v 0.32066730 0.20000000 0.18325229
v 0.29289784 0.20000000 0.21431623
v 0.21527537 0.20000000 0.22987624
v 0.16867946 0.20000000 0.18822206
v 0.16622262 0.20000000 0.17596588
v 0.19562063 0.20000000 0.13182681
v 0.25690152 0.20000000 0.11954259
v 0.31329677 0.20000000 0.14648376
v 0.17850684 0.16250000 0.23724677
v 0.13919734 0.00000000 0.04114791
v 0.14902472 0.10000000 0.09017263
v 0.14181613 0.13667605 0.05421197
v 0.14181613 0.15666197 0.05421197
v 0.14227132 0.15781994 0.05648273
v 0.17850684 0.00000000 0.23724677
v 0.14663720 0.15000000 0.03965654
v 0.28627149 0.00000000 0.01166579
v 0.32558098 0.00000000 0.20776465
v 0.29609886 0.10000000 0.06069051
v 0.29108301 0.12551982 0.03566847
v 0.26175913 0.15000000 0.01657948
v 0.23724677 0.15000000 0.02149316
v 0.20494820 0.13583191 0.04241760
v 0.16895678 0.15000000 0.03518241
v 0.29108301 0.16224009 0.03566847
v 0.21168338 0.15762785 0.04217672
v 0.29850462 0.18112005 0.07269185
v 0.32558098 0.15000000 0.20776465
vt 1.00000000 0.75000000
vt 0.77777778 1.00000000
vt 0.25000000 1.00000000
vt 0.00000000 0.50000000
vt 0.00000000 0.37500000
vt 0.25000000 0.00000000
vt 0.66666667 0.00000000
vt 1.00000000 0.37500000
vt 1.00000000 0.36000000
vt 0.00000000 1.00000000
vt 0.00000000 0.00000000
vt 1.00000000 1.00000000
vt 0.50000000 0.75000000
vt 0.31661975 0.93338025
vt 0.21669013 0.93338025
vt 0.21090029 0.92180058
vt 0.00000000 0.31250000
vt 0.00000000 0.25000000
vt 0.18750000 0.00000000
vt 1.00000000 0.00000000
vt 0.00000000 1.00000000
vt 0.00000000 0.00000000
vt 1.00000000 0.66666667
vt 1.00000000 1.00000000
vt 0.00000000 1.00000000
vt 0.00000000 0.00000000
vt 1.00000000 0.00000000
vt 1.00000000 1.00000000
vt 0.00000000 1.00000000
vt 0.00000000 0.00000000
vt 1.00000000 0.00000000
vt 0.05058577 1.00000000
vt 0.00000000 0.73352102
vt 0.00000000 0.00000000
vt 1.00000000 0.00000000
vt 1.00000000 0.51039635
vt 0.83333333 1.00000000
vt 0.66666667 1.00000000
vt 0.42812523 0.71663826
vt 0.20234309 1.00000000
vt 1.00000000 1.00000000
vt 0.00000000 0.66666667
vt 1.00000000 0.00000000
vt 0.18588402 1.00000000
vt 0.00000000 0.00000000
vt 1.00000000 0.51877319
vt 1.00000000 1.00000000
vt 0.00000000 0.69725691
vt 0.83584882 0.00000000
vt 0.00000000 0.00000000
vt 1.00000000 0.72519442
vt 0.00000000 1.00000000
vt 0.83333333 0.00000000
vt 1.00000000 0.24480182
vt 1.00000000 0.62240091
vt 0.66666667 1.00000000
vt 0.25000000 1.00000000
vt 0.00000000 0.15639885
vt 0.00000000 0.13323949
vt 0.05058577 0.00000000
vt 0.20234309 0.00000000
vt 0.47246627 0.15255692
vt 0.66666667 0.00000000
vt 1.00000000 1.00000000
vt 0.00000000 0.46877228
vt 1.00000000 0.00000000
vt 1.00000000 1.00000000
vt 0.50000000 0.75000000
vt 0.37240091 0.87759909
vt 0.18879954 0.87759909
vt 0.09439977 0.68879954
vt 0.00000000 0.31250000
vt 0.00000000 0.12500000
vt 0.25000000 0.00000000
vt 1.00000000 0.00000000
vt 1.00000000 1.00000000
vt 0.00000000 0.80000000
vt 1.00000000 0.00000000
vt 0.77777778 0.00000000
vt 1.00000000 0.25000000
vt 1.00000000 1.00000000
vt 0.00000000 1.00000000
vt 0.00000000 0.18750000
vt 0.25000000 0.00000000
vn 0.00000000 1.00000000 0.00000000
vn 0.00000000 1.00000000 0.00000000
vn 0.00000000 1.00000000 0.00000000
vn 0.00000000 1.00000000 0.00000000
vn 0.00000000 1.00000000 0.00000000
vn 0.00000000 1.00000000 0.00000000
vn 0.00000000 1.00000000 0.00000000
vn 0.00000000 1.00000000 0.00000000
vn -0.52042327 0.62469505 0.58216469
vn -0.52042327 0.62469505 0.58216469
vn -0.52042327 0.62469505 0.58216469
vn -0.98049431 0.00000000 0.19654747
vn -0.98049431 0.00000000 0.19654747
vn -0.98049431 0.00000000 0.19654747
vn -0.98049431 0.00000000 0.19654747
vn -0.98049431 0.00000000 0.19654747
vn -0.98049431 0.00000000 0.19654747
vn -0.98049431 0.00000000 0.19654747
vn -0.98049431 0.00000000 0.19654747
vn -0.98049431 0.00000000 0.19654747
vn -0.94928303 0.00000000 -0.31442286
vn -0.94928303 0.00000000 -0.31442286
vn -0.94928303 0.00000000 -0.31442286
vn 0.00000000 -1.00000000 0.00000000
vn 0.00000000 -1.00000000 0.00000000
vn 0.00000000 -1.00000000 0.00000000
vn 0.00000000 -1.00000000 0.00000000
vn -0.17579740 0.44721360 -0.87698077
vn -0.17579740 0.44721360 -0.87698077
vn -0.17579740 0.44721360 -0.87698077
vn -0.17579740 0.44721360 -0.87698077
vn -0.13898005 -0.70710678 -0.69331418
vn -0.13898005 -0.70710678 -0.69331418
vn -0.13898005 -0.70710678 -0.69331418
vn -0.13898005 -0.70710678 -0.69331418
vn -0.13898005 -0.70710678 -0.69331418
vn -0.13898005 -0.70710678 -0.69331418
vn -0.13898005 -0.70710678 -0.69331418
vn -0.13898005 -0.70710678 -0.69331418
vn -0.13898005 -0.70710678 -0.69331418
vn 0.54556029 0.00000000 -0.83807158
vn 0.54556029 0.00000000 -0.83807158
vn 0.54556029 0.00000000 -0.83807158
vn -0.58783272 0.17291304 -0.79028715
vn -0.58783272 0.17291304 -0.79028715
vn -0.58783272 0.17291304 -0.79028715
vn 0.17235511 -0.06412265 -0.98294557
vn 0.17235511 -0.06412265 -0.98294557
vn 0.17235511 -0.06412265 -0.98294557
vn -0.36592608 0.89816452 -0.24371827
vn -0.36592608 0.89816452 -0.24371827
vn -0.36592608 0.89816452 -0.24371827
vn -0.08789870 0.89442719 -0.43849039
vn -0.08789870 0.89442719 -0.43849039
vn -0.08789870 0.89442719 -0.43849039
vn -0.08789870 0.89442719 -0.43849039
vn -0.08789870 0.89442719 -0.43849039
vn -0.08789870 0.89442719 -0.43849039
vn -0.08789870 0.89442719 -0.43849039
vn -0.08789870 0.89442719 -0.43849039
vn -0.08789870 0.89442719 -0.43849039
vn -0.08789870 0.89442719 -0.43849039
vn -0.08789870 0.89442719 -0.43849039
vn 0.12897834 0.95418634 -0.26998705
vn 0.12897834 0.95418634 -0.26998705
vn 0.12897834 0.95418634 -0.26998705
vn 0.98049431 0.00000000 -0.19654747
vn 0.98049431 0.00000000 -0.19654747
vn 0.98049431 0.00000000 -0.19654747
vn 0.98049431 0.00000000 -0.19654747
vn 0.98049431 0.00000000 -0.19654747
vn 0.98049431 0.00000000 -0.19654747
vn 0.98049431 0.00000000 -0.19654747
vn 0.98049431 0.00000000 -0.19654747
vn 0.98049431 0.00000000 -0.19654747
vn 0.69221146 0.37139068 0.61879904
vn 0.69221146 0.37139068 0.61879904
vn 0.69221146 0.37139068 0.61879904
vn 0.19654747 0.00000000 0.98049431
vn 0.19654747 0.00000000 0.98049431
vn 0.19654747 0.00000000 0.98049431
vn 0.19654747 0.00000000 0.98049431
vn 0.19654747 0.00000000 0.98049431
vn 0.19654747 0.00000000 0.98049431
s 1
usemtl Sandstone_4
f 15/42/42 14/41/41 21/48/48
f 17/44/44 15/42/42 20/47/47
f 20/47/47 19/46/46 18/45/45
f 20/47/47 18/45/45 17/44/44
f 17/44/44 16/43/43 15/42/42
f 15/42/42 21/48/48 20/47/47
s 2
f 16/49/49 17/50/50 22/51/51
s 3
f 26/55/55 25/54/54 24/53/53
f 24/53/53 28/60/60 17/58/58
f 28/60/60 22/59/59 17/58/58
f 24/53/53 23/52/52 28/60/60
f 17/58/58 18/57/57 26/55/55
f 18/57/57 27/56/56 26/55/55
f 26/55/55 24/53/53 17/58/58
s 4
f 29/63/63 25/62/62 26/61/61
s 5
f 31/67/67 28/66/66 30/64/64
f 28/66/66 23/65/65 30/64/64
s 6
f 30/71/71 23/70/70 32/68/68
f 23/70/70 24/69/69 32/68/68
s 7
f 25/73/73 29/72/72 37/80/80
f 24/74/74 25/73/73 36/79/79
f 36/79/79 35/78/78 32/75/75
f 35/78/78 33/76/76 32/75/75
f 35/78/78 34/77/77 33/76/76
f 36/79/79 32/75/75 24/74/74
f 25/73/73 37/80/80 36/79/79
s 8
f 33/83/83 34/82/82 38/81/81
s 9
f 35/86/86 36/85/85 39/84/84
s 10
f 36/89/89 37/88/88 39/87/87
s 11
f 18/92/92 19/91/91 27/90/90
s 12
f 37/101/101 29/100/100 26/99/99
f 39/102/102 26/99/99 27/98/98
f 27/98/98 19/97/97 39/102/102
f 19/97/97 20/96/96 40/95/95
f 40/95/95 38/94/94 34/93/93
f 19/97/97 40/95/95 39/102/102
f 40/95/95 34/93/93 39/102/102
f 34/93/93 35/103/103 39/102/102
f 39/102/102 37/101/101 26/99/99
s 13
f 40/104/104 20/105/105 21/106/106
s 14
f 32/108/108 33/109/109 38/110/110
f 30/107/107 32/108/108 31/115/115
f 32/108/108 41/114/114 31/115/115
f 21/112/112 14/113/113 41/114/114
f 32/108/108 21/112/112 41/114/114
f 32/108/108 40/111/111 21/112/112
f 32/108/108 38/110/110 40/111/111
s 15
f 14/116/116 15/117/117 41/118/118
s 16
f 15/119/119 16/124/124 22/123/123
f 22/123/123 28/122/122 41/120/120
f 28/122/122 31/121/121 41/120/120
f 41/120/120 15/119/119 22/123/123
o object3
g object3
v -0.00472251 0.00000000 -0.18922526
v -0.04718630 0.00000000 -0.12546883
v 0.01166579 0.00000000 -0.08627149
v 0.09988785 0.00000000 -0.15495095
v 0.09006047 0.00000000 -0.20397567
v 0.03120838 0.00000000 -0.24317301
v -0.01781633 0.00000000 -0.23334563
v 0.01166579 0.10000000 -0.08627149
v 0.06576912 0.10000000 -0.12839007
v 0.06979260 0.12500000 -0.13152228
v 0.08685196 0.15000000 -0.14480272
v 0.09988785 0.15000000 -0.15495095
v -0.00472251 0.10000000 -0.18922526
v -0.04718630 0.05000000 -0.12546883
v 0.05705263 0.15000000 -0.14912157
v -0.00999234 0.15000000 -0.20698224
v 0.08473731 0.15000000 -0.23053072
v 0.06623619 0.15000000 -0.25019460
v 0.01915567 0.15000000 -0.24075695
v 0.08023310 0.12708333 -0.25300038
v -0.01781633 0.10000000 -0.23334563
v 0.08023310 0.05000000 -0.25300038
vt 0.36111111 0.69444444
vt 0.00000000 0.33333333
vt 0.33333333 0.00000000
vt 1.00000000 0.33333333
vt 1.00000000 0.66666667
vt 0.66666667 1.00000000
vt 0.33333333 1.00000000
vt 0.00000000 1.00000000
vt 0.00000000 0.00000000
vt 0.66666667 0.00000000
vt 0.66666667 0.61326310
vt 0.83333333 0.65886936
vt 1.00000000 0.85223781
vt 1.00000000 1.00000000
vt 1.00000000 0.70563371
vt 0.00000000 1.00000000
vt 0.06794256 0.00000000
vt 0.92307692 1.00000000
vt 0.00000000 0.50153846
vt 1.00000000 0.00000000
vt 0.79997889 1.00000000
vt 0.00000000 1.00000000
vt 0.00000000 0.00000000
vt 1.00000000 0.00000000
vt 1.00000000 0.50000000
vt 1.00000000 0.82458937
vt 0.00000000 1.00000000
vt 0.31838647 0.00000000
vt 1.00000000 0.78659959
vt 0.85360147 1.00000000
vt 0.36117004 1.00000000
vt 0.00000000 0.74497231
vt 0.55752931 0.09397307
vt 0.84846501 0.00000000
vt 1.00000000 0.06879821
vt 1.00000000 0.00000000
vt 1.00000000 1.00000000
vt 0.00000000 0.50000000
vt 1.00000000 0.24312812
vt 0.00000000 1.00000000
vt 0.06602721 0.00000000
vt 0.33333333 1.00000000
vt 0.00000000 0.50000000
vt 0.00000000 0.00000000
vt 1.00000000 0.00000000
vt 1.00000000 0.77083333
vt 0.84722222 1.00000000
vt 0.00000000 0.50000000
vt 1.00000000 0.00000000
vt 1.00000000 1.00000000
vt 0.66666667 1.00000000
vt 0.00000000 1.00000000
vt 0.00000000 0.50000000
vt 0.33333333 0.00000000
vt 0.84722222 0.00000000
vt 1.00000000 0.14275362
vt 1.00000000 0.62292487
vt 0.33333333 0.00000000
vt 1.00000000 0.00000000
vt 1.00000000 1.00000000
vt 0.33333333 1.00000000
vt 0.00000000 0.40246674
vt 0.00000000 1.00000000
vt 0.50000000 0.00000000
vt 1.00000000 0.00000000
vt 1.00000000 1.00000000
vt 0.50000000 0.00000000
vt 1.00000000 1.00000000
vt 0.00000000 1.00000000
vt 0.00000000 0.00000000
vn 0.00000000 -1.00000000 0.00000000
vn 0.00000000 -1.00000000 0.00000000
vn 0.00000000 -1.00000000 0.00000000
vn 0.00000000 -1.00000000 0.00000000
vn 0.00000000 -1.00000000 0.00000000
vn 0.00000000 -1.00000000 0.00000000
vn 0.00000000 -1.00000000 0.00000000
vn 0.61428779 0.00000000 0.78908207
vn 0.61428779 0.00000000 0.78908207
vn 0.61428779 0.00000000 0.78908207
vn 0.61428779 0.00000000 0.78908207
vn 0.61428779 0.00000000 0.78908207
vn 0.61428779 0.00000000 0.78908207
vn 0.61428779 0.00000000 0.78908207
vn 0.00000000 1.00000000 -0.00000000
vn 0.00000000 1.00000000 -0.00000000
vn 0.00000000 1.00000000 -0.00000000
vn -0.68477518 0.72055619 0.10900332
vn -0.68477518 0.72055619 0.10900332
vn -0.68477518 0.72055619 0.10900332
vn -0.64066188 0.19611614 0.74235491
vn -0.64066188 0.19611614 0.74235491
vn -0.64066188 0.19611614 0.74235491
vn -0.64066188 0.19611614 0.74235491
vn -0.64066188 0.19611614 0.74235491
vn -0.12170702 0.52914416 0.83975822
vn -0.12170702 0.52914416 0.83975822
vn -0.12170702 0.52914416 0.83975822
vn 0.00000000 1.00000000 0.00000000
vn 0.00000000 1.00000000 0.00000000
vn 0.00000000 1.00000000 0.00000000
vn 0.00000000 1.00000000 0.00000000
vn 0.00000000 1.00000000 0.00000000
vn 0.00000000 1.00000000 0.00000000
vn 0.00000000 1.00000000 0.00000000
vn 0.64385418 0.46741811 -0.60578222
vn 0.64385418 0.46741811 -0.60578222
vn 0.64385418 0.46741811 -0.60578222
vn -0.68700595 0.42011705 -0.59289501
vn -0.68700595 0.42011705 -0.59289501
vn -0.68700595 0.42011705 -0.59289501
vn 0.98049431 0.00000000 -0.19654747
vn 0.98049431 0.00000000 -0.19654747
vn 0.98049431 0.00000000 -0.19654747
vn 0.98049431 0.00000000 -0.19654747
vn 0.98049431 0.00000000 -0.19654747
vn 0.98049431 0.00000000 -0.19654747
vn 0.45261192 -0.57735027 -0.67956539
vn 0.45261192 -0.57735027 -0.67956539
vn 0.45261192 -0.57735027 -0.67956539
vn -0.19654747 0.00000000 -0.98049431
vn -0.19654747 0.00000000 -0.98049431
vn -0.19654747 0.00000000 -0.98049431
vn -0.19654747 0.00000000 -0.98049431
vn -0.19654747 0.00000000 -0.98049431
vn -0.19654747 0.00000000 -0.98049431
vn -0.19654747 0.00000000 -0.98049431
vn -0.95867305 0.00000000 0.28451008
vn -0.95867305 0.00000000 0.28451008
vn -0.95867305 0.00000000 0.28451008
vn -0.95867305 0.00000000 0.28451008
vn -0.95867305 0.00000000 0.28451008
vn -0.83229423 0.00000000 -0.55433412
vn -0.83229423 0.00000000 -0.55433412
vn -0.83229423 0.00000000 -0.55433412
vn -0.83229423 0.00000000 -0.55433412
vn -0.55433412 0.00000000 0.83229423
vn -0.55433412 0.00000000 0.83229423
vn -0.55433412 0.00000000 0.83229423
vn -0.55433412 0.00000000 0.83229423
s 1
usemtl Sandstone_4
f 42/125/125 48/131/131 47/130/130
f 45/128/128 44/127/127 42/125/125
f 42/125/125 46/129/129 45/128/128
f 44/127/127 43/126/126 42/125/125
f 42/125/125 47/130/130 46/129/129
s 2
f 53/138/138 52/137/137 51/136/136
f 45/132/132 53/138/138 50/135/135
f 50/135/135 49/134/134 44/133/133
f 50/135/135 44/133/133 45/132/132
f 53/138/138 51/136/136 50/135/135
s 3
f 54/141/141 49/140/140 50/139/139
s 4
f 54/144/144 55/143/143 49/142/142
s 5
f 50/148/148 51/149/149 56/145/145
f 56/145/145 57/146/146 54/147/147
f 56/145/145 54/147/147 50/148/148
s 6
f 52/150/150 56/151/151 51/152/152
s 7
f 56/157/157 52/158/158 53/159/159
f 58/153/153 57/156/156 56/157/157
f 58/153/153 60/155/155 57/156/156
f 58/153/153 59/154/154 60/155/155
f 56/157/157 53/159/159 58/153/153
s 8
f 59/162/162 58/161/161 61/160/160
s 9
f 60/163/163 62/164/164 57/165/165
s 10
f 63/166/166 61/171/171 58/170/170
f 53/169/169 45/168/168 63/166/166
f 63/166/166 58/170/170 53/169/169
f 45/168/168 46/167/167 63/166/166
s 11
f 47/172/172 63/173/173 46/174/174
s 12
f 60/181/181 59/180/180 61/179/179
f 62/175/175 61/179/179 63/178/178
f 63/178/178 47/177/177 48/176/176
f 63/178/178 48/176/176 62/175/175
f 62/175/175 60/181/181 61/179/179
s 13
f 54/182/182 57/186/186 62/185/185
f 62/185/185 48/184/184 54/182/182
f 48/184/184 42/183/183 54/182/182
s 14
f 42/190/190 43/189/189 55/188/188
f 42/190/190 55/188/188 54/187/187
s 15
f 43/194/194 44/193/193 55/191/191
f 44/193/193 49/192/192 55/191/191
