mtllib Materials_Modular_Temple.mtl
o object1
g object1
v 0.06746043 0.10000000 -0.02857194
v 0.06746043 0.15000000 -0.02857194
v 0.00872209 0.15000000 -0.07913440
v 0.00872209 0.10000000 -0.07913440
v 0.06203717 0.10000000 -0.00416726
v 0.06203717 0.15000000 -0.00416726
v 0.01865108 0.08104022 -0.03941846
v 0.01865108 0.00000000 -0.03941846
v 0.10542326 0.00000000 0.03108393
v 0.10542326 0.15000000 0.03108393
v 0.03510290 0.10000000 -0.02605136
v 0.01857483 0.08071009 -0.03972346
v 0.03531311 0.10000000 -0.02612361
v 0.01474425 0.10000000 -0.05504579
v 0.15423261 0.13194444 0.04193046
v 0.15423261 0.02500000 0.04193046
v 0.12982794 0.00000000 0.03650720
v 0.12250653 0.15000000 0.03488022
v 0.16304541 0.15000000 0.00227286
v 0.19761871 0.12500000 -0.15330695
v 0.19761871 0.02500000 -0.15330695
v 0.18677218 0.00000000 -0.10449760
v 0.15965588 0.00000000 0.01752578
v 0.19219544 0.15000000 -0.12890228
v 0.14880935 0.15000000 -0.16415348
v 0.14880935 0.00000000 -0.16415348
v 0.05119065 0.00000000 -0.18584652
v 0.05119065 0.15000000 -0.18584652
v -0.00846523 0.02500000 -0.14788369
v 0.02136271 0.15000000 -0.16686511
v -0.00846523 0.00000000 -0.14788369
v -0.00120689 0.15000000 -0.11885033
vt 1.00000000 1.00000000
vt 0.00000000 1.00000000
vt 0.00000000 0.00000000
vt 1.00000000 0.00000000
vt 1.00000000 1.00000000
vt 0.00000000 1.00000000
vt 0.00000000 0.00000000
vt 1.00000000 0.00000000
vt 0.45973188 0.00000000
vt 1.00000000 0.00000000
vt 1.00000000 1.00000000
vt 0.00000000 1.00000000
vt 0.00000000 0.50000000
vt 0.33333333 0.50000000
vt 0.33333333 0.18959782
vt 1.00000000 0.00302914
vt 1.00000000 0.98591509
vt 0.00000000 1.00000000
vt 0.00000000 0.00000000
vt 1.00000000 0.00000000
vt 1.00000000 1.00000000
vt 0.00000000 0.41438415
vt 0.87962963 1.00000000
vt 0.16666667 1.00000000
vt 0.00000000 0.50000000
vt 0.00000000 0.00000000
vt 1.00000000 0.00000000
vt 1.00000000 0.35000000
vt 1.00000000 0.50000000
vt 0.00000000 1.00000000
vt 0.00000000 0.00000000
vt 0.00000000 0.83333333
vt 0.00000000 0.16666667
vt 0.25000000 0.00000000
vt 0.87500000 0.00000000
vt 1.00000000 0.16666667
vt 1.00000000 0.87962963
vt 0.79687500 1.00000000
vt 0.12500000 1.00000000
vt 0.00000000 1.00000000
vt 0.00000000 0.00000000
vt 1.00000000 0.50000000
vt 0.83333333 1.00000000
vt 0.16666667 1.00000000
vt 0.00000000 0.66666667
vt 0.00000000 0.00000000
vt 1.00000000 0.00000000
vt 1.00000000 0.66666667
vt 0.83333333 1.00000000
vt 0.00000000 0.50000000
vt 0.00000000 0.00000000
vt 1.00000000 0.00000000
vt 1.00000000 1.00000000
vt 1.00000000 0.00000000
vt 1.00000000 1.00000000
vt 0.00000000 0.56294936
vt 0.00000000 1.00000000
vt 0.00000000 0.00000000
vt 1.00000000 0.50000000
vt 0.00000000 1.00000000
vt 0.00000000 0.00000000
vt 1.00000000 0.50000000
vt 0.00000000 0.75000000
vt 0.00000000 0.25000000
vt 0.25000000 0.00000000
vt 0.75000000 0.25000000
vt 1.00000000 0.75000000
vt 1.00000000 0.87500000
vt 0.87500000 1.00000000
vt 0.25000000 1.00000000
vt 0.36043390 0.83743814
vt 0.00000000 1.00000000
vt 0.59426309 0.00000000
vt 1.00000000 0.00000000
vt 0.74811675 0.45441462
vt 0.74623211 0.45163993
vt 0.00000000 0.26767437
vt 0.83333333 0.00000000
vt 1.00000000 0.00000000
vt 1.00000000 1.00000000
vt 0.45973188 1.00000000
vt 0.46193274 0.99718811
vt 0.33333333 0.85592315
vt 0.33333333 0.63383718
vt 0.00000000 0.63383718
vt 0.12500000 1.00000000
vt 0.00000000 0.73207054
vt 0.00000000 0.19621161
vt 0.12500000 0.06224688
vt 0.38383718 0.00000000
vt 0.56691859 0.09810581
vt 0.75000000 0.46414108
vt 0.87500000 0.46414108
vt 1.00000000 0.73207054
vt 1.00000000 0.82584585
vt 0.79687500 1.00000000
vn -0.65239141 0.00000000 0.75788221
vn -0.65239141 0.00000000 0.75788221
vn -0.65239141 0.00000000 0.75788221
vn -0.65239141 0.00000000 0.75788221
vn -0.97618706 0.00000000 -0.21693046
vn -0.97618706 0.00000000 -0.21693046
vn -0.97618706 0.00000000 -0.21693046
vn -0.97618706 0.00000000 -0.21693046
vn -0.63059263 0.00000000 0.77611400
vn -0.63059263 0.00000000 0.77611400
vn -0.63059263 0.00000000 0.77611400
vn -0.63059263 0.00000000 0.77611400
vn -0.63059263 0.00000000 0.77611400
vn -0.63059263 0.00000000 0.77611400
vn -0.63059263 0.00000000 0.77611400
vn -0.23577911 0.68827983 -0.68606056
vn -0.23577911 0.68827983 -0.68606056
vn -0.23577911 0.68827983 -0.68606056
vn -0.23577911 0.68827983 -0.68606056
vn -0.78087623 0.28605320 0.55534303
vn -0.78087623 0.28605320 0.55534303
vn -0.78087623 0.28605320 0.55534303
vn -0.21693046 0.00000000 0.97618706
vn -0.21693046 0.00000000 0.97618706
vn -0.21693046 0.00000000 0.97618706
vn -0.21693046 0.00000000 0.97618706
vn -0.21693046 0.00000000 0.97618706
vn -0.21693046 0.00000000 0.97618706
vn 0.36333928 0.81482171 0.45171910
vn 0.36333928 0.81482171 0.45171910
vn 0.36333928 0.81482171 0.45171910
vn 0.97618706 0.00000000 0.21693046
vn 0.97618706 0.00000000 0.21693046
vn 0.97618706 0.00000000 0.21693046
vn 0.97618706 0.00000000 0.21693046
vn 0.97618706 0.00000000 0.21693046
vn 0.97618706 0.00000000 0.21693046
vn 0.97618706 0.00000000 0.21693046
vn 0.97618706 0.00000000 0.21693046
vn 0.47001599 0.66666667 -0.57848122
vn 0.47001599 0.66666667 -0.57848122
vn 0.47001599 0.66666667 -0.57848122
vn 0.21693046 0.00000000 -0.97618706
vn 0.21693046 0.00000000 -0.97618706
vn 0.21693046 0.00000000 -0.97618706
vn 0.21693046 0.00000000 -0.97618706
vn 0.21693046 0.00000000 -0.97618706
vn 0.21693046 0.00000000 -0.97618706
vn -0.53687549 0.00000000 -0.84366149
vn -0.53687549 0.00000000 -0.84366149
vn -0.53687549 0.00000000 -0.84366149
vn -0.53687549 0.00000000 -0.84366149
vn -0.53687549 0.00000000 -0.84366149
vn -0.89481282 0.14965297 -0.42061146
vn -0.89481282 0.14965297 -0.42061146
vn -0.89481282 0.14965297 -0.42061146
vn 0.48708819 -0.81649658 -0.30996521
vn 0.48708819 -0.81649658 -0.30996521
vn 0.48708819 -0.81649658 -0.30996521
vn 0.43835700 -0.57735027 0.68884672
vn 0.43835700 -0.57735027 0.68884672
vn 0.43835700 -0.57735027 0.68884672
vn 0.00000000 -1.00000000 0.00000000
vn 0.00000000 -1.00000000 0.00000000
vn 0.00000000 -1.00000000 0.00000000
vn 0.00000000 -1.00000000 0.00000000
vn 0.00000000 -1.00000000 0.00000000
vn 0.00000000 -1.00000000 0.00000000
vn 0.00000000 -1.00000000 0.00000000
vn 0.00000000 -1.00000000 0.00000000
vn 0.00000000 1.00000000 -0.00000000
vn 0.00000000 1.00000000 -0.00000000
vn 0.00000000 1.00000000 -0.00000000
vn 0.00000000 1.00000000 -0.00000000
vn 0.00000000 1.00000000 -0.00000000
vn 0.00000000 1.00000000 -0.00000000
vn -0.97014250 0.00000000 0.24253563
vn -0.97014250 0.00000000 0.24253563
vn -0.97014250 0.00000000 0.24253563
vn -0.97014250 0.00000000 0.24253563
vn -0.97014250 0.00000000 0.24253563
vn -0.97014250 0.00000000 0.24253563
vn -0.97014250 0.00000000 0.24253563
vn -0.97014250 0.00000000 0.24253563
vn -0.97014250 0.00000000 0.24253563
vn 0.00000000 1.00000000 0.00000000
vn 0.00000000 1.00000000 0.00000000
vn 0.00000000 1.00000000 0.00000000
vn 0.00000000 1.00000000 0.00000000
vn 0.00000000 1.00000000 0.00000000
vn 0.00000000 1.00000000 0.00000000
vn 0.00000000 1.00000000 0.00000000
vn 0.00000000 1.00000000 0.00000000
vn 0.00000000 1.00000000 0.00000000
vn 0.00000000 1.00000000 0.00000000
vn 0.00000000 1.00000000 0.00000000
s 1
usemtl Sandstone_4
f 1/1/1 2/2/2 4/4/4
f 2/2/2 3/3/3 4/4/4
s 2
f 5/5/5 6/6/6 1/8/8
f 6/6/6 2/7/7 1/8/8
s 3
f 5/14/14 11/15/15 7/9/9
f 8/10/10 9/11/11 5/14/14
f 9/11/11 10/12/12 5/14/14
f 5/14/14 7/9/9 8/10/10
f 10/12/12 6/13/13 5/14/14
s 4
f 13/19/19 12/18/18 7/17/17
f 13/19/19 7/17/17 11/16/16
s 5
f 12/22/22 13/21/21 14/20/20
s 6
f 9/26/26 17/25/25 16/24/24
f 16/24/24 15/23/23 18/28/28
f 18/28/28 10/27/27 9/26/26
f 9/26/26 16/24/24 18/28/28
s 7
f 19/31/31 18/30/30 15/29/29
s 8
f 21/33/33 20/32/32 24/39/39
f 24/39/39 19/38/38 22/34/34
f 19/38/38 23/35/35 22/34/34
f 15/37/37 16/36/36 23/35/35
f 19/38/38 15/37/37 23/35/35
f 22/34/34 21/33/33 24/39/39
s 9
f 25/40/40 24/41/41 20/42/42
s 10
f 25/48/48 20/43/43 21/44/44
f 27/46/46 28/47/47 25/48/48
f 25/48/48 26/45/45 27/46/46
f 25/48/48 21/44/44 26/45/45
s 11
f 27/52/52 31/53/53 29/49/49
f 29/49/49 30/50/50 28/51/51
f 29/49/49 28/51/51 27/52/52
s 12
f 29/56/56 32/55/55 30/54/54
s 13
f 21/59/59 22/58/58 26/57/57
s 14
f 17/60/60 23/61/61 16/62/62
s 15
f 23/69/69 17/68/68 9/67/67
f 23/69/69 8/66/66 26/63/63
f 31/65/65 27/64/64 26/63/63
f 8/66/66 31/65/65 26/63/63
f 26/63/63 22/70/70 23/69/69
f 23/69/69 9/67/67 8/66/66
s 16
f 11/75/75 5/74/74 1/73/73
f 1/73/73 14/71/71 13/76/76
f 1/73/73 4/72/72 14/71/71
f 13/76/76 11/75/75 1/73/73
s 17
f 12/82/82 14/83/83 4/84/84
f 4/84/84 32/77/77 29/78/78
f 29/78/78 31/79/79 8/80/80
f 4/84/84 3/85/85 32/77/77
f 8/80/80 7/81/81 12/82/82
f 12/82/82 29/78/78 8/80/80
f 12/82/82 4/84/84 29/78/78
s 18
f 10/94/94 18/95/95 19/96/96
f 25/87/87 32/90/90 19/96/96
f 32/90/90 3/91/91 2/92/92
f 28/88/88 30/89/89 32/90/90
f 25/87/87 28/88/88 32/90/90
f 32/90/90 2/92/92 19/96/96
f 19/96/96 24/86/86 25/87/87
f 2/92/92 10/94/94 19/96/96
f 2/92/92 6/93/93 10/94/94
o object2
g object2
v 0.00934136 0.13904022 0.09672466
v -0.01010408 0.15000000 0.11617009
v 0.00227029 0.15000000 0.08611806
v -0.01187184 0.13621223 0.06490485
v -0.01187184 0.15000000 0.06490485
v 0.00934136 0.13621223 0.09672466
v -0.03838835 0.15000000 0.07374369
v -0.03838835 0.00000000 0.07374369
v 0.02835372 0.00000000 0.05149633
v 0.05913595 0.02415964 0.04123559
v 0.02385111 0.12396024 0.05299720
v -0.14445436 0.00000000 0.03838835
v -0.14445436 0.00000000 -0.03232233
v -0.17980970 0.00000000 0.00303301
v -0.17980970 0.00000000 0.07374369
v -0.09142136 0.00000000 0.16213203
v -0.05606602 -0.00000000 0.16213203
v 0.03232233 0.00000000 0.07374369
v -0.21516504 0.02500000 0.03838835
v -0.21516504 0.12500000 0.03838835
v -0.19748737 0.15000000 0.02071068
v -0.17677670 0.15000000 0.00000000
v -0.17677670 0.10000000 0.00000000
v -0.14445436 0.10000000 -0.03232233
v -0.14445436 0.10000000 0.00000000
v -0.16061553 0.15000000 0.00000000
v -0.14445436 0.12500000 0.00000000
v -0.14445436 0.15000000 0.02623715
v -0.19748737 0.15000000 0.05606602
v -0.07374369 0.02500000 0.17980970
v -0.07374369 0.12500000 0.17980970
v -0.10026019 0.15000000 0.15329320
v -0.05253048 0.15000000 0.15859650
v -0.14445436 0.15000000 0.03838835
v 0.06164442 0.02559690 0.04442160
v 0.03882195 0.12242446 0.06724407
vt 0.64705882 1.00000000
vt 0.00000000 0.00000000
vt 1.00000000 0.41321530
vt 0.00000000 0.00000000
vt 1.00000000 0.00000000
vt 1.00000000 0.66666667
vt 0.20510867 1.00000000
vt 0.00000000 1.00000000
vt 0.00000000 0.27189639
vt 0.00000000 0.00000000
vt 1.00000000 0.00000000
vt 1.00000000 0.68436350
vt 0.83893575 1.00000000
vt 0.17359843 0.63819436
vt 0.09191848 0.27189639
vt 0.75000000 0.61377925
vt 0.25000000 0.30688963
vt 0.00000000 0.61377925
vt 0.00000000 0.30688963
vt 0.25000000 0.00000000
vt 0.87500000 0.00000000
vt 1.00000000 0.15344481
vt 1.00000000 0.92066888
vt 0.90731256 1.00000000
vt 0.00000000 0.50000000
vt 0.16666667 0.00000000
vt 0.83333333 0.00000000
vt 1.00000000 0.25000000
vt 1.00000000 0.54289322
vt 0.66666667 0.54289322
vt 0.66666667 1.00000000
vt 0.00000000 1.00000000
vt 0.00000000 1.00000000
vt 0.00000000 0.00000000
vt 1.00000000 1.00000000
vt 0.00000000 0.50000000
vt 0.50000000 0.00000000
vt 1.00000000 0.00000000
vt 1.00000000 1.00000000
vt 0.00000000 1.00000000
vt 1.00000000 0.00000000
vt 1.00000000 1.00000000
vt 0.00000000 0.70527173
vt 0.00000000 1.00000000
vt 0.00000000 0.00000000
vt 1.00000000 0.50000000
vt 0.00000000 1.00000000
vt 0.00000000 0.00000000
vt 1.00000000 0.50000000
vt 0.00000000 0.83333333
vt 0.00000000 0.16666667
vt 0.25000000 0.00000000
vt 0.87500000 0.00000000
vt 1.00000000 0.16666667
vt 1.00000000 0.83333333
vt 0.81250000 1.00000000
vt 0.12500000 1.00000000
vt 0.00000000 1.00000000
vt 0.00000000 0.00000000
vt 1.00000000 0.50000000
vt 0.00000000 1.00000000
vt 0.00000000 0.00000000
vt 1.00000000 0.50000000
vt 0.33333333 0.45710678
vt 0.33333333 0.00000000
vt 1.00000000 0.00000000
vt 1.00000000 1.00000000
vt 0.00000000 1.00000000
vt 0.00000000 0.82815605
vt 0.16666667 0.45710678
vt 1.00000000 0.00000000
vt 0.11231324 1.00000000
vt 0.00000000 0.96251089
vt 0.25347047 0.08591002
vt 0.19489829 0.00000000
vt 1.00000000 1.00000000
vt 0.00000000 0.98461151
vt 0.00000000 0.01440138
vt 1.00000000 1.00000000
vt 0.00000000 1.00000000
vt 0.00000000 0.00000000
vt 1.00000000 0.00000000
vt 1.00000000 0.21380435
vt 0.88861289 0.74092368
vt 0.00000000 1.00000000
vt 0.00000000 0.00000000
vt 0.16666667 0.00000000
vt 0.83333333 0.00000000
vt 1.00000000 0.15668439
vt 1.00000000 0.47005318
vt 0.92693480 0.61368054
vt 0.90808152 0.61368054
vt 0.81616303 0.83142927
vt 0.17064602 1.00000000
vt 0.00000000 0.78342196
vt 0.00000000 0.13057033
vt 1.00000000 0.72000000
vt 0.93750000 0.96000000
vt 0.81250000 1.00000000
vt 0.75000000 0.80000000
vt 0.25000000 0.40000000
vt 0.20703901 0.46873758
vt 0.05713835 0.52573593
vt 0.00000000 0.43431458
vt 0.00000000 0.20000000
vt 0.12500000 0.00000000
vt 0.81250000 0.00000000
vt 1.00000000 0.24000000
vn 0.66536444 0.69442684 0.27397359
vn 0.66536444 0.69442684 0.27397359
vn 0.66536444 0.69442684 0.27397359
vn 0.83205029 0.00000000 -0.55470020
vn 0.83205029 0.00000000 -0.55470020
vn 0.83205029 0.00000000 -0.55470020
vn 0.83205029 0.00000000 -0.55470020
vn 0.83205029 0.00000000 -0.55470020
vn -0.31622777 0.00000000 -0.94868330
vn -0.31622777 0.00000000 -0.94868330
vn -0.31622777 0.00000000 -0.94868330
vn -0.31622777 0.00000000 -0.94868330
vn -0.31622777 0.00000000 -0.94868330
vn -0.31622777 0.00000000 -0.94868330
vn -0.31622777 0.00000000 -0.94868330
vn 0.00000000 -1.00000000 0.00000000
vn 0.00000000 -1.00000000 0.00000000
vn 0.00000000 -1.00000000 0.00000000
vn 0.00000000 -1.00000000 0.00000000
vn 0.00000000 -1.00000000 0.00000000
vn 0.00000000 -1.00000000 0.00000000
vn 0.00000000 -1.00000000 0.00000000
vn 0.00000000 -1.00000000 0.00000000
vn 0.00000000 -1.00000000 0.00000000
vn -0.70710678 0.00000000 -0.70710678
vn -0.70710678 0.00000000 -0.70710678
vn -0.70710678 0.00000000 -0.70710678
vn -0.70710678 0.00000000 -0.70710678
vn -0.70710678 0.00000000 -0.70710678
vn -0.70710678 0.00000000 -0.70710678
vn -0.70710678 0.00000000 -0.70710678
vn -0.70710678 0.00000000 -0.70710678
vn 0.00000000 1.00000000 0.00000000
vn 0.00000000 1.00000000 0.00000000
vn 0.00000000 1.00000000 0.00000000
vn 0.00000000 0.00000000 -1.00000000
vn 0.00000000 0.00000000 -1.00000000
vn 0.00000000 0.00000000 -1.00000000
vn 0.00000000 0.00000000 -1.00000000
vn 0.00000000 0.00000000 -1.00000000
vn 0.74591435 0.48219380 -0.45945720
vn 0.74591435 0.48219380 -0.45945720
vn 0.74591435 0.48219380 -0.45945720
vn -0.81649658 0.57735027 -0.00000000
vn -0.81649658 0.57735027 -0.00000000
vn -0.81649658 0.57735027 -0.00000000
vn -0.57735027 -0.81649658 -0.00000000
vn -0.57735027 -0.81649658 -0.00000000
vn -0.57735027 -0.81649658 -0.00000000
vn -0.70710678 0.00000000 0.70710678
vn -0.70710678 0.00000000 0.70710678
vn -0.70710678 0.00000000 0.70710678
vn -0.70710678 0.00000000 0.70710678
vn -0.70710678 0.00000000 0.70710678
vn -0.70710678 0.00000000 0.70710678
vn -0.70710678 0.00000000 0.70710678
vn -0.70710678 0.00000000 0.70710678
vn -0.08058230 0.68376346 0.72524067
vn -0.08058230 0.68376346 0.72524067
vn -0.08058230 0.68376346 0.72524067
vn 0.00000000 -0.57735027 0.81649658
vn 0.00000000 -0.57735027 0.81649658
vn 0.00000000 -0.57735027 0.81649658
vn 1.00000000 0.00000000 0.00000000
vn 1.00000000 0.00000000 0.00000000
vn 1.00000000 0.00000000 0.00000000
vn 1.00000000 0.00000000 0.00000000
vn 1.00000000 0.00000000 0.00000000
vn 1.00000000 0.00000000 0.00000000
vn 1.00000000 0.00000000 0.00000000
vn 0.59193407 -0.79903959 -0.10559256
vn 0.59193407 -0.79903959 -0.10559256
vn 0.59193407 -0.79903959 -0.10559256
vn 0.59193407 -0.79903959 -0.10559256
vn 0.67082039 0.31622777 -0.67082039
vn 0.67082039 0.31622777 -0.67082039
vn 0.67082039 0.31622777 -0.67082039
vn 0.67082039 0.31622777 -0.67082039
vn 0.31622777 0.00000000 -0.94868330
vn 0.31622777 0.00000000 -0.94868330
vn 0.31622777 0.00000000 -0.94868330
vn 0.31622777 0.00000000 -0.94868330
vn 0.26589918 0.94756232 -0.17726612
vn 0.26589918 0.94756232 -0.17726612
vn 0.26589918 0.94756232 -0.17726612
vn 0.26589918 0.94756232 -0.17726612
vn 0.70710678 0.00000000 0.70710678
vn 0.70710678 0.00000000 0.70710678
vn 0.70710678 0.00000000 0.70710678
vn 0.70710678 0.00000000 0.70710678
vn 0.70710678 0.00000000 0.70710678
vn 0.70710678 0.00000000 0.70710678
vn 0.70710678 0.00000000 0.70710678
vn 0.70710678 0.00000000 0.70710678
vn 0.70710678 0.00000000 0.70710678
vn 0.70710678 0.00000000 0.70710678
vn 0.00000000 1.00000000 0.00000000
vn 0.00000000 1.00000000 0.00000000
vn 0.00000000 1.00000000 0.00000000
vn 0.00000000 1.00000000 0.00000000
vn 0.00000000 1.00000000 0.00000000
vn 0.00000000 1.00000000 0.00000000
vn 0.00000000 1.00000000 0.00000000
vn 0.00000000 1.00000000 0.00000000
vn 0.00000000 1.00000000 0.00000000
vn 0.00000000 1.00000000 0.00000000
vn 0.00000000 1.00000000 0.00000000
vn 0.00000000 1.00000000 0.00000000
s 1
usemtl Sandstone_4
f 35/99/99 34/98/98 33/97/97
s 2
f 36/100/100 37/101/101 35/102/102
f 36/100/100 33/103/103 38/104/104
f 36/100/100 35/102/102 33/103/103
s 3
f 39/106/106 37/105/105 36/111/111
f 36/111/111 42/109/109 40/107/107
f 42/109/109 41/108/108 40/107/107
f 36/111/111 43/110/110 42/109/109
f 40/107/107 39/106/106 36/111/111
s 4
f 40/112/112 41/120/120 50/119/119
f 48/117/117 47/116/116 40/112/112
f 47/116/116 46/115/115 44/113/113
f 46/115/115 45/114/114 44/113/113
f 47/116/116 44/113/113 40/112/112
f 40/112/112 49/118/118 48/117/117
f 40/112/112 50/119/119 49/118/118
s 5
f 52/123/123 53/124/124 54/125/125
f 51/122/122 52/123/123 55/126/126
f 55/126/126 56/127/127 45/128/128
f 51/122/122 55/126/126 45/128/128
f 45/128/128 46/121/121 51/122/122
f 52/123/123 54/125/125 55/126/126
s 6
f 56/131/131 55/130/130 57/129/129
s 7
f 54/136/136 58/132/132 59/133/133
f 59/133/133 57/134/134 55/135/135
f 59/133/133 55/135/135 54/136/136
s 8
f 59/137/137 58/138/138 60/139/139
s 9
f 52/142/142 61/141/141 53/140/140
s 10
f 46/143/143 47/144/144 51/145/145
s 11
f 61/153/153 52/146/146 51/147/147
f 47/148/148 64/152/152 61/153/153
f 48/149/149 63/151/151 64/152/152
f 48/149/149 62/150/150 63/151/151
f 47/148/148 48/149/149 64/152/152
f 61/153/153 51/147/147 47/148/148
s 12
f 65/154/154 64/155/155 63/156/156
s 13
f 62/159/159 48/158/158 49/157/157
s 14
f 59/166/166 60/165/165 66/164/164
f 66/164/164 44/163/163 57/160/160
f 45/162/162 56/161/161 57/160/160
f 44/163/163 45/162/162 57/160/160
f 57/160/160 59/166/166 66/164/164
s 15
f 50/167/167 41/170/170 42/169/169
f 42/169/169 67/168/168 50/167/167
s 16
f 43/172/172 68/173/173 67/174/174
f 42/171/171 43/172/172 67/174/174
s 17
f 44/178/178 66/177/177 40/175/175
f 66/177/177 39/176/176 40/175/175
s 18
f 38/182/182 68/179/179 43/180/180
f 43/180/180 36/181/181 38/182/182
s 19
f 34/186/186 65/185/185 63/184/184
f 63/184/184 62/183/183 49/192/192
f 49/192/192 38/188/188 33/187/187
f 50/191/191 68/189/189 38/188/188
f 50/191/191 67/190/190 68/189/189
f 49/192/192 50/191/191 38/188/188
f 33/187/187 34/186/186 49/192/192
f 34/186/186 63/184/184 49/192/192
s 20
f 58/199/199 54/200/200 53/201/201
f 66/197/197 53/201/201 61/202/202
f 39/196/196 66/197/197 64/203/203
f 64/203/203 65/204/204 39/196/196
f 65/204/204 34/193/193 39/196/196
f 34/193/193 35/194/194 39/196/196
f 35/194/194 37/195/195 39/196/196
f 66/197/197 61/202/202 64/203/203
f 66/197/197 60/198/198 53/201/201
f 60/198/198 58/199/199 53/201/201
