mtllib Materials_Modular_Temple.mtl
o object1
g object1
v 0.50000000 0.00500000 0.50000000
v 0.50000000 0.00500000 -0.50000000
v 0.50000000 0.00000000 -0.50000000
v 0.50000000 0.00000000 0.50000000
v -0.50000000 0.00000000 -0.50000000
v -0.50000000 0.00000000 -0.15000000
v 0.04019238 0.00000000 -0.15000000
v 0.10980762 0.00000000 -0.10980762
v 0.15000000 0.00000000 -0.04019238
v 0.15000000 0.00000000 0.50000000
v -0.50000000 0.01000000 -0.15000000
v 0.04019238 0.01000000 -0.15000000
v 0.25000000 0.01000000 0.50000000
v 0.25000000 0.01000000 -0.06698730
v 0.18301270 0.01000000 -0.18301270
v 0.06698730 0.01000000 -0.25000000
v -0.50000000 0.01000000 -0.25000000
v 0.10980762 0.01000000 -0.10980762
v 0.15000000 0.01000000 -0.04019238
v 0.15000000 0.01000000 0.50000000
v 0.25000000 0.00500000 0.50000000
v 0.25000000 0.00500000 -0.06698730
v 0.35000000 0.00500000 0.50000000
v 0.35000000 0.00500000 -0.09378222
v 0.25621778 0.00500000 -0.25621778
v 0.09378222 0.00500000 -0.35000000
v -0.50000000 0.00500000 -0.35000000
v -0.50000000 0.00500000 -0.25000000
v 0.06698730 0.00500000 -0.25000000
v 0.18301270 0.00500000 -0.18301270
v 0.35000000 0.01000000 -0.09378222
v 0.35000000 0.01000000 0.50000000
v 0.45000000 0.01000000 0.50000000
v 0.45000000 0.01000000 -0.12057714
v 0.32942286 0.01000000 -0.32942286
v 0.12057714 0.01000000 -0.45000000
v -0.50000000 0.01000000 -0.45000000
v -0.50000000 0.01000000 -0.35000000
v 0.09378222 0.01000000 -0.35000000
v 0.25621778 0.01000000 -0.25621778
v 0.45000000 0.00500000 0.50000000
v 0.45000000 0.00500000 -0.12057714
v -0.50000000 0.00500000 -0.45000000
v 0.12057714 0.00500000 -0.45000000
v 0.32942286 0.00500000 -0.32942286
v -0.50000000 0.00500000 -0.50000000
vt 1.00000000 0.00000000
vt 1.00000000 1.00000000
vt 0.00000000 1.00000000
vt 0.00000000 0.00000000
vt 1.00000000 1.00000000
vt 0.00000000 1.00000000
vt 0.00000000 0.65000000
vt 0.54019238 0.65000000
vt 0.60980762 0.60980762
vt 0.65000000 0.54019238
vt 0.65000000 0.00000000
vt 1.00000000 0.00000000
vt 0.00000000 0.00000000
vt 1.00000000 0.00000000
vt 1.00000000 1.00000000
vt 0.00000000 1.00000000
vt 1.00000000 1.00000000
vt 0.24401694 1.00000000
vt 0.08931640 0.91068360
vt 0.00000000 0.75598306
vt 0.00000000 0.00000000
vt 0.13333333 0.00000000
vt 0.13333333 0.72025651
vt 0.18692317 0.81307683
vt 0.27974349 0.86666667
vt 1.00000000 0.86666667
vt 0.00000000 0.00000000
vt 1.00000000 0.00000000
vt 1.00000000 1.00000000
vt 0.00000000 1.00000000
vt 1.00000000 1.00000000
vt 0.30143269 1.00000000
vt 0.11033202 0.88966798
vt 0.00000000 0.69856731
vt 0.00000000 0.00000000
vt 0.11764706 0.00000000
vt 0.11764706 0.66704388
vt 0.19645564 0.80354436
vt 0.33295612 0.88235294
vt 1.00000000 0.88235294
vt 1.00000000 0.00000000
vt 1.00000000 1.00000000
vt 0.00000000 1.00000000
vt 0.00000000 0.00000000
vt 1.00000000 0.00000000
vt 1.00000000 0.65323909
vt 0.87307670 0.87307670
vt 0.65323909 1.00000000
vt 0.00000000 1.00000000
vt 0.00000000 0.89473684
vt 0.62503391 0.89473684
vt 0.79601872 0.79601872
vt 0.89473684 0.62503391
vt 0.89473684 0.00000000
vt 0.00000000 0.00000000
vt 1.00000000 0.00000000
vt 1.00000000 1.00000000
vt 0.00000000 1.00000000
vt 1.00000000 0.00000000
vt 1.00000000 1.00000000
vt 0.00000000 1.00000000
vt 0.00000000 0.00000000
vt 1.00000000 0.00000000
vt 1.00000000 1.00000000
vt 0.00000000 1.00000000
vt 0.00000000 0.00000000
vt 1.00000000 0.00000000
vt 1.00000000 1.00000000
vt 0.00000000 1.00000000
vt 0.00000000 0.00000000
vt 0.00000000 0.00000000
vt 1.00000000 0.00000000
vt 1.00000000 1.00000000
vt 0.00000000 1.00000000
vt 1.00000000 0.00000000
vt 1.00000000 1.00000000
vt 0.00000000 1.00000000
vt 0.00000000 0.00000000
vt 1.00000000 0.00000000
vt 1.00000000 1.00000000
vt 0.00000000 1.00000000
vt 0.00000000 0.00000000
vt 1.00000000 1.00000000
vt 0.00000000 1.00000000
vt 0.00000000 0.00000000
vt 1.00000000 0.00000000
vt 1.00000000 0.00000000
vt 1.00000000 1.00000000
vt 0.00000000 1.00000000
vt 0.00000000 0.00000000
vt 1.00000000 0.00000000
vt 1.00000000 1.00000000
vt 0.00000000 1.00000000
vt 0.00000000 0.00000000
vt 1.00000000 0.00000000
vt 1.00000000 1.00000000
vt 0.00000000 1.00000000
vt 0.00000000 0.00000000
vt 1.00000000 0.00000000
vt 1.00000000 1.00000000
vt 0.00000000 1.00000000
vt 0.00000000 0.00000000
vt 1.00000000 0.00000000
vt 1.00000000 1.00000000
vt 0.00000000 1.00000000
vt 0.00000000 0.00000000
vt 0.50000000 0.42857143
vt 0.50000000 0.71428571
vt 1.00000000 0.71428571
vt 1.00000000 1.00000000
vt 0.00000000 1.00000000
vt 0.00000000 0.00000000
vt 0.50000000 0.00000000
vt 0.50000000 0.14285714
vt 1.00000000 0.14285714
vt 1.00000000 0.42857143
vt 1.00000000 0.28571429
vt 0.50000000 0.28571429
vt 0.50000000 0.57142857
vt 1.00000000 0.57142857
vt 1.00000000 0.85714286
vt 0.50000000 0.85714286
vt 0.50000000 1.00000000
vt 0.00000000 1.00000000
vt 0.00000000 0.00000000
vt 1.00000000 0.00000000
vt 1.00000000 1.00000000
vt 0.00000000 1.00000000
vt 0.00000000 0.95000000
vt 0.62057714 0.95000000
vt 0.82942286 0.82942286
vt 0.95000000 0.62057714
vt 0.95000000 0.00000000
vt 1.00000000 0.00000000
vt 1.00000000 1.00000000
vt 0.00000000 1.00000000
vt 0.00000000 0.00000000
vt 1.00000000 0.00000000
vn 1.00000000 0.00000000 0.00000000
vn 1.00000000 0.00000000 0.00000000
vn 1.00000000 0.00000000 0.00000000
vn 1.00000000 0.00000000 0.00000000
vn 0.00000000 -1.00000000 0.00000000
vn 0.00000000 -1.00000000 0.00000000
vn 0.00000000 -1.00000000 0.00000000
vn 0.00000000 -1.00000000 0.00000000
vn 0.00000000 -1.00000000 0.00000000
vn 0.00000000 -1.00000000 0.00000000
vn 0.00000000 -1.00000000 0.00000000
vn 0.00000000 -1.00000000 0.00000000
vn 0.00000000 0.00000000 1.00000000
vn 0.00000000 0.00000000 1.00000000
vn 0.00000000 0.00000000 1.00000000
vn 0.00000000 0.00000000 1.00000000
vn 0.00000000 1.00000000 0.00000000
vn 0.00000000 1.00000000 0.00000000
vn 0.00000000 1.00000000 0.00000000
vn 0.00000000 1.00000000 0.00000000
vn 0.00000000 1.00000000 0.00000000
vn 0.00000000 1.00000000 0.00000000
vn 0.00000000 1.00000000 0.00000000
vn 0.00000000 1.00000000 0.00000000
vn 0.00000000 1.00000000 0.00000000
vn 0.00000000 1.00000000 0.00000000
vn 1.00000000 0.00000000 0.00000000
vn 1.00000000 0.00000000 0.00000000
vn 1.00000000 0.00000000 0.00000000
vn 1.00000000 0.00000000 0.00000000
vn 0.00000000 1.00000000 0.00000000
vn 0.00000000 1.00000000 0.00000000
vn 0.00000000 1.00000000 0.00000000
vn 0.00000000 1.00000000 0.00000000
vn 0.00000000 1.00000000 0.00000000
vn 0.00000000 1.00000000 0.00000000
vn 0.00000000 1.00000000 0.00000000
vn 0.00000000 1.00000000 0.00000000
vn 0.00000000 1.00000000 0.00000000
vn 0.00000000 1.00000000 0.00000000
vn -1.00000000 0.00000000 0.00000000
vn -1.00000000 0.00000000 0.00000000
vn -1.00000000 0.00000000 0.00000000
vn -1.00000000 0.00000000 0.00000000
vn 0.00000000 1.00000000 0.00000000
vn 0.00000000 1.00000000 0.00000000
vn 0.00000000 1.00000000 0.00000000
vn 0.00000000 1.00000000 0.00000000
vn 0.00000000 1.00000000 0.00000000
vn 0.00000000 1.00000000 0.00000000
vn 0.00000000 1.00000000 0.00000000
vn 0.00000000 1.00000000 0.00000000
vn 0.00000000 1.00000000 0.00000000
vn 0.00000000 1.00000000 0.00000000
vn 1.00000000 0.00000000 0.00000000
vn 1.00000000 0.00000000 0.00000000
vn 1.00000000 0.00000000 0.00000000
vn 1.00000000 0.00000000 0.00000000
vn 0.00000000 0.00000000 -1.00000000
vn 0.00000000 0.00000000 -1.00000000
vn 0.00000000 0.00000000 -1.00000000
vn 0.00000000 0.00000000 -1.00000000
vn 0.50000000 0.00000000 -0.86602540
vn 0.50000000 0.00000000 -0.86602540
vn 0.50000000 0.00000000 -0.86602540
vn 0.50000000 0.00000000 -0.86602540
vn 0.86602540 0.00000000 -0.50000000
vn 0.86602540 0.00000000 -0.50000000
vn 0.86602540 0.00000000 -0.50000000
vn 0.86602540 0.00000000 -0.50000000
vn 0.00000000 0.00000000 1.00000000
vn 0.00000000 0.00000000 1.00000000
vn 0.00000000 0.00000000 1.00000000
vn 0.00000000 0.00000000 1.00000000
vn -0.50000000 0.00000000 0.86602540
vn -0.50000000 0.00000000 0.86602540
vn -0.50000000 0.00000000 0.86602540
vn -0.50000000 0.00000000 0.86602540
vn -0.86602540 0.00000000 0.50000000
vn -0.86602540 0.00000000 0.50000000
vn -0.86602540 0.00000000 0.50000000
vn -0.86602540 0.00000000 0.50000000
vn 0.00000000 0.00000000 -1.00000000
vn 0.00000000 0.00000000 -1.00000000
vn 0.00000000 0.00000000 -1.00000000
vn 0.00000000 0.00000000 -1.00000000
vn 0.50000000 0.00000000 -0.86602540
vn 0.50000000 0.00000000 -0.86602540
vn 0.50000000 0.00000000 -0.86602540
vn 0.50000000 0.00000000 -0.86602540
vn 0.86602540 0.00000000 -0.50000000
vn 0.86602540 0.00000000 -0.50000000
vn 0.86602540 0.00000000 -0.50000000
vn 0.86602540 0.00000000 -0.50000000
vn -0.50000000 0.00000000 0.86602540
vn -0.50000000 0.00000000 0.86602540
vn -0.50000000 0.00000000 0.86602540
vn -0.50000000 0.00000000 0.86602540
vn -0.86602540 0.00000000 0.50000000
vn -0.86602540 0.00000000 0.50000000
vn -0.86602540 0.00000000 0.50000000
vn -0.86602540 0.00000000 0.50000000
vn -1.00000000 0.00000000 0.00000000
vn -1.00000000 0.00000000 0.00000000
vn -1.00000000 0.00000000 0.00000000
vn -1.00000000 0.00000000 0.00000000
vn -1.00000000 0.00000000 0.00000000
vn -1.00000000 0.00000000 0.00000000
vn -1.00000000 0.00000000 0.00000000
vn -1.00000000 0.00000000 0.00000000
vn -1.00000000 0.00000000 0.00000000
vn -1.00000000 0.00000000 0.00000000
vn -1.00000000 0.00000000 0.00000000
vn -1.00000000 0.00000000 0.00000000
vn -1.00000000 0.00000000 0.00000000
vn -1.00000000 0.00000000 0.00000000
vn 0.00000000 0.00000000 1.00000000
vn 0.00000000 0.00000000 1.00000000
vn 0.00000000 0.00000000 1.00000000
vn 0.00000000 0.00000000 1.00000000
vn 0.00000000 0.00000000 1.00000000
vn 0.00000000 0.00000000 1.00000000
vn 0.00000000 0.00000000 1.00000000
vn 0.00000000 0.00000000 1.00000000
vn 0.00000000 0.00000000 1.00000000
vn 0.00000000 0.00000000 1.00000000
vn 0.00000000 1.00000000 0.00000000
vn 0.00000000 1.00000000 0.00000000
vn 0.00000000 1.00000000 0.00000000
vn 0.00000000 1.00000000 0.00000000
vn 0.00000000 1.00000000 0.00000000
vn 0.00000000 1.00000000 0.00000000
vn 0.00000000 1.00000000 0.00000000
vn 0.00000000 1.00000000 0.00000000
vn 0.00000000 0.00000000 -1.00000000
vn 0.00000000 0.00000000 -1.00000000
vn 0.00000000 0.00000000 -1.00000000
vn 0.00000000 0.00000000 -1.00000000
s 1
usemtl Blue_Fabric_1
f 4/4/4 3/3/3 1/1/1
f 3/3/3 2/2/2 1/1/1
s 2
f 4/12/12 10/11/11 9/10/10
f 9/10/10 8/9/9 3/5/5
f 7/8/8 5/6/6 3/5/5
f 7/8/8 6/7/7 5/6/6
f 8/9/9 7/8/8 3/5/5
f 3/5/5 4/12/12 9/10/10
s 3
f 7/16/16 12/15/15 6/13/13
f 12/15/15 11/14/14 6/13/13
s 4
f 14/18/18 15/19/19 16/20/20
f 16/20/20 17/21/21 12/23/23
f 17/21/21 11/22/22 12/23/23
f 12/23/23 18/24/24 16/20/20
f 18/24/24 14/18/18 16/20/20
f 18/24/24 19/25/25 14/18/18
f 19/25/25 20/26/26 13/17/17
f 19/25/25 13/17/17 14/18/18
s 5
f 22/30/30 14/29/29 21/27/27
f 14/29/29 13/28/28 21/27/27
s 6
usemtl Blue_Fabric_2
f 24/32/32 25/33/33 26/34/34
f 26/34/34 27/35/35 29/37/37
f 27/35/35 28/36/36 29/37/37
f 29/37/37 30/38/38 26/34/34
f 30/38/38 24/32/32 26/34/34
f 30/38/38 22/39/39 24/32/32
f 22/39/39 21/40/40 23/31/31
f 22/39/39 23/31/31 24/32/32
s 7
usemtl Blue_Fabric_1
f 24/44/44 23/43/43 31/41/41
f 23/43/43 32/42/42 31/41/41
s 8
f 34/46/46 35/47/47 36/48/48
f 36/48/48 39/51/51 40/52/52
f 37/49/49 38/50/50 39/51/51
f 36/48/48 37/49/49 39/51/51
f 33/45/45 34/46/46 31/53/53
f 31/53/53 32/54/54 33/45/45
f 34/46/46 40/52/52 31/53/53
f 34/46/46 36/48/48 40/52/52
s 9
f 42/58/58 34/57/57 41/55/55
f 34/57/57 33/56/56 41/55/55
s 10
f 44/62/62 43/61/61 36/59/59
f 43/61/61 37/60/60 36/59/59
s 11
f 45/66/66 44/65/65 35/63/63
f 44/65/65 36/64/64 35/63/63
s 12
f 42/70/70 45/69/69 34/67/67
f 45/69/69 35/68/68 34/67/67
s 13
f 26/74/74 39/73/73 27/71/71
f 39/73/73 38/72/72 27/71/71
s 14
f 26/78/78 25/77/77 39/75/75
f 25/77/77 40/76/76 39/75/75
s 15
f 25/82/82 24/81/81 40/79/79
f 24/81/81 31/80/80 40/79/79
s 16
f 16/86/86 29/85/85 17/83/83
f 29/85/85 28/84/84 17/83/83
s 17
f 30/90/90 29/89/89 15/87/87
f 29/89/89 16/88/88 15/87/87
s 18
f 22/94/94 30/93/93 14/91/91
f 30/93/93 15/92/92 14/91/91
s 19
f 7/98/98 8/97/97 12/95/95
f 8/97/97 18/96/96 12/95/95
s 20
f 8/102/102 9/101/101 18/99/99
f 9/101/101 19/100/100 18/99/99
s 21
f 9/106/106 10/105/105 19/103/103
f 10/105/105 20/104/104 19/103/103
s 22
f 43/114/114 46/113/113 5/112/112
f 5/112/112 6/111/111 27/107/107
f 6/111/111 28/108/108 27/107/107
f 11/110/110 17/109/109 28/108/108
f 6/111/111 11/110/110 28/108/108
f 27/107/107 43/114/114 5/112/112
f 27/107/107 38/116/116 43/114/114
f 38/116/116 37/115/115 43/114/114
s 23
f 4/124/124 1/123/123 41/122/122
f 41/122/122 33/121/121 23/119/119
f 23/119/119 21/118/118 10/125/125
f 21/118/118 20/126/126 10/125/125
f 21/118/118 13/117/117 20/126/126
f 33/121/121 32/120/120 23/119/119
f 10/125/125 4/124/124 23/119/119
f 4/124/124 41/122/122 23/119/119
s 24
usemtl Blue_Fabric_3
f 46/128/128 43/129/129 44/130/130
f 2/127/127 44/130/130 45/131/131
f 2/127/127 42/132/132 1/134/134
f 42/132/132 41/133/133 1/134/134
f 2/127/127 45/131/131 42/132/132
f 2/127/127 46/128/128 44/130/130
s 25
usemtl Blue_Fabric_1
f 2/138/138 3/137/137 46/135/135
f 3/137/137 5/136/136 46/135/135
