mtllib Materials_Modular_Temple.mtl
o object1
g object1
v 0.50000000 -0.20000000 -0.50000000
v 0.50000000 -0.20000000 0.50000000
v 0.50000000 0.00000000 0.50000000
v 0.50000000 0.00000000 -0.50000000
v 0.18017767 0.02500000 0.26250000
v 0.26250000 0.02500000 0.18017767
v 0.25000000 0.01250000 0.17500000
v 0.17500000 0.01250000 0.25000000
v 0.17500000 -0.20000000 0.25000000
v 0.25000000 -0.20000000 0.17500000
v 0.25000000 0.01250000 -0.17500000
v 0.25000000 -0.20000000 -0.17500000
v 0.17500000 0.01250000 -0.25000000
v 0.17500000 -0.20000000 -0.25000000
v 0.26250000 0.02500000 -0.18017767
v 0.18017767 0.02500000 -0.26250000
v -0.18017767 0.02500000 -0.26250000
v -0.17500000 0.01250000 -0.25000000
v -0.00000000 0.02500000 -0.26250000
v -0.17500000 0.01250000 0.25000000
v -0.18017767 0.02500000 0.26250000
v -0.00000000 0.02500000 0.26250000
v 0.18500000 0.02500000 0.27500000
v 0.27500000 0.02500000 0.18500000
v 0.30000000 0.00000000 0.21000000
v 0.21000000 0.00000000 0.30000000
v 0.27500000 0.02500000 -0.18500000
v 0.30000000 0.00000000 -0.21000000
v 0.18500000 0.02500000 -0.27500000
v 0.21000000 0.00000000 -0.30000000
v -0.21000000 0.00000000 -0.30000000
v -0.18500000 0.02500000 -0.27500000
v -0.00000000 0.00000000 -0.30000000
v -0.00000000 0.02500000 -0.27500000
v -0.50000000 0.00000000 -0.50000000
v -0.50000000 -0.20000000 -0.50000000
v -0.00000000 0.00000000 -0.50000000
v -0.00000000 -0.20000000 -0.50000000
v -0.50000000 -0.20000000 0.50000000
v -0.50000000 0.00000000 0.50000000
v -0.00000000 -0.20000000 0.50000000
v -0.00000000 0.00000000 0.50000000
v -0.00000000 -0.20000000 0.25000000
v -0.17500000 -0.20000000 0.25000000
v -0.25000000 -0.20000000 0.17500000
v -0.25000000 -0.20000000 -0.17500000
v -0.17500000 -0.20000000 -0.25000000
v -0.00000000 -0.20000000 -0.25000000
v -0.21000000 0.00000000 0.30000000
v -0.18500000 0.02500000 0.27500000
v -0.00000000 0.00000000 0.30000000
v -0.00000000 0.02500000 0.27500000
v -0.26250000 0.02500000 -0.18017767
v -0.26250000 0.02500000 0.18017767
v -0.27500000 0.02500000 0.18500000
v -0.27500000 0.02500000 -0.18500000
v -0.30000000 0.00000000 0.21000000
v -0.30000000 0.00000000 -0.21000000
v -0.25000000 0.01250000 0.17500000
v -0.25000000 0.01250000 -0.17500000
vt 0.00000000 1.00000000
vt 0.00000000 0.00000000
vt 1.00000000 0.00000000
vt 1.00000000 1.00000000
vt 0.00000000 0.00000000
vt 1.00000000 0.00000000
vt 0.95552646 1.00000000
vt 0.04447354 1.00000000
vt 0.00000000 1.00000000
vt 0.00000000 0.00000000
vt 1.00000000 0.00000000
vt 1.00000000 1.00000000
vt 0.00000000 1.00000000
vt 0.00000000 0.00000000
vt 1.00000000 0.00000000
vt 1.00000000 1.00000000
vt 0.00000000 1.00000000
vt 0.00000000 0.00000000
vt 1.00000000 0.00000000
vt 1.00000000 1.00000000
vt 0.00000000 0.00000000
vt 1.00000000 0.00000000
vt 0.98563177 1.00000000
vt 0.01436823 1.00000000
vt 0.00000000 0.00000000
vt 1.00000000 0.00000000
vt 0.95552646 1.00000000
vt 0.04447354 1.00000000
vt 0.98563177 0.00000000
vt 1.00000000 1.00000000
vt 0.00000000 1.00000000
vt 0.01436823 0.00000000
vt 0.50000000 1.00000000
vt 1.00000000 0.00000000
vt 0.98563177 1.00000000
vt 0.01436823 1.00000000
vt 0.00000000 0.00000000
vt 0.50000000 0.00000000
vt 0.78260870 1.00000000
vt 0.00000000 0.29411765
vt 0.21739130 0.00000000
vt 1.00000000 0.70588235
vt 0.94047619 0.00000000
vt 1.00000000 1.00000000
vt 0.00000000 1.00000000
vt 0.05952381 0.00000000
vt 0.78260870 1.00000000
vt 0.00000000 0.29411765
vt 0.21739130 0.00000000
vt 1.00000000 0.70588235
vt 0.00000000 0.05952381
vt 1.00000000 0.00000000
vt 1.00000000 1.00000000
vt 0.00000000 0.94047619
vt 1.00000000 0.50000000
vt 0.00000000 0.50000000
vt 0.00000000 0.00000000
vt 1.00000000 0.00000000
vt 1.00000000 1.00000000
vt 0.00000000 1.00000000
vt 1.00000000 0.50000000
vt 0.00000000 0.50000000
vt 1.00000000 1.00000000
vt 0.00000000 1.00000000
vt 0.00000000 0.00000000
vt 1.00000000 0.00000000
vt 0.00000000 0.50000000
vt 1.00000000 0.50000000
vt 0.75000000 0.50000000
vt 0.75000000 0.32500000
vt 0.67500000 0.25000000
vt 0.32500000 0.25000000
vt 0.25000000 0.32500000
vt 0.25000000 0.50000000
vt 0.00000000 0.50000000
vt 0.00000000 0.00000000
vt 1.00000000 0.00000000
vt 1.00000000 0.50000000
vt 0.25000000 0.67500000
vt 0.32500000 0.75000000
vt 0.67500000 0.75000000
vt 0.75000000 0.67500000
vt 1.00000000 1.00000000
vt 0.00000000 1.00000000
vt 1.00000000 0.94047619
vt 0.00000000 1.00000000
vt 0.00000000 0.00000000
vt 1.00000000 0.05952381
vt 0.00000000 0.50000000
vt 1.00000000 0.50000000
vt 1.00000000 1.00000000
vt 0.00000000 1.00000000
vt 0.00000000 0.00000000
vt 1.00000000 0.00000000
vt 1.00000000 0.50000000
vt 0.00000000 1.00000000
vt 0.00000000 0.00000000
vt 1.00000000 0.00000000
vt 1.00000000 1.00000000
vt 1.00000000 0.50000000
vt 0.97727273 0.50000000
vt 0.97727273 0.17240424
vt 0.82759576 0.02272727
vt 0.17240424 0.02272727
vt 0.02272727 0.17240424
vt 0.02272727 0.50000000
vt 0.00000000 0.50000000
vt 0.00000000 0.16363636
vt 0.16363636 0.00000000
vt 0.83636364 0.00000000
vt 1.00000000 0.16363636
vt 1.00000000 0.50000000
vt 0.02272727 0.82759576
vt 0.17240424 0.97727273
vt 0.82759576 0.97727273
vt 0.97727273 0.82759576
vt 1.00000000 0.83636364
vt 0.83636364 1.00000000
vt 0.16363636 1.00000000
vt 0.00000000 0.83636364
vt 0.80000000 0.50000000
vt 0.80000000 0.29000000
vt 0.71000000 0.20000000
vt 0.29000000 0.20000000
vt 0.20000000 0.29000000
vt 0.20000000 0.50000000
vt 0.00000000 0.50000000
vt 0.00000000 0.00000000
vt 1.00000000 0.00000000
vt 1.00000000 0.50000000
vt 0.20000000 0.71000000
vt 0.29000000 0.80000000
vt 0.71000000 0.80000000
vt 0.80000000 0.71000000
vt 1.00000000 1.00000000
vt 0.00000000 1.00000000
vt 0.00000000 0.00000000
vt 1.00000000 0.00000000
vt 0.95552646 1.00000000
vt 0.04447354 1.00000000
vt 0.00000000 0.00000000
vt 1.00000000 0.00000000
vt 0.98563177 1.00000000
vt 0.01436823 1.00000000
vt 0.00000000 0.00000000
vt 1.00000000 0.00000000
vt 0.95552646 1.00000000
vt 0.04447354 1.00000000
vt 0.78260870 1.00000000
vt 0.00000000 0.29411765
vt 0.21739130 0.00000000
vt 1.00000000 0.70588235
vt 0.94047619 0.00000000
vt 1.00000000 1.00000000
vt 0.00000000 1.00000000
vt 0.05952381 0.00000000
vt 0.78260870 1.00000000
vt 0.00000000 0.29411765
vt 0.21739130 0.00000000
vt 1.00000000 0.70588235
vt 0.00000000 1.00000000
vt 0.00000000 0.00000000
vt 1.00000000 0.00000000
vt 1.00000000 1.00000000
vt 0.00000000 1.00000000
vt 0.00000000 0.00000000
vt 1.00000000 0.00000000
vt 1.00000000 1.00000000
vt 0.00000000 1.00000000
vt 0.00000000 0.00000000
vt 1.00000000 0.00000000
vt 1.00000000 1.00000000
vt 0.00000000 1.00000000
vt 0.00000000 0.00000000
vt 1.00000000 0.00000000
vt 1.00000000 1.00000000
vn 1.00000000 0.00000000 0.00000000
vn 1.00000000 0.00000000 0.00000000
vn 1.00000000 0.00000000 0.00000000
vn 1.00000000 0.00000000 0.00000000
vn -0.50000000 0.70710678 -0.50000000
vn -0.50000000 0.70710678 -0.50000000
vn -0.50000000 0.70710678 -0.50000000
vn -0.50000000 0.70710678 -0.50000000
vn -0.70710678 -0.00000000 -0.70710678
vn -0.70710678 0.00000000 -0.70710678
vn -0.70710678 0.00000000 -0.70710678
vn -0.70710678 -0.00000000 -0.70710678
vn -1.00000000 0.00000000 0.00000000
vn -1.00000000 0.00000000 0.00000000
vn -1.00000000 0.00000000 0.00000000
vn -1.00000000 0.00000000 0.00000000
vn -0.70710678 0.00000000 0.70710678
vn -0.70710678 0.00000000 0.70710678
vn -0.70710678 0.00000000 0.70710678
vn -0.70710678 0.00000000 0.70710678
vn -0.70710678 0.70710678 -0.00000000
vn -0.70710678 0.70710678 -0.00000000
vn -0.70710678 0.70710678 -0.00000000
vn -0.70710678 0.70710678 -0.00000000
vn -0.50000000 0.70710678 0.50000000
vn -0.50000000 0.70710678 0.50000000
vn -0.50000000 0.70710678 0.50000000
vn -0.50000000 0.70710678 0.50000000
vn 0.00000000 0.70710678 0.70710678
vn 0.00000000 0.70710678 0.70710678
vn 0.00000000 0.70710678 0.70710678
vn 0.00000000 0.70710678 0.70710678
vn 0.00000000 0.70710678 0.70710678
vn 0.00000000 0.70710678 -0.70710678
vn 0.00000000 0.70710678 -0.70710678
vn 0.00000000 0.70710678 -0.70710678
vn 0.00000000 0.70710678 -0.70710678
vn 0.00000000 0.70710678 -0.70710678
vn 0.40824829 0.81649658 0.40824829
vn 0.40824829 0.81649658 0.40824829
vn 0.40824829 0.81649658 0.40824829
vn 0.40824829 0.81649658 0.40824829
vn 0.70710678 0.70710678 -0.00000000
vn 0.70710678 0.70710678 -0.00000000
vn 0.70710678 0.70710678 -0.00000000
vn 0.70710678 0.70710678 -0.00000000
vn 0.40824829 0.81649658 -0.40824829
vn 0.40824829 0.81649658 -0.40824829
vn 0.40824829 0.81649658 -0.40824829
vn 0.40824829 0.81649658 -0.40824829
vn -0.00000000 0.70710678 -0.70710678
vn -0.00000000 0.70710678 -0.70710678
vn -0.00000000 0.70710678 -0.70710678
vn -0.00000000 0.70710678 -0.70710678
vn -0.00000000 0.70710678 -0.70710678
vn -0.00000000 0.70710678 -0.70710678
vn 0.00000000 0.00000000 -1.00000000
vn 0.00000000 0.00000000 -1.00000000
vn 0.00000000 0.00000000 -1.00000000
vn 0.00000000 0.00000000 -1.00000000
vn 0.00000000 0.00000000 -1.00000000
vn 0.00000000 0.00000000 -1.00000000
vn 0.00000000 0.00000000 1.00000000
vn 0.00000000 0.00000000 1.00000000
vn 0.00000000 0.00000000 1.00000000
vn 0.00000000 0.00000000 1.00000000
vn 0.00000000 0.00000000 1.00000000
vn 0.00000000 0.00000000 1.00000000
vn 0.00000000 -1.00000000 0.00000000
vn 0.00000000 -1.00000000 0.00000000
vn 0.00000000 -1.00000000 0.00000000
vn 0.00000000 -1.00000000 0.00000000
vn 0.00000000 -1.00000000 0.00000000
vn 0.00000000 -1.00000000 0.00000000
vn 0.00000000 -1.00000000 0.00000000
vn 0.00000000 -1.00000000 0.00000000
vn 0.00000000 -1.00000000 0.00000000
vn 0.00000000 -1.00000000 0.00000000
vn 0.00000000 -1.00000000 0.00000000
vn 0.00000000 -1.00000000 0.00000000
vn 0.00000000 -1.00000000 0.00000000
vn 0.00000000 -1.00000000 0.00000000
vn 0.00000000 -1.00000000 0.00000000
vn 0.00000000 -1.00000000 0.00000000
vn 0.00000000 0.70710678 0.70710678
vn 0.00000000 0.70710678 0.70710678
vn 0.00000000 0.70710678 0.70710678
vn 0.00000000 0.70710678 0.70710678
vn 0.00000000 0.70710678 0.70710678
vn 0.00000000 0.70710678 0.70710678
vn 0.00000000 0.00000000 -1.00000000
vn 0.00000000 0.00000000 -1.00000000
vn 0.00000000 0.00000000 -1.00000000
vn 0.00000000 0.00000000 -1.00000000
vn 0.00000000 0.00000000 -1.00000000
vn 0.00000000 0.00000000 1.00000000
vn 0.00000000 0.00000000 1.00000000
vn 0.00000000 0.00000000 1.00000000
vn 0.00000000 0.00000000 1.00000000
vn 0.00000000 0.00000000 1.00000000
vn 0.00000000 1.00000000 0.00000000
vn 0.00000000 1.00000000 0.00000000
vn 0.00000000 1.00000000 0.00000000
vn 0.00000000 1.00000000 0.00000000
vn 0.00000000 1.00000000 0.00000000
vn 0.00000000 1.00000000 0.00000000
vn 0.00000000 1.00000000 0.00000000
vn 0.00000000 1.00000000 0.00000000
vn 0.00000000 1.00000000 0.00000000
vn 0.00000000 1.00000000 0.00000000
vn 0.00000000 1.00000000 0.00000000
vn 0.00000000 1.00000000 0.00000000
vn 0.00000000 1.00000000 0.00000000
vn 0.00000000 1.00000000 0.00000000
vn 0.00000000 1.00000000 0.00000000
vn 0.00000000 1.00000000 0.00000000
vn 0.00000000 1.00000000 0.00000000
vn 0.00000000 1.00000000 0.00000000
vn 0.00000000 1.00000000 0.00000000
vn 0.00000000 1.00000000 0.00000000
vn 0.00000000 1.00000000 0.00000000
vn 0.00000000 1.00000000 0.00000000
vn 0.00000000 1.00000000 0.00000000
vn 0.00000000 1.00000000 0.00000000
vn 0.00000000 1.00000000 0.00000000
vn 0.00000000 1.00000000 0.00000000
vn 0.00000000 1.00000000 0.00000000
vn 0.00000000 1.00000000 0.00000000
vn 0.00000000 1.00000000 0.00000000
vn 0.00000000 1.00000000 0.00000000
vn 0.00000000 1.00000000 0.00000000
vn 0.00000000 1.00000000 0.00000000
vn 0.00000000 1.00000000 0.00000000
vn 0.00000000 1.00000000 0.00000000
vn 0.00000000 1.00000000 0.00000000
vn 0.00000000 1.00000000 0.00000000
vn 0.50000000 0.70710678 -0.50000000
vn 0.50000000 0.70710678 -0.50000000
vn 0.50000000 0.70710678 -0.50000000
vn 0.50000000 0.70710678 -0.50000000
vn 0.70710678 0.70710678 -0.00000000
vn 0.70710678 0.70710678 -0.00000000
vn 0.70710678 0.70710678 -0.00000000
vn 0.70710678 0.70710678 -0.00000000
vn 0.50000000 0.70710678 0.50000000
vn 0.50000000 0.70710678 0.50000000
vn 0.50000000 0.70710678 0.50000000
vn 0.50000000 0.70710678 0.50000000
vn -0.40824829 0.81649658 0.40824829
vn -0.40824829 0.81649658 0.40824829
vn -0.40824829 0.81649658 0.40824829
vn -0.40824829 0.81649658 0.40824829
vn -0.70710678 0.70710678 -0.00000000
vn -0.70710678 0.70710678 -0.00000000
vn -0.70710678 0.70710678 -0.00000000
vn -0.70710678 0.70710678 -0.00000000
vn -0.40824829 0.81649658 -0.40824829
vn -0.40824829 0.81649658 -0.40824829
vn -0.40824829 0.81649658 -0.40824829
vn -0.40824829 0.81649658 -0.40824829
vn 0.70710678 -0.00000000 -0.70710678
vn 0.70710678 0.00000000 -0.70710678
vn 0.70710678 0.00000000 -0.70710678
vn 0.70710678 -0.00000000 -0.70710678
vn 1.00000000 0.00000000 0.00000000
vn 1.00000000 0.00000000 0.00000000
vn 1.00000000 0.00000000 0.00000000
vn 1.00000000 0.00000000 0.00000000
vn 0.70710678 0.00000000 0.70710678
vn 0.70710678 0.00000000 0.70710678
vn 0.70710678 0.00000000 0.70710678
vn 0.70710678 0.00000000 0.70710678
vn -1.00000000 0.00000000 0.00000000
vn -1.00000000 0.00000000 0.00000000
vn -1.00000000 0.00000000 0.00000000
vn -1.00000000 0.00000000 0.00000000
s 1
usemtl Sandstone_Trim
f 4/4/4 3/3/3 1/1/1
f 3/3/3 2/2/2 1/1/1
s 2
f 5/5/5 6/6/6 8/8/8
f 6/6/6 7/7/7 8/8/8
s 3
f 10/12/12 9/11/11 7/9/9
f 9/11/11 8/10/10 7/9/9
s 4
f 12/16/16 10/15/15 11/13/13
f 10/15/15 7/14/14 11/13/13
s 5
f 14/20/20 12/19/19 13/17/17
f 12/19/19 11/18/18 13/17/17
s 6
f 6/21/21 15/22/22 7/24/24
f 15/22/22 11/23/23 7/24/24
s 7
f 15/25/25 16/26/26 11/28/28
f 16/26/26 13/27/27 11/28/28
s 8
f 13/29/29 16/30/30 19/33/33
f 19/33/33 17/31/31 18/32/32
f 13/29/29 19/33/33 18/32/32
s 9
f 22/38/38 5/34/34 8/35/35
f 8/35/35 20/36/36 22/38/38
f 20/36/36 21/37/37 22/38/38
s 10
f 23/39/39 26/42/42 25/41/41
f 25/41/41 24/40/40 23/39/39
s 11
f 24/46/46 25/45/45 28/44/44
f 24/46/46 28/44/44 27/43/43
s 12
f 28/50/50 30/49/49 29/48/48
f 28/50/50 29/48/48 27/47/47
s 13
f 29/51/51 30/52/52 33/55/55
f 33/55/55 31/53/53 32/54/54
f 32/54/54 34/56/56 33/55/55
f 34/56/56 29/51/51 33/55/55
s 14
f 37/61/61 4/58/58 1/57/57
f 36/60/60 37/61/61 38/62/62
f 37/61/61 1/57/57 38/62/62
f 36/60/60 35/59/59 37/61/61
s 15
f 41/67/67 2/64/64 3/63/63
f 40/66/66 41/67/67 42/68/68
f 41/67/67 3/63/63 42/68/68
f 40/66/66 39/65/65 41/67/67
s 16
f 44/70/70 43/69/69 41/78/78
f 2/83/83 41/78/78 9/82/82
f 1/84/84 2/83/83 12/80/80
f 12/80/80 14/79/79 1/84/84
f 14/79/79 48/74/74 38/75/75
f 36/76/76 38/75/75 47/73/73
f 39/77/77 36/76/76 46/72/72
f 46/72/72 45/71/71 39/77/77
f 36/76/76 47/73/73 46/72/72
f 38/75/75 48/74/74 47/73/73
f 14/79/79 38/75/75 1/84/84
f 2/83/83 10/81/81 12/80/80
f 2/83/83 9/82/82 10/81/81
f 41/78/78 43/69/69 9/82/82
f 45/71/71 44/70/70 39/77/77
f 44/70/70 41/78/78 39/77/77
s 17
f 51/89/89 26/86/86 23/85/85
f 50/88/88 49/87/87 51/89/89
f 51/89/89 52/90/90 50/88/88
f 51/89/89 23/85/85 52/90/90
s 18
f 8/92/92 9/91/91 43/95/95
f 43/95/95 44/94/94 20/93/93
f 20/93/93 8/92/92 43/95/95
s 19
f 18/97/97 47/98/98 48/100/100
f 48/100/100 14/99/99 13/96/96
f 13/96/96 18/97/97 48/100/100
s 20
f 52/107/107 22/106/106 21/105/105
f 50/108/108 21/105/105 54/104/104
f 55/109/109 54/104/104 53/103/103
f 53/103/103 32/111/111 56/110/110
f 17/102/102 34/112/112 32/111/111
f 29/117/117 34/112/112 16/116/116
f 27/118/118 29/117/117 15/115/115
f 15/115/115 6/114/114 24/119/119
f 6/114/114 23/120/120 24/119/119
f 6/114/114 5/113/113 23/120/120
f 24/119/119 27/118/118 15/115/115
f 29/117/117 16/116/116 15/115/115
f 34/112/112 19/101/101 16/116/116
f 17/102/102 19/101/101 34/112/112
f 53/103/103 17/102/102 32/111/111
f 56/110/110 55/109/109 53/103/103
f 55/109/109 50/108/108 54/104/104
f 5/113/113 52/107/107 23/120/120
f 5/113/113 22/106/106 52/107/107
f 50/108/108 52/107/107 21/105/105
s 21
usemtl Sandstone_Floor
f 42/130/130 51/121/121 49/122/122
f 40/129/129 49/122/122 57/123/123
f 58/124/124 35/128/128 40/129/129
f 31/125/125 37/127/127 35/128/128
f 4/136/136 37/127/127 30/131/131
f 28/132/132 3/135/135 4/136/136
f 25/133/133 26/134/134 3/135/135
f 28/132/132 25/133/133 3/135/135
f 4/136/136 30/131/131 28/132/132
f 37/127/127 33/126/126 30/131/131
f 31/125/125 33/126/126 37/127/127
f 58/124/124 31/125/125 35/128/128
f 40/129/129 57/123/123 58/124/124
f 26/134/134 42/130/130 3/135/135
f 26/134/134 51/121/121 42/130/130
f 40/129/129 42/130/130 49/122/122
s 22
usemtl Sandstone_Trim
f 20/140/140 59/139/139 21/137/137
f 59/139/139 54/138/138 21/137/137
s 23
f 59/144/144 60/143/143 54/141/141
f 60/143/143 53/142/142 54/141/141
s 24
f 60/148/148 18/147/147 53/145/145
f 18/147/147 17/146/146 53/145/145
s 25
f 57/151/151 49/152/152 50/149/149
f 50/149/149 55/150/150 57/151/151
s 26
f 56/153/153 58/154/154 55/156/156
f 58/154/154 57/155/155 55/156/156
s 27
f 32/158/158 31/159/159 58/160/160
f 56/157/157 32/158/158 58/160/160
s 28
f 59/161/161 20/162/162 45/164/164
f 20/162/162 44/163/163 45/164/164
s 29
f 60/165/165 59/166/166 46/168/168
f 59/166/166 45/167/167 46/168/168
s 30
f 18/169/169 60/170/170 47/172/172
f 60/170/170 46/171/171 47/172/172
s 31
f 36/173/173 39/174/174 35/176/176
f 39/174/174 40/175/175 35/176/176
