mtllib Materials_Modular_Temple.mtl
o object1
g object1
v -0.05000000 -0.10000000 0.40000000
v -0.05000000 -0.07071068 0.40000000
v 0.05000000 -0.07071068 0.40000000
v 0.05000000 -0.10000000 0.40000000
v -0.05000000 -0.00000000 0.45000000
v -0.05000000 -0.02071068 0.45000000
v -0.05000000 -0.10000000 0.50000000
v -0.05000000 0.00000000 0.50000000
v 0.05000000 -0.00000000 0.45000000
v 0.05000000 -0.02071068 0.45000000
v 0.05000000 0.00000000 0.50000000
v 0.05000000 -0.10000000 0.50000000
vt 0.00000000 0.00000000
vt 1.00000000 0.00000000
vt 1.00000000 1.00000000
vt 0.00000000 1.00000000
vt 0.50000000 0.00000000
vt 0.50000000 0.20710678
vt 1.00000000 0.70710678
vt 1.00000000 1.00000000
vt 0.00000000 1.00000000
vt 0.00000000 0.00000000
vt 1.00000000 0.00000000
vt 1.00000000 1.00000000
vt 0.00000000 1.00000000
vt 0.00000000 0.00000000
vt 0.00000000 0.00000000
vt 1.00000000 0.00000000
vt 1.00000000 1.00000000
vt 0.00000000 1.00000000
vt 1.00000000 1.00000000
vt 0.00000000 1.00000000
vt 0.00000000 0.00000000
vt 1.00000000 0.00000000
vt 1.00000000 1.00000000
vt 0.00000000 1.00000000
vt 0.00000000 0.00000000
vt 1.00000000 0.00000000
vt 0.50000000 0.00000000
vt 0.50000000 0.20710678
vt 1.00000000 0.70710678
vt 1.00000000 1.00000000
vt 0.00000000 1.00000000
vt 0.00000000 0.00000000
vt 1.00000000 0.00000000
vt 1.00000000 1.00000000
vt 0.00000000 1.00000000
vt 0.00000000 0.00000000
vn -0.00000000 0.00000000 -1.00000000
vn -0.00000000 0.00000000 -1.00000000
vn -0.00000000 0.00000000 -1.00000000
vn -0.00000000 0.00000000 -1.00000000
vn -1.00000000 -0.00000000 0.00000000
vn -1.00000000 -0.00000000 0.00000000
vn -1.00000000 -0.00000000 0.00000000
vn -1.00000000 -0.00000000 0.00000000
vn -1.00000000 -0.00000000 0.00000000
vn -1.00000000 -0.00000000 0.00000000
vn -0.00000000 0.00000000 -1.00000000
vn -0.00000000 0.00000000 -1.00000000
vn -0.00000000 0.00000000 -1.00000000
vn -0.00000000 0.00000000 -1.00000000
vn -0.00000000 1.00000000 0.00000000
vn -0.00000000 1.00000000 0.00000000
vn -0.00000000 1.00000000 0.00000000
vn -0.00000000 1.00000000 0.00000000
vn 0.00000000 0.00000000 1.00000000
vn 0.00000000 0.00000000 1.00000000
vn 0.00000000 0.00000000 1.00000000
vn 0.00000000 0.00000000 1.00000000
vn 0.00000000 -1.00000000 0.00000000
vn 0.00000000 -1.00000000 0.00000000
vn 0.00000000 -1.00000000 0.00000000
vn 0.00000000 -1.00000000 0.00000000
vn 1.00000000 -0.00000000 0.00000000
vn 1.00000000 -0.00000000 0.00000000
vn 1.00000000 -0.00000000 0.00000000
vn 1.00000000 -0.00000000 0.00000000
vn 1.00000000 -0.00000000 0.00000000
vn 1.00000000 -0.00000000 0.00000000
vn -0.00000000 0.70710678 -0.70710678
vn -0.00000000 0.70710678 -0.70710678
vn -0.00000000 0.70710678 -0.70710678
vn -0.00000000 0.70710678 -0.70710678
s 1
usemtl Green_Stone_-_Dark
f 1/1/1 2/2/2 4/4/4
f 2/2/2 3/3/3 4/4/4
s 2
f 8/10/10 5/5/5 6/6/6
f 6/6/6 1/8/8 7/9/9
f 6/6/6 2/7/7 1/8/8
f 7/9/9 8/10/10 6/6/6
s 3
f 9/11/11 10/12/12 6/13/13
f 9/11/11 6/13/13 5/14/14
s 4
f 11/18/18 9/17/17 8/15/15
f 9/17/17 5/16/16 8/15/15
s 5
f 8/22/22 7/21/21 11/19/19
f 7/21/21 12/20/20 11/19/19
s 6
f 12/26/26 7/25/25 4/23/23
f 7/25/25 1/24/24 4/23/23
s 7
f 10/28/28 9/27/27 11/32/32
f 12/31/31 4/30/30 10/28/28
f 10/28/28 11/32/32 12/31/31
f 4/30/30 3/29/29 10/28/28
s 8
f 10/33/33 3/34/34 6/36/36
f 3/34/34 2/35/35 6/36/36
o object2
g object2
v -0.05000000 -0.01553301 0.43750000
v -0.05000000 -0.00000000 0.43750000
v -0.05000000 -0.00000000 0.50000000
v -0.05000000 -0.10000000 0.50000000
v -0.05000000 -0.10000000 0.40000000
v -0.05000000 -0.05303301 0.40000000
v -0.08750000 0.00000000 0.40000000
v -0.18750000 0.00000000 0.40000000
v -0.13750000 -0.07071068 0.40000000
v -0.18750000 -0.10000000 0.40000000
v -0.13750000 -0.02071068 0.45000000
v -0.13750000 0.00000000 0.45000000
v -0.18750000 0.00000000 0.60000000
v -0.18750000 -0.10000000 0.60000000
v 0.18750000 0.00000000 0.60000000
v 0.18750000 -0.10000000 0.60000000
v 0.18750000 0.00000000 0.40000000
v 0.18750000 -0.10000000 0.40000000
v 0.08750000 0.00000000 0.40000000
v 0.13750000 -0.07071068 0.40000000
v 0.05000000 -0.10000000 0.40000000
v 0.05000000 -0.05303301 0.40000000
v 0.13750000 -0.02071068 0.45000000
v 0.13750000 0.00000000 0.45000000
v 0.05000000 -0.01553301 0.43750000
v 0.05000000 0.00000000 0.43750000
v 0.05000000 -0.10000000 0.50000000
v 0.05000000 0.00000000 0.50000000
vt 0.62500000 0.84466991
vt 0.62500000 1.00000000
vt 0.00000000 1.00000000
vt 0.00000000 0.00000000
vt 1.00000000 0.00000000
vt 1.00000000 0.46966991
vt 1.00000000 1.00000000
vt 0.00000000 1.00000000
vt 1.00000000 0.00000000
vt 1.00000000 1.00000000
vt 0.00000000 1.00000000
vt 0.70710678 0.00000000
vt 1.00000000 0.00000000
vt 0.29289322 0.36363636
vt 1.00000000 0.72727273
vt 0.46966991 1.00000000
vt 0.00000000 1.00000000
vt 0.00000000 0.00000000
vt 1.00000000 1.00000000
vt 0.00000000 1.00000000
vt 0.70710678 0.00000000
vt 1.00000000 1.00000000
vt 0.00000000 1.00000000
vt 1.00000000 0.00000000
vt 1.00000000 0.00000000
vt 1.00000000 1.00000000
vt 0.00000000 0.00000000
vt 1.00000000 0.00000000
vt 1.00000000 1.00000000
vt 0.00000000 1.00000000
vt 0.00000000 0.00000000
vt 1.00000000 0.00000000
vt 1.00000000 1.00000000
vt 0.00000000 1.00000000
vt 0.00000000 0.00000000
vt 1.00000000 0.00000000
vt 1.00000000 1.00000000
vt 0.00000000 1.00000000
vt 0.00000000 0.00000000
vt 1.00000000 0.27272727
vt 0.29289322 0.63636364
vt 1.00000000 1.00000000
vt 0.00000000 1.00000000
vt 0.00000000 0.00000000
vt 0.46966991 0.00000000
vt 1.00000000 1.00000000
vt 0.00000000 1.00000000
vt 0.70710678 0.00000000
vt 1.00000000 1.00000000
vt 0.00000000 1.00000000
vt 1.00000000 0.00000000
vt 1.00000000 0.00000000
vt 1.00000000 1.00000000
vt 0.00000000 0.00000000
vt 0.00000000 1.00000000
vt 0.29289322 0.00000000
vt 1.00000000 1.00000000
vt 0.00000000 1.00000000
vt 0.00000000 0.00000000
vt 1.00000000 1.00000000
vt 0.62500000 0.00000000
vt 0.62500000 0.15533009
vt 1.00000000 0.53033009
vt 1.00000000 1.00000000
vt 0.00000000 1.00000000
vt 0.00000000 0.00000000
vt 1.00000000 0.00000000
vt 0.70710678 1.00000000
vt 0.00000000 0.00000000
vt 1.00000000 0.00000000
vt 0.70710678 1.00000000
vt 0.00000000 0.00000000
vt 0.00000000 0.00000000
vt 1.00000000 0.00000000
vt 1.00000000 0.36666667
vt 0.50000000 0.36666667
vt 0.50000000 0.63333333
vt 1.00000000 0.63333333
vt 1.00000000 1.00000000
vt 0.00000000 1.00000000
vt 1.00000000 0.00000000
vt 1.00000000 1.00000000
vt 0.00000000 1.00000000
vt 0.00000000 0.00000000
vt 1.00000000 0.00000000
vt 1.00000000 1.00000000
vt 0.00000000 1.00000000
vt 0.25000000 0.86666667
vt 0.00000000 0.73333333
vt 0.18750000 0.63333333
vt 0.50000000 0.63333333
vt 0.50000000 0.36666667
vt 0.18750000 0.36666667
vt 0.00000000 0.26666667
vt 0.25000000 0.13333333
vt 0.00000000 0.00000000
vn 1.00000000 0.00000000 0.00000000
vn 1.00000000 0.00000000 0.00000000
vn 1.00000000 0.00000000 0.00000000
vn 1.00000000 0.00000000 0.00000000
vn 1.00000000 0.00000000 0.00000000
vn 1.00000000 0.00000000 0.00000000
vn 0.70710678 -0.00000000 -0.70710678
vn 0.70710678 -0.00000000 -0.70710678
vn 0.70710678 -0.00000000 -0.70710678
vn 0.70710678 0.50000000 -0.50000000
vn 0.70710678 0.50000000 -0.50000000
vn 0.70710678 0.50000000 -0.50000000
vn 0.00000000 0.00000000 -1.00000000
vn 0.00000000 0.00000000 -1.00000000
vn 0.00000000 0.00000000 -1.00000000
vn 0.00000000 0.00000000 -1.00000000
vn 0.00000000 0.00000000 -1.00000000
vn 0.00000000 0.00000000 -1.00000000
vn 0.70710678 0.50000000 -0.50000000
vn 0.70710678 0.50000000 -0.50000000
vn 0.70710678 0.50000000 -0.50000000
vn 0.70710678 0.00000000 -0.70710678
vn 0.70710678 0.00000000 -0.70710678
vn 0.70710678 0.00000000 -0.70710678
vn -0.70710678 0.00000000 -0.70710678
vn -0.70710678 0.00000000 -0.70710678
vn -0.70710678 0.00000000 -0.70710678
vn -1.00000000 -0.00000000 0.00000000
vn -1.00000000 -0.00000000 0.00000000
vn -1.00000000 -0.00000000 -0.00000000
vn -1.00000000 -0.00000000 -0.00000000
vn 0.00000000 -0.00000000 1.00000000
vn 0.00000000 -0.00000000 1.00000000
vn 0.00000000 0.00000000 1.00000000
vn 0.00000000 0.00000000 1.00000000
vn 1.00000000 -0.00000000 0.00000000
vn 1.00000000 -0.00000000 0.00000000
vn 1.00000000 -0.00000000 -0.00000000
vn 1.00000000 -0.00000000 -0.00000000
vn 0.00000000 0.00000000 -1.00000000
vn 0.00000000 0.00000000 -1.00000000
vn 0.00000000 0.00000000 -1.00000000
vn 0.00000000 0.00000000 -1.00000000
vn 0.00000000 0.00000000 -1.00000000
vn 0.00000000 0.00000000 -1.00000000
vn 0.70710678 0.50000000 -0.50000000
vn 0.70710678 0.50000000 -0.50000000
vn 0.70710678 0.50000000 -0.50000000
vn 0.70710678 0.00000000 -0.70710678
vn 0.70710678 0.00000000 -0.70710678
vn 0.70710678 0.00000000 -0.70710678
vn -0.70710678 0.00000000 -0.70710678
vn -0.70710678 0.00000000 -0.70710678
vn -0.70710678 0.00000000 -0.70710678
vn -0.70710678 0.50000000 -0.50000000
vn -0.70710678 0.50000000 -0.50000000
vn -0.70710678 0.50000000 -0.50000000
vn -0.70710678 0.00000000 -0.70710678
vn -0.70710678 0.00000000 -0.70710678
vn -0.70710678 0.00000000 -0.70710678
vn -1.00000000 -0.00000000 -0.00000000
vn -1.00000000 -0.00000000 -0.00000000
vn -1.00000000 -0.00000000 -0.00000000
vn -1.00000000 -0.00000000 -0.00000000
vn -1.00000000 -0.00000000 -0.00000000
vn -1.00000000 -0.00000000 -0.00000000
vn -0.70710678 0.50000000 -0.50000000
vn -0.70710678 0.50000000 -0.50000000
vn -0.70710678 0.50000000 -0.50000000
vn -0.70710678 0.50000000 -0.50000000
vn -0.70710678 0.50000000 -0.50000000
vn -0.70710678 0.50000000 -0.50000000
vn 0.00000000 -1.00000000 0.00000000
vn 0.00000000 -1.00000000 0.00000000
vn 0.00000000 -1.00000000 0.00000000
vn 0.00000000 -1.00000000 0.00000000
vn 0.00000000 -1.00000000 0.00000000
vn 0.00000000 -1.00000000 0.00000000
vn 0.00000000 -1.00000000 0.00000000
vn 0.00000000 -1.00000000 0.00000000
vn 0.00000000 0.00000000 -1.00000000
vn 0.00000000 0.00000000 -1.00000000
vn 0.00000000 0.00000000 -1.00000000
vn 0.00000000 0.00000000 -1.00000000
vn -0.00000000 1.00000000 0.00000000
vn -0.00000000 1.00000000 0.00000000
vn -0.00000000 1.00000000 0.00000000
vn -0.00000000 1.00000000 0.00000000
vn -0.00000000 1.00000000 0.00000000
vn -0.00000000 1.00000000 0.00000000
vn -0.00000000 1.00000000 0.00000000
vn -0.00000000 1.00000000 0.00000000
vn -0.00000000 1.00000000 0.00000000
vn -0.00000000 1.00000000 0.00000000
vn -0.00000000 1.00000000 0.00000000
vn -0.00000000 1.00000000 0.00000000
s 1
usemtl Sandstone_5
f 13/37/37 14/38/38 15/39/39
f 13/37/37 16/40/40 17/41/41
f 13/37/37 15/39/39 16/40/40
f 17/41/41 18/42/42 13/37/37
s 2
f 14/43/43 13/44/44 19/45/45
s 3
f 13/46/46 18/47/47 19/48/48
s 4
usemtl Sandstone_Trim
f 19/51/51 18/52/52 17/53/53
f 21/50/50 17/53/53 22/54/54
f 22/54/54 20/49/49 21/50/50
f 21/50/50 19/51/51 17/53/53
s 5
usemtl Sandstone_Floor
f 23/55/55 21/56/56 20/57/57
s 6
usemtl Sandstone_Trim
f 24/58/58 23/59/59 20/60/60
s 7
usemtl Sandstone_5
f 24/61/61 19/62/62 23/63/63
s 8
usemtl Sandstone_Trim
f 25/64/64 20/65/65 22/66/66
f 25/64/64 22/66/66 26/67/67
s 9
f 25/71/71 26/70/70 27/68/68
f 26/70/70 28/69/69 27/68/68
s 10
f 28/75/75 30/74/74 27/72/72
f 30/74/74 29/73/73 27/72/72
s 11
f 33/80/80 34/81/81 31/76/76
f 32/77/77 30/79/79 33/80/80
f 32/77/77 29/78/78 30/79/79
f 33/80/80 31/76/76 32/77/77
s 12
usemtl Sandstone_5
f 35/82/82 32/83/83 31/84/84
s 13
f 36/85/85 35/86/86 31/87/87
s 14
usemtl Sandstone_Trim
f 36/88/88 29/89/89 35/90/90
s 15
usemtl Sandstone_5
f 37/91/91 31/92/92 34/93/93
s 16
f 38/94/94 31/95/95 37/96/96
s 17
f 40/102/102 38/97/97 37/98/98
f 37/98/98 33/100/100 39/101/101
f 37/98/98 34/99/99 33/100/100
f 39/101/101 40/102/102 37/98/98
s 18
usemtl Sandstone_Floor
f 35/103/103 29/104/104 32/105/105
s 19
usemtl Sandstone_5
f 23/106/106 19/107/107 21/108/108
s 20
usemtl Sandstone_Trim
f 22/110/110 17/111/111 16/112/112
f 26/109/109 16/112/112 39/113/113
f 39/113/113 30/115/115 28/116/116
f 39/113/113 33/114/114 30/115/115
f 26/109/109 39/113/113 28/116/116
f 26/109/109 22/110/110 16/112/112
s 21
usemtl Sandstone_5
f 15/117/117 40/118/118 16/120/120
f 40/118/118 39/119/119 16/120/120
s 22
usemtl Sandstone_Trim
f 36/124/124 31/125/125 38/126/126
f 27/122/122 36/124/124 40/127/127
f 25/121/121 27/122/122 15/128/128
f 15/128/128 14/129/129 24/131/131
f 14/129/129 19/130/130 24/131/131
f 15/128/128 24/131/131 25/121/121
f 24/131/131 20/132/132 25/121/121
f 27/122/122 40/127/127 15/128/128
f 27/122/122 29/123/123 36/124/124
f 36/124/124 38/126/126 40/127/127
