mtllib Materials_Modular_Temple.mtl
o object1
g object1
v -0.57500000 0.05000000 0.40000000
v -0.42500000 0.05000000 0.40000000
v -0.42500000 0.00000000 0.40000000
v -0.57500000 0.00000000 0.40000000
v -0.40000000 0.05000000 0.57500000
v -0.40000000 0.05000000 0.42500000
v -0.40000000 0.00000000 0.42500000
v -0.40000000 0.00000000 0.57500000
v -0.57500000 0.05000000 0.60000000
v -0.42500000 0.05000000 0.60000000
v -0.42500000 0.00000000 0.60000000
v -0.57500000 0.00000000 0.60000000
v -0.60000000 0.05000000 0.57500000
v -0.60000000 0.05000000 0.42500000
v -0.60000000 0.00000000 0.42500000
v -0.60000000 0.00000000 0.57500000
v -0.50000000 0.00000000 0.50000000
v -0.56464466 0.07500000 0.57500000
v -0.57500000 0.07500000 0.56464466
v -0.57500000 0.07500000 0.43535534
v -0.56464466 0.07500000 0.42500000
v -0.43535534 0.07500000 0.42500000
v -0.42500000 0.07500000 0.43535534
v -0.42500000 0.07500000 0.56464466
v -0.43535534 0.07500000 0.57500000
v -0.50000000 0.07500000 0.50000000
vt 1.00000000 0.00000000
vt 1.00000000 1.00000000
vt 0.00000000 1.00000000
vt 0.00000000 0.00000000
vt 1.00000000 0.00000000
vt 1.00000000 1.00000000
vt 0.00000000 1.00000000
vt 0.00000000 0.00000000
vt 1.00000000 0.00000000
vt 1.00000000 1.00000000
vt 0.00000000 1.00000000
vt 0.00000000 0.00000000
vt 1.00000000 0.00000000
vt 1.00000000 1.00000000
vt 0.00000000 1.00000000
vt 0.00000000 0.00000000
vt 0.00000000 0.12500000
vt 0.12500000 0.00000000
vt 0.87500000 0.00000000
vt 1.00000000 0.12500000
vt 1.00000000 0.87500000
vt 0.87500000 1.00000000
vt 0.12500000 1.00000000
vt 0.00000000 0.87500000
vt 0.50000000 0.50000000
vt 1.00000000 0.00000000
vt 1.00000000 1.00000000
vt 0.00000000 1.00000000
vt 0.00000000 0.00000000
vt 1.00000000 0.00000000
vt 1.00000000 1.00000000
vt 0.00000000 1.00000000
vt 0.00000000 0.00000000
vt 1.00000000 0.00000000
vt 1.00000000 1.00000000
vt 0.00000000 1.00000000
vt 0.00000000 0.00000000
vt 1.00000000 0.00000000
vt 1.00000000 1.00000000
vt 0.00000000 1.00000000
vt 0.00000000 0.00000000
vt 0.00000000 0.06903559
vt 0.06903559 0.00000000
vt 0.93096441 0.00000000
vt 1.00000000 0.06903559
vt 1.00000000 0.93096441
vt 0.93096441 1.00000000
vt 0.06903559 1.00000000
vt 0.00000000 0.93096441
vt 0.50000000 0.50000000
vt 0.00000000 0.00000000
vt 1.00000000 0.00000000
vt 0.93096441 1.00000000
vt 0.06903559 1.00000000
vt 0.29289322 0.00000000
vt 0.70710678 0.00000000
vt 1.00000000 1.00000000
vt 0.00000000 1.00000000
vt 0.29289322 0.00000000
vt 0.70710678 0.00000000
vt 1.00000000 1.00000000
vt 0.00000000 1.00000000
vt 0.00000000 0.00000000
vt 1.00000000 0.00000000
vt 0.93096441 1.00000000
vt 0.06903559 1.00000000
vt 0.06903559 0.00000000
vt 0.93096441 0.00000000
vt 1.00000000 1.00000000
vt 0.00000000 1.00000000
vt 0.06903559 0.00000000
vt 0.93096441 0.00000000
vt 1.00000000 1.00000000
vt 0.00000000 1.00000000
vt 0.29289322 0.00000000
vt 0.70710678 0.00000000
vt 1.00000000 1.00000000
vt 0.00000000 1.00000000
vt 0.29289322 0.00000000
vt 0.70710678 0.00000000
vt 1.00000000 1.00000000
vt 0.00000000 1.00000000
vn 0.00000000 0.00000000 -1.00000000
vn 0.00000000 0.00000000 -1.00000000
vn 0.00000000 0.00000000 -1.00000000
vn 0.00000000 0.00000000 -1.00000000
vn 1.00000000 0.00000000 0.00000000
vn 1.00000000 0.00000000 0.00000000
vn 1.00000000 0.00000000 0.00000000
vn 1.00000000 0.00000000 0.00000000
vn 0.00000000 0.00000000 1.00000000
vn 0.00000000 0.00000000 1.00000000
vn 0.00000000 0.00000000 1.00000000
vn 0.00000000 0.00000000 1.00000000
vn -1.00000000 0.00000000 0.00000000
vn -1.00000000 0.00000000 0.00000000
vn -1.00000000 0.00000000 0.00000000
vn -1.00000000 0.00000000 0.00000000
vn 0.00000000 -1.00000000 0.00000000
vn 0.00000000 -1.00000000 0.00000000
vn 0.00000000 -1.00000000 0.00000000
vn 0.00000000 -1.00000000 0.00000000
vn 0.00000000 -1.00000000 0.00000000
vn 0.00000000 -1.00000000 0.00000000
vn 0.00000000 -1.00000000 0.00000000
vn 0.00000000 -1.00000000 0.00000000
vn 0.00000000 -1.00000000 0.00000000
vn 0.70710678 0.00000000 -0.70710678
vn 0.70710678 0.00000000 -0.70710678
vn 0.70710678 0.00000000 -0.70710678
vn 0.70710678 0.00000000 -0.70710678
vn 0.70710678 0.00000000 0.70710678
vn 0.70710678 0.00000000 0.70710678
vn 0.70710678 0.00000000 0.70710678
vn 0.70710678 0.00000000 0.70710678
vn -0.70710678 0.00000000 -0.70710678
vn -0.70710678 0.00000000 -0.70710678
vn -0.70710678 0.00000000 -0.70710678
vn -0.70710678 0.00000000 -0.70710678
vn -0.70710678 0.00000000 0.70710678
vn -0.70710678 0.00000000 0.70710678
vn -0.70710678 0.00000000 0.70710678
vn -0.70710678 0.00000000 0.70710678
vn 0.00000000 1.00000000 0.00000000
vn 0.00000000 1.00000000 0.00000000
vn 0.00000000 1.00000000 0.00000000
vn 0.00000000 1.00000000 0.00000000
vn 0.00000000 1.00000000 0.00000000
vn 0.00000000 1.00000000 0.00000000
vn 0.00000000 1.00000000 0.00000000
vn 0.00000000 1.00000000 0.00000000
vn 0.00000000 1.00000000 0.00000000
vn 0.70710678 0.70710678 0.00000000
vn 0.70710678 0.70710678 0.00000000
vn 0.70710678 0.70710678 0.00000000
vn 0.70710678 0.70710678 0.00000000
vn 0.50000000 0.70710678 -0.50000000
vn 0.50000000 0.70710678 -0.50000000
vn 0.50000000 0.70710678 -0.50000000
vn 0.50000000 0.70710678 -0.50000000
vn 0.50000000 0.70710678 0.50000000
vn 0.50000000 0.70710678 0.50000000
vn 0.50000000 0.70710678 0.50000000
vn 0.50000000 0.70710678 0.50000000
vn 0.00000000 0.70710678 0.70710678
vn 0.00000000 0.70710678 0.70710678
vn 0.00000000 0.70710678 0.70710678
vn 0.00000000 0.70710678 0.70710678
vn 0.00000000 0.70710678 -0.70710678
vn 0.00000000 0.70710678 -0.70710678
vn 0.00000000 0.70710678 -0.70710678
vn 0.00000000 0.70710678 -0.70710678
vn -0.70710678 0.70710678 0.00000000
vn -0.70710678 0.70710678 0.00000000
vn -0.70710678 0.70710678 0.00000000
vn -0.70710678 0.70710678 0.00000000
vn -0.50000000 0.70710678 -0.50000000
vn -0.50000000 0.70710678 -0.50000000
vn -0.50000000 0.70710678 -0.50000000
vn -0.50000000 0.70710678 -0.50000000
vn -0.50000000 0.70710678 0.50000000
vn -0.50000000 0.70710678 0.50000000
vn -0.50000000 0.70710678 0.50000000
vn -0.50000000 0.70710678 0.50000000
s 1
usemtl Sandstone_4
f 1/1/1 2/2/2 4/4/4
f 2/2/2 3/3/3 4/4/4
s 2
f 8/8/8 7/7/7 5/5/5
f 7/7/7 6/6/6 5/5/5
s 3
f 12/12/12 11/11/11 9/9/9
f 11/11/11 10/10/10 9/9/9
s 4
f 13/13/13 14/14/14 16/16/16
f 14/14/14 15/15/15 16/16/16
s 5
f 12/17/17 16/18/18 17/25/25
f 8/23/23 11/24/24 17/25/25
f 7/22/22 8/23/23 17/25/25
f 3/21/21 7/22/22 17/25/25
f 4/20/20 3/21/21 17/25/25
f 15/19/19 4/20/20 17/25/25
f 16/18/18 15/19/19 17/25/25
f 11/24/24 12/17/17 17/25/25
s 6
f 2/26/26 6/27/27 3/29/29
f 6/27/27 7/28/28 3/29/29
s 7
f 5/30/30 10/31/31 8/33/33
f 10/31/31 11/32/32 8/33/33
s 8
f 14/34/34 1/35/35 15/37/37
f 1/35/35 4/36/36 15/37/37
s 9
f 9/38/38 13/39/39 12/41/41
f 13/39/39 16/40/40 12/41/41
s 10
f 25/49/49 24/48/48 26/50/50
f 19/43/43 18/42/42 26/50/50
f 20/44/44 19/43/43 26/50/50
f 21/45/45 20/44/44 26/50/50
f 22/46/46 21/45/45 26/50/50
f 23/47/47 22/46/46 26/50/50
f 24/48/48 23/47/47 26/50/50
f 18/42/42 25/49/49 26/50/50
s 11
f 5/51/51 6/52/52 24/54/54
f 6/52/52 23/53/53 24/54/54
s 12
f 22/55/55 23/56/56 6/57/57
f 22/55/55 6/57/57 2/58/58
s 13
f 24/59/59 25/60/60 5/62/62
f 25/60/60 10/61/61 5/62/62
s 14
f 9/63/63 10/64/64 25/65/65
f 9/63/63 25/65/65 18/66/66
s 15
f 21/67/67 22/68/68 2/69/69
f 21/67/67 2/69/69 1/70/70
s 16
f 19/71/71 20/72/72 13/74/74
f 20/72/72 14/73/73 13/74/74
s 17
f 20/75/75 21/76/76 14/78/78
f 21/76/76 1/77/77 14/78/78
s 18
f 18/79/79 19/80/80 9/82/82
f 19/80/80 13/81/81 9/82/82
