mtllib Materials_Modular_Temple.mtl
o object1
g object1
v -0.50000000 0.55000000 0.45000000
v -0.50000000 0.45000000 0.45000000
v -0.50000000 0.45000000 0.50000000
v -0.50000000 0.55000000 0.50000000
v 0.50000000 0.55000000 0.45000000
v 0.50000000 0.45000000 0.45000000
v 0.05000000 0.45000000 0.45000000
v 0.05000000 -0.00000000 0.45000000
v -0.05000000 -0.00000000 0.45000000
v -0.05000000 0.45000000 0.45000000
v -0.05000000 0.45000000 0.50000000
v -0.05000000 -0.00000000 0.50000000
v 0.05000000 -0.00000000 0.50000000
v 0.05000000 0.45000000 0.50000000
v 0.50000000 0.45000000 0.50000000
v 0.50000000 0.55000000 0.50000000
vt 1.00000000 0.00000000
vt 1.00000000 1.00000000
vt 0.00000000 1.00000000
vt 0.00000000 0.00000000
vt 0.18181818 1.00000000
vt 0.00000000 1.00000000
vt 0.00000000 0.00000000
vt 0.18181818 0.00000000
vt 0.18181818 0.45000000
vt 1.00000000 0.45000000
vt 1.00000000 0.55000000
vt 0.18181818 0.55000000
vt 1.00000000 0.00000000
vt 1.00000000 1.00000000
vt 0.00000000 1.00000000
vt 0.00000000 0.00000000
vt 1.00000000 0.00000000
vt 1.00000000 1.00000000
vt 0.00000000 1.00000000
vt 0.00000000 0.00000000
vt 1.00000000 0.00000000
vt 1.00000000 1.00000000
vt 0.00000000 1.00000000
vt 0.00000000 0.00000000
vt 1.00000000 0.00000000
vt 1.00000000 1.00000000
vt 0.00000000 1.00000000
vt 0.00000000 0.00000000
vt 1.00000000 0.00000000
vt 1.00000000 1.00000000
vt 0.00000000 1.00000000
vt 0.00000000 0.00000000
vt 1.00000000 0.00000000
vt 1.00000000 1.00000000
vt 0.00000000 1.00000000
vt 0.00000000 0.00000000
vt 0.18181818 1.00000000
vt 0.00000000 1.00000000
vt 0.00000000 0.00000000
vt 0.18181818 0.00000000
vt 0.18181818 0.45000000
vt 1.00000000 0.45000000
vt 1.00000000 0.55000000
vt 0.18181818 0.55000000
vt 1.00000000 0.00000000
vt 1.00000000 1.00000000
vt 0.00000000 1.00000000
vt 0.00000000 0.00000000
vn -1.00000000 0.00000000 0.00000000
vn -1.00000000 0.00000000 0.00000000
vn -1.00000000 0.00000000 0.00000000
vn -1.00000000 0.00000000 0.00000000
vn 0.00000000 0.00000000 -1.00000000
vn 0.00000000 0.00000000 -1.00000000
vn 0.00000000 0.00000000 -1.00000000
vn 0.00000000 0.00000000 -1.00000000
vn 0.00000000 0.00000000 -1.00000000
vn 0.00000000 0.00000000 -1.00000000
vn 0.00000000 0.00000000 -1.00000000
vn 0.00000000 0.00000000 -1.00000000
vn -1.00000000 -0.00000000 0.00000000
vn -1.00000000 -0.00000000 0.00000000
vn -1.00000000 -0.00000000 0.00000000
vn -1.00000000 -0.00000000 0.00000000
vn -0.00000000 -1.00000000 0.00000000
vn -0.00000000 -1.00000000 0.00000000
vn -0.00000000 -1.00000000 0.00000000
vn -0.00000000 -1.00000000 0.00000000
vn 1.00000000 0.00000000 0.00000000
vn 1.00000000 0.00000000 0.00000000
vn 1.00000000 0.00000000 0.00000000
vn 1.00000000 0.00000000 0.00000000
vn 0.00000000 -1.00000000 0.00000000
vn 0.00000000 -1.00000000 0.00000000
vn 0.00000000 -1.00000000 0.00000000
vn 0.00000000 -1.00000000 0.00000000
vn 1.00000000 0.00000000 0.00000000
vn 1.00000000 0.00000000 0.00000000
vn 1.00000000 0.00000000 0.00000000
vn 1.00000000 0.00000000 0.00000000
vn -0.00000000 1.00000000 0.00000000
vn -0.00000000 1.00000000 0.00000000
vn -0.00000000 1.00000000 0.00000000
vn -0.00000000 1.00000000 0.00000000
vn 0.00000000 0.00000000 1.00000000
vn 0.00000000 0.00000000 1.00000000
vn 0.00000000 0.00000000 1.00000000
vn 0.00000000 0.00000000 1.00000000
vn 0.00000000 0.00000000 1.00000000
vn 0.00000000 0.00000000 1.00000000
vn 0.00000000 0.00000000 1.00000000
vn 0.00000000 0.00000000 1.00000000
vn 0.00000000 -1.00000000 0.00000000
vn 0.00000000 -1.00000000 0.00000000
vn 0.00000000 -1.00000000 0.00000000
vn 0.00000000 -1.00000000 0.00000000
s 1
usemtl Green_Stone_-_Dark
f 1/1/1 2/2/2 3/3/3
f 1/1/1 3/3/3 4/4/4
s 2
f 7/9/9 8/10/10 9/11/11
f 5/7/7 7/9/9 10/12/12
f 10/12/12 2/5/5 1/6/6
f 10/12/12 1/6/6 5/7/7
f 5/7/7 6/8/8 7/9/9
f 7/9/9 9/11/11 10/12/12
s 3
f 12/16/16 11/15/15 9/13/13
f 11/15/15 10/14/14 9/13/13
s 4
f 9/17/17 8/18/18 13/19/19
f 9/17/17 13/19/19 12/20/20
s 5
f 14/24/24 13/23/23 8/22/22
f 14/24/24 8/22/22 7/21/21
s 6
f 15/28/28 14/27/27 6/25/25
f 14/27/27 7/26/26 6/25/25
s 7
f 6/29/29 5/30/30 15/32/32
f 5/30/30 16/31/31 15/32/32
s 8
f 4/36/36 16/35/35 5/34/34
f 4/36/36 5/34/34 1/33/33
s 9
f 12/43/43 13/42/42 14/41/41
f 11/44/44 14/41/41 16/39/39
f 16/39/39 4/38/38 11/44/44
f 4/38/38 3/37/37 11/44/44
f 14/41/41 15/40/40 16/39/39
f 11/44/44 12/43/43 14/41/41
s 10
f 11/48/48 3/47/47 10/45/45
f 3/47/47 2/46/46 10/45/45
o object2
g object2
v -0.05000000 0.45000000 0.43750000
v -0.05000000 -0.00000000 0.43750000
v -0.08750000 -0.00000000 0.40000000
v -0.08750000 0.41250000 0.40000000
v -0.05000000 -0.00000000 0.50000000
v -0.05000000 0.45000000 0.50000000
v -0.50000000 0.45000000 0.50000000
v -0.50000000 0.55000000 0.50000000
v 0.50000000 0.55000000 0.50000000
v 0.50000000 0.45000000 0.50000000
v 0.05000000 0.45000000 0.50000000
v 0.05000000 -0.00000000 0.50000000
v -0.50000000 -0.00000000 0.40000000
v -0.50000000 -0.00000000 0.60000000
v -0.50000000 1.00000000 0.60000000
v -0.50000000 1.00000000 0.40000000
v -0.50000000 0.68750000 0.40000000
v -0.50000000 0.63750000 0.45000000
v -0.50000000 0.58750000 0.40000000
v -0.50000000 0.55000000 0.43750000
v -0.50000000 0.45000000 0.43750000
v -0.50000000 0.41250000 0.40000000
v -0.50000000 0.36250000 0.45000000
v -0.50000000 0.31250000 0.40000000
v -0.18750000 0.31250000 0.40000000
v -0.18750000 -0.00000000 0.40000000
v -0.13750000 0.00000000 0.45000000
v -0.13750000 0.36250000 0.45000000
v 0.50000000 0.55000000 0.43750000
v 0.50000000 0.58750000 0.40000000
v 0.50000000 0.63750000 0.45000000
v 0.50000000 0.68750000 0.40000000
v 0.50000000 1.00000000 0.40000000
v 0.50000000 1.00000000 0.60000000
v 0.50000000 -0.00000000 0.60000000
v 0.05000000 -0.00000000 0.43750000
v 0.05000000 0.45000000 0.43750000
v 0.08750000 0.41250000 0.40000000
v 0.08750000 -0.00000000 0.40000000
v 0.13750000 -0.00000000 0.45000000
v 0.13750000 0.36250000 0.45000000
v 0.50000000 0.41250000 0.40000000
v 0.50000000 0.36250000 0.45000000
v 0.50000000 0.31250000 0.40000000
v 0.18750000 0.31250000 0.40000000
v 0.50000000 -0.00000000 0.40000000
v 0.18750000 -0.00000000 0.40000000
v 0.50000000 0.45000000 0.43750000
vt 1.00000000 1.00000000
vt 0.00000000 1.00000000
vt 0.00000000 0.00000000
vt 0.91666667 0.00000000
vt 1.00000000 0.00000000
vt 1.00000000 1.00000000
vt 0.00000000 1.00000000
vt 0.00000000 0.00000000
vt 0.18181818 1.00000000
vt 0.00000000 1.00000000
vt 0.00000000 0.00000000
vt 0.18181818 0.00000000
vt 0.18181818 0.45000000
vt 1.00000000 0.45000000
vt 1.00000000 0.55000000
vt 0.18181818 0.55000000
vt 0.00000000 0.00000000
vt 1.00000000 0.00000000
vt 1.00000000 1.00000000
vt 0.00000000 1.00000000
vt 0.00000000 0.68750000
vt 0.25000000 0.63750000
vt 0.00000000 0.58750000
vt 0.18750000 0.55000000
vt 0.50000000 0.55000000
vt 0.50000000 0.45000000
vt 0.18750000 0.45000000
vt 0.00000000 0.41250000
vt 0.25000000 0.36250000
vt 0.00000000 0.31250000
vt 1.00000000 1.00000000
vt 0.00000000 1.00000000
vt 0.00000000 0.00000000
vt 1.00000000 0.00000000
vt 0.00000000 1.00000000
vt 0.00000000 0.00000000
vt 1.00000000 0.00000000
vt 0.86206897 1.00000000
vt 0.00000000 1.00000000
vt 0.00000000 0.00000000
vt 0.86206897 0.00000000
vt 1.00000000 1.00000000
vt 0.00000000 0.00000000
vt 0.87878788 0.00000000
vt 1.00000000 1.00000000
vt 0.00000000 1.00000000
vt 1.00000000 1.00000000
vt 0.00000000 1.00000000
vt 0.00000000 0.00000000
vt 1.00000000 0.00000000
vt 1.00000000 0.00000000
vt 1.00000000 1.00000000
vt 0.00000000 1.00000000
vt 0.00000000 0.00000000
vt 1.00000000 0.00000000
vt 1.00000000 1.00000000
vt 0.00000000 1.00000000
vt 0.00000000 0.00000000
vt 0.00000000 1.00000000
vt 0.00000000 0.00000000
vt 1.00000000 0.00000000
vt 1.00000000 1.00000000
vt 1.00000000 0.00000000
vt 1.00000000 1.00000000
vt 0.00000000 1.00000000
vt 0.00000000 0.00000000
vt 0.00000000 0.00000000
vt 1.00000000 0.00000000
vt 1.00000000 1.00000000
vt 0.00000000 1.00000000
vt 1.00000000 0.00000000
vt 1.00000000 1.00000000
vt 0.00000000 1.00000000
vt 0.00000000 0.00000000
vt 1.00000000 1.00000000
vt 0.00000000 1.00000000
vt 0.08333333 0.00000000
vt 1.00000000 0.00000000
vt 0.00000000 1.00000000
vt 0.00000000 0.00000000
vt 0.87878788 0.00000000
vt 1.00000000 1.00000000
vt 0.00000000 0.00000000
vt 1.00000000 0.00000000
vt 0.87878788 1.00000000
vt 0.00000000 1.00000000
vt 0.00000000 1.00000000
vt 0.00000000 0.00000000
vt 1.00000000 0.00000000
vt 0.86206897 1.00000000
vt 1.00000000 0.00000000
vt 1.00000000 1.00000000
vt 0.00000000 1.00000000
vt 0.00000000 0.00000000
vt 0.00000000 1.00000000
vt 0.00000000 0.00000000
vt 0.86206897 0.00000000
vt 1.00000000 1.00000000
vt 1.00000000 1.00000000
vt 0.00000000 1.00000000
vt 0.00000000 0.00000000
vt 0.91666667 0.00000000
vt 1.00000000 0.00000000
vt 1.00000000 1.00000000
vt 0.00000000 1.00000000
vt 0.00000000 0.00000000
vt 0.50000000 0.55000000
vt 0.50000000 0.45000000
vt 0.18750000 0.45000000
vt 0.00000000 0.41250000
vt 0.25000000 0.36250000
vt 0.00000000 0.31250000
vt 0.00000000 0.00000000
vt 1.00000000 0.00000000
vt 1.00000000 1.00000000
vt 0.00000000 1.00000000
vt 0.00000000 0.68750000
vt 0.25000000 0.63750000
vt 0.00000000 0.58750000
vt 0.18750000 0.55000000
vt 1.00000000 0.00000000
vt 1.00000000 1.00000000
vt 0.00000000 1.00000000
vt 0.00000000 0.00000000
vt 1.00000000 0.00000000
vt 1.00000000 1.00000000
vt 0.00000000 1.00000000
vt 0.00000000 0.00000000
vt 1.00000000 1.00000000
vt 0.00000000 1.00000000
vt 0.08333333 0.00000000
vt 1.00000000 0.00000000
vt 0.00000000 0.00000000
vt 1.00000000 0.00000000
vt 0.87878788 1.00000000
vt 0.00000000 1.00000000
vt 0.00000000 0.00000000
vt 1.00000000 0.00000000
vt 1.00000000 1.00000000
vt 0.00000000 1.00000000
vt 0.00000000 0.68750000
vt 0.25000000 0.63750000
vt 0.00000000 0.58750000
vt 0.18750000 0.55000000
vt 0.50000000 0.55000000
vt 0.50000000 0.45000000
vt 0.18750000 0.45000000
vt 0.00000000 0.41250000
vt 0.25000000 0.36250000
vt 0.00000000 0.31250000
vn 0.70710678 0.00000000 -0.70710678
vn 0.70710678 0.00000000 -0.70710678
vn 0.70710678 0.00000000 -0.70710678
vn 0.70710678 0.00000000 -0.70710678
vn 1.00000000 0.00000000 0.00000000
vn 1.00000000 0.00000000 0.00000000
vn 1.00000000 0.00000000 0.00000000
vn 1.00000000 0.00000000 0.00000000
vn 0.00000000 0.00000000 -1.00000000
vn 0.00000000 0.00000000 -1.00000000
vn 0.00000000 0.00000000 -1.00000000
vn 0.00000000 0.00000000 -1.00000000
vn 0.00000000 0.00000000 -1.00000000
vn 0.00000000 0.00000000 -1.00000000
vn 0.00000000 0.00000000 -1.00000000
vn 0.00000000 0.00000000 -1.00000000
vn -1.00000000 -0.00000000 0.00000000
vn -1.00000000 -0.00000000 0.00000000
vn -1.00000000 -0.00000000 0.00000000
vn -1.00000000 -0.00000000 0.00000000
vn -1.00000000 -0.00000000 0.00000000
vn -1.00000000 -0.00000000 0.00000000
vn -1.00000000 -0.00000000 0.00000000
vn -1.00000000 -0.00000000 0.00000000
vn -1.00000000 -0.00000000 0.00000000
vn -1.00000000 -0.00000000 0.00000000
vn -1.00000000 -0.00000000 0.00000000
vn -1.00000000 -0.00000000 0.00000000
vn -1.00000000 -0.00000000 0.00000000
vn -1.00000000 -0.00000000 0.00000000
vn 0.00000000 0.00000000 -1.00000000
vn 0.00000000 0.00000000 -1.00000000
vn 0.00000000 0.00000000 -1.00000000
vn 0.00000000 0.00000000 -1.00000000
vn 0.70710678 0.00000000 -0.70710678
vn 0.70710678 0.00000000 -0.70710678
vn 0.70710678 0.00000000 -0.70710678
vn 0.70710678 0.00000000 -0.70710678
vn 0.00000000 0.70710678 -0.70710678
vn 0.00000000 0.70710678 -0.70710678
vn 0.00000000 0.70710678 -0.70710678
vn 0.00000000 0.70710678 -0.70710678
vn 0.00000000 -0.70710678 -0.70710678
vn 0.00000000 -0.70710678 -0.70710678
vn 0.00000000 -0.70710678 -0.70710678
vn 0.00000000 -0.70710678 -0.70710678
vn 0.00000000 -0.70710678 -0.70710678
vn 0.00000000 -0.70710678 -0.70710678
vn 0.00000000 -0.70710678 -0.70710678
vn 0.00000000 -0.70710678 -0.70710678
vn 0.00000000 0.70710678 -0.70710678
vn 0.00000000 0.70710678 -0.70710678
vn 0.00000000 0.70710678 -0.70710678
vn 0.00000000 0.70710678 -0.70710678
vn 0.00000000 -0.70710678 -0.70710678
vn 0.00000000 -0.70710678 -0.70710678
vn 0.00000000 -0.70710678 -0.70710678
vn 0.00000000 -0.70710678 -0.70710678
vn 0.00000000 0.00000000 -1.00000000
vn 0.00000000 0.00000000 -1.00000000
vn 0.00000000 0.00000000 -1.00000000
vn 0.00000000 0.00000000 -1.00000000
vn 0.00000000 1.00000000 0.00000000
vn 0.00000000 1.00000000 0.00000000
vn 0.00000000 1.00000000 0.00000000
vn 0.00000000 1.00000000 0.00000000
vn 0.00000000 -0.00000000 1.00000000
vn 0.00000000 -0.00000000 1.00000000
vn 0.00000000 -0.00000000 1.00000000
vn 0.00000000 -0.00000000 1.00000000
vn -1.00000000 -0.00000000 0.00000000
vn -1.00000000 -0.00000000 0.00000000
vn -1.00000000 -0.00000000 0.00000000
vn -1.00000000 -0.00000000 0.00000000
vn -0.70710678 -0.00000000 -0.70710678
vn -0.70710678 -0.00000000 -0.70710678
vn -0.70710678 -0.00000000 -0.70710678
vn -0.70710678 -0.00000000 -0.70710678
vn 0.70710678 0.00000000 -0.70710678
vn 0.70710678 0.00000000 -0.70710678
vn 0.70710678 0.00000000 -0.70710678
vn 0.70710678 0.00000000 -0.70710678
vn 0.00000000 -0.70710678 -0.70710678
vn 0.00000000 -0.70710678 -0.70710678
vn 0.00000000 -0.70710678 -0.70710678
vn 0.00000000 -0.70710678 -0.70710678
vn -0.00000000 0.70710678 -0.70710678
vn -0.00000000 0.70710678 -0.70710678
vn -0.00000000 0.70710678 -0.70710678
vn -0.00000000 0.70710678 -0.70710678
vn 0.00000000 0.00000000 -1.00000000
vn 0.00000000 0.00000000 -1.00000000
vn 0.00000000 0.00000000 -1.00000000
vn 0.00000000 0.00000000 -1.00000000
vn -0.70710678 -0.00000000 -0.70710678
vn -0.70710678 -0.00000000 -0.70710678
vn -0.70710678 -0.00000000 -0.70710678
vn -0.70710678 -0.00000000 -0.70710678
vn -0.00000000 0.70710678 -0.70710678
vn -0.00000000 0.70710678 -0.70710678
vn -0.00000000 0.70710678 -0.70710678
vn -0.00000000 0.70710678 -0.70710678
vn -0.00000000 1.00000000 0.00000000
vn -0.00000000 1.00000000 0.00000000
vn -0.00000000 1.00000000 0.00000000
vn -0.00000000 1.00000000 0.00000000
vn 1.00000000 0.00000000 0.00000000
vn 1.00000000 0.00000000 0.00000000
vn 1.00000000 0.00000000 0.00000000
vn 1.00000000 0.00000000 0.00000000
vn 1.00000000 0.00000000 0.00000000
vn 1.00000000 0.00000000 0.00000000
vn 1.00000000 0.00000000 0.00000000
vn 1.00000000 0.00000000 0.00000000
vn 1.00000000 0.00000000 0.00000000
vn 1.00000000 0.00000000 0.00000000
vn 1.00000000 0.00000000 0.00000000
vn 1.00000000 0.00000000 0.00000000
vn 1.00000000 0.00000000 0.00000000
vn 1.00000000 0.00000000 0.00000000
vn 0.00000000 -1.00000000 0.00000000
vn 0.00000000 -1.00000000 0.00000000
vn 0.00000000 -1.00000000 0.00000000
vn 0.00000000 -1.00000000 0.00000000
vn 0.00000000 1.00000000 0.00000000
vn 0.00000000 1.00000000 0.00000000
vn 0.00000000 1.00000000 0.00000000
vn 0.00000000 1.00000000 0.00000000
vn 0.00000000 0.70710678 -0.70710678
vn 0.00000000 0.70710678 -0.70710678
vn 0.00000000 0.70710678 -0.70710678
vn 0.00000000 0.70710678 -0.70710678
vn -0.70710678 -0.00000000 -0.70710678
vn -0.70710678 -0.00000000 -0.70710678
vn -0.70710678 -0.00000000 -0.70710678
vn -0.70710678 -0.00000000 -0.70710678
vn -0.00000000 -1.00000000 0.00000000
vn -0.00000000 -1.00000000 0.00000000
vn -0.00000000 -1.00000000 0.00000000
vn -0.00000000 -1.00000000 0.00000000
vn -0.00000000 -1.00000000 0.00000000
vn -0.00000000 -1.00000000 0.00000000
vn -0.00000000 -1.00000000 0.00000000
vn -0.00000000 -1.00000000 0.00000000
vn -0.00000000 -1.00000000 0.00000000
vn -0.00000000 -1.00000000 0.00000000
vn -0.00000000 -1.00000000 0.00000000
vn -0.00000000 -1.00000000 0.00000000
vn -0.00000000 -1.00000000 0.00000000
vn -0.00000000 -1.00000000 0.00000000
s 1
usemtl Sandstone_5
f 17/49/49 18/50/50 20/52/52
f 18/50/50 19/51/51 20/52/52
s 2
f 18/56/56 17/55/55 21/53/53
f 17/55/55 22/54/54 21/53/53
s 3
f 27/61/61 28/62/62 21/63/63
f 25/59/59 27/61/61 22/64/64
f 22/64/64 23/57/57 24/58/58
f 22/64/64 24/58/58 25/59/59
f 25/59/59 26/60/60 27/61/61
f 27/61/61 21/63/63 22/64/64
s 4
usemtl Sandstone_Trim
f 34/70/70 35/71/71 36/72/72
f 31/67/67 34/70/70 24/73/73
f 30/66/66 24/73/73 23/74/74
f 23/74/74 37/75/75 39/77/77
f 37/75/75 38/76/76 39/77/77
f 23/74/74 39/77/77 30/66/66
f 39/77/77 40/78/78 30/66/66
f 40/78/78 29/65/65 30/66/66
f 30/66/66 31/67/67 24/73/73
f 31/67/67 32/68/68 33/69/69
f 31/67/67 33/69/69 34/70/70
f 34/70/70 36/72/72 24/73/73
s 5
f 29/79/79 40/80/80 42/82/82
f 40/80/80 41/81/81 42/82/82
s 6
f 41/86/86 44/85/85 43/84/84
f 41/86/86 43/84/84 42/83/83
s 7
f 44/90/90 41/89/89 39/87/87
f 41/89/89 40/88/88 39/87/87
s 8
usemtl Sandstone_5
f 38/94/94 20/93/93 44/92/92
f 38/94/94 44/92/92 39/91/91
s 9
f 45/95/95 36/96/96 46/98/98
f 36/96/96 35/97/97 46/98/98
s 10
f 47/99/99 46/100/100 34/102/102
f 46/100/100 35/101/101 34/102/102
s 11
usemtl Sandstone_Trim
f 48/103/103 47/104/104 33/106/106
f 47/104/104 34/105/105 33/106/106
s 12
f 32/107/107 49/108/108 48/109/109
f 32/107/107 48/109/109 33/110/110
s 13
f 31/111/111 50/112/112 49/113/113
f 31/111/111 49/113/113 32/114/114
s 14
f 31/118/118 30/117/117 51/116/116
f 31/118/118 51/116/116 50/115/115
s 15
usemtl Sandstone_5
f 53/122/122 52/121/121 28/120/120
f 53/122/122 28/120/120 27/119/119
s 16
f 52/123/123 53/124/124 54/125/125
f 52/123/123 54/125/125 55/126/126
s 17
f 54/130/130 57/129/129 55/127/127
f 57/129/129 56/128/128 55/127/127
s 18
f 59/134/134 57/133/133 58/131/131
f 57/133/133 54/132/132 58/131/131
s 19
usemtl Sandstone_Trim
f 61/138/138 57/137/137 59/136/136
f 61/138/138 59/136/136 60/135/135
s 20
f 62/139/139 63/140/140 60/142/142
f 63/140/140 61/141/141 60/142/142
s 21
f 57/146/146 61/145/145 56/143/143
f 61/145/145 63/144/144 56/143/143
s 22
usemtl Sandstone_5
f 53/147/147 64/148/148 54/150/150
f 64/148/148 58/149/149 54/150/150
s 23
f 64/154/154 53/153/153 26/151/151
f 53/153/153 27/152/152 26/151/151
s 24
usemtl Sandstone_Trim
f 59/166/166 58/167/167 64/168/168
f 51/163/163 59/166/166 26/155/155
f 26/155/155 25/156/156 51/163/163
f 25/156/156 47/159/159 50/162/162
f 48/160/160 49/161/161 50/162/162
f 47/159/159 48/160/160 50/162/162
f 45/157/157 46/158/158 47/159/159
f 25/156/156 45/157/157 47/159/159
f 25/156/156 50/162/162 51/163/163
f 51/163/163 62/164/164 60/165/165
f 51/163/163 60/165/165 59/166/166
f 59/166/166 64/168/168 26/155/155
s 25
usemtl Sandstone_5
f 36/172/172 45/171/171 25/170/170
f 36/172/172 25/170/170 24/169/169
s 26
f 17/176/176 37/175/175 22/173/173
f 37/175/175 23/174/174 22/173/173
s 27
f 37/177/177 17/178/178 20/179/179
f 37/177/177 20/179/179 38/180/180
s 28
f 43/184/184 44/183/183 19/181/181
f 44/183/183 20/182/182 19/181/181
s 29
usemtl Sandstone_Trim
f 43/190/190 19/191/191 18/192/192
f 30/187/187 43/190/190 21/193/193
f 30/187/187 21/193/193 28/194/194
f 28/194/194 56/197/197 51/186/186
f 63/198/198 62/185/185 51/186/186
f 56/197/197 63/198/198 51/186/186
f 52/195/195 55/196/196 56/197/197
f 28/194/194 52/195/195 56/197/197
f 28/194/194 51/186/186 30/187/187
f 30/187/187 29/188/188 42/189/189
f 30/187/187 42/189/189 43/190/190
f 43/190/190 18/192/192 21/193/193
