mtllib Materials_Modular_Temple.mtl
o object1
g object1
v -0.35000000 -0.20000000 0.35000000
v -0.25000000 -0.30000000 0.25000000
v 0.25000000 -0.30000000 0.25000000
v 0.35000000 -0.20000000 0.35000000
v -0.35000000 -0.20000000 -0.35000000
v -0.25000000 -0.30000000 -0.25000000
v -0.35000000 -0.20000000 0.00000000
v 0.35000000 -0.20000000 -0.35000000
v 0.25000000 -0.30000000 -0.25000000
v 0.35000000 -0.20000000 0.00000000
v 0.50000000 -0.20000000 0.00000000
v 0.50000000 -0.20000000 -0.40000000
v 0.40000000 -0.20000000 -0.50000000
v -0.40000000 -0.20000000 -0.50000000
v -0.50000000 -0.20000000 -0.40000000
v -0.50000000 -0.20000000 0.00000000
v -0.50000000 -0.20000000 0.40000000
v -0.40000000 -0.20000000 0.50000000
v 0.40000000 -0.20000000 0.50000000
v 0.50000000 -0.20000000 0.40000000
v -0.50000000 -0.02500000 0.40000000
v -0.50000000 -0.02500000 0.00000000
v -0.50000000 -0.02500000 -0.40000000
v -0.45000000 0.00000000 -0.05000000
v -0.45000000 0.00000000 -0.37928932
v -0.37928932 0.00000000 -0.45000000
v -0.05000000 0.00000000 -0.05000000
v -0.05000000 0.00000000 -0.45000000
v -0.00000000 -0.02500000 -0.50000000
v -0.40000000 -0.02500000 -0.50000000
v -0.00000000 -0.02500000 0.00000000
v 0.05000000 0.00000000 -0.05000000
v 0.05000000 0.00000000 -0.45000000
v 0.45000000 0.00000000 -0.05000000
v 0.45000000 0.00000000 -0.37928932
v 0.37928932 0.00000000 -0.45000000
v 0.50000000 -0.02500000 0.00000000
v 0.50000000 -0.02500000 -0.40000000
v 0.40000000 -0.02500000 -0.50000000
v 0.05000000 0.00000000 0.05000000
v 0.45000000 0.00000000 0.05000000
v 0.37928932 0.00000000 0.45000000
v 0.45000000 0.00000000 0.37928932
v 0.05000000 0.00000000 0.45000000
v 0.40000000 -0.02500000 0.50000000
v 0.50000000 -0.02500000 0.40000000
v -0.00000000 -0.02500000 0.50000000
v -0.05000000 0.00000000 0.05000000
v -0.05000000 0.00000000 0.45000000
v -0.45000000 0.00000000 0.05000000
v -0.45000000 0.00000000 0.37928932
v -0.37928932 0.00000000 0.45000000
v -0.40000000 -0.02500000 0.50000000
vt 0.00000000 1.00000000
vt 0.14285714 0.00000000
vt 0.85714286 0.00000000
vt 1.00000000 1.00000000
vt 0.14285714 1.00000000
vt 0.00000000 0.00000000
vt 1.00000000 0.00000000
vt 0.85714286 1.00000000
vt 0.50000000 0.00000000
vt 0.14285714 1.00000000
vt 0.00000000 0.00000000
vt 1.00000000 0.00000000
vt 0.85714286 1.00000000
vt 0.50000000 0.15000000
vt 0.15000000 0.15000000
vt 0.15000000 0.85000000
vt 0.50000000 0.85000000
vt 0.50000000 1.00000000
vt 0.10000000 1.00000000
vt 0.00000000 0.90000000
vt 0.00000000 0.10000000
vt 0.10000000 0.00000000
vt 0.50000000 0.00000000
vt 0.85000000 0.85000000
vt 0.85000000 0.15000000
vt 0.90000000 0.00000000
vt 1.00000000 0.10000000
vt 1.00000000 0.90000000
vt 0.90000000 1.00000000
vt 0.00000000 1.00000000
vt 0.00000000 0.00000000
vt 0.50000000 0.00000000
vt 1.00000000 0.00000000
vt 1.00000000 1.00000000
vt 0.50000000 1.00000000
vt 0.87500000 1.00000000
vt 0.05177670 1.00000000
vt 0.00000000 0.00000000
vt 1.00000000 0.00000000
vt 0.00000000 0.17677670
vt 0.17677670 0.00000000
vt 1.00000000 0.00000000
vt 1.00000000 1.00000000
vt 0.00000000 1.00000000
vt 1.00000000 1.00000000
vt 0.00000000 1.00000000
vt 0.05177670 0.00000000
vt 0.87500000 0.00000000
vt 0.00000000 0.00000000
vt 1.00000000 0.00000000
vt 1.00000000 1.00000000
vt 0.11111111 1.00000000
vt 0.11111111 0.00000000
vt 1.00000000 0.00000000
vt 1.00000000 1.00000000
vt 0.00000000 1.00000000
vt 1.00000000 1.00000000
vt 0.17677670 1.00000000
vt 0.00000000 0.82322330
vt 0.00000000 0.00000000
vt 1.00000000 0.00000000
vt 1.00000000 1.00000000
vt 0.00000000 1.00000000
vt 0.05177670 0.00000000
vt 0.87500000 0.00000000
vt 0.85355339 0.00000000
vt 1.00000000 1.00000000
vt 0.00000000 1.00000000
vt 0.14644661 0.00000000
vt 1.00000000 1.00000000
vt 0.00000000 1.00000000
vt 0.00000000 0.00000000
vt 0.88888889 0.00000000
vt 0.88888889 1.00000000
vt 0.00000000 1.00000000
vt 0.00000000 0.00000000
vt 1.00000000 0.00000000
vt 1.00000000 0.82322330
vt 0.82322330 1.00000000
vt 0.00000000 1.00000000
vt 0.00000000 0.00000000
vt 1.00000000 0.00000000
vt 0.85355339 0.00000000
vt 1.00000000 1.00000000
vt 0.00000000 1.00000000
vt 0.14644661 0.00000000
vt 0.00000000 0.00000000
vt 1.00000000 0.00000000
vt 0.94822330 1.00000000
vt 0.12500000 1.00000000
vt 1.00000000 1.00000000
vt 0.00000000 1.00000000
vt 0.00000000 0.00000000
vt 0.88888889 0.00000000
vt 0.88888889 1.00000000
vt 0.00000000 1.00000000
vt 0.00000000 0.00000000
vt 1.00000000 0.00000000
vt 0.00000000 0.00000000
vt 0.82322330 0.00000000
vt 1.00000000 0.17677670
vt 1.00000000 1.00000000
vt 0.00000000 1.00000000
vt 0.85355339 0.00000000
vt 1.00000000 1.00000000
vt 0.00000000 1.00000000
vt 0.14644661 0.00000000
vt 0.00000000 0.00000000
vt 1.00000000 0.00000000
vt 1.00000000 1.00000000
vt 0.11111111 1.00000000
vt 0.87500000 1.00000000
vt 0.05177670 1.00000000
vt 0.00000000 0.00000000
vt 1.00000000 0.00000000
vt 0.12500000 0.00000000
vt 0.94822330 0.00000000
vt 1.00000000 1.00000000
vt 0.00000000 1.00000000
vt 0.12500000 0.00000000
vt 0.94822330 0.00000000
vt 1.00000000 1.00000000
vt 0.00000000 1.00000000
vt 0.11111111 0.00000000
vt 1.00000000 0.00000000
vt 1.00000000 1.00000000
vt 0.00000000 1.00000000
vt 0.85355339 0.00000000
vt 1.00000000 1.00000000
vt 0.00000000 1.00000000
vt 0.14644661 0.00000000
vt 0.00000000 0.00000000
vt 1.00000000 0.00000000
vt 0.94822330 1.00000000
vt 0.12500000 1.00000000
vt 1.00000000 0.00000000
vt 1.00000000 1.00000000
vt 0.00000000 1.00000000
vt 0.00000000 0.00000000
vt 1.00000000 1.00000000
vt 0.00000000 1.00000000
vt 0.00000000 0.00000000
vt 1.00000000 0.00000000
vt 1.00000000 0.50000000
vt 0.00000000 0.00000000
vt 1.00000000 0.00000000
vt 1.00000000 1.00000000
vt 0.00000000 1.00000000
vt 1.00000000 1.00000000
vt 0.00000000 1.00000000
vt 0.00000000 0.00000000
vt 0.50000000 0.00000000
vt 1.00000000 0.00000000
vt 0.50000000 1.00000000
vt 1.00000000 1.00000000
vt 0.00000000 1.00000000
vt 0.00000000 0.00000000
vt 1.00000000 0.00000000
vt 1.00000000 0.00000000
vt 1.00000000 0.50000000
vt 1.00000000 1.00000000
vt 0.00000000 1.00000000
vt 0.00000000 0.00000000
vt 1.00000000 1.00000000
vt 0.00000000 1.00000000
vt 0.00000000 0.00000000
vt 1.00000000 0.00000000
vt 0.00000000 1.00000000
vt 0.14285714 0.00000000
vt 0.85714286 0.00000000
vt 1.00000000 1.00000000
vt 0.50000000 1.00000000
vt 1.00000000 1.00000000
vt 0.00000000 1.00000000
vt 0.00000000 0.00000000
vt 1.00000000 0.00000000
vn 0.00000000 -0.70710678 0.70710678
vn 0.00000000 -0.70710678 0.70710678
vn 0.00000000 -0.70710678 0.70710678
vn 0.00000000 -0.70710678 0.70710678
vn -0.70710678 -0.70710678 0.00000000
vn -0.70710678 -0.70710678 0.00000000
vn -0.70710678 -0.70710678 0.00000000
vn -0.70710678 -0.70710678 0.00000000
vn -0.70710678 -0.70710678 0.00000000
vn 0.00000000 -0.70710678 -0.70710678
vn 0.00000000 -0.70710678 -0.70710678
vn 0.00000000 -0.70710678 -0.70710678
vn 0.00000000 -0.70710678 -0.70710678
vn 0.00000000 -1.00000000 0.00000000
vn 0.00000000 -1.00000000 0.00000000
vn 0.00000000 -1.00000000 0.00000000
vn 0.00000000 -1.00000000 0.00000000
vn 0.00000000 -1.00000000 0.00000000
vn 0.00000000 -1.00000000 0.00000000
vn 0.00000000 -1.00000000 0.00000000
vn 0.00000000 -1.00000000 0.00000000
vn 0.00000000 -1.00000000 0.00000000
vn 0.00000000 -1.00000000 0.00000000
vn 0.00000000 -1.00000000 0.00000000
vn 0.00000000 -1.00000000 0.00000000
vn 0.00000000 -1.00000000 0.00000000
vn 0.00000000 -1.00000000 0.00000000
vn 0.00000000 -1.00000000 0.00000000
vn 0.00000000 -1.00000000 0.00000000
vn -1.00000000 -0.00000000 -0.00000000
vn -1.00000000 -0.00000000 -0.00000000
vn -1.00000000 -0.00000000 -0.00000000
vn -1.00000000 -0.00000000 -0.00000000
vn -1.00000000 -0.00000000 -0.00000000
vn -1.00000000 -0.00000000 -0.00000000
vn -0.44721360 0.89442719 -0.00000000
vn -0.44721360 0.89442719 -0.00000000
vn -0.44721360 0.89442719 -0.00000000
vn -0.44721360 0.89442719 -0.00000000
vn -0.00000000 1.00000000 -0.00000000
vn -0.00000000 1.00000000 -0.00000000
vn -0.00000000 1.00000000 -0.00000000
vn -0.00000000 1.00000000 -0.00000000
vn -0.00000000 1.00000000 -0.00000000
vn -0.00000000 0.89442719 -0.44721360
vn -0.00000000 0.89442719 -0.44721360
vn -0.00000000 0.89442719 -0.44721360
vn -0.00000000 0.89442719 -0.44721360
vn 0.44721360 0.89442719 0.00000000
vn 0.44721360 0.89442719 0.00000000
vn 0.44721360 0.89442719 0.00000000
vn 0.44721360 0.89442719 0.00000000
vn -0.44721360 0.89442719 0.00000000
vn -0.44721360 0.89442719 0.00000000
vn -0.44721360 0.89442719 0.00000000
vn -0.44721360 0.89442719 0.00000000
vn -0.00000000 1.00000000 -0.00000000
vn -0.00000000 1.00000000 -0.00000000
vn -0.00000000 1.00000000 -0.00000000
vn -0.00000000 1.00000000 -0.00000000
vn -0.00000000 1.00000000 -0.00000000
vn 0.44721360 0.89442719 -0.00000000
vn 0.44721360 0.89442719 -0.00000000
vn 0.44721360 0.89442719 -0.00000000
vn 0.44721360 0.89442719 -0.00000000
vn 0.31622777 0.89442719 -0.31622777
vn 0.31622777 0.89442719 -0.31622777
vn 0.31622777 0.89442719 -0.31622777
vn 0.31622777 0.89442719 -0.31622777
vn 0.00000000 0.89442719 0.44721360
vn 0.00000000 0.89442719 0.44721360
vn 0.00000000 0.89442719 0.44721360
vn 0.00000000 0.89442719 0.44721360
vn 0.00000000 0.89442719 -0.44721360
vn 0.00000000 0.89442719 -0.44721360
vn 0.00000000 0.89442719 -0.44721360
vn 0.00000000 0.89442719 -0.44721360
vn -0.00000000 1.00000000 -0.00000000
vn -0.00000000 1.00000000 -0.00000000
vn -0.00000000 1.00000000 -0.00000000
vn -0.00000000 1.00000000 -0.00000000
vn -0.00000000 1.00000000 -0.00000000
vn 0.31622777 0.89442719 0.31622777
vn 0.31622777 0.89442719 0.31622777
vn 0.31622777 0.89442719 0.31622777
vn 0.31622777 0.89442719 0.31622777
vn -0.00000000 0.89442719 0.44721360
vn -0.00000000 0.89442719 0.44721360
vn -0.00000000 0.89442719 0.44721360
vn -0.00000000 0.89442719 0.44721360
vn -0.44721360 0.89442719 0.00000000
vn -0.44721360 0.89442719 0.00000000
vn -0.44721360 0.89442719 0.00000000
vn 0.44721360 0.89442719 0.00000000
vn 0.44721360 0.89442719 0.00000000
vn 0.44721360 0.89442719 0.00000000
vn -0.00000000 1.00000000 -0.00000000
vn -0.00000000 1.00000000 -0.00000000
vn -0.00000000 1.00000000 -0.00000000
vn -0.00000000 1.00000000 -0.00000000
vn -0.00000000 1.00000000 -0.00000000
vn -0.31622777 0.89442719 0.31622777
vn -0.31622777 0.89442719 0.31622777
vn -0.31622777 0.89442719 0.31622777
vn -0.31622777 0.89442719 0.31622777
vn 0.00000000 0.89442719 -0.44721360
vn 0.00000000 0.89442719 -0.44721360
vn 0.00000000 0.89442719 -0.44721360
vn -0.00000000 0.89442719 0.44721360
vn -0.00000000 0.89442719 0.44721360
vn -0.00000000 0.89442719 0.44721360
vn 0.44721360 0.89442719 -0.00000000
vn 0.44721360 0.89442719 -0.00000000
vn 0.44721360 0.89442719 -0.00000000
vn -0.00000000 0.89442719 -0.44721360
vn -0.00000000 0.89442719 -0.44721360
vn -0.00000000 0.89442719 -0.44721360
vn 0.00000000 0.89442719 0.44721360
vn 0.00000000 0.89442719 0.44721360
vn 0.00000000 0.89442719 0.44721360
vn -0.31622777 0.89442719 -0.31622777
vn -0.31622777 0.89442719 -0.31622777
vn -0.31622777 0.89442719 -0.31622777
vn -0.31622777 0.89442719 -0.31622777
vn -0.44721360 0.89442719 -0.00000000
vn -0.44721360 0.89442719 -0.00000000
vn -0.44721360 0.89442719 -0.00000000
vn -0.70710678 0.00000000 0.70710678
vn -0.70710678 0.00000000 0.70710678
vn -0.70710678 0.00000000 0.70710678
vn -0.70710678 0.00000000 0.70710678
vn -0.00000000 0.00000000 1.00000000
vn -0.00000000 0.00000000 1.00000000
vn -0.00000000 0.00000000 1.00000000
vn -0.00000000 0.00000000 1.00000000
vn -0.00000000 0.00000000 1.00000000
vn 0.70710678 0.00000000 0.70710678
vn 0.70710678 0.00000000 0.70710678
vn 0.70710678 0.00000000 0.70710678
vn 0.70710678 0.00000000 0.70710678
vn 1.00000000 0.00000000 0.00000000
vn 1.00000000 0.00000000 0.00000000
vn 1.00000000 0.00000000 0.00000000
vn 1.00000000 0.00000000 0.00000000
vn 1.00000000 0.00000000 0.00000000
vn 1.00000000 0.00000000 0.00000000
vn 0.70710678 0.00000000 -0.70710678
vn 0.70710678 0.00000000 -0.70710678
vn 0.70710678 0.00000000 -0.70710678
vn 0.70710678 0.00000000 -0.70710678
vn 0.00000000 -0.00000000 -1.00000000
vn 0.00000000 -0.00000000 -1.00000000
vn 0.00000000 -0.00000000 -1.00000000
vn 0.00000000 -0.00000000 -1.00000000
vn 0.00000000 -0.00000000 -1.00000000
vn -0.70710678 -0.00000000 -0.70710678
vn -0.70710678 -0.00000000 -0.70710678
vn -0.70710678 -0.00000000 -0.70710678
vn -0.70710678 -0.00000000 -0.70710678
vn 0.70710678 -0.70710678 0.00000000
vn 0.70710678 -0.70710678 0.00000000
vn 0.70710678 -0.70710678 0.00000000
vn 0.70710678 -0.70710678 0.00000000
vn 0.70710678 -0.70710678 0.00000000
vn 0.00000000 -1.00000000 0.00000000
vn 0.00000000 -1.00000000 0.00000000
vn 0.00000000 -1.00000000 0.00000000
vn 0.00000000 -1.00000000 0.00000000
s 1
usemtl Sandstone_5
f 1/1/1 2/2/2 3/3/3
f 1/1/1 3/3/3 4/4/4
s 2
f 2/5/5 1/6/6 7/9/9
f 7/9/9 5/7/7 6/8/8
f 2/5/5 7/9/9 6/8/8
s 3
f 6/10/10 5/11/11 8/12/12
f 6/10/10 8/12/12 9/13/13
s 4
usemtl Sandstone_Trim
f 11/18/18 10/17/17 8/16/16
f 13/20/20 8/16/16 5/15/15
f 5/15/15 15/22/22 14/21/21
f 5/15/15 16/23/23 15/22/22
f 17/26/26 16/23/23 1/25/25
f 19/28/28 18/27/27 1/25/25
f 4/24/24 20/29/29 19/28/28
f 1/25/25 4/24/24 19/28/28
f 18/27/27 17/26/26 1/25/25
f 16/23/23 7/14/14 1/25/25
f 5/15/15 7/14/14 16/23/23
f 14/21/21 13/20/20 5/15/15
f 13/20/20 12/19/19 8/16/16
f 4/24/24 11/18/18 20/29/29
f 4/24/24 10/17/17 11/18/18
f 12/19/19 11/18/18 8/16/16
s 5
f 17/30/30 21/31/31 22/32/32
f 16/35/35 22/32/32 23/33/33
f 23/33/33 15/34/34 16/35/35
f 16/35/35 17/30/30 22/32/32
s 6
f 24/36/36 25/37/37 23/38/38
f 24/36/36 23/38/38 22/39/39
f 22/132/39 21/133/125 50/135/127
f 21/133/125 51/134/126 50/135/127
s 7
usemtl Sandstone_Floor
f 28/44/44 26/40/40 25/41/41
f 25/41/41 24/42/42 27/43/43
f 25/41/41 27/43/43 28/44/44
s 8
usemtl Sandstone_Trim
f 29/45/45 30/46/46 28/48/48
f 30/46/46 26/47/47 28/48/48
f 33/120/115 39/122/117 29/123/45
f 33/120/115 36/121/116 39/122/117
s 9
f 31/49/49 29/50/50 27/52/52
f 29/50/50 28/51/51 27/52/52
f 48/95/94 47/97/96 31/98/49
f 48/95/94 49/96/95 47/97/96
s 10
f 32/53/53 33/54/54 31/56/56
f 31/91/56 44/93/92 40/94/93
f 31/91/56 47/92/91 44/93/92
f 33/54/54 29/55/55 31/56/56
s 11
usemtl Sandstone_Floor
f 35/58/58 36/59/59 33/60/60
f 35/58/58 33/60/60 32/61/61
f 32/61/61 34/57/57 35/58/58
s 12
usemtl Sandstone_Trim
f 37/62/62 38/63/63 34/65/65
f 38/63/63 35/64/64 34/65/65
f 41/116/112 46/118/114 37/119/62
f 41/116/112 43/117/113 46/118/114
s 13
f 35/66/66 38/67/67 39/68/68
f 35/66/66 39/68/68 36/69/69
s 14
f 31/70/70 37/71/71 34/72/72
f 24/125/119 22/126/120 31/127/70
f 27/124/118 24/125/119 31/127/70
f 31/70/70 34/72/72 32/73/73
s 15
f 40/74/74 41/75/75 37/76/76
f 40/74/74 37/76/76 31/77/77
f 31/108/77 22/109/106 48/111/108
f 22/109/106 50/110/107 48/111/108
s 16
usemtl Sandstone_Floor
f 42/78/78 43/79/79 41/80/80
f 42/78/78 41/80/80 40/81/81
f 40/81/81 44/82/82 42/78/78
s 17
usemtl Sandstone_Trim
f 42/83/83 45/84/84 46/85/85
f 42/83/83 46/85/85 43/86/86
s 18
f 47/87/87 45/88/88 44/90/90
f 45/88/88 42/89/89 44/90/90
f 49/112/109 53/114/111 47/115/87
f 49/112/109 52/113/110 53/114/111
s 19
usemtl Sandstone_Floor
f 50/99/97 51/100/98 52/101/99
f 52/101/99 49/102/100 48/103/101
f 50/99/97 52/101/99 48/103/101
s 20
usemtl Sandstone_Trim
f 51/104/102 21/105/103 52/107/105
f 21/105/103 53/106/104 52/107/105
s 21
f 26/128/121 30/129/122 25/131/124
f 30/129/122 23/130/123 25/131/124
s 22
f 21/136/128 17/137/129 53/139/131
f 17/137/129 18/138/130 53/139/131
s 23
f 47/144/136 53/143/135 18/142/134
f 47/144/136 18/142/134 19/141/133
f 19/141/133 45/140/132 47/144/136
s 24
f 19/145/137 20/146/138 45/148/140
f 20/146/138 46/147/139 45/148/140
s 25
f 37/152/144 46/151/143 20/150/142
f 38/153/145 37/152/144 11/154/146
f 38/153/145 11/154/146 12/149/141
f 37/152/144 20/150/142 11/154/146
s 26
f 39/155/147 38/156/148 13/158/150
f 38/156/148 12/157/149 13/158/150
s 27
f 14/162/154 30/161/153 29/160/152
f 29/160/152 39/159/151 13/163/155
f 13/163/155 14/162/154 29/160/152
s 28
f 14/164/156 15/165/157 30/167/159
f 15/165/157 23/166/158 30/167/159
s 29
usemtl Sandstone_5
f 10/172/164 4/168/160 3/169/161
f 3/169/161 9/170/162 10/172/164
f 9/170/162 8/171/163 10/172/164
s 30
f 9/173/165 3/174/166 6/176/168
f 3/174/166 2/175/167 6/176/168
