mtllib Materials_Modular_Temple.mtl
o object1
g object1
v 0.46250000 -0.03750000 -0.09199697
v 0.50000000 0.00000000 -0.09945618
v 0.50000000 0.00000000 0.09945618
v 0.46250000 -0.03750000 0.09199697
v 0.42387953 0.00000000 0.28322725
v 0.39208857 -0.03750000 0.26198521
v 0.28322725 0.00000000 0.42387953
v 0.26198521 -0.03750000 0.39208857
v 0.09945618 0.00000000 0.50000000
v 0.09199697 -0.03750000 0.46250000
v -0.00000000 0.00000000 0.50000000
v -0.00000000 -0.03750000 0.46250000
v 0.09199697 -0.20000000 0.46250000
v -0.09199697 -0.03750000 0.46250000
v -0.09199697 -0.20000000 0.46250000
v -0.00000000 -0.20000000 0.46250000
v -0.26198521 -0.20000000 0.39208857
v -0.26198521 -0.03750000 0.39208857
v -0.28322725 0.00000000 0.42387953
v -0.09945618 0.00000000 0.50000000
v -0.39208857 -0.03750000 0.26198521
v -0.42387953 0.00000000 0.28322725
v -0.46250000 -0.03750000 0.09199697
v -0.50000000 0.00000000 0.09945618
v -0.46250000 -0.03750000 -0.09199697
v -0.50000000 0.00000000 -0.09945618
v -0.39208857 -0.03750000 -0.26198521
v -0.42387953 0.00000000 -0.28322725
v -0.26198521 -0.03750000 -0.39208857
v -0.28322725 0.00000000 -0.42387953
v -0.09199697 -0.03750000 -0.46250000
v -0.09945618 0.00000000 -0.50000000
v -0.00000000 -0.03750000 -0.46250000
v -0.00000000 0.00000000 -0.50000000
v 0.09199697 -0.03750000 -0.46250000
v 0.09199697 -0.20000000 -0.46250000
v -0.09199697 -0.20000000 -0.46250000
v -0.00000000 -0.20000000 -0.46250000
v 0.26198521 -0.03750000 -0.39208857
v 0.26198521 -0.20000000 -0.39208857
v 0.09945618 0.00000000 -0.50000000
v 0.28322725 0.00000000 -0.42387953
v 0.42387953 0.00000000 -0.28322725
v 0.39208857 -0.03750000 -0.26198521
v 0.50000000 0.00000000 -0.50000000
v 0.39208857 -0.20000000 -0.26198521
v 0.46250000 -0.20000000 -0.09199697
v -0.50000000 0.00000000 -0.50000000
v -0.50000000 -0.20000000 -0.50000000
v 0.50000000 -0.20000000 -0.50000000
v -0.00000000 -0.20000000 -0.50000000
v -0.26198521 -0.20000000 -0.39208857
v -0.39208857 -0.20000000 -0.26198521
v -0.46250000 -0.20000000 -0.09199697
v -0.46250000 -0.20000000 0.09199697
v -0.50000000 0.00000000 0.50000000
v -0.50000000 -0.20000000 0.50000000
v -0.39208857 -0.20000000 0.26198521
v 0.46250000 -0.20000000 0.09199697
v 0.39208857 -0.20000000 0.26198521
v 0.26198521 -0.20000000 0.39208857
v -0.00000000 -0.20000000 0.50000000
v 0.50000000 -0.20000000 0.50000000
v 0.50000000 0.00000000 0.50000000
vt 1.00000000 1.00000000
vt 0.00000000 1.00000000
vt 0.00000000 0.00000000
vt 1.00000000 0.00000000
vt 1.00000000 1.00000000
vt 0.00000000 1.00000000
vt 0.00000000 0.00000000
vt 1.00000000 0.00000000
vt 1.00000000 1.00000000
vt 0.00000000 1.00000000
vt 0.00000000 0.00000000
vt 1.00000000 0.00000000
vt 1.00000000 1.00000000
vt 0.00000000 1.00000000
vt 0.00000000 0.00000000
vt 1.00000000 0.00000000
vt 0.00000000 1.00000000
vt 0.00000000 0.00000000
vt 1.00000000 0.00000000
vt 1.00000000 1.00000000
vt 1.00000000 1.00000000
vt 0.00000000 1.00000000
vt 0.00000000 0.50000000
vt 0.00000000 0.00000000
vt 1.00000000 0.00000000
vt 1.00000000 0.50000000
vt 0.00000000 0.00000000
vt 1.00000000 0.00000000
vt 1.00000000 1.00000000
vt 0.00000000 1.00000000
vt 1.00000000 1.00000000
vt 0.00000000 1.00000000
vt 0.00000000 0.00000000
vt 1.00000000 0.00000000
vt 1.00000000 1.00000000
vt 0.00000000 1.00000000
vt 0.00000000 0.00000000
vt 1.00000000 0.00000000
vt 1.00000000 1.00000000
vt 0.00000000 1.00000000
vt 0.00000000 0.00000000
vt 1.00000000 0.00000000
vt 1.00000000 1.00000000
vt 0.00000000 1.00000000
vt 0.00000000 0.00000000
vt 1.00000000 0.00000000
vt 1.00000000 1.00000000
vt 0.00000000 1.00000000
vt 0.00000000 0.00000000
vt 1.00000000 0.00000000
vt 1.00000000 1.00000000
vt 0.00000000 1.00000000
vt 0.00000000 0.00000000
vt 1.00000000 0.00000000
vt 1.00000000 1.00000000
vt 0.00000000 1.00000000
vt 0.00000000 0.00000000
vt 1.00000000 0.00000000
vt 1.00000000 0.00000000
vt 1.00000000 1.00000000
vt 0.00000000 1.00000000
vt 0.00000000 0.00000000
vt 0.00000000 0.00000000
vt 1.00000000 0.00000000
vt 1.00000000 1.00000000
vt 0.00000000 1.00000000
vt 0.00000000 0.50000000
vt 1.00000000 0.50000000
vt 0.00000000 0.00000000
vt 1.00000000 0.00000000
vt 1.00000000 1.00000000
vt 0.00000000 1.00000000
vt 1.00000000 1.00000000
vt 0.00000000 1.00000000
vt 0.00000000 0.00000000
vt 1.00000000 0.00000000
vt 1.00000000 1.00000000
vt 0.00000000 1.00000000
vt 0.00000000 0.00000000
vt 1.00000000 0.00000000
vt 1.00000000 0.00000000
vt 1.00000000 1.00000000
vt 0.80995720 0.54119610
vt 0.45880390 0.19004280
vt 0.00000000 0.00000000
vt 0.00000000 0.00000000
vt 1.00000000 0.00000000
vt 1.00000000 1.00000000
vt 0.00000000 1.00000000
vt 0.00000000 0.00000000
vt 1.00000000 0.00000000
vt 1.00000000 1.00000000
vt 0.00000000 1.00000000
vt 0.00000000 1.00000000
vt 0.00000000 0.59945618
vt 0.00000000 0.50000000
vt 0.00000000 0.40054382
vt 0.00000000 0.00000000
vt 1.00000000 0.00000000
vt 1.00000000 1.00000000
vt 1.00000000 0.50000000
vt 1.00000000 0.00000000
vt 1.00000000 1.00000000
vt 0.00000000 1.00000000
vt 0.00000000 0.00000000
vt 0.00000000 0.00000000
vt 1.00000000 0.00000000
vt 1.00000000 1.00000000
vt 0.00000000 1.00000000
vt 0.00000000 0.00000000
vt 1.00000000 0.00000000
vt 1.00000000 1.00000000
vt 0.00000000 1.00000000
vt 0.00000000 0.00000000
vt 1.00000000 0.00000000
vt 1.00000000 1.00000000
vt 0.00000000 1.00000000
vt 1.00000000 0.00000000
vt 1.00000000 1.00000000
vt 0.80995720 0.54119610
vt 0.45880390 0.19004280
vt 0.00000000 0.00000000
vt 0.00000000 0.00000000
vt 1.00000000 0.00000000
vt 1.00000000 1.00000000
vt 0.00000000 1.00000000
vt 1.00000000 1.00000000
vt 0.00000000 1.00000000
vt 0.00000000 0.59945618
vt 0.00000000 0.40054382
vt 0.00000000 0.00000000
vt 1.00000000 0.00000000
vt 0.00000000 0.00000000
vt 1.00000000 0.00000000
vt 1.00000000 1.00000000
vt 0.00000000 1.00000000
vt 0.00000000 0.00000000
vt 1.00000000 0.00000000
vt 0.54119610 0.19004280
vt 0.19004280 0.54119610
vt 0.00000000 1.00000000
vt 0.00000000 0.00000000
vt 1.00000000 0.00000000
vt 1.00000000 1.00000000
vt 0.00000000 1.00000000
vt 0.96250000 0.50000000
vt 0.96250000 0.40800303
vt 0.89208857 0.23801479
vt 0.76198521 0.10791143
vt 0.59199697 0.03750000
vt 0.40800303 0.03750000
vt 0.23801479 0.10791143
vt 0.10791143 0.23801479
vt 0.03750000 0.40800303
vt 0.03750000 0.50000000
vt 0.00000000 0.50000000
vt 0.00000000 0.00000000
vt 1.00000000 0.00000000
vt 1.00000000 0.50000000
vt 0.03750000 0.59199697
vt 0.10791143 0.76198521
vt 0.23801479 0.89208857
vt 0.40800303 0.96250000
vt 0.59199697 0.96250000
vt 0.76198521 0.89208857
vt 0.89208857 0.76198521
vt 0.96250000 0.59199697
vt 1.00000000 1.00000000
vt 0.00000000 1.00000000
vt 0.00000000 1.00000000
vt 0.00000000 0.59945618
vt 0.00000000 0.50000000
vt 0.00000000 0.40054382
vt 0.00000000 0.00000000
vt 1.00000000 0.00000000
vt 1.00000000 1.00000000
vt 1.00000000 0.50000000
vt 0.00000000 1.00000000
vt 0.00000000 0.00000000
vt 1.00000000 0.00000000
vt 1.00000000 1.00000000
vt 0.00000000 0.00000000
vt 1.00000000 0.00000000
vt 1.00000000 1.00000000
vt 0.00000000 1.00000000
vt 0.00000000 0.00000000
vt 1.00000000 0.00000000
vt 1.00000000 1.00000000
vt 0.00000000 1.00000000
vt 0.00000000 0.00000000
vt 1.00000000 0.00000000
vt 1.00000000 1.00000000
vt 0.00000000 1.00000000
vt 0.00000000 0.00000000
vt 1.00000000 0.00000000
vt 0.54119610 0.19004280
vt 0.19004280 0.54119610
vt 0.00000000 1.00000000
vt 0.00000000 0.00000000
vt 1.00000000 0.00000000
vt 1.00000000 1.00000000
vt 0.00000000 1.00000000
vt 1.00000000 1.00000000
vt 0.00000000 1.00000000
vt 0.00000000 0.00000000
vt 1.00000000 0.00000000
vt 1.00000000 1.00000000
vt 0.00000000 1.00000000
vt 0.00000000 0.59945618
vt 0.00000000 0.40054382
vt 0.00000000 0.00000000
vt 1.00000000 0.00000000
vn -0.70710678 0.70710678 0.00000000
vn -0.70710678 0.70710678 0.00000000
vn -0.70710678 0.70710678 0.00000000
vn -0.70710678 0.70710678 0.00000000
vn -0.65328148 0.70710678 -0.27059805
vn -0.65328148 0.70710678 -0.27059805
vn -0.65328148 0.70710678 -0.27059805
vn -0.65328148 0.70710678 -0.27059805
vn -0.50000000 0.70710678 -0.50000000
vn -0.50000000 0.70710678 -0.50000000
vn -0.50000000 0.70710678 -0.50000000
vn -0.50000000 0.70710678 -0.50000000
vn -0.27059805 0.70710678 -0.65328148
vn -0.27059805 0.70710678 -0.65328148
vn -0.27059805 0.70710678 -0.65328148
vn -0.27059805 0.70710678 -0.65328148
vn 0.00000000 0.70710678 -0.70710678
vn 0.00000000 0.70710678 -0.70710678
vn 0.00000000 0.70710678 -0.70710678
vn 0.00000000 0.70710678 -0.70710678
vn 0.00000000 0.00000000 -1.00000000
vn 0.00000000 0.00000000 -1.00000000
vn 0.00000000 0.00000000 -1.00000000
vn 0.00000000 0.00000000 -1.00000000
vn 0.00000000 0.00000000 -1.00000000
vn 0.00000000 0.00000000 -1.00000000
vn 0.38268343 0.00000000 -0.92387953
vn 0.38268343 0.00000000 -0.92387953
vn 0.38268343 0.00000000 -0.92387953
vn 0.38268343 0.00000000 -0.92387953
vn 0.27059805 0.70710678 -0.65328148
vn 0.27059805 0.70710678 -0.65328148
vn 0.27059805 0.70710678 -0.65328148
vn 0.27059805 0.70710678 -0.65328148
vn 0.50000000 0.70710678 -0.50000000
vn 0.50000000 0.70710678 -0.50000000
vn 0.50000000 0.70710678 -0.50000000
vn 0.50000000 0.70710678 -0.50000000
vn 0.65328148 0.70710678 -0.27059805
vn 0.65328148 0.70710678 -0.27059805
vn 0.65328148 0.70710678 -0.27059805
vn 0.65328148 0.70710678 -0.27059805
vn 0.70710678 0.70710678 0.00000000
vn 0.70710678 0.70710678 0.00000000
vn 0.70710678 0.70710678 0.00000000
vn 0.70710678 0.70710678 0.00000000
vn 0.65328148 0.70710678 0.27059805
vn 0.65328148 0.70710678 0.27059805
vn 0.65328148 0.70710678 0.27059805
vn 0.65328148 0.70710678 0.27059805
vn 0.50000000 0.70710678 0.50000000
vn 0.50000000 0.70710678 0.50000000
vn 0.50000000 0.70710678 0.50000000
vn 0.50000000 0.70710678 0.50000000
vn 0.27059805 0.70710678 0.65328148
vn 0.27059805 0.70710678 0.65328148
vn 0.27059805 0.70710678 0.65328148
vn 0.27059805 0.70710678 0.65328148
vn 0.00000000 0.70710678 0.70710678
vn 0.00000000 0.70710678 0.70710678
vn 0.00000000 0.70710678 0.70710678
vn 0.00000000 0.70710678 0.70710678
vn 0.00000000 0.00000000 1.00000000
vn 0.00000000 0.00000000 1.00000000
vn 0.00000000 0.00000000 1.00000000
vn 0.00000000 0.00000000 1.00000000
vn 0.00000000 0.00000000 1.00000000
vn 0.00000000 0.00000000 1.00000000
vn -0.38268343 0.00000000 0.92387953
vn -0.38268343 0.00000000 0.92387953
vn -0.38268343 0.00000000 0.92387953
vn -0.38268343 0.00000000 0.92387953
vn -0.27059805 0.70710678 0.65328148
vn -0.27059805 0.70710678 0.65328148
vn -0.27059805 0.70710678 0.65328148
vn -0.27059805 0.70710678 0.65328148
vn -0.50000000 0.70710678 0.50000000
vn -0.50000000 0.70710678 0.50000000
vn -0.50000000 0.70710678 0.50000000
vn -0.50000000 0.70710678 0.50000000
vn 0.00000000 1.00000000 0.00000000
vn 0.00000000 1.00000000 0.00000000
vn 0.00000000 1.00000000 0.00000000
vn 0.00000000 1.00000000 0.00000000
vn 0.00000000 1.00000000 0.00000000
vn -0.70710678 0.00000000 0.70710678
vn -0.70710678 0.00000000 0.70710678
vn -0.70710678 -0.00000000 0.70710678
vn -0.70710678 -0.00000000 0.70710678
vn -0.92387953 0.00000000 0.38268343
vn -0.92387953 0.00000000 0.38268343
vn -0.92387953 0.00000000 0.38268343
vn -0.92387953 0.00000000 0.38268343
vn 0.00000000 0.00000000 -1.00000000
vn 0.00000000 0.00000000 -1.00000000
vn 0.00000000 0.00000000 -1.00000000
vn 0.00000000 0.00000000 -1.00000000
vn 0.00000000 0.00000000 -1.00000000
vn 0.00000000 0.00000000 -1.00000000
vn 0.00000000 0.00000000 -1.00000000
vn 0.00000000 0.00000000 -1.00000000
vn 0.00000000 0.70710678 0.70710678
vn 0.00000000 0.70710678 0.70710678
vn 0.38268343 0.00000000 0.92387953
vn 0.38268343 0.00000000 0.92387953
vn 0.38268343 0.00000000 0.92387953
vn 0.38268343 0.00000000 0.92387953
vn 0.70710678 0.00000000 0.70710678
vn 0.70710678 0.00000000 0.70710678
vn 0.70710678 0.00000000 0.70710678
vn 0.70710678 0.00000000 0.70710678
vn 0.92387953 0.00000000 0.38268343
vn 0.92387953 0.00000000 0.38268343
vn 0.92387953 0.00000000 0.38268343
vn 0.92387953 0.00000000 0.38268343
vn 0.00000000 1.00000000 0.00000000
vn 0.00000000 1.00000000 0.00000000
vn 0.00000000 1.00000000 0.00000000
vn 0.00000000 1.00000000 0.00000000
vn 0.00000000 1.00000000 0.00000000
vn 1.00000000 0.00000000 0.00000000
vn 1.00000000 0.00000000 0.00000000
vn 1.00000000 0.00000000 0.00000000
vn 1.00000000 0.00000000 0.00000000
vn -1.00000000 0.00000000 0.00000000
vn -1.00000000 0.00000000 0.00000000
vn -1.00000000 0.00000000 0.00000000
vn -1.00000000 0.00000000 0.00000000
vn -1.00000000 0.00000000 0.00000000
vn -1.00000000 0.00000000 0.00000000
vn 0.92387953 0.00000000 -0.38268343
vn 0.92387953 0.00000000 -0.38268343
vn 0.92387953 0.00000000 -0.38268343
vn 0.92387953 0.00000000 -0.38268343
vn 0.00000000 1.00000000 0.00000000
vn 0.00000000 1.00000000 0.00000000
vn 0.00000000 1.00000000 0.00000000
vn 0.00000000 1.00000000 0.00000000
vn 0.00000000 1.00000000 0.00000000
vn 0.70710678 -0.00000000 -0.70710678
vn 0.70710678 -0.00000000 -0.70710678
vn 0.70710678 -0.00000000 -0.70710678
vn 0.70710678 -0.00000000 -0.70710678
vn 0.00000000 -1.00000000 0.00000000
vn 0.00000000 -1.00000000 0.00000000
vn 0.00000000 -1.00000000 0.00000000
vn 0.00000000 -1.00000000 0.00000000
vn 0.00000000 -1.00000000 0.00000000
vn 0.00000000 -1.00000000 0.00000000
vn 0.00000000 -1.00000000 0.00000000
vn 0.00000000 -1.00000000 0.00000000
vn 0.00000000 -1.00000000 0.00000000
vn 0.00000000 -1.00000000 0.00000000
vn 0.00000000 -1.00000000 0.00000000
vn 0.00000000 -1.00000000 0.00000000
vn 0.00000000 -1.00000000 0.00000000
vn 0.00000000 -1.00000000 0.00000000
vn 0.00000000 -1.00000000 0.00000000
vn 0.00000000 -1.00000000 0.00000000
vn 0.00000000 -1.00000000 0.00000000
vn 0.00000000 -1.00000000 0.00000000
vn 0.00000000 -1.00000000 0.00000000
vn 0.00000000 -1.00000000 0.00000000
vn 0.00000000 -1.00000000 0.00000000
vn 0.00000000 -1.00000000 0.00000000
vn 0.00000000 -1.00000000 0.00000000
vn 0.00000000 -1.00000000 0.00000000
vn 0.00000000 0.00000000 1.00000000
vn 0.00000000 0.00000000 1.00000000
vn 0.00000000 0.00000000 1.00000000
vn 0.00000000 0.00000000 1.00000000
vn 0.00000000 0.00000000 1.00000000
vn 0.00000000 0.00000000 1.00000000
vn 0.00000000 0.00000000 1.00000000
vn 0.00000000 0.00000000 1.00000000
vn 0.00000000 0.70710678 -0.70710678
vn 0.00000000 0.70710678 -0.70710678
vn -0.38268343 0.00000000 -0.92387953
vn -0.38268343 0.00000000 -0.92387953
vn -0.38268343 0.00000000 -0.92387953
vn -0.38268343 0.00000000 -0.92387953
vn -0.70710678 -0.00000000 -0.70710678
vn -0.70710678 -0.00000000 -0.70710678
vn -0.70710678 0.00000000 -0.70710678
vn -0.70710678 0.00000000 -0.70710678
vn -0.92387953 0.00000000 -0.38268343
vn -0.92387953 0.00000000 -0.38268343
vn -0.92387953 0.00000000 -0.38268343
vn -0.92387953 0.00000000 -0.38268343
vn 0.00000000 1.00000000 0.00000000
vn 0.00000000 1.00000000 0.00000000
vn 0.00000000 1.00000000 0.00000000
vn 0.00000000 1.00000000 0.00000000
vn 0.00000000 1.00000000 0.00000000
vn -1.00000000 0.00000000 0.00000000
vn -1.00000000 0.00000000 0.00000000
vn -1.00000000 0.00000000 0.00000000
vn -1.00000000 0.00000000 0.00000000
vn -0.65328148 0.70710678 0.27059805
vn -0.65328148 0.70710678 0.27059805
vn -0.65328148 0.70710678 0.27059805
vn -0.65328148 0.70710678 0.27059805
vn 1.00000000 0.00000000 0.00000000
vn 1.00000000 0.00000000 0.00000000
vn 1.00000000 0.00000000 0.00000000
vn 1.00000000 0.00000000 0.00000000
vn 1.00000000 0.00000000 0.00000000
vn 1.00000000 0.00000000 0.00000000
s 1
usemtl Sandstone_Floor
f 4/4/4 3/3/3 2/2/2
f 4/4/4 2/2/2 1/1/1
s 2
f 6/8/8 5/7/7 3/6/6
f 6/8/8 3/6/6 4/5/5
s 3
f 8/12/12 7/11/11 5/10/10
f 8/12/12 5/10/10 6/9/9
s 4
f 10/16/16 9/15/15 7/14/14
f 10/16/16 7/14/14 8/13/13
s 5
f 10/20/20 12/19/19 11/18/18
f 20/178/176 11/179/18 14/181/177
f 11/179/18 12/180/19 14/181/177
f 10/20/20 11/18/18 9/17/17
s 6
usemtl Sandstone_Trim
f 12/23/23 10/22/22 13/21/21
f 14/24/24 12/23/23 16/26/26
f 16/26/26 15/25/25 14/24/24
f 12/23/23 13/21/21 16/26/26
s 7
f 14/27/27 15/28/28 17/29/29
f 14/27/27 17/29/29 18/30/30
s 8
usemtl Sandstone_Floor
f 18/31/31 19/32/32 14/34/34
f 19/32/32 20/33/33 14/34/34
s 9
f 21/35/35 22/36/36 18/38/38
f 22/36/36 19/37/37 18/38/38
s 10
f 23/39/39 24/40/40 21/42/42
f 24/40/40 22/41/41 21/42/42
s 11
f 25/43/43 26/44/44 23/46/46
f 26/44/44 24/45/45 23/46/46
s 12
f 27/47/47 28/48/48 26/49/49
f 27/47/47 26/49/49 25/50/50
s 13
f 29/51/51 30/52/52 27/54/54
f 30/52/52 28/53/53 27/54/54
s 14
f 31/55/55 32/56/56 29/58/58
f 32/56/56 30/57/57 29/58/58
s 15
f 31/59/59 33/60/60 34/61/61
f 41/105/103 34/104/61 35/102/102
f 34/104/61 33/103/60 35/102/102
f 31/59/59 34/61/61 32/62/62
s 16
usemtl Sandstone_Trim
f 36/64/64 35/63/63 33/67/67
f 33/67/67 31/66/66 38/68/68
f 31/66/66 37/65/65 38/68/68
f 38/68/68 36/64/64 33/67/67
s 17
f 35/72/72 36/71/71 40/70/70
f 35/72/72 40/70/70 39/69/69
s 18
usemtl Sandstone_Floor
f 39/76/76 42/75/75 41/74/74
f 39/76/76 41/74/74 35/73/73
s 19
f 44/80/80 43/79/79 42/78/78
f 44/80/80 42/78/78 39/77/77
s 20
f 45/81/81 41/82/82 42/83/83
f 45/81/81 43/84/84 2/85/85
f 45/81/81 42/83/83 43/84/84
s 21
usemtl Sandstone_Trim
f 39/89/89 40/88/88 46/87/87
f 39/89/89 46/87/87 44/86/86
s 22
f 44/93/93 46/92/92 1/90/90
f 46/92/92 47/91/91 1/90/90
s 23
f 41/95/95 45/94/94 50/100/100
f 34/96/96 41/95/95 51/101/101
f 51/101/101 49/99/99 32/97/97
f 49/99/99 48/98/98 32/97/97
f 32/97/97 34/96/96 51/101/101
f 41/95/95 50/100/100 51/101/101
s 24
f 29/106/104 52/107/105 31/109/107
f 52/107/105 37/108/106 31/109/107
s 25
f 27/110/108 53/111/109 29/113/111
f 53/111/109 52/112/110 29/113/111
s 26
f 25/114/112 54/115/113 53/116/114
f 25/114/112 53/116/114 27/117/115
s 27
usemtl Sandstone_Floor
f 30/120/118 32/119/117 48/118/116
f 26/122/120 28/121/119 48/118/116
f 28/121/119 30/120/118 48/118/116
s 28
usemtl Sandstone_Trim
f 23/126/124 55/125/123 25/123/121
f 55/125/123 54/124/122 25/123/121
s 29
f 26/129/127 48/128/126 49/127/125
f 49/127/125 57/132/130 24/130/128
f 57/132/130 56/131/129 24/130/128
f 24/130/128 26/129/127 49/127/125
s 30
f 21/133/131 58/134/132 23/136/134
f 58/134/132 55/135/133 23/136/134
s 31
usemtl Sandstone_Floor
f 56/137/135 20/141/139 19/140/138
f 22/139/137 24/138/136 56/137/135
f 56/137/135 19/140/138 22/139/137
s 32
usemtl Sandstone_Trim
f 18/142/140 17/143/141 58/144/142
f 18/142/140 58/144/142 21/145/143
s 33
f 36/147/145 38/146/144 51/159/157
f 49/168/166 51/159/157 37/167/165
f 57/169/167 49/168/166 55/163/161
f 55/163/161 58/162/160 57/169/167
f 58/162/160 17/161/159 57/169/167
f 17/161/159 15/160/158 57/169/167
f 15/160/158 16/155/153 62/156/154
f 63/157/155 62/156/154 13/154/152
f 50/158/156 63/157/155 59/151/149
f 59/151/149 47/150/148 50/158/156
f 47/150/148 46/149/147 50/158/156
f 46/149/147 40/148/146 50/158/156
f 63/157/155 60/152/150 59/151/149
f 63/157/155 61/153/151 60/152/150
f 63/157/155 13/154/152 61/153/151
f 62/156/154 16/155/153 13/154/152
f 15/160/158 62/156/154 57/169/167
f 49/168/166 54/164/162 55/163/161
f 49/168/166 53/165/163 54/164/162
f 49/168/166 52/166/164 53/165/163
f 49/168/166 37/167/165 52/166/164
f 51/159/157 38/146/144 37/167/165
f 40/148/146 36/147/145 50/158/156
f 36/147/145 51/159/157 50/158/156
s 34
f 20/173/171 56/174/172 57/175/173
f 11/172/170 20/173/171 62/177/175
f 9/171/169 62/177/175 63/176/174
f 63/176/174 64/170/168 9/171/169
f 9/171/169 11/172/170 62/177/175
f 20/173/171 57/175/173 62/177/175
s 35
f 8/185/181 61/184/180 10/182/178
f 61/184/180 13/183/179 10/182/178
s 36
f 6/189/185 60/188/184 8/186/182
f 60/188/184 61/187/183 8/186/182
s 37
f 4/193/189 59/192/188 60/191/187
f 4/193/189 60/191/187 6/190/186
s 38
usemtl Sandstone_Floor
f 7/197/193 9/198/194 64/194/190
f 64/194/190 3/195/191 5/196/192
f 5/196/192 7/197/193 64/194/190
s 39
usemtl Sandstone_Trim
f 1/199/195 47/200/196 59/201/197
f 1/199/195 59/201/197 4/202/198
s 40
usemtl Sandstone_Floor
f 1/206/202 2/205/201 44/203/199
f 2/205/201 43/204/200 44/203/199
s 41
usemtl Sandstone_Trim
f 50/207/203 45/208/204 2/209/205
f 50/207/203 2/209/205 3/210/206
f 3/210/206 64/211/207 63/212/208
f 3/210/206 63/212/208 50/207/203
