mtllib Materials_Modular_Temple.mtl
o object1
g object1
v 0.55000000 0.55000000 0.06507576
v 0.55000000 0.45000000 0.06507576
v -0.06507576 0.45000000 -0.55000000
v -0.06507576 0.55000000 -0.55000000
v 0.55000000 0.45000000 0.50000000
v 0.55000000 0.55000000 0.50000000
v 0.50000000 0.45000000 0.50000000
v 0.50000000 0.55000000 0.50000000
v 0.50000000 0.45000000 0.08578644
v 0.50000000 0.55000000 0.08578644
v -0.08578644 0.45000000 -0.50000000
v -0.08578644 0.55000000 -0.50000000
v -0.50000000 0.55000000 -0.50000000
v -0.50000000 0.45000000 -0.50000000
v -0.50000000 0.45000000 -0.55000000
v -0.50000000 0.55000000 -0.55000000
vt 0.00000000 1.00000000
vt 0.00000000 0.00000000
vt 1.00000000 0.00000000
vt 1.00000000 1.00000000
vt 1.00000000 0.00000000
vt 1.00000000 1.00000000
vt 0.00000000 1.00000000
vt 0.00000000 0.00000000
vt 1.00000000 0.00000000
vt 1.00000000 1.00000000
vt 0.00000000 1.00000000
vt 0.00000000 0.00000000
vt 1.00000000 0.00000000
vt 1.00000000 1.00000000
vt 0.00000000 1.00000000
vt 0.00000000 0.00000000
vt 0.00000000 0.00000000
vt 1.00000000 0.00000000
vt 1.00000000 1.00000000
vt 0.00000000 1.00000000
vt 0.00000000 1.00000000
vt 0.00000000 0.00000000
vt 1.00000000 0.00000000
vt 1.00000000 1.00000000
vt 1.00000000 0.00000000
vt 1.00000000 1.00000000
vt 0.00000000 1.00000000
vt 0.00000000 0.00000000
vt 0.95238095 0.39448911
vt 0.95238095 0.00000000
vt 1.00000000 0.00000000
vt 1.00000000 0.41421356
vt 0.41421356 1.00000000
vt 0.00000000 1.00000000
vt 0.00000000 0.95238095
vt 0.39448911 0.95238095
vt 1.00000000 1.00000000
vt 0.00000000 1.00000000
vt 0.00000000 0.00000000
vt 1.00000000 0.00000000
vt 0.00000000 0.00000000
vt 0.41421356 0.00000000
vt 1.00000000 0.58578644
vt 1.00000000 1.00000000
vt 0.95238095 1.00000000
vt 0.95238095 0.60551089
vt 0.39448911 0.04761905
vt 0.00000000 0.04761905
vn 0.70710678 0.00000000 -0.70710678
vn 0.70710678 0.00000000 -0.70710678
vn 0.70710678 -0.00000000 -0.70710678
vn 0.70710678 -0.00000000 -0.70710678
vn 1.00000000 0.00000000 0.00000000
vn 1.00000000 0.00000000 0.00000000
vn 1.00000000 0.00000000 0.00000000
vn 1.00000000 0.00000000 0.00000000
vn 0.00000000 0.00000000 1.00000000
vn 0.00000000 0.00000000 1.00000000
vn 0.00000000 0.00000000 1.00000000
vn 0.00000000 0.00000000 1.00000000
vn -1.00000000 -0.00000000 -0.00000000
vn -1.00000000 -0.00000000 -0.00000000
vn -1.00000000 -0.00000000 -0.00000000
vn -1.00000000 -0.00000000 -0.00000000
vn -0.70710678 0.00000000 0.70710678
vn -0.70710678 0.00000000 0.70710678
vn -0.70710678 0.00000000 0.70710678
vn -0.70710678 0.00000000 0.70710678
vn -0.00000000 -0.00000000 1.00000000
vn -0.00000000 -0.00000000 1.00000000
vn -0.00000000 -0.00000000 1.00000000
vn -0.00000000 -0.00000000 1.00000000
vn -1.00000000 0.00000000 0.00000000
vn -1.00000000 0.00000000 0.00000000
vn -1.00000000 0.00000000 0.00000000
vn -1.00000000 0.00000000 0.00000000
vn 0.00000000 1.00000000 -0.00000000
vn 0.00000000 1.00000000 -0.00000000
vn 0.00000000 1.00000000 -0.00000000
vn 0.00000000 1.00000000 -0.00000000
vn 0.00000000 1.00000000 -0.00000000
vn 0.00000000 1.00000000 -0.00000000
vn 0.00000000 1.00000000 -0.00000000
vn 0.00000000 1.00000000 -0.00000000
vn 0.00000000 0.00000000 -1.00000000
vn 0.00000000 0.00000000 -1.00000000
vn 0.00000000 0.00000000 -1.00000000
vn 0.00000000 0.00000000 -1.00000000
vn -0.00000000 -1.00000000 0.00000000
vn -0.00000000 -1.00000000 0.00000000
vn -0.00000000 -1.00000000 0.00000000
vn -0.00000000 -1.00000000 0.00000000
vn -0.00000000 -1.00000000 0.00000000
vn -0.00000000 -1.00000000 0.00000000
vn -0.00000000 -1.00000000 0.00000000
vn -0.00000000 -1.00000000 0.00000000
s 1
usemtl Green_Stone_-_Dark
f 1/1/1 2/2/2 3/3/3
f 1/1/1 3/3/3 4/4/4
s 2
f 5/5/5 2/6/6 6/8/8
f 2/6/6 1/7/7 6/8/8
s 3
f 8/12/12 7/11/11 6/9/9
f 7/11/11 5/10/10 6/9/9
s 4
f 8/16/16 10/15/15 9/14/14
f 8/16/16 9/14/14 7/13/13
s 5
f 10/20/20 12/19/19 9/17/17
f 12/19/19 11/18/18 9/17/17
s 6
f 14/24/24 11/23/23 13/21/21
f 11/23/23 12/22/22 13/21/21
s 7
f 14/28/28 13/27/27 15/25/25
f 13/27/27 16/26/26 15/25/25
s 8
f 16/31/31 13/30/30 12/29/29
f 4/32/32 12/29/29 10/36/36
f 10/36/36 6/34/34 1/33/33
f 10/36/36 8/35/35 6/34/34
f 10/36/36 1/33/33 4/32/32
f 4/32/32 16/31/31 12/29/29
s 9
f 15/37/37 16/38/38 3/40/40
f 16/38/38 4/39/39 3/40/40
s 10
f 11/46/46 14/45/45 15/44/44
f 9/47/47 11/46/46 3/43/43
f 9/47/47 3/43/43 2/42/42
f 2/42/42 5/41/41 9/47/47
f 5/41/41 7/48/48 9/47/47
f 11/46/46 15/44/44 3/43/43
o object2
g object2
v -0.50000000 0.55000000 -0.56250000
v -0.50000000 0.55000000 -0.50000000
v -0.50000000 0.45000000 -0.50000000
v -0.50000000 0.45000000 -0.56250000
v -0.50000000 0.41250000 -0.60000000
v -0.50000000 0.36250000 -0.55000000
v -0.50000000 0.31250000 -0.60000000
v -0.50000000 -0.00000000 -0.60000000
v -0.50000000 -0.00000000 -0.40000000
v -0.50000000 1.00000000 -0.40000000
v -0.50000000 1.00000000 -0.60000000
v -0.50000000 0.68750000 -0.60000000
v -0.50000000 0.63750000 -0.55000000
v -0.50000000 0.58750000 -0.60000000
v -0.05989809 0.55000000 -0.56250000
v 0.56250000 0.55000000 0.05989809
v 0.56250000 0.55000000 0.50000000
v 0.50000000 0.55000000 0.50000000
v 0.50000000 0.55000000 0.08578644
v -0.08578644 0.55000000 -0.50000000
v 0.60000000 0.58750000 0.04436508
v -0.04436508 0.58750000 -0.60000000
v 0.55000000 0.63750000 0.06507576
v -0.06507576 0.63750000 -0.55000000
v 0.60000000 0.58750000 0.50000000
v 0.55000000 0.63750000 0.50000000
v 0.60000000 0.68750000 0.04436508
v 0.60000000 0.68750000 0.50000000
v 0.60000000 1.00000000 0.04436508
v 0.60000000 1.00000000 0.50000000
v -0.04436508 0.68750000 -0.60000000
v -0.04436508 1.00000000 -0.60000000
v 0.50000000 0.45000000 0.08578644
v -0.08578644 0.45000000 -0.50000000
v 0.50000000 0.45000000 0.50000000
v 0.40000000 1.00000000 0.50000000
v 0.40000000 -0.00000000 0.50000000
v 0.60000000 -0.00000000 0.50000000
v 0.60000000 0.31250000 0.50000000
v 0.55000000 0.36250000 0.50000000
v 0.60000000 0.41250000 0.50000000
v 0.56250000 0.45000000 0.50000000
v 0.40000000 -0.00000000 0.12720779
v 0.40000000 1.00000000 0.12720779
v -0.12720779 -0.00000000 -0.40000000
v -0.12720779 1.00000000 -0.40000000
v 0.56250000 0.45000000 0.05989809
v 0.60000000 0.41250000 0.04436508
v -0.04436508 0.41250000 -0.60000000
v -0.05989809 0.45000000 -0.56250000
v 0.55000000 0.36250000 0.06507576
v -0.06507576 0.36250000 -0.55000000
v 0.60000000 0.31250000 0.04436508
v -0.04436508 0.31250000 -0.60000000
v 0.60000000 -0.00000000 0.04436508
v -0.04436508 -0.00000000 -0.60000000
vt 0.18750000 0.55000000
vt 0.50000000 0.55000000
vt 0.50000000 0.45000000
vt 0.18750000 0.45000000
vt 0.00000000 0.41250000
vt 0.25000000 0.36250000
vt 0.00000000 0.31250000
vt 0.00000000 0.00000000
vt 1.00000000 0.00000000
vt 1.00000000 1.00000000
vt 0.00000000 1.00000000
vt 0.00000000 0.68750000
vt 0.25000000 0.63750000
vt 0.00000000 0.58750000
vt 1.00000000 0.41421356
vt 0.41421356 1.00000000
vt 0.00000000 1.00000000
vt 0.00000000 0.94117647
vt 0.38984806 0.94117647
vt 0.94117647 0.38984806
vt 0.94117647 0.00000000
vt 1.00000000 0.00000000
vt 1.00000000 0.00000000
vt 0.98295455 1.00000000
vt 0.01704545 1.00000000
vt 0.00000000 0.00000000
vt 0.97727273 0.00000000
vt 1.00000000 1.00000000
vt 0.00000000 1.00000000
vt 0.02272727 0.00000000
vt 1.00000000 1.00000000
vt 0.00000000 1.00000000
vt 0.04545455 0.00000000
vt 1.00000000 0.00000000
vt 0.04545455 1.00000000
vt 0.00000000 0.00000000
vt 1.00000000 0.00000000
vt 1.00000000 1.00000000
vt 1.00000000 0.00000000
vt 1.00000000 1.00000000
vt 0.00000000 1.00000000
vt 0.00000000 0.00000000
vt 0.00000000 0.00000000
vt 1.00000000 0.00000000
vt 1.00000000 1.00000000
vt 0.00000000 1.00000000
vt 1.00000000 0.00000000
vt 0.97727273 1.00000000
vt 0.02272727 1.00000000
vt 0.00000000 0.00000000
vt 0.00000000 0.00000000
vt 1.00000000 0.00000000
vt 1.00000000 1.00000000
vt 0.00000000 1.00000000
vt 1.00000000 0.00000000
vt 1.00000000 1.00000000
vt 0.00000000 1.00000000
vt 0.00000000 0.00000000
vt 1.00000000 0.00000000
vt 1.00000000 1.00000000
vt 0.00000000 1.00000000
vt 0.00000000 0.68750000
vt 0.25000000 0.63750000
vt 0.00000000 0.58750000
vt 0.18750000 0.55000000
vt 0.50000000 0.55000000
vt 0.50000000 0.45000000
vt 0.18750000 0.45000000
vt 0.00000000 0.41250000
vt 0.25000000 0.36250000
vt 0.00000000 0.31250000
vt 0.00000000 0.00000000
vt 1.00000000 0.00000000
vt 1.00000000 1.00000000
vt 0.00000000 1.00000000
vt 0.00000000 0.00000000
vt 1.00000000 0.00000000
vt 1.00000000 1.00000000
vt 0.00000000 1.00000000
vt 0.00000000 0.00000000
vt 0.96590909 1.00000000
vt 0.00000000 1.00000000
vt 0.00000000 0.00000000
vt 1.00000000 0.00000000
vt 0.01704545 1.00000000
vt 0.00000000 0.00000000
vt 1.00000000 0.00000000
vt 0.98295455 1.00000000
vt 1.00000000 0.00000000
vt 0.97727273 1.00000000
vt 0.02272727 1.00000000
vt 0.00000000 0.00000000
vt 0.97727273 0.00000000
vt 1.00000000 1.00000000
vt 0.00000000 1.00000000
vt 0.02272727 0.00000000
vt 0.00000000 0.00000000
vt 1.00000000 0.00000000
vt 1.00000000 1.00000000
vt 0.00000000 1.00000000
vt 0.04545455 1.00000000
vt 0.00000000 0.00000000
vt 1.00000000 0.00000000
vt 1.00000000 1.00000000
vt 1.00000000 1.00000000
vt 0.00000000 1.00000000
vt 0.04545455 0.00000000
vt 1.00000000 0.00000000
vt 1.00000000 1.00000000
vt 0.00000000 1.00000000
vt 0.00000000 0.00000000
vt 1.00000000 0.00000000
vt 0.03409091 1.00000000
vt 0.00000000 0.00000000
vt 1.00000000 0.00000000
vt 1.00000000 1.00000000
vt 0.96590909 1.00000000
vt 0.00000000 1.00000000
vt 0.00000000 0.00000000
vt 1.00000000 0.00000000
vt 0.00000000 1.00000000
vt 0.00000000 0.00000000
vt 0.95454545 0.00000000
vt 1.00000000 1.00000000
vt 0.95454545 1.00000000
vt 0.00000000 1.00000000
vt 0.00000000 0.00000000
vt 1.00000000 0.00000000
vt 1.00000000 0.00000000
vt 1.00000000 1.00000000
vt 0.00000000 1.00000000
vt 0.00000000 0.00000000
vt 1.00000000 0.41421356
vt 0.41421356 1.00000000
vt 0.00000000 1.00000000
vt 0.00000000 0.81818182
vt 0.33890201 0.81818182
vt 0.81818182 0.33890201
vt 0.81818182 0.00000000
vt 1.00000000 0.00000000
vt 0.00000000 1.00000000
vt 0.00000000 0.00000000
vt 1.00000000 0.00000000
vt 1.00000000 1.00000000
vt 0.81818182 0.66109799
vt 0.33890201 0.18181818
vt 0.00000000 0.18181818
vt 0.00000000 0.00000000
vt 0.41421356 0.00000000
vt 1.00000000 0.58578644
vt 1.00000000 1.00000000
vt 0.81818182 1.00000000
vt 1.00000000 0.00000000
vt 1.00000000 1.00000000
vt 0.00000000 1.00000000
vt 0.00000000 0.00000000
vt 0.00000000 1.00000000
vt 0.00000000 0.00000000
vt 0.95454545 0.00000000
vt 1.00000000 1.00000000
vt 0.95454545 1.00000000
vt 0.00000000 1.00000000
vt 0.00000000 0.00000000
vt 1.00000000 0.00000000
vt 0.03409091 1.00000000
vt 0.00000000 0.00000000
vt 1.00000000 0.00000000
vt 1.00000000 1.00000000
vt 0.94117647 0.61015194
vt 0.38984806 0.05882353
vt 0.00000000 0.05882353
vt 0.00000000 0.00000000
vt 0.41421356 0.00000000
vt 1.00000000 0.58578644
vt 1.00000000 1.00000000
vt 0.94117647 1.00000000
vt 1.00000000 1.00000000
vt 0.00000000 1.00000000
vt 0.00000000 0.00000000
vt 1.00000000 0.00000000
vn -1.00000000 -0.00000000 0.00000000
vn -1.00000000 -0.00000000 0.00000000
vn -1.00000000 -0.00000000 0.00000000
vn -1.00000000 -0.00000000 0.00000000
vn -1.00000000 -0.00000000 0.00000000
vn -1.00000000 -0.00000000 0.00000000
vn -1.00000000 -0.00000000 0.00000000
vn -1.00000000 -0.00000000 0.00000000
vn -1.00000000 -0.00000000 0.00000000
vn -1.00000000 -0.00000000 0.00000000
vn -1.00000000 -0.00000000 0.00000000
vn -1.00000000 -0.00000000 0.00000000
vn -1.00000000 -0.00000000 0.00000000
vn -1.00000000 -0.00000000 0.00000000
vn 0.00000000 -1.00000000 -0.00000000
vn 0.00000000 -1.00000000 -0.00000000
vn 0.00000000 -1.00000000 -0.00000000
vn 0.00000000 -1.00000000 -0.00000000
vn 0.00000000 -1.00000000 -0.00000000
vn 0.00000000 -1.00000000 -0.00000000
vn 0.00000000 -1.00000000 -0.00000000
vn 0.00000000 -1.00000000 -0.00000000
vn 0.50000000 -0.70710678 -0.50000000
vn 0.50000000 -0.70710678 -0.50000000
vn 0.50000000 -0.70710678 -0.50000000
vn 0.50000000 -0.70710678 -0.50000000
vn 0.50000000 0.70710678 -0.50000000
vn 0.50000000 0.70710678 -0.50000000
vn 0.50000000 0.70710678 -0.50000000
vn 0.50000000 0.70710678 -0.50000000
vn 0.70710678 0.70710678 0.00000000
vn 0.70710678 0.70710678 0.00000000
vn 0.70710678 0.70710678 0.00000000
vn 0.70710678 0.70710678 0.00000000
vn 0.70710678 -0.70710678 0.00000000
vn 0.70710678 -0.70710678 0.00000000
vn 0.70710678 -0.70710678 0.00000000
vn 0.70710678 -0.70710678 0.00000000
vn 1.00000000 0.00000000 0.00000000
vn 1.00000000 0.00000000 0.00000000
vn 1.00000000 0.00000000 0.00000000
vn 1.00000000 0.00000000 0.00000000
vn 0.70710678 -0.00000000 -0.70710678
vn 0.70710678 -0.00000000 -0.70710678
vn 0.70710678 0.00000000 -0.70710678
vn 0.70710678 0.00000000 -0.70710678
vn 0.50000000 -0.70710678 -0.50000000
vn 0.50000000 -0.70710678 -0.50000000
vn 0.50000000 -0.70710678 -0.50000000
vn 0.50000000 -0.70710678 -0.50000000
vn 0.70710678 0.00000000 -0.70710678
vn 0.70710678 0.00000000 -0.70710678
vn 0.70710678 -0.00000000 -0.70710678
vn 0.70710678 -0.00000000 -0.70710678
vn 1.00000000 0.00000000 0.00000000
vn 1.00000000 0.00000000 0.00000000
vn 1.00000000 0.00000000 0.00000000
vn 1.00000000 0.00000000 0.00000000
vn -0.00000000 0.00000000 1.00000000
vn -0.00000000 0.00000000 1.00000000
vn -0.00000000 0.00000000 1.00000000
vn -0.00000000 0.00000000 1.00000000
vn -0.00000000 0.00000000 1.00000000
vn -0.00000000 0.00000000 1.00000000
vn -0.00000000 0.00000000 1.00000000
vn -0.00000000 0.00000000 1.00000000
vn -0.00000000 0.00000000 1.00000000
vn -0.00000000 0.00000000 1.00000000
vn -0.00000000 0.00000000 1.00000000
vn -0.00000000 0.00000000 1.00000000
vn -0.00000000 0.00000000 1.00000000
vn -0.00000000 0.00000000 1.00000000
vn -1.00000000 -0.00000000 -0.00000000
vn -1.00000000 -0.00000000 -0.00000000
vn -1.00000000 -0.00000000 -0.00000000
vn -1.00000000 -0.00000000 -0.00000000
vn -0.70710678 -0.00000000 0.70710678
vn -0.70710678 -0.00000000 0.70710678
vn -0.70710678 -0.00000000 0.70710678
vn -0.70710678 -0.00000000 0.70710678
vn 0.70710678 0.70710678 0.00000000
vn 0.70710678 0.70710678 0.00000000
vn 0.70710678 0.70710678 0.00000000
vn 0.70710678 0.70710678 0.00000000
vn 0.50000000 0.70710678 -0.50000000
vn 0.50000000 0.70710678 -0.50000000
vn 0.50000000 0.70710678 -0.50000000
vn 0.50000000 0.70710678 -0.50000000
vn 0.50000000 -0.70710678 -0.50000000
vn 0.50000000 -0.70710678 -0.50000000
vn 0.50000000 -0.70710678 -0.50000000
vn 0.50000000 -0.70710678 -0.50000000
vn 0.50000000 0.70710678 -0.50000000
vn 0.50000000 0.70710678 -0.50000000
vn 0.50000000 0.70710678 -0.50000000
vn 0.50000000 0.70710678 -0.50000000
vn 0.70710678 0.00000000 -0.70710678
vn 0.70710678 0.00000000 -0.70710678
vn 0.70710678 0.00000000 -0.70710678
vn 0.70710678 0.00000000 -0.70710678
vn 0.70710678 -0.70710678 0.00000000
vn 0.70710678 -0.70710678 0.00000000
vn 0.70710678 -0.70710678 0.00000000
vn 0.70710678 -0.70710678 0.00000000
vn 0.70710678 0.70710678 0.00000000
vn 0.70710678 0.70710678 0.00000000
vn 0.70710678 0.70710678 0.00000000
vn 0.70710678 0.70710678 0.00000000
vn 1.00000000 0.00000000 0.00000000
vn 1.00000000 0.00000000 0.00000000
vn 1.00000000 0.00000000 0.00000000
vn 1.00000000 0.00000000 0.00000000
vn 0.70710678 -0.70710678 0.00000000
vn 0.70710678 -0.70710678 0.00000000
vn 0.70710678 -0.70710678 0.00000000
vn 0.70710678 -0.70710678 0.00000000
vn 0.00000000 -0.70710678 -0.70710678
vn 0.00000000 -0.70710678 -0.70710678
vn 0.00000000 -0.70710678 -0.70710678
vn 0.00000000 -0.70710678 -0.70710678
vn 0.00000000 0.70710678 -0.70710678
vn 0.00000000 0.70710678 -0.70710678
vn 0.00000000 0.70710678 -0.70710678
vn 0.00000000 0.70710678 -0.70710678
vn 0.00000000 -0.70710678 -0.70710678
vn 0.00000000 -0.70710678 -0.70710678
vn 0.00000000 -0.70710678 -0.70710678
vn 0.00000000 -0.70710678 -0.70710678
vn 0.00000000 -0.00000000 -1.00000000
vn 0.00000000 -0.00000000 -1.00000000
vn 0.00000000 -0.00000000 -1.00000000
vn 0.00000000 -0.00000000 -1.00000000
vn -0.00000000 1.00000000 0.00000000
vn -0.00000000 1.00000000 0.00000000
vn -0.00000000 1.00000000 0.00000000
vn -0.00000000 1.00000000 0.00000000
vn -0.00000000 1.00000000 0.00000000
vn -0.00000000 1.00000000 0.00000000
vn -0.00000000 1.00000000 0.00000000
vn -0.00000000 1.00000000 0.00000000
vn -0.00000000 -0.00000000 1.00000000
vn -0.00000000 -0.00000000 1.00000000
vn -0.00000000 -0.00000000 1.00000000
vn -0.00000000 -0.00000000 1.00000000
vn 0.00000000 -1.00000000 0.00000000
vn 0.00000000 -1.00000000 0.00000000
vn 0.00000000 -1.00000000 0.00000000
vn 0.00000000 -1.00000000 0.00000000
vn 0.00000000 -1.00000000 0.00000000
vn 0.00000000 -1.00000000 0.00000000
vn 0.00000000 -1.00000000 0.00000000
vn 0.00000000 -1.00000000 0.00000000
vn 0.00000000 -0.00000000 -1.00000000
vn 0.00000000 -0.00000000 -1.00000000
vn 0.00000000 -0.00000000 -1.00000000
vn 0.00000000 -0.00000000 -1.00000000
vn 0.00000000 0.70710678 -0.70710678
vn 0.00000000 0.70710678 -0.70710678
vn 0.00000000 0.70710678 -0.70710678
vn 0.00000000 0.70710678 -0.70710678
vn 0.00000000 -0.70710678 -0.70710678
vn 0.00000000 -0.70710678 -0.70710678
vn 0.00000000 -0.70710678 -0.70710678
vn 0.00000000 -0.70710678 -0.70710678
vn 0.00000000 0.70710678 -0.70710678
vn 0.00000000 0.70710678 -0.70710678
vn 0.00000000 0.70710678 -0.70710678
vn 0.00000000 0.70710678 -0.70710678
vn -0.00000000 1.00000000 0.00000000
vn -0.00000000 1.00000000 0.00000000
vn -0.00000000 1.00000000 0.00000000
vn -0.00000000 1.00000000 0.00000000
vn -0.00000000 1.00000000 0.00000000
vn -0.00000000 1.00000000 0.00000000
vn -0.00000000 1.00000000 0.00000000
vn -0.00000000 1.00000000 0.00000000
vn 0.00000000 0.00000000 -1.00000000
vn 0.00000000 0.00000000 -1.00000000
vn 0.00000000 0.00000000 -1.00000000
vn 0.00000000 0.00000000 -1.00000000
s 1
usemtl Sandstone_Trim
f 20/52/52 21/53/53 22/54/54
f 19/51/51 22/54/54 25/57/57
f 25/57/57 26/58/58 18/50/50
f 29/61/61 17/49/49 18/50/50
f 29/61/61 30/62/62 17/49/49
f 26/58/58 29/61/61 18/50/50
f 26/58/58 28/60/60 29/61/61
f 26/58/58 27/59/59 28/60/60
f 23/55/55 24/56/56 25/57/57
f 18/50/50 19/51/51 25/57/57
f 22/54/54 23/55/55 25/57/57
f 19/51/51 20/52/52 22/54/54
s 2
usemtl Sandstone_5
f 36/68/68 18/69/69 17/70/70
f 31/63/63 32/64/64 36/68/68
f 32/64/64 33/65/65 35/67/67
f 33/65/65 34/66/66 35/67/67
f 32/64/64 35/67/67 36/68/68
f 36/68/68 17/70/70 31/63/63
s 3
f 37/71/71 32/72/72 38/74/74
f 32/72/72 31/73/73 38/74/74
s 4
f 39/75/75 37/76/76 38/77/77
f 39/75/75 38/77/77 40/78/78
s 5
f 41/79/79 37/80/80 39/81/81
f 41/79/79 39/81/81 42/82/82
s 6
usemtl Sandstone_Trim
f 39/83/83 43/84/84 44/85/85
f 39/83/83 44/85/85 42/86/86
s 7
f 44/87/87 43/88/88 45/89/89
f 44/87/87 45/89/89 46/90/90
s 8
f 45/91/91 43/92/92 48/94/94
f 43/92/92 47/93/93 48/94/94
s 9
f 43/95/95 39/96/96 47/98/98
f 39/96/96 40/97/97 47/98/98
s 10
usemtl Sandstone_5
f 35/99/99 49/100/100 50/101/101
f 35/99/99 50/101/101 36/102/102
s 11
f 51/103/103 49/104/104 34/106/106
f 49/104/104 35/105/105 34/106/106
s 12
usemtl Sandstone_Trim
f 56/111/111 57/112/112 58/113/113
f 53/108/108 56/111/111 51/114/114
f 53/108/108 51/114/114 34/115/115
f 34/115/115 42/118/118 52/107/107
f 44/119/119 46/120/120 52/107/107
f 42/118/118 44/119/119 52/107/107
f 33/116/116 41/117/117 42/118/118
f 34/115/115 33/116/116 42/118/118
f 34/115/115 52/107/107 53/108/108
f 53/108/108 54/109/109 55/110/110
f 53/108/108 55/110/110 56/111/111
f 56/111/111 58/113/113 51/114/114
s 13
f 52/124/124 60/123/123 59/122/122
f 52/124/124 59/122/122 53/121/121
s 14
f 60/128/128 62/127/127 61/126/126
f 60/128/128 61/126/126 59/125/125
s 15
usemtl Sandstone_5
f 63/129/129 58/130/130 57/131/131
f 63/129/129 57/131/131 64/132/132
s 16
f 63/133/133 64/134/134 65/135/135
f 63/133/133 65/135/135 66/136/136
s 17
f 64/137/137 67/138/138 65/140/140
f 67/138/138 68/139/139 65/140/140
s 18
usemtl Sandstone_Trim
f 67/141/141 69/142/142 70/143/143
f 67/141/141 70/143/143 68/144/144
s 19
f 69/145/145 71/146/146 70/148/148
f 71/146/146 72/147/147 70/148/148
s 20
usemtl Sandstone_5
f 67/149/149 64/150/150 57/151/151
f 67/149/149 57/151/151 56/152/152
s 21
usemtl Sandstone_Trim
f 55/153/153 69/154/154 67/155/155
f 55/153/153 67/155/155 56/156/156
s 22
f 71/157/157 69/158/158 54/160/160
f 69/158/158 55/159/159 54/160/160
s 23
usemtl Sandstone_5
f 32/161/161 37/162/162 41/163/163
f 32/161/161 41/163/163 33/164/164
s 24
f 31/165/165 17/166/166 30/167/167
f 31/165/165 30/167/167 38/168/168
s 25
f 30/169/169 29/170/170 40/171/171
f 30/169/169 40/171/171 38/172/172
s 26
usemtl Sandstone_Trim
f 40/173/173 29/174/174 28/175/175
f 40/173/173 28/175/175 47/176/176
s 27
f 47/177/177 28/178/178 48/180/180
f 28/178/178 27/179/179 48/180/180
s 28
f 27/188/188 26/187/187 62/186/186
f 62/186/186 45/182/182 48/181/181
f 60/185/185 46/183/183 45/182/182
f 60/185/185 52/184/184 46/183/183
f 62/186/186 60/185/185 45/182/182
f 48/181/181 27/188/188 62/186/186
s 29
f 25/192/192 61/191/191 26/189/189
f 61/191/191 62/190/190 26/189/189
s 30
f 61/193/193 25/200/200 24/199/199
f 59/194/194 61/193/193 72/198/198
f 72/198/198 71/197/197 59/194/194
f 71/197/197 54/196/196 59/194/194
f 54/196/196 53/195/195 59/194/194
f 61/193/193 24/199/199 72/198/198
s 31
f 72/201/201 24/202/202 70/204/204
f 24/202/202 23/203/203 70/204/204
s 32
f 23/205/205 22/206/206 68/207/207
f 23/205/205 68/207/207 70/208/208
s 33
usemtl Sandstone_5
f 68/209/209 22/210/210 21/211/211
f 68/209/209 21/211/211 65/212/212
s 34
f 66/213/213 65/214/214 21/215/215
f 66/213/213 21/215/215 20/216/216
s 35
f 20/223/223 19/224/224 50/217/217
f 50/217/217 63/221/221 66/222/222
f 49/218/218 58/220/220 63/221/221
f 49/218/218 51/219/219 58/220/220
f 50/217/217 49/218/218 63/221/221
f 66/222/222 20/223/223 50/217/217
s 36
f 19/225/225 18/226/226 50/228/228
f 18/226/226 36/227/227 50/228/228
