mtllib Materials_Modular_Temple.mtl
o object1
g object1
v -0.40423378 -0.10000000 0.20000000
v -0.44565513 -0.10000000 0.10000000
v -0.44565513 -0.07500000 0.10000000
v -0.45000000 -0.06451057 0.08951057
v -0.45000000 -0.20000000 0.08951057
v -0.38149158 -0.20000000 0.25490452
v -0.38149158 -0.05000000 0.25490452
v -0.38352310 -0.05000000 0.25000000
v -0.39387844 -0.05000000 0.22500000
v -0.40423378 -0.07500000 0.20000000
v 0.20000000 -0.10000000 0.20000000
v 0.20000000 -0.10000000 0.10000000
v 0.20000000 -0.07500000 0.10000000
v 0.20000000 -0.07500000 0.20000000
v 0.22500000 -0.05000000 0.07500000
v 0.22500000 -0.05000000 0.22500000
v -0.39387844 -0.05000000 -0.22500000
v -0.38352310 -0.05000000 -0.25000000
v 0.25000000 -0.05000000 -0.25000000
v 0.25000000 -0.05000000 0.25000000
v -0.45000000 -0.05000000 0.07500000
v -0.45000000 -0.05000000 -0.07500000
v 0.22500000 -0.05000000 -0.07500000
v 0.22500000 -0.05000000 -0.22500000
v 0.25000000 0.00000000 0.25000000
v 0.25000000 0.00000000 -0.25000000
v -0.31568542 0.00000000 0.25000000
v -0.22658180 0.00000000 0.33910363
v -0.07956495 0.00000000 0.40000000
v 0.07956495 0.00000000 0.40000000
v 0.22658180 0.00000000 0.33910363
v 0.33910363 0.00000000 0.22658180
v 0.40000000 0.00000000 0.07956495
v 0.40000000 0.00000000 -0.07956495
v 0.33910363 0.00000000 -0.22658180
v 0.22658180 0.00000000 -0.33910363
v 0.07956495 0.00000000 -0.40000000
v -0.07956495 0.00000000 -0.40000000
v -0.22658180 0.00000000 -0.33910363
v -0.31568542 0.00000000 -0.25000000
v -0.37415144 -0.04134172 0.25000000
v -0.25490452 -0.05000000 0.38149158
v -0.37415144 -0.04134172 -0.25000000
v -0.38149158 -0.05000000 -0.25490452
v -0.25490452 -0.05000000 -0.38149158
v -0.25490452 -0.20000000 -0.38149158
v -0.38149158 -0.20000000 -0.25490452
v -0.08951057 -0.05000000 -0.45000000
v -0.08951057 -0.20000000 -0.45000000
v 0.08951057 -0.05000000 -0.45000000
v 0.08951057 -0.20000000 -0.45000000
v 0.25490452 -0.05000000 -0.38149158
v 0.25490452 -0.20000000 -0.38149158
v 0.38149158 -0.05000000 -0.25490452
v 0.38149158 -0.20000000 -0.25490452
v 0.45000000 -0.05000000 -0.08951057
v 0.45000000 -0.20000000 -0.08951057
v 0.45000000 -0.05000000 0.08951057
v 0.45000000 -0.20000000 0.08951057
v 0.38149158 -0.05000000 0.25490452
v 0.38149158 -0.20000000 0.25490452
v 0.25490452 -0.05000000 0.38149158
v 0.25490452 -0.20000000 0.38149158
v 0.08951057 -0.05000000 0.45000000
v 0.08951057 -0.20000000 0.45000000
v -0.08951057 -0.05000000 0.45000000
v -0.08951057 -0.20000000 0.45000000
v -0.25490452 -0.20000000 0.38149158
v -0.45000000 -0.06451057 -0.08951057
v -0.44565513 -0.07500000 -0.10000000
v 0.20000000 -0.07500000 -0.10000000
v -0.44565513 -0.10000000 -0.10000000
v 0.20000000 -0.10000000 -0.10000000
v -0.40423378 -0.10000000 -0.20000000
v 0.20000000 -0.10000000 -0.20000000
v -0.40423378 -0.07500000 -0.20000000
v 0.20000000 -0.07500000 -0.20000000
v -0.45000000 -0.20000000 -0.08951057
v 0.00000000 -0.20000000 0.00000000
vt 0.33333333 0.66803791
vt 0.33333333 0.06342091
vt 0.16666667 0.06342091
vt 0.09673710 0.00000000
vt 1.00000000 0.00000000
vt 1.00000000 1.00000000
vt 0.00000000 1.00000000
vt 0.00000000 0.97034641
vt 0.00000000 0.81919216
vt 0.16666667 0.66803791
vt 1.00000000 1.00000000
vt 0.00000000 0.93584600
vt 0.00000000 0.00000000
vt 1.00000000 0.00000000
vt 1.00000000 1.00000000
vt 0.00000000 1.00000000
vt 0.00000000 0.00000000
vt 1.00000000 0.00000000
vt 1.00000000 0.00000000
vt 0.83333333 1.00000000
vt 0.16666667 1.00000000
vt 0.00000000 0.00000000
vt 0.00000000 0.00000000
vt 1.00000000 0.00000000
vt 1.00000000 1.00000000
vt 0.00000000 1.00000000
vt 0.00000000 1.00000000
vt 0.01645706 0.00000000
vt 1.00000000 0.00000000
vt 0.96026914 1.00000000
vt 0.95000000 0.08017366
vt 1.00000000 0.09496700
vt 1.00000000 1.00000000
vt 0.00000000 1.00000000
vt 0.00000000 0.09496700
vt 0.05000000 0.08017366
vt 0.05000000 0.96428571
vt 0.35000000 0.96428571
vt 0.35000000 0.00000000
vt 0.65000000 0.00000000
vt 0.65000000 0.96428571
vt 0.95000000 0.96428571
vt 1.00000000 1.00000000
vt 0.00000000 1.00000000
vt 0.00000000 0.00000000
vt 1.00000000 0.00000000
vt 0.18750000 1.00000000
vt 0.07612047 0.87549890
vt 0.00000000 0.67007784
vt 0.00000000 0.44773170
vt 0.07612047 0.24231065
vt 0.21677275 0.08508819
vt 0.40054382 0.00000000
vt 0.59945618 0.00000000
vt 0.78322725 0.08508819
vt 0.92387953 0.24231065
vt 1.00000000 0.44773170
vt 1.00000000 0.67007784
vt 0.92387953 0.87549890
vt 0.81250000 1.00000000
vt 0.81250000 0.20958929
vt 0.18750000 0.20958929
vt 0.00000000 0.00000000
vt 0.17316568 0.00000000
vt 1.00000000 0.20812141
vt 1.00000000 1.00000000
vt 0.00000000 1.00000000
vt 1.00000000 0.00000000
vt 1.00000000 0.79187859
vt 0.17316568 1.00000000
vt 0.00000000 1.00000000
vt 0.00000000 0.00000000
vt 0.00000000 0.00000000
vt 1.00000000 0.00000000
vt 0.00000000 1.00000000
vt 0.00000000 1.00000000
vt 0.00000000 0.00000000
vt 1.00000000 0.00000000
vt 1.00000000 1.00000000
vt 0.00000000 1.00000000
vt 0.00000000 0.00000000
vt 1.00000000 0.00000000
vt 1.00000000 1.00000000
vt 0.00000000 1.00000000
vt 0.00000000 0.00000000
vt 1.00000000 0.00000000
vt 1.00000000 1.00000000
vt 0.00000000 1.00000000
vt 0.00000000 0.00000000
vt 1.00000000 0.00000000
vt 1.00000000 1.00000000
vt 0.00000000 1.00000000
vt 0.00000000 0.00000000
vt 1.00000000 0.00000000
vt 1.00000000 1.00000000
vt 0.00000000 1.00000000
vt 0.00000000 0.00000000
vt 1.00000000 0.00000000
vt 1.00000000 1.00000000
vt 0.00000000 1.00000000
vt 0.00000000 0.00000000
vt 1.00000000 0.00000000
vt 1.00000000 1.00000000
vt 0.00000000 1.00000000
vt 0.00000000 0.00000000
vt 1.00000000 0.00000000
vt 1.00000000 1.00000000
vt 0.00000000 1.00000000
vt 0.00000000 0.00000000
vt 1.00000000 0.00000000
vt 1.00000000 1.00000000
vt 0.00000000 1.00000000
vt 0.00000000 0.00000000
vt 1.00000000 0.00000000
vt 1.00000000 1.00000000
vt 0.00000000 1.00000000
vt 0.00000000 0.00000000
vt 1.00000000 0.00000000
vt 1.00000000 1.00000000
vt 0.00000000 1.00000000
vt 0.00000000 0.00000000
vt 1.00000000 0.00000000
vt 1.00000000 1.00000000
vt 0.00000000 1.00000000
vt 0.00000000 0.00000000
vt 1.00000000 0.00000000
vt 1.00000000 1.00000000
vt 0.00000000 1.00000000
vt 0.00000000 0.00000000
vt 1.00000000 0.00000000
vt 1.00000000 1.00000000
vt 0.00000000 1.00000000
vt 0.00000000 0.00000000
vt 1.00000000 0.00000000
vt 1.00000000 1.00000000
vt 0.00000000 1.00000000
vt 0.00000000 0.00000000
vt 1.00000000 0.00000000
vt 1.00000000 1.00000000
vt 0.00000000 1.00000000
vt 0.00000000 0.00000000
vt 1.00000000 0.00000000
vt 1.00000000 1.00000000
vt 0.00000000 1.00000000
vt 0.00000000 0.00000000
vt 1.00000000 0.00000000
vt 1.00000000 1.00000000
vt 0.00000000 1.00000000
vt 0.00000000 0.00000000
vt 1.00000000 0.00000000
vt 1.00000000 1.00000000
vt 0.00000000 1.00000000
vt 0.00000000 0.00000000
vt 1.00000000 0.00000000
vt 1.00000000 1.00000000
vt 0.00000000 1.00000000
vt 0.00000000 0.00000000
vt 1.00000000 0.00000000
vt 1.00000000 1.00000000
vt 0.00000000 1.00000000
vt 0.00000000 0.00000000
vt 1.00000000 0.00000000
vt 1.00000000 1.00000000
vt 0.00000000 1.00000000
vt 0.00000000 0.00000000
vt 1.00000000 0.00000000
vt 1.00000000 1.00000000
vt 0.00000000 0.00000000
vt 0.17316568 0.01479292
vt 1.00000000 0.10708003
vt 1.00000000 1.00000000
vt 0.00000000 1.00000000
vt 1.00000000 1.00000000
vt 0.00000000 1.00000000
vt 0.00000000 0.41957739
vt 0.00643684 0.00000000
vt 0.96296296 0.00000000
vt 1.00000000 1.00000000
vt 0.00000000 1.00000000
vt 0.00000000 0.00000000
vt 1.00000000 0.00000000
vt 1.00000000 0.93584600
vt 0.00000000 1.00000000
vt 0.00000000 0.00000000
vt 1.00000000 0.00000000
vt 0.00000000 0.00000000
vt 1.00000000 0.00000000
vt 1.00000000 1.00000000
vt 0.00000000 1.00000000
vt 0.00000000 0.00000000
vt 1.00000000 0.00000000
vt 1.00000000 1.00000000
vt 0.00000000 1.00000000
vt 0.16666667 1.00000000
vt 0.00000000 0.00000000
vt 1.00000000 0.00000000
vt 0.83333333 1.00000000
vt 0.00000000 1.00000000
vt 0.01645706 0.00000000
vt 1.00000000 0.00000000
vt 0.96026914 1.00000000
vt 0.09673710 1.00000000
vt 0.16666667 0.93657909
vt 0.33333333 0.93657909
vt 0.33333333 0.33196209
vt 0.16666667 0.33196209
vt 0.00000000 0.18080784
vt 0.00000000 0.02965359
vt 0.00000000 0.00000000
vt 1.00000000 0.00000000
vt 1.00000000 1.00000000
vt 0.00000000 0.00000000
vt 0.17316568 0.01479292
vt 1.00000000 0.10708003
vt 1.00000000 1.00000000
vt 0.00000000 1.00000000
vt 0.00000000 1.00000000
vt 0.00000000 0.00000000
vt 1.00000000 1.00000000
vt 0.00000000 1.00000000
vt 0.00000000 0.00000000
vt 1.00000000 0.00000000
vt 1.00000000 1.00000000
vt 0.78322725 0.92387953
vt 0.59945618 1.00000000
vt 0.40054382 1.00000000
vt 0.21677275 0.92387953
vt 0.07612047 0.78322725
vt 0.00000000 0.59945618
vt 0.00000000 0.40054382
vt 0.07612047 0.21677275
vt 0.21677275 0.07612047
vt 0.40054382 0.00000000
vt 0.59945618 0.00000000
vt 0.78322725 0.07612047
vt 0.92387953 0.21677275
vt 1.00000000 0.40054382
vt 1.00000000 0.59945618
vt 0.92387953 0.78322725
vt 0.50000000 0.50000000
vt 0.00000000 0.08105504
vt 0.09673710 0.00000000
vt 1.00000000 0.00000000
vt 1.00000000 1.00000000
vt 0.09673710 1.00000000
vt 0.00000000 0.91894496
vt 0.00000000 1.00000000
vt 0.00000000 0.41957739
vt 0.00643684 0.00000000
vt 0.96296296 0.00000000
vt 1.00000000 1.00000000
vt 0.00000000 1.00000000
vt 0.00000000 0.00000000
vt 1.00000000 0.00000000
vt 1.00000000 1.00000000
vn -0.92387953 0.00000000 0.38268343
vn -0.92387953 0.00000000 0.38268343
vn -0.92387953 0.00000000 0.38268343
vn -0.92387953 0.00000000 0.38268343
vn -0.92387953 0.00000000 0.38268343
vn -0.92387953 0.00000000 0.38268343
vn -0.92387953 0.00000000 0.38268343
vn -0.92387953 0.00000000 0.38268343
vn -0.92387953 0.00000000 0.38268343
vn -0.92387953 0.00000000 0.38268343
vn 0.00000000 1.00000000 0.00000000
vn 0.00000000 1.00000000 0.00000000
vn 0.00000000 1.00000000 0.00000000
vn 0.00000000 1.00000000 0.00000000
vn -1.00000000 0.00000000 0.00000000
vn -1.00000000 0.00000000 0.00000000
vn -1.00000000 0.00000000 0.00000000
vn -1.00000000 0.00000000 0.00000000
vn -0.70710678 0.70710678 0.00000000
vn -0.70710678 0.70710678 0.00000000
vn -0.70710678 0.70710678 0.00000000
vn -0.70710678 0.70710678 0.00000000
vn 0.00000000 0.00000000 -1.00000000
vn 0.00000000 0.00000000 -1.00000000
vn 0.00000000 0.00000000 -1.00000000
vn 0.00000000 0.00000000 -1.00000000
vn 0.00000000 0.70710678 -0.70710678
vn 0.00000000 0.70710678 -0.70710678
vn 0.00000000 0.70710678 -0.70710678
vn 0.00000000 0.70710678 -0.70710678
vn 0.00000000 1.00000000 0.00000000
vn 0.00000000 1.00000000 0.00000000
vn 0.00000000 1.00000000 0.00000000
vn 0.00000000 1.00000000 0.00000000
vn 0.00000000 1.00000000 0.00000000
vn 0.00000000 1.00000000 0.00000000
vn 0.00000000 1.00000000 0.00000000
vn 0.00000000 1.00000000 0.00000000
vn 0.00000000 1.00000000 0.00000000
vn 0.00000000 1.00000000 0.00000000
vn 0.00000000 1.00000000 0.00000000
vn 0.00000000 1.00000000 0.00000000
vn -1.00000000 0.00000000 0.00000000
vn -1.00000000 0.00000000 0.00000000
vn -1.00000000 0.00000000 0.00000000
vn -1.00000000 0.00000000 0.00000000
vn 0.00000000 1.00000000 0.00000000
vn 0.00000000 1.00000000 0.00000000
vn 0.00000000 1.00000000 0.00000000
vn 0.00000000 1.00000000 0.00000000
vn 0.00000000 1.00000000 0.00000000
vn 0.00000000 1.00000000 0.00000000
vn 0.00000000 1.00000000 0.00000000
vn 0.00000000 1.00000000 0.00000000
vn 0.00000000 1.00000000 0.00000000
vn 0.00000000 1.00000000 0.00000000
vn 0.00000000 1.00000000 0.00000000
vn 0.00000000 1.00000000 0.00000000
vn 0.00000000 1.00000000 0.00000000
vn 0.00000000 1.00000000 0.00000000
vn 0.00000000 1.00000000 0.00000000
vn 0.00000000 1.00000000 0.00000000
vn -0.50000000 0.70710678 0.50000000
vn -0.50000000 0.70710678 0.50000000
vn -0.50000000 0.70710678 0.50000000
vn -0.50000000 0.70710678 0.50000000
vn -0.50000000 0.70710678 0.50000000
vn -0.50000000 0.70710678 -0.50000000
vn -0.50000000 0.70710678 -0.50000000
vn -0.50000000 0.70710678 -0.50000000
vn -0.50000000 0.70710678 -0.50000000
vn -0.50000000 0.70710678 -0.50000000
vn -0.65328148 0.70710678 -0.27059805
vn -0.65328148 0.70710678 -0.27059805
vn -0.65328148 0.70710678 -0.27059805
vn -0.70710678 0.00000000 -0.70710678
vn -0.70710678 0.00000000 -0.70710678
vn -0.70710678 0.00000000 -0.70710678
vn -0.70710678 0.00000000 -0.70710678
vn -0.38268343 0.00000000 -0.92387953
vn -0.38268343 0.00000000 -0.92387953
vn -0.38268343 0.00000000 -0.92387953
vn -0.38268343 0.00000000 -0.92387953
vn 0.00000000 0.00000000 -1.00000000
vn 0.00000000 0.00000000 -1.00000000
vn 0.00000000 0.00000000 -1.00000000
vn 0.00000000 0.00000000 -1.00000000
vn 0.38268343 0.00000000 -0.92387953
vn 0.38268343 0.00000000 -0.92387953
vn 0.38268343 0.00000000 -0.92387953
vn 0.38268343 0.00000000 -0.92387953
vn 0.70710678 0.00000000 -0.70710678
vn 0.70710678 0.00000000 -0.70710678
vn 0.70710678 0.00000000 -0.70710678
vn 0.70710678 0.00000000 -0.70710678
vn 0.92387953 0.00000000 -0.38268343
vn 0.92387953 0.00000000 -0.38268343
vn 0.92387953 0.00000000 -0.38268343
vn 0.92387953 0.00000000 -0.38268343
vn 1.00000000 0.00000000 0.00000000
vn 1.00000000 0.00000000 0.00000000
vn 1.00000000 0.00000000 0.00000000
vn 1.00000000 0.00000000 0.00000000
vn 0.92387953 0.00000000 0.38268343
vn 0.92387953 0.00000000 0.38268343
vn 0.92387953 0.00000000 0.38268343
vn 0.92387953 0.00000000 0.38268343
vn 0.70710678 0.00000000 0.70710678
vn 0.70710678 0.00000000 0.70710678
vn 0.70710678 0.00000000 0.70710678
vn 0.70710678 0.00000000 0.70710678
vn 0.38268343 0.00000000 0.92387953
vn 0.38268343 0.00000000 0.92387953
vn 0.38268343 0.00000000 0.92387953
vn 0.38268343 0.00000000 0.92387953
vn 0.00000000 0.00000000 1.00000000
vn 0.00000000 0.00000000 1.00000000
vn 0.00000000 0.00000000 1.00000000
vn 0.00000000 0.00000000 1.00000000
vn -0.38268343 0.00000000 0.92387953
vn -0.38268343 0.00000000 0.92387953
vn -0.38268343 0.00000000 0.92387953
vn -0.38268343 0.00000000 0.92387953
vn -0.27059805 0.70710678 -0.65328148
vn -0.27059805 0.70710678 -0.65328148
vn -0.27059805 0.70710678 -0.65328148
vn -0.27059805 0.70710678 -0.65328148
vn 0.00000000 0.70710678 -0.70710678
vn 0.00000000 0.70710678 -0.70710678
vn -0.00000000 0.70710678 -0.70710678
vn -0.00000000 0.70710678 -0.70710678
vn 0.27059805 0.70710678 -0.65328148
vn 0.27059805 0.70710678 -0.65328148
vn 0.27059805 0.70710678 -0.65328148
vn 0.27059805 0.70710678 -0.65328148
vn 0.50000000 0.70710678 -0.50000000
vn 0.50000000 0.70710678 -0.50000000
vn 0.50000000 0.70710678 -0.50000000
vn 0.50000000 0.70710678 -0.50000000
vn 0.65328148 0.70710678 -0.27059805
vn 0.65328148 0.70710678 -0.27059805
vn 0.65328148 0.70710678 -0.27059805
vn 0.65328148 0.70710678 -0.27059805
vn 0.70710678 0.70710678 0.00000000
vn 0.70710678 0.70710678 0.00000000
vn 0.70710678 0.70710678 0.00000000
vn 0.70710678 0.70710678 0.00000000
vn 0.65328148 0.70710678 0.27059805
vn 0.65328148 0.70710678 0.27059805
vn 0.65328148 0.70710678 0.27059805
vn 0.65328148 0.70710678 0.27059805
vn 0.50000000 0.70710678 0.50000000
vn 0.50000000 0.70710678 0.50000000
vn 0.50000000 0.70710678 0.50000000
vn 0.50000000 0.70710678 0.50000000
vn 0.27059805 0.70710678 0.65328148
vn 0.27059805 0.70710678 0.65328148
vn 0.27059805 0.70710678 0.65328148
vn 0.27059805 0.70710678 0.65328148
vn 0.00000000 0.70710678 0.70710678
vn 0.00000000 0.70710678 0.70710678
vn 0.00000000 0.70710678 0.70710678
vn 0.00000000 0.70710678 0.70710678
vn -0.27059805 0.70710678 0.65328148
vn -0.27059805 0.70710678 0.65328148
vn -0.27059805 0.70710678 0.65328148
vn -0.27059805 0.70710678 0.65328148
vn 0.00000000 0.00000000 -1.00000000
vn 0.00000000 0.00000000 -1.00000000
vn 0.00000000 0.00000000 -1.00000000
vn 0.00000000 0.00000000 -1.00000000
vn 0.00000000 0.00000000 -1.00000000
vn 0.00000000 0.70710678 -0.70710678
vn 0.00000000 0.70710678 -0.70710678
vn 0.00000000 0.70710678 -0.70710678
vn 0.00000000 0.70710678 -0.70710678
vn 0.00000000 0.70710678 -0.70710678
vn 0.00000000 0.00000000 -1.00000000
vn 0.00000000 0.00000000 -1.00000000
vn 0.00000000 0.00000000 -1.00000000
vn 0.00000000 0.00000000 -1.00000000
vn 0.00000000 1.00000000 0.00000000
vn 0.00000000 1.00000000 0.00000000
vn 0.00000000 1.00000000 0.00000000
vn 0.00000000 1.00000000 0.00000000
vn 0.00000000 0.00000000 1.00000000
vn 0.00000000 0.00000000 1.00000000
vn 0.00000000 0.00000000 1.00000000
vn 0.00000000 0.00000000 1.00000000
vn -1.00000000 0.00000000 0.00000000
vn -1.00000000 0.00000000 0.00000000
vn -1.00000000 0.00000000 0.00000000
vn -1.00000000 0.00000000 0.00000000
vn -0.70710678 0.70710678 0.00000000
vn -0.70710678 0.70710678 0.00000000
vn -0.70710678 0.70710678 0.00000000
vn -0.70710678 0.70710678 0.00000000
vn 0.00000000 0.70710678 0.70710678
vn 0.00000000 0.70710678 0.70710678
vn 0.00000000 0.70710678 0.70710678
vn 0.00000000 0.70710678 0.70710678
vn -0.92387953 0.00000000 -0.38268343
vn -0.92387953 0.00000000 -0.38268343
vn -0.92387953 0.00000000 -0.38268343
vn -0.92387953 0.00000000 -0.38268343
vn -0.92387953 0.00000000 -0.38268343
vn -0.92387953 0.00000000 -0.38268343
vn -0.92387953 0.00000000 -0.38268343
vn -0.92387953 0.00000000 -0.38268343
vn -0.92387953 0.00000000 -0.38268343
vn -0.92387953 0.00000000 -0.38268343
vn 0.00000000 0.00000000 1.00000000
vn 0.00000000 0.00000000 1.00000000
vn 0.00000000 0.00000000 1.00000000
vn 0.00000000 0.00000000 1.00000000
vn 0.00000000 0.00000000 1.00000000
vn -0.65328148 0.70710678 0.27059805
vn -0.65328148 0.70710678 0.27059805
vn -0.65328148 0.70710678 0.27059805
vn -0.70710678 0.00000000 0.70710678
vn -0.70710678 0.00000000 0.70710678
vn -0.70710678 0.00000000 0.70710678
vn -0.70710678 0.00000000 0.70710678
vn 0.00000000 -1.00000000 0.00000000
vn 0.00000000 -1.00000000 0.00000000
vn 0.00000000 -1.00000000 0.00000000
vn 0.00000000 -1.00000000 0.00000000
vn 0.00000000 -1.00000000 0.00000000
vn 0.00000000 -1.00000000 0.00000000
vn 0.00000000 -1.00000000 0.00000000
vn 0.00000000 -1.00000000 0.00000000
vn 0.00000000 -1.00000000 0.00000000
vn 0.00000000 -1.00000000 0.00000000
vn 0.00000000 -1.00000000 0.00000000
vn 0.00000000 -1.00000000 0.00000000
vn 0.00000000 -1.00000000 0.00000000
vn 0.00000000 -1.00000000 0.00000000
vn 0.00000000 -1.00000000 0.00000000
vn 0.00000000 -1.00000000 0.00000000
vn 0.00000000 -1.00000000 0.00000000
vn -1.00000000 0.00000000 0.00000000
vn -1.00000000 0.00000000 0.00000000
vn -1.00000000 0.00000000 0.00000000
vn -1.00000000 0.00000000 0.00000000
vn -1.00000000 0.00000000 0.00000000
vn -1.00000000 0.00000000 0.00000000
vn 0.00000000 0.70710678 0.70710678
vn 0.00000000 0.70710678 0.70710678
vn 0.00000000 0.70710678 0.70710678
vn 0.00000000 0.70710678 0.70710678
vn 0.00000000 0.70710678 0.70710678
vn 0.00000000 0.00000000 1.00000000
vn 0.00000000 0.00000000 1.00000000
vn 0.00000000 0.00000000 1.00000000
vn 0.00000000 0.00000000 1.00000000
s 1
usemtl Sandstone_4
f 2/2/2 3/3/3 4/4/4
f 2/2/2 4/4/4 5/5/5
f 5/5/5 6/6/6 2/2/2
f 6/6/6 7/7/7 1/1/1
f 8/8/8 9/9/9 1/1/1
f 9/9/9 10/10/10 1/1/1
f 7/7/7 8/8/8 1/1/1
f 6/6/6 1/1/1 2/2/2
s 2
usemtl Sandstone_5
f 2/11/11 1/12/12 12/14/14
f 1/12/12 11/13/13 12/14/14
s 3
usemtl Sandstone_4
f 11/18/18 14/17/17 12/15/15
f 14/17/17 13/16/16 12/15/15
s 4
f 15/19/19 13/20/20 16/22/22
f 13/20/20 14/21/21 16/22/22
s 5
f 14/26/26 11/25/25 10/23/23
f 11/25/25 1/24/24 10/23/23
s 6
f 10/27/27 9/28/28 14/30/30
f 9/28/28 16/29/29 14/30/30
s 7
f 22/40/40 21/39/39 15/38/38
f 23/41/41 15/38/38 20/34/34
f 24/42/42 20/34/34 19/33/33
f 24/42/42 19/33/33 18/32/32
f 18/32/32 17/31/31 24/42/42
f 16/37/37 8/35/35 20/34/34
f 16/37/37 9/36/36 8/35/35
f 24/42/42 23/41/41 20/34/34
f 15/38/38 16/37/37 20/34/34
f 23/41/41 22/40/40 15/38/38
s 8
usemtl Sandstone_Trim
f 26/46/46 19/45/45 20/44/44
f 26/46/46 20/44/44 25/43/43
s 9
usemtl Sandstone_Floor
f 28/48/48 29/49/49 30/50/50
f 25/62/62 28/48/48 31/51/51
f 31/51/51 32/52/52 33/53/53
f 33/53/53 36/56/56 26/61/61
f 39/59/59 40/60/60 26/61/61
f 37/57/57 38/58/58 39/59/59
f 36/56/56 39/59/59 26/61/61
f 36/56/56 37/57/57 39/59/59
f 34/54/54 35/55/55 36/56/56
f 33/53/53 34/54/54 36/56/56
f 26/61/61 25/62/62 33/53/53
f 25/62/62 31/51/51 33/53/53
f 25/62/62 27/47/47 28/48/48
f 28/48/48 30/50/50 31/51/51
s 10
f 42/67/67 28/66/66 27/65/65
f 42/67/67 41/64/64 7/63/63
f 42/67/67 27/65/65 41/64/64
s 11
f 40/69/69 39/68/68 45/72/72
f 45/72/72 44/71/71 43/70/70
f 43/70/70 40/69/69 45/72/72
s 12
f 18/75/75 43/74/74 44/73/73
s 13
usemtl Sandstone_Trim
f 44/76/76 45/77/77 46/78/78
f 44/76/76 46/78/78 47/79/79
s 14
f 45/80/80 48/81/81 49/82/82
f 45/80/80 49/82/82 46/83/83
s 15
f 48/84/84 50/85/85 49/87/87
f 50/85/85 51/86/86 49/87/87
s 16
f 50/88/88 52/89/89 51/91/91
f 52/89/89 53/90/90 51/91/91
s 17
f 52/92/92 54/93/93 53/95/95
f 54/93/93 55/94/94 53/95/95
s 18
f 54/96/96 56/97/97 55/99/99
f 56/97/97 57/98/98 55/99/99
s 19
f 56/100/100 58/101/101 57/103/103
f 58/101/101 59/102/102 57/103/103
s 20
f 58/104/104 60/105/105 59/107/107
f 60/105/105 61/106/106 59/107/107
s 21
f 60/108/108 62/109/109 61/111/111
f 62/109/109 63/110/110 61/111/111
s 22
f 62/112/112 64/113/113 63/115/115
f 64/113/113 65/114/114 63/115/115
s 23
f 64/116/116 66/117/117 65/119/119
f 66/117/117 67/118/118 65/119/119
s 24
f 66/120/120 42/121/121 67/123/123
f 42/121/121 68/122/122 67/123/123
s 25
usemtl Sandstone_Floor
f 39/127/127 38/126/126 45/124/124
f 38/126/126 48/125/125 45/124/124
s 26
f 38/131/131 37/130/130 50/129/129
f 38/131/131 50/129/129 48/128/128
s 27
f 37/135/135 36/134/134 52/133/133
f 37/135/135 52/133/133 50/132/132
s 28
f 36/139/139 35/138/138 54/137/137
f 36/139/139 54/137/137 52/136/136
s 29
f 35/143/143 34/142/142 56/141/141
f 35/143/143 56/141/141 54/140/140
s 30
f 34/147/147 33/146/146 58/145/145
f 34/147/147 58/145/145 56/144/144
s 31
f 33/151/151 32/150/150 60/149/149
f 33/151/151 60/149/149 58/148/148
s 32
f 32/155/155 31/154/154 62/153/153
f 32/155/155 62/153/153 60/152/152
s 33
f 31/159/159 30/158/158 64/157/157
f 31/159/159 64/157/157 62/156/156
s 34
f 30/163/163 29/162/162 64/160/160
f 29/162/162 66/161/161 64/160/160
s 35
f 29/167/167 28/166/166 66/164/164
f 28/166/166 42/165/165 66/164/164
s 36
usemtl Sandstone_Trim
f 8/168/168 41/169/169 27/170/170
f 27/170/170 25/171/171 20/172/172
f 8/168/168 27/170/170 20/172/172
s 37
usemtl Sandstone_4
f 70/176/176 69/175/175 22/174/174
f 71/177/177 22/174/174 23/173/173
f 71/177/177 70/176/176 22/174/174
s 38
f 72/178/178 70/179/179 73/181/181
f 70/179/179 71/180/180 73/181/181
s 39
usemtl Sandstone_5
f 74/182/182 72/183/183 73/184/184
f 74/182/182 73/184/184 75/185/185
s 40
usemtl Sandstone_4
f 76/186/186 74/187/187 77/189/189
f 74/187/187 75/188/188 77/189/189
s 41
f 77/193/193 75/192/192 71/190/190
f 75/192/192 73/191/191 71/190/190
s 42
f 71/194/194 23/195/195 24/196/196
f 71/194/194 24/196/196 77/197/197
s 43
f 77/201/201 24/200/200 17/199/199
f 77/201/201 17/199/199 76/198/198
s 44
f 69/202/202 70/203/203 72/204/204
f 72/204/204 47/210/210 78/211/211
f 74/205/205 44/209/209 47/210/210
f 74/205/205 18/208/208 44/209/209
f 74/205/205 17/207/207 18/208/208
f 74/205/205 76/206/206 17/207/207
f 72/204/204 74/205/205 47/210/210
f 69/202/202 72/204/204 78/211/211
s 45
usemtl Sandstone_Trim
f 40/214/214 43/213/213 18/212/212
f 19/216/216 40/214/214 18/212/212
f 19/216/216 26/215/215 40/214/214
s 46
usemtl Sandstone_Floor
f 41/219/219 8/218/218 7/217/217
s 47
usemtl Sandstone_Trim
f 42/220/220 7/221/221 68/223/223
f 7/221/221 6/222/222 68/223/223
s 48
f 46/239/239 49/238/238 79/240/240
f 78/225/225 47/224/224 79/240/240
f 5/226/226 78/225/225 79/240/240
f 6/227/227 5/226/226 79/240/240
f 68/228/228 6/227/227 79/240/240
f 67/229/229 68/228/228 79/240/240
f 65/230/230 67/229/229 79/240/240
f 63/231/231 65/230/230 79/240/240
f 61/232/232 63/231/231 79/240/240
f 59/233/233 61/232/232 79/240/240
f 57/234/234 59/233/233 79/240/240
f 55/235/235 57/234/234 79/240/240
f 53/236/236 55/235/235 79/240/240
f 51/237/237 53/236/236 79/240/240
f 49/238/238 51/237/237 79/240/240
f 47/224/224 46/239/239 79/240/240
s 49
usemtl Sandstone_4
f 69/242/242 78/243/243 5/244/244
f 22/241/241 69/242/242 4/245/245
f 4/245/245 21/246/246 22/241/241
f 69/242/242 5/244/244 4/245/245
s 50
f 21/247/247 4/248/248 3/249/249
f 21/247/247 13/250/250 15/251/251
f 21/247/247 3/249/249 13/250/250
s 51
f 12/255/255 13/254/254 2/252/252
f 13/254/254 3/253/253 2/252/252
