mtllib Materials_Modular_Temple.mtl
o object1
g object1
v 0.18750000 -0.00000000 0.40000000
v 0.11701631 0.13750000 0.40000000
v -0.11701631 0.13750000 0.40000000
v -0.18750000 -0.00000000 0.40000000
v -0.50000000 0.00000000 0.40000000
v -0.50000000 1.00000000 0.40000000
v 0.50000000 1.00000000 0.40000000
v 0.50000000 0.00000000 0.40000000
v 0.18750000 -0.00000000 0.60000000
v 0.11701631 0.13750000 0.60000000
v -0.11701631 0.13750000 0.60000000
v -0.18750000 -0.00000000 0.60000000
v -0.50000000 0.00000000 0.60000000
v -0.50000000 1.00000000 0.60000000
v 0.50000000 1.00000000 0.60000000
v 0.50000000 -0.00000000 0.60000000
vt 1.00000000 0.31250000
vt 0.86250000 0.38298369
vt 0.86250000 0.61701631
vt 1.00000000 0.68750000
vt 1.00000000 1.00000000
vt 0.00000000 1.00000000
vt 0.00000000 0.00000000
vt 1.00000000 0.00000000
vt 1.00000000 0.31250000
vt 0.86250000 0.38298369
vt 0.86250000 0.61701631
vt 1.00000000 0.68750000
vt 1.00000000 1.00000000
vt 0.00000000 1.00000000
vt 0.00000000 0.00000000
vt 1.00000000 0.00000000
vt 0.00000000 1.00000000
vt 0.00000000 0.00000000
vt 1.00000000 0.00000000
vt 1.00000000 1.00000000
vt 0.00000000 1.00000000
vt 0.00000000 0.00000000
vt 1.00000000 0.00000000
vt 1.00000000 1.00000000
vt 0.00000000 1.00000000
vt 0.00000000 0.00000000
vt 1.00000000 0.00000000
vt 1.00000000 1.00000000
vt 0.00000000 0.00000000
vt 1.00000000 0.00000000
vt 1.00000000 1.00000000
vt 0.00000000 1.00000000
vt 1.00000000 1.00000000
vt 0.00000000 1.00000000
vt 0.00000000 0.00000000
vt 1.00000000 0.00000000
vt 0.06250000 1.00000000
vt 0.00000000 0.00000000
vt 1.00000000 0.00000000
vt 0.93750000 1.00000000
vt 0.00000000 1.00000000
vt 0.00000000 0.00000000
vt 1.00000000 0.00000000
vt 1.00000000 1.00000000
vt 0.00000000 1.00000000
vt 0.06250000 0.00000000
vt 0.93750000 0.00000000
vt 1.00000000 1.00000000
vn 0.00000000 0.00000000 -1.00000000
vn 0.00000000 0.00000000 -1.00000000
vn 0.00000000 0.00000000 -1.00000000
vn 0.00000000 0.00000000 -1.00000000
vn 0.00000000 0.00000000 -1.00000000
vn 0.00000000 0.00000000 -1.00000000
vn 0.00000000 0.00000000 -1.00000000
vn 0.00000000 0.00000000 -1.00000000
vn 0.00000000 0.00000000 1.00000000
vn 0.00000000 0.00000000 1.00000000
vn 0.00000000 0.00000000 1.00000000
vn 0.00000000 0.00000000 1.00000000
vn 0.00000000 0.00000000 1.00000000
vn 0.00000000 0.00000000 1.00000000
vn 0.00000000 0.00000000 1.00000000
vn 0.00000000 0.00000000 1.00000000
vn -1.00000000 0.00000000 0.00000000
vn -1.00000000 0.00000000 0.00000000
vn -1.00000000 0.00000000 0.00000000
vn -1.00000000 0.00000000 0.00000000
vn 0.00000000 1.00000000 0.00000000
vn 0.00000000 1.00000000 0.00000000
vn 0.00000000 1.00000000 0.00000000
vn 0.00000000 1.00000000 0.00000000
vn 1.00000000 0.00000000 0.00000000
vn 1.00000000 0.00000000 0.00000000
vn 1.00000000 0.00000000 0.00000000
vn 1.00000000 0.00000000 0.00000000
vn -0.00000000 -1.00000000 0.00000000
vn -0.00000000 -1.00000000 0.00000000
vn -0.00000000 -1.00000000 0.00000000
vn -0.00000000 -1.00000000 0.00000000
vn -0.00000000 -1.00000000 0.00000000
vn -0.00000000 -1.00000000 0.00000000
vn -0.00000000 -1.00000000 0.00000000
vn -0.00000000 -1.00000000 0.00000000
vn 0.88989400 -0.45616737 -0.00000000
vn 0.88989400 -0.45616737 0.00000000
vn 0.88989400 -0.45616737 0.00000000
vn 0.88989400 -0.45616737 -0.00000000
vn -0.00000000 -1.00000000 0.00000000
vn -0.00000000 -1.00000000 0.00000000
vn -0.00000000 -1.00000000 0.00000000
vn -0.00000000 -1.00000000 0.00000000
vn -0.88989400 -0.45616737 0.00000000
vn -0.88989400 -0.45616737 0.00000000
vn -0.88989400 -0.45616737 0.00000000
vn -0.88989400 -0.45616737 0.00000000
s 1
usemtl Sandstone_Trim
f 8/8/8 1/1/1 2/2/2
f 7/7/7 2/2/2 3/3/3
f 3/3/3 5/5/5 6/6/6
f 3/3/3 4/4/4 5/5/5
f 3/3/3 6/6/6 7/7/7
f 7/7/7 8/8/8 2/2/2
s 2
f 10/10/10 9/9/9 16/16/16
f 11/11/11 10/10/10 15/15/15
f 15/15/15 14/14/14 11/11/11
f 14/14/14 13/13/13 11/11/11
f 13/13/13 12/12/12 11/11/11
f 10/10/10 16/16/16 15/15/15
s 3
f 6/17/17 5/18/18 14/20/20
f 5/18/18 13/19/19 14/20/20
s 4
usemtl Sandstone_Floor
f 7/21/21 6/22/22 15/24/24
f 6/22/22 14/23/23 15/24/24
s 5
usemtl Sandstone_Trim
f 8/25/25 7/26/26 16/28/28
f 7/26/26 15/27/27 16/28/28
s 6
f 4/29/29 12/30/30 5/32/32
f 12/30/30 13/31/31 5/32/32
s 7
f 9/33/33 1/34/34 8/35/35
f 9/33/33 8/35/35 16/36/36
s 8
f 4/37/37 3/38/38 11/39/39
f 4/37/37 11/39/39 12/40/40
s 9
f 3/41/41 2/42/42 10/43/43
f 3/41/41 10/43/43 11/44/44
s 10
f 2/45/45 1/46/46 9/47/47
f 2/45/45 9/47/47 10/48/48
