mtllib Materials_Modular_Temple.mtl
o object1
g object1
v 0.40423378 -0.10000000 -0.20000000
v 0.44565513 -0.10000000 -0.10000000
v 0.44565513 -0.07500000 -0.10000000
v 0.45000000 -0.06451057 -0.08951057
v 0.45000000 -0.20000000 -0.08951057
v 0.38149158 -0.20000000 -0.25490452
v 0.38149158 -0.05000000 -0.25490452
v 0.38352310 -0.05000000 -0.25000000
v 0.39387844 -0.05000000 -0.22500000
v 0.40423378 -0.07500000 -0.20000000
v -0.40423378 -0.10000000 -0.20000000
v -0.44565513 -0.10000000 -0.10000000
v -0.45000000 -0.06451057 -0.08951057
v -0.44565513 -0.07500000 -0.10000000
v -0.40423378 -0.07500000 -0.20000000
v -0.39387844 -0.05000000 -0.22500000
v -0.38352310 -0.05000000 -0.25000000
v -0.38149158 -0.05000000 -0.25490452
v -0.38149158 -0.20000000 -0.25490452
v -0.45000000 -0.20000000 -0.08951057
v -0.45000000 -0.05000000 -0.07500000
v -0.45000000 -0.20000000 0.08951057
v -0.45000000 -0.06451057 0.08951057
v -0.45000000 -0.05000000 0.07500000
v 0.45000000 -0.05000000 0.07500000
v 0.45000000 -0.05000000 -0.07500000
v 0.44565513 -0.07500000 0.10000000
v 0.45000000 -0.06451057 0.08951057
v -0.44565513 -0.07500000 0.10000000
v 0.44565513 -0.10000000 0.10000000
v 0.40423378 -0.10000000 0.20000000
v 0.40423378 -0.07500000 0.20000000
v 0.39387844 -0.05000000 0.22500000
v 0.38352310 -0.05000000 0.25000000
v 0.38149158 -0.05000000 0.25490452
v 0.38149158 -0.20000000 0.25490452
v 0.45000000 -0.20000000 0.08951057
v 0.25490452 -0.05000000 0.38149158
v 0.25490452 -0.20000000 0.38149158
v 0.22658180 0.00000000 0.33910363
v 0.31568542 0.00000000 0.25000000
v 0.37415144 -0.04134172 0.25000000
v 0.08951057 -0.05000000 0.45000000
v 0.07956495 0.00000000 0.40000000
v -0.08951057 -0.05000000 0.45000000
v -0.07956495 0.00000000 0.40000000
v -0.08951057 -0.20000000 0.45000000
v 0.08951057 -0.20000000 0.45000000
v -0.25490452 -0.05000000 0.38149158
v -0.25490452 -0.20000000 0.38149158
v -0.38149158 -0.05000000 0.25490452
v -0.38149158 -0.20000000 0.25490452
v -0.37415144 -0.04134172 0.25000000
v -0.31568542 0.00000000 0.25000000
v -0.22658180 0.00000000 0.33910363
v -0.38352310 -0.05000000 0.25000000
v -0.39387844 -0.05000000 0.22500000
v -0.40423378 -0.07500000 0.20000000
v -0.40423378 -0.10000000 0.20000000
v -0.44565513 -0.10000000 0.10000000
v -0.25490452 -0.05000000 -0.38149158
v -0.25490452 -0.20000000 -0.38149158
v -0.22658180 0.00000000 -0.33910363
v -0.31568542 0.00000000 -0.25000000
v -0.37415144 -0.04134172 -0.25000000
v -0.08951057 -0.05000000 -0.45000000
v -0.07956495 0.00000000 -0.40000000
v 0.08951057 -0.05000000 -0.45000000
v 0.07956495 0.00000000 -0.40000000
v 0.08951057 -0.20000000 -0.45000000
v -0.08951057 -0.20000000 -0.45000000
v 0.25490452 -0.05000000 -0.38149158
v 0.25490452 -0.20000000 -0.38149158
v 0.22658180 0.00000000 -0.33910363
v 0.37415144 -0.04134172 -0.25000000
v 0.31568542 0.00000000 -0.25000000
v 0.00000000 -0.20000000 0.00000000
vt 0.33333333 0.66803791
vt 0.33333333 0.06342091
vt 0.16666667 0.06342091
vt 0.09673710 0.00000000
vt 1.00000000 0.00000000
vt 1.00000000 1.00000000
vt 0.00000000 1.00000000
vt 0.00000000 0.97034641
vt 0.00000000 0.81919216
vt 0.16666667 0.66803791
vt 1.00000000 0.95352757
vt 0.00000000 1.00000000
vt 0.00000000 0.00000000
vt 1.00000000 0.04647243
vt 0.09673710 1.00000000
vt 0.16666667 0.93657909
vt 0.33333333 0.93657909
vt 0.33333333 0.33196209
vt 0.16666667 0.33196209
vt 0.00000000 0.18080784
vt 0.00000000 0.02965359
vt 0.00000000 0.00000000
vt 1.00000000 0.00000000
vt 1.00000000 1.00000000
vt 0.00000000 0.08105504
vt 0.09673710 0.00000000
vt 1.00000000 0.00000000
vt 1.00000000 1.00000000
vt 0.09673710 1.00000000
vt 0.00000000 0.91894496
vt 1.00000000 1.00000000
vt 0.00000000 1.00000000
vt 0.00000000 0.00000000
vt 1.00000000 0.00000000
vt 0.99517237 0.00000000
vt 1.00000000 0.41957739
vt 1.00000000 1.00000000
vt 0.00000000 1.00000000
vt 0.00000000 0.41957739
vt 0.00482763 0.00000000
vt 0.09673710 1.00000000
vt 0.16666667 0.93657909
vt 0.33333333 0.93657909
vt 0.33333333 0.33196209
vt 0.16666667 0.33196209
vt 0.00000000 0.18080784
vt 0.00000000 0.02965359
vt 0.00000000 0.00000000
vt 1.00000000 0.00000000
vt 1.00000000 1.00000000
vt 0.00000000 1.00000000
vt 0.00000000 0.00000000
vt 1.00000000 0.00000000
vt 1.00000000 1.00000000
vt 1.00000000 0.00000000
vt 1.00000000 0.79187859
vt 0.17316568 1.00000000
vt 0.00000000 1.00000000
vt 0.00000000 0.00000000
vt 0.00000000 1.00000000
vt 0.00000000 0.00000000
vt 1.00000000 0.00000000
vt 1.00000000 1.00000000
vt 0.00000000 1.00000000
vt 0.00000000 0.00000000
vt 1.00000000 0.00000000
vt 1.00000000 1.00000000
vt 0.00000000 1.00000000
vt 0.00000000 0.00000000
vt 1.00000000 0.00000000
vt 1.00000000 1.00000000
vt 0.00000000 1.00000000
vt 0.00000000 0.00000000
vt 1.00000000 0.00000000
vt 1.00000000 1.00000000
vt 0.00000000 1.00000000
vt 0.00000000 0.00000000
vt 1.00000000 0.00000000
vt 1.00000000 1.00000000
vt 0.00000000 0.00000000
vt 0.17316568 0.00000000
vt 1.00000000 0.20812141
vt 1.00000000 1.00000000
vt 0.00000000 1.00000000
vt 0.00000000 1.00000000
vt 0.00000000 0.00000000
vt 1.00000000 1.00000000
vt 0.00000000 1.00000000
vt 0.00000000 0.00000000
vt 1.00000000 0.00000000
vt 1.00000000 1.00000000
vt 0.00000000 0.62601935
vt 0.00000000 0.37398065
vt 0.40597583 0.14112724
vt 1.00000000 0.00000000
vt 1.00000000 1.00000000
vt 0.40597583 0.85887276
vt 1.00000000 0.91155986
vt 0.17316568 0.98778215
vt 0.00000000 1.00000000
vt 0.00000000 0.00000000
vt 0.17316568 0.01221785
vt 1.00000000 0.08844014
vt 0.00000000 1.00000000
vt 0.00000000 0.00000000
vt 1.00000000 0.00000000
vt 1.00000000 1.00000000
vt 0.00000000 0.00000000
vt 1.00000000 0.00000000
vt 0.00000000 1.00000000
vt 0.01314535 1.00000000
vt 0.00000000 0.00000000
vt 1.00000000 0.00000000
vt 0.98685465 1.00000000
vt 0.00000000 1.00000000
vt 0.01280860 0.00000000
vt 0.98719140 0.00000000
vt 1.00000000 1.00000000
vt 0.00000000 0.00000000
vt 1.00000000 0.00000000
vt 1.00000000 1.00000000
vt 0.00000000 1.00000000
vt 1.00000000 1.00000000
vt 0.00000000 0.95352757
vt 0.00000000 0.04647243
vt 1.00000000 0.00000000
vt 1.00000000 1.00000000
vt 0.00000000 1.00000000
vt 0.00000000 0.00000000
vt 1.00000000 0.00000000
vt 0.33333333 0.66803791
vt 0.33333333 0.06342091
vt 0.16666667 0.06342091
vt 0.09673710 0.00000000
vt 1.00000000 0.00000000
vt 1.00000000 1.00000000
vt 0.00000000 1.00000000
vt 0.00000000 0.97034641
vt 0.00000000 0.81919216
vt 0.16666667 0.66803791
vt 0.00000000 1.00000000
vt 0.00000000 0.00000000
vt 1.00000000 0.00000000
vt 1.00000000 1.00000000
vt 1.00000000 0.00000000
vt 1.00000000 0.79187859
vt 0.17316568 1.00000000
vt 0.00000000 1.00000000
vt 0.00000000 0.00000000
vt 0.00000000 1.00000000
vt 0.00000000 0.00000000
vt 1.00000000 0.00000000
vt 1.00000000 1.00000000
vt 0.00000000 1.00000000
vt 0.00000000 0.00000000
vt 1.00000000 0.00000000
vt 1.00000000 1.00000000
vt 0.00000000 1.00000000
vt 0.00000000 0.00000000
vt 1.00000000 0.00000000
vt 1.00000000 1.00000000
vt 0.00000000 1.00000000
vt 0.00000000 0.00000000
vt 1.00000000 0.00000000
vt 1.00000000 1.00000000
vt 0.00000000 1.00000000
vt 0.00000000 0.00000000
vt 1.00000000 0.00000000
vt 1.00000000 1.00000000
vt 0.00000000 0.00000000
vt 0.17316568 0.00000000
vt 1.00000000 0.20812141
vt 1.00000000 1.00000000
vt 0.00000000 1.00000000
vt 1.00000000 0.37398065
vt 1.00000000 0.62601935
vt 0.59402417 0.85887276
vt 0.00000000 1.00000000
vt 0.00000000 0.00000000
vt 0.59402417 0.14112724
vt 1.00000000 0.91155986
vt 0.17316568 0.98778215
vt 0.00000000 1.00000000
vt 0.00000000 0.00000000
vt 0.17316568 0.01221785
vt 1.00000000 0.08844014
vt 0.00000000 1.00000000
vt 0.00000000 0.00000000
vt 1.00000000 0.00000000
vt 1.00000000 1.00000000
vt 0.00000000 0.00000000
vt 1.00000000 0.00000000
vt 0.00000000 1.00000000
vt 1.00000000 1.00000000
vt 0.00000000 1.00000000
vt 0.00000000 0.00000000
vt 1.00000000 0.00000000
vt 0.98719140 0.00000000
vt 1.00000000 1.00000000
vt 0.00000000 1.00000000
vt 0.01280860 0.00000000
vt 0.01314535 1.00000000
vt 0.00000000 0.00000000
vt 1.00000000 0.00000000
vt 0.98685465 1.00000000
vt 0.00000000 1.00000000
vt 0.00000000 0.00000000
vt 1.00000000 1.00000000
vt 0.00000000 1.00000000
vt 0.00000000 0.00000000
vt 1.00000000 0.00000000
vt 1.00000000 1.00000000
vt 0.59945618 1.00000000
vt 0.40054382 1.00000000
vt 0.21677275 0.92387953
vt 0.07612047 0.78322725
vt 0.00000000 0.59945618
vt 0.00000000 0.40054382
vt 0.07612047 0.21677275
vt 0.21677275 0.07612047
vt 0.40054382 0.00000000
vt 0.59945618 0.00000000
vt 0.78322725 0.07612047
vt 0.92387953 0.21677275
vt 1.00000000 0.40054382
vt 1.00000000 0.59945618
vt 0.92387953 0.78322725
vt 0.78322725 0.92387953
vt 0.50000000 0.50000000
vt 1.00000000 0.00000000
vt 1.00000000 1.00000000
vt 0.09673710 1.00000000
vt 0.00000000 0.91894496
vt 0.00000000 0.08105504
vt 0.09673710 0.00000000
vt 0.00000000 1.00000000
vt 0.00000000 0.41957739
vt 0.00482763 0.00000000
vt 0.99517237 0.00000000
vt 1.00000000 0.41957739
vt 1.00000000 1.00000000
vt 0.00000000 0.00000000
vt 1.00000000 0.00000000
vt 1.00000000 1.00000000
vt 0.00000000 1.00000000
vn 0.92387953 0.00000000 -0.38268343
vn 0.92387953 0.00000000 -0.38268343
vn 0.92387953 0.00000000 -0.38268343
vn 0.92387953 0.00000000 -0.38268343
vn 0.92387953 0.00000000 -0.38268343
vn 0.92387953 0.00000000 -0.38268343
vn 0.92387953 0.00000000 -0.38268343
vn 0.92387953 0.00000000 -0.38268343
vn 0.92387953 0.00000000 -0.38268343
vn 0.92387953 0.00000000 -0.38268343
vn 0.00000000 1.00000000 0.00000000
vn 0.00000000 1.00000000 0.00000000
vn 0.00000000 1.00000000 0.00000000
vn 0.00000000 1.00000000 0.00000000
vn -0.92387953 0.00000000 -0.38268343
vn -0.92387953 0.00000000 -0.38268343
vn -0.92387953 0.00000000 -0.38268343
vn -0.92387953 0.00000000 -0.38268343
vn -0.92387953 0.00000000 -0.38268343
vn -0.92387953 0.00000000 -0.38268343
vn -0.92387953 0.00000000 -0.38268343
vn -0.92387953 0.00000000 -0.38268343
vn -0.92387953 0.00000000 -0.38268343
vn -0.92387953 0.00000000 -0.38268343
vn -1.00000000 0.00000000 0.00000000
vn -1.00000000 0.00000000 0.00000000
vn -1.00000000 0.00000000 0.00000000
vn -1.00000000 0.00000000 0.00000000
vn -1.00000000 0.00000000 0.00000000
vn -1.00000000 0.00000000 0.00000000
vn 0.00000000 1.00000000 0.00000000
vn 0.00000000 1.00000000 0.00000000
vn 0.00000000 1.00000000 0.00000000
vn 0.00000000 1.00000000 0.00000000
vn 0.00000000 0.70710678 0.70710678
vn 0.00000000 0.70710678 0.70710678
vn 0.00000000 0.70710678 0.70710678
vn 0.00000000 0.70710678 0.70710678
vn 0.00000000 0.70710678 0.70710678
vn 0.00000000 0.70710678 0.70710678
vn 0.92387953 0.00000000 0.38268343
vn 0.92387953 0.00000000 0.38268343
vn 0.92387953 0.00000000 0.38268343
vn 0.92387953 0.00000000 0.38268343
vn 0.92387953 0.00000000 0.38268343
vn 0.92387953 0.00000000 0.38268343
vn 0.92387953 0.00000000 0.38268343
vn 0.92387953 0.00000000 0.38268343
vn 0.92387953 0.00000000 0.38268343
vn 0.92387953 0.00000000 0.38268343
vn 0.70710678 0.00000000 0.70710678
vn 0.70710678 0.00000000 0.70710678
vn 0.70710678 0.00000000 0.70710678
vn 0.70710678 0.00000000 0.70710678
vn 0.50000000 0.70710678 0.50000000
vn 0.50000000 0.70710678 0.50000000
vn 0.50000000 0.70710678 0.50000000
vn 0.50000000 0.70710678 0.50000000
vn 0.50000000 0.70710678 0.50000000
vn 0.27059805 0.70710678 0.65328148
vn 0.27059805 0.70710678 0.65328148
vn 0.27059805 0.70710678 0.65328148
vn 0.27059805 0.70710678 0.65328148
vn 0.00000000 0.70710678 0.70710678
vn 0.00000000 0.70710678 0.70710678
vn 0.00000000 0.70710678 0.70710678
vn 0.00000000 0.70710678 0.70710678
vn 0.00000000 0.00000000 1.00000000
vn 0.00000000 0.00000000 1.00000000
vn 0.00000000 0.00000000 1.00000000
vn 0.00000000 0.00000000 1.00000000
vn -0.38268343 0.00000000 0.92387953
vn -0.38268343 0.00000000 0.92387953
vn -0.38268343 0.00000000 0.92387953
vn -0.38268343 0.00000000 0.92387953
vn -0.70710678 0.00000000 0.70710678
vn -0.70710678 0.00000000 0.70710678
vn -0.70710678 0.00000000 0.70710678
vn -0.70710678 0.00000000 0.70710678
vn -0.50000000 0.70710678 0.50000000
vn -0.50000000 0.70710678 0.50000000
vn -0.50000000 0.70710678 0.50000000
vn -0.50000000 0.70710678 0.50000000
vn -0.50000000 0.70710678 0.50000000
vn -0.65328148 0.70710678 0.27059805
vn -0.65328148 0.70710678 0.27059805
vn -0.65328148 0.70710678 0.27059805
vn -0.27059805 0.70710678 0.65328148
vn -0.27059805 0.70710678 0.65328148
vn -0.27059805 0.70710678 0.65328148
vn -0.27059805 0.70710678 0.65328148
vn 0.00000000 1.00000000 0.00000000
vn 0.00000000 1.00000000 0.00000000
vn 0.00000000 1.00000000 0.00000000
vn 0.00000000 1.00000000 0.00000000
vn 0.00000000 1.00000000 0.00000000
vn 0.00000000 1.00000000 0.00000000
vn 0.00000000 0.00000000 -1.00000000
vn 0.00000000 0.00000000 -1.00000000
vn 0.00000000 0.00000000 -1.00000000
vn 0.00000000 0.00000000 -1.00000000
vn 0.00000000 0.00000000 -1.00000000
vn 0.00000000 0.00000000 -1.00000000
vn 0.38268343 0.00000000 0.92387953
vn 0.38268343 0.00000000 0.92387953
vn 0.38268343 0.00000000 0.92387953
vn 0.38268343 0.00000000 0.92387953
vn 0.65328148 0.70710678 0.27059805
vn 0.65328148 0.70710678 0.27059805
vn 0.65328148 0.70710678 0.27059805
vn 0.00000000 1.00000000 0.00000000
vn 0.00000000 1.00000000 0.00000000
vn 0.00000000 1.00000000 0.00000000
vn 0.00000000 1.00000000 0.00000000
vn 0.00000000 0.70710678 -0.70710678
vn 0.00000000 0.70710678 -0.70710678
vn 0.00000000 0.70710678 -0.70710678
vn 0.00000000 0.70710678 -0.70710678
vn 0.00000000 0.00000000 -1.00000000
vn 0.00000000 0.00000000 -1.00000000
vn 0.00000000 0.00000000 -1.00000000
vn 0.00000000 0.00000000 -1.00000000
vn 0.00000000 1.00000000 0.00000000
vn 0.00000000 1.00000000 0.00000000
vn 0.00000000 1.00000000 0.00000000
vn 0.00000000 1.00000000 0.00000000
vn 0.00000000 0.00000000 1.00000000
vn 0.00000000 0.00000000 1.00000000
vn 0.00000000 0.00000000 1.00000000
vn 0.00000000 0.00000000 1.00000000
vn -0.92387953 0.00000000 0.38268343
vn -0.92387953 0.00000000 0.38268343
vn -0.92387953 0.00000000 0.38268343
vn -0.92387953 0.00000000 0.38268343
vn -0.92387953 0.00000000 0.38268343
vn -0.92387953 0.00000000 0.38268343
vn -0.92387953 0.00000000 0.38268343
vn -0.92387953 0.00000000 0.38268343
vn -0.92387953 0.00000000 0.38268343
vn -0.92387953 0.00000000 0.38268343
vn -0.70710678 0.00000000 -0.70710678
vn -0.70710678 0.00000000 -0.70710678
vn -0.70710678 0.00000000 -0.70710678
vn -0.70710678 0.00000000 -0.70710678
vn -0.50000000 0.70710678 -0.50000000
vn -0.50000000 0.70710678 -0.50000000
vn -0.50000000 0.70710678 -0.50000000
vn -0.50000000 0.70710678 -0.50000000
vn -0.50000000 0.70710678 -0.50000000
vn -0.27059805 0.70710678 -0.65328148
vn -0.27059805 0.70710678 -0.65328148
vn -0.27059805 0.70710678 -0.65328148
vn -0.27059805 0.70710678 -0.65328148
vn 0.00000000 0.70710678 -0.70710678
vn 0.00000000 0.70710678 -0.70710678
vn -0.00000000 0.70710678 -0.70710678
vn -0.00000000 0.70710678 -0.70710678
vn 0.00000000 0.00000000 -1.00000000
vn 0.00000000 0.00000000 -1.00000000
vn 0.00000000 0.00000000 -1.00000000
vn 0.00000000 0.00000000 -1.00000000
vn 0.38268343 0.00000000 -0.92387953
vn 0.38268343 0.00000000 -0.92387953
vn 0.38268343 0.00000000 -0.92387953
vn 0.38268343 0.00000000 -0.92387953
vn 0.27059805 0.70710678 -0.65328148
vn 0.27059805 0.70710678 -0.65328148
vn 0.27059805 0.70710678 -0.65328148
vn 0.27059805 0.70710678 -0.65328148
vn 0.50000000 0.70710678 -0.50000000
vn 0.50000000 0.70710678 -0.50000000
vn 0.50000000 0.70710678 -0.50000000
vn 0.50000000 0.70710678 -0.50000000
vn 0.50000000 0.70710678 -0.50000000
vn 0.00000000 1.00000000 0.00000000
vn 0.00000000 1.00000000 0.00000000
vn 0.00000000 1.00000000 0.00000000
vn 0.00000000 1.00000000 0.00000000
vn 0.00000000 1.00000000 0.00000000
vn 0.00000000 1.00000000 0.00000000
vn 0.00000000 0.00000000 1.00000000
vn 0.00000000 0.00000000 1.00000000
vn 0.00000000 0.00000000 1.00000000
vn 0.00000000 0.00000000 1.00000000
vn 0.00000000 0.00000000 1.00000000
vn 0.00000000 0.00000000 1.00000000
vn -0.38268343 0.00000000 -0.92387953
vn -0.38268343 0.00000000 -0.92387953
vn -0.38268343 0.00000000 -0.92387953
vn -0.38268343 0.00000000 -0.92387953
vn -0.65328148 0.70710678 -0.27059805
vn -0.65328148 0.70710678 -0.27059805
vn -0.65328148 0.70710678 -0.27059805
vn 0.00000000 0.00000000 1.00000000
vn 0.00000000 0.00000000 1.00000000
vn 0.00000000 0.00000000 1.00000000
vn 0.00000000 0.00000000 1.00000000
vn 0.00000000 0.70710678 0.70710678
vn 0.00000000 0.70710678 0.70710678
vn 0.00000000 0.70710678 0.70710678
vn 0.00000000 0.70710678 0.70710678
vn 0.00000000 1.00000000 0.00000000
vn 0.00000000 1.00000000 0.00000000
vn 0.00000000 1.00000000 0.00000000
vn 0.00000000 1.00000000 0.00000000
vn 0.65328148 0.70710678 -0.27059805
vn 0.65328148 0.70710678 -0.27059805
vn 0.65328148 0.70710678 -0.27059805
vn 0.70710678 0.00000000 -0.70710678
vn 0.70710678 0.00000000 -0.70710678
vn 0.70710678 0.00000000 -0.70710678
vn 0.70710678 0.00000000 -0.70710678
vn 0.00000000 -1.00000000 0.00000000
vn 0.00000000 -1.00000000 0.00000000
vn 0.00000000 -1.00000000 0.00000000
vn 0.00000000 -1.00000000 0.00000000
vn 0.00000000 -1.00000000 0.00000000
vn 0.00000000 -1.00000000 0.00000000
vn 0.00000000 -1.00000000 0.00000000
vn 0.00000000 -1.00000000 0.00000000
vn 0.00000000 -1.00000000 0.00000000
vn 0.00000000 -1.00000000 0.00000000
vn 0.00000000 -1.00000000 0.00000000
vn 0.00000000 -1.00000000 0.00000000
vn 0.00000000 -1.00000000 0.00000000
vn 0.00000000 -1.00000000 0.00000000
vn 0.00000000 -1.00000000 0.00000000
vn 0.00000000 -1.00000000 0.00000000
vn 0.00000000 -1.00000000 0.00000000
vn 1.00000000 0.00000000 0.00000000
vn 1.00000000 0.00000000 0.00000000
vn 1.00000000 0.00000000 0.00000000
vn 1.00000000 0.00000000 0.00000000
vn 1.00000000 0.00000000 0.00000000
vn 1.00000000 0.00000000 0.00000000
vn 0.00000000 0.70710678 -0.70710678
vn 0.00000000 0.70710678 -0.70710678
vn 0.00000000 0.70710678 -0.70710678
vn 0.00000000 0.70710678 -0.70710678
vn 0.00000000 0.70710678 -0.70710678
vn 0.00000000 0.70710678 -0.70710678
vn 0.00000000 0.00000000 -1.00000000
vn 0.00000000 0.00000000 -1.00000000
vn 0.00000000 0.00000000 -1.00000000
vn 0.00000000 0.00000000 -1.00000000
s 1
usemtl Sandstone_4
f 2/2/2 3/3/3 4/4/4
f 2/2/2 4/4/4 5/5/5
f 5/5/5 6/6/6 2/2/2
f 6/6/6 7/7/7 1/1/1
f 8/8/8 9/9/9 1/1/1
f 9/9/9 10/10/10 1/1/1
f 7/7/7 8/8/8 1/1/1
f 6/6/6 1/1/1 2/2/2
s 2
usemtl Sandstone_5
f 11/11/11 12/12/12 2/13/13
f 11/11/11 2/13/13 1/14/14
s 3
usemtl Sandstone_4
f 13/15/15 14/16/16 12/17/17
f 12/17/17 19/23/23 20/24/24
f 11/18/18 18/22/22 19/23/23
f 11/18/18 17/21/21 18/22/22
f 11/18/18 16/20/20 17/21/21
f 11/18/18 15/19/19 16/20/20
f 12/17/17 11/18/18 19/23/23
f 13/15/15 12/17/17 20/24/24
s 4
f 13/26/26 20/27/27 22/28/28
f 21/25/25 13/26/26 23/29/29
f 23/29/29 24/30/30 21/25/25
f 13/26/26 22/28/28 23/29/29
s 5
f 21/31/31 24/32/32 25/33/33
f 21/31/31 25/33/33 26/34/34
s 6
f 27/35/35 28/36/36 25/37/37
f 25/37/37 24/38/38 29/40/40
f 24/38/38 23/39/39 29/40/40
f 29/40/40 27/35/35 25/37/37
s 7
f 28/41/41 27/42/42 30/43/43
f 30/43/43 36/49/49 37/50/50
f 31/44/44 35/48/48 36/49/49
f 31/44/44 34/47/47 35/48/48
f 31/44/44 33/46/46 34/47/47
f 31/44/44 32/45/45 33/46/46
f 30/43/43 31/44/44 36/49/49
f 28/41/41 30/43/43 37/50/50
s 8
usemtl Sandstone_Trim
f 35/51/51 38/52/52 36/54/54
f 38/52/52 39/53/53 36/54/54
s 9
usemtl Sandstone_Floor
f 41/56/56 40/55/55 38/59/59
f 38/59/59 35/58/58 42/57/57
f 42/57/57 41/56/56 38/59/59
s 10
f 40/63/63 44/62/62 43/61/61
f 40/63/63 43/61/61 38/60/60
s 11
f 44/67/67 46/66/66 43/64/64
f 46/66/66 45/65/65 43/64/64
s 12
usemtl Sandstone_Trim
f 43/68/68 45/69/69 48/71/71
f 45/69/69 47/70/70 48/71/71
s 13
f 45/72/72 49/73/73 47/75/75
f 49/73/73 50/74/74 47/75/75
s 14
f 49/76/76 51/77/77 50/79/79
f 51/77/77 52/78/78 50/79/79
s 15
usemtl Sandstone_Floor
f 49/84/84 55/83/83 54/82/82
f 49/84/84 53/81/81 51/80/80
f 49/84/84 54/82/82 53/81/81
s 16
f 53/87/87 56/86/86 51/85/85
s 17
f 46/91/91 55/90/90 45/88/88
f 55/90/90 49/89/89 45/88/88
s 18
f 55/97/97 46/92/92 44/93/93
f 41/95/95 54/96/96 55/97/97
f 55/97/97 40/94/94 41/95/95
f 55/97/97 44/93/93 40/94/94
s 19
usemtl Sandstone_Trim
f 41/98/98 42/99/99 34/100/100
f 34/100/100 56/101/101 54/103/103
f 56/101/101 53/102/102 54/103/103
f 54/103/103 41/98/98 34/100/100
s 20
f 38/104/104 43/105/105 39/107/107
f 43/105/105 48/106/106 39/107/107
s 21
usemtl Sandstone_Floor
f 34/110/110 42/109/109 35/108/108
s 22
usemtl Sandstone_4
f 34/114/114 33/113/113 56/111/111
f 33/113/113 57/112/112 56/111/111
s 23
f 58/115/115 57/116/116 33/117/117
f 58/115/115 33/117/117 32/118/118
s 24
f 32/122/122 31/121/121 58/119/119
f 31/121/121 59/120/120 58/119/119
s 25
usemtl Sandstone_5
f 60/123/123 59/124/124 31/125/125
f 60/123/123 31/125/125 30/126/126
s 26
usemtl Sandstone_4
f 30/130/130 27/129/129 60/127/127
f 27/129/129 29/128/128 60/127/127
s 27
f 60/132/132 29/133/133 23/134/134
f 60/132/132 23/134/134 22/135/135
f 22/135/135 52/136/136 60/132/132
f 52/136/136 51/137/137 59/131/131
f 56/138/138 57/139/139 59/131/131
f 57/139/139 58/140/140 59/131/131
f 51/137/137 56/138/138 59/131/131
f 52/136/136 59/131/131 60/132/132
s 28
usemtl Sandstone_Trim
f 18/141/141 61/142/142 62/143/143
f 18/141/141 62/143/143 19/144/144
s 29
usemtl Sandstone_Floor
f 64/146/146 63/145/145 61/149/149
f 61/149/149 18/148/148 65/147/147
f 65/147/147 64/146/146 61/149/149
s 30
f 63/153/153 67/152/152 61/150/150
f 67/152/152 66/151/151 61/150/150
s 31
f 67/157/157 69/156/156 68/155/155
f 67/157/157 68/155/155 66/154/154
s 32
usemtl Sandstone_Trim
f 66/158/158 68/159/159 71/161/161
f 68/159/159 70/160/160 71/161/161
s 33
f 68/162/162 72/163/163 70/165/165
f 72/163/163 73/164/164 70/165/165
s 34
usemtl Sandstone_Floor
f 69/169/169 74/168/168 72/167/167
f 69/169/169 72/167/167 68/166/166
s 35
f 72/174/174 74/173/173 76/172/172
f 72/174/174 75/171/171 7/170/170
f 72/174/174 76/172/172 75/171/171
s 36
f 69/175/175 67/176/176 63/177/177
f 63/177/177 64/178/178 76/179/179
f 76/179/179 74/180/180 63/177/177
f 74/180/180 69/175/175 63/177/177
s 37
usemtl Sandstone_Trim
f 64/186/186 65/185/185 17/184/184
f 17/184/184 8/183/183 76/181/181
f 8/183/183 75/182/182 76/181/181
f 76/181/181 64/186/186 17/184/184
s 38
f 61/187/187 66/188/188 71/189/189
f 61/187/187 71/189/189 62/190/190
s 39
usemtl Sandstone_Floor
f 17/193/193 65/192/192 18/191/191
s 40
usemtl Sandstone_4
f 1/197/197 10/196/196 11/194/194
f 10/196/196 15/195/195 11/194/194
s 41
f 16/198/198 15/199/199 10/200/200
f 16/198/198 10/200/200 9/201/201
s 42
f 17/202/202 16/203/203 9/204/204
f 17/202/202 9/204/204 8/205/205
s 43
usemtl Sandstone_Floor
f 75/208/208 8/207/207 7/206/206
s 44
usemtl Sandstone_Trim
f 72/209/209 7/210/210 73/212/212
f 7/210/210 6/211/211 73/212/212
s 45
f 19/228/228 62/227/227 77/229/229
f 22/214/214 20/213/213 77/229/229
f 52/215/215 22/214/214 77/229/229
f 50/216/216 52/215/215 77/229/229
f 47/217/217 50/216/216 77/229/229
f 48/218/218 47/217/217 77/229/229
f 39/219/219 48/218/218 77/229/229
f 36/220/220 39/219/219 77/229/229
f 37/221/221 36/220/220 77/229/229
f 5/222/222 37/221/221 77/229/229
f 6/223/223 5/222/222 77/229/229
f 73/224/224 6/223/223 77/229/229
f 70/225/225 73/224/224 77/229/229
f 71/226/226 70/225/225 77/229/229
f 62/227/227 71/226/226 77/229/229
f 20/213/213 19/228/228 77/229/229
s 46
usemtl Sandstone_4
f 37/230/230 5/231/231 4/232/232
f 4/232/232 26/233/233 28/235/235
f 26/233/233 25/234/234 28/235/235
f 28/235/235 37/230/230 4/232/232
s 47
f 14/239/239 13/240/240 21/241/241
f 26/236/236 3/238/238 21/241/241
f 26/236/236 4/237/237 3/238/238
f 3/238/238 14/239/239 21/241/241
s 48
f 3/245/245 2/244/244 14/242/242
f 2/244/244 12/243/243 14/242/242
