mtllib Materials_Modular_Temple.mtl
o object1
g object1
v 0.22500000 -0.05000000 0.07500000
v 0.20000000 -0.07500000 0.10000000
v 0.20000000 -0.07500000 0.20000000
v 0.22500000 -0.05000000 0.22500000
v -0.50000000 -0.07500000 0.10000000
v -0.50000000 -0.05000000 0.07500000
v 0.20000000 -0.10000000 0.10000000
v -0.50000000 -0.10000000 0.10000000
v 0.20000000 -0.10000000 0.20000000
v -0.50000000 -0.10000000 0.20000000
v -0.50000000 -0.07500000 0.20000000
v -0.50000000 -0.05000000 -0.07500000
v -0.50000000 -0.07500000 -0.10000000
v -0.50000000 -0.10000000 -0.10000000
v -0.50000000 -0.10000000 -0.20000000
v -0.50000000 -0.07500000 -0.20000000
v -0.50000000 -0.05000000 -0.22500000
v -0.50000000 -0.05000000 -0.25000000
v -0.50000000 0.00000000 -0.25000000
v -0.50000000 0.00000000 -0.50000000
v -0.50000000 -0.20000000 -0.50000000
v -0.50000000 -0.20000000 0.50000000
v -0.50000000 0.00000000 0.50000000
v -0.50000000 0.00000000 0.25000000
v -0.50000000 -0.05000000 0.25000000
v -0.50000000 -0.05000000 0.22500000
v 0.20000000 -0.07500000 -0.10000000
v 0.22500000 -0.05000000 -0.07500000
v 0.22500000 -0.05000000 -0.22500000
v 0.20000000 -0.07500000 -0.20000000
v 0.20000000 -0.10000000 -0.10000000
v 0.20000000 -0.10000000 -0.20000000
v 0.25000000 -0.05000000 0.25000000
v 0.25000000 0.00000000 0.25000000
v 0.25000000 -0.05000000 -0.25000000
v 0.25000000 0.00000000 -0.25000000
v 0.50000000 -0.20000000 0.50000000
v 0.50000000 0.00000000 0.50000000
v 0.50000000 -0.20000000 -0.50000000
v 0.50000000 0.00000000 -0.50000000
vt 1.00000000 0.00000000
vt 0.83333333 1.00000000
vt 0.16666667 1.00000000
vt 0.00000000 0.00000000
vt 0.00000000 0.00000000
vt 0.96551724 0.00000000
vt 1.00000000 1.00000000
vt 0.00000000 1.00000000
vt 1.00000000 0.00000000
vt 1.00000000 1.00000000
vt 0.00000000 1.00000000
vt 0.00000000 0.00000000
vt 0.00000000 0.00000000
vt 1.00000000 0.00000000
vt 1.00000000 1.00000000
vt 0.00000000 1.00000000
vt 1.00000000 1.00000000
vt 0.00000000 1.00000000
vt 0.00000000 0.00000000
vt 1.00000000 0.00000000
vt 0.25000000 0.42500000
vt 0.37500000 0.40000000
vt 0.50000000 0.40000000
vt 0.50000000 0.30000000
vt 0.37500000 0.30000000
vt 0.25000000 0.27500000
vt 0.25000000 0.25000000
vt 0.00000000 0.25000000
vt 0.00000000 0.00000000
vt 1.00000000 0.00000000
vt 1.00000000 1.00000000
vt 0.00000000 1.00000000
vt 0.00000000 0.75000000
vt 0.25000000 0.75000000
vt 0.25000000 0.72500000
vt 0.37500000 0.70000000
vt 0.50000000 0.70000000
vt 0.50000000 0.60000000
vt 0.37500000 0.60000000
vt 0.25000000 0.57500000
vt 0.96551724 0.00000000
vt 1.00000000 1.00000000
vt 0.00000000 1.00000000
vt 0.00000000 0.00000000
vt 0.16666667 1.00000000
vt 0.00000000 0.00000000
vt 1.00000000 0.00000000
vt 0.83333333 1.00000000
vt 0.00000000 0.00000000
vt 1.00000000 0.00000000
vt 1.00000000 1.00000000
vt 0.00000000 1.00000000
vt 0.00000000 1.00000000
vt 0.00000000 0.00000000
vt 1.00000000 0.00000000
vt 1.00000000 1.00000000
vt 1.00000000 1.00000000
vt 0.00000000 1.00000000
vt 0.00000000 0.00000000
vt 1.00000000 0.00000000
vt 0.00000000 0.00000000
vt 1.00000000 0.00000000
vt 1.00000000 1.00000000
vt 0.00000000 1.00000000
vt 0.00000000 0.00000000
vt 1.00000000 0.00000000
vt 1.00000000 1.00000000
vt 0.00000000 1.00000000
vt 0.00000000 1.00000000
vt 0.00000000 0.00000000
vt 1.00000000 0.00000000
vt 1.00000000 1.00000000
vt 0.00000000 0.00000000
vt 1.00000000 0.00000000
vt 1.00000000 1.00000000
vt 0.00000000 1.00000000
vt 0.00000000 0.00000000
vt 1.00000000 0.00000000
vt 1.00000000 1.00000000
vt 0.75000000 1.00000000
vt 0.75000000 0.25000000
vt 0.25000000 0.25000000
vt 0.25000000 1.00000000
vt 0.00000000 1.00000000
vt 0.00000000 1.00000000
vt 0.00000000 0.00000000
vt 1.00000000 0.00000000
vt 1.00000000 1.00000000
vt 0.00000000 0.00000000
vt 1.00000000 0.00000000
vt 0.96551724 1.00000000
vt 0.00000000 1.00000000
vt 1.00000000 1.00000000
vt 0.00000000 1.00000000
vt 0.00000000 0.00000000
vt 1.00000000 0.00000000
vt 0.00000000 1.00000000
vt 0.00000000 0.00000000
vt 1.00000000 0.00000000
vt 1.00000000 1.00000000
vt 0.00000000 1.00000000
vt 0.00000000 0.00000000
vt 1.00000000 0.00000000
vt 1.00000000 1.00000000
vt 1.00000000 1.00000000
vt 0.00000000 1.00000000
vt 0.00000000 0.00000000
vt 0.05000000 0.00000000
vt 0.05000000 0.96666667
vt 0.35000000 0.96666667
vt 0.35000000 0.00000000
vt 0.65000000 0.00000000
vt 0.65000000 0.96666667
vt 0.95000000 0.96666667
vt 0.95000000 0.00000000
vt 1.00000000 0.00000000
vt 0.00000000 0.00000000
vt 1.00000000 0.00000000
vt 0.96551724 1.00000000
vt 0.00000000 1.00000000
vt 1.00000000 1.00000000
vt 0.00000000 1.00000000
vt 0.00000000 0.00000000
vt 1.00000000 0.00000000
vn -0.70710678 0.70710678 0.00000000
vn -0.70710678 0.70710678 0.00000000
vn -0.70710678 0.70710678 0.00000000
vn -0.70710678 0.70710678 0.00000000
vn -0.00000000 0.70710678 0.70710678
vn -0.00000000 0.70710678 0.70710678
vn 0.00000000 0.70710678 0.70710678
vn 0.00000000 0.70710678 0.70710678
vn 0.00000000 0.00000000 1.00000000
vn 0.00000000 0.00000000 1.00000000
vn 0.00000000 0.00000000 1.00000000
vn 0.00000000 0.00000000 1.00000000
vn 0.00000000 1.00000000 0.00000000
vn 0.00000000 1.00000000 0.00000000
vn 0.00000000 1.00000000 0.00000000
vn 0.00000000 1.00000000 0.00000000
vn 0.00000000 0.00000000 -1.00000000
vn 0.00000000 0.00000000 -1.00000000
vn 0.00000000 0.00000000 -1.00000000
vn 0.00000000 0.00000000 -1.00000000
vn -1.00000000 0.00000000 0.00000000
vn -1.00000000 0.00000000 0.00000000
vn -1.00000000 0.00000000 0.00000000
vn -1.00000000 0.00000000 0.00000000
vn -1.00000000 0.00000000 0.00000000
vn -1.00000000 0.00000000 0.00000000
vn -1.00000000 0.00000000 0.00000000
vn -1.00000000 0.00000000 0.00000000
vn -1.00000000 0.00000000 0.00000000
vn -1.00000000 0.00000000 0.00000000
vn -1.00000000 0.00000000 0.00000000
vn -1.00000000 0.00000000 0.00000000
vn -1.00000000 0.00000000 0.00000000
vn -1.00000000 0.00000000 0.00000000
vn -1.00000000 0.00000000 0.00000000
vn -1.00000000 0.00000000 0.00000000
vn -1.00000000 0.00000000 0.00000000
vn -1.00000000 0.00000000 0.00000000
vn -1.00000000 0.00000000 0.00000000
vn -1.00000000 0.00000000 0.00000000
vn 0.00000000 0.70710678 -0.70710678
vn 0.00000000 0.70710678 -0.70710678
vn 0.00000000 0.70710678 -0.70710678
vn 0.00000000 0.70710678 -0.70710678
vn -0.70710678 0.70710678 0.00000000
vn -0.70710678 0.70710678 0.00000000
vn -0.70710678 0.70710678 0.00000000
vn -0.70710678 0.70710678 0.00000000
vn -1.00000000 0.00000000 0.00000000
vn -1.00000000 0.00000000 0.00000000
vn -1.00000000 0.00000000 0.00000000
vn -1.00000000 0.00000000 0.00000000
vn 0.00000000 0.00000000 -1.00000000
vn 0.00000000 0.00000000 -1.00000000
vn 0.00000000 0.00000000 -1.00000000
vn 0.00000000 0.00000000 -1.00000000
vn -1.00000000 0.00000000 0.00000000
vn -1.00000000 0.00000000 0.00000000
vn -1.00000000 0.00000000 0.00000000
vn -1.00000000 0.00000000 0.00000000
vn 0.00000000 0.00000000 1.00000000
vn 0.00000000 0.00000000 1.00000000
vn 0.00000000 0.00000000 1.00000000
vn 0.00000000 0.00000000 1.00000000
vn 1.00000000 0.00000000 0.00000000
vn 1.00000000 0.00000000 0.00000000
vn 1.00000000 0.00000000 0.00000000
vn 1.00000000 0.00000000 0.00000000
vn 0.00000000 -1.00000000 0.00000000
vn 0.00000000 -1.00000000 0.00000000
vn 0.00000000 -1.00000000 0.00000000
vn 0.00000000 -1.00000000 0.00000000
vn 0.00000000 0.00000000 -1.00000000
vn 0.00000000 0.00000000 -1.00000000
vn 0.00000000 0.00000000 -1.00000000
vn 0.00000000 0.00000000 -1.00000000
vn 0.00000000 1.00000000 0.00000000
vn 0.00000000 1.00000000 0.00000000
vn 0.00000000 1.00000000 0.00000000
vn 0.00000000 1.00000000 0.00000000
vn 0.00000000 1.00000000 0.00000000
vn 0.00000000 1.00000000 0.00000000
vn 0.00000000 1.00000000 0.00000000
vn 0.00000000 1.00000000 0.00000000
vn 0.00000000 0.00000000 1.00000000
vn 0.00000000 0.00000000 1.00000000
vn 0.00000000 0.00000000 1.00000000
vn 0.00000000 0.00000000 1.00000000
vn 0.00000000 0.70710678 0.70710678
vn 0.00000000 0.70710678 0.70710678
vn -0.00000000 0.70710678 0.70710678
vn -0.00000000 0.70710678 0.70710678
vn 0.00000000 -0.00000000 1.00000000
vn 0.00000000 -0.00000000 1.00000000
vn 0.00000000 -0.00000000 1.00000000
vn 0.00000000 -0.00000000 1.00000000
vn 0.00000000 1.00000000 0.00000000
vn 0.00000000 1.00000000 0.00000000
vn 0.00000000 1.00000000 0.00000000
vn 0.00000000 1.00000000 0.00000000
vn 0.00000000 0.00000000 -1.00000000
vn 0.00000000 0.00000000 -1.00000000
vn 0.00000000 0.00000000 -1.00000000
vn 0.00000000 0.00000000 -1.00000000
vn 0.00000000 1.00000000 0.00000000
vn 0.00000000 1.00000000 0.00000000
vn 0.00000000 1.00000000 0.00000000
vn 0.00000000 1.00000000 0.00000000
vn 0.00000000 1.00000000 0.00000000
vn 0.00000000 1.00000000 0.00000000
vn 0.00000000 1.00000000 0.00000000
vn 0.00000000 1.00000000 0.00000000
vn 0.00000000 1.00000000 0.00000000
vn 0.00000000 1.00000000 0.00000000
vn 0.00000000 1.00000000 0.00000000
vn 0.00000000 1.00000000 0.00000000
vn 0.00000000 0.70710678 -0.70710678
vn 0.00000000 0.70710678 -0.70710678
vn -0.00000000 0.70710678 -0.70710678
vn -0.00000000 0.70710678 -0.70710678
vn -1.00000000 0.00000000 0.00000000
vn -1.00000000 0.00000000 0.00000000
vn -1.00000000 0.00000000 0.00000000
vn -1.00000000 0.00000000 0.00000000
s 1
usemtl Sandstone_4
f 1/1/1 2/2/2 4/4/4
f 2/2/2 3/3/3 4/4/4
s 2
f 5/5/5 2/6/6 6/8/8
f 2/6/6 1/7/7 6/8/8
s 3
f 5/12/12 8/11/11 2/9/9
f 8/11/11 7/10/10 2/9/9
s 4
usemtl Sandstone_5
f 9/13/13 7/14/14 10/16/16
f 7/14/14 8/15/15 10/16/16
s 5
usemtl Sandstone_4
f 10/20/20 11/19/19 9/17/17
f 11/19/19 3/18/18 9/17/17
s 6
usemtl Sandstone_Trim
f 12/21/21 13/22/22 14/23/23
f 8/38/38 14/23/23 21/30/30
f 15/24/24 18/27/27 21/30/30
f 18/27/27 19/28/28 20/29/29
f 15/24/24 17/26/26 18/27/27
f 15/24/24 16/25/25 17/26/26
f 18/27/27 20/29/29 21/30/30
f 21/30/30 22/31/31 8/38/38
f 22/31/31 25/34/34 10/37/37
f 26/35/35 11/36/36 10/37/37
f 23/32/32 24/33/33 25/34/34
f 25/34/34 26/35/35 10/37/37
f 22/31/31 23/32/32 25/34/34
f 22/31/31 10/37/37 8/38/38
f 8/38/38 5/39/39 6/40/40
f 14/23/23 15/24/24 21/30/30
f 8/38/38 6/40/40 14/23/23
f 6/40/40 12/21/21 14/23/23
s 7
usemtl Sandstone_4
f 13/44/44 12/43/43 27/41/41
f 12/43/43 28/42/42 27/41/41
s 8
f 27/45/45 28/46/46 29/47/47
f 27/45/45 29/47/47 30/48/48
s 9
f 30/52/52 32/51/51 27/49/49
f 32/51/51 31/50/50 27/49/49
s 10
usemtl Sandstone_Trim
f 33/53/53 25/54/54 34/56/56
f 25/54/54 24/55/55 34/56/56
s 11
f 36/60/60 35/59/59 33/58/58
f 36/60/60 33/58/58 34/57/57
s 12
f 23/61/61 22/62/62 38/64/64
f 22/62/62 37/63/63 38/64/64
s 13
f 38/65/65 37/66/66 40/68/68
f 37/66/66 39/67/67 40/68/68
s 14
f 21/72/72 39/71/71 37/70/70
f 21/72/72 37/70/70 22/69/69
s 15
f 40/76/76 39/75/75 20/73/73
f 39/75/75 21/74/74 20/73/73
s 16
usemtl Sandstone_Floor
f 20/79/79 19/80/80 36/81/81
f 40/78/78 36/81/81 34/82/82
f 34/82/82 23/84/84 38/77/77
f 34/82/82 24/83/83 23/84/84
f 38/77/77 40/78/78 34/82/82
f 40/78/78 20/79/79 36/81/81
s 17
usemtl Sandstone_Trim
f 36/88/88 19/87/87 35/85/85
f 19/87/87 18/86/86 35/85/85
s 18
usemtl Sandstone_4
f 16/92/92 30/91/91 17/89/89
f 30/91/91 29/90/90 17/89/89
s 19
f 32/93/93 30/94/94 15/96/96
f 30/94/94 16/95/95 15/96/96
s 20
usemtl Sandstone_5
f 14/97/97 31/98/98 32/99/99
f 14/97/97 32/99/99 15/100/100
s 21
usemtl Sandstone_4
f 13/101/101 27/102/102 14/104/104
f 27/102/102 31/103/103 14/104/104
s 22
f 12/112/112 6/111/111 1/110/110
f 28/113/113 1/110/110 33/106/106
f 29/114/114 33/106/106 35/105/105
f 18/116/116 29/114/114 35/105/105
f 18/116/116 17/115/115 29/114/114
f 4/109/109 25/107/107 33/106/106
f 4/109/109 26/108/108 25/107/107
f 29/114/114 28/113/113 33/106/106
f 1/110/110 4/109/109 33/106/106
f 28/113/113 12/112/112 1/110/110
s 23
f 26/117/117 4/118/118 3/119/119
f 26/117/117 3/119/119 11/120/120
s 24
f 9/124/124 3/123/123 7/121/121
f 3/123/123 2/122/122 7/121/121
