mtllib Materials_Modular_Temple.mtl
o object1
g object1
v 0.50000000 -0.10000000 0.05000000
v 0.50000000 -0.10000000 -0.05000000
v -0.50000000 -0.10000000 -0.05000000
v -0.50000000 -0.10000000 0.05000000
v -0.50000000 -0.05000000 -0.05000000
v -0.50000000 -0.05000000 0.05000000
v 0.50000000 -0.05000000 0.05000000
v 0.50000000 -0.05000000 -0.05000000
vt 0.00000000 0.00000000
vt 1.00000000 0.00000000
vt 1.00000000 1.00000000
vt 0.00000000 1.00000000
vt 1.00000000 0.00000000
vt 1.00000000 1.00000000
vt 0.00000000 1.00000000
vt 0.00000000 0.00000000
vt 0.00000000 0.00000000
vt 1.00000000 0.00000000
vt 1.00000000 1.00000000
vt 0.00000000 1.00000000
vt 1.00000000 0.00000000
vt 1.00000000 1.00000000
vt 0.00000000 1.00000000
vt 0.00000000 0.00000000
vt 1.00000000 0.00000000
vt 1.00000000 1.00000000
vt 0.00000000 1.00000000
vt 0.00000000 0.00000000
vt 1.00000000 0.00000000
vt 1.00000000 1.00000000
vt 0.00000000 1.00000000
vt 0.00000000 0.00000000
vn 0.00000000 -1.00000000 0.00000000
vn 0.00000000 -1.00000000 0.00000000
vn 0.00000000 -1.00000000 0.00000000
vn 0.00000000 -1.00000000 0.00000000
vn -1.00000000 0.00000000 0.00000000
vn -1.00000000 0.00000000 0.00000000
vn -1.00000000 0.00000000 0.00000000
vn -1.00000000 0.00000000 0.00000000
vn 0.00000000 1.00000000 0.00000000
vn 0.00000000 1.00000000 0.00000000
vn 0.00000000 1.00000000 0.00000000
vn 0.00000000 1.00000000 0.00000000
vn 0.00000000 0.00000000 1.00000000
vn 0.00000000 0.00000000 1.00000000
vn 0.00000000 0.00000000 1.00000000
vn 0.00000000 0.00000000 1.00000000
vn 1.00000000 0.00000000 0.00000000
vn 1.00000000 0.00000000 0.00000000
vn 1.00000000 0.00000000 0.00000000
vn 1.00000000 0.00000000 0.00000000
vn 0.00000000 0.00000000 -1.00000000
vn 0.00000000 0.00000000 -1.00000000
vn 0.00000000 0.00000000 -1.00000000
vn 0.00000000 0.00000000 -1.00000000
s 1
usemtl Green_Stone_-_Dark
f 4/4/4 3/3/3 2/2/2
f 4/4/4 2/2/2 1/1/1
s 2
f 3/8/8 4/7/7 5/5/5
f 4/7/7 6/6/6 5/5/5
s 3
f 7/9/9 8/10/10 6/12/12
f 8/10/10 5/11/11 6/12/12
s 4
f 4/16/16 1/15/15 6/13/13
f 1/15/15 7/14/14 6/13/13
s 5
f 1/20/20 2/19/19 7/17/17
f 2/19/19 8/18/18 7/17/17
s 6
f 2/24/24 3/23/23 8/21/21
f 3/23/23 5/22/22 8/21/21
o object2
g object2
v 0.50000000 -0.20000000 0.50000000
v 0.50000000 -0.20000000 -0.50000000
v 0.50000000 0.00000000 -0.50000000
v 0.50000000 0.00000000 -0.18750000
v 0.50000000 -0.05000000 -0.13750000
v 0.50000000 0.00000000 -0.08750000
v 0.50000000 -0.03750000 -0.05000000
v 0.50000000 -0.10000000 -0.05000000
v 0.50000000 -0.10000000 0.05000000
v 0.50000000 -0.03750000 0.05000000
v 0.50000000 0.00000000 0.08750000
v 0.50000000 -0.05000000 0.13750000
v 0.50000000 0.00000000 0.18750000
v 0.50000000 0.00000000 0.50000000
v -0.50000000 -0.20000000 -0.50000000
v -0.50000000 -0.20000000 0.50000000
v -0.50000000 -0.03750000 0.05000000
v -0.50000000 -0.10000000 0.05000000
v -0.50000000 -0.10000000 -0.05000000
v -0.50000000 -0.03750000 -0.05000000
v -0.50000000 0.00000000 -0.08750000
v -0.50000000 -0.05000000 -0.13750000
v -0.50000000 0.00000000 -0.18750000
v -0.50000000 0.00000000 -0.50000000
v -0.50000000 0.00000000 0.50000000
v -0.50000000 0.00000000 0.18750000
v -0.50000000 -0.05000000 0.13750000
v -0.50000000 0.00000000 0.08750000
vt 1.00000000 0.00000000
vt 1.00000000 1.00000000
vt 0.00000000 1.00000000
vt 0.00000000 0.68750000
vt 0.25000000 0.63750000
vt 0.00000000 0.58750000
vt 0.18750000 0.55000000
vt 0.50000000 0.55000000
vt 0.50000000 0.45000000
vt 0.18750000 0.45000000
vt 0.00000000 0.41250000
vt 0.25000000 0.36250000
vt 0.00000000 0.31250000
vt 0.00000000 0.00000000
vt 0.00000000 0.00000000
vt 1.00000000 0.00000000
vt 1.00000000 1.00000000
vt 0.00000000 1.00000000
vt 0.18750000 0.55000000
vt 0.50000000 0.55000000
vt 0.50000000 0.45000000
vt 0.18750000 0.45000000
vt 0.00000000 0.41250000
vt 0.25000000 0.36250000
vt 0.00000000 0.31250000
vt 0.00000000 0.00000000
vt 1.00000000 0.00000000
vt 1.00000000 1.00000000
vt 0.00000000 1.00000000
vt 0.00000000 0.68750000
vt 0.25000000 0.63750000
vt 0.00000000 0.58750000
vt 1.00000000 0.00000000
vt 1.00000000 1.00000000
vt 0.00000000 1.00000000
vt 0.00000000 0.00000000
vt 0.00000000 1.00000000
vt 0.00000000 0.00000000
vt 1.00000000 0.00000000
vt 1.00000000 1.00000000
vt 1.00000000 0.00000000
vt 1.00000000 1.00000000
vt 0.00000000 1.00000000
vt 0.00000000 0.00000000
vt 1.00000000 0.00000000
vt 1.00000000 1.00000000
vt 0.00000000 1.00000000
vt 0.00000000 0.00000000
vt 1.00000000 1.00000000
vt 0.00000000 1.00000000
vt 0.00000000 0.00000000
vt 1.00000000 0.00000000
vt 1.00000000 0.00000000
vt 1.00000000 1.00000000
vt 0.00000000 1.00000000
vt 0.00000000 0.00000000
vt 0.00000000 0.00000000
vt 1.00000000 0.00000000
vt 1.00000000 1.00000000
vt 0.00000000 1.00000000
vt 1.00000000 0.00000000
vt 1.00000000 1.00000000
vt 0.00000000 1.00000000
vt 0.00000000 0.00000000
vt 1.00000000 1.00000000
vt 0.00000000 1.00000000
vt 0.00000000 0.00000000
vt 1.00000000 0.00000000
vt 1.00000000 0.00000000
vt 1.00000000 1.00000000
vt 0.00000000 1.00000000
vt 0.00000000 0.00000000
vt 1.00000000 0.00000000
vt 1.00000000 1.00000000
vt 0.00000000 1.00000000
vt 0.00000000 0.00000000
vt 1.00000000 0.00000000
vt 1.00000000 1.00000000
vt 0.00000000 1.00000000
vt 0.00000000 0.00000000
vt 1.00000000 0.00000000
vt 1.00000000 1.00000000
vt 0.00000000 1.00000000
vt 0.00000000 0.00000000
vn 1.00000000 0.00000000 0.00000000
vn 1.00000000 0.00000000 0.00000000
vn 1.00000000 0.00000000 0.00000000
vn 1.00000000 0.00000000 0.00000000
vn 1.00000000 0.00000000 0.00000000
vn 1.00000000 0.00000000 0.00000000
vn 1.00000000 0.00000000 0.00000000
vn 1.00000000 0.00000000 0.00000000
vn 1.00000000 0.00000000 0.00000000
vn 1.00000000 0.00000000 0.00000000
vn 1.00000000 0.00000000 0.00000000
vn 1.00000000 0.00000000 0.00000000
vn 1.00000000 0.00000000 0.00000000
vn 1.00000000 0.00000000 0.00000000
vn 0.00000000 -1.00000000 0.00000000
vn 0.00000000 -1.00000000 0.00000000
vn 0.00000000 -1.00000000 0.00000000
vn 0.00000000 -1.00000000 0.00000000
vn -1.00000000 0.00000000 0.00000000
vn -1.00000000 0.00000000 0.00000000
vn -1.00000000 0.00000000 0.00000000
vn -1.00000000 0.00000000 0.00000000
vn -1.00000000 0.00000000 0.00000000
vn -1.00000000 0.00000000 0.00000000
vn -1.00000000 0.00000000 0.00000000
vn -1.00000000 0.00000000 0.00000000
vn -1.00000000 0.00000000 0.00000000
vn -1.00000000 0.00000000 0.00000000
vn -1.00000000 0.00000000 0.00000000
vn -1.00000000 0.00000000 0.00000000
vn -1.00000000 0.00000000 0.00000000
vn -1.00000000 0.00000000 0.00000000
vn 0.00000000 0.00000000 1.00000000
vn 0.00000000 0.00000000 1.00000000
vn 0.00000000 0.00000000 1.00000000
vn 0.00000000 0.00000000 1.00000000
vn 0.00000000 1.00000000 0.00000000
vn 0.00000000 1.00000000 0.00000000
vn 0.00000000 1.00000000 0.00000000
vn 0.00000000 1.00000000 0.00000000
vn 0.00000000 0.70710678 -0.70710678
vn 0.00000000 0.70710678 -0.70710678
vn 0.00000000 0.70710678 -0.70710678
vn 0.00000000 0.70710678 -0.70710678
vn 0.00000000 0.70710678 0.70710678
vn 0.00000000 0.70710678 0.70710678
vn 0.00000000 0.70710678 0.70710678
vn 0.00000000 0.70710678 0.70710678
vn 0.00000000 0.70710678 -0.70710678
vn 0.00000000 0.70710678 -0.70710678
vn 0.00000000 0.70710678 -0.70710678
vn 0.00000000 0.70710678 -0.70710678
vn 0.00000000 0.00000000 -1.00000000
vn 0.00000000 0.00000000 -1.00000000
vn 0.00000000 0.00000000 -1.00000000
vn 0.00000000 0.00000000 -1.00000000
vn 0.00000000 1.00000000 0.00000000
vn 0.00000000 1.00000000 0.00000000
vn 0.00000000 1.00000000 0.00000000
vn 0.00000000 1.00000000 0.00000000
vn 0.00000000 0.00000000 1.00000000
vn 0.00000000 0.00000000 1.00000000
vn 0.00000000 0.00000000 1.00000000
vn 0.00000000 0.00000000 1.00000000
vn 0.00000000 0.70710678 0.70710678
vn 0.00000000 0.70710678 0.70710678
vn 0.00000000 0.70710678 0.70710678
vn 0.00000000 0.70710678 0.70710678
vn 0.00000000 0.70710678 -0.70710678
vn 0.00000000 0.70710678 -0.70710678
vn 0.00000000 0.70710678 -0.70710678
vn 0.00000000 0.70710678 -0.70710678
vn 0.00000000 0.70710678 0.70710678
vn 0.00000000 0.70710678 0.70710678
vn 0.00000000 0.70710678 0.70710678
vn 0.00000000 0.70710678 0.70710678
vn 0.00000000 1.00000000 0.00000000
vn 0.00000000 1.00000000 0.00000000
vn 0.00000000 1.00000000 0.00000000
vn 0.00000000 1.00000000 0.00000000
vn 0.00000000 0.00000000 -1.00000000
vn 0.00000000 0.00000000 -1.00000000
vn 0.00000000 0.00000000 -1.00000000
vn 0.00000000 0.00000000 -1.00000000
s 1
usemtl Sandstone_Trim
f 13/29/29 14/30/30 15/31/31
f 10/26/26 13/29/29 16/32/32
f 10/26/26 16/32/32 17/33/33
f 17/33/33 20/36/36 9/25/25
f 21/37/37 22/38/38 9/25/25
f 20/36/36 21/37/37 9/25/25
f 18/34/34 19/35/35 20/36/36
f 17/33/33 18/34/34 20/36/36
f 17/33/33 9/25/25 10/26/26
f 10/26/26 11/27/27 12/28/28
f 10/26/26 12/28/28 13/29/29
f 13/29/29 15/31/31 16/32/32
s 2
f 24/42/42 23/41/41 10/40/40
f 24/42/42 10/40/40 9/39/39
s 3
f 28/46/46 29/47/47 30/48/48
f 27/45/45 30/48/48 23/51/51
f 23/51/51 24/52/52 26/44/44
f 35/55/55 25/43/43 26/44/44
f 35/55/55 36/56/56 25/43/43
f 24/52/52 35/55/55 26/44/44
f 24/52/52 34/54/54 35/55/55
f 24/52/52 33/53/53 34/54/54
f 31/49/49 32/50/50 23/51/51
f 26/44/44 27/45/45 23/51/51
f 30/48/48 31/49/49 23/51/51
f 27/45/45 28/46/46 30/48/48
s 4
f 24/57/57 9/58/58 33/60/60
f 9/58/58 22/59/59 33/60/60
s 5
usemtl Sandstone_Floor
f 33/61/61 22/62/62 21/63/63
f 33/61/61 21/63/63 34/64/64
s 6
f 21/65/65 20/66/66 34/68/68
f 20/66/66 35/67/67 34/68/68
s 7
usemtl Sandstone_5
f 20/69/69 19/70/70 35/72/72
f 19/70/70 36/71/71 35/72/72
s 8
f 18/73/73 25/74/74 19/76/76
f 25/74/74 36/75/75 19/76/76
s 9
f 25/80/80 18/79/79 26/77/77
f 18/79/79 17/78/78 26/77/77
s 10
f 17/81/81 16/82/82 26/84/84
f 16/82/82 27/83/83 26/84/84
s 11
f 15/88/88 28/87/87 16/85/85
f 28/87/87 27/86/86 16/85/85
s 12
f 28/89/89 15/90/90 14/91/91
f 28/89/89 14/91/91 29/92/92
s 13
f 14/93/93 13/94/94 29/96/96
f 13/94/94 30/95/95 29/96/96
s 14
usemtl Sandstone_Floor
f 13/97/97 12/98/98 30/100/100
f 12/98/98 31/99/99 30/100/100
s 15
f 11/101/101 32/102/102 12/104/104
f 32/102/102 31/103/103 12/104/104
s 16
usemtl Sandstone_Trim
f 10/105/105 23/106/106 11/108/108
f 23/106/106 32/107/107 11/108/108
