mtllib Materials_Modular_Temple.mtl
o object1
g object1
v -0.55000000 0.00000000 0.52500000
v -0.52500000 0.00000000 0.55000000
v 0.52500000 0.00000000 0.55000000
v 0.55000000 0.00000000 0.52500000
v 0.55000000 0.00000000 0.47500000
v 0.52500000 0.00000000 0.45000000
v -0.52500000 0.00000000 0.45000000
v -0.55000000 0.00000000 0.47500000
v -0.51464466 0.02500000 0.52500000
v -0.52500000 0.02500000 0.51464466
v 0.51464466 0.02500000 0.52500000
v 0.52500000 0.02500000 0.51464466
v 0.52500000 0.02500000 0.48535534
v 0.51464466 0.02500000 0.47500000
v -0.51464466 0.02500000 0.47500000
v -0.52500000 0.02500000 0.48535534
vt 0.25000000 1.00000000
vt 0.00000000 0.97727273
vt 0.00000000 0.02272727
vt 0.25000000 0.00000000
vt 0.75000000 0.00000000
vt 1.00000000 0.02272727
vt 1.00000000 0.97727273
vt 0.75000000 1.00000000
vt 0.29289322 0.00000000
vt 0.70710678 0.00000000
vt 1.00000000 1.00000000
vt 0.00000000 1.00000000
vt 0.20710678 1.00000000
vt 0.00000000 0.99013777
vt 0.00000000 0.00986223
vt 0.20710678 0.00000000
vt 0.79289322 0.00000000
vt 1.00000000 0.00986223
vt 1.00000000 0.99013777
vt 0.79289322 1.00000000
vt 0.00000000 0.00000000
vt 1.00000000 0.00000000
vt 0.79289322 1.00000000
vt 0.20710678 1.00000000
vt 0.29289322 0.00000000
vt 0.70710678 0.00000000
vt 1.00000000 1.00000000
vt 0.00000000 1.00000000
vt 0.29289322 0.00000000
vt 0.70710678 0.00000000
vt 1.00000000 1.00000000
vt 0.00000000 1.00000000
vt 0.00000000 0.00000000
vt 1.00000000 0.00000000
vt 0.79289322 1.00000000
vt 0.20710678 1.00000000
vt 0.29289322 0.00000000
vt 0.70710678 0.00000000
vt 1.00000000 1.00000000
vt 0.00000000 1.00000000
vt 0.00000000 1.00000000
vt 0.00000000 0.00000000
vt 1.00000000 0.00986223
vt 1.00000000 0.99013777
vt 0.00000000 0.99013777
vt 0.00000000 0.00986223
vt 1.00000000 0.00000000
vt 1.00000000 1.00000000
vn 0.00000000 -1.00000000 0.00000000
vn 0.00000000 -1.00000000 0.00000000
vn 0.00000000 -1.00000000 0.00000000
vn 0.00000000 -1.00000000 0.00000000
vn 0.00000000 -1.00000000 0.00000000
vn 0.00000000 -1.00000000 0.00000000
vn 0.00000000 -1.00000000 0.00000000
vn 0.00000000 -1.00000000 0.00000000
vn -0.50000000 0.70710678 0.50000000
vn -0.50000000 0.70710678 0.50000000
vn -0.50000000 0.70710678 0.50000000
vn -0.50000000 0.70710678 0.50000000
vn 0.00000000 1.00000000 0.00000000
vn 0.00000000 1.00000000 0.00000000
vn 0.00000000 1.00000000 0.00000000
vn 0.00000000 1.00000000 0.00000000
vn 0.00000000 1.00000000 0.00000000
vn 0.00000000 1.00000000 0.00000000
vn 0.00000000 1.00000000 0.00000000
vn 0.00000000 1.00000000 0.00000000
vn -0.70710678 0.70710678 0.00000000
vn -0.70710678 0.70710678 0.00000000
vn -0.70710678 0.70710678 0.00000000
vn -0.70710678 0.70710678 0.00000000
vn -0.50000000 0.70710678 -0.50000000
vn -0.50000000 0.70710678 -0.50000000
vn -0.50000000 0.70710678 -0.50000000
vn -0.50000000 0.70710678 -0.50000000
vn 0.50000000 0.70710678 -0.50000000
vn 0.50000000 0.70710678 -0.50000000
vn 0.50000000 0.70710678 -0.50000000
vn 0.50000000 0.70710678 -0.50000000
vn 0.70710678 0.70710678 0.00000000
vn 0.70710678 0.70710678 0.00000000
vn 0.70710678 0.70710678 0.00000000
vn 0.70710678 0.70710678 0.00000000
vn 0.50000000 0.70710678 0.50000000
vn 0.50000000 0.70710678 0.50000000
vn 0.50000000 0.70710678 0.50000000
vn 0.50000000 0.70710678 0.50000000
vn 0.00000000 0.70710678 0.70710678
vn 0.00000000 0.70710678 0.70710678
vn -0.00000000 0.70710678 0.70710678
vn -0.00000000 0.70710678 0.70710678
vn 0.00000000 0.70710678 -0.70710678
vn 0.00000000 0.70710678 -0.70710678
vn 0.00000000 0.70710678 -0.70710678
vn 0.00000000 0.70710678 -0.70710678
s 1
usemtl Sandstone_Trim
f 2/2/2 1/1/1 8/8/8
f 7/7/7 6/6/6 2/2/2
f 6/6/6 4/4/4 3/3/3
f 6/6/6 5/5/5 4/4/4
f 6/6/6 3/3/3 2/2/2
f 2/2/2 8/8/8 7/7/7
s 2
f 9/9/9 10/10/10 2/12/12
f 10/10/10 1/11/11 2/12/12
s 3
f 16/20/20 10/13/13 9/14/14
f 9/14/14 11/15/15 14/18/18
f 12/16/16 13/17/17 14/18/18
f 11/15/15 12/16/16 14/18/18
f 14/18/18 15/19/19 9/14/14
f 15/19/19 16/20/20 9/14/14
s 4
f 8/21/21 1/22/22 10/23/23
f 8/21/21 10/23/23 16/24/24
s 5
f 16/25/25 15/26/26 8/28/28
f 15/26/26 7/27/27 8/28/28
s 6
f 14/29/29 13/30/30 5/31/31
f 14/29/29 5/31/31 6/32/32
s 7
f 4/33/33 5/34/34 12/36/36
f 5/34/34 13/35/35 12/36/36
s 8
f 12/37/37 11/38/38 3/39/39
f 12/37/37 3/39/39 4/40/40
s 9
f 2/41/41 3/42/42 11/43/43
f 2/41/41 11/43/43 9/44/44
s 10
f 15/45/45 14/46/46 6/47/47
f 15/45/45 6/47/47 7/48/48
