mtllib Materials_Modular_Temple.mtl
o object1
g object1
v 0.05000000 -0.05000000 -0.05000000
v 0.05000000 -0.05000000 -0.50000000
v 0.05000000 -0.10000000 -0.50000000
v 0.05000000 -0.10000000 -0.05000000
v -0.50000000 -0.10000000 -0.05000000
v -0.50000000 -0.10000000 0.05000000
v 0.50000000 -0.10000000 0.05000000
v 0.50000000 -0.10000000 -0.05000000
v -0.05000000 -0.10000000 -0.50000000
v -0.05000000 -0.10000000 -0.05000000
v 0.50000000 -0.05000000 -0.05000000
v 0.50000000 -0.05000000 0.05000000
v -0.05000000 -0.05000000 -0.50000000
v -0.05000000 -0.05000000 -0.05000000
v -0.50000000 -0.05000000 -0.05000000
v -0.50000000 -0.05000000 0.05000000
vt 1.00000000 0.00000000
vt 1.00000000 1.00000000
vt 0.00000000 1.00000000
vt 0.00000000 0.00000000
vt 0.18181818 1.00000000
vt 0.00000000 1.00000000
vt 0.00000000 0.00000000
vt 0.18181818 0.00000000
vt 0.18181818 0.45000000
vt 1.00000000 0.45000000
vt 1.00000000 0.55000000
vt 0.18181818 0.55000000
vt 1.00000000 0.00000000
vt 1.00000000 1.00000000
vt 0.00000000 1.00000000
vt 0.00000000 0.00000000
vt 1.00000000 0.00000000
vt 1.00000000 1.00000000
vt 0.00000000 1.00000000
vt 0.00000000 0.00000000
vt 1.00000000 0.00000000
vt 1.00000000 1.00000000
vt 0.00000000 1.00000000
vt 0.00000000 0.00000000
vt 1.00000000 0.00000000
vt 1.00000000 1.00000000
vt 0.00000000 1.00000000
vt 0.00000000 0.00000000
vt 1.00000000 0.00000000
vt 1.00000000 1.00000000
vt 0.00000000 1.00000000
vt 0.00000000 0.00000000
vt 1.00000000 0.00000000
vt 1.00000000 1.00000000
vt 0.00000000 1.00000000
vt 0.00000000 0.00000000
vt 0.18181818 1.00000000
vt 0.00000000 1.00000000
vt 0.00000000 0.00000000
vt 0.18181818 0.00000000
vt 0.18181818 0.45000000
vt 1.00000000 0.45000000
vt 1.00000000 0.55000000
vt 0.18181818 0.55000000
vt 1.00000000 0.00000000
vt 1.00000000 1.00000000
vt 0.00000000 1.00000000
vt 0.00000000 0.00000000
vn 1.00000000 0.00000000 0.00000000
vn 1.00000000 0.00000000 0.00000000
vn 1.00000000 0.00000000 0.00000000
vn 1.00000000 0.00000000 0.00000000
vn 0.00000000 -1.00000000 0.00000000
vn 0.00000000 -1.00000000 0.00000000
vn 0.00000000 -1.00000000 0.00000000
vn 0.00000000 -1.00000000 0.00000000
vn 0.00000000 -1.00000000 0.00000000
vn 0.00000000 -1.00000000 0.00000000
vn 0.00000000 -1.00000000 0.00000000
vn 0.00000000 -1.00000000 0.00000000
vn 1.00000000 0.00000000 0.00000000
vn 1.00000000 0.00000000 0.00000000
vn 1.00000000 0.00000000 0.00000000
vn 1.00000000 0.00000000 0.00000000
vn -1.00000000 0.00000000 0.00000000
vn -1.00000000 0.00000000 0.00000000
vn -1.00000000 0.00000000 0.00000000
vn -1.00000000 0.00000000 0.00000000
vn 0.00000000 0.00000000 -1.00000000
vn 0.00000000 0.00000000 -1.00000000
vn 0.00000000 0.00000000 -1.00000000
vn 0.00000000 0.00000000 -1.00000000
vn -1.00000000 0.00000000 0.00000000
vn -1.00000000 0.00000000 0.00000000
vn -1.00000000 0.00000000 0.00000000
vn -1.00000000 0.00000000 0.00000000
vn 0.00000000 0.00000000 1.00000000
vn 0.00000000 0.00000000 1.00000000
vn 0.00000000 0.00000000 1.00000000
vn 0.00000000 0.00000000 1.00000000
vn 0.00000000 0.00000000 -1.00000000
vn 0.00000000 0.00000000 -1.00000000
vn 0.00000000 0.00000000 -1.00000000
vn 0.00000000 0.00000000 -1.00000000
vn 0.00000000 1.00000000 0.00000000
vn 0.00000000 1.00000000 0.00000000
vn 0.00000000 1.00000000 0.00000000
vn 0.00000000 1.00000000 0.00000000
vn 0.00000000 1.00000000 0.00000000
vn 0.00000000 1.00000000 0.00000000
vn 0.00000000 1.00000000 0.00000000
vn 0.00000000 1.00000000 0.00000000
vn 0.00000000 0.00000000 -1.00000000
vn 0.00000000 0.00000000 -1.00000000
vn 0.00000000 0.00000000 -1.00000000
vn 0.00000000 0.00000000 -1.00000000
s 1
usemtl Green_Stone_-_Dark
f 4/4/4 3/3/3 1/1/1
f 3/3/3 2/2/2 1/1/1
s 2
f 4/9/9 8/8/8 7/7/7
f 7/7/7 6/6/6 10/12/12
f 6/6/6 5/5/5 10/12/12
f 10/12/12 4/9/9 7/7/7
f 10/12/12 9/11/11 4/9/9
f 9/11/11 3/10/10 4/9/9
s 3
f 11/13/13 12/14/14 8/16/16
f 12/14/14 7/15/15 8/16/16
s 4
f 9/20/20 10/19/19 13/17/17
f 10/19/19 14/18/18 13/17/17
s 5
f 10/24/24 5/23/23 14/21/21
f 5/23/23 15/22/22 14/21/21
s 6
f 16/25/25 15/26/26 6/28/28
f 15/26/26 5/27/27 6/28/28
s 7
f 6/32/32 7/31/31 16/29/29
f 7/31/31 12/30/30 16/29/29
s 8
f 8/36/36 4/35/35 11/33/33
f 4/35/35 1/34/34 11/33/33
s 9
f 12/39/39 11/40/40 1/41/41
f 1/41/41 13/43/43 14/44/44
f 14/44/44 15/37/37 16/38/38
f 1/41/41 2/42/42 13/43/43
f 12/39/39 1/41/41 14/44/44
f 14/44/44 16/38/38 12/39/39
s 10
f 13/45/45 2/46/46 9/48/48
f 2/46/46 3/47/47 9/48/48
o object2
g object2
v 0.50000000 -0.10000000 -0.05000000
v 0.05000000 -0.10000000 -0.05000000
v 0.05000000 -0.03750000 -0.05000000
v 0.50000000 -0.03750000 -0.05000000
v 0.50000000 0.00000000 -0.08750000
v 0.08750000 0.00000000 -0.08750000
v 0.05000000 -0.03750000 -0.50000000
v 0.08750000 0.00000000 -0.50000000
v 0.50000000 0.00000000 -0.50000000
v 0.50000000 -0.20000000 -0.50000000
v -0.50000000 -0.20000000 -0.50000000
v -0.50000000 0.00000000 -0.50000000
v -0.18750000 0.00000000 -0.50000000
v -0.13750000 -0.05000000 -0.50000000
v -0.08750000 0.00000000 -0.50000000
v -0.05000000 -0.03750000 -0.50000000
v -0.05000000 -0.10000000 -0.50000000
v 0.05000000 -0.10000000 -0.50000000
v 0.13750000 -0.05000000 -0.50000000
v 0.18750000 0.00000000 -0.50000000
v 0.18750000 -0.00000000 -0.18750000
v 0.50000000 0.00000000 -0.18750000
v 0.50000000 -0.05000000 -0.13750000
v 0.13750000 -0.05000000 -0.13750000
v -0.05000000 -0.10000000 -0.05000000
v -0.05000000 -0.03750000 -0.05000000
v -0.50000000 -0.10000000 -0.05000000
v -0.50000000 -0.03750000 -0.05000000
v -0.08750000 0.00000000 -0.08750000
v -0.50000000 0.00000000 -0.08750000
v -0.50000000 -0.05000000 -0.13750000
v -0.13750000 -0.05000000 -0.13750000
v -0.50000000 0.00000000 -0.18750000
v -0.18750000 -0.00000000 -0.18750000
v -0.50000000 -0.20000000 0.50000000
v -0.50000000 0.00000000 0.50000000
v -0.50000000 0.00000000 0.18750000
v -0.50000000 -0.05000000 0.13750000
v -0.50000000 0.00000000 0.08750000
v -0.50000000 -0.03750000 0.05000000
v -0.50000000 -0.10000000 0.05000000
v 0.50000000 -0.10000000 0.05000000
v 0.50000000 -0.03750000 0.05000000
v 0.50000000 0.00000000 0.08750000
v 0.50000000 -0.05000000 0.13750000
v 0.50000000 0.00000000 0.18750000
v 0.50000000 0.00000000 0.50000000
v 0.50000000 -0.20000000 0.50000000
vt 1.00000000 0.00000000
vt 1.00000000 1.00000000
vt 0.00000000 1.00000000
vt 0.00000000 0.00000000
vt 1.00000000 1.00000000
vt 0.00000000 1.00000000
vt 0.00000000 0.00000000
vt 0.91666667 0.00000000
vt 1.00000000 1.00000000
vt 0.00000000 1.00000000
vt 0.08333333 0.00000000
vt 1.00000000 0.00000000
vt 0.00000000 0.00000000
vt 1.00000000 0.00000000
vt 1.00000000 1.00000000
vt 0.00000000 1.00000000
vt 0.00000000 0.68750000
vt 0.25000000 0.63750000
vt 0.00000000 0.58750000
vt 0.18750000 0.55000000
vt 0.50000000 0.55000000
vt 0.50000000 0.45000000
vt 0.18750000 0.45000000
vt 0.00000000 0.41250000
vt 0.25000000 0.36250000
vt 0.00000000 0.31250000
vt 1.00000000 0.00000000
vt 1.00000000 1.00000000
vt 0.00000000 1.00000000
vt 0.00000000 0.00000000
vt 0.00000000 1.00000000
vt 0.00000000 0.00000000
vt 1.00000000 0.00000000
vt 0.86206897 1.00000000
vt 0.00000000 1.00000000
vt 0.00000000 0.00000000
vt 0.86206897 0.00000000
vt 1.00000000 1.00000000
vt 1.00000000 0.00000000
vt 1.00000000 1.00000000
vt 0.00000000 1.00000000
vt 0.00000000 0.00000000
vt 1.00000000 0.00000000
vt 1.00000000 1.00000000
vt 0.00000000 1.00000000
vt 0.00000000 0.00000000
vt 1.00000000 1.00000000
vt 0.00000000 1.00000000
vt 0.08333333 0.00000000
vt 1.00000000 0.00000000
vt 0.00000000 0.00000000
vt 0.87878788 0.00000000
vt 1.00000000 1.00000000
vt 0.00000000 1.00000000
vt 0.00000000 1.00000000
vt 0.00000000 0.00000000
vt 0.86206897 0.00000000
vt 1.00000000 1.00000000
vt 1.00000000 1.00000000
vt 0.00000000 1.00000000
vt 0.00000000 0.00000000
vt 0.91666667 0.00000000
vt 0.00000000 0.00000000
vt 1.00000000 0.00000000
vt 0.87878788 1.00000000
vt 0.00000000 1.00000000
vt 0.00000000 1.00000000
vt 0.00000000 0.00000000
vt 1.00000000 0.00000000
vt 0.86206897 1.00000000
vt 1.00000000 1.00000000
vt 0.00000000 1.00000000
vt 0.00000000 0.00000000
vt 1.00000000 0.00000000
vt 0.00000000 0.00000000
vt 1.00000000 0.00000000
vt 1.00000000 1.00000000
vt 0.00000000 1.00000000
vt 0.00000000 0.68750000
vt 0.25000000 0.63750000
vt 0.00000000 0.58750000
vt 0.18750000 0.55000000
vt 0.50000000 0.55000000
vt 0.50000000 0.45000000
vt 0.18750000 0.45000000
vt 0.00000000 0.41250000
vt 0.25000000 0.36250000
vt 0.00000000 0.31250000
vt 1.00000000 0.00000000
vt 1.00000000 1.00000000
vt 0.00000000 1.00000000
vt 0.00000000 0.00000000
vt 1.00000000 1.00000000
vt 0.00000000 1.00000000
vt 0.00000000 0.00000000
vt 1.00000000 0.00000000
vt 1.00000000 0.00000000
vt 1.00000000 1.00000000
vt 0.00000000 1.00000000
vt 0.00000000 0.00000000
vt 1.00000000 0.00000000
vt 1.00000000 1.00000000
vt 0.00000000 1.00000000
vt 0.00000000 0.00000000
vt 0.00000000 1.00000000
vt 0.00000000 0.00000000
vt 1.00000000 0.00000000
vt 1.00000000 1.00000000
vt 1.00000000 0.00000000
vt 1.00000000 1.00000000
vt 0.00000000 1.00000000
vt 0.00000000 0.00000000
vt 0.00000000 0.00000000
vt 1.00000000 0.00000000
vt 1.00000000 1.00000000
vt 0.00000000 1.00000000
vt 0.00000000 1.00000000
vt 0.00000000 0.00000000
vt 0.87878788 0.00000000
vt 1.00000000 1.00000000
vt 0.00000000 0.00000000
vt 1.00000000 0.00000000
vt 0.87878788 1.00000000
vt 0.00000000 1.00000000
vt 0.50000000 0.55000000
vt 0.50000000 0.45000000
vt 0.18750000 0.45000000
vt 0.00000000 0.41250000
vt 0.25000000 0.36250000
vt 0.00000000 0.31250000
vt 0.00000000 0.00000000
vt 1.00000000 0.00000000
vt 1.00000000 1.00000000
vt 0.00000000 1.00000000
vt 0.00000000 0.68750000
vt 0.25000000 0.63750000
vt 0.00000000 0.58750000
vt 0.18750000 0.55000000
vt 0.18181818 1.00000000
vt 0.00000000 1.00000000
vt 0.00000000 0.00000000
vt 0.18181818 0.00000000
vt 0.18181818 0.45000000
vt 1.00000000 0.45000000
vt 1.00000000 0.55000000
vt 0.18181818 0.55000000
vt 1.00000000 0.00000000
vt 1.00000000 1.00000000
vt 0.00000000 1.00000000
vt 0.00000000 0.00000000
vn 0.00000000 0.00000000 1.00000000
vn 0.00000000 0.00000000 1.00000000
vn 0.00000000 0.00000000 1.00000000
vn 0.00000000 0.00000000 1.00000000
vn -0.00000000 0.70710678 0.70710678
vn -0.00000000 0.70710678 0.70710678
vn -0.00000000 0.70710678 0.70710678
vn -0.00000000 0.70710678 0.70710678
vn -0.70710678 0.70710678 0.00000000
vn -0.70710678 0.70710678 0.00000000
vn -0.70710678 0.70710678 0.00000000
vn -0.70710678 0.70710678 0.00000000
vn -0.00000000 0.00000000 -1.00000000
vn -0.00000000 0.00000000 -1.00000000
vn -0.00000000 0.00000000 -1.00000000
vn -0.00000000 0.00000000 -1.00000000
vn -0.00000000 0.00000000 -1.00000000
vn -0.00000000 0.00000000 -1.00000000
vn -0.00000000 0.00000000 -1.00000000
vn -0.00000000 0.00000000 -1.00000000
vn -0.00000000 0.00000000 -1.00000000
vn -0.00000000 0.00000000 -1.00000000
vn -0.00000000 0.00000000 -1.00000000
vn -0.00000000 0.00000000 -1.00000000
vn -0.00000000 0.00000000 -1.00000000
vn -0.00000000 0.00000000 -1.00000000
vn 0.00000000 1.00000000 0.00000000
vn 0.00000000 1.00000000 0.00000000
vn 0.00000000 1.00000000 0.00000000
vn 0.00000000 1.00000000 0.00000000
vn 0.00000000 0.70710678 0.70710678
vn 0.00000000 0.70710678 0.70710678
vn 0.00000000 0.70710678 0.70710678
vn 0.00000000 0.70710678 0.70710678
vn -0.70710678 0.70710678 0.00000000
vn -0.70710678 0.70710678 0.00000000
vn -0.70710678 0.70710678 0.00000000
vn -0.70710678 0.70710678 0.00000000
vn 1.00000000 0.00000000 0.00000000
vn 1.00000000 0.00000000 0.00000000
vn 1.00000000 0.00000000 0.00000000
vn 1.00000000 0.00000000 0.00000000
vn 0.00000000 0.00000000 1.00000000
vn 0.00000000 0.00000000 1.00000000
vn 0.00000000 0.00000000 1.00000000
vn 0.00000000 0.00000000 1.00000000
vn 0.00000000 0.70710678 0.70710678
vn 0.00000000 0.70710678 0.70710678
vn 0.00000000 0.70710678 0.70710678
vn 0.00000000 0.70710678 0.70710678
vn 0.00000000 0.70710678 -0.70710678
vn 0.00000000 0.70710678 -0.70710678
vn 0.00000000 0.70710678 -0.70710678
vn 0.00000000 0.70710678 -0.70710678
vn 0.00000000 0.70710678 0.70710678
vn 0.00000000 0.70710678 0.70710678
vn 0.00000000 0.70710678 0.70710678
vn 0.00000000 0.70710678 0.70710678
vn 0.70710678 0.70710678 0.00000000
vn 0.70710678 0.70710678 0.00000000
vn 0.70710678 0.70710678 0.00000000
vn 0.70710678 0.70710678 0.00000000
vn -0.70710678 0.70710678 -0.00000000
vn -0.70710678 0.70710678 -0.00000000
vn -0.70710678 0.70710678 -0.00000000
vn -0.70710678 0.70710678 -0.00000000
vn 0.70710678 0.70710678 0.00000000
vn 0.70710678 0.70710678 0.00000000
vn 0.70710678 0.70710678 0.00000000
vn 0.70710678 0.70710678 0.00000000
vn 0.00000000 1.00000000 0.00000000
vn 0.00000000 1.00000000 0.00000000
vn 0.00000000 1.00000000 0.00000000
vn 0.00000000 1.00000000 0.00000000
vn -1.00000000 0.00000000 0.00000000
vn -1.00000000 0.00000000 0.00000000
vn -1.00000000 0.00000000 0.00000000
vn -1.00000000 0.00000000 0.00000000
vn -1.00000000 0.00000000 0.00000000
vn -1.00000000 0.00000000 0.00000000
vn -1.00000000 0.00000000 0.00000000
vn -1.00000000 0.00000000 0.00000000
vn -1.00000000 0.00000000 0.00000000
vn -1.00000000 0.00000000 0.00000000
vn -1.00000000 0.00000000 0.00000000
vn -1.00000000 0.00000000 0.00000000
vn -1.00000000 0.00000000 0.00000000
vn -1.00000000 0.00000000 0.00000000
vn 0.00000000 0.00000000 -1.00000000
vn 0.00000000 0.00000000 -1.00000000
vn 0.00000000 0.00000000 -1.00000000
vn 0.00000000 0.00000000 -1.00000000
vn 0.00000000 0.70710678 -0.70710678
vn 0.00000000 0.70710678 -0.70710678
vn 0.00000000 0.70710678 -0.70710678
vn 0.00000000 0.70710678 -0.70710678
vn 0.00000000 0.70710678 0.70710678
vn 0.00000000 0.70710678 0.70710678
vn 0.00000000 0.70710678 0.70710678
vn 0.00000000 0.70710678 0.70710678
vn 0.00000000 0.70710678 -0.70710678
vn 0.00000000 0.70710678 -0.70710678
vn 0.00000000 0.70710678 -0.70710678
vn 0.00000000 0.70710678 -0.70710678
vn 0.00000000 1.00000000 0.00000000
vn 0.00000000 1.00000000 0.00000000
vn 0.00000000 1.00000000 0.00000000
vn 0.00000000 1.00000000 0.00000000
vn 0.00000000 0.00000000 1.00000000
vn 0.00000000 0.00000000 1.00000000
vn 0.00000000 0.00000000 1.00000000
vn 0.00000000 0.00000000 1.00000000
vn 0.00000000 -1.00000000 0.00000000
vn 0.00000000 -1.00000000 0.00000000
vn 0.00000000 -1.00000000 0.00000000
vn 0.00000000 -1.00000000 0.00000000
vn 0.70710678 0.70710678 0.00000000
vn 0.70710678 0.70710678 0.00000000
vn 0.70710678 0.70710678 0.00000000
vn 0.70710678 0.70710678 0.00000000
vn 0.00000000 0.70710678 -0.70710678
vn 0.00000000 0.70710678 -0.70710678
vn 0.00000000 0.70710678 -0.70710678
vn 0.00000000 0.70710678 -0.70710678
vn 1.00000000 0.00000000 0.00000000
vn 1.00000000 0.00000000 0.00000000
vn 1.00000000 0.00000000 0.00000000
vn 1.00000000 0.00000000 0.00000000
vn 1.00000000 0.00000000 0.00000000
vn 1.00000000 0.00000000 0.00000000
vn 1.00000000 0.00000000 0.00000000
vn 1.00000000 0.00000000 0.00000000
vn 1.00000000 0.00000000 0.00000000
vn 1.00000000 0.00000000 0.00000000
vn 1.00000000 0.00000000 0.00000000
vn 1.00000000 0.00000000 0.00000000
vn 1.00000000 0.00000000 0.00000000
vn 1.00000000 0.00000000 0.00000000
vn 0.00000000 1.00000000 0.00000000
vn 0.00000000 1.00000000 0.00000000
vn 0.00000000 1.00000000 0.00000000
vn 0.00000000 1.00000000 0.00000000
vn 0.00000000 1.00000000 0.00000000
vn 0.00000000 1.00000000 0.00000000
vn 0.00000000 1.00000000 0.00000000
vn 0.00000000 1.00000000 0.00000000
vn -1.00000000 0.00000000 0.00000000
vn -1.00000000 0.00000000 0.00000000
vn -1.00000000 0.00000000 0.00000000
vn -1.00000000 0.00000000 0.00000000
s 1
usemtl Sandstone_5
f 20/52/52 19/51/51 18/50/50
f 20/52/52 18/50/50 17/49/49
s 2
f 19/53/53 20/54/54 22/56/56
f 20/54/54 21/55/55 22/56/56
s 3
f 23/57/57 19/58/58 22/59/59
f 23/57/57 22/59/59 24/60/60
s 4
usemtl Sandstone_Trim
f 30/66/66 31/67/67 32/68/68
f 27/63/63 30/66/66 33/69/69
f 27/63/63 33/69/69 34/70/70
f 34/70/70 35/73/73 26/62/62
f 36/74/74 25/61/61 26/62/62
f 35/73/73 36/74/74 26/62/62
f 23/71/71 24/72/72 35/73/73
f 34/70/70 23/71/71 35/73/73
f 34/70/70 26/62/62 27/63/63
f 27/63/63 28/64/64 29/65/65
f 27/63/63 29/65/65 30/66/66
f 30/66/66 32/68/68 33/69/69
s 5
usemtl Sandstone_Floor
f 25/75/75 36/76/76 38/78/78
f 36/76/76 37/77/77 38/78/78
s 6
f 37/82/82 40/81/81 39/80/80
f 37/82/82 39/80/80 38/79/79
s 7
f 40/86/86 37/85/85 35/83/83
f 37/85/85 36/84/84 35/83/83
s 8
usemtl Sandstone_5
f 32/90/90 42/89/89 33/87/87
f 42/89/89 41/88/88 33/87/87
s 9
f 42/94/94 44/93/93 41/91/91
f 44/93/93 43/92/92 41/91/91
s 10
f 44/95/95 42/96/96 45/97/97
f 44/95/95 45/97/97 46/98/98
s 11
f 46/102/102 45/101/101 48/100/100
f 46/102/102 48/100/100 47/99/99
s 12
usemtl Sandstone_Floor
f 48/106/106 50/105/105 47/103/103
f 50/105/105 49/104/104 47/103/103
s 13
usemtl Sandstone_5
f 42/107/107 32/108/108 45/110/110
f 32/108/108 31/109/109 45/110/110
s 14
f 30/114/114 48/113/113 31/111/111
f 48/113/113 45/112/112 31/111/111
s 15
usemtl Sandstone_Floor
f 50/118/118 48/117/117 30/116/116
f 50/118/118 30/116/116 29/115/115
s 16
f 28/119/119 49/120/120 50/121/121
f 28/119/119 50/121/121 29/122/122
s 17
usemtl Sandstone_Trim
f 54/128/128 55/129/129 56/130/130
f 51/125/125 54/128/128 57/131/131
f 51/125/125 57/131/131 43/132/132
f 43/132/132 47/135/135 27/124/124
f 49/136/136 28/123/123 27/124/124
f 47/135/135 49/136/136 27/124/124
f 44/133/133 46/134/134 47/135/135
f 43/132/132 44/133/133 47/135/135
f 43/132/132 27/124/124 51/125/125
f 51/125/125 52/126/126 53/127/127
f 51/125/125 53/127/127 54/128/128
f 54/128/128 56/130/130 57/131/131
s 18
usemtl Sandstone_5
f 56/140/140 59/139/139 57/137/137
f 59/139/139 58/138/138 57/137/137
s 19
f 59/141/141 56/142/142 60/144/144
f 56/142/142 55/143/143 60/144/144
s 20
f 61/145/145 60/146/146 54/148/148
f 60/146/146 55/147/147 54/148/148
s 21
usemtl Sandstone_Floor
f 62/149/149 61/150/150 53/152/152
f 61/150/150 54/151/151 53/152/152
s 22
f 52/153/153 63/154/154 62/155/155
f 52/153/153 62/155/155 53/156/156
s 23
usemtl Sandstone_Trim
f 51/157/157 64/158/158 52/160/160
f 64/158/158 63/159/159 52/160/160
s 24
f 51/164/164 27/163/163 26/162/162
f 51/164/164 26/162/162 64/161/161
s 25
usemtl Sandstone_5
f 22/168/168 40/167/167 24/165/165
f 40/167/167 35/166/166 24/165/165
s 26
f 39/172/172 40/171/171 21/169/169
f 40/171/171 22/170/170 21/169/169
s 27
usemtl Sandstone_Trim
f 39/184/184 21/185/185 20/186/186
f 26/181/181 39/184/184 17/173/173
f 17/173/173 58/174/174 26/181/181
f 58/174/174 61/177/177 64/180/180
f 62/178/178 63/179/179 64/180/180
f 61/177/177 62/178/178 64/180/180
f 59/175/175 60/176/176 61/177/177
f 58/174/174 59/175/175 61/177/177
f 58/174/174 64/180/180 26/181/181
f 26/181/181 25/182/182 38/183/183
f 26/181/181 38/183/183 39/184/184
f 39/184/184 20/186/186 17/173/173
s 28
usemtl Sandstone_5
f 58/189/189 17/190/190 18/191/191
f 18/191/191 33/193/193 41/194/194
f 41/194/194 43/187/187 57/188/188
f 18/191/191 34/192/192 33/193/193
f 58/189/189 18/191/191 41/194/194
f 41/194/194 57/188/188 58/189/189
s 29
f 19/198/198 23/197/197 18/195/195
f 23/197/197 34/196/196 18/195/195
