mtllib Materials_Modular_Temple.mtl
o object1
g object1
v -1.45000000 0.00000000 -0.05000000
v -1.50000000 -0.02500000 0.00000000
v -1.00000000 -0.02500000 0.00000000
v -1.05000000 0.00000000 -0.05000000
v -1.45000000 0.00000000 -0.37928932
v -1.50000000 -0.02500000 -0.40000000
v -1.50000000 -0.20000000 0.40000000
v -1.50000000 -0.02500000 0.40000000
v -1.50000000 -0.20000000 -0.40000000
v -1.40000000 -0.20000000 0.50000000
v -1.40000000 -0.02500000 0.50000000
v -1.45000000 0.00000000 0.37928932
v -1.37928932 0.00000000 0.45000000
v -1.45000000 0.00000000 0.05000000
v -1.05000000 0.00000000 0.45000000
v -1.05000000 0.00000000 0.05000000
v -1.00000000 -0.02500000 0.50000000
v -0.95000000 0.00000000 0.45000000
v -0.95000000 0.00000000 0.05000000
v -0.55000000 0.00000000 0.05000000
v -0.50000000 -0.02500000 0.00000000
v -0.95000000 0.00000000 -0.05000000
v -0.55000000 0.00000000 -0.05000000
v -0.95000000 0.00000000 -0.45000000
v -0.55000000 0.00000000 -0.45000000
v -0.50000000 -0.02500000 -0.50000000
v -1.00000000 -0.02500000 -0.50000000
v 0.40000000 -0.20000000 -0.50000000
v 0.40000000 -0.02500000 -0.50000000
v -0.00000000 -0.02500000 -0.50000000
v -1.40000000 -0.02500000 -0.50000000
v -1.40000000 -0.20000000 -0.50000000
v -0.50000000 -0.20000000 -0.50000000
v -0.45000000 0.00000000 -0.45000000
v -0.05000000 0.00000000 -0.45000000
v -0.45000000 0.00000000 -0.05000000
v -0.05000000 0.00000000 -0.05000000
v -0.00000000 -0.02500000 0.00000000
v -0.45000000 0.00000000 0.05000000
v -0.05000000 0.00000000 0.05000000
v -0.50000000 -0.02500000 0.50000000
v -0.45000000 0.00000000 0.45000000
v -0.00000000 -0.02500000 0.50000000
v -0.05000000 0.00000000 0.45000000
v 0.05000000 0.00000000 0.45000000
v 0.05000000 0.00000000 0.05000000
v 0.45000000 0.00000000 0.05000000
v 0.50000000 -0.02500000 0.00000000
v 0.45000000 0.00000000 -0.05000000
v 0.05000000 0.00000000 -0.05000000
v 0.05000000 0.00000000 -0.45000000
v 0.45000000 0.00000000 -0.37928932
v 0.37928932 0.00000000 -0.45000000
v 0.50000000 -0.02500000 -0.40000000
v 0.50000000 -0.20000000 -0.40000000
v 0.50000000 -0.20000000 0.40000000
v 0.50000000 -0.02500000 0.40000000
v 0.40000000 -0.20000000 0.50000000
v 0.40000000 -0.02500000 0.50000000
v 0.37928932 0.00000000 0.45000000
v 0.45000000 0.00000000 0.37928932
v -1.37928932 0.00000000 -0.45000000
v -1.05000000 0.00000000 -0.45000000
v -0.55000000 0.00000000 0.45000000
v -0.50000000 -0.20000000 0.50000000
v -0.50000000 -0.20000000 0.35000000
v -1.35000000 -0.20000000 0.35000000
v -1.35000000 -0.20000000 -0.35000000
v -0.50000000 -0.20000000 -0.35000000
v 0.35000000 -0.20000000 -0.35000000
v 0.35000000 -0.20000000 0.35000000
v 0.25000000 -0.30000000 0.25000000
v 0.25000000 -0.30000000 -0.25000000
v -1.25000000 -0.30000000 0.25000000
v -1.25000000 -0.30000000 -0.25000000
vt 1.00000000 0.00000000
vt 1.00000000 1.00000000
vt 0.00000000 1.00000000
vt 0.11111111 0.00000000
vt 0.87500000 1.00000000
vt 0.05177670 1.00000000
vt 0.00000000 0.00000000
vt 1.00000000 0.00000000
vt 0.00000000 1.00000000
vt 0.00000000 0.00000000
vt 0.50000000 0.00000000
vt 1.00000000 0.00000000
vt 1.00000000 1.00000000
vt 1.00000000 0.00000000
vt 1.00000000 1.00000000
vt 0.00000000 1.00000000
vt 0.00000000 0.00000000
vt 0.85355339 0.00000000
vt 1.00000000 1.00000000
vt 0.00000000 1.00000000
vt 0.14644661 0.00000000
vt 0.00000000 0.00000000
vt 0.82322330 0.00000000
vt 1.00000000 0.17677670
vt 1.00000000 1.00000000
vt 0.00000000 1.00000000
vt 0.88888889 1.00000000
vt 0.00000000 1.00000000
vt 0.00000000 0.00000000
vt 1.00000000 0.00000000
vt 1.00000000 1.00000000
vt 0.00000000 1.00000000
vt 0.00000000 0.00000000
vt 0.88888889 0.00000000
vt 0.00000000 0.90000000
vt 0.00000000 0.10000000
vt 1.00000000 0.00000000
vt 1.00000000 1.00000000
vt 0.00000000 1.00000000
vt 0.00000000 0.00000000
vt 1.00000000 0.10000000
vt 1.00000000 0.90000000
vt 0.00000000 0.00000000
vt 1.00000000 0.00000000
vt 1.00000000 1.00000000
vt 0.00000000 1.00000000
vt 0.10000000 0.00000000
vt 0.90000000 0.00000000
vt 1.00000000 1.00000000
vt 0.00000000 1.00000000
vt 0.00000000 0.00000000
vt 1.00000000 0.00000000
vt 1.00000000 0.22222222
vt 1.00000000 0.50000000
vt 1.00000000 0.77777778
vt 1.00000000 1.00000000
vt 0.00000000 1.00000000
vt 0.00000000 0.50000000
vt 0.00000000 1.00000000
vt 0.10000000 0.00000000
vt 0.90000000 0.00000000
vt 1.00000000 1.00000000
vt 0.11111111 0.00000000
vt 1.00000000 0.00000000
vt 1.00000000 1.00000000
vt 0.00000000 1.00000000
vt 1.00000000 0.10000000
vt 1.00000000 0.90000000
vt 0.00000000 1.00000000
vt 0.00000000 0.00000000
vt 1.00000000 1.00000000
vt 0.00000000 0.90000000
vt 0.00000000 0.10000000
vt 1.00000000 0.00000000
vt 1.00000000 1.00000000
vt 0.00000000 1.00000000
vt 0.00000000 0.00000000
vt 0.88888889 0.00000000
vt 0.10000000 1.00000000
vt 0.00000000 0.00000000
vt 1.00000000 0.00000000
vt 0.90000000 1.00000000
vt 0.88888889 1.00000000
vt 0.00000000 1.00000000
vt 0.00000000 0.00000000
vt 1.00000000 0.00000000
vt 1.00000000 1.00000000
vt 0.00000000 1.00000000
vt 0.00000000 0.00000000
vt 0.88888889 0.00000000
vt 0.88888889 1.00000000
vt 0.00000000 1.00000000
vt 0.00000000 0.00000000
vt 1.00000000 0.00000000
vt 1.00000000 1.00000000
vt 0.00000000 1.00000000
vt 0.00000000 0.00000000
vt 0.88888889 0.00000000
vt 0.11111111 0.00000000
vt 1.00000000 0.00000000
vt 1.00000000 1.00000000
vt 0.00000000 1.00000000
vt 0.17677670 1.00000000
vt 0.00000000 0.82322330
vt 0.00000000 0.00000000
vt 1.00000000 0.00000000
vt 1.00000000 1.00000000
vt 0.85355339 0.00000000
vt 1.00000000 1.00000000
vt 0.00000000 1.00000000
vt 0.14644661 0.00000000
vt 1.00000000 1.00000000
vt 0.00000000 1.00000000
vt 0.05177670 0.00000000
vt 0.87500000 0.00000000
vt 1.00000000 1.00000000
vt 0.00000000 1.00000000
vt 0.00000000 0.00000000
vt 0.50000000 0.00000000
vt 1.00000000 0.00000000
vt 0.00000000 0.00000000
vt 1.00000000 0.00000000
vt 1.00000000 1.00000000
vt 0.00000000 1.00000000
vt 0.85355339 0.00000000
vt 1.00000000 1.00000000
vt 0.00000000 1.00000000
vt 0.14644661 0.00000000
vt 0.12500000 0.00000000
vt 0.94822330 0.00000000
vt 1.00000000 1.00000000
vt 0.00000000 1.00000000
vt 0.82322330 1.00000000
vt 0.00000000 1.00000000
vt 0.00000000 0.00000000
vt 1.00000000 0.00000000
vt 1.00000000 0.82322330
vt 1.00000000 0.00000000
vt 0.94822330 1.00000000
vt 0.12500000 1.00000000
vt 0.00000000 0.00000000
vt 0.00000000 0.00000000
vt 1.00000000 0.00000000
vt 1.00000000 1.00000000
vt 0.00000000 1.00000000
vt 0.00000000 0.00000000
vt 1.00000000 0.00000000
vt 1.00000000 1.00000000
vt 0.11111111 1.00000000
vt 0.00000000 0.00000000
vt 1.00000000 0.00000000
vt 1.00000000 1.00000000
vt 0.00000000 1.00000000
vt 0.05177670 0.00000000
vt 0.87500000 0.00000000
vt 1.00000000 1.00000000
vt 0.00000000 1.00000000
vt 1.00000000 1.00000000
vt 0.00000000 1.00000000
vt 0.00000000 0.00000000
vt 1.00000000 0.00000000
vt 0.94822330 0.00000000
vt 1.00000000 1.00000000
vt 0.00000000 1.00000000
vt 0.12500000 0.00000000
vt 0.00000000 0.00000000
vt 1.00000000 0.00000000
vt 1.00000000 1.00000000
vt 0.11111111 1.00000000
vt 0.11111111 0.00000000
vt 1.00000000 0.00000000
vt 1.00000000 1.00000000
vt 0.00000000 1.00000000
vt 0.88888889 1.00000000
vt 0.00000000 1.00000000
vt 0.00000000 0.00000000
vt 1.00000000 0.00000000
vt 0.00000000 0.00000000
vt 1.00000000 0.00000000
vt 1.00000000 1.00000000
vt 0.00000000 1.00000000
vt 0.10000000 1.00000000
vt 0.00000000 0.00000000
vt 1.00000000 0.00000000
vt 0.90000000 1.00000000
vt 0.05177670 1.00000000
vt 0.00000000 0.00000000
vt 1.00000000 0.00000000
vt 0.87500000 1.00000000
vt 1.00000000 0.77777778
vt 1.00000000 1.00000000
vt 0.00000000 1.00000000
vt 0.00000000 0.00000000
vt 1.00000000 0.00000000
vt 1.00000000 0.22222222
vt 1.00000000 0.50000000
vt 0.00000000 0.50000000
vt 0.85000000 0.50000000
vt 0.85000000 0.07500000
vt 0.15000000 0.07500000
vt 0.15000000 0.50000000
vt 0.00000000 0.50000000
vt 0.00000000 0.05000000
vt 0.10000000 0.00000000
vt 0.90000000 0.00000000
vt 1.00000000 0.05000000
vt 1.00000000 0.50000000
vt 0.15000000 0.92500000
vt 0.85000000 0.92500000
vt 1.00000000 0.95000000
vt 0.90000000 1.00000000
vt 0.10000000 1.00000000
vt 0.00000000 0.95000000
vt 0.00000000 1.00000000
vt 0.14285714 0.00000000
vt 0.85714286 0.00000000
vt 1.00000000 1.00000000
vt 0.00000000 0.00000000
vt 1.00000000 0.00000000
vt 1.00000000 1.00000000
vt 0.00000000 1.00000000
vt 0.00000000 1.00000000
vt 0.05882353 0.00000000
vt 0.94117647 0.00000000
vt 1.00000000 1.00000000
vt 0.50000000 1.00000000
vt 0.14285714 1.00000000
vt 0.00000000 0.00000000
vt 1.00000000 0.00000000
vt 0.85714286 1.00000000
vt 0.05882353 1.00000000
vt 0.00000000 0.00000000
vt 1.00000000 0.00000000
vt 0.94117647 1.00000000
vt 0.50000000 0.00000000
vt 1.00000000 1.00000000
vt 0.00000000 1.00000000
vt 0.00000000 0.00000000
vt 1.00000000 0.00000000
vt 0.00000000 0.00000000
vt 1.00000000 0.00000000
vt 0.94822330 1.00000000
vt 0.12500000 1.00000000
vt 0.85355339 0.00000000
vt 1.00000000 1.00000000
vt 0.00000000 1.00000000
vt 0.14644661 0.00000000
vt 0.17677670 0.00000000
vt 1.00000000 0.00000000
vt 1.00000000 1.00000000
vt 0.00000000 1.00000000
vt 0.00000000 0.17677670
vt 0.00000000 0.00000000
vt 1.00000000 0.00000000
vt 1.00000000 1.00000000
vt 0.11111111 1.00000000
vt 1.00000000 0.00000000
vt 1.00000000 1.00000000
vt 0.11111111 1.00000000
vt 0.00000000 0.00000000
vn 0.00000000 0.89442719 0.44721360
vn 0.00000000 0.89442719 0.44721360
vn 0.00000000 0.89442719 0.44721360
vn 0.00000000 0.89442719 0.44721360
vn -0.44721360 0.89442719 -0.00000000
vn -0.44721360 0.89442719 -0.00000000
vn -0.44721360 0.89442719 -0.00000000
vn -0.44721360 0.89442719 -0.00000000
vn -1.00000000 -0.00000000 -0.00000000
vn -1.00000000 -0.00000000 -0.00000000
vn -1.00000000 -0.00000000 -0.00000000
vn -1.00000000 -0.00000000 -0.00000000
vn -1.00000000 -0.00000000 -0.00000000
vn -0.70710678 0.00000000 0.70710678
vn -0.70710678 0.00000000 0.70710678
vn -0.70710678 0.00000000 0.70710678
vn -0.70710678 0.00000000 0.70710678
vn -0.31622777 0.89442719 0.31622777
vn -0.31622777 0.89442719 0.31622777
vn -0.31622777 0.89442719 0.31622777
vn -0.31622777 0.89442719 0.31622777
vn -0.00000000 1.00000000 -0.00000000
vn -0.00000000 1.00000000 -0.00000000
vn -0.00000000 1.00000000 -0.00000000
vn -0.00000000 1.00000000 -0.00000000
vn -0.00000000 1.00000000 -0.00000000
vn 0.44721360 0.89442719 0.00000000
vn 0.44721360 0.89442719 0.00000000
vn 0.44721360 0.89442719 0.00000000
vn 0.44721360 0.89442719 0.00000000
vn -0.44721360 0.89442719 0.00000000
vn -0.44721360 0.89442719 0.00000000
vn -0.44721360 0.89442719 0.00000000
vn -0.44721360 0.89442719 0.00000000
vn 0.00000000 0.89442719 -0.44721360
vn 0.00000000 0.89442719 -0.44721360
vn 0.00000000 0.89442719 -0.44721360
vn 0.00000000 0.89442719 -0.44721360
vn -0.00000000 0.89442719 0.44721360
vn -0.00000000 0.89442719 0.44721360
vn -0.00000000 0.89442719 0.44721360
vn -0.00000000 1.00000000 -0.00000000
vn -0.00000000 1.00000000 -0.00000000
vn -0.00000000 1.00000000 -0.00000000
vn -0.00000000 1.00000000 -0.00000000
vn -0.00000000 0.89442719 -0.44721360
vn -0.00000000 0.89442719 -0.44721360
vn -0.00000000 0.89442719 -0.44721360
vn -0.00000000 0.89442719 -0.44721360
vn 0.00000000 -0.00000000 -1.00000000
vn 0.00000000 -0.00000000 -1.00000000
vn 0.00000000 -0.00000000 -1.00000000
vn 0.00000000 -0.00000000 -1.00000000
vn 0.00000000 -0.00000000 -1.00000000
vn 0.00000000 -0.00000000 -1.00000000
vn 0.00000000 -0.00000000 -1.00000000
vn 0.00000000 -0.00000000 -1.00000000
vn -0.00000000 0.89442719 -0.44721360
vn -0.00000000 0.89442719 -0.44721360
vn -0.00000000 0.89442719 -0.44721360
vn -0.44721360 0.89442719 0.00000000
vn -0.44721360 0.89442719 0.00000000
vn -0.44721360 0.89442719 0.00000000
vn -0.44721360 0.89442719 0.00000000
vn -0.00000000 0.89442719 0.44721360
vn -0.00000000 0.89442719 0.44721360
vn -0.00000000 0.89442719 0.44721360
vn 0.00000000 0.89442719 -0.44721360
vn 0.00000000 0.89442719 -0.44721360
vn -0.00000000 0.89442719 -0.44721360
vn -0.44721360 0.89442719 0.00000000
vn -0.44721360 0.89442719 0.00000000
vn -0.44721360 0.89442719 0.00000000
vn -0.00000000 0.89442719 0.44721360
vn -0.00000000 0.89442719 0.44721360
vn -0.00000000 0.89442719 0.44721360
vn -0.00000000 0.89442719 0.44721360
vn 0.44721360 0.89442719 0.00000000
vn 0.44721360 0.89442719 0.00000000
vn 0.44721360 0.89442719 0.00000000
vn 0.44721360 0.89442719 0.00000000
vn -0.44721360 0.89442719 0.00000000
vn -0.44721360 0.89442719 0.00000000
vn -0.44721360 0.89442719 0.00000000
vn -0.44721360 0.89442719 0.00000000
vn 0.00000000 0.89442719 -0.44721360
vn 0.00000000 0.89442719 -0.44721360
vn 0.00000000 0.89442719 -0.44721360
vn 0.00000000 0.89442719 0.44721360
vn 0.00000000 0.89442719 0.44721360
vn 0.00000000 0.89442719 0.44721360
vn -0.44721360 0.89442719 0.00000000
vn -0.44721360 0.89442719 0.00000000
vn -0.44721360 0.89442719 0.00000000
vn -0.00000000 1.00000000 -0.00000000
vn -0.00000000 1.00000000 -0.00000000
vn -0.00000000 1.00000000 -0.00000000
vn -0.00000000 1.00000000 -0.00000000
vn -0.00000000 1.00000000 -0.00000000
vn 0.31622777 0.89442719 -0.31622777
vn 0.31622777 0.89442719 -0.31622777
vn 0.31622777 0.89442719 -0.31622777
vn 0.31622777 0.89442719 -0.31622777
vn 0.44721360 0.89442719 -0.00000000
vn 0.44721360 0.89442719 -0.00000000
vn 0.44721360 0.89442719 -0.00000000
vn 0.44721360 0.89442719 -0.00000000
vn 1.00000000 0.00000000 0.00000000
vn 1.00000000 0.00000000 0.00000000
vn 1.00000000 0.00000000 0.00000000
vn 1.00000000 0.00000000 0.00000000
vn 1.00000000 0.00000000 0.00000000
vn 0.70710678 0.00000000 0.70710678
vn 0.70710678 0.00000000 0.70710678
vn 0.70710678 0.00000000 0.70710678
vn 0.70710678 0.00000000 0.70710678
vn 0.31622777 0.89442719 0.31622777
vn 0.31622777 0.89442719 0.31622777
vn 0.31622777 0.89442719 0.31622777
vn 0.31622777 0.89442719 0.31622777
vn 0.44721360 0.89442719 -0.00000000
vn 0.44721360 0.89442719 -0.00000000
vn 0.44721360 0.89442719 -0.00000000
vn -0.00000000 1.00000000 -0.00000000
vn -0.00000000 1.00000000 -0.00000000
vn -0.00000000 1.00000000 -0.00000000
vn -0.00000000 1.00000000 -0.00000000
vn -0.00000000 1.00000000 -0.00000000
vn -0.00000000 0.89442719 0.44721360
vn -0.00000000 0.89442719 0.44721360
vn -0.00000000 0.89442719 0.44721360
vn -0.00000000 1.00000000 -0.00000000
vn -0.00000000 1.00000000 -0.00000000
vn -0.00000000 1.00000000 -0.00000000
vn -0.00000000 1.00000000 -0.00000000
vn 0.44721360 0.89442719 0.00000000
vn 0.44721360 0.89442719 0.00000000
vn 0.44721360 0.89442719 0.00000000
vn -0.00000000 1.00000000 -0.00000000
vn -0.00000000 1.00000000 -0.00000000
vn -0.00000000 1.00000000 -0.00000000
vn -0.00000000 1.00000000 -0.00000000
vn -0.00000000 0.89442719 -0.44721360
vn -0.00000000 0.89442719 -0.44721360
vn -0.00000000 0.89442719 -0.44721360
vn 0.70710678 0.00000000 -0.70710678
vn 0.70710678 -0.00000000 -0.70710678
vn 0.70710678 -0.00000000 -0.70710678
vn 0.70710678 0.00000000 -0.70710678
vn -0.00000000 0.89442719 -0.44721360
vn -0.00000000 0.89442719 -0.44721360
vn -0.00000000 0.89442719 -0.44721360
vn 0.44721360 0.89442719 0.00000000
vn 0.44721360 0.89442719 0.00000000
vn 0.44721360 0.89442719 0.00000000
vn 0.44721360 0.89442719 0.00000000
vn -0.44721360 0.89442719 0.00000000
vn -0.44721360 0.89442719 0.00000000
vn -0.44721360 0.89442719 0.00000000
vn 0.44721360 0.89442719 0.00000000
vn 0.44721360 0.89442719 0.00000000
vn 0.44721360 0.89442719 0.00000000
vn -0.00000000 1.00000000 -0.00000000
vn -0.00000000 1.00000000 -0.00000000
vn -0.00000000 1.00000000 -0.00000000
vn -0.00000000 1.00000000 -0.00000000
vn -0.00000000 0.89442719 0.44721360
vn -0.00000000 0.89442719 0.44721360
vn -0.00000000 0.89442719 0.44721360
vn -0.00000000 0.89442719 0.44721360
vn -0.00000000 0.89442719 0.44721360
vn -0.00000000 0.89442719 0.44721360
vn -0.00000000 0.00000000 1.00000000
vn -0.00000000 0.00000000 1.00000000
vn -0.00000000 0.00000000 1.00000000
vn -0.00000000 0.00000000 1.00000000
vn -0.00000000 0.00000000 1.00000000
vn -0.00000000 0.00000000 1.00000000
vn -0.00000000 0.00000000 1.00000000
vn -0.00000000 0.00000000 1.00000000
vn 0.00000000 -1.00000000 0.00000000
vn 0.00000000 -1.00000000 0.00000000
vn 0.00000000 -1.00000000 0.00000000
vn 0.00000000 -1.00000000 0.00000000
vn 0.00000000 -1.00000000 0.00000000
vn 0.00000000 -1.00000000 0.00000000
vn 0.00000000 -1.00000000 0.00000000
vn 0.00000000 -1.00000000 0.00000000
vn 0.00000000 -1.00000000 0.00000000
vn 0.00000000 -1.00000000 0.00000000
vn 0.00000000 -1.00000000 0.00000000
vn 0.00000000 -1.00000000 0.00000000
vn 0.00000000 -1.00000000 0.00000000
vn 0.00000000 -1.00000000 0.00000000
vn 0.00000000 -1.00000000 0.00000000
vn 0.00000000 -1.00000000 0.00000000
vn 0.70710678 -0.70710678 0.00000000
vn 0.70710678 -0.70710678 0.00000000
vn 0.70710678 -0.70710678 0.00000000
vn 0.70710678 -0.70710678 0.00000000
vn 0.00000000 -1.00000000 0.00000000
vn 0.00000000 -1.00000000 0.00000000
vn 0.00000000 -1.00000000 0.00000000
vn 0.00000000 -1.00000000 0.00000000
vn 0.00000000 -0.70710678 0.70710678
vn 0.00000000 -0.70710678 0.70710678
vn 0.00000000 -0.70710678 0.70710678
vn 0.00000000 -0.70710678 0.70710678
vn 0.00000000 -0.70710678 0.70710678
vn -0.70710678 -0.70710678 0.00000000
vn -0.70710678 -0.70710678 0.00000000
vn -0.70710678 -0.70710678 0.00000000
vn -0.70710678 -0.70710678 0.00000000
vn 0.00000000 -0.70710678 -0.70710678
vn 0.00000000 -0.70710678 -0.70710678
vn 0.00000000 -0.70710678 -0.70710678
vn 0.00000000 -0.70710678 -0.70710678
vn 0.00000000 -0.70710678 -0.70710678
vn -0.70710678 -0.00000000 -0.70710678
vn -0.70710678 -0.00000000 -0.70710678
vn -0.70710678 -0.00000000 -0.70710678
vn -0.70710678 -0.00000000 -0.70710678
vn -0.44721360 0.89442719 -0.00000000
vn -0.44721360 0.89442719 -0.00000000
vn -0.44721360 0.89442719 -0.00000000
vn -0.31622777 0.89442719 -0.31622777
vn -0.31622777 0.89442719 -0.31622777
vn -0.31622777 0.89442719 -0.31622777
vn -0.31622777 0.89442719 -0.31622777
vn -0.00000000 1.00000000 -0.00000000
vn -0.00000000 1.00000000 -0.00000000
vn -0.00000000 1.00000000 -0.00000000
vn -0.00000000 1.00000000 -0.00000000
vn -0.00000000 1.00000000 -0.00000000
vn 0.44721360 0.89442719 0.00000000
vn 0.44721360 0.89442719 0.00000000
vn 0.44721360 0.89442719 0.00000000
vn 0.00000000 0.89442719 -0.44721360
vn 0.00000000 0.89442719 -0.44721360
vn 0.00000000 0.89442719 -0.44721360
s 1
usemtl Sandstone_Trim
f 1/1/1 2/2/2 3/3/3
f 22/41/40 3/40/3 21/39/39
f 21/70/39 37/68/66 36/67/65
f 21/70/39 38/69/67 37/68/66
f 38/95/67 49/97/90 50/98/91
f 38/95/67 48/96/89 49/97/90
f 23/42/41 22/41/40 21/39/39
f 1/1/1 3/3/3 4/4/4
s 2
f 1/5/5 5/6/6 6/7/7
f 1/5/5 6/7/7 2/8/8
f 2/240/8 8/241/223 14/243/225
f 8/241/223 12/242/224 14/243/225
s 3
f 7/9/9 8/10/10 2/11/11
f 2/11/11 6/12/12 9/13/13
f 7/9/9 2/11/11 9/13/13
s 4
f 8/14/14 7/15/15 11/17/17
f 7/15/15 10/16/16 11/17/17
s 5
f 12/18/18 8/19/19 13/21/21
f 8/19/19 11/20/20 13/21/21
s 6
usemtl Sandstone_Floor
f 12/23/23 13/24/24 15/25/25
f 12/23/23 15/25/25 16/26/26
f 16/26/26 14/22/22 12/23/23
s 7
usemtl Sandstone_Trim
f 16/27/27 15/28/28 17/29/29
f 16/27/27 17/29/29 3/30/30
f 3/253/30 27/254/235 4/256/237
f 27/254/235 63/255/236 4/256/237
s 8
f 3/31/31 17/32/32 18/33/33
f 24/171/158 27/172/159 3/173/31
f 22/170/157 24/171/158 3/173/31
f 3/31/31 18/33/33 19/34/34
s 9
f 19/35/35 20/36/36 21/37/37
f 21/71/37 40/73/69 38/74/70
f 46/91/86 48/93/88 38/94/70
f 46/91/86 47/92/87 48/93/88
f 21/71/37 39/72/68 40/73/69
f 19/35/35 21/37/37 3/38/38
f 2/257/238 16/259/240 3/260/38
f 2/257/238 14/258/239 16/259/240
s 10
usemtl Sandstone_Floor
f 24/43/42 22/44/43 23/45/44
f 24/43/42 23/45/44 25/46/45
s 11
usemtl Sandstone_Trim
f 24/47/46 25/48/47 26/49/48
f 26/59/48 35/61/59 30/62/60
f 29/163/151 30/164/60 51/165/152
f 53/162/150 29/163/151 51/165/152
f 26/59/48 34/60/58 35/61/59
f 24/47/46 26/49/48 27/50/49
f 63/155/144 27/156/49 31/157/145
f 62/154/143 63/155/144 31/157/145
s 12
f 32/57/56 31/56/55 27/55/54
f 33/58/57 32/57/56 26/54/53
f 26/54/53 30/53/52 28/51/50
f 30/53/52 29/52/51 28/51/50
f 26/54/53 28/51/50 33/58/57
f 32/57/56 27/55/54 26/54/53
s 13
f 36/63/61 34/64/62 21/66/64
f 21/75/64 42/77/72 39/78/73
f 21/75/64 41/76/71 42/77/72
f 34/64/62 26/65/63 21/66/64
s 14
f 42/79/74 41/80/75 43/81/76
f 59/138/129 45/140/131 43/141/76
f 59/138/129 60/139/130 45/140/131
f 18/182/167 41/184/75 64/185/169
f 18/182/167 17/183/168 41/184/75
f 11/187/171 17/188/168 15/189/172
f 13/186/170 11/187/171 15/189/172
f 42/79/74 43/81/76 44/82/77
s 15
f 40/83/78 44/84/79 43/85/80
f 40/83/78 43/85/80 38/86/81
f 38/146/81 30/147/136 37/149/138
f 30/147/136 35/148/137 37/149/138
s 16
f 38/87/82 43/88/83 45/89/84
f 51/100/93 30/101/94 38/102/82
f 50/99/92 51/100/93 38/102/82
f 38/87/82 45/89/84 46/90/85
s 17
usemtl Sandstone_Floor
f 52/103/95 53/104/96 51/105/97
f 52/103/95 51/105/97 50/106/98
f 50/106/98 49/107/99 52/103/95
s 18
usemtl Sandstone_Trim
f 52/108/100 54/109/101 29/110/102
f 52/108/100 29/110/102 53/111/103
s 19
f 48/112/104 54/113/105 49/115/107
f 54/113/105 52/114/106 49/115/107
f 47/129/121 57/131/123 48/132/104
f 47/129/121 61/130/122 57/131/123
s 20
f 48/119/111 57/118/110 56/117/109
f 48/119/111 56/117/109 55/116/108
f 55/116/108 54/120/112 48/119/111
s 21
f 58/121/113 56/122/114 59/124/116
f 56/122/114 57/123/115 59/124/116
s 22
f 60/125/117 59/126/118 57/127/119
f 60/125/117 57/127/119 61/128/120
s 23
usemtl Sandstone_Floor
f 60/137/128 61/133/124 47/134/125
f 47/134/125 46/135/126 60/137/128
f 46/135/126 45/136/127 60/137/128
s 24
f 39/142/132 42/143/133 44/144/134
f 39/142/132 44/144/134 40/145/135
s 25
f 34/150/139 36/151/140 37/152/141
f 34/150/139 37/152/141 35/153/142
s 26
usemtl Sandstone_Trim
f 29/158/146 54/159/147 28/161/149
f 54/159/147 55/160/148 28/161/149
s 27
f 21/166/153 26/167/154 23/169/156
f 26/167/154 25/168/155 23/169/156
f 20/174/160 41/176/162 21/177/153
f 20/174/160 64/175/161 41/176/162
s 28
usemtl Sandstone_Floor
f 19/178/163 18/179/164 64/180/165
f 19/178/163 64/180/165 20/181/166
s 29
usemtl Sandstone_Trim
f 17/195/178 11/194/177 10/193/176
f 41/196/179 10/193/176 65/197/180
f 41/196/179 65/197/180 58/192/175
f 58/192/175 59/191/174 43/190/173
f 58/192/175 43/190/173 41/196/179
f 41/196/179 17/195/178 10/193/176
s 30
f 33/202/185 69/201/184 68/200/183
f 9/204/187 68/200/183 67/199/182
f 65/207/190 10/206/189 67/199/182
f 58/210/193 65/207/190 71/209/192
f 71/209/192 55/212/195 56/211/194
f 70/208/191 28/213/196 55/212/195
f 71/209/192 70/208/191 55/212/195
f 71/209/192 56/211/194 58/210/193
f 65/207/190 66/198/181 71/209/192
f 10/206/189 7/205/188 67/199/182
f 67/199/182 66/198/181 65/207/190
f 7/205/188 9/204/187 67/199/182
f 9/204/187 32/203/186 68/200/183
f 70/208/191 33/202/185 28/213/196
f 70/208/191 69/201/184 33/202/185
f 32/203/186 33/202/185 68/200/183
s 31
usemtl Sandstone_5
f 71/214/197 72/215/198 73/216/199
f 71/214/197 73/216/199 70/217/200
s 32
f 74/218/201 75/219/202 73/220/203
f 74/218/201 73/220/203 72/221/204
s 33
f 72/224/207 71/225/208 66/226/209
f 66/226/209 67/222/205 74/223/206
f 74/223/206 72/224/207 66/226/209
s 34
f 74/227/210 67/228/211 75/230/213
f 67/228/211 68/229/212 75/230/213
s 35
f 69/235/218 70/233/216 73/234/217
f 75/231/214 69/235/218 73/234/217
f 75/231/214 68/232/215 69/235/218
s 36
usemtl Sandstone_Trim
f 32/236/219 9/237/220 31/239/222
f 9/237/220 6/238/221 31/239/222
s 37
f 62/244/226 31/245/227 5/247/229
f 31/245/227 6/246/228 5/247/229
s 38
usemtl Sandstone_Floor
f 63/251/233 62/252/234 5/248/230
f 5/248/230 1/249/231 4/250/232
f 5/248/230 4/250/232 63/251/233
