mtllib Materials_Modular_Temple.mtl
o object1
g object1
v -0.50000000 0.00000000 0.50000000
v -0.50000000 0.00000000 0.25000000
v -0.50000000 -0.05000000 0.25000000
v -0.50000000 -0.05000000 0.22500000
v -0.50000000 -0.07500000 0.20000000
v -0.50000000 -0.10000000 0.20000000
v -0.50000000 -0.10000000 0.10000000
v -0.50000000 -0.07500000 0.10000000
v -0.50000000 -0.05000000 0.07500000
v -0.50000000 -0.05000000 -0.07500000
v -0.50000000 -0.07500000 -0.10000000
v -0.50000000 -0.10000000 -0.10000000
v -0.50000000 -0.10000000 -0.20000000
v -0.50000000 -0.07500000 -0.20000000
v -0.50000000 -0.05000000 -0.22500000
v -0.50000000 -0.05000000 -0.25000000
v -0.50000000 0.00000000 -0.25000000
v -0.50000000 0.00000000 -0.50000000
v -0.50000000 -0.20000000 -0.50000000
v -0.50000000 -0.20000000 0.50000000
v 0.50000000 0.00000000 0.50000000
v 0.50000000 0.00000000 0.25000000
v 0.50000000 -0.07500000 0.10000000
v 0.50000000 -0.10000000 0.10000000
v 0.50000000 -0.10000000 0.20000000
v 0.50000000 -0.07500000 0.20000000
v 0.50000000 -0.05000000 0.22500000
v 0.50000000 -0.05000000 0.25000000
v 0.50000000 -0.20000000 0.50000000
v 0.50000000 -0.20000000 -0.50000000
v 0.50000000 0.00000000 -0.50000000
v 0.50000000 0.00000000 -0.25000000
v 0.50000000 -0.05000000 -0.25000000
v 0.50000000 -0.05000000 -0.22500000
v 0.50000000 -0.07500000 -0.20000000
v 0.50000000 -0.10000000 -0.20000000
v 0.50000000 -0.10000000 -0.10000000
v 0.50000000 -0.07500000 -0.10000000
v 0.50000000 -0.05000000 -0.07500000
v 0.50000000 -0.05000000 0.07500000
vt 0.00000000 1.00000000
vt 0.00000000 0.75000000
vt 0.25000000 0.75000000
vt 0.25000000 0.72500000
vt 0.37500000 0.70000000
vt 0.50000000 0.70000000
vt 0.50000000 0.60000000
vt 0.37500000 0.60000000
vt 0.25000000 0.57500000
vt 0.25000000 0.42500000
vt 0.37500000 0.40000000
vt 0.50000000 0.40000000
vt 0.50000000 0.30000000
vt 0.37500000 0.30000000
vt 0.25000000 0.27500000
vt 0.25000000 0.25000000
vt 0.00000000 0.25000000
vt 0.00000000 0.00000000
vt 1.00000000 0.00000000
vt 1.00000000 1.00000000
vt 1.00000000 1.00000000
vt 0.00000000 1.00000000
vt 0.00000000 0.00000000
vt 1.00000000 0.00000000
vt 0.37500000 0.40000000
vt 0.50000000 0.40000000
vt 0.50000000 0.30000000
vt 0.37500000 0.30000000
vt 0.25000000 0.27500000
vt 0.25000000 0.25000000
vt 0.00000000 0.25000000
vt 0.00000000 0.00000000
vt 1.00000000 0.00000000
vt 1.00000000 1.00000000
vt 0.00000000 1.00000000
vt 0.00000000 0.75000000
vt 0.25000000 0.75000000
vt 0.25000000 0.72500000
vt 0.37500000 0.70000000
vt 0.50000000 0.70000000
vt 0.50000000 0.60000000
vt 0.37500000 0.60000000
vt 0.25000000 0.57500000
vt 0.25000000 0.42500000
vt 0.00000000 0.00000000
vt 1.00000000 0.00000000
vt 1.00000000 1.00000000
vt 0.00000000 1.00000000
vt 0.00000000 1.00000000
vt 0.00000000 0.00000000
vt 1.00000000 0.00000000
vt 1.00000000 1.00000000
vt 0.00000000 0.00000000
vt 1.00000000 0.00000000
vt 1.00000000 1.00000000
vt 0.00000000 1.00000000
vt 0.00000000 0.00000000
vt 1.00000000 0.00000000
vt 1.00000000 1.00000000
vt 0.00000000 1.00000000
vt 0.00000000 0.00000000
vt 1.00000000 0.00000000
vt 1.00000000 1.00000000
vt 0.00000000 1.00000000
vt 1.00000000 0.00000000
vt 1.00000000 1.00000000
vt 0.00000000 1.00000000
vt 0.00000000 0.00000000
vt 1.00000000 0.00000000
vt 1.00000000 1.00000000
vt 0.00000000 1.00000000
vt 0.00000000 0.00000000
vt 0.00000000 0.00000000
vt 1.00000000 0.00000000
vt 1.00000000 1.00000000
vt 0.00000000 1.00000000
vt 0.00000000 1.00000000
vt 0.00000000 0.00000000
vt 1.00000000 0.00000000
vt 1.00000000 1.00000000
vt 0.00000000 0.00000000
vt 1.00000000 0.00000000
vt 1.00000000 1.00000000
vt 0.00000000 1.00000000
vt 1.00000000 0.00000000
vt 1.00000000 1.00000000
vt 0.00000000 1.00000000
vt 0.00000000 0.00000000
vt 1.00000000 1.00000000
vt 0.00000000 1.00000000
vt 0.00000000 0.00000000
vt 1.00000000 0.00000000
vt 1.00000000 0.00000000
vt 1.00000000 1.00000000
vt 0.00000000 1.00000000
vt 0.00000000 0.00000000
vt 0.00000000 0.00000000
vt 1.00000000 0.00000000
vt 1.00000000 1.00000000
vt 0.00000000 1.00000000
vt 0.00000000 1.00000000
vt 0.00000000 0.00000000
vt 1.00000000 0.00000000
vt 1.00000000 1.00000000
vt 0.00000000 0.00000000
vt 1.00000000 0.00000000
vt 1.00000000 1.00000000
vt 0.00000000 1.00000000
vt 1.00000000 0.00000000
vt 1.00000000 1.00000000
vt 0.00000000 1.00000000
vt 0.00000000 0.00000000
vt 1.00000000 0.00000000
vt 1.00000000 1.00000000
vt 0.00000000 1.00000000
vt 0.00000000 0.00000000
vt 0.00000000 0.00000000
vt 1.00000000 0.00000000
vt 1.00000000 1.00000000
vt 0.00000000 1.00000000
vn -1.00000000 0.00000000 0.00000000
vn -1.00000000 0.00000000 0.00000000
vn -1.00000000 0.00000000 0.00000000
vn -1.00000000 0.00000000 0.00000000
vn -1.00000000 0.00000000 0.00000000
vn -1.00000000 0.00000000 0.00000000
vn -1.00000000 0.00000000 0.00000000
vn -1.00000000 0.00000000 0.00000000
vn -1.00000000 0.00000000 0.00000000
vn -1.00000000 0.00000000 0.00000000
vn -1.00000000 0.00000000 0.00000000
vn -1.00000000 0.00000000 0.00000000
vn -1.00000000 0.00000000 0.00000000
vn -1.00000000 0.00000000 0.00000000
vn -1.00000000 0.00000000 0.00000000
vn -1.00000000 0.00000000 0.00000000
vn -1.00000000 0.00000000 0.00000000
vn -1.00000000 0.00000000 0.00000000
vn -1.00000000 0.00000000 0.00000000
vn -1.00000000 0.00000000 0.00000000
vn 0.00000000 1.00000000 0.00000000
vn 0.00000000 1.00000000 0.00000000
vn 0.00000000 1.00000000 0.00000000
vn 0.00000000 1.00000000 0.00000000
vn 1.00000000 0.00000000 0.00000000
vn 1.00000000 0.00000000 0.00000000
vn 1.00000000 0.00000000 0.00000000
vn 1.00000000 0.00000000 0.00000000
vn 1.00000000 0.00000000 0.00000000
vn 1.00000000 0.00000000 0.00000000
vn 1.00000000 0.00000000 0.00000000
vn 1.00000000 0.00000000 0.00000000
vn 1.00000000 0.00000000 0.00000000
vn 1.00000000 0.00000000 0.00000000
vn 1.00000000 0.00000000 0.00000000
vn 1.00000000 0.00000000 0.00000000
vn 1.00000000 0.00000000 0.00000000
vn 1.00000000 0.00000000 0.00000000
vn 1.00000000 0.00000000 0.00000000
vn 1.00000000 0.00000000 0.00000000
vn 1.00000000 0.00000000 0.00000000
vn 1.00000000 0.00000000 0.00000000
vn 1.00000000 0.00000000 0.00000000
vn 1.00000000 0.00000000 0.00000000
vn 0.00000000 0.00000000 1.00000000
vn 0.00000000 0.00000000 1.00000000
vn 0.00000000 0.00000000 1.00000000
vn 0.00000000 0.00000000 1.00000000
vn 0.00000000 -1.00000000 0.00000000
vn 0.00000000 -1.00000000 0.00000000
vn 0.00000000 -1.00000000 0.00000000
vn 0.00000000 -1.00000000 0.00000000
vn 0.00000000 0.00000000 -1.00000000
vn 0.00000000 0.00000000 -1.00000000
vn 0.00000000 0.00000000 -1.00000000
vn 0.00000000 0.00000000 -1.00000000
vn 0.00000000 1.00000000 0.00000000
vn 0.00000000 1.00000000 0.00000000
vn 0.00000000 1.00000000 0.00000000
vn 0.00000000 1.00000000 0.00000000
vn 0.00000000 0.00000000 1.00000000
vn 0.00000000 0.00000000 1.00000000
vn 0.00000000 0.00000000 1.00000000
vn 0.00000000 0.00000000 1.00000000
vn 0.00000000 1.00000000 0.00000000
vn 0.00000000 1.00000000 0.00000000
vn 0.00000000 1.00000000 0.00000000
vn 0.00000000 1.00000000 0.00000000
vn 0.00000000 0.70710678 0.70710678
vn 0.00000000 0.70710678 0.70710678
vn 0.00000000 0.70710678 0.70710678
vn 0.00000000 0.70710678 0.70710678
vn 0.00000000 0.00000000 1.00000000
vn 0.00000000 0.00000000 1.00000000
vn 0.00000000 0.00000000 1.00000000
vn 0.00000000 0.00000000 1.00000000
vn 0.00000000 1.00000000 0.00000000
vn 0.00000000 1.00000000 0.00000000
vn 0.00000000 1.00000000 0.00000000
vn 0.00000000 1.00000000 0.00000000
vn 0.00000000 0.00000000 -1.00000000
vn 0.00000000 0.00000000 -1.00000000
vn 0.00000000 0.00000000 -1.00000000
vn 0.00000000 0.00000000 -1.00000000
vn 0.00000000 0.70710678 -0.70710678
vn 0.00000000 0.70710678 -0.70710678
vn 0.00000000 0.70710678 -0.70710678
vn 0.00000000 0.70710678 -0.70710678
vn 0.00000000 1.00000000 0.00000000
vn 0.00000000 1.00000000 0.00000000
vn 0.00000000 1.00000000 0.00000000
vn 0.00000000 1.00000000 0.00000000
vn -0.00000000 0.70710678 0.70710678
vn 0.00000000 0.70710678 0.70710678
vn 0.00000000 0.70710678 0.70710678
vn -0.00000000 0.70710678 0.70710678
vn 0.00000000 0.00000000 1.00000000
vn 0.00000000 0.00000000 1.00000000
vn 0.00000000 0.00000000 1.00000000
vn 0.00000000 0.00000000 1.00000000
vn 0.00000000 1.00000000 0.00000000
vn 0.00000000 1.00000000 0.00000000
vn 0.00000000 1.00000000 0.00000000
vn 0.00000000 1.00000000 0.00000000
vn 0.00000000 0.00000000 -1.00000000
vn 0.00000000 0.00000000 -1.00000000
vn 0.00000000 0.00000000 -1.00000000
vn 0.00000000 0.00000000 -1.00000000
vn 0.00000000 0.70710678 -0.70710678
vn -0.00000000 0.70710678 -0.70710678
vn -0.00000000 0.70710678 -0.70710678
vn 0.00000000 0.70710678 -0.70710678
vn 0.00000000 1.00000000 0.00000000
vn 0.00000000 1.00000000 0.00000000
vn 0.00000000 1.00000000 0.00000000
vn 0.00000000 1.00000000 0.00000000
vn 0.00000000 0.00000000 -1.00000000
vn 0.00000000 0.00000000 -1.00000000
vn 0.00000000 0.00000000 -1.00000000
vn 0.00000000 0.00000000 -1.00000000
s 1
usemtl Sandstone_Trim
f 14/14/14 15/15/15 16/16/16
f 13/13/13 16/16/16 19/19/19
f 12/12/12 19/19/19 20/20/20
f 20/20/20 6/6/6 7/7/7
f 7/7/7 9/9/9 10/10/10
f 7/7/7 8/8/8 9/9/9
f 3/3/3 4/4/4 6/6/6
f 1/1/1 2/2/2 3/3/3
f 4/4/4 5/5/5 6/6/6
f 20/20/20 3/3/3 6/6/6
f 20/20/20 1/1/1 3/3/3
f 20/20/20 7/7/7 12/12/12
f 7/7/7 10/10/10 12/12/12
f 10/10/10 11/11/11 12/12/12
f 12/12/12 13/13/13 19/19/19
f 16/16/16 18/18/18 19/19/19
f 16/16/16 17/17/17 18/18/18
f 13/13/13 14/14/14 16/16/16
s 2
usemtl Sandstone_Floor
f 2/21/21 1/22/22 21/23/23
f 2/21/21 21/23/23 22/24/24
s 3
usemtl Sandstone_Trim
f 33/37/37 34/38/38 35/39/39
f 30/34/34 33/37/37 36/40/40
f 29/33/33 30/34/34 37/41/41
f 37/41/41 40/44/44 24/26/26
f 40/44/44 23/25/25 24/26/26
f 37/41/41 39/43/43 40/44/44
f 37/41/41 38/42/42 39/43/43
f 37/41/41 24/26/26 29/33/33
f 24/26/26 25/27/27 29/33/33
f 25/27/27 27/29/29 28/30/30
f 28/30/30 22/31/31 21/32/32
f 25/27/27 26/28/28 27/29/29
f 25/27/27 28/30/30 29/33/33
f 28/30/30 21/32/32 29/33/33
f 30/34/34 36/40/40 37/41/41
f 30/34/34 31/35/35 33/37/37
f 31/35/35 32/36/36 33/37/37
f 33/37/37 35/39/39 36/40/40
s 4
f 1/45/45 20/46/46 21/48/48
f 20/46/46 29/47/47 21/48/48
s 5
f 19/52/52 30/51/51 29/50/50
f 19/52/52 29/50/50 20/49/49
s 6
f 31/53/53 30/54/54 18/56/56
f 30/54/54 19/55/55 18/56/56
s 7
usemtl Sandstone_Floor
f 32/57/57 31/58/58 17/60/60
f 31/58/58 18/59/59 17/60/60
s 8
usemtl Sandstone_Trim
f 33/64/64 32/63/63 16/61/61
f 32/63/63 17/62/62 16/61/61
s 9
usemtl Sandstone_4
f 34/65/65 33/66/66 15/68/68
f 33/66/66 16/67/67 15/68/68
s 10
f 15/69/69 14/70/70 35/71/71
f 15/69/69 35/71/71 34/72/72
s 11
f 14/76/76 13/75/75 35/73/73
f 13/75/75 36/74/74 35/73/73
s 12
usemtl Sandstone_5
f 12/77/77 37/78/78 36/79/79
f 12/77/77 36/79/79 13/80/80
s 13
usemtl Sandstone_4
f 38/84/84 37/83/83 11/81/81
f 37/83/83 12/82/82 11/81/81
s 14
f 11/85/85 10/86/86 39/87/87
f 11/85/85 39/87/87 38/88/88
s 15
f 10/89/89 9/90/90 40/91/91
f 10/89/89 40/91/91 39/92/92
s 16
f 23/93/93 40/94/94 8/96/96
f 40/94/94 9/95/95 8/96/96
s 17
f 8/100/100 7/99/99 23/97/97
f 7/99/99 24/98/98 23/97/97
s 18
usemtl Sandstone_5
f 6/101/101 25/102/102 24/103/103
f 6/101/101 24/103/103 7/104/104
s 19
usemtl Sandstone_4
f 26/108/108 25/107/107 5/105/105
f 25/107/107 6/106/106 5/105/105
s 20
f 27/109/109 26/110/110 4/112/112
f 26/110/110 5/111/111 4/112/112
s 21
f 4/116/116 3/115/115 28/114/114
f 4/116/116 28/114/114 27/113/113
s 22
usemtl Sandstone_Trim
f 3/117/117 2/118/118 28/120/120
f 2/118/118 22/119/119 28/120/120
