mtllib Materials_Modular_Temple.mtl
o object1
g object1
v -0.17500000 -0.02500000 0.25000000
v 0.17500000 -0.02500000 0.25000000
v 0.15428932 0.02500000 0.20000000
v -0.15428932 0.02500000 0.20000000
v 0.17500000 -0.20000000 0.25000000
v -0.17500000 -0.20000000 0.25000000
v 0.25000000 -0.20000000 0.17500000
v 0.25000000 -0.20000000 -0.17500000
v 0.17500000 -0.20000000 -0.25000000
v -0.17500000 -0.20000000 -0.25000000
v -0.25000000 -0.20000000 -0.17500000
v -0.25000000 -0.20000000 0.17500000
v -0.00000000 -0.20000000 0.00000000
v 0.25000000 -0.02500000 0.17500000
v 0.25000000 -0.02500000 -0.17500000
v 0.20000000 0.02500000 -0.15428932
v 0.20000000 0.02500000 0.15428932
v 0.17500000 -0.02500000 -0.25000000
v 0.15428932 0.02500000 -0.20000000
v -0.17500000 -0.02500000 -0.25000000
v -0.15428932 0.02500000 -0.20000000
v -0.25000000 -0.02500000 -0.17500000
v -0.20000000 0.02500000 -0.15428932
v -0.25000000 -0.02500000 0.17500000
v -0.20000000 0.02500000 0.15428932
v -0.00000000 0.02500000 0.00000000
vt 0.00000000 0.00000000
vt 1.00000000 0.00000000
vt 0.94082663 1.00000000
vt 0.05917337 1.00000000
vt 1.00000000 0.00000000
vt 1.00000000 1.00000000
vt 0.00000000 1.00000000
vt 0.00000000 0.00000000
vt 0.00000000 0.85000000
vt 0.00000000 0.15000000
vt 0.15000000 0.00000000
vt 0.85000000 0.00000000
vt 1.00000000 0.15000000
vt 1.00000000 0.85000000
vt 0.85000000 1.00000000
vt 0.15000000 1.00000000
vt 0.50000000 0.50000000
vt 1.00000000 0.00000000
vt 1.00000000 1.00000000
vt 0.00000000 1.00000000
vt 0.00000000 0.00000000
vt 0.00000000 0.00000000
vt 1.00000000 0.00000000
vt 0.94082663 1.00000000
vt 0.05917337 1.00000000
vt 0.00000000 0.00000000
vt 1.00000000 0.00000000
vt 0.80473785 1.00000000
vt 0.19526215 1.00000000
vt 0.00000000 0.00000000
vt 1.00000000 0.00000000
vt 0.94082663 1.00000000
vt 0.05917337 1.00000000
vt 0.00000000 0.00000000
vt 1.00000000 0.00000000
vt 0.80473785 1.00000000
vt 0.19526215 1.00000000
vt 0.00000000 0.00000000
vt 1.00000000 0.00000000
vt 0.94082663 1.00000000
vt 0.05917337 1.00000000
vt 1.00000000 0.00000000
vt 1.00000000 1.00000000
vt 0.00000000 1.00000000
vt 0.00000000 0.00000000
vt 1.00000000 0.00000000
vt 1.00000000 1.00000000
vt 0.00000000 1.00000000
vt 0.00000000 0.00000000
vt 1.00000000 0.00000000
vt 1.00000000 1.00000000
vt 0.00000000 1.00000000
vt 0.00000000 0.00000000
vt 1.00000000 0.00000000
vt 1.00000000 1.00000000
vt 0.00000000 1.00000000
vt 0.00000000 0.00000000
vt 1.00000000 0.00000000
vt 1.00000000 1.00000000
vt 0.00000000 1.00000000
vt 0.00000000 0.00000000
vt 1.00000000 0.00000000
vt 1.00000000 1.00000000
vt 0.00000000 1.00000000
vt 0.00000000 0.00000000
vt 0.00000000 0.00000000
vt 1.00000000 0.00000000
vt 0.80473785 1.00000000
vt 0.19526215 1.00000000
vt 0.00000000 0.88572330
vt 0.00000000 0.11427670
vt 0.11427670 0.00000000
vt 0.88572330 0.00000000
vt 1.00000000 0.11427670
vt 1.00000000 0.88572330
vt 0.88572330 1.00000000
vt 0.11427670 1.00000000
vt 0.50000000 0.50000000
vt 0.00000000 0.00000000
vt 1.00000000 0.00000000
vt 0.80473785 1.00000000
vt 0.19526215 1.00000000
vn 0.00000000 0.70710678 0.70710678
vn 0.00000000 0.70710678 0.70710678
vn 0.00000000 0.70710678 0.70710678
vn 0.00000000 0.70710678 0.70710678
vn 0.00000000 0.00000000 1.00000000
vn 0.00000000 0.00000000 1.00000000
vn 0.00000000 0.00000000 1.00000000
vn 0.00000000 0.00000000 1.00000000
vn 0.00000000 -1.00000000 0.00000000
vn 0.00000000 -1.00000000 0.00000000
vn 0.00000000 -1.00000000 0.00000000
vn 0.00000000 -1.00000000 0.00000000
vn 0.00000000 -1.00000000 0.00000000
vn 0.00000000 -1.00000000 0.00000000
vn 0.00000000 -1.00000000 0.00000000
vn 0.00000000 -1.00000000 0.00000000
vn 0.00000000 -1.00000000 0.00000000
vn 1.00000000 0.00000000 0.00000000
vn 1.00000000 0.00000000 0.00000000
vn 1.00000000 0.00000000 0.00000000
vn 1.00000000 0.00000000 0.00000000
vn 0.70710678 0.70710678 0.00000000
vn 0.70710678 0.70710678 0.00000000
vn 0.70710678 0.70710678 0.00000000
vn 0.70710678 0.70710678 0.00000000
vn 0.50000000 0.70710678 -0.50000000
vn 0.50000000 0.70710678 -0.50000000
vn 0.50000000 0.70710678 -0.50000000
vn 0.50000000 0.70710678 -0.50000000
vn 0.00000000 0.70710678 -0.70710678
vn 0.00000000 0.70710678 -0.70710678
vn 0.00000000 0.70710678 -0.70710678
vn 0.00000000 0.70710678 -0.70710678
vn -0.50000000 0.70710678 -0.50000000
vn -0.50000000 0.70710678 -0.50000000
vn -0.50000000 0.70710678 -0.50000000
vn -0.50000000 0.70710678 -0.50000000
vn -0.70710678 0.70710678 0.00000000
vn -0.70710678 0.70710678 0.00000000
vn -0.70710678 0.70710678 0.00000000
vn -0.70710678 0.70710678 0.00000000
vn 0.70710678 0.00000000 -0.70710678
vn 0.70710678 0.00000000 -0.70710678
vn 0.70710678 0.00000000 -0.70710678
vn 0.70710678 0.00000000 -0.70710678
vn 0.00000000 0.00000000 -1.00000000
vn 0.00000000 0.00000000 -1.00000000
vn 0.00000000 0.00000000 -1.00000000
vn 0.00000000 0.00000000 -1.00000000
vn -0.70710678 0.00000000 -0.70710678
vn -0.70710678 0.00000000 -0.70710678
vn -0.70710678 0.00000000 -0.70710678
vn -0.70710678 0.00000000 -0.70710678
vn -1.00000000 0.00000000 0.00000000
vn -1.00000000 0.00000000 0.00000000
vn -1.00000000 0.00000000 0.00000000
vn -1.00000000 0.00000000 0.00000000
vn -0.70710678 0.00000000 0.70710678
vn -0.70710678 0.00000000 0.70710678
vn -0.70710678 0.00000000 0.70710678
vn -0.70710678 0.00000000 0.70710678
vn 0.70710678 0.00000000 0.70710678
vn 0.70710678 0.00000000 0.70710678
vn 0.70710678 0.00000000 0.70710678
vn 0.70710678 0.00000000 0.70710678
vn -0.50000000 0.70710678 0.50000000
vn -0.50000000 0.70710678 0.50000000
vn -0.50000000 0.70710678 0.50000000
vn -0.50000000 0.70710678 0.50000000
vn 0.00000000 1.00000000 0.00000000
vn 0.00000000 1.00000000 0.00000000
vn 0.00000000 1.00000000 0.00000000
vn 0.00000000 1.00000000 0.00000000
vn 0.00000000 1.00000000 0.00000000
vn 0.00000000 1.00000000 0.00000000
vn 0.00000000 1.00000000 0.00000000
vn 0.00000000 1.00000000 0.00000000
vn 0.00000000 1.00000000 0.00000000
vn 0.50000000 0.70710678 0.50000000
vn 0.50000000 0.70710678 0.50000000
vn 0.50000000 0.70710678 0.50000000
vn 0.50000000 0.70710678 0.50000000
s 1
usemtl Sandstone_5
f 1/1/1 2/2/2 3/3/3
f 1/1/1 3/3/3 4/4/4
s 2
f 6/8/8 5/7/7 1/5/5
f 5/7/7 2/6/6 1/5/5
s 3
f 12/16/16 11/15/15 13/17/17
f 5/10/10 6/9/9 13/17/17
f 7/11/11 5/10/10 13/17/17
f 8/12/12 7/11/11 13/17/17
f 9/13/13 8/12/12 13/17/17
f 10/14/14 9/13/13 13/17/17
f 11/15/15 10/14/14 13/17/17
f 6/9/9 12/16/16 13/17/17
s 4
f 7/21/21 8/20/20 14/18/18
f 8/20/20 15/19/19 14/18/18
s 5
f 14/22/22 15/23/23 17/25/25
f 15/23/23 16/24/24 17/25/25
s 6
f 15/26/26 18/27/27 16/29/29
f 18/27/27 19/28/28 16/29/29
s 7
f 18/30/30 20/31/31 19/33/33
f 20/31/31 21/32/32 19/33/33
s 8
f 20/34/34 22/35/35 23/36/36
f 20/34/34 23/36/36 21/37/37
s 9
f 22/38/38 24/39/39 25/40/40
f 22/38/38 25/40/40 23/41/41
s 10
f 8/45/45 9/44/44 15/42/42
f 9/44/44 18/43/43 15/42/42
s 11
f 9/49/49 10/48/48 18/46/46
f 10/48/48 20/47/47 18/46/46
s 12
f 10/53/53 11/52/52 20/50/50
f 11/52/52 22/51/51 20/50/50
s 13
f 11/57/57 12/56/56 22/54/54
f 12/56/56 24/55/55 22/54/54
s 14
f 12/61/61 6/60/60 24/58/58
f 6/60/60 1/59/59 24/58/58
s 15
f 5/65/65 7/64/64 2/62/62
f 7/64/64 14/63/63 2/62/62
s 16
f 24/66/66 1/67/67 4/68/68
f 24/66/66 4/68/68 25/69/69
s 17
f 4/70/70 3/71/71 26/78/78
f 23/76/76 25/77/77 26/78/78
f 21/75/75 23/76/76 26/78/78
f 19/74/74 21/75/75 26/78/78
f 16/73/73 19/74/74 26/78/78
f 17/72/72 16/73/73 26/78/78
f 3/71/71 17/72/72 26/78/78
f 25/77/77 4/70/70 26/78/78
s 18
f 2/79/79 14/80/80 3/82/82
f 14/80/80 17/81/81 3/82/82
