mtllib Materials_Modular_Temple.mtl
o object1
g object1
v 0.22500000 -0.05000000 -0.50000000
v 0.25000000 -0.05000000 -0.50000000
v 0.25000000 0.00000000 -0.50000000
v 0.50000000 0.00000000 -0.50000000
v 0.50000000 -0.20000000 -0.50000000
v -0.50000000 -0.20000000 -0.50000000
v -0.50000000 0.00000000 -0.50000000
v -0.25000000 0.00000000 -0.50000000
v -0.25000000 -0.05000000 -0.50000000
v -0.22500000 -0.05000000 -0.50000000
v -0.20000000 -0.07500000 -0.50000000
v -0.20000000 -0.10000000 -0.50000000
v -0.10000000 -0.10000000 -0.50000000
v -0.10000000 -0.07500000 -0.50000000
v -0.07500000 -0.05000000 -0.50000000
v 0.07500000 -0.05000000 -0.50000000
v 0.10000000 -0.07500000 -0.50000000
v 0.10000000 -0.10000000 -0.50000000
v 0.20000000 -0.10000000 -0.50000000
v 0.20000000 -0.07500000 -0.50000000
v 0.22500000 -0.05000000 0.22500000
v 0.25000000 -0.05000000 0.25000000
v -0.50000000 -0.05000000 0.25000000
v -0.50000000 -0.05000000 0.22500000
v -0.50000000 0.00000000 0.25000000
v 0.25000000 0.00000000 0.25000000
v 0.20000000 -0.07500000 0.20000000
v -0.50000000 -0.07500000 0.20000000
v 0.20000000 -0.10000000 0.20000000
v -0.50000000 -0.10000000 0.20000000
v 0.20000000 -0.10000000 0.00000000
v 0.10000000 -0.07500000 -0.20000000
v 0.10000000 -0.10000000 -0.20000000
v -0.10000000 -0.07500000 -0.20000000
v -0.10000000 -0.10000000 -0.20000000
v 0.07500000 -0.05000000 -0.22500000
v -0.07500000 -0.05000000 -0.22500000
v 0.10000000 -0.10000000 0.00000000
v 0.10000000 -0.10000000 0.10000000
v -0.10000000 -0.10000000 0.10000000
v -0.10000000 -0.10000000 0.00000000
v -0.20000000 -0.10000000 0.00000000
v -0.20000000 -0.10000000 0.10000000
v -0.50000000 -0.10000000 0.10000000
v -0.10000000 -0.10000000 -0.10000000
v 0.10000000 -0.10000000 -0.10000000
v -0.20000000 -0.10000000 -0.20000000
v -0.50000000 -0.10000000 -0.20000000
v -0.50000000 -0.10000000 -0.10000000
v -0.20000000 -0.10000000 -0.10000000
v 0.10000000 -0.07500000 0.10000000
v 0.10000000 -0.07500000 -0.10000000
v 0.07500000 -0.05000000 -0.07500000
v 0.07500000 -0.05000000 0.07500000
v -0.10000000 -0.07500000 0.10000000
v -0.07500000 -0.05000000 0.07500000
v -0.07500000 -0.05000000 -0.07500000
v -0.10000000 -0.07500000 -0.10000000
v -0.50000000 -0.07500000 0.10000000
v -0.20000000 -0.07500000 0.10000000
v -0.50000000 -0.05000000 0.07500000
v -0.22500000 -0.05000000 0.07500000
v -0.22500000 -0.05000000 -0.07500000
v -0.50000000 -0.05000000 -0.07500000
v -0.50000000 -0.07500000 -0.10000000
v -0.20000000 -0.07500000 -0.10000000
v -0.50000000 -0.07500000 -0.20000000
v -0.20000000 -0.07500000 -0.20000000
v -0.50000000 -0.05000000 -0.22500000
v -0.22500000 -0.05000000 -0.22500000
v -0.25000000 -0.05000000 -0.25000000
v -0.50000000 -0.05000000 -0.25000000
v -0.50000000 0.00000000 -0.25000000
v -0.25000000 0.00000000 -0.25000000
v -0.50000000 -0.20000000 0.50000000
v -0.50000000 0.00000000 0.50000000
v 0.50000000 -0.20000000 0.50000000
v 0.50000000 0.00000000 0.50000000
vt 0.25000000 0.27500000
vt 0.25000000 0.25000000
vt 0.00000000 0.25000000
vt 0.00000000 0.00000000
vt 1.00000000 0.00000000
vt 1.00000000 1.00000000
vt 0.00000000 1.00000000
vt 0.00000000 0.75000000
vt 0.25000000 0.75000000
vt 0.25000000 0.72500000
vt 0.37500000 0.70000000
vt 0.50000000 0.70000000
vt 0.50000000 0.60000000
vt 0.37500000 0.60000000
vt 0.25000000 0.57500000
vt 0.25000000 0.42500000
vt 0.37500000 0.40000000
vt 0.50000000 0.40000000
vt 0.50000000 0.30000000
vt 0.37500000 0.30000000
vt 0.03333333 0.96666667
vt 1.00000000 0.96666667
vt 1.00000000 1.00000000
vt 0.00000000 1.00000000
vt 0.00000000 0.00000000
vt 0.03333333 0.00000000
vt 0.00000000 1.00000000
vt 0.00000000 0.00000000
vt 1.00000000 0.00000000
vt 1.00000000 1.00000000
vt 0.00000000 0.00000000
vt 1.00000000 0.00000000
vt 0.96551724 1.00000000
vt 0.00000000 1.00000000
vt 1.00000000 1.00000000
vt 0.00000000 1.00000000
vt 0.00000000 0.00000000
vt 1.00000000 0.00000000
vt 0.03448276 1.00000000
vt 0.00000000 0.00000000
vt 1.00000000 0.00000000
vt 1.00000000 1.00000000
vt 0.00000000 0.00000000
vt 1.00000000 0.00000000
vt 1.00000000 1.00000000
vt 0.00000000 1.00000000
vt 1.00000000 0.28571429
vt 0.00000000 1.00000000
vt 0.00000000 0.00000000
vt 1.00000000 0.00000000
vt 1.00000000 1.00000000
vt 0.00000000 1.00000000
vt 0.00000000 0.00000000
vt 1.00000000 0.00000000
vt 1.00000000 1.00000000
vt 1.00000000 1.00000000
vt 0.00000000 1.00000000
vt 0.12500000 0.00000000
vt 0.87500000 0.00000000
vt 1.00000000 0.00000000
vt 1.00000000 1.00000000
vt 0.08333333 1.00000000
vt 0.00000000 0.00000000
vt 0.00000000 1.00000000
vt 0.00000000 0.00000000
vt 1.00000000 0.00000000
vt 1.00000000 1.00000000
vt 0.00000000 1.00000000
vt 0.00000000 0.00000000
vt 1.00000000 0.00000000
vt 0.91666667 1.00000000
vt 1.00000000 0.00000000
vt 1.00000000 1.00000000
vt 0.00000000 1.00000000
vt 0.00000000 0.00000000
vt 0.28571429 0.14285714
vt 0.14285714 0.14285714
vt 0.14285714 0.42857143
vt 0.28571429 0.42857143
vt 0.28571429 0.57142857
vt 0.14285714 0.57142857
vt 0.14285714 1.00000000
vt 0.00000000 1.00000000
vt 0.00000000 0.00000000
vt 0.28571429 0.00000000
vt 0.42857143 0.42857143
vt 0.42857143 0.14285714
vt 1.00000000 0.00000000
vt 1.00000000 0.14285714
vt 0.57142857 0.14285714
vt 0.57142857 0.42857143
vt 1.00000000 0.42857143
vt 1.00000000 0.57142857
vt 0.57142857 0.57142857
vt 0.57142857 1.00000000
vt 0.42857143 1.00000000
vt 0.42857143 0.57142857
vt 0.00000000 1.00000000
vt 0.00000000 0.00000000
vt 1.00000000 0.00000000
vt 1.00000000 1.00000000
vt 1.00000000 0.50000000
vt 0.00000000 0.00000000
vt 1.00000000 0.00000000
vt 0.87500000 1.00000000
vt 0.12500000 1.00000000
vt 0.00000000 0.00000000
vt 1.00000000 0.00000000
vt 0.87500000 1.00000000
vt 0.12500000 1.00000000
vt 0.87500000 1.00000000
vt 0.12500000 1.00000000
vt 0.00000000 0.00000000
vt 1.00000000 0.00000000
vt 0.00000000 1.00000000
vt 0.00000000 0.00000000
vt 1.00000000 0.00000000
vt 1.00000000 1.00000000
vt 0.87500000 1.00000000
vt 0.12500000 1.00000000
vt 0.00000000 0.00000000
vt 1.00000000 0.00000000
vt 1.00000000 0.00000000
vt 1.00000000 1.00000000
vt 0.00000000 1.00000000
vt 0.00000000 0.00000000
vt 1.00000000 0.00000000
vt 1.00000000 1.00000000
vt 0.00000000 1.00000000
vt 0.00000000 0.00000000
vt 1.00000000 0.50000000
vt 0.00000000 1.00000000
vt 0.00000000 0.00000000
vt 1.00000000 0.00000000
vt 1.00000000 1.00000000
vt 1.00000000 0.00000000
vt 1.00000000 1.00000000
vt 0.00000000 1.00000000
vt 0.00000000 0.00000000
vt 0.00000000 1.00000000
vt 0.00000000 0.00000000
vt 1.00000000 0.00000000
vt 0.91666667 1.00000000
vt 0.00000000 0.00000000
vt 1.00000000 0.00000000
vt 1.00000000 1.00000000
vt 0.00000000 1.00000000
vt 1.00000000 0.00000000
vt 1.00000000 1.00000000
vt 0.08333333 1.00000000
vt 0.00000000 0.00000000
vt 1.00000000 1.00000000
vt 0.00000000 1.00000000
vt 0.12500000 0.00000000
vt 0.87500000 0.00000000
vt 0.00000000 1.00000000
vt 0.00000000 0.00000000
vt 1.00000000 0.00000000
vt 1.00000000 1.00000000
vt 1.00000000 0.50000000
vt 0.00000000 1.00000000
vt 0.00000000 0.00000000
vt 1.00000000 0.00000000
vt 1.00000000 1.00000000
vt 1.00000000 0.00000000
vt 1.00000000 1.00000000
vt 0.00000000 1.00000000
vt 0.00000000 0.00000000
vt 1.00000000 0.00000000
vt 1.00000000 1.00000000
vt 0.00000000 1.00000000
vt 0.08333333 0.00000000
vt 0.00000000 1.00000000
vt 0.00000000 0.00000000
vt 1.00000000 0.00000000
vt 1.00000000 1.00000000
vt 0.00000000 1.00000000
vt 0.00000000 0.00000000
vt 0.91666667 0.00000000
vt 1.00000000 1.00000000
vt 0.00000000 1.00000000
vt 0.00000000 0.00000000
vt 1.00000000 0.00000000
vt 1.00000000 0.09090909
vt 0.09090909 0.09090909
vt 0.09090909 1.00000000
vt 0.00000000 1.00000000
vt 0.00000000 0.00000000
vt 1.00000000 0.00000000
vt 1.00000000 1.00000000
vt 0.00000000 1.00000000
vt 0.00000000 0.00000000
vt 1.00000000 0.00000000
vt 1.00000000 1.00000000
vt 1.00000000 0.00000000
vt 1.00000000 1.00000000
vt 0.00000000 1.00000000
vt 0.00000000 0.00000000
vt 0.25000000 0.25000000
vt 0.00000000 0.25000000
vt 0.00000000 0.00000000
vt 1.00000000 0.00000000
vt 1.00000000 1.00000000
vt 0.00000000 1.00000000
vt 0.00000000 0.75000000
vt 0.25000000 0.75000000
vt 0.25000000 0.72500000
vt 0.37500000 0.70000000
vt 0.50000000 0.70000000
vt 0.50000000 0.60000000
vt 0.37500000 0.60000000
vt 0.25000000 0.57500000
vt 0.25000000 0.42500000
vt 0.37500000 0.40000000
vt 0.50000000 0.40000000
vt 0.50000000 0.30000000
vt 0.37500000 0.30000000
vt 0.25000000 0.27500000
vt 0.00000000 0.00000000
vt 1.00000000 0.00000000
vt 1.00000000 1.00000000
vt 0.00000000 1.00000000
vt 0.00000000 1.00000000
vt 0.00000000 0.00000000
vt 1.00000000 0.00000000
vt 1.00000000 1.00000000
vt 1.00000000 0.00000000
vt 1.00000000 1.00000000
vt 0.00000000 1.00000000
vt 0.00000000 0.00000000
vt 1.00000000 0.25000000
vt 0.25000000 0.25000000
vt 0.25000000 1.00000000
vt 0.00000000 1.00000000
vt 0.00000000 0.00000000
vt 1.00000000 0.00000000
vt 0.00000000 0.00000000
vt 1.00000000 0.00000000
vt 1.00000000 1.00000000
vt 0.00000000 1.00000000
vn 0.00000000 0.00000000 -1.00000000
vn 0.00000000 0.00000000 -1.00000000
vn 0.00000000 0.00000000 -1.00000000
vn 0.00000000 0.00000000 -1.00000000
vn 0.00000000 0.00000000 -1.00000000
vn 0.00000000 0.00000000 -1.00000000
vn 0.00000000 0.00000000 -1.00000000
vn 0.00000000 0.00000000 -1.00000000
vn 0.00000000 0.00000000 -1.00000000
vn 0.00000000 0.00000000 -1.00000000
vn 0.00000000 0.00000000 -1.00000000
vn 0.00000000 0.00000000 -1.00000000
vn 0.00000000 0.00000000 -1.00000000
vn 0.00000000 0.00000000 -1.00000000
vn 0.00000000 0.00000000 -1.00000000
vn 0.00000000 0.00000000 -1.00000000
vn 0.00000000 0.00000000 -1.00000000
vn 0.00000000 0.00000000 -1.00000000
vn 0.00000000 0.00000000 -1.00000000
vn 0.00000000 0.00000000 -1.00000000
vn 0.00000000 1.00000000 0.00000000
vn 0.00000000 1.00000000 0.00000000
vn 0.00000000 1.00000000 0.00000000
vn 0.00000000 1.00000000 0.00000000
vn 0.00000000 1.00000000 0.00000000
vn 0.00000000 1.00000000 0.00000000
vn 0.00000000 0.00000000 -1.00000000
vn 0.00000000 0.00000000 -1.00000000
vn 0.00000000 0.00000000 -1.00000000
vn 0.00000000 0.00000000 -1.00000000
vn 0.00000000 0.70710678 -0.70710678
vn 0.00000000 0.70710678 -0.70710678
vn -0.00000000 0.70710678 -0.70710678
vn -0.00000000 0.70710678 -0.70710678
vn 0.00000000 0.00000000 -1.00000000
vn 0.00000000 0.00000000 -1.00000000
vn 0.00000000 0.00000000 -1.00000000
vn 0.00000000 0.00000000 -1.00000000
vn -0.70710678 0.70710678 0.00000000
vn -0.70710678 0.70710678 0.00000000
vn -0.70710678 0.70710678 0.00000000
vn -0.70710678 0.70710678 0.00000000
vn -1.00000000 0.00000000 0.00000000
vn -1.00000000 0.00000000 0.00000000
vn -1.00000000 0.00000000 0.00000000
vn -1.00000000 0.00000000 0.00000000
vn -1.00000000 0.00000000 0.00000000
vn 1.00000000 0.00000000 0.00000000
vn 1.00000000 0.00000000 0.00000000
vn 1.00000000 0.00000000 0.00000000
vn 1.00000000 0.00000000 0.00000000
vn 0.00000000 0.00000000 1.00000000
vn 0.00000000 0.00000000 1.00000000
vn 0.00000000 0.00000000 1.00000000
vn 0.00000000 0.00000000 1.00000000
vn -0.00000000 0.70710678 0.70710678
vn -0.00000000 0.70710678 0.70710678
vn 0.00000000 0.70710678 0.70710678
vn 0.00000000 0.70710678 0.70710678
vn 0.70710678 0.70710678 0.00000000
vn 0.70710678 0.70710678 0.00000000
vn 0.70710678 0.70710678 0.00000000
vn 0.70710678 0.70710678 0.00000000
vn 0.00000000 1.00000000 0.00000000
vn 0.00000000 1.00000000 0.00000000
vn 0.00000000 1.00000000 0.00000000
vn 0.00000000 1.00000000 0.00000000
vn -0.70710678 0.70710678 0.00000000
vn -0.70710678 0.70710678 0.00000000
vn -0.70710678 0.70710678 0.00000000
vn -0.70710678 0.70710678 0.00000000
vn -1.00000000 0.00000000 0.00000000
vn -1.00000000 0.00000000 0.00000000
vn -1.00000000 0.00000000 0.00000000
vn -1.00000000 0.00000000 0.00000000
vn 0.00000000 1.00000000 0.00000000
vn 0.00000000 1.00000000 0.00000000
vn 0.00000000 1.00000000 0.00000000
vn 0.00000000 1.00000000 0.00000000
vn 0.00000000 1.00000000 0.00000000
vn 0.00000000 1.00000000 0.00000000
vn 0.00000000 1.00000000 0.00000000
vn 0.00000000 1.00000000 0.00000000
vn 0.00000000 1.00000000 0.00000000
vn 0.00000000 1.00000000 0.00000000
vn 0.00000000 1.00000000 0.00000000
vn 0.00000000 1.00000000 0.00000000
vn 0.00000000 1.00000000 0.00000000
vn 0.00000000 1.00000000 0.00000000
vn 0.00000000 1.00000000 0.00000000
vn 0.00000000 1.00000000 0.00000000
vn 0.00000000 1.00000000 0.00000000
vn 0.00000000 1.00000000 0.00000000
vn 0.00000000 1.00000000 0.00000000
vn 0.00000000 1.00000000 0.00000000
vn 0.00000000 1.00000000 0.00000000
vn 0.00000000 1.00000000 0.00000000
vn 1.00000000 0.00000000 0.00000000
vn 1.00000000 0.00000000 0.00000000
vn 1.00000000 0.00000000 0.00000000
vn 1.00000000 0.00000000 0.00000000
vn 1.00000000 0.00000000 0.00000000
vn 0.70710678 0.70710678 -0.00000000
vn 0.70710678 0.70710678 -0.00000000
vn 0.70710678 0.70710678 0.00000000
vn 0.70710678 0.70710678 0.00000000
vn 0.00000000 0.70710678 0.70710678
vn 0.00000000 0.70710678 0.70710678
vn 0.00000000 0.70710678 0.70710678
vn 0.00000000 0.70710678 0.70710678
vn -0.70710678 0.70710678 0.00000000
vn -0.70710678 0.70710678 0.00000000
vn -0.70710678 0.70710678 0.00000000
vn -0.70710678 0.70710678 0.00000000
vn 0.00000000 1.00000000 0.00000000
vn 0.00000000 1.00000000 0.00000000
vn 0.00000000 1.00000000 0.00000000
vn 0.00000000 1.00000000 0.00000000
vn 0.00000000 0.70710678 -0.70710678
vn 0.00000000 0.70710678 -0.70710678
vn 0.00000000 0.70710678 -0.70710678
vn 0.00000000 0.70710678 -0.70710678
vn 0.00000000 0.00000000 -1.00000000
vn 0.00000000 0.00000000 -1.00000000
vn 0.00000000 0.00000000 -1.00000000
vn 0.00000000 0.00000000 -1.00000000
vn -1.00000000 0.00000000 0.00000000
vn -1.00000000 0.00000000 0.00000000
vn -1.00000000 0.00000000 0.00000000
vn -1.00000000 0.00000000 0.00000000
vn -1.00000000 0.00000000 0.00000000
vn 0.00000000 0.00000000 1.00000000
vn 0.00000000 0.00000000 1.00000000
vn 0.00000000 0.00000000 1.00000000
vn 0.00000000 0.00000000 1.00000000
vn 0.00000000 0.00000000 1.00000000
vn 0.00000000 0.00000000 1.00000000
vn 0.00000000 0.00000000 1.00000000
vn 0.00000000 0.00000000 1.00000000
vn 0.00000000 0.70710678 0.70710678
vn 0.00000000 0.70710678 0.70710678
vn 0.00000000 0.70710678 0.70710678
vn 0.00000000 0.70710678 0.70710678
vn 0.00000000 1.00000000 0.00000000
vn 0.00000000 1.00000000 0.00000000
vn 0.00000000 1.00000000 0.00000000
vn 0.00000000 1.00000000 0.00000000
vn 0.00000000 0.70710678 -0.70710678
vn 0.00000000 0.70710678 -0.70710678
vn 0.00000000 0.70710678 -0.70710678
vn 0.00000000 0.70710678 -0.70710678
vn 0.70710678 0.70710678 0.00000000
vn 0.70710678 0.70710678 0.00000000
vn 0.70710678 0.70710678 0.00000000
vn 0.70710678 0.70710678 0.00000000
vn 1.00000000 0.00000000 0.00000000
vn 1.00000000 0.00000000 0.00000000
vn 1.00000000 0.00000000 0.00000000
vn 1.00000000 0.00000000 0.00000000
vn 1.00000000 0.00000000 0.00000000
vn 0.00000000 0.00000000 -1.00000000
vn 0.00000000 0.00000000 -1.00000000
vn 0.00000000 0.00000000 -1.00000000
vn 0.00000000 0.00000000 -1.00000000
vn 0.00000000 0.00000000 1.00000000
vn 0.00000000 0.00000000 1.00000000
vn 0.00000000 0.00000000 1.00000000
vn 0.00000000 0.00000000 1.00000000
vn 0.00000000 0.70710678 0.70710678
vn 0.00000000 0.70710678 0.70710678
vn 0.00000000 0.70710678 0.70710678
vn 0.00000000 0.70710678 0.70710678
vn 1.00000000 0.00000000 0.00000000
vn 1.00000000 0.00000000 0.00000000
vn 1.00000000 0.00000000 0.00000000
vn 1.00000000 0.00000000 0.00000000
vn 0.70710678 0.70710678 0.00000000
vn 0.70710678 0.70710678 0.00000000
vn 0.70710678 0.70710678 0.00000000
vn 0.70710678 0.70710678 0.00000000
vn 0.00000000 1.00000000 0.00000000
vn 0.00000000 1.00000000 0.00000000
vn 0.00000000 1.00000000 0.00000000
vn 0.00000000 1.00000000 0.00000000
vn 0.00000000 1.00000000 0.00000000
vn 0.00000000 1.00000000 0.00000000
vn 0.00000000 0.00000000 1.00000000
vn 0.00000000 0.00000000 1.00000000
vn 0.00000000 0.00000000 1.00000000
vn 0.00000000 0.00000000 1.00000000
vn 1.00000000 0.00000000 0.00000000
vn 1.00000000 0.00000000 0.00000000
vn 1.00000000 0.00000000 0.00000000
vn 1.00000000 0.00000000 0.00000000
vn 0.00000000 1.00000000 0.00000000
vn 0.00000000 1.00000000 0.00000000
vn 0.00000000 1.00000000 0.00000000
vn 0.00000000 1.00000000 0.00000000
vn -1.00000000 0.00000000 0.00000000
vn -1.00000000 0.00000000 0.00000000
vn -1.00000000 0.00000000 0.00000000
vn -1.00000000 0.00000000 0.00000000
vn -1.00000000 0.00000000 0.00000000
vn -1.00000000 0.00000000 0.00000000
vn -1.00000000 0.00000000 0.00000000
vn -1.00000000 0.00000000 0.00000000
vn -1.00000000 0.00000000 0.00000000
vn -1.00000000 0.00000000 0.00000000
vn -1.00000000 0.00000000 0.00000000
vn -1.00000000 0.00000000 0.00000000
vn -1.00000000 0.00000000 0.00000000
vn -1.00000000 0.00000000 0.00000000
vn -1.00000000 0.00000000 0.00000000
vn -1.00000000 0.00000000 0.00000000
vn -1.00000000 0.00000000 0.00000000
vn -1.00000000 0.00000000 0.00000000
vn -1.00000000 0.00000000 0.00000000
vn -1.00000000 0.00000000 0.00000000
vn 0.00000000 0.00000000 1.00000000
vn 0.00000000 0.00000000 1.00000000
vn 0.00000000 0.00000000 1.00000000
vn 0.00000000 0.00000000 1.00000000
vn 0.00000000 -1.00000000 0.00000000
vn 0.00000000 -1.00000000 0.00000000
vn 0.00000000 -1.00000000 0.00000000
vn 0.00000000 -1.00000000 0.00000000
vn 1.00000000 0.00000000 0.00000000
vn 1.00000000 0.00000000 0.00000000
vn 1.00000000 0.00000000 0.00000000
vn 1.00000000 0.00000000 0.00000000
vn 0.00000000 1.00000000 0.00000000
vn 0.00000000 1.00000000 0.00000000
vn 0.00000000 1.00000000 0.00000000
vn 0.00000000 1.00000000 0.00000000
vn 0.00000000 1.00000000 0.00000000
vn 0.00000000 1.00000000 0.00000000
vn -1.00000000 0.00000000 0.00000000
vn -1.00000000 0.00000000 0.00000000
vn -1.00000000 0.00000000 0.00000000
vn -1.00000000 0.00000000 0.00000000
s 1
usemtl Sandstone_Trim
f 13/13/13 14/14/14 15/15/15
f 6/6/6 13/13/13 18/18/18
f 18/18/18 19/19/19 5/5/5
f 2/2/2 4/4/4 5/5/5
f 2/2/2 3/3/3 4/4/4
f 19/19/19 2/2/2 5/5/5
f 19/19/19 1/1/1 2/2/2
f 19/19/19 20/20/20 1/1/1
f 16/16/16 17/17/17 18/18/18
f 5/5/5 6/6/6 18/18/18
f 6/6/6 9/9/9 12/12/12
f 10/10/10 11/11/11 12/12/12
f 7/7/7 8/8/8 9/9/9
f 9/9/9 10/10/10 12/12/12
f 6/6/6 7/7/7 9/9/9
f 6/6/6 12/12/12 13/13/13
f 13/13/13 16/16/16 18/18/18
f 13/13/13 15/15/15 16/16/16
s 2
usemtl Sandstone_4
f 21/21/21 24/26/26 23/25/25
f 22/24/24 2/23/23 21/21/21
f 21/21/21 23/25/25 22/24/24
f 2/23/23 1/22/22 21/21/21
s 3
usemtl Sandstone_Trim
f 22/27/27 23/28/28 26/30/30
f 23/28/28 25/29/29 26/30/30
s 4
usemtl Sandstone_4
f 24/31/31 21/32/32 27/33/33
f 24/31/31 27/33/33 28/34/34
s 5
f 30/38/38 28/37/37 29/35/35
f 28/37/37 27/36/36 29/35/35
s 6
f 27/39/39 21/40/40 1/41/41
f 27/39/39 1/41/41 20/42/42
s 7
f 31/47/47 29/44/44 27/43/43
f 20/46/46 31/47/47 27/43/43
f 20/46/46 19/45/45 31/47/47
s 8
f 33/51/51 18/50/50 17/49/49
f 33/51/51 17/49/49 32/48/48
s 9
f 35/55/55 33/54/54 34/52/52
f 33/54/54 32/53/53 34/52/52
s 10
f 34/56/56 32/57/57 36/58/58
f 34/56/56 36/58/58 37/59/59
s 11
f 17/60/60 16/61/61 36/62/62
f 17/60/60 36/62/62 32/63/63
s 12
f 37/64/64 36/65/65 16/66/66
f 37/64/64 16/66/66 15/67/67
s 13
f 15/68/68 14/69/69 37/71/71
f 14/69/69 34/70/70 37/71/71
s 14
f 34/75/75 14/74/74 35/72/72
f 14/74/74 13/73/73 35/72/72
s 15
usemtl Sandstone_5
f 40/78/78 41/79/79 42/80/80
f 50/97/97 41/79/79 45/86/86
f 47/94/94 45/86/86 46/87/87
f 46/87/87 33/90/90 35/91/91
f 35/91/91 13/92/92 12/93/93
f 31/85/85 19/88/88 33/90/90
f 29/84/84 31/85/85 39/77/77
f 31/85/85 38/76/76 39/77/77
f 19/88/88 18/89/89 33/90/90
f 46/87/87 31/85/85 33/90/90
f 46/87/87 38/76/76 31/85/85
f 46/87/87 35/91/91 47/94/94
f 35/91/91 12/93/93 47/94/94
f 47/94/94 48/95/95 49/96/96
f 47/94/94 50/97/97 45/86/86
f 47/94/94 49/96/96 50/97/97
f 50/97/97 42/80/80 41/79/79
f 40/78/78 43/81/81 30/83/83
f 43/81/81 44/82/82 30/83/83
f 30/83/83 29/84/84 40/78/78
f 29/84/84 39/77/77 40/78/78
f 40/78/78 42/80/80 43/81/81
s 16
usemtl Sandstone_4
f 51/98/98 39/101/101 38/102/102
f 38/102/102 46/100/100 52/99/99
f 38/102/102 52/99/99 51/98/98
s 17
f 51/103/103 52/104/104 54/106/106
f 52/104/104 53/105/105 54/106/106
s 18
f 55/107/107 51/108/108 54/109/109
f 55/107/107 54/109/109 56/110/110
s 19
f 56/111/111 57/112/112 55/114/114
f 57/112/112 58/113/113 55/114/114
s 20
f 56/115/115 54/116/116 53/117/117
f 56/115/115 53/117/117 57/118/118
s 21
f 57/119/119 53/120/120 52/121/121
f 57/119/119 52/121/121 58/122/122
s 22
f 58/126/126 52/125/125 45/123/123
f 52/125/125 46/124/124 45/123/123
s 23
f 58/129/129 45/128/128 41/131/131
f 41/131/131 40/127/127 55/130/130
f 55/130/130 58/129/129 41/131/131
s 24
f 40/135/135 39/134/134 55/132/132
f 39/134/134 51/133/133 55/132/132
s 25
f 60/139/139 59/138/138 43/136/136
f 59/138/138 44/137/137 43/136/136
s 26
f 61/140/140 59/141/141 62/143/143
f 59/141/141 60/142/142 62/143/143
s 27
f 62/144/144 63/145/145 61/147/147
f 63/145/145 64/146/146 61/147/147
s 28
f 65/148/148 64/149/149 63/150/150
f 65/148/148 63/150/150 66/151/151
s 29
f 60/152/152 66/153/153 62/155/155
f 66/153/153 63/154/154 62/155/155
s 30
f 42/160/160 50/158/158 66/157/157
f 42/160/160 66/157/157 60/156/156
f 60/156/156 43/159/159 42/160/160
s 31
f 50/164/164 49/163/163 66/161/161
f 49/163/163 65/162/162 66/161/161
s 32
f 68/168/168 67/167/167 47/165/165
f 67/167/167 48/166/166 47/165/165
s 33
f 69/169/169 67/170/170 70/172/172
f 67/170/170 68/171/171 70/172/172
s 34
f 47/176/176 12/175/175 11/174/174
f 47/176/176 11/174/174 68/173/173
s 35
f 11/177/177 10/178/178 70/179/179
f 11/177/177 70/179/179 68/180/180
s 36
f 71/185/185 72/186/186 69/181/181
f 70/182/182 10/183/183 71/185/185
f 71/185/185 69/181/181 70/182/182
f 10/183/183 9/184/184 71/185/185
s 37
usemtl Sandstone_Trim
f 74/190/190 73/189/189 71/187/187
f 73/189/189 72/188/188 71/187/187
s 38
f 71/191/191 9/192/192 74/194/194
f 9/192/192 8/193/193 74/194/194
s 39
usemtl Sandstone_Floor
f 8/195/195 7/196/196 74/198/198
f 7/196/196 73/197/197 74/198/198
s 40
usemtl Sandstone_Trim
f 24/207/207 28/208/208 30/209/209
f 75/203/203 30/209/209 44/210/210
f 44/210/210 64/213/213 49/215/215
f 49/215/215 48/216/216 6/202/202
f 72/199/199 7/201/201 6/202/202
f 72/199/199 73/200/200 7/201/201
f 48/216/216 72/199/199 6/202/202
f 48/216/216 69/218/218 72/199/199
f 48/216/216 67/217/217 69/218/218
f 64/213/213 65/214/214 49/215/215
f 44/210/210 61/212/212 64/213/213
f 44/210/210 59/211/211 61/212/212
f 6/202/202 75/203/203 49/215/215
f 75/203/203 44/210/210 49/215/215
f 75/203/203 76/204/204 23/206/206
f 76/204/204 25/205/205 23/206/206
f 75/203/203 23/206/206 30/209/209
f 23/206/206 24/207/207 30/209/209
s 41
f 76/219/219 75/220/220 78/222/222
f 75/220/220 77/221/221 78/222/222
s 42
f 6/226/226 5/225/225 77/224/224
f 6/226/226 77/224/224 75/223/223
s 43
f 77/227/227 5/228/228 78/230/230
f 5/228/228 4/229/229 78/230/230
s 44
usemtl Sandstone_Floor
f 26/232/232 25/233/233 76/234/234
f 26/232/232 78/235/235 4/236/236
f 26/232/232 76/234/234 78/235/235
f 4/236/236 3/231/231 26/232/232
s 45
usemtl Sandstone_Trim
f 22/240/240 26/239/239 2/237/237
f 26/239/239 3/238/238 2/237/237
