mtllib Materials_Modular_Temple.mtl
o object1
g object1
v 0.00000000 0.45000000 0.45000000
v -0.50000000 0.45000000 0.45000000
v -0.50000000 0.45000000 0.50000000
v 0.00000000 0.45000000 0.50000000
v 0.03535534 0.53535534 0.50000000
v 0.05000000 0.50000000 0.50000000
v 0.03535534 0.46464466 0.50000000
v -0.50000000 0.55000000 0.50000000
v 0.00000000 0.55000000 0.50000000
v -0.50000000 0.55000000 0.45000000
v 0.00000000 0.55000000 0.45000000
v 0.03535534 0.53535534 0.45000000
v 0.05000000 0.50000000 0.45000000
v 0.03535534 0.46464466 0.45000000
vt 1.00000000 0.00000000
vt 1.00000000 1.00000000
vt 0.00000000 1.00000000
vt 0.00000000 0.00000000
vt 0.14644661 0.02662666
vt 0.50000000 0.00000000
vt 0.85355339 0.02662666
vt 1.00000000 0.09090909
vt 1.00000000 1.00000000
vt 0.00000000 1.00000000
vt 0.00000000 0.09090909
vt 1.00000000 0.00000000
vt 1.00000000 1.00000000
vt 0.00000000 1.00000000
vt 0.00000000 0.00000000
vt 1.00000000 0.00000000
vt 1.00000000 1.00000000
vt 0.00000000 1.00000000
vt 0.00000000 0.00000000
vt 1.00000000 0.00000000
vt 1.00000000 1.00000000
vt 0.00000000 1.00000000
vt 0.00000000 0.00000000
vt 1.00000000 0.00000000
vt 1.00000000 1.00000000
vt 0.00000000 1.00000000
vt 0.00000000 0.00000000
vt 1.00000000 0.00000000
vt 1.00000000 1.00000000
vt 0.00000000 1.00000000
vt 0.00000000 0.00000000
vt 0.14644661 0.02662666
vt 0.50000000 0.00000000
vt 0.85355339 0.02662666
vt 1.00000000 0.09090909
vt 1.00000000 1.00000000
vt 0.00000000 1.00000000
vt 0.00000000 0.09090909
vt 1.00000000 0.00000000
vt 1.00000000 1.00000000
vt 0.00000000 1.00000000
vt 0.00000000 0.00000000
vn 0.00000000 -1.00000000 0.00000000
vn 0.00000000 -1.00000000 0.00000000
vn 0.00000000 -1.00000000 0.00000000
vn 0.00000000 -1.00000000 0.00000000
vn 0.00000000 0.00000000 1.00000000
vn 0.00000000 0.00000000 1.00000000
vn 0.00000000 0.00000000 1.00000000
vn 0.00000000 0.00000000 1.00000000
vn 0.00000000 0.00000000 1.00000000
vn 0.00000000 0.00000000 1.00000000
vn 0.00000000 0.00000000 1.00000000
vn 0.00000000 1.00000000 0.00000000
vn 0.00000000 1.00000000 0.00000000
vn 0.00000000 1.00000000 0.00000000
vn 0.00000000 1.00000000 0.00000000
vn 0.38268343 0.92387953 0.00000000
vn 0.38268343 0.92387953 0.00000000
vn 0.38268343 0.92387953 0.00000000
vn 0.38268343 0.92387953 0.00000000
vn 0.92387953 0.38268343 0.00000000
vn 0.92387953 0.38268343 0.00000000
vn 0.92387953 0.38268343 0.00000000
vn 0.92387953 0.38268343 0.00000000
vn 0.92387953 -0.38268343 0.00000000
vn 0.92387953 -0.38268343 0.00000000
vn 0.92387953 -0.38268343 0.00000000
vn 0.92387953 -0.38268343 0.00000000
vn 0.38268343 -0.92387953 0.00000000
vn 0.38268343 -0.92387953 0.00000000
vn 0.38268343 -0.92387953 0.00000000
vn 0.38268343 -0.92387953 0.00000000
vn 0.00000000 0.00000000 -1.00000000
vn 0.00000000 0.00000000 -1.00000000
vn 0.00000000 0.00000000 -1.00000000
vn 0.00000000 0.00000000 -1.00000000
vn 0.00000000 0.00000000 -1.00000000
vn 0.00000000 0.00000000 -1.00000000
vn 0.00000000 0.00000000 -1.00000000
vn -1.00000000 0.00000000 0.00000000
vn -1.00000000 0.00000000 0.00000000
vn -1.00000000 0.00000000 0.00000000
vn -1.00000000 0.00000000 0.00000000
s 1
usemtl Green_Stone_-_Dark
f 4/4/4 3/3/3 1/1/1
f 3/3/3 2/2/2 1/1/1
s 2
f 7/7/7 6/6/6 5/5/5
f 4/8/8 7/7/7 9/11/11
f 9/11/11 8/10/10 3/9/9
f 3/9/9 4/8/8 9/11/11
f 7/7/7 5/5/5 9/11/11
s 3
f 8/15/15 9/14/14 11/13/13
f 8/15/15 11/13/13 10/12/12
s 4
f 9/19/19 5/18/18 12/17/17
f 9/19/19 12/17/17 11/16/16
s 5
f 5/23/23 6/22/22 13/21/21
f 5/23/23 13/21/21 12/20/20
s 6
f 6/27/27 7/26/26 13/24/24
f 7/26/26 14/25/25 13/24/24
s 7
f 7/31/31 4/30/30 14/28/28
f 4/30/30 1/29/29 14/28/28
s 8
f 12/32/32 13/33/33 14/34/34
f 11/38/38 14/34/34 1/35/35
f 1/35/35 2/36/36 10/37/37
f 10/37/37 11/38/38 1/35/35
f 11/38/38 12/32/32 14/34/34
s 9
f 3/42/42 8/41/41 2/39/39
f 8/41/41 10/40/40 2/39/39
o object2
g object2
v 0.03535534 0.53535534 0.43750000
v 0.00000000 0.55000000 0.43750000
v 0.00745921 0.58750000 0.40000000
v 0.06405660 0.56405660 0.40000000
v 0.00000000 0.55000000 0.50000000
v 0.03535534 0.53535534 0.50000000
v -0.50000000 0.55000000 0.50000000
v -0.50000000 0.55000000 0.43750000
v -0.50000000 0.45000000 0.50000000
v -0.50000000 0.45000000 0.43750000
v -0.50000000 0.41250000 0.40000000
v -0.50000000 0.36250000 0.45000000
v -0.50000000 0.31250000 0.40000000
v -0.50000000 0.00000000 0.40000000
v -0.50000000 0.00000000 0.60000000
v -0.50000000 1.00000000 0.60000000
v -0.50000000 1.00000000 0.40000000
v -0.50000000 0.68750000 0.40000000
v -0.50000000 0.63750000 0.45000000
v -0.50000000 0.58750000 0.40000000
v 0.00745921 0.63750000 0.45000000
v 0.00745921 0.68750000 0.40000000
v 0.13476727 0.63476727 0.40000000
v 0.09941194 0.59941194 0.45000000
v 0.14058971 0.50000000 0.45000000
v 0.19058971 0.50000000 0.40000000
v 0.13476727 0.36523273 0.40000000
v 0.09941194 0.40058806 0.45000000
v 0.00745921 0.36250000 0.45000000
v 0.00745921 0.31250000 0.40000000
v 0.00745921 0.41250000 0.40000000
v 0.06405660 0.43594340 0.40000000
v 0.00000000 0.45000000 0.43750000
v 0.03535534 0.46464466 0.43750000
v 0.03535534 0.46464466 0.50000000
v 0.00000000 0.45000000 0.50000000
v 0.05000000 0.50000000 0.50000000
v 0.05000000 0.50000000 0.43750000
v 0.09058971 0.50000000 0.40000000
v 0.50000000 1.00000000 0.60000000
v 0.50000000 1.00000000 0.40000000
v 0.50000000 0.00000000 0.60000000
v 0.50000000 0.00000000 0.40000000
vt 0.74644360 1.00000000
vt 0.12176208 1.00000000
vt 0.00000000 0.00000000
vt 1.00000000 0.00000000
vt 1.00000000 0.00000000
vt 1.00000000 1.00000000
vt 0.00000000 1.00000000
vt 0.00000000 0.00000000
vt 1.00000000 0.00000000
vt 1.00000000 1.00000000
vt 0.00000000 1.00000000
vt 0.00000000 0.00000000
vt 0.50000000 0.55000000
vt 0.50000000 0.45000000
vt 0.18750000 0.45000000
vt 0.00000000 0.41250000
vt 0.25000000 0.36250000
vt 0.00000000 0.31250000
vt 0.00000000 0.00000000
vt 1.00000000 0.00000000
vt 1.00000000 1.00000000
vt 0.00000000 1.00000000
vt 0.00000000 0.68750000
vt 0.25000000 0.63750000
vt 0.00000000 0.58750000
vt 0.18750000 0.55000000
vt 1.00000000 0.00000000
vt 1.00000000 1.00000000
vt 0.00000000 1.00000000
vt 0.00000000 0.00000000
vt 1.00000000 0.00000000
vt 1.00000000 1.00000000
vt 0.00000000 1.00000000
vt 0.00000000 0.00000000
vt 0.00000000 1.00000000
vt 0.00000000 0.00000000
vt 1.00000000 0.00000000
vt 1.00000000 1.00000000
vt 1.00000000 0.00000000
vt 1.00000000 1.00000000
vt 0.00000000 1.00000000
vt 0.00000000 0.00000000
vt 1.00000000 0.00000000
vt 1.00000000 1.00000000
vt 0.00000000 1.00000000
vt 0.00000000 0.00000000
vt 0.00000000 1.00000000
vt 0.00000000 0.00000000
vt 1.00000000 0.00000000
vt 1.00000000 1.00000000
vt 0.00000000 1.00000000
vt 0.00000000 0.00000000
vt 1.00000000 0.00000000
vt 1.00000000 1.00000000
vt 0.87823792 1.00000000
vt 0.25355640 1.00000000
vt 0.00000000 0.00000000
vt 1.00000000 0.00000000
vt 1.00000000 0.00000000
vt 1.00000000 1.00000000
vt 0.00000000 1.00000000
vt 0.00000000 0.00000000
vt 1.00000000 0.00000000
vt 1.00000000 1.00000000
vt 0.00000000 1.00000000
vt 0.00000000 0.00000000
vt 0.77596954 1.00000000
vt 0.22403046 1.00000000
vt 0.00000000 0.00000000
vt 1.00000000 0.00000000
vt 1.00000000 0.00000000
vt 1.00000000 1.00000000
vt 0.00000000 1.00000000
vt 0.00000000 0.00000000
vt 1.00000000 0.00000000
vt 1.00000000 1.00000000
vt 0.00000000 1.00000000
vt 0.00000000 0.00000000
vt 1.00000000 0.00000000
vt 1.00000000 1.00000000
vt 0.00000000 1.00000000
vt 0.00000000 0.00000000
vt 1.00000000 0.00000000
vt 1.00000000 1.00000000
vt 0.00000000 1.00000000
vt 0.00000000 0.00000000
vt 0.00000000 0.00000000
vt 1.00000000 0.00000000
vt 1.00000000 1.00000000
vt 0.00000000 1.00000000
vt 1.00000000 0.00000000
vt 1.00000000 1.00000000
vt 0.00000000 1.00000000
vt 0.00000000 0.00000000
vt 0.31250000 1.00000000
vt 0.00000000 1.00000000
vt 0.00000000 0.00000000
vt 1.00000000 0.00000000
vt 1.00000000 1.00000000
vt 0.68750000 1.00000000
vt 0.68750000 0.49254079
vt 0.63476727 0.36523273
vt 0.50000000 0.30941029
vt 0.36523273 0.36523273
vt 0.31250000 0.49254079
vt 1.00000000 0.00000000
vt 1.00000000 1.00000000
vt 0.00000000 1.00000000
vt 0.00000000 0.00000000
vt 1.00000000 0.00000000
vt 1.00000000 1.00000000
vt 0.00000000 1.00000000
vt 0.00000000 0.00000000
vt 1.00000000 1.00000000
vt 0.01469914 1.00000000
vt 0.00000000 0.00000000
vt 1.00000000 0.00000000
vt 1.00000000 0.00000000
vt 1.00000000 1.00000000
vt 0.00000000 1.00000000
vt 0.00000000 0.00000000
vt 0.14644661 0.02662666
vt 0.50000000 0.00000000
vt 0.85355339 0.02662666
vt 1.00000000 0.09090909
vt 1.00000000 1.00000000
vt 0.00000000 1.00000000
vt 0.00000000 0.09090909
vt 1.00000000 0.00000000
vt 1.00000000 1.00000000
vt 0.00000000 1.00000000
vt 0.00000000 0.00000000
vt 0.77596954 1.00000000
vt 0.22403046 1.00000000
vt 0.00000000 0.00000000
vt 1.00000000 0.00000000
vt 0.00000000 1.00000000
vt 0.00000000 0.00000000
vt 1.00000000 0.00000000
vt 1.00000000 1.00000000
vt 0.98530086 1.00000000
vt 0.00000000 1.00000000
vt 0.00000000 0.00000000
vt 1.00000000 0.00000000
vn -0.27059805 -0.65328148 -0.70710678
vn -0.27059805 -0.65328148 -0.70710678
vn -0.27059805 -0.65328148 -0.70710678
vn -0.27059805 -0.65328148 -0.70710678
vn -0.38268343 -0.92387953 0.00000000
vn -0.38268343 -0.92387953 0.00000000
vn -0.38268343 -0.92387953 0.00000000
vn -0.38268343 -0.92387953 0.00000000
vn -0.00000000 -1.00000000 0.00000000
vn -0.00000000 -1.00000000 0.00000000
vn -0.00000000 -1.00000000 0.00000000
vn -0.00000000 -1.00000000 0.00000000
vn -1.00000000 0.00000000 0.00000000
vn -1.00000000 0.00000000 0.00000000
vn -1.00000000 0.00000000 0.00000000
vn -1.00000000 0.00000000 0.00000000
vn -1.00000000 0.00000000 0.00000000
vn -1.00000000 0.00000000 0.00000000
vn -1.00000000 0.00000000 0.00000000
vn -1.00000000 0.00000000 0.00000000
vn -1.00000000 0.00000000 0.00000000
vn -1.00000000 0.00000000 0.00000000
vn -1.00000000 0.00000000 0.00000000
vn -1.00000000 0.00000000 0.00000000
vn -1.00000000 0.00000000 0.00000000
vn -1.00000000 0.00000000 0.00000000
vn -0.00000000 0.70710678 -0.70710678
vn -0.00000000 0.70710678 -0.70710678
vn -0.00000000 0.70710678 -0.70710678
vn -0.00000000 0.70710678 -0.70710678
vn 0.00000000 -0.70710678 -0.70710678
vn 0.00000000 -0.70710678 -0.70710678
vn 0.00000000 -0.70710678 -0.70710678
vn 0.00000000 -0.70710678 -0.70710678
vn -0.28108464 -0.67859834 -0.67859834
vn -0.28108464 -0.67859834 -0.67859834
vn -0.28108464 -0.67859834 -0.67859834
vn -0.28108464 -0.67859834 -0.67859834
vn -0.67859834 -0.28108464 -0.67859834
vn -0.67859834 -0.28108464 -0.67859834
vn -0.67859834 -0.28108464 -0.67859834
vn -0.67859834 -0.28108464 -0.67859834
vn -0.67859834 0.28108464 -0.67859834
vn -0.67859834 0.28108464 -0.67859834
vn -0.67859834 0.28108464 -0.67859834
vn -0.67859834 0.28108464 -0.67859834
vn -0.28108464 0.67859834 -0.67859834
vn -0.28108464 0.67859834 -0.67859834
vn -0.28108464 0.67859834 -0.67859834
vn -0.28108464 0.67859834 -0.67859834
vn 0.28108464 -0.67859834 -0.67859834
vn 0.28108464 -0.67859834 -0.67859834
vn 0.28108464 -0.67859834 -0.67859834
vn 0.28108464 -0.67859834 -0.67859834
vn -0.27059805 0.65328148 -0.70710678
vn -0.27059805 0.65328148 -0.70710678
vn -0.27059805 0.65328148 -0.70710678
vn -0.27059805 0.65328148 -0.70710678
vn -0.38268343 0.92387953 0.00000000
vn -0.38268343 0.92387953 0.00000000
vn -0.38268343 0.92387953 0.00000000
vn -0.38268343 0.92387953 0.00000000
vn -0.92387953 0.38268343 0.00000000
vn -0.92387953 0.38268343 0.00000000
vn -0.92387953 0.38268343 0.00000000
vn -0.92387953 0.38268343 0.00000000
vn -0.65328148 0.27059805 -0.70710678
vn -0.65328148 0.27059805 -0.70710678
vn -0.65328148 0.27059805 -0.70710678
vn -0.65328148 0.27059805 -0.70710678
vn 0.67859834 -0.28108464 -0.67859834
vn 0.67859834 -0.28108464 -0.67859834
vn 0.67859834 -0.28108464 -0.67859834
vn 0.67859834 -0.28108464 -0.67859834
vn 0.67859834 0.28108464 -0.67859834
vn 0.67859834 0.28108464 -0.67859834
vn 0.67859834 0.28108464 -0.67859834
vn 0.67859834 0.28108464 -0.67859834
vn 0.00000000 1.00000000 0.00000000
vn 0.00000000 1.00000000 0.00000000
vn 0.00000000 1.00000000 0.00000000
vn 0.00000000 1.00000000 0.00000000
vn 1.00000000 0.00000000 0.00000000
vn 1.00000000 0.00000000 0.00000000
vn 1.00000000 0.00000000 0.00000000
vn 1.00000000 0.00000000 0.00000000
vn 0.00000000 -0.00000000 1.00000000
vn 0.00000000 -0.00000000 1.00000000
vn 0.00000000 -0.00000000 1.00000000
vn 0.00000000 -0.00000000 1.00000000
vn -0.00000000 -1.00000000 0.00000000
vn -0.00000000 -1.00000000 0.00000000
vn -0.00000000 -1.00000000 0.00000000
vn -0.00000000 -1.00000000 0.00000000
vn 0.00000000 0.00000000 -1.00000000
vn 0.00000000 0.00000000 -1.00000000
vn 0.00000000 0.00000000 -1.00000000
vn 0.00000000 0.00000000 -1.00000000
vn 0.00000000 0.00000000 -1.00000000
vn 0.00000000 0.00000000 -1.00000000
vn 0.00000000 0.00000000 -1.00000000
vn 0.00000000 0.00000000 -1.00000000
vn 0.00000000 0.00000000 -1.00000000
vn 0.00000000 0.00000000 -1.00000000
vn 0.00000000 0.00000000 -1.00000000
vn 0.00000000 0.70710678 -0.70710678
vn 0.00000000 0.70710678 -0.70710678
vn 0.00000000 0.70710678 -0.70710678
vn 0.00000000 0.70710678 -0.70710678
vn -0.00000000 -0.70710678 -0.70710678
vn -0.00000000 -0.70710678 -0.70710678
vn -0.00000000 -0.70710678 -0.70710678
vn -0.00000000 -0.70710678 -0.70710678
vn 0.00000000 0.70710678 -0.70710678
vn 0.00000000 0.70710678 -0.70710678
vn 0.00000000 0.70710678 -0.70710678
vn 0.00000000 0.70710678 -0.70710678
vn 0.00000000 1.00000000 0.00000000
vn 0.00000000 1.00000000 0.00000000
vn 0.00000000 1.00000000 0.00000000
vn 0.00000000 1.00000000 0.00000000
vn 0.00000000 0.00000000 -1.00000000
vn 0.00000000 0.00000000 -1.00000000
vn 0.00000000 0.00000000 -1.00000000
vn 0.00000000 0.00000000 -1.00000000
vn 0.00000000 0.00000000 -1.00000000
vn 0.00000000 0.00000000 -1.00000000
vn 0.00000000 0.00000000 -1.00000000
vn -0.92387953 -0.38268343 0.00000000
vn -0.92387953 -0.38268343 0.00000000
vn -0.92387953 -0.38268343 0.00000000
vn -0.92387953 -0.38268343 0.00000000
vn -0.65328148 -0.27059805 -0.70710678
vn -0.65328148 -0.27059805 -0.70710678
vn -0.65328148 -0.27059805 -0.70710678
vn -0.65328148 -0.27059805 -0.70710678
vn 0.28108464 0.67859834 -0.67859834
vn 0.28108464 0.67859834 -0.67859834
vn 0.28108464 0.67859834 -0.67859834
vn 0.28108464 0.67859834 -0.67859834
vn -0.00000000 -0.70710678 -0.70710678
vn -0.00000000 -0.70710678 -0.70710678
vn -0.00000000 -0.70710678 -0.70710678
vn -0.00000000 -0.70710678 -0.70710678
s 1
usemtl Sandstone_5
f 15/43/43 16/44/44 17/45/45
f 15/43/43 17/45/45 18/46/46
s 2
f 16/50/50 15/49/49 20/48/48
f 16/50/50 20/48/48 19/47/47
s 3
f 22/54/54 16/53/53 19/52/52
f 22/54/54 19/52/52 21/51/51
s 4
usemtl Sandstone_Trim
f 24/57/57 25/58/58 26/59/59
f 23/56/56 26/59/59 29/62/62
f 27/60/60 28/61/61 29/62/62
f 21/55/55 23/56/56 30/63/63
f 30/63/63 32/65/65 33/66/66
f 33/66/66 34/67/67 22/68/68
f 30/63/63 31/64/64 32/65/65
f 30/63/63 33/66/66 21/55/55
f 33/66/66 22/68/68 21/55/55
f 23/56/56 29/62/62 30/63/63
f 26/59/59 27/60/60 29/62/62
f 23/56/56 24/57/57 26/59/59
s 5
usemtl Sandstone_5
f 35/69/69 17/70/70 33/72/72
f 17/70/70 34/71/71 33/72/72
s 6
usemtl Sandstone_Trim
f 36/73/73 35/74/74 32/76/76
f 35/74/74 33/75/75 32/76/76
s 7
f 35/77/77 36/78/78 37/79/79
f 35/77/77 37/79/79 38/80/80
s 8
f 40/84/84 39/83/83 37/81/81
f 39/83/83 38/82/82 37/81/81
s 9
f 41/85/85 42/86/86 39/87/87
f 41/85/85 39/87/87 40/88/88
s 10
f 42/92/92 41/91/91 43/89/89
f 41/91/91 44/90/90 43/89/89
s 11
usemtl Sandstone_5
f 46/96/96 42/95/95 45/93/93
f 42/95/95 43/94/94 45/93/93
s 12
f 47/97/97 48/98/98 45/100/100
f 48/98/98 46/99/99 45/100/100
s 13
f 48/104/104 47/103/103 49/101/101
f 47/103/103 50/102/102 49/101/101
s 14
f 52/108/108 48/107/107 51/105/105
f 48/107/107 49/106/106 51/105/105
s 15
f 48/109/109 52/110/110 53/111/111
f 48/109/109 53/111/111 46/112/112
s 16
f 42/113/113 46/114/114 53/115/115
f 42/113/113 53/115/115 39/116/116
s 17
f 39/120/120 53/119/119 38/117/117
f 53/119/119 18/118/118 38/117/117
s 18
usemtl Sandstone_Trim
f 30/121/121 54/122/122 55/123/123
f 30/121/121 55/123/123 31/124/124
s 19
f 54/125/125 56/126/126 55/128/128
f 56/126/126 57/127/127 55/128/128
s 20
f 30/132/132 29/131/131 56/130/130
f 30/132/132 56/130/130 54/129/129
s 21
f 56/133/133 29/134/134 57/136/136
f 29/134/134 28/135/135 57/136/136
s 22
f 36/147/147 32/137/137 31/138/138
f 37/146/146 36/147/147 55/139/139
f 40/145/145 55/139/139 57/140/140
f 57/140/140 28/141/141 44/143/143
f 28/141/141 27/142/142 44/143/143
f 44/143/143 41/144/144 57/140/140
f 41/144/144 40/145/145 57/140/140
f 40/145/145 37/146/146 55/139/139
f 36/147/147 31/138/138 55/139/139
s 23
f 27/151/151 26/150/150 43/149/149
f 27/151/151 43/149/149 44/148/148
s 24
usemtl Sandstone_5
f 26/155/155 25/154/154 45/153/153
f 26/155/155 45/153/153 43/152/152
s 25
f 24/156/156 47/157/157 25/159/159
f 47/157/157 45/158/158 25/159/159
s 26
f 47/163/163 24/162/162 50/160/160
f 24/162/162 23/161/161 50/160/160
s 27
f 20/164/164 51/165/165 49/166/166
f 19/170/170 49/166/166 50/167/167
f 23/168/168 21/169/169 19/170/170
f 19/170/170 50/167/167 23/168/168
f 19/170/170 20/164/164 49/166/166
s 28
f 15/174/174 52/173/173 51/172/172
f 15/174/174 51/172/172 20/171/171
s 29
f 52/175/175 15/176/176 53/178/178
f 15/176/176 18/177/177 53/178/178
s 30
f 17/179/179 35/180/180 38/181/181
f 17/179/179 38/181/181 18/182/182
s 31
f 16/183/183 22/184/184 34/185/185
f 16/183/183 34/185/185 17/186/186
