mtllib Materials_Modular_Temple.mtl
o object1
g object1
v -0.50000000 -0.05000000 0.05000000
v -0.50000000 -0.05000000 -0.05000000
v -0.50000000 -0.10000000 -0.05000000
v -0.50000000 -0.10000000 0.05000000
v -0.05000000 -0.05000000 -0.50000000
v -0.05000000 -0.05000000 -0.05000000
v 0.00000000 -0.05000000 0.05000000
v 0.03535534 -0.05000000 0.03535534
v 0.05000000 -0.05000000 0.00000000
v 0.05000000 -0.05000000 -0.50000000
v -0.05000000 -0.10000000 -0.05000000
v -0.05000000 -0.10000000 -0.50000000
v 0.05000000 -0.10000000 -0.50000000
v 0.05000000 -0.10000000 0.00000000
v 0.03535534 -0.10000000 0.03535534
v 0.00000000 -0.10000000 0.05000000
vt 1.00000000 0.00000000
vt 1.00000000 1.00000000
vt 0.00000000 1.00000000
vt 0.00000000 0.00000000
vt 1.00000000 0.18181818
vt 0.18181818 0.18181818
vt 0.18181818 1.00000000
vt 0.00000000 1.00000000
vt 0.00000000 0.09090909
vt 0.02662666 0.02662666
vt 0.09090909 0.00000000
vt 1.00000000 0.00000000
vt 1.00000000 0.00000000
vt 1.00000000 1.00000000
vt 0.00000000 1.00000000
vt 0.00000000 0.00000000
vt 1.00000000 0.00000000
vt 1.00000000 1.00000000
vt 0.00000000 1.00000000
vt 0.00000000 0.00000000
vt 1.00000000 0.00000000
vt 1.00000000 1.00000000
vt 0.00000000 1.00000000
vt 0.00000000 0.00000000
vt 1.00000000 0.00000000
vt 1.00000000 1.00000000
vt 0.00000000 1.00000000
vt 0.00000000 0.00000000
vt 1.00000000 0.00000000
vt 1.00000000 1.00000000
vt 0.00000000 1.00000000
vt 0.00000000 0.00000000
vt 1.00000000 0.00000000
vt 1.00000000 1.00000000
vt 0.00000000 1.00000000
vt 0.00000000 0.00000000
vt 1.00000000 0.18181818
vt 0.18181818 0.18181818
vt 0.18181818 1.00000000
vt 0.00000000 1.00000000
vt 0.00000000 0.09090909
vt 0.02662666 0.02662666
vt 0.09090909 0.00000000
vt 1.00000000 0.00000000
vt 1.00000000 0.00000000
vt 1.00000000 1.00000000
vt 0.00000000 1.00000000
vt 0.00000000 0.00000000
vn -1.00000000 0.00000000 0.00000000
vn -1.00000000 0.00000000 0.00000000
vn -1.00000000 0.00000000 0.00000000
vn -1.00000000 0.00000000 0.00000000
vn 0.00000000 1.00000000 0.00000000
vn 0.00000000 1.00000000 0.00000000
vn 0.00000000 1.00000000 0.00000000
vn 0.00000000 1.00000000 0.00000000
vn 0.00000000 1.00000000 0.00000000
vn 0.00000000 1.00000000 0.00000000
vn 0.00000000 1.00000000 0.00000000
vn 0.00000000 1.00000000 0.00000000
vn -1.00000000 0.00000000 0.00000000
vn -1.00000000 0.00000000 0.00000000
vn -1.00000000 0.00000000 0.00000000
vn -1.00000000 0.00000000 0.00000000
vn 0.00000000 0.00000000 -1.00000000
vn 0.00000000 0.00000000 -1.00000000
vn 0.00000000 0.00000000 -1.00000000
vn 0.00000000 0.00000000 -1.00000000
vn 1.00000000 0.00000000 0.00000000
vn 1.00000000 0.00000000 0.00000000
vn 1.00000000 0.00000000 0.00000000
vn 1.00000000 0.00000000 0.00000000
vn 0.92387953 0.00000000 0.38268343
vn 0.92387953 0.00000000 0.38268343
vn 0.92387953 0.00000000 0.38268343
vn 0.92387953 0.00000000 0.38268343
vn 0.38268343 0.00000000 0.92387953
vn 0.38268343 0.00000000 0.92387953
vn 0.38268343 0.00000000 0.92387953
vn 0.38268343 0.00000000 0.92387953
vn 0.00000000 0.00000000 1.00000000
vn 0.00000000 0.00000000 1.00000000
vn 0.00000000 0.00000000 1.00000000
vn 0.00000000 0.00000000 1.00000000
vn 0.00000000 -1.00000000 0.00000000
vn 0.00000000 -1.00000000 0.00000000
vn 0.00000000 -1.00000000 0.00000000
vn 0.00000000 -1.00000000 0.00000000
vn 0.00000000 -1.00000000 0.00000000
vn 0.00000000 -1.00000000 0.00000000
vn 0.00000000 -1.00000000 0.00000000
vn 0.00000000 -1.00000000 0.00000000
vn 0.00000000 0.00000000 -1.00000000
vn 0.00000000 0.00000000 -1.00000000
vn 0.00000000 0.00000000 -1.00000000
vn 0.00000000 0.00000000 -1.00000000
s 1
usemtl Green_Stone_-_Dark
f 1/1/1 2/2/2 4/4/4
f 2/2/2 3/3/3 4/4/4
s 2
f 7/9/9 8/10/10 9/11/11
f 9/11/11 10/12/12 6/6/6
f 6/6/6 2/7/7 1/8/8
f 10/12/12 5/5/5 6/6/6
f 6/6/6 1/8/8 7/9/9
f 7/9/9 9/11/11 6/6/6
s 3
f 12/16/16 11/15/15 5/13/13
f 11/15/15 6/14/14 5/13/13
s 4
f 5/17/17 10/18/18 12/20/20
f 10/18/18 13/19/19 12/20/20
s 5
f 14/24/24 13/23/23 9/21/21
f 13/23/23 10/22/22 9/21/21
s 6
f 15/28/28 14/27/27 8/25/25
f 14/27/27 9/26/26 8/25/25
s 7
f 16/32/32 15/31/31 7/29/29
f 15/31/31 8/30/30 7/29/29
s 8
f 4/36/36 16/35/35 1/33/33
f 16/35/35 7/34/34 1/33/33
s 9
f 14/43/43 15/42/42 16/41/41
f 16/41/41 4/40/40 11/38/38
f 11/38/38 12/37/37 13/44/44
f 4/40/40 3/39/39 11/38/38
f 11/38/38 14/43/43 16/41/41
f 11/38/38 13/44/44 14/43/43
s 10
f 11/48/48 3/47/47 6/45/45
f 3/47/47 2/46/46 6/45/45
o object2
g object2
v -0.50000000 -0.05000000 -0.13750000
v -0.50000000 0.00000000 -0.18750000
v -0.18750000 -0.00000000 -0.18750000
v -0.13750000 -0.05000000 -0.13750000
v -0.18750000 0.00000000 -0.50000000
v -0.13750000 -0.05000000 -0.50000000
v 0.50000000 0.00000000 -0.50000000
v 0.50000000 -0.20000000 -0.50000000
v -0.50000000 -0.20000000 -0.50000000
v -0.50000000 0.00000000 -0.50000000
v -0.08750000 0.00000000 -0.50000000
v -0.05000000 -0.03750000 -0.50000000
v -0.05000000 -0.10000000 -0.50000000
v 0.05000000 -0.10000000 -0.50000000
v 0.05000000 -0.03750000 -0.50000000
v 0.08750000 0.00000000 -0.50000000
v 0.13750000 -0.05000000 -0.50000000
v 0.18750000 0.00000000 -0.50000000
v 0.50000000 -0.20000000 0.50000000
v 0.50000000 0.00000000 0.50000000
v -0.50000000 -0.20000000 0.50000000
v -0.50000000 0.00000000 0.50000000
v 0.18750000 0.00000000 0.00745921
v 0.13476727 0.00000000 0.13476727
v 0.00745921 0.00000000 0.18750000
v -0.50000000 0.00000000 0.18750000
v 0.00745921 -0.05000000 0.13750000
v -0.50000000 -0.05000000 0.13750000
v 0.00745921 0.00000000 0.08750000
v -0.50000000 0.00000000 0.08750000
v 0.09941194 -0.05000000 0.09941194
v 0.06405660 0.00000000 0.06405660
v 0.03535534 -0.03750000 0.03535534
v 0.00000000 -0.03750000 0.05000000
v 0.00000000 -0.10000000 0.05000000
v 0.03535534 -0.10000000 0.03535534
v -0.50000000 -0.10000000 0.05000000
v -0.50000000 -0.03750000 0.05000000
v 0.05000000 -0.10000000 0.00000000
v 0.05000000 -0.03750000 0.00000000
v 0.08750000 0.00000000 0.00745921
v 0.13750000 -0.05000000 0.00745921
v -0.05000000 -0.10000000 -0.05000000
v -0.50000000 -0.10000000 -0.05000000
v -0.50000000 -0.03750000 -0.05000000
v -0.05000000 -0.03750000 -0.05000000
v -0.08750000 0.00000000 -0.08750000
v -0.50000000 0.00000000 -0.08750000
vt 0.00000000 1.00000000
vt 0.00000000 0.00000000
vt 0.86206897 0.00000000
vt 1.00000000 1.00000000
vt 0.00000000 1.00000000
vt 0.00000000 0.00000000
vt 1.00000000 0.00000000
vt 0.86206897 1.00000000
vt 0.00000000 0.00000000
vt 1.00000000 0.00000000
vt 1.00000000 1.00000000
vt 0.00000000 1.00000000
vt 0.00000000 0.68750000
vt 0.25000000 0.63750000
vt 0.00000000 0.58750000
vt 0.18750000 0.55000000
vt 0.50000000 0.55000000
vt 0.50000000 0.45000000
vt 0.18750000 0.45000000
vt 0.00000000 0.41250000
vt 0.25000000 0.36250000
vt 0.00000000 0.31250000
vt 1.00000000 0.00000000
vt 1.00000000 1.00000000
vt 0.00000000 1.00000000
vt 0.00000000 0.00000000
vt 1.00000000 0.00000000
vt 1.00000000 1.00000000
vt 0.00000000 1.00000000
vt 0.00000000 0.00000000
vt 1.00000000 0.31250000
vt 0.49254079 0.31250000
vt 0.36523273 0.36523273
vt 0.31250000 0.49254079
vt 0.31250000 1.00000000
vt 0.00000000 1.00000000
vt 0.00000000 0.00000000
vt 1.00000000 0.00000000
vt 1.00000000 0.00000000
vt 1.00000000 1.00000000
vt 0.00000000 1.00000000
vt 0.00000000 0.00000000
vt 1.00000000 0.00000000
vt 1.00000000 1.00000000
vt 0.00000000 1.00000000
vt 0.00000000 0.00000000
vt 0.00000000 1.00000000
vt 0.00000000 0.00000000
vt 1.00000000 0.00000000
vt 1.00000000 1.00000000
vt 0.74644360 1.00000000
vt 0.12176208 1.00000000
vt 0.00000000 0.00000000
vt 1.00000000 0.00000000
vt 1.00000000 0.00000000
vt 1.00000000 1.00000000
vt 0.00000000 1.00000000
vt 0.00000000 0.00000000
vt 1.00000000 0.00000000
vt 1.00000000 1.00000000
vt 0.00000000 1.00000000
vt 0.00000000 0.00000000
vt 1.00000000 0.00000000
vt 1.00000000 1.00000000
vt 0.00000000 1.00000000
vt 0.00000000 0.00000000
vt 0.87823792 1.00000000
vt 0.25355640 1.00000000
vt 0.00000000 0.00000000
vt 1.00000000 0.00000000
vt 1.00000000 0.00000000
vt 1.00000000 1.00000000
vt 0.00000000 1.00000000
vt 0.00000000 0.00000000
vt 0.98530086 1.00000000
vt 0.00000000 1.00000000
vt 0.00000000 0.00000000
vt 1.00000000 0.00000000
vt 0.00000000 1.00000000
vt 0.00000000 0.00000000
vt 1.00000000 0.00000000
vt 1.00000000 1.00000000
vt 1.00000000 0.00000000
vt 1.00000000 1.00000000
vt 0.00000000 1.00000000
vt 0.00000000 0.00000000
vt 1.00000000 0.00000000
vt 1.00000000 1.00000000
vt 0.00000000 1.00000000
vt 0.00000000 0.00000000
vt 1.00000000 0.00000000
vt 1.00000000 1.00000000
vt 0.00000000 1.00000000
vt 0.00000000 0.00000000
vt 1.00000000 1.00000000
vt 0.01469914 1.00000000
vt 0.00000000 0.00000000
vt 1.00000000 0.00000000
vt 1.00000000 0.00000000
vt 1.00000000 1.00000000
vt 0.00000000 1.00000000
vt 0.00000000 0.00000000
vt 1.00000000 0.18181818
vt 0.18181818 0.18181818
vt 0.18181818 1.00000000
vt 0.00000000 1.00000000
vt 0.00000000 0.09090909
vt 0.02662666 0.02662666
vt 0.09090909 0.00000000
vt 1.00000000 0.00000000
vt 1.00000000 0.00000000
vt 1.00000000 1.00000000
vt 0.00000000 1.00000000
vt 0.00000000 0.00000000
vt 1.00000000 1.00000000
vt 0.00000000 1.00000000
vt 0.08333333 0.00000000
vt 1.00000000 0.00000000
vt 1.00000000 0.00000000
vt 1.00000000 1.00000000
vt 0.00000000 1.00000000
vt 0.00000000 0.00000000
vt 1.00000000 1.00000000
vt 0.00000000 1.00000000
vt 0.00000000 0.00000000
vt 0.91666667 0.00000000
vt 0.00000000 0.00000000
vt 1.00000000 0.00000000
vt 1.00000000 1.00000000
vt 0.00000000 1.00000000
vt 0.00000000 0.00000000
vt 1.00000000 0.00000000
vt 0.87878788 1.00000000
vt 0.00000000 1.00000000
vt 0.00000000 0.00000000
vt 0.87878788 0.00000000
vt 1.00000000 1.00000000
vt 0.00000000 1.00000000
vt 0.18750000 0.55000000
vt 0.50000000 0.55000000
vt 0.50000000 0.45000000
vt 0.18750000 0.45000000
vt 0.00000000 0.41250000
vt 0.25000000 0.36250000
vt 0.00000000 0.31250000
vt 0.00000000 0.00000000
vt 1.00000000 0.00000000
vt 1.00000000 1.00000000
vt 0.00000000 1.00000000
vt 0.00000000 0.68750000
vt 0.25000000 0.63750000
vt 0.00000000 0.58750000
vt 1.00000000 1.00000000
vt 0.00000000 1.00000000
vt 0.00000000 0.00000000
vt 1.00000000 0.00000000
vn 0.00000000 0.70710678 0.70710678
vn 0.00000000 0.70710678 0.70710678
vn 0.00000000 0.70710678 0.70710678
vn 0.00000000 0.70710678 0.70710678
vn 0.70710678 0.70710678 0.00000000
vn 0.70710678 0.70710678 0.00000000
vn 0.70710678 0.70710678 0.00000000
vn 0.70710678 0.70710678 0.00000000
vn 0.00000000 0.00000000 -1.00000000
vn 0.00000000 0.00000000 -1.00000000
vn 0.00000000 0.00000000 -1.00000000
vn 0.00000000 0.00000000 -1.00000000
vn 0.00000000 0.00000000 -1.00000000
vn 0.00000000 0.00000000 -1.00000000
vn 0.00000000 0.00000000 -1.00000000
vn 0.00000000 0.00000000 -1.00000000
vn 0.00000000 0.00000000 -1.00000000
vn 0.00000000 0.00000000 -1.00000000
vn 0.00000000 0.00000000 -1.00000000
vn 0.00000000 0.00000000 -1.00000000
vn 0.00000000 0.00000000 -1.00000000
vn 0.00000000 0.00000000 -1.00000000
vn 1.00000000 0.00000000 0.00000000
vn 1.00000000 0.00000000 0.00000000
vn 1.00000000 0.00000000 0.00000000
vn 1.00000000 0.00000000 0.00000000
vn 0.00000000 0.00000000 1.00000000
vn 0.00000000 0.00000000 1.00000000
vn 0.00000000 0.00000000 1.00000000
vn 0.00000000 0.00000000 1.00000000
vn 0.00000000 1.00000000 0.00000000
vn 0.00000000 1.00000000 0.00000000
vn 0.00000000 1.00000000 0.00000000
vn 0.00000000 1.00000000 0.00000000
vn 0.00000000 1.00000000 0.00000000
vn 0.00000000 1.00000000 0.00000000
vn 0.00000000 1.00000000 0.00000000
vn 0.00000000 1.00000000 0.00000000
vn 0.00000000 0.70710678 -0.70710678
vn 0.00000000 0.70710678 -0.70710678
vn 0.00000000 0.70710678 -0.70710678
vn 0.00000000 0.70710678 -0.70710678
vn -0.00000000 0.70710678 0.70710678
vn -0.00000000 0.70710678 0.70710678
vn -0.00000000 0.70710678 0.70710678
vn -0.00000000 0.70710678 0.70710678
vn 0.28108464 0.67859834 0.67859834
vn 0.28108464 0.67859834 0.67859834
vn 0.28108464 0.67859834 0.67859834
vn 0.28108464 0.67859834 0.67859834
vn -0.27059805 0.70710678 -0.65328148
vn -0.27059805 0.70710678 -0.65328148
vn -0.27059805 0.70710678 -0.65328148
vn -0.27059805 0.70710678 -0.65328148
vn -0.38268343 0.00000000 -0.92387953
vn -0.38268343 0.00000000 -0.92387953
vn -0.38268343 0.00000000 -0.92387953
vn -0.38268343 0.00000000 -0.92387953
vn 0.00000000 0.00000000 -1.00000000
vn 0.00000000 0.00000000 -1.00000000
vn 0.00000000 0.00000000 -1.00000000
vn 0.00000000 0.00000000 -1.00000000
vn -0.92387953 0.00000000 -0.38268343
vn -0.92387953 0.00000000 -0.38268343
vn -0.92387953 0.00000000 -0.38268343
vn -0.92387953 0.00000000 -0.38268343
vn -0.65328148 0.70710678 -0.27059805
vn -0.65328148 0.70710678 -0.27059805
vn -0.65328148 0.70710678 -0.27059805
vn -0.65328148 0.70710678 -0.27059805
vn 0.67859834 0.67859834 0.28108464
vn 0.67859834 0.67859834 0.28108464
vn 0.67859834 0.67859834 0.28108464
vn 0.67859834 0.67859834 0.28108464
vn -0.00000000 0.70710678 -0.70710678
vn -0.00000000 0.70710678 -0.70710678
vn 0.00000000 0.70710678 -0.70710678
vn 0.00000000 0.70710678 -0.70710678
vn -0.28108464 0.67859834 -0.67859834
vn -0.28108464 0.67859834 -0.67859834
vn -0.28108464 0.67859834 -0.67859834
vn -0.28108464 0.67859834 -0.67859834
vn -0.67859834 0.67859834 -0.28108464
vn -0.67859834 0.67859834 -0.28108464
vn -0.67859834 0.67859834 -0.28108464
vn -0.67859834 0.67859834 -0.28108464
vn -0.70710678 0.70710678 0.00000000
vn -0.70710678 0.70710678 0.00000000
vn -0.70710678 0.70710678 0.00000000
vn -0.70710678 0.70710678 0.00000000
vn 0.70710678 0.70710678 -0.00000000
vn 0.70710678 0.70710678 -0.00000000
vn 0.70710678 0.70710678 -0.00000000
vn 0.70710678 0.70710678 -0.00000000
vn -0.70710678 0.70710678 -0.00000000
vn -0.70710678 0.70710678 -0.00000000
vn -0.70710678 0.70710678 -0.00000000
vn -0.70710678 0.70710678 -0.00000000
vn -1.00000000 0.00000000 -0.00000000
vn -1.00000000 0.00000000 -0.00000000
vn -1.00000000 0.00000000 -0.00000000
vn -1.00000000 0.00000000 -0.00000000
vn 0.00000000 1.00000000 0.00000000
vn 0.00000000 1.00000000 0.00000000
vn 0.00000000 1.00000000 0.00000000
vn 0.00000000 1.00000000 0.00000000
vn 0.00000000 1.00000000 0.00000000
vn 0.00000000 1.00000000 0.00000000
vn 0.00000000 1.00000000 0.00000000
vn 0.00000000 1.00000000 0.00000000
vn 0.00000000 0.00000000 1.00000000
vn 0.00000000 0.00000000 1.00000000
vn 0.00000000 0.00000000 1.00000000
vn 0.00000000 0.00000000 1.00000000
vn 0.00000000 0.70710678 0.70710678
vn 0.00000000 0.70710678 0.70710678
vn 0.00000000 0.70710678 0.70710678
vn 0.00000000 0.70710678 0.70710678
vn 1.00000000 0.00000000 0.00000000
vn 1.00000000 0.00000000 0.00000000
vn 1.00000000 0.00000000 0.00000000
vn 1.00000000 0.00000000 0.00000000
vn 0.70710678 0.70710678 0.00000000
vn 0.70710678 0.70710678 0.00000000
vn 0.70710678 0.70710678 0.00000000
vn 0.70710678 0.70710678 0.00000000
vn 0.00000000 -1.00000000 0.00000000
vn 0.00000000 -1.00000000 0.00000000
vn 0.00000000 -1.00000000 0.00000000
vn 0.00000000 -1.00000000 0.00000000
vn -0.70710678 0.70710678 -0.00000000
vn -0.70710678 0.70710678 -0.00000000
vn -0.70710678 0.70710678 -0.00000000
vn -0.70710678 0.70710678 -0.00000000
vn 0.00000000 0.70710678 -0.70710678
vn 0.00000000 0.70710678 -0.70710678
vn 0.00000000 0.70710678 -0.70710678
vn 0.00000000 0.70710678 -0.70710678
vn -1.00000000 0.00000000 0.00000000
vn -1.00000000 0.00000000 0.00000000
vn -1.00000000 0.00000000 0.00000000
vn -1.00000000 0.00000000 0.00000000
vn -1.00000000 0.00000000 0.00000000
vn -1.00000000 0.00000000 0.00000000
vn -1.00000000 0.00000000 0.00000000
vn -1.00000000 0.00000000 0.00000000
vn -1.00000000 0.00000000 0.00000000
vn -1.00000000 0.00000000 0.00000000
vn -1.00000000 0.00000000 0.00000000
vn -1.00000000 0.00000000 0.00000000
vn -1.00000000 0.00000000 0.00000000
vn -1.00000000 0.00000000 0.00000000
vn 0.00000000 1.00000000 0.00000000
vn 0.00000000 1.00000000 0.00000000
vn 0.00000000 1.00000000 0.00000000
vn 0.00000000 1.00000000 0.00000000
s 1
usemtl Sandstone_Floor
f 20/52/52 19/51/51 17/49/49
f 19/51/51 18/50/50 17/49/49
s 2
f 19/56/56 20/55/55 22/54/54
f 19/56/56 22/54/54 21/53/53
s 3
usemtl Sandstone_Trim
f 31/67/67 32/68/68 33/69/69
f 30/66/66 33/69/69 24/58/58
f 34/70/70 23/57/57 24/58/58
f 25/59/59 29/65/65 30/66/66
f 22/62/62 28/64/64 29/65/65
f 22/62/62 27/63/63 28/64/64
f 25/59/59 22/62/62 29/65/65
f 25/59/59 21/61/61 22/62/62
f 25/59/59 26/60/60 21/61/61
f 30/66/66 24/58/58 25/59/59
f 33/69/69 34/70/70 24/58/58
f 30/66/66 31/67/67 33/69/69
s 4
f 35/71/71 24/72/72 36/74/74
f 24/72/72 23/73/73 36/74/74
s 5
f 37/75/75 35/76/76 38/78/78
f 35/76/76 36/77/77 38/78/78
s 6
usemtl Sandstone_Floor
f 23/86/86 34/79/79 39/80/80
f 36/85/85 39/80/80 40/81/81
f 41/82/82 38/84/84 36/85/85
f 41/82/82 42/83/83 38/84/84
f 36/85/85 40/81/81 41/82/82
f 36/85/85 23/86/86 39/80/80
s 7
f 41/87/87 43/88/88 42/90/90
f 43/88/88 44/89/89 42/90/90
s 8
usemtl Sandstone_5
f 43/91/91 45/92/92 44/94/94
f 45/92/92 46/93/93 44/94/94
s 9
f 45/95/95 43/96/96 47/97/97
f 45/95/95 47/97/97 48/98/98
s 10
f 49/99/99 50/100/100 45/101/101
f 49/99/99 45/101/101 48/102/102
s 11
f 50/106/106 49/105/105 51/103/103
f 49/105/105 52/104/104 51/103/103
s 12
f 54/110/110 50/109/109 53/107/107
f 50/109/109 51/108/108 53/107/107
s 13
f 49/114/114 56/113/113 52/111/111
f 56/113/113 55/112/112 52/111/111
s 14
f 56/115/115 49/116/116 57/118/118
f 49/116/116 48/117/117 57/118/118
s 15
f 58/119/119 57/120/120 47/122/122
f 57/120/120 48/121/121 47/122/122
s 16
f 50/123/123 54/124/124 46/125/125
f 50/123/123 46/125/125 45/126/126
s 17
usemtl Sandstone_Floor
f 43/127/127 41/128/128 40/129/129
f 43/127/127 40/129/129 47/130/130
s 18
f 39/131/131 58/132/132 40/134/134
f 58/132/132 47/133/133 40/134/134
s 19
f 34/138/138 33/137/137 39/135/135
f 33/137/137 58/136/136 39/135/135
s 20
usemtl Sandstone_5
f 33/142/142 32/141/141 58/139/139
f 32/141/141 57/140/140 58/139/139
s 21
f 31/143/143 56/144/144 32/146/146
f 56/144/144 57/145/145 32/146/146
s 22
f 56/150/150 31/149/149 55/147/147
f 31/149/149 30/148/148 55/147/147
s 23
f 51/155/155 52/156/156 55/157/157
f 55/157/157 30/158/158 59/152/152
f 59/152/152 60/153/153 53/154/154
f 30/158/158 29/151/151 59/152/152
f 59/152/152 53/154/154 51/155/155
f 51/155/155 55/157/157 59/152/152
s 24
f 62/162/162 61/161/161 59/159/159
f 61/161/161 60/160/160 59/159/159
s 25
f 61/163/163 62/164/164 63/165/165
f 61/163/163 63/165/165 64/166/166
s 26
f 28/170/170 62/169/169 29/167/167
f 62/169/169 59/168/168 29/167/167
s 27
f 62/171/171 28/172/172 63/174/174
f 28/172/172 27/173/173 63/174/174
s 28
usemtl Sandstone_Trim
f 37/178/178 25/177/177 24/176/176
f 37/178/178 24/176/176 35/175/175
s 29
usemtl Sandstone_5
f 22/182/182 20/181/181 27/179/179
f 20/181/181 63/180/180 27/179/179
s 30
f 64/186/186 63/185/185 20/184/184
f 64/186/186 20/184/184 17/183/183
s 31
usemtl Sandstone_Trim
f 44/199/199 46/200/200 54/187/187
f 37/196/196 44/199/199 53/188/188
f 53/188/188 60/189/189 37/196/196
f 60/189/189 17/192/192 25/195/195
f 18/193/193 26/194/194 25/195/195
f 17/192/192 18/193/193 25/195/195
f 61/190/190 64/191/191 17/192/192
f 60/189/189 61/190/190 17/192/192
f 60/189/189 25/195/195 37/196/196
f 37/196/196 38/197/197 42/198/198
f 37/196/196 42/198/198 44/199/199
f 44/199/199 54/187/187 53/188/188
s 32
usemtl Sandstone_Floor
f 26/201/201 18/202/202 19/203/203
f 26/201/201 19/203/203 21/204/204
