mtllib Materials_Modular_Temple.mtl
o object1
g object1
v -0.40000000 0.00000000 1.50000000
v -0.40000000 1.15000000 1.50000000
v -0.45000000 1.20000000 1.50000000
v -0.54698485 1.20000000 1.50000000
v -0.60000000 1.15000000 1.50000000
v -0.60000000 0.00000000 1.50000000
v -0.40000000 0.00000000 -0.50000000
v -0.40000000 0.15000000 -0.50000000
v -0.60000000 -0.00000000 -0.50000000
v -0.60000000 0.15000000 -0.50000000
v -0.54698485 0.20000000 -0.50000000
v -0.45000000 0.20000000 -0.50000000
vt 0.00000000 1.00000000
vt 0.00000000 0.04166667
vt 0.25000000 0.00000000
vt 0.73492424 0.00000000
vt 1.00000000 0.04166667
vt 1.00000000 1.00000000
vt 1.00000000 0.00000000
vt 1.00000000 1.00000000
vt 0.00000000 1.00000000
vt 0.00000000 0.86956522
vt 1.00000000 0.00000000
vt 1.00000000 0.75000000
vt 0.73492424 1.00000000
vt 0.25000000 1.00000000
vt 0.00000000 0.75000000
vt 0.00000000 0.00000000
vt 0.00000000 1.00000000
vt 0.00000000 0.00000000
vt 1.00000000 0.00000000
vt 1.00000000 1.00000000
vt 1.00000000 0.00000000
vt 1.00000000 1.00000000
vt 0.00000000 1.00000000
vt 0.00000000 0.86956522
vt 1.00000000 1.00000000
vt 0.00000000 1.00000000
vt 0.00000000 0.00000000
vt 1.00000000 0.00000000
vt 1.00000000 1.00000000
vt 0.00000000 1.00000000
vt 0.00000000 0.00000000
vt 1.00000000 0.00000000
vt 1.00000000 1.00000000
vt 0.00000000 1.00000000
vt 0.00000000 0.00000000
vt 1.00000000 0.00000000
vn 0.00000000 -0.00000000 1.00000000
vn 0.00000000 -0.00000000 1.00000000
vn 0.00000000 -0.00000000 1.00000000
vn 0.00000000 -0.00000000 1.00000000
vn 0.00000000 -0.00000000 1.00000000
vn 0.00000000 -0.00000000 1.00000000
vn 1.00000000 -0.00000000 0.00000000
vn 1.00000000 -0.00000000 0.00000000
vn 1.00000000 -0.00000000 0.00000000
vn 1.00000000 -0.00000000 0.00000000
vn 0.00000000 0.00000000 -1.00000000
vn 0.00000000 0.00000000 -1.00000000
vn 0.00000000 0.00000000 -1.00000000
vn 0.00000000 0.00000000 -1.00000000
vn 0.00000000 0.00000000 -1.00000000
vn 0.00000000 0.00000000 -1.00000000
vn 0.00000000 -1.00000000 0.00000000
vn 0.00000000 -1.00000000 0.00000000
vn 0.00000000 -1.00000000 0.00000000
vn 0.00000000 -1.00000000 0.00000000
vn -1.00000000 0.00000000 -0.00000000
vn -1.00000000 0.00000000 -0.00000000
vn -1.00000000 0.00000000 -0.00000000
vn -1.00000000 0.00000000 -0.00000000
vn -0.64478524 0.68366775 -0.34183388
vn -0.64478524 0.68366775 -0.34183388
vn -0.64478524 0.68366775 -0.34183388
vn -0.64478524 0.68366775 -0.34183388
vn 0.00000000 0.89442719 -0.44721360
vn 0.00000000 0.89442719 -0.44721360
vn 0.00000000 0.89442719 -0.44721360
vn 0.00000000 0.89442719 -0.44721360
vn 0.66666667 0.66666667 -0.33333333
vn 0.66666667 0.66666667 -0.33333333
vn 0.66666667 0.66666667 -0.33333333
vn 0.66666667 0.66666667 -0.33333333
s 1
usemtl Sandstone_Trim
f 2/2/2 3/3/3 4/4/4
f 2/2/2 5/5/5 6/6/6
f 6/6/6 1/1/1 2/2/2
f 2/2/2 4/4/4 5/5/5
s 2
f 2/7/7 1/8/8 8/10/10
f 1/8/8 7/9/9 8/10/10
s 3
f 11/13/13 12/14/14 8/15/15
f 10/12/12 8/15/15 7/16/16
f 9/11/11 10/12/12 7/16/16
f 10/12/12 11/13/13 8/15/15
s 4
f 9/17/17 7/18/18 1/19/19
f 9/17/17 1/19/19 6/20/20
s 5
f 10/24/24 9/23/23 6/22/22
f 10/24/24 6/22/22 5/21/21
s 6
f 10/25/25 5/26/26 11/28/28
f 5/26/26 4/27/27 11/28/28
s 7
f 11/29/29 4/30/30 3/31/31
f 11/29/29 3/31/31 12/32/32
s 8
f 12/33/33 3/34/34 2/35/35
f 12/33/33 2/35/35 8/36/36
