mtllib Materials_Modular_Temple.mtl
o object1
g object1
v 0.40000000 -0.00000000 -0.50000000
v 0.40000000 -0.15000000 -0.50000000
v 0.40000000 0.85000000 1.50000000
v 0.40000000 1.00000000 1.50000000
v 0.40000000 1.00000000 1.42500000
v 0.40000000 0.97500000 1.40000000
v 0.40000000 0.90000000 1.40000000
v 0.40000000 0.90000000 1.22500000
v 0.40000000 0.87500000 1.20000000
v 0.40000000 0.80000000 1.20000000
v 0.40000000 0.80000000 1.02500000
v 0.40000000 0.77500000 1.00000000
v 0.40000000 0.70000000 1.00000000
v 0.40000000 0.70000000 0.82500000
v 0.40000000 0.67500000 0.80000000
v 0.40000000 0.60000000 0.80000000
v 0.40000000 0.60000000 0.62500000
v 0.40000000 0.57500000 0.60000000
v 0.40000000 0.50000000 0.60000000
v 0.40000000 0.50000000 0.42500000
v 0.40000000 0.47500000 0.40000000
v 0.40000000 0.40000000 0.40000000
v 0.40000000 0.40000000 0.22500000
v 0.40000000 0.37500000 0.20000000
v 0.40000000 0.30000000 0.20000000
v 0.40000000 0.30000000 0.02500000
v 0.40000000 0.27500000 -0.00000000
v 0.40000000 0.20000000 -0.00000000
v 0.40000000 0.20000000 -0.17500000
v 0.40000000 0.17500000 -0.20000000
v 0.40000000 0.10000000 -0.20000000
v 0.40000000 0.10000000 -0.37500000
v 0.40000000 0.07500000 -0.40000000
v 0.40000000 -0.00000000 -0.40000000
v -0.40000000 0.85000000 1.50000000
v -0.40000000 1.00000000 1.50000000
v -0.40000000 0.00000000 -0.50000000
v -0.40000000 -0.15000000 -0.50000000
v -0.40000000 1.00000000 1.42500000
v -0.40000000 0.97500000 1.40000000
v -0.40000000 0.90000000 1.40000000
v -0.40000000 0.90000000 1.22500000
v -0.40000000 0.87500000 1.20000000
v -0.40000000 0.80000000 1.20000000
v -0.40000000 0.80000000 1.02500000
v -0.40000000 0.77500000 1.00000000
v -0.40000000 0.70000000 1.00000000
v -0.40000000 0.70000000 0.82500000
v -0.40000000 0.67500000 0.80000000
v -0.40000000 0.60000000 0.80000000
v -0.40000000 0.60000000 0.62500000
v -0.40000000 0.57500000 0.60000000
v -0.40000000 0.50000000 0.60000000
v -0.40000000 0.50000000 0.42500000
v -0.40000000 0.47500000 0.40000000
v -0.40000000 0.40000000 0.40000000
v -0.40000000 0.40000000 0.22500000
v -0.40000000 0.37500000 0.20000000
v -0.40000000 0.30000000 0.20000000
v -0.40000000 0.30000000 0.02500000
v -0.40000000 0.27500000 -0.00000000
v -0.40000000 0.20000000 -0.00000000
v -0.40000000 0.20000000 -0.17500000
v -0.40000000 0.17500000 -0.20000000
v -0.40000000 0.10000000 -0.20000000
v -0.40000000 0.10000000 -0.37500000
v -0.40000000 0.07500000 -0.40000000
v -0.40000000 -0.00000000 -0.40000000
vt 0.00000000 0.13043478
vt 0.00000000 0.00000000
vt 1.00000000 0.86956522
vt 1.00000000 1.00000000
vt 0.96250000 1.00000000
vt 0.95000000 0.97826087
vt 0.95000000 0.91304348
vt 0.86250000 0.91304348
vt 0.85000000 0.89130435
vt 0.85000000 0.82608696
vt 0.76250000 0.82608696
vt 0.75000000 0.80434783
vt 0.75000000 0.73913043
vt 0.66250000 0.73913043
vt 0.65000000 0.71739130
vt 0.65000000 0.65217391
vt 0.56250000 0.65217391
vt 0.55000000 0.63043478
vt 0.55000000 0.56521739
vt 0.46250000 0.56521739
vt 0.45000000 0.54347826
vt 0.45000000 0.47826087
vt 0.36250000 0.47826087
vt 0.35000000 0.45652174
vt 0.35000000 0.39130435
vt 0.26250000 0.39130435
vt 0.25000000 0.36956522
vt 0.25000000 0.30434783
vt 0.16250000 0.30434783
vt 0.15000000 0.28260870
vt 0.15000000 0.21739130
vt 0.06250000 0.21739130
vt 0.05000000 0.19565217
vt 0.05000000 0.13043478
vt 0.00000000 0.00000000
vt 1.00000000 0.00000000
vt 1.00000000 1.00000000
vt 0.00000000 1.00000000
vt 0.00000000 0.13043478
vt 0.00000000 0.00000000
vt 1.00000000 0.86956522
vt 1.00000000 1.00000000
vt 0.96250000 1.00000000
vt 0.95000000 0.97826087
vt 0.95000000 0.91304348
vt 0.86250000 0.91304348
vt 0.85000000 0.89130435
vt 0.85000000 0.82608696
vt 0.76250000 0.82608696
vt 0.75000000 0.80434783
vt 0.75000000 0.73913043
vt 0.66250000 0.73913043
vt 0.65000000 0.71739130
vt 0.65000000 0.65217391
vt 0.56250000 0.65217391
vt 0.55000000 0.63043478
vt 0.55000000 0.56521739
vt 0.46250000 0.56521739
vt 0.45000000 0.54347826
vt 0.45000000 0.47826087
vt 0.36250000 0.47826087
vt 0.35000000 0.45652174
vt 0.35000000 0.39130435
vt 0.26250000 0.39130435
vt 0.25000000 0.36956522
vt 0.25000000 0.30434783
vt 0.16250000 0.30434783
vt 0.15000000 0.28260870
vt 0.15000000 0.21739130
vt 0.06250000 0.21739130
vt 0.05000000 0.19565217
vt 0.05000000 0.13043478
vt 1.00000000 1.00000000
vt 0.00000000 1.00000000
vt 0.00000000 0.00000000
vt 1.00000000 0.00000000
vt 0.00000000 0.00000000
vt 1.00000000 0.00000000
vt 1.00000000 1.00000000
vt 0.00000000 1.00000000
vt 0.00000000 0.00000000
vt 1.00000000 0.00000000
vt 1.00000000 1.00000000
vt 0.00000000 1.00000000
vt 1.00000000 1.00000000
vt 0.00000000 1.00000000
vt 0.00000000 0.00000000
vt 1.00000000 0.00000000
vt 0.00000000 0.00000000
vt 1.00000000 0.00000000
vt 1.00000000 1.00000000
vt 0.00000000 1.00000000
vt 0.00000000 0.00000000
vt 1.00000000 0.00000000
vt 1.00000000 1.00000000
vt 0.00000000 1.00000000
vt 1.00000000 1.00000000
vt 0.00000000 1.00000000
vt 0.00000000 0.00000000
vt 1.00000000 0.00000000
vt 0.00000000 0.00000000
vt 1.00000000 0.00000000
vt 1.00000000 1.00000000
vt 0.00000000 1.00000000
vt 0.00000000 0.00000000
vt 1.00000000 0.00000000
vt 1.00000000 1.00000000
vt 0.00000000 1.00000000
vt 1.00000000 1.00000000
vt 0.00000000 1.00000000
vt 0.00000000 0.00000000
vt 1.00000000 0.00000000
vt 0.00000000 0.00000000
vt 1.00000000 0.00000000
vt 1.00000000 1.00000000
vt 0.00000000 1.00000000
vt 0.00000000 0.00000000
vt 1.00000000 0.00000000
vt 1.00000000 1.00000000
vt 0.00000000 1.00000000
vt 1.00000000 1.00000000
vt 0.00000000 1.00000000
vt 0.00000000 0.00000000
vt 1.00000000 0.00000000
vt 0.00000000 0.00000000
vt 1.00000000 0.00000000
vt 1.00000000 1.00000000
vt 0.00000000 1.00000000
vt 0.00000000 0.00000000
vt 1.00000000 0.00000000
vt 1.00000000 1.00000000
vt 0.00000000 1.00000000
vt 1.00000000 1.00000000
vt 0.00000000 1.00000000
vt 0.00000000 0.00000000
vt 1.00000000 0.00000000
vt 0.00000000 0.00000000
vt 1.00000000 0.00000000
vt 1.00000000 1.00000000
vt 0.00000000 1.00000000
vt 0.00000000 0.00000000
vt 1.00000000 0.00000000
vt 1.00000000 1.00000000
vt 0.00000000 1.00000000
vt 1.00000000 1.00000000
vt 0.00000000 1.00000000
vt 0.00000000 0.00000000
vt 1.00000000 0.00000000
vt 0.00000000 0.00000000
vt 1.00000000 0.00000000
vt 1.00000000 1.00000000
vt 0.00000000 1.00000000
vt 0.00000000 0.00000000
vt 1.00000000 0.00000000
vt 1.00000000 1.00000000
vt 0.00000000 1.00000000
vt 1.00000000 1.00000000
vt 0.00000000 1.00000000
vt 0.00000000 0.00000000
vt 1.00000000 0.00000000
vt 0.00000000 0.00000000
vt 1.00000000 0.00000000
vt 1.00000000 1.00000000
vt 0.00000000 1.00000000
vt 0.00000000 0.00000000
vt 1.00000000 0.00000000
vt 1.00000000 1.00000000
vt 0.00000000 1.00000000
vt 1.00000000 1.00000000
vt 0.00000000 1.00000000
vt 0.00000000 0.00000000
vt 1.00000000 0.00000000
vt 0.00000000 0.00000000
vt 1.00000000 0.00000000
vt 1.00000000 1.00000000
vt 0.00000000 1.00000000
vt 0.00000000 0.00000000
vt 1.00000000 0.00000000
vt 1.00000000 1.00000000
vt 0.00000000 1.00000000
vt 1.00000000 1.00000000
vt 0.00000000 1.00000000
vt 0.00000000 0.00000000
vt 1.00000000 0.00000000
vt 0.00000000 0.00000000
vt 1.00000000 0.00000000
vt 1.00000000 1.00000000
vt 0.00000000 1.00000000
vt 0.00000000 0.00000000
vt 1.00000000 0.00000000
vt 1.00000000 1.00000000
vt 0.00000000 1.00000000
vt 1.00000000 1.00000000
vt 0.00000000 1.00000000
vt 0.00000000 0.00000000
vt 1.00000000 0.00000000
vt 1.00000000 0.00000000
vt 1.00000000 1.00000000
vt 0.00000000 1.00000000
vt 0.00000000 0.00000000
vt 1.00000000 0.00000000
vt 1.00000000 1.00000000
vt 0.00000000 1.00000000
vt 0.00000000 0.00000000
vn 1.00000000 -0.00000000 -0.00000000
vn 1.00000000 -0.00000000 -0.00000000
vn 1.00000000 -0.00000000 -0.00000000
vn 1.00000000 -0.00000000 -0.00000000
vn 1.00000000 -0.00000000 -0.00000000
vn 1.00000000 -0.00000000 -0.00000000
vn 1.00000000 -0.00000000 -0.00000000
vn 1.00000000 -0.00000000 -0.00000000
vn 1.00000000 -0.00000000 -0.00000000
vn 1.00000000 -0.00000000 -0.00000000
vn 1.00000000 -0.00000000 -0.00000000
vn 1.00000000 -0.00000000 -0.00000000
vn 1.00000000 -0.00000000 -0.00000000
vn 1.00000000 -0.00000000 -0.00000000
vn 1.00000000 -0.00000000 -0.00000000
vn 1.00000000 -0.00000000 -0.00000000
vn 1.00000000 -0.00000000 -0.00000000
vn 1.00000000 -0.00000000 -0.00000000
vn 1.00000000 -0.00000000 -0.00000000
vn 1.00000000 -0.00000000 -0.00000000
vn 1.00000000 -0.00000000 -0.00000000
vn 1.00000000 -0.00000000 -0.00000000
vn 1.00000000 -0.00000000 -0.00000000
vn 1.00000000 -0.00000000 -0.00000000
vn 1.00000000 -0.00000000 -0.00000000
vn 1.00000000 -0.00000000 -0.00000000
vn 1.00000000 -0.00000000 -0.00000000
vn 1.00000000 -0.00000000 -0.00000000
vn 1.00000000 -0.00000000 -0.00000000
vn 1.00000000 -0.00000000 -0.00000000
vn 1.00000000 -0.00000000 -0.00000000
vn 1.00000000 -0.00000000 -0.00000000
vn 1.00000000 -0.00000000 -0.00000000
vn 1.00000000 -0.00000000 -0.00000000
vn -0.00000000 -0.00000000 1.00000000
vn -0.00000000 -0.00000000 1.00000000
vn -0.00000000 -0.00000000 1.00000000
vn -0.00000000 -0.00000000 1.00000000
vn -1.00000000 0.00000000 0.00000000
vn -1.00000000 0.00000000 0.00000000
vn -1.00000000 0.00000000 0.00000000
vn -1.00000000 0.00000000 0.00000000
vn -1.00000000 0.00000000 0.00000000
vn -1.00000000 0.00000000 0.00000000
vn -1.00000000 0.00000000 0.00000000
vn -1.00000000 0.00000000 0.00000000
vn -1.00000000 0.00000000 0.00000000
vn -1.00000000 0.00000000 0.00000000
vn -1.00000000 0.00000000 0.00000000
vn -1.00000000 0.00000000 0.00000000
vn -1.00000000 0.00000000 0.00000000
vn -1.00000000 0.00000000 0.00000000
vn -1.00000000 0.00000000 0.00000000
vn -1.00000000 0.00000000 0.00000000
vn -1.00000000 0.00000000 0.00000000
vn -1.00000000 0.00000000 0.00000000
vn -1.00000000 0.00000000 0.00000000
vn -1.00000000 0.00000000 0.00000000
vn -1.00000000 0.00000000 0.00000000
vn -1.00000000 0.00000000 0.00000000
vn -1.00000000 0.00000000 0.00000000
vn -1.00000000 0.00000000 0.00000000
vn -1.00000000 0.00000000 0.00000000
vn -1.00000000 0.00000000 0.00000000
vn -1.00000000 0.00000000 0.00000000
vn -1.00000000 0.00000000 0.00000000
vn -1.00000000 0.00000000 0.00000000
vn -1.00000000 0.00000000 0.00000000
vn -1.00000000 0.00000000 0.00000000
vn -1.00000000 0.00000000 0.00000000
vn -1.00000000 0.00000000 0.00000000
vn -1.00000000 0.00000000 0.00000000
vn 0.00000000 1.00000000 -0.00000000
vn 0.00000000 1.00000000 -0.00000000
vn 0.00000000 1.00000000 -0.00000000
vn 0.00000000 1.00000000 -0.00000000
vn 0.00000000 0.70710678 -0.70710678
vn 0.00000000 0.70710678 -0.70710678
vn 0.00000000 0.70710678 -0.70710678
vn 0.00000000 0.70710678 -0.70710678
vn 0.00000000 0.00000000 -1.00000000
vn 0.00000000 0.00000000 -1.00000000
vn 0.00000000 0.00000000 -1.00000000
vn 0.00000000 0.00000000 -1.00000000
vn 0.00000000 1.00000000 0.00000000
vn 0.00000000 1.00000000 0.00000000
vn 0.00000000 1.00000000 0.00000000
vn 0.00000000 1.00000000 0.00000000
vn 0.00000000 0.70710678 -0.70710678
vn 0.00000000 0.70710678 -0.70710678
vn 0.00000000 0.70710678 -0.70710678
vn 0.00000000 0.70710678 -0.70710678
vn 0.00000000 -0.00000000 -1.00000000
vn 0.00000000 -0.00000000 -1.00000000
vn 0.00000000 -0.00000000 -1.00000000
vn 0.00000000 -0.00000000 -1.00000000
vn 0.00000000 1.00000000 -0.00000000
vn 0.00000000 1.00000000 -0.00000000
vn 0.00000000 1.00000000 -0.00000000
vn 0.00000000 1.00000000 -0.00000000
vn 0.00000000 0.70710678 -0.70710678
vn 0.00000000 0.70710678 -0.70710678
vn 0.00000000 0.70710678 -0.70710678
vn 0.00000000 0.70710678 -0.70710678
vn 0.00000000 0.00000000 -1.00000000
vn 0.00000000 0.00000000 -1.00000000
vn 0.00000000 0.00000000 -1.00000000
vn 0.00000000 0.00000000 -1.00000000
vn 0.00000000 1.00000000 0.00000000
vn 0.00000000 1.00000000 0.00000000
vn 0.00000000 1.00000000 0.00000000
vn 0.00000000 1.00000000 0.00000000
vn 0.00000000 0.70710678 -0.70710678
vn 0.00000000 0.70710678 -0.70710678
vn 0.00000000 0.70710678 -0.70710678
vn 0.00000000 0.70710678 -0.70710678
vn 0.00000000 -0.00000000 -1.00000000
vn 0.00000000 -0.00000000 -1.00000000
vn 0.00000000 -0.00000000 -1.00000000
vn 0.00000000 -0.00000000 -1.00000000
vn 0.00000000 1.00000000 0.00000000
vn 0.00000000 1.00000000 0.00000000
vn 0.00000000 1.00000000 0.00000000
vn 0.00000000 1.00000000 0.00000000
vn 0.00000000 0.70710678 -0.70710678
vn 0.00000000 0.70710678 -0.70710678
vn 0.00000000 0.70710678 -0.70710678
vn 0.00000000 0.70710678 -0.70710678
vn 0.00000000 0.00000000 -1.00000000
vn 0.00000000 0.00000000 -1.00000000
vn 0.00000000 0.00000000 -1.00000000
vn 0.00000000 0.00000000 -1.00000000
vn 0.00000000 1.00000000 -0.00000000
vn 0.00000000 1.00000000 -0.00000000
vn 0.00000000 1.00000000 -0.00000000
vn 0.00000000 1.00000000 -0.00000000
vn 0.00000000 0.70710678 -0.70710678
vn 0.00000000 0.70710678 -0.70710678
vn 0.00000000 0.70710678 -0.70710678
vn 0.00000000 0.70710678 -0.70710678
vn 0.00000000 -0.00000000 -1.00000000
vn 0.00000000 -0.00000000 -1.00000000
vn 0.00000000 -0.00000000 -1.00000000
vn 0.00000000 -0.00000000 -1.00000000
vn 0.00000000 1.00000000 0.00000000
vn 0.00000000 1.00000000 0.00000000
vn 0.00000000 1.00000000 0.00000000
vn 0.00000000 1.00000000 0.00000000
vn 0.00000000 0.70710678 -0.70710678
vn 0.00000000 0.70710678 -0.70710678
vn 0.00000000 0.70710678 -0.70710678
vn 0.00000000 0.70710678 -0.70710678
vn 0.00000000 0.00000000 -1.00000000
vn 0.00000000 0.00000000 -1.00000000
vn 0.00000000 0.00000000 -1.00000000
vn 0.00000000 0.00000000 -1.00000000
vn 0.00000000 1.00000000 0.00000000
vn 0.00000000 1.00000000 0.00000000
vn 0.00000000 1.00000000 0.00000000
vn 0.00000000 1.00000000 0.00000000
vn 0.00000000 0.70710678 -0.70710678
vn 0.00000000 0.70710678 -0.70710678
vn 0.00000000 0.70710678 -0.70710678
vn 0.00000000 0.70710678 -0.70710678
vn 0.00000000 0.00000000 -1.00000000
vn 0.00000000 0.00000000 -1.00000000
vn 0.00000000 0.00000000 -1.00000000
vn 0.00000000 0.00000000 -1.00000000
vn 0.00000000 1.00000000 0.00000000
vn 0.00000000 1.00000000 0.00000000
vn 0.00000000 1.00000000 0.00000000
vn 0.00000000 1.00000000 0.00000000
vn 0.00000000 0.70710678 -0.70710678
vn 0.00000000 0.70710678 -0.70710678
vn 0.00000000 0.70710678 -0.70710678
vn 0.00000000 0.70710678 -0.70710678
vn 0.00000000 0.00000000 -1.00000000
vn 0.00000000 0.00000000 -1.00000000
vn 0.00000000 0.00000000 -1.00000000
vn 0.00000000 0.00000000 -1.00000000
vn 0.00000000 1.00000000 0.00000000
vn 0.00000000 1.00000000 0.00000000
vn 0.00000000 1.00000000 0.00000000
vn 0.00000000 1.00000000 0.00000000
vn 0.00000000 0.70710678 -0.70710678
vn 0.00000000 0.70710678 -0.70710678
vn 0.00000000 0.70710678 -0.70710678
vn 0.00000000 0.70710678 -0.70710678
vn 0.00000000 0.00000000 -1.00000000
vn 0.00000000 0.00000000 -1.00000000
vn 0.00000000 0.00000000 -1.00000000
vn 0.00000000 0.00000000 -1.00000000
vn 0.00000000 1.00000000 0.00000000
vn 0.00000000 1.00000000 0.00000000
vn 0.00000000 1.00000000 0.00000000
vn 0.00000000 1.00000000 0.00000000
vn 0.00000000 -0.00000000 -1.00000000
vn 0.00000000 -0.00000000 -1.00000000
vn 0.00000000 -0.00000000 -1.00000000
vn 0.00000000 -0.00000000 -1.00000000
vn 0.00000000 -0.89442719 0.44721360
vn 0.00000000 -0.89442719 0.44721360
vn 0.00000000 -0.89442719 0.44721360
vn 0.00000000 -0.89442719 0.44721360
s 1
usemtl Sandstone_Trim
f 34/34/34 33/33/33 32/32/32
f 2/2/2 34/34/34 31/31/31
f 31/31/31 29/29/29 28/28/28
f 28/28/28 26/26/26 25/25/25
f 25/25/25 23/23/23 22/22/22
f 22/22/22 19/19/19 3/3/3
f 16/16/16 13/13/13 3/3/3
f 13/13/13 11/11/11 10/10/10
f 10/10/10 8/8/8 7/7/7
f 7/7/7 5/5/5 4/4/4
f 7/7/7 6/6/6 5/5/5
f 10/10/10 9/9/9 8/8/8
f 13/13/13 12/12/12 11/11/11
f 16/16/16 14/14/14 13/13/13
f 16/16/16 15/15/15 14/14/14
f 13/13/13 10/10/10 3/3/3
f 10/10/10 7/7/7 3/3/3
f 7/7/7 4/4/4 3/3/3
f 19/19/19 16/16/16 3/3/3
f 19/19/19 17/17/17 16/16/16
f 19/19/19 18/18/18 17/17/17
f 22/22/22 20/20/20 19/19/19
f 22/22/22 21/21/21 20/20/20
f 25/25/25 24/24/24 23/23/23
f 28/28/28 27/27/27 26/26/26
f 31/31/31 30/30/30 29/29/29
f 22/22/22 3/3/3 2/2/2
f 2/2/2 25/25/25 22/22/22
f 2/2/2 28/28/28 25/25/25
f 2/2/2 31/31/31 28/28/28
f 34/34/34 32/32/32 31/31/31
f 2/2/2 1/1/1 34/34/34
s 2
f 35/35/35 3/36/36 36/38/38
f 3/36/36 4/37/37 36/38/38
s 3
f 66/70/70 67/71/71 68/72/72
f 65/69/69 68/72/72 38/40/40
f 38/40/40 35/41/41 56/60/60
f 56/60/60 57/61/61 59/63/63
f 59/63/63 60/64/64 62/66/66
f 60/64/64 61/65/65 62/66/66
f 57/61/61 58/62/62 59/63/63
f 53/57/57 54/58/58 56/60/60
f 50/54/54 51/55/55 53/57/57
f 47/51/51 48/52/52 50/54/54
f 44/48/48 45/49/49 47/51/51
f 41/45/45 42/46/46 44/48/48
f 36/42/42 39/43/43 41/45/45
f 39/43/43 40/44/44 41/45/45
f 42/46/46 43/47/47 44/48/48
f 45/49/49 46/50/50 47/51/51
f 48/52/52 49/53/53 50/54/54
f 51/55/55 52/56/56 53/57/57
f 54/58/58 55/59/59 56/60/60
f 35/41/41 53/57/57 56/60/60
f 35/41/41 50/54/54 53/57/57
f 35/41/41 47/51/51 50/54/54
f 35/41/41 44/48/48 47/51/51
f 35/41/41 41/45/45 44/48/48
f 35/41/41 36/42/42 41/45/45
f 56/60/60 59/63/63 38/40/40
f 59/63/63 62/66/66 38/40/40
f 62/66/66 65/69/69 38/40/40
f 62/66/66 63/67/67 65/69/69
f 63/67/67 64/68/68 65/69/69
f 68/72/72 37/39/39 38/40/40
f 65/69/69 66/70/70 68/72/72
s 4
usemtl Sandstone_Floor
f 5/73/73 39/74/74 4/76/76
f 39/74/74 36/75/75 4/76/76
s 5
usemtl Sandstone_Trim
f 39/77/77 5/78/78 6/79/79
f 39/77/77 6/79/79 40/80/80
s 6
f 40/81/81 6/82/82 41/84/84
f 6/82/82 7/83/83 41/84/84
s 7
usemtl Sandstone_Floor
f 8/85/85 42/86/86 7/88/88
f 42/86/86 41/87/87 7/88/88
s 8
usemtl Sandstone_Trim
f 42/89/89 8/90/90 9/91/91
f 42/89/89 9/91/91 43/92/92
s 9
f 43/93/93 9/94/94 10/95/95
f 43/93/93 10/95/95 44/96/96
s 10
usemtl Sandstone_Floor
f 11/97/97 45/98/98 10/100/100
f 45/98/98 44/99/99 10/100/100
s 11
usemtl Sandstone_Trim
f 45/101/101 11/102/102 12/103/103
f 45/101/101 12/103/103 46/104/104
s 12
f 46/105/105 12/106/106 13/107/107
f 46/105/105 13/107/107 47/108/108
s 13
usemtl Sandstone_Floor
f 14/109/109 48/110/110 13/112/112
f 48/110/110 47/111/111 13/112/112
s 14
usemtl Sandstone_Trim
f 48/113/113 14/114/114 15/115/115
f 48/113/113 15/115/115 49/116/116
s 15
f 49/117/117 15/118/118 50/120/120
f 15/118/118 16/119/119 50/120/120
s 16
usemtl Sandstone_Floor
f 17/121/121 51/122/122 16/124/124
f 51/122/122 50/123/123 16/124/124
s 17
usemtl Sandstone_Trim
f 51/125/125 17/126/126 18/127/127
f 51/125/125 18/127/127 52/128/128
s 18
f 52/129/129 18/130/130 19/131/131
f 52/129/129 19/131/131 53/132/132
s 19
usemtl Sandstone_Floor
f 20/133/133 54/134/134 19/136/136
f 54/134/134 53/135/135 19/136/136
s 20
usemtl Sandstone_Trim
f 54/137/137 20/138/138 21/139/139
f 54/137/137 21/139/139 55/140/140
s 21
f 55/141/141 21/142/142 22/143/143
f 55/141/141 22/143/143 56/144/144
s 22
usemtl Sandstone_Floor
f 23/145/145 57/146/146 22/148/148
f 57/146/146 56/147/147 22/148/148
s 23
usemtl Sandstone_Trim
f 57/149/149 23/150/150 24/151/151
f 57/149/149 24/151/151 58/152/152
s 24
f 58/153/153 24/154/154 59/156/156
f 24/154/154 25/155/155 59/156/156
s 25
usemtl Sandstone_Floor
f 26/157/157 60/158/158 25/160/160
f 60/158/158 59/159/159 25/160/160
s 26
usemtl Sandstone_Trim
f 60/161/161 26/162/162 27/163/163
f 60/161/161 27/163/163 61/164/164
s 27
f 61/165/165 27/166/166 62/168/168
f 27/166/166 28/167/167 62/168/168
s 28
usemtl Sandstone_Floor
f 29/169/169 63/170/170 28/172/172
f 63/170/170 62/171/171 28/172/172
s 29
usemtl Sandstone_Trim
f 63/173/173 29/174/174 30/175/175
f 63/173/173 30/175/175 64/176/176
s 30
f 64/177/177 30/178/178 65/180/180
f 30/178/178 31/179/179 65/180/180
s 31
usemtl Sandstone_Floor
f 32/181/181 66/182/182 31/184/184
f 66/182/182 65/183/183 31/184/184
s 32
usemtl Sandstone_Trim
f 66/185/185 32/186/186 33/187/187
f 66/185/185 33/187/187 67/188/188
s 33
f 67/189/189 33/190/190 68/192/192
f 33/190/190 34/191/191 68/192/192
s 34
usemtl Sandstone_Floor
f 1/193/193 37/194/194 34/196/196
f 37/194/194 68/195/195 34/196/196
s 35
usemtl Sandstone_Trim
f 2/200/200 38/199/199 1/197/197
f 38/199/199 37/198/198 1/197/197
s 36
f 35/204/204 38/203/203 2/202/202
f 35/204/204 2/202/202 3/201/201
