mtllib Materials_Modular_Temple.mtl
o object1
g object1
v -0.60000000 0.40000000 -0.04436508
v -0.60000000 0.15000000 -0.50000000
v -0.54698485 0.20000000 -0.50000000
v -0.54698485 0.45000000 -0.06632468
v -0.54698485 0.32500000 -0.28316234
v -0.45000000 0.20000000 -0.50000000
v -0.45000000 0.32500000 -0.30324856
v -0.45000000 0.45000000 -0.10649712
v -0.40000000 0.15000000 -0.50000000
v -0.40000000 0.40000000 -0.12720779
v -0.40000000 0.00000000 -0.12720779
v -0.40000000 0.00000000 -0.50000000
v 0.12720779 0.00000000 0.40000000
v 0.12720779 0.90000000 0.40000000
v -0.13639610 0.65000000 0.13639610
v 0.50000000 -0.00000000 0.40000000
v 0.50000000 1.15000000 0.40000000
v 0.50000000 1.15000000 0.60000000
v 0.50000000 1.20000000 0.54698485
v 0.50000000 1.20000000 0.45000000
v 0.50000000 0.00000000 0.60000000
v 0.04436508 -0.00000000 0.60000000
v 0.04436508 0.90000000 0.60000000
v -0.60000000 0.00000000 -0.04436508
v -0.27781746 0.65000000 0.27781746
v 0.06632468 0.95000000 0.54698485
v 0.28316234 1.07500000 0.54698485
v 0.10649712 0.95000000 0.45000000
v 0.30324856 1.07500000 0.45000000
v -0.60000000 0.00000000 -0.50000000
v -0.17175144 0.70000000 0.17175144
v -0.26450096 0.61666667 0.07900192
v -0.07900192 0.78333333 0.26450096
v -0.34254834 0.61666667 0.13811183
v -0.13811183 0.78333333 0.34254834
v -0.24033009 0.70000000 0.24033009
vt 1.00000000 1.00000000
vt 0.00000000 1.00000000
vt 0.00000000 0.00000000
vt 1.00000000 0.00000000
vt 0.50000000 0.00000000
vt 0.50000000 1.00000000
vt 0.00000000 1.00000000
vt 0.00000000 0.00000000
vt 0.50000000 0.00000000
vt 1.00000000 0.00000000
vt 1.00000000 1.00000000
vt 1.00000000 1.00000000
vt 0.00000000 1.00000000
vt 0.00000000 0.00000000
vt 1.00000000 0.00000000
vt 0.50000000 1.00000000
vt 1.00000000 0.00000000
vt 1.00000000 1.00000000
vt 0.00000000 0.84375000
vt 0.00000000 0.00000000
vt 1.00000000 0.00000000
vt 1.00000000 0.93827160
vt 0.00000000 1.00000000
vt 0.00000000 0.00000000
vt 0.50000000 0.00000000
vt 1.00000000 0.00000000
vt 1.00000000 0.98855835
vt 0.00000000 1.00000000
vt 0.00000000 0.00000000
vt 1.00000000 0.95833333
vt 0.73492424 1.00000000
vt 0.25000000 1.00000000
vt 0.00000000 0.95833333
vt 0.00000000 0.00000000
vt 1.00000000 0.00000000
vt 0.00000000 1.00000000
vt 0.00000000 0.00000000
vt 1.00000000 0.01144165
vt 1.00000000 1.00000000
vt 0.00000000 1.00000000
vt 0.00000000 0.00000000
vt 1.00000000 0.06172840
vt 1.00000000 1.00000000
vt 0.50000000 1.00000000
vt 1.00000000 1.00000000
vt 0.00000000 1.00000000
vt 0.00000000 0.00000000
vt 1.00000000 0.00000000
vt 0.50000000 0.00000000
vt 0.50000000 1.00000000
vt 0.00000000 1.00000000
vt 0.00000000 0.00000000
vt 0.50000000 0.00000000
vt 1.00000000 0.00000000
vt 1.00000000 1.00000000
vt 1.00000000 1.00000000
vt 0.00000000 1.00000000
vt 0.00000000 0.00000000
vt 1.00000000 0.00000000
vt 0.50000000 1.00000000
vt 0.33890201 0.81818182
vt 0.81818182 0.33890201
vt 0.81818182 0.00000000
vt 1.00000000 0.00000000
vt 1.00000000 0.41421356
vt 0.41421356 1.00000000
vt 0.00000000 1.00000000
vt 0.00000000 0.81818182
vt 0.50000000 1.00000000
vt 0.00000000 1.00000000
vt 0.00000000 0.00000000
vt 0.50000000 0.00000000
vt 1.00000000 0.00000000
vt 1.00000000 1.00000000
vt 0.33333333 1.00000000
vt 0.66666667 1.00000000
vt 0.33333333 1.00000000
vt 0.00000000 1.00000000
vt 0.00000000 0.00000000
vt 0.33333333 0.00000000
vt 0.66666667 0.00000000
vt 0.66666667 1.00000000
vt 1.00000000 0.00000000
vt 1.00000000 1.00000000
vt 0.50000000 1.00000000
vt 0.50000000 0.00000000
vt 0.50000000 1.00000000
vt 0.00000000 1.00000000
vt 0.00000000 0.00000000
vt 0.50000000 0.00000000
vt 1.00000000 0.00000000
vt 1.00000000 1.00000000
vt 0.33333333 0.00000000
vt 0.66666667 0.00000000
vt 0.00000000 1.00000000
vt 0.00000000 0.15625000
vt 1.00000000 0.00000000
vt 1.00000000 1.00000000
vt 0.75000000 0.00000000
vt 1.00000000 0.26507576
vt 1.00000000 0.75000000
vt 0.75000000 1.00000000
vt 0.00000000 1.00000000
vt 0.00000000 0.00000000
vn -0.71615345 0.61188812 -0.33573377
vn -0.63722692 0.67565364 -0.37072095
vn -0.63272820 0.67088363 -0.38674303
vn -0.71542507 0.60531392 -0.34894418
vn -0.67726299 0.63741375 -0.36744871
vn -0.10288575 0.86175855 -0.49677633
vn 0.00000000 0.86635615 -0.49942670
vn 0.00000000 0.84406049 -0.53624797
vn -0.11038193 0.83890264 -0.53297109
vn -0.21683646 0.82397856 -0.52348953
vn -0.20258002 0.84839287 -0.48907144
vn 0.52812869 0.71674608 -0.45536266
vn 0.64500953 0.64500953 -0.40978704
vn 0.63891251 0.63891251 -0.42846424
vn 0.51438852 0.71223025 -0.47763220
vn 0.59118877 0.68076283 -0.43250180
vn 1.00000000 0.00000000 0.00000000
vn 1.00000000 0.00000000 0.00000000
vn 1.00000000 -0.00000000 0.00000000
vn 1.00000000 -0.00000000 0.00000000
vn 0.70710678 0.00000000 -0.70710678
vn 0.70710678 0.00000000 -0.70710678
vn 0.70710678 0.00000000 -0.70710678
vn 0.70710678 0.00000000 -0.70710678
vn 0.70710678 0.00000000 -0.70710678
vn 0.00000000 0.00000000 -1.00000000
vn 0.00000000 0.00000000 -1.00000000
vn 0.00000000 0.00000000 -1.00000000
vn 0.00000000 0.00000000 -1.00000000
vn 1.00000000 -0.00000000 -0.00000000
vn 1.00000000 -0.00000000 -0.00000000
vn 1.00000000 -0.00000000 -0.00000000
vn 1.00000000 -0.00000000 -0.00000000
vn 1.00000000 -0.00000000 -0.00000000
vn 1.00000000 -0.00000000 -0.00000000
vn 0.00000000 0.00000000 1.00000000
vn 0.00000000 0.00000000 1.00000000
vn 0.00000000 0.00000000 1.00000000
vn 0.00000000 0.00000000 1.00000000
vn -0.70710678 0.00000000 0.70710678
vn -0.70710678 0.00000000 0.70710678
vn -0.70710678 0.00000000 0.70710678
vn -0.70710678 0.00000000 0.70710678
vn -0.70710678 0.00000000 0.70710678
vn -0.37072095 0.67565364 0.63722692
vn -0.40744032 0.74257615 0.53157601
vn -0.42632177 0.73954093 0.52089246
vn -0.38674303 0.67088363 0.63272820
vn -0.40652264 0.70519534 0.58089489
vn -0.49677633 0.86175855 -0.10288575
vn -0.48907144 0.84839287 -0.20258002
vn -0.52348953 0.82397856 -0.21683646
vn -0.53297109 0.83890264 -0.11038193
vn -0.53624797 0.84406049 0.00000000
vn -0.49942670 0.86635615 0.00000000
vn -0.40978704 0.64500953 -0.64500953
vn -0.36685081 0.57742740 -0.72938198
vn -0.38196700 0.56957728 -0.72779319
vn -0.42846424 0.63891251 -0.63891251
vn -0.38778644 0.61038032 -0.69069352
vn 0.00000000 -1.00000000 0.00000000
vn 0.00000000 -1.00000000 0.00000000
vn 0.00000000 -1.00000000 0.00000000
vn 0.00000000 -1.00000000 0.00000000
vn 0.00000000 -1.00000000 0.00000000
vn 0.00000000 -1.00000000 0.00000000
vn 0.00000000 -1.00000000 0.00000000
vn 0.00000000 -1.00000000 0.00000000
vn 0.16632742 0.64500953 -0.74585381
vn 0.25634825 0.57742740 -0.77515364
vn 0.24453605 0.56957728 -0.78471896
vn 0.14880940 0.63891251 -0.75474934
vn 0.02599064 0.71223025 -0.70146458
vn 0.05145335 0.71674608 -0.69543340
vn 0.19889742 0.62175831 -0.75753312
vn 0.13097224 0.66876740 -0.73184454
vn -0.30366733 0.86430370 -0.40095543
vn -0.32593794 0.84175640 -0.43036104
vn -0.43036104 0.84175640 -0.32593794
vn -0.40095543 0.86430370 -0.30366733
vn -0.35314801 0.86635615 -0.35314801
vn -0.37918458 0.84406049 -0.37918458
vn -0.71272677 0.67565364 0.18844818
vn -0.66398481 0.74257615 0.08777719
vn -0.66978161 0.73954093 0.06687158
vn -0.72087502 0.67088363 0.17393778
vn -0.75262271 0.60531392 0.25914112
vn -0.74379659 0.61188812 0.26899733
vn -0.70635750 0.69370806 0.14081267
vn -0.73325299 0.64843914 0.20461361
vn -1.00000000 0.00000000 0.00000000
vn -1.00000000 0.00000000 0.00000000
vn -1.00000000 0.00000000 0.00000000
vn -1.00000000 0.00000000 0.00000000
vn 0.00000000 -0.00000000 -1.00000000
vn 0.00000000 -0.00000000 -1.00000000
vn 0.00000000 -0.00000000 -1.00000000
vn 0.00000000 -0.00000000 -1.00000000
vn 0.00000000 -0.00000000 -1.00000000
vn 0.00000000 -0.00000000 -1.00000000
s 1
usemtl Sandstone_Trim
f 1/1/1 4/4/4 5/5/5
f 5/5/5 3/3/3 2/2/2
f 5/5/5 2/2/2 1/1/1
s 2
f 7/9/9 6/8/8 3/7/7
f 5/6/6 8/10/10 7/9/9
f 8/79/10 4/78/11 34/77/77
f 34/77/77 36/85/81 31/86/82
f 35/82/80 33/81/79 31/86/82
f 35/82/80 28/83/52 33/81/79
f 28/52/52 26/51/51 27/50/50
f 27/50/50 19/55/55 29/53/53
f 19/55/55 20/54/54 29/53/53
f 29/53/53 28/52/52 27/50/50
f 35/82/80 26/84/51 28/83/52
f 36/85/81 35/82/80 31/86/82
f 31/86/82 32/80/78 34/77/77
f 32/80/78 8/79/10 34/77/77
f 5/6/6 4/11/11 8/10/10
f 7/9/9 3/7/7 5/6/6
s 3
f 7/16/16 8/12/12 10/15/15
f 10/15/15 9/14/14 7/16/16
f 9/14/14 6/13/13 7/16/16
s 4
f 10/17/17 11/18/18 9/20/20
f 11/18/18 12/19/19 9/20/20
s 5
f 11/22/22 10/21/21 15/25/25
f 15/25/25 14/24/24 13/23/23
f 13/23/23 11/22/22 15/25/25
s 6
f 17/29/29 16/28/28 14/26/26
f 16/28/28 13/27/27 14/26/26
s 7
f 17/33/33 20/32/32 19/31/31
f 21/35/35 16/34/34 17/33/33
f 17/33/33 18/30/30 21/35/35
f 17/33/33 19/31/31 18/30/30
s 8
f 23/39/39 22/38/38 21/37/37
f 23/39/39 21/37/37 18/36/36
s 9
f 25/44/44 1/43/43 24/42/42
f 24/42/42 22/41/41 25/44/44
f 22/41/41 23/40/40 25/44/44
s 10
f 18/45/45 19/48/48 27/49/49
f 27/49/49 26/47/47 23/46/46
f 27/49/49 23/46/46 18/45/45
s 11
f 29/60/60 20/56/56 17/59/59
f 17/59/59 14/58/58 29/60/60
f 14/58/58 28/57/57 29/60/60
s 12
f 30/67/67 12/68/68 11/61/61
f 24/66/66 11/61/61 13/62/62
f 13/62/62 21/64/64 22/65/65
f 13/62/62 16/63/63 21/64/64
f 13/62/62 22/65/65 24/66/66
f 24/66/66 30/67/67 11/61/61
s 13
f 32/75/75 31/69/69 15/72/72
f 33/76/76 14/73/73 15/72/72
f 33/76/76 28/74/74 14/73/73
f 15/72/72 31/69/69 33/76/76
f 15/72/72 10/71/71 32/75/75
f 10/71/71 8/70/70 32/75/75
s 14
f 25/87/83 36/90/86 34/93/89
f 34/93/89 4/89/85 1/88/84
f 25/87/83 23/92/88 35/94/90
f 23/92/88 26/91/87 35/94/90
f 35/94/90 36/90/86 25/87/83
f 1/88/84 25/87/83 34/93/89
s 15
f 2/95/91 30/96/92 24/97/93
f 2/95/91 24/97/93 1/98/94
s 16
f 3/100/96 6/101/97 9/102/98
f 9/102/98 12/103/99 30/104/100
f 30/104/100 2/99/95 9/102/98
f 2/99/95 3/100/96 9/102/98
