mtllib Materials_Modular_Temple.mtl
o object1
g object1
v -0.60000000 1.00000000 1.50000000
v -0.60000000 1.00000000 -0.50000000
v -0.60000000 -0.00000000 -0.50000000
v 0.60000000 1.00000000 1.50000000
v 0.60000000 1.00000000 -0.50000000
v 0.60000000 -0.00000000 -0.50000000
vt 0.00000000 0.00000000
vt 1.00000000 0.00000000
vt 1.00000000 1.00000000
vt 1.00000000 0.00000000
vt 1.00000000 1.00000000
vt 0.00000000 1.00000000
vt 0.00000000 0.00000000
vt 0.00000000 0.00000000
vt 1.00000000 0.00000000
vt 1.00000000 1.00000000
vt 1.00000000 0.00000000
vt 1.00000000 1.00000000
vt 0.00000000 1.00000000
vt 0.00000000 0.00000000
vt 1.00000000 0.00000000
vt 1.00000000 1.00000000
vt 0.00000000 1.00000000
vt 0.00000000 0.00000000
vn -1.00000000 0.00000000 0.00000000
vn -1.00000000 0.00000000 0.00000000
vn -1.00000000 0.00000000 0.00000000
vn 0.00000000 1.00000000 -0.00000000
vn 0.00000000 1.00000000 -0.00000000
vn 0.00000000 1.00000000 -0.00000000
vn 0.00000000 1.00000000 -0.00000000
vn 1.00000000 0.00000000 0.00000000
vn 1.00000000 0.00000000 0.00000000
vn 1.00000000 0.00000000 0.00000000
vn 0.00000000 -0.89442719 0.44721360
vn 0.00000000 -0.89442719 0.44721360
vn 0.00000000 -0.89442719 0.44721360
vn 0.00000000 -0.89442719 0.44721360
vn 0.00000000 0.00000000 -1.00000000
vn 0.00000000 0.00000000 -1.00000000
vn 0.00000000 0.00000000 -1.00000000
vn 0.00000000 0.00000000 -1.00000000
s 1
usemtl Sandstone_Trim
f 1/1/1 2/2/2 3/3/3
s 2
usemtl Sandstone_Floor
f 4/4/4 5/5/5 1/7/7
f 5/5/5 2/6/6 1/7/7
s 3
usemtl Sandstone_Trim
f 6/10/10 5/9/9 4/8/8
s 4
f 6/11/11 4/12/12 3/14/14
f 4/12/12 1/13/13 3/14/14
s 5
f 5/15/15 6/16/16 2/18/18
f 6/16/16 3/17/17 2/18/18
