mtllib Materials_Modular_Temple.mtl
o object1
g object1
v -0.00000000 -0.00000000 0.50000000
v -0.00000000 1.00000000 0.50000000
v 0.25000000 1.00000000 0.43301270
v 0.25000000 -0.00000000 0.43301270
v 0.43301270 1.00000000 0.25000000
v 0.43301270 -0.00000000 0.25000000
v 0.50000000 1.00000000 0.00000000
v 0.50000000 -0.00000000 0.00000000
v 0.43301270 1.00000000 -0.25000000
v 0.43301270 -0.00000000 -0.25000000
v 0.25000000 1.00000000 -0.43301270
v 0.25000000 -0.00000000 -0.43301270
v -0.00000000 1.00000000 -0.50000000
v -0.00000000 -0.00000000 -0.50000000
v -0.25000000 1.00000000 -0.43301270
v -0.25000000 -0.00000000 -0.43301270
v -0.43301270 1.00000000 -0.25000000
v -0.43301270 -0.00000000 -0.25000000
v -0.50000000 1.00000000 0.00000000
v -0.50000000 -0.00000000 0.00000000
v -0.43301270 1.00000000 0.25000000
v -0.43301270 -0.00000000 0.25000000
v -0.25000000 1.00000000 0.43301270
v -0.25000000 -0.00000000 0.43301270
v -0.00000000 -0.00000000 0.00000000
v -0.00000000 1.00000000 0.00000000
vt 0.00000000 0.00000000
vt 1.00000000 0.00000000
vt 1.00000000 1.00000000
vt 0.00000000 1.00000000
vt 0.00000000 0.00000000
vt 1.00000000 0.00000000
vt 1.00000000 1.00000000
vt 0.00000000 1.00000000
vt 0.00000000 0.00000000
vt 1.00000000 0.00000000
vt 1.00000000 1.00000000
vt 0.00000000 1.00000000
vt 0.00000000 0.00000000
vt 1.00000000 0.00000000
vt 1.00000000 1.00000000
vt 0.00000000 1.00000000
vt 0.00000000 0.00000000
vt 1.00000000 0.00000000
vt 1.00000000 1.00000000
vt 0.00000000 1.00000000
vt 0.00000000 0.00000000
vt 1.00000000 0.00000000
vt 1.00000000 1.00000000
vt 0.00000000 1.00000000
vt 0.00000000 0.00000000
vt 1.00000000 0.00000000
vt 1.00000000 1.00000000
vt 0.00000000 1.00000000
vt 0.00000000 0.00000000
vt 1.00000000 0.00000000
vt 1.00000000 1.00000000
vt 0.00000000 1.00000000
vt 0.00000000 0.00000000
vt 1.00000000 0.00000000
vt 1.00000000 1.00000000
vt 0.00000000 1.00000000
vt 0.00000000 0.00000000
vt 1.00000000 0.00000000
vt 1.00000000 1.00000000
vt 0.00000000 1.00000000
vt 0.00000000 0.00000000
vt 1.00000000 0.00000000
vt 1.00000000 1.00000000
vt 0.00000000 1.00000000
vt 0.00000000 0.63397460
vt 0.00000000 0.36602540
vt 0.13397460 0.13397460
vt 0.36602540 0.00000000
vt 0.63397460 0.00000000
vt 0.86602540 0.13397460
vt 1.00000000 0.36602540
vt 1.00000000 0.63397460
vt 0.86602540 0.86602540
vt 0.63397460 1.00000000
vt 0.36602540 1.00000000
vt 0.13397460 0.86602540
vt 0.50000000 0.50000000
vt 0.00000000 0.00000000
vt 1.00000000 0.00000000
vt 1.00000000 1.00000000
vt 0.00000000 1.00000000
vt 0.00000000 0.63397460
vt 0.00000000 0.36602540
vt 0.13397460 0.13397460
vt 0.36602540 0.00000000
vt 0.63397460 0.00000000
vt 0.86602540 0.13397460
vt 1.00000000 0.36602540
vt 1.00000000 0.63397460
vt 0.86602540 0.86602540
vt 0.63397460 1.00000000
vt 0.36602540 1.00000000
vt 0.13397460 0.86602540
vt 0.50000000 0.50000000
vn 0.25881905 0.00000000 0.96592583
vn 0.25881905 0.00000000 0.96592583
vn 0.25881905 0.00000000 0.96592583
vn 0.25881905 0.00000000 0.96592583
vn 0.70710678 0.00000000 0.70710678
vn 0.70710678 0.00000000 0.70710678
vn 0.70710678 0.00000000 0.70710678
vn 0.70710678 0.00000000 0.70710678
vn 0.96592583 0.00000000 0.25881905
vn 0.96592583 0.00000000 0.25881905
vn 0.96592583 0.00000000 0.25881905
vn 0.96592583 0.00000000 0.25881905
vn 0.96592583 0.00000000 -0.25881905
vn 0.96592583 0.00000000 -0.25881905
vn 0.96592583 0.00000000 -0.25881905
vn 0.96592583 0.00000000 -0.25881905
vn 0.70710678 0.00000000 -0.70710678
vn 0.70710678 0.00000000 -0.70710678
vn 0.70710678 0.00000000 -0.70710678
vn 0.70710678 0.00000000 -0.70710678
vn 0.25881905 0.00000000 -0.96592583
vn 0.25881905 0.00000000 -0.96592583
vn 0.25881905 0.00000000 -0.96592583
vn 0.25881905 0.00000000 -0.96592583
vn -0.25881905 0.00000000 -0.96592583
vn -0.25881905 0.00000000 -0.96592583
vn -0.25881905 0.00000000 -0.96592583
vn -0.25881905 0.00000000 -0.96592583
vn -0.70710678 0.00000000 -0.70710678
vn -0.70710678 0.00000000 -0.70710678
vn -0.70710678 0.00000000 -0.70710678
vn -0.70710678 0.00000000 -0.70710678
vn -0.96592583 0.00000000 -0.25881905
vn -0.96592583 0.00000000 -0.25881905
vn -0.96592583 0.00000000 -0.25881905
vn -0.96592583 0.00000000 -0.25881905
vn -0.96592583 0.00000000 0.25881905
vn -0.96592583 0.00000000 0.25881905
vn -0.96592583 0.00000000 0.25881905
vn -0.96592583 0.00000000 0.25881905
vn -0.70710678 0.00000000 0.70710678
vn -0.70710678 0.00000000 0.70710678
vn -0.70710678 0.00000000 0.70710678
vn -0.70710678 0.00000000 0.70710678
vn 0.00000000 -1.00000000 0.00000000
vn 0.00000000 -1.00000000 0.00000000
vn 0.00000000 -1.00000000 0.00000000
vn 0.00000000 -1.00000000 0.00000000
vn 0.00000000 -1.00000000 0.00000000
vn 0.00000000 -1.00000000 0.00000000
vn 0.00000000 -1.00000000 0.00000000
vn 0.00000000 -1.00000000 0.00000000
vn 0.00000000 -1.00000000 0.00000000
vn 0.00000000 -1.00000000 0.00000000
vn 0.00000000 -1.00000000 0.00000000
vn 0.00000000 -1.00000000 0.00000000
vn 0.00000000 -1.00000000 0.00000000
vn -0.25881905 0.00000000 0.96592583
vn -0.25881905 0.00000000 0.96592583
vn -0.25881905 0.00000000 0.96592583
vn -0.25881905 0.00000000 0.96592583
vn 0.00000000 1.00000000 0.00000000
vn 0.00000000 1.00000000 0.00000000
vn 0.00000000 1.00000000 0.00000000
vn 0.00000000 1.00000000 0.00000000
vn 0.00000000 1.00000000 0.00000000
vn 0.00000000 1.00000000 0.00000000
vn 0.00000000 1.00000000 0.00000000
vn 0.00000000 1.00000000 0.00000000
vn 0.00000000 1.00000000 0.00000000
vn 0.00000000 1.00000000 0.00000000
vn 0.00000000 1.00000000 0.00000000
vn 0.00000000 1.00000000 0.00000000
vn 0.00000000 1.00000000 0.00000000
s 1
usemtl Sandstone_Trim
f 4/4/4 3/3/3 2/2/2
f 4/4/4 2/2/2 1/1/1
s 2
f 6/8/8 5/7/7 3/6/6
f 6/8/8 3/6/6 4/5/5
s 3
f 8/12/12 7/11/11 5/10/10
f 8/12/12 5/10/10 6/9/9
s 4
f 10/16/16 9/15/15 8/13/13
f 9/15/15 7/14/14 8/13/13
s 5
f 12/20/20 11/19/19 10/17/17
f 11/19/19 9/18/18 10/17/17
s 6
f 14/24/24 13/23/23 12/21/21
f 13/23/23 11/22/22 12/21/21
s 7
f 16/28/28 15/27/27 13/26/26
f 16/28/28 13/26/26 14/25/25
s 8
f 18/32/32 17/31/31 16/29/29
f 17/31/31 15/30/30 16/29/29
s 9
f 20/36/36 19/35/35 18/33/33
f 19/35/35 17/34/34 18/33/33
s 10
f 22/40/40 21/39/39 20/37/37
f 21/39/39 19/38/38 20/37/37
s 11
f 24/44/44 23/43/43 22/41/41
f 23/43/43 21/42/42 22/41/41
s 12
f 22/56/56 20/55/55 25/57/57
f 1/46/46 24/45/45 25/57/57
f 4/47/47 1/46/46 25/57/57
f 6/48/48 4/47/47 25/57/57
f 8/49/49 6/48/48 25/57/57
f 10/50/50 8/49/49 25/57/57
f 12/51/51 10/50/50 25/57/57
f 14/52/52 12/51/51 25/57/57
f 16/53/53 14/52/52 25/57/57
f 18/54/54 16/53/53 25/57/57
f 20/55/55 18/54/54 25/57/57
f 24/45/45 22/56/56 25/57/57
s 13
f 1/61/61 2/60/60 24/58/58
f 2/60/60 23/59/59 24/58/58
s 14
usemtl Sandstone_Floor
f 23/62/62 2/63/63 26/74/74
f 19/72/72 21/73/73 26/74/74
f 17/71/71 19/72/72 26/74/74
f 15/70/70 17/71/71 26/74/74
f 13/69/69 15/70/70 26/74/74
f 11/68/68 13/69/69 26/74/74
f 9/67/67 11/68/68 26/74/74
f 7/66/66 9/67/67 26/74/74
f 5/65/65 7/66/66 26/74/74
f 3/64/64 5/65/65 26/74/74
f 2/63/63 3/64/64 26/74/74
f 21/73/73 23/62/62 26/74/74
