mtllib Materials_Modular_Temple.mtl
o object1
g object1
v -1.08145584 -0.20000000 -1.03986450
v -0.96915382 -0.20000000 -1.15216652
v -0.15598102 -0.20000000 -0.33899372
v -0.26828305 -0.20000000 -0.22669170
v -0.96915382 2.00000000 -1.15216652
v -1.15216652 -0.10000000 -0.96915382
v -1.15216652 2.00000000 -0.96915382
v -0.15598102 2.00000000 -0.33899372
v -0.33899372 2.00000000 -0.15598102
v -0.33899372 -0.10000000 -0.15598102
vt 1.00000000 0.00000000
vt 1.00000000 1.00000000
vt 0.00000000 1.00000000
vt 0.00000000 0.00000000
vt 1.00000000 1.00000000
vt 0.00000000 1.00000000
vt 0.00000000 0.38637033
vt 0.04545455 0.00000000
vt 1.00000000 0.00000000
vt 1.00000000 1.00000000
vt 0.00000000 1.00000000
vt 0.00000000 0.00000000
vt 1.00000000 0.00000000
vt 1.00000000 0.00000000
vt 1.00000000 1.00000000
vt 0.00000000 1.00000000
vt 0.00000000 0.00000000
vt 1.00000000 0.00000000
vt 1.00000000 1.00000000
vt 0.00000000 1.00000000
vt 0.00000000 0.00000000
vt 1.00000000 1.00000000
vt 0.00000000 1.00000000
vt 0.00000000 0.38637033
vt 0.04545455 0.00000000
vt 1.00000000 0.00000000
vt 1.00000000 1.00000000
vt 0.00000000 1.00000000
vt 0.00000000 0.00000000
vt 1.00000000 0.00000000
vn -0.00000000 -1.00000000 0.00000000
vn -0.00000000 -1.00000000 0.00000000
vn -0.00000000 -1.00000000 0.00000000
vn -0.00000000 -1.00000000 0.00000000
vn -0.70710678 0.00000000 -0.70710678
vn -0.70710678 0.00000000 -0.70710678
vn -0.70710678 0.00000000 -0.70710678
vn -0.70710678 0.00000000 -0.70710678
vn -0.70710678 0.00000000 -0.70710678
vn -0.00000000 1.00000000 -0.00000000
vn -0.00000000 1.00000000 -0.00000000
vn -0.00000000 1.00000000 -0.00000000
vn -0.00000000 1.00000000 -0.00000000
vn -0.70710678 -0.00000000 0.70710678
vn -0.70710678 -0.00000000 0.70710678
vn -0.70710678 -0.00000000 0.70710678
vn -0.70710678 -0.00000000 0.70710678
vn -0.50000000 -0.70710678 0.50000000
vn -0.50000000 -0.70710678 0.50000000
vn -0.50000000 -0.70710678 0.50000000
vn -0.50000000 -0.70710678 0.50000000
vn 0.70710678 -0.00000000 0.70710678
vn 0.70710678 -0.00000000 0.70710678
vn 0.70710678 -0.00000000 0.70710678
vn 0.70710678 -0.00000000 0.70710678
vn 0.70710678 -0.00000000 0.70710678
vn 0.70710678 0.00000000 -0.70710678
vn 0.70710678 0.00000000 -0.70710678
vn 0.70710678 0.00000000 -0.70710678
vn 0.70710678 0.00000000 -0.70710678
s 1
usemtl Sandstone_Trim
f 1/1/1 2/2/2 3/3/3
f 1/1/1 3/3/3 4/4/4
s 2
f 2/6/6 1/7/7 6/8/8
f 6/8/8 7/9/9 5/5/5
f 5/5/5 2/6/6 6/8/8
s 3
usemtl Sandstone_Floor
f 7/13/13 9/12/12 8/11/11
f 7/13/13 8/11/11 5/10/10
s 4
usemtl Sandstone_Trim
f 10/17/17 9/16/16 7/15/15
f 10/17/17 7/15/15 6/14/14
s 5
f 6/18/18 1/19/19 4/20/20
f 6/18/18 4/20/20 10/21/21
s 6
f 10/25/25 4/24/24 3/23/23
f 10/25/25 3/23/23 8/22/22
f 8/22/22 9/26/26 10/25/25
s 7
f 5/27/27 8/28/28 3/29/29
f 5/27/27 3/29/29 2/30/30
o object2
g object2
v 0.62132034 0.00000000 -1.50000000
v 1.06066017 0.00000000 -1.06066017
v -0.00000000 0.00000000 0.00000000
v -1.06066017 0.00000000 -1.06066017
v -0.62132034 0.00000000 -1.50000000
v -1.06066017 -0.20000000 -1.06066017
v -0.00000000 -0.20000000 0.00000000
v 0.62132034 -0.20000000 -1.50000000
v 1.06066017 -0.20000000 -1.06066017
v -0.62132034 -0.20000000 -1.50000000
vt 0.41421356 1.00000000
vt 0.00000000 1.00000000
vt 0.00000000 0.00000000
vt 1.00000000 0.00000000
vt 1.00000000 0.41421356
vt 1.00000000 0.00000000
vt 1.00000000 1.00000000
vt 0.00000000 1.00000000
vt 0.00000000 0.00000000
vt 0.41421356 1.00000000
vt 0.00000000 1.00000000
vt 0.00000000 0.00000000
vt 1.00000000 0.00000000
vt 1.00000000 0.41421356
vt 1.00000000 0.00000000
vt 1.00000000 1.00000000
vt 0.00000000 1.00000000
vt 0.00000000 0.00000000
vt 1.00000000 1.00000000
vt 0.00000000 1.00000000
vt 0.00000000 0.00000000
vt 1.00000000 0.00000000
vt 1.00000000 1.00000000
vt 0.00000000 1.00000000
vt 0.00000000 0.00000000
vt 1.00000000 0.00000000
vt 0.00000000 1.00000000
vt 0.00000000 0.00000000
vt 1.00000000 0.00000000
vt 1.00000000 1.00000000
vn 0.00000000 1.00000000 0.00000000
vn 0.00000000 1.00000000 0.00000000
vn 0.00000000 1.00000000 0.00000000
vn 0.00000000 1.00000000 0.00000000
vn 0.00000000 1.00000000 0.00000000
vn -0.70710678 0.00000000 0.70710678
vn -0.70710678 0.00000000 0.70710678
vn -0.70710678 0.00000000 0.70710678
vn -0.70710678 0.00000000 0.70710678
vn 0.00000000 -1.00000000 0.00000000
vn 0.00000000 -1.00000000 0.00000000
vn 0.00000000 -1.00000000 0.00000000
vn 0.00000000 -1.00000000 0.00000000
vn 0.00000000 -1.00000000 0.00000000
vn -0.70710678 0.00000000 -0.70710678
vn -0.70710678 0.00000000 -0.70710678
vn -0.70710678 0.00000000 -0.70710678
vn -0.70710678 0.00000000 -0.70710678
vn -0.00000000 0.00000000 -1.00000000
vn -0.00000000 0.00000000 -1.00000000
vn -0.00000000 0.00000000 -1.00000000
vn -0.00000000 0.00000000 -1.00000000
vn 0.70710678 0.00000000 -0.70710678
vn 0.70710678 0.00000000 -0.70710678
vn 0.70710678 0.00000000 -0.70710678
vn 0.70710678 0.00000000 -0.70710678
vn 0.70710678 0.00000000 0.70710678
vn 0.70710678 0.00000000 0.70710678
vn 0.70710678 0.00000000 0.70710678
vn 0.70710678 0.00000000 0.70710678
s 1
usemtl Sandstone_Floor
f 11/31/31 15/35/35 14/34/34
f 14/34/34 13/33/33 11/31/31
f 13/33/33 12/32/32 11/31/31
s 2
usemtl Sandstone_Trim
f 13/36/36 14/37/37 16/38/38
f 13/36/36 16/38/38 17/39/39
s 3
f 16/43/43 20/44/44 18/40/40
f 18/40/40 19/41/41 17/42/42
f 18/40/40 17/42/42 16/43/43
s 4
f 14/48/48 15/47/47 16/45/45
f 15/47/47 20/46/46 16/45/45
s 5
f 20/52/52 15/51/51 18/49/49
f 15/51/51 11/50/50 18/49/49
s 6
f 18/56/56 11/55/55 19/53/53
f 11/55/55 12/54/54 19/53/53
s 7
f 17/60/60 19/59/59 13/57/57
f 19/59/59 12/58/58 13/57/57
o object3
g object3
v 0.00000000 2.00000000 0.50000000
v 0.00000000 0.00000000 0.50000000
v 0.25000000 0.00000000 0.43301270
v 0.25000000 2.00000000 0.43301270
v -0.25000000 2.00000000 0.43301270
v -0.25000000 0.00000000 0.43301270
v -0.43301270 2.00000000 0.25000000
v -0.43301270 0.00000000 0.25000000
v -0.50000000 2.00000000 0.00000000
v -0.50000000 0.00000000 0.00000000
v -0.43301270 2.00000000 -0.25000000
v -0.43301270 0.00000000 -0.25000000
v -0.25000000 2.00000000 -0.43301270
v -0.25000000 0.00000000 -0.43301270
v 0.00000000 2.00000000 -0.50000000
v 0.00000000 0.00000000 -0.50000000
v 0.25000000 2.00000000 -0.43301270
v 0.25000000 0.00000000 -0.43301270
v 0.43301270 2.00000000 -0.25000000
v 0.43301270 0.00000000 -0.25000000
v 0.50000000 2.00000000 0.00000000
v 0.50000000 0.00000000 0.00000000
v 0.43301270 2.00000000 0.25000000
v 0.43301270 0.00000000 0.25000000
v 0.00000000 2.00000000 0.00000000
v 0.00000000 0.00000000 0.00000000
vt 0.00000000 0.00000000
vt 1.00000000 0.00000000
vt 1.00000000 1.00000000
vt 0.00000000 1.00000000
vt 0.00000000 0.00000000
vt 1.00000000 0.00000000
vt 1.00000000 1.00000000
vt 0.00000000 1.00000000
vt 0.00000000 0.00000000
vt 1.00000000 0.00000000
vt 1.00000000 1.00000000
vt 0.00000000 1.00000000
vt 0.00000000 0.00000000
vt 1.00000000 0.00000000
vt 1.00000000 1.00000000
vt 0.00000000 1.00000000
vt 0.00000000 0.00000000
vt 1.00000000 0.00000000
vt 1.00000000 1.00000000
vt 0.00000000 1.00000000
vt 0.00000000 0.00000000
vt 1.00000000 0.00000000
vt 1.00000000 1.00000000
vt 0.00000000 1.00000000
vt 0.00000000 0.00000000
vt 1.00000000 0.00000000
vt 1.00000000 1.00000000
vt 0.00000000 1.00000000
vt 0.00000000 0.00000000
vt 1.00000000 0.00000000
vt 1.00000000 1.00000000
vt 0.00000000 1.00000000
vt 0.00000000 0.00000000
vt 1.00000000 0.00000000
vt 1.00000000 1.00000000
vt 0.00000000 1.00000000
vt 0.00000000 0.00000000
vt 1.00000000 0.00000000
vt 1.00000000 1.00000000
vt 0.00000000 1.00000000
vt 0.00000000 0.00000000
vt 1.00000000 0.00000000
vt 1.00000000 1.00000000
vt 0.00000000 1.00000000
vt 0.25000000 0.93301270
vt 0.06698730 0.75000000
vt 0.00000000 0.50000000
vt 0.06698730 0.25000000
vt 0.25000000 0.06698730
vt 0.50000000 0.00000000
vt 0.75000000 0.06698730
vt 0.93301270 0.25000000
vt 1.00000000 0.50000000
vt 0.93301270 0.75000000
vt 0.75000000 0.93301270
vt 0.50000000 1.00000000
vt 0.50000000 0.50000000
vt 0.00000000 0.00000000
vt 1.00000000 0.00000000
vt 1.00000000 1.00000000
vt 0.00000000 1.00000000
vt 0.00000000 0.63397460
vt 0.00000000 0.36602540
vt 0.13397460 0.13397460
vt 0.36602540 0.00000000
vt 0.63397460 0.00000000
vt 0.86602540 0.13397460
vt 1.00000000 0.36602540
vt 1.00000000 0.63397460
vt 0.86602540 0.86602540
vt 0.63397460 1.00000000
vt 0.36602540 1.00000000
vt 0.13397460 0.86602540
vt 0.50000000 0.50000000
vn 0.25881905 0.00000000 0.96592583
vn 0.25881905 0.00000000 0.96592583
vn 0.25881905 0.00000000 0.96592583
vn 0.25881905 0.00000000 0.96592583
vn -0.25881905 0.00000000 0.96592583
vn -0.25881905 0.00000000 0.96592583
vn -0.25881905 0.00000000 0.96592583
vn -0.25881905 0.00000000 0.96592583
vn -0.70710678 0.00000000 0.70710678
vn -0.70710678 0.00000000 0.70710678
vn -0.70710678 0.00000000 0.70710678
vn -0.70710678 0.00000000 0.70710678
vn -0.96592583 0.00000000 0.25881905
vn -0.96592583 0.00000000 0.25881905
vn -0.96592583 0.00000000 0.25881905
vn -0.96592583 0.00000000 0.25881905
vn -0.96592583 0.00000000 -0.25881905
vn -0.96592583 0.00000000 -0.25881905
vn -0.96592583 0.00000000 -0.25881905
vn -0.96592583 0.00000000 -0.25881905
vn -0.70710678 0.00000000 -0.70710678
vn -0.70710678 0.00000000 -0.70710678
vn -0.70710678 0.00000000 -0.70710678
vn -0.70710678 0.00000000 -0.70710678
vn -0.25881905 0.00000000 -0.96592583
vn -0.25881905 0.00000000 -0.96592583
vn -0.25881905 0.00000000 -0.96592583
vn -0.25881905 0.00000000 -0.96592583
vn 0.25881905 0.00000000 -0.96592583
vn 0.25881905 0.00000000 -0.96592583
vn 0.25881905 0.00000000 -0.96592583
vn 0.25881905 0.00000000 -0.96592583
vn 0.70710678 0.00000000 -0.70710678
vn 0.70710678 0.00000000 -0.70710678
vn 0.70710678 0.00000000 -0.70710678
vn 0.70710678 0.00000000 -0.70710678
vn 0.96592583 0.00000000 -0.25881905
vn 0.96592583 0.00000000 -0.25881905
vn 0.96592583 0.00000000 -0.25881905
vn 0.96592583 0.00000000 -0.25881905
vn 0.96592583 0.00000000 0.25881905
vn 0.96592583 0.00000000 0.25881905
vn 0.96592583 0.00000000 0.25881905
vn 0.96592583 0.00000000 0.25881905
vn 0.00000000 1.00000000 0.00000000
vn 0.00000000 1.00000000 0.00000000
vn 0.00000000 1.00000000 0.00000000
vn 0.00000000 1.00000000 0.00000000
vn 0.00000000 1.00000000 0.00000000
vn 0.00000000 1.00000000 0.00000000
vn 0.00000000 1.00000000 0.00000000
vn 0.00000000 1.00000000 0.00000000
vn 0.00000000 1.00000000 0.00000000
vn 0.00000000 1.00000000 0.00000000
vn 0.00000000 1.00000000 0.00000000
vn 0.00000000 1.00000000 0.00000000
vn 0.00000000 1.00000000 0.00000000
vn 0.70710678 0.00000000 0.70710678
vn 0.70710678 0.00000000 0.70710678
vn 0.70710678 0.00000000 0.70710678
vn 0.70710678 0.00000000 0.70710678
vn 0.00000000 -1.00000000 0.00000000
vn 0.00000000 -1.00000000 0.00000000
vn 0.00000000 -1.00000000 0.00000000
vn 0.00000000 -1.00000000 0.00000000
vn 0.00000000 -1.00000000 0.00000000
vn 0.00000000 -1.00000000 0.00000000
vn 0.00000000 -1.00000000 0.00000000
vn 0.00000000 -1.00000000 0.00000000
vn 0.00000000 -1.00000000 0.00000000
vn 0.00000000 -1.00000000 0.00000000
vn 0.00000000 -1.00000000 0.00000000
vn 0.00000000 -1.00000000 0.00000000
vn 0.00000000 -1.00000000 0.00000000
s 1
usemtl Sandstone_Trim
f 21/61/61 22/62/62 24/64/64
f 22/62/62 23/63/63 24/64/64
s 2
f 25/65/65 26/66/66 22/67/67
f 25/65/65 22/67/67 21/68/68
s 3
f 27/69/69 28/70/70 25/72/72
f 28/70/70 26/71/71 25/72/72
s 4
f 29/73/73 30/74/74 27/76/76
f 30/74/74 28/75/75 27/76/76
s 5
f 31/77/77 32/78/78 29/80/80
f 32/78/78 30/79/79 29/80/80
s 6
f 33/81/81 34/82/82 31/84/84
f 34/82/82 32/83/83 31/84/84
s 7
f 35/85/85 36/86/86 34/87/87
f 35/85/85 34/87/87 33/88/88
s 8
f 37/89/89 38/90/90 36/91/91
f 37/89/89 36/91/91 35/92/92
s 9
f 39/93/93 40/94/94 38/95/95
f 39/93/93 38/95/95 37/96/96
s 10
f 41/97/97 42/98/98 39/100/100
f 42/98/98 40/99/99 39/100/100
s 11
f 43/101/101 44/102/102 41/104/104
f 44/102/102 42/103/103 41/104/104
s 12
usemtl Sandstone_Floor
f 41/116/116 39/115/115 45/117/117
f 24/106/106 43/105/105 45/117/117
f 21/107/107 24/106/106 45/117/117
f 25/108/108 21/107/107 45/117/117
f 27/109/109 25/108/108 45/117/117
f 29/110/110 27/109/109 45/117/117
f 31/111/111 29/110/110 45/117/117
f 33/112/112 31/111/111 45/117/117
f 35/113/113 33/112/112 45/117/117
f 37/114/114 35/113/113 45/117/117
f 39/115/115 37/114/114 45/117/117
f 43/105/105 41/116/116 45/117/117
s 13
usemtl Sandstone_Trim
f 24/118/118 23/119/119 43/121/121
f 23/119/119 44/120/120 43/121/121
s 14
f 28/133/133 30/132/132 46/134/134
f 22/123/123 26/122/122 46/134/134
f 23/124/124 22/123/123 46/134/134
f 44/125/125 23/124/124 46/134/134
f 42/126/126 44/125/125 46/134/134
f 40/127/127 42/126/126 46/134/134
f 38/128/128 40/127/127 46/134/134
f 36/129/129 38/128/128 46/134/134
f 34/130/130 36/129/129 46/134/134
f 32/131/131 34/130/130 46/134/134
f 30/132/132 32/131/131 46/134/134
f 26/122/122 28/133/133 46/134/134
