mtllib Materials_Modular_Temple.mtl
o object1
g object1
v 1.13137085 2.00000000 -1.13137085
v 0.66274170 2.00000000 -1.60000000
v 0.50000000 2.00000000 -1.60000000
v 0.50000000 2.00000000 -1.40000000
v 0.57989899 2.00000000 -1.40000000
v 0.98994949 2.00000000 -0.98994949
v 1.13137085 -0.00000000 -1.13137085
v 0.66274170 -0.00000000 -1.60000000
v 0.50000000 -0.00000000 -1.60000000
v 0.50000000 -0.00000000 -1.40000000
v 0.57989899 -0.00000000 -1.40000000
v 0.98994949 -0.00000000 -0.98994949
vt 0.23181909 0.00000000
vt 1.00000000 0.74224071
vt 1.00000000 1.00000000
vt 0.67215829 1.00000000
vt 0.67215829 0.87345157
vt 0.00000000 0.22399095
vt 0.00000000 0.00000000
vt 1.00000000 0.00000000
vt 1.00000000 1.00000000
vt 0.00000000 1.00000000
vt 0.23181909 0.00000000
vt 1.00000000 0.74224071
vt 1.00000000 1.00000000
vt 0.67215829 1.00000000
vt 0.67215829 0.87345157
vt 0.00000000 0.22399095
vt 1.00000000 1.00000000
vt 0.00000000 1.00000000
vt 0.00000000 0.00000000
vt 1.00000000 0.00000000
vt 0.00000000 0.00000000
vt 1.00000000 0.00000000
vt 1.00000000 1.00000000
vt 0.00000000 1.00000000
vt 1.00000000 1.00000000
vt 0.00000000 1.00000000
vt 0.00000000 0.00000000
vt 1.00000000 0.00000000
vt 0.00000000 0.00000000
vt 1.00000000 0.00000000
vt 1.00000000 1.00000000
vt 0.00000000 1.00000000
vt 1.00000000 1.00000000
vt 0.00000000 1.00000000
vt 0.00000000 0.00000000
vt 1.00000000 0.00000000
vn 0.00000000 1.00000000 0.00000000
vn 0.00000000 1.00000000 0.00000000
vn 0.00000000 1.00000000 0.00000000
vn 0.00000000 1.00000000 0.00000000
vn 0.00000000 1.00000000 0.00000000
vn 0.00000000 1.00000000 0.00000000
vn 0.70710678 0.00000000 -0.70710678
vn 0.70710678 0.00000000 -0.70710678
vn 0.70710678 0.00000000 -0.70710678
vn 0.70710678 0.00000000 -0.70710678
vn 0.00000000 -1.00000000 0.00000000
vn 0.00000000 -1.00000000 0.00000000
vn 0.00000000 -1.00000000 0.00000000
vn 0.00000000 -1.00000000 0.00000000
vn 0.00000000 -1.00000000 0.00000000
vn 0.00000000 -1.00000000 0.00000000
vn 0.70710678 0.00000000 0.70710678
vn 0.70710678 0.00000000 0.70710678
vn 0.70710678 0.00000000 0.70710678
vn 0.70710678 0.00000000 0.70710678
vn -0.70710678 0.00000000 0.70710678
vn -0.70710678 0.00000000 0.70710678
vn -0.70710678 0.00000000 0.70710678
vn -0.70710678 0.00000000 0.70710678
vn 0.00000000 0.00000000 1.00000000
vn 0.00000000 0.00000000 1.00000000
vn 0.00000000 0.00000000 1.00000000
vn 0.00000000 0.00000000 1.00000000
vn -1.00000000 0.00000000 0.00000000
vn -1.00000000 0.00000000 0.00000000
vn -1.00000000 0.00000000 0.00000000
vn -1.00000000 0.00000000 0.00000000
vn 0.00000000 0.00000000 -1.00000000
vn 0.00000000 0.00000000 -1.00000000
vn 0.00000000 0.00000000 -1.00000000
vn 0.00000000 0.00000000 -1.00000000
s 1
usemtl Sandstone_Floor
f 3/3/3 4/4/4 5/5/5
f 1/1/1 2/2/2 5/5/5
f 5/5/5 6/6/6 1/1/1
f 2/2/2 3/3/3 5/5/5
s 2
usemtl Sandstone_Trim
f 8/10/10 2/9/9 7/7/7
f 2/9/9 1/8/8 7/7/7
s 3
f 11/15/15 10/14/14 9/13/13
f 11/15/15 8/12/12 7/11/11
f 7/11/11 12/16/16 11/15/15
f 11/15/15 9/13/13 8/12/12
s 4
f 6/20/20 12/19/19 1/17/17
f 12/19/19 7/18/18 1/17/17
s 5
f 12/21/21 6/22/22 11/24/24
f 6/22/22 5/23/23 11/24/24
s 6
f 4/25/25 10/26/26 5/28/28
f 10/26/26 11/27/27 5/28/28
s 7
f 10/29/29 4/30/30 9/32/32
f 4/30/30 3/31/31 9/32/32
s 8
f 2/36/36 8/35/35 3/33/33
f 8/35/35 9/34/34 3/33/33
o object2
g object2
v -1.13137085 2.00000000 -1.13137085
v -1.13137085 -0.00000000 -1.13137085
v -0.66274170 -0.00000000 -1.60000000
v -0.66274170 2.00000000 -1.60000000
v -0.50000000 -0.00000000 -1.60000000
v -0.50000000 2.00000000 -1.60000000
v -0.50000000 -0.00000000 -1.40000000
v -0.50000000 2.00000000 -1.40000000
v -0.57989899 2.00000000 -1.40000000
v -0.57989899 -0.00000000 -1.40000000
v -0.98994949 2.00000000 -0.98994949
v -0.98994949 -0.00000000 -0.98994949
vt 1.00000000 1.00000000
vt 0.00000000 1.00000000
vt 0.00000000 0.00000000
vt 1.00000000 0.00000000
vt 0.00000000 0.00000000
vt 1.00000000 0.00000000
vt 1.00000000 1.00000000
vt 0.00000000 1.00000000
vt 0.00000000 0.00000000
vt 1.00000000 0.00000000
vt 1.00000000 1.00000000
vt 0.00000000 1.00000000
vt 0.00000000 0.00000000
vt 1.00000000 0.00000000
vt 1.00000000 1.00000000
vt 0.00000000 1.00000000
vt 1.00000000 1.00000000
vt 0.00000000 1.00000000
vt 0.00000000 0.00000000
vt 1.00000000 0.00000000
vt 0.00000000 0.77600905
vt 0.67215829 0.12654843
vt 0.67215829 0.00000000
vt 1.00000000 0.00000000
vt 1.00000000 0.25775929
vt 0.23181909 1.00000000
vt 0.00000000 0.00000000
vt 1.00000000 0.00000000
vt 1.00000000 1.00000000
vt 0.00000000 1.00000000
vt 0.00000000 0.77600905
vt 0.67215829 0.12654843
vt 0.67215829 0.00000000
vt 1.00000000 0.00000000
vt 1.00000000 0.25775929
vt 0.23181909 1.00000000
vn -0.70710678 0.00000000 -0.70710678
vn -0.70710678 0.00000000 -0.70710678
vn -0.70710678 0.00000000 -0.70710678
vn -0.70710678 0.00000000 -0.70710678
vn 0.00000000 0.00000000 -1.00000000
vn 0.00000000 0.00000000 -1.00000000
vn 0.00000000 0.00000000 -1.00000000
vn 0.00000000 0.00000000 -1.00000000
vn 1.00000000 0.00000000 0.00000000
vn 1.00000000 0.00000000 0.00000000
vn 1.00000000 0.00000000 0.00000000
vn 1.00000000 0.00000000 0.00000000
vn -0.00000000 0.00000000 1.00000000
vn -0.00000000 0.00000000 1.00000000
vn -0.00000000 0.00000000 1.00000000
vn -0.00000000 0.00000000 1.00000000
vn 0.70710678 -0.00000000 0.70710678
vn 0.70710678 -0.00000000 0.70710678
vn 0.70710678 -0.00000000 0.70710678
vn 0.70710678 -0.00000000 0.70710678
vn 0.00000000 1.00000000 0.00000000
vn 0.00000000 1.00000000 0.00000000
vn 0.00000000 1.00000000 0.00000000
vn 0.00000000 1.00000000 0.00000000
vn 0.00000000 1.00000000 0.00000000
vn 0.00000000 1.00000000 0.00000000
vn -0.70710678 0.00000000 0.70710678
vn -0.70710678 0.00000000 0.70710678
vn -0.70710678 0.00000000 0.70710678
vn -0.70710678 0.00000000 0.70710678
vn 0.00000000 -1.00000000 0.00000000
vn 0.00000000 -1.00000000 0.00000000
vn 0.00000000 -1.00000000 0.00000000
vn 0.00000000 -1.00000000 0.00000000
vn 0.00000000 -1.00000000 0.00000000
vn 0.00000000 -1.00000000 0.00000000
s 1
usemtl Sandstone_Trim
f 16/40/40 15/39/39 13/37/37
f 15/39/39 14/38/38 13/37/37
s 2
f 15/44/44 16/43/43 17/41/41
f 16/43/43 18/42/42 17/41/41
s 3
f 17/48/48 18/47/47 19/45/45
f 18/47/47 20/46/46 19/45/45
s 4
f 19/49/49 20/50/50 22/52/52
f 20/50/50 21/51/51 22/52/52
s 5
f 23/53/53 24/54/54 21/56/56
f 24/54/54 22/55/55 21/56/56
s 6
usemtl Sandstone_Floor
f 21/58/58 20/59/59 18/60/60
f 21/58/58 16/61/61 13/62/62
f 13/62/62 23/57/57 21/58/58
f 21/58/58 18/60/60 16/61/61
s 7
usemtl Sandstone_Trim
f 24/66/66 23/65/65 14/63/63
f 23/65/65 13/64/64 14/63/63
s 8
f 17/70/70 19/69/69 22/68/68
f 14/72/72 15/71/71 22/68/68
f 22/68/68 24/67/67 14/72/72
f 15/71/71 17/70/70 22/68/68
