mtllib Materials_Modular_Temple.mtl
o object1
g object1
v 0.15000000 0.65000000 0.52500000
v 0.10000000 0.65000000 0.57500000
v -0.10000000 0.65000000 0.57500000
v -0.10000000 0.65000000 0.42500000
v 0.11000000 0.65000000 0.42500000
v 0.15000000 0.65000000 0.45833333
v -0.10000000 0.41000000 0.42500000
v -0.10000000 0.41000000 0.57500000
v 0.15000000 0.41000000 0.42500000
v 0.15000000 0.41000000 0.57500000
v 0.15000000 0.60000000 0.42500000
v 0.15000000 0.60000000 0.57500000
vt 0.33333333 1.00000000
vt 0.00000000 0.80000000
vt 0.00000000 0.00000000
vt 1.00000000 0.00000000
vt 1.00000000 0.84000000
vt 0.77777778 1.00000000
vt 1.00000000 1.00000000
vt 0.00000000 1.00000000
vt 0.00000000 0.00000000
vt 1.00000000 0.00000000
vt 1.00000000 1.00000000
vt 0.00000000 1.00000000
vt 0.00000000 0.00000000
vt 1.00000000 0.00000000
vt 0.79166667 1.00000000
vt 0.00000000 1.00000000
vt 0.00000000 0.00000000
vt 1.00000000 0.00000000
vt 1.00000000 0.84000000
vt 1.00000000 1.00000000
vt 0.00000000 0.39024390
vt 1.00000000 0.00000000
vt 0.00000000 1.00000000
vt 0.00000000 0.00000000
vt 0.79166667 0.00000000
vt 1.00000000 0.33333333
vt 1.00000000 0.77777778
vt 0.79166667 1.00000000
vt 0.00000000 0.00000000
vt 1.00000000 0.50000000
vt 0.00000000 1.00000000
vt 0.79166667 1.00000000
vt 0.00000000 1.00000000
vt 0.00000000 0.00000000
vt 1.00000000 0.00000000
vt 1.00000000 0.80000000
vn 0.00000000 1.00000000 0.00000000
vn 0.00000000 1.00000000 0.00000000
vn 0.00000000 1.00000000 0.00000000
vn 0.00000000 1.00000000 0.00000000
vn 0.00000000 1.00000000 0.00000000
vn 0.00000000 1.00000000 0.00000000
vn -1.00000000 0.00000000 0.00000000
vn -1.00000000 0.00000000 0.00000000
vn -1.00000000 0.00000000 0.00000000
vn -1.00000000 0.00000000 0.00000000
vn 0.00000000 -1.00000000 0.00000000
vn 0.00000000 -1.00000000 0.00000000
vn 0.00000000 -1.00000000 0.00000000
vn 0.00000000 -1.00000000 0.00000000
vn 0.00000000 0.00000000 -1.00000000
vn 0.00000000 0.00000000 -1.00000000
vn 0.00000000 0.00000000 -1.00000000
vn 0.00000000 0.00000000 -1.00000000
vn 0.00000000 0.00000000 -1.00000000
vn 0.56980288 0.45584231 -0.68376346
vn 0.56980288 0.45584231 -0.68376346
vn 0.56980288 0.45584231 -0.68376346
vn 1.00000000 0.00000000 0.00000000
vn 1.00000000 0.00000000 0.00000000
vn 1.00000000 0.00000000 0.00000000
vn 1.00000000 0.00000000 0.00000000
vn 1.00000000 0.00000000 0.00000000
vn 1.00000000 0.00000000 0.00000000
vn 0.57735027 0.57735027 0.57735027
vn 0.57735027 0.57735027 0.57735027
vn 0.57735027 0.57735027 0.57735027
vn 0.00000000 0.00000000 1.00000000
vn 0.00000000 0.00000000 1.00000000
vn 0.00000000 0.00000000 1.00000000
vn 0.00000000 0.00000000 1.00000000
vn 0.00000000 0.00000000 1.00000000
s 1
usemtl Sandstone_4
f 1/1/1 6/6/6 5/5/5
f 5/5/5 4/4/4 2/2/2
f 4/4/4 3/3/3 2/2/2
f 2/2/2 1/1/1 5/5/5
s 2
f 4/7/7 7/8/8 3/10/10
f 7/8/8 8/9/9 3/10/10
s 3
f 9/11/11 10/12/12 7/14/14
f 10/12/12 8/13/13 7/14/14
s 4
f 4/18/18 5/19/19 11/15/15
f 11/15/15 9/16/16 7/17/17
f 11/15/15 7/17/17 4/18/18
s 5
f 5/22/22 6/21/21 11/20/20
s 6
f 11/28/28 6/27/27 1/26/26
f 11/28/28 12/25/25 10/24/24
f 10/24/24 9/23/23 11/28/28
f 11/28/28 1/26/26 12/25/25
s 7
f 12/29/29 1/30/30 2/31/31
s 8
f 10/33/33 12/32/32 2/36/36
f 2/36/36 3/35/35 8/34/34
f 2/36/36 8/34/34 10/33/33
o object2
g object2
v -0.21250000 0.95000000 0.57500000
v -0.21250000 0.95000000 0.42500000
v 0.05000000 0.95000000 0.42500000
v 0.06250000 0.95000000 0.45000000
v 0.06250000 0.95000000 0.55000000
v 0.03750000 0.95000000 0.57500000
v 0.06250000 0.90000000 0.42500000
v 0.06250000 0.91666667 0.57500000
v 0.06250000 0.80000000 0.42500000
v 0.06250000 0.75000000 0.45000000
v 0.06250000 0.75000000 0.57500000
v 0.00000000 0.75000000 0.42500000
v -0.21250000 0.75000000 0.57500000
v -0.21250000 0.75000000 0.42500000
vt 0.00000000 0.00000000
vt 1.00000000 0.00000000
vt 1.00000000 0.95454545
vt 0.83333333 1.00000000
vt 0.16666667 1.00000000
vt 0.00000000 0.90909091
vt 1.00000000 0.00000000
vt 1.00000000 1.00000000
vt 0.00000000 0.05882353
vt 0.83333333 0.00000000
vt 1.00000000 0.16666667
vt 1.00000000 0.83333333
vt 0.75000000 1.00000000
vt 0.25000000 1.00000000
vt 0.00000000 0.83333333
vt 0.00000000 0.00000000
vt 1.00000000 0.00000000
vt 1.00000000 1.00000000
vt 0.00000000 0.39024390
vt 0.83333333 1.00000000
vt 0.00000000 1.00000000
vt 0.00000000 0.00000000
vt 1.00000000 0.00000000
vt 1.00000000 0.77272727
vt 0.00000000 1.00000000
vt 0.00000000 0.00000000
vt 1.00000000 0.64000000
vt 0.83333333 1.00000000
vt 0.00000000 1.00000000
vt 0.00000000 0.00000000
vt 1.00000000 0.00000000
vt 1.00000000 0.90909091
vt 1.00000000 1.00000000
vt 0.00000000 1.00000000
vt 0.00000000 0.00000000
vt 1.00000000 0.00000000
vt 0.00000000 0.00000000
vt 1.00000000 0.00000000
vt 1.00000000 0.95454545
vt 0.75000000 1.00000000
vt 0.25000000 1.00000000
vt 0.00000000 0.77272727
vn 0.00000000 1.00000000 0.00000000
vn 0.00000000 1.00000000 0.00000000
vn 0.00000000 1.00000000 0.00000000
vn 0.00000000 1.00000000 0.00000000
vn 0.00000000 1.00000000 0.00000000
vn 0.00000000 1.00000000 0.00000000
vn 0.87287156 0.21821789 -0.43643578
vn 0.87287156 0.21821789 -0.43643578
vn 0.87287156 0.21821789 -0.43643578
vn 1.00000000 0.00000000 0.00000000
vn 1.00000000 0.00000000 0.00000000
vn 1.00000000 0.00000000 0.00000000
vn 1.00000000 0.00000000 0.00000000
vn 1.00000000 0.00000000 0.00000000
vn 1.00000000 0.00000000 0.00000000
vn 1.00000000 0.00000000 0.00000000
vn 0.33686077 -0.42107596 -0.84215192
vn 0.33686077 -0.42107596 -0.84215192
vn 0.33686077 -0.42107596 -0.84215192
vn 0.00000000 -1.00000000 0.00000000
vn 0.00000000 -1.00000000 0.00000000
vn 0.00000000 -1.00000000 0.00000000
vn 0.00000000 -1.00000000 0.00000000
vn 0.00000000 -1.00000000 0.00000000
vn 0.62469505 0.46852129 0.62469505
vn 0.62469505 0.46852129 0.62469505
vn 0.62469505 0.46852129 0.62469505
vn 0.00000000 0.00000000 1.00000000
vn 0.00000000 0.00000000 1.00000000
vn 0.00000000 0.00000000 1.00000000
vn 0.00000000 0.00000000 1.00000000
vn 0.00000000 0.00000000 1.00000000
vn -1.00000000 0.00000000 0.00000000
vn -1.00000000 0.00000000 0.00000000
vn -1.00000000 0.00000000 0.00000000
vn -1.00000000 0.00000000 0.00000000
vn 0.00000000 0.00000000 -1.00000000
vn 0.00000000 0.00000000 -1.00000000
vn 0.00000000 0.00000000 -1.00000000
vn 0.00000000 0.00000000 -1.00000000
vn 0.00000000 0.00000000 -1.00000000
vn 0.00000000 0.00000000 -1.00000000
s 1
usemtl Sandstone_4
f 18/42/42 17/41/41 16/40/40
f 16/40/40 15/39/39 13/37/37
f 15/39/39 14/38/38 13/37/37
f 13/37/37 18/42/42 16/40/40
s 2
f 16/45/45 19/44/44 15/43/43
s 3
f 16/48/48 17/47/47 20/46/46
f 23/52/52 21/50/50 20/46/46
f 23/52/52 22/51/51 21/50/50
f 21/50/50 19/49/49 20/46/46
f 19/49/49 16/48/48 20/46/46
s 4
f 22/55/55 24/54/54 21/53/53
s 5
f 24/60/60 22/56/56 23/57/57
f 23/57/57 25/58/58 24/60/60
f 25/58/58 26/59/59 24/60/60
s 6
f 18/61/61 20/62/62 17/63/63
s 7
f 25/66/66 23/65/65 20/64/64
f 18/68/68 25/66/66 20/64/64
f 18/68/68 13/67/67 25/66/66
s 8
f 14/69/69 26/70/70 13/72/72
f 26/70/70 25/71/71 13/72/72
s 9
f 19/76/76 21/77/77 24/78/78
f 26/73/73 14/74/74 19/76/76
f 19/76/76 24/78/78 26/73/73
f 14/74/74 15/75/75 19/76/76
o object3
g object3
v 0.00946080 0.59053920 0.60000000
v 0.00946080 0.59053920 0.40000000
v 0.00262395 0.61311977 0.40000000
v 0.00262395 0.61311977 0.60000000
v 0.13232233 0.46767767 0.60000000
v 0.13232233 0.46767767 0.40000000
v 0.16767767 0.46767767 0.60000000
v 0.16767767 0.46767767 0.40000000
v 0.24053920 0.54053920 0.60000000
v 0.24053920 0.54053920 0.40000000
v 0.26311977 0.54737605 0.60000000
v 0.26311977 0.54737605 0.40000000
v 0.50000000 0.50000000 0.60000000
v 0.50000000 0.50000000 0.40000000
v 0.50000000 0.00000000 0.60000000
v 0.50000000 0.00000000 0.40000000
v -0.50000000 0.00000000 0.60000000
v -0.50000000 0.00000000 0.40000000
v -0.50000000 1.00000000 0.60000000
v -0.50000000 1.00000000 0.40000000
v -0.00000000 1.00000000 0.60000000
v -0.00000000 1.00000000 0.40000000
v 0.04790053 0.85629841 0.60000000
v 0.04790053 0.85629841 0.40000000
v 0.04869796 0.84348982 0.60000000
v 0.04869796 0.84348982 0.40000000
vt 0.00000000 0.00000000
vt 1.00000000 0.00000000
vt 1.00000000 1.00000000
vt 0.00000000 1.00000000
vt 0.00000000 0.00000000
vt 1.00000000 0.00000000
vt 1.00000000 1.00000000
vt 0.00000000 1.00000000
vt 0.00000000 0.00000000
vt 1.00000000 0.00000000
vt 1.00000000 1.00000000
vt 0.00000000 1.00000000
vt 0.00000000 0.00000000
vt 1.00000000 0.00000000
vt 1.00000000 1.00000000
vt 0.00000000 1.00000000
vt 0.00000000 0.00000000
vt 1.00000000 0.00000000
vt 1.00000000 1.00000000
vt 0.00000000 1.00000000
vt 1.00000000 1.00000000
vt 0.00000000 1.00000000
vt 0.00000000 0.00000000
vt 1.00000000 0.00000000
vt 0.00000000 1.00000000
vt 0.00000000 0.00000000
vt 1.00000000 0.00000000
vt 1.00000000 1.00000000
vt 0.00000000 1.00000000
vt 0.00000000 0.00000000
vt 1.00000000 0.00000000
vt 1.00000000 1.00000000
vt 0.00000000 1.00000000
vt 0.00000000 0.00000000
vt 1.00000000 0.00000000
vt 1.00000000 1.00000000
vt 0.00000000 1.00000000
vt 0.00000000 0.00000000
vt 1.00000000 0.00000000
vt 1.00000000 1.00000000
vt 0.00000000 0.00000000
vt 1.00000000 0.00000000
vt 1.00000000 1.00000000
vt 0.00000000 1.00000000
vt 0.00000000 0.00000000
vt 1.00000000 0.00000000
vt 1.00000000 1.00000000
vt 0.00000000 1.00000000
vt 1.00000000 1.00000000
vt 0.50000000 1.00000000
vt 0.45262395 0.76311977
vt 0.45946080 0.74053920
vt 0.53232233 0.66767767
vt 0.53232233 0.63232233
vt 0.40946080 0.50946080
vt 0.38688023 0.50262395
vt 0.15651018 0.54869796
vt 0.14370159 0.54790053
vt 0.00000000 0.50000000
vt 0.00000000 0.00000000
vt 1.00000000 0.00000000
vt 0.00000000 0.00000000
vt 1.00000000 0.00000000
vt 1.00000000 1.00000000
vt 0.00000000 1.00000000
vt 1.00000000 0.00000000
vt 1.00000000 1.00000000
vt 0.50000000 1.00000000
vt 0.45262395 0.76311977
vt 0.45946080 0.74053920
vt 0.53232233 0.66767767
vt 0.53232233 0.63232233
vt 0.40946080 0.50946080
vt 0.38688023 0.50262395
vt 0.15651018 0.54869796
vt 0.14370159 0.54790053
vt 0.00000000 0.50000000
vt 0.00000000 0.00000000
vn 0.95709203 0.28978415 0.00000000
vn 0.95709203 0.28978415 0.00000000
vn 0.95709203 0.28978415 -0.00000000
vn 0.95709203 0.28978415 -0.00000000
vn 0.70710678 0.70710678 0.00000000
vn 0.70710678 0.70710678 0.00000000
vn 0.70710678 0.70710678 0.00000000
vn 0.70710678 0.70710678 0.00000000
vn 0.00000000 1.00000000 0.00000000
vn 0.00000000 1.00000000 0.00000000
vn 0.00000000 1.00000000 0.00000000
vn 0.00000000 1.00000000 0.00000000
vn -0.70710678 0.70710678 0.00000000
vn -0.70710678 0.70710678 0.00000000
vn -0.70710678 0.70710678 0.00000000
vn -0.70710678 0.70710678 0.00000000
vn -0.28978415 0.95709203 0.00000000
vn -0.28978415 0.95709203 0.00000000
vn -0.28978415 0.95709203 0.00000000
vn -0.28978415 0.95709203 0.00000000
vn 0.19611614 0.98058068 0.00000000
vn 0.19611614 0.98058068 0.00000000
vn 0.19611614 0.98058068 0.00000000
vn 0.19611614 0.98058068 0.00000000
vn 1.00000000 0.00000000 0.00000000
vn 1.00000000 0.00000000 0.00000000
vn 1.00000000 0.00000000 0.00000000
vn 1.00000000 0.00000000 0.00000000
vn 0.00000000 -1.00000000 0.00000000
vn 0.00000000 -1.00000000 0.00000000
vn 0.00000000 -1.00000000 0.00000000
vn 0.00000000 -1.00000000 0.00000000
vn -1.00000000 0.00000000 0.00000000
vn -1.00000000 0.00000000 0.00000000
vn -1.00000000 0.00000000 0.00000000
vn -1.00000000 0.00000000 0.00000000
vn -0.00000000 1.00000000 0.00000000
vn -0.00000000 1.00000000 0.00000000
vn -0.00000000 1.00000000 0.00000000
vn -0.00000000 1.00000000 0.00000000
vn 0.94868330 0.31622777 0.00000000
vn 0.94868330 0.31622777 0.00000000
vn 0.94868330 0.31622777 0.00000000
vn 0.94868330 0.31622777 0.00000000
vn 0.99806760 0.06213744 0.00000000
vn 0.99806760 0.06213744 0.00000000
vn 0.99806760 0.06213744 0.00000000
vn 0.99806760 0.06213744 0.00000000
vn 0.00000000 0.00000000 1.00000000
vn 0.00000000 0.00000000 1.00000000
vn 0.00000000 0.00000000 1.00000000
vn 0.00000000 0.00000000 1.00000000
vn 0.00000000 0.00000000 1.00000000
vn 0.00000000 0.00000000 1.00000000
vn 0.00000000 0.00000000 1.00000000
vn 0.00000000 0.00000000 1.00000000
vn 0.00000000 0.00000000 1.00000000
vn 0.00000000 0.00000000 1.00000000
vn 0.00000000 0.00000000 1.00000000
vn 0.00000000 0.00000000 1.00000000
vn 0.00000000 0.00000000 1.00000000
vn 0.98058068 -0.19611614 0.00000000
vn 0.98058068 -0.19611614 0.00000000
vn 0.98058068 -0.19611614 0.00000000
vn 0.98058068 -0.19611614 0.00000000
vn 0.00000000 0.00000000 -1.00000000
vn 0.00000000 0.00000000 -1.00000000
vn 0.00000000 0.00000000 -1.00000000
vn 0.00000000 0.00000000 -1.00000000
vn 0.00000000 0.00000000 -1.00000000
vn 0.00000000 0.00000000 -1.00000000
vn 0.00000000 0.00000000 -1.00000000
vn 0.00000000 0.00000000 -1.00000000
vn 0.00000000 0.00000000 -1.00000000
vn 0.00000000 0.00000000 -1.00000000
vn 0.00000000 0.00000000 -1.00000000
vn 0.00000000 0.00000000 -1.00000000
vn 0.00000000 0.00000000 -1.00000000
s 1
usemtl Sandstone_Trim
f 27/79/79 28/80/80 30/82/82
f 28/80/80 29/81/81 30/82/82
s 2
f 31/83/83 32/84/84 27/86/86
f 32/84/84 28/85/85 27/86/86
s 3
f 33/87/87 34/88/88 31/90/90
f 34/88/88 32/89/89 31/90/90
s 4
f 35/91/91 36/92/92 33/94/94
f 36/92/92 34/93/93 33/94/94
s 5
f 37/95/95 38/96/96 35/98/98
f 38/96/96 36/97/97 35/98/98
s 6
f 38/99/99 37/100/100 39/101/101
f 38/99/99 39/101/101 40/102/102
s 7
f 39/103/103 41/104/104 40/106/106
f 41/104/104 42/105/105 40/106/106
s 8
f 41/107/107 43/108/108 42/110/110
f 43/108/108 44/109/109 42/110/110
s 9
f 43/111/111 45/112/112 44/114/114
f 45/112/112 46/113/113 44/114/114
s 10
f 45/115/115 47/116/116 48/117/117
f 45/115/115 48/117/117 46/118/118
s 11
f 49/119/119 50/120/120 47/122/122
f 50/120/120 48/121/121 47/122/122
s 12
f 51/123/123 52/124/124 49/126/126
f 52/124/124 50/125/125 49/126/126
s 13
f 49/136/136 47/137/137 45/138/138
f 30/134/134 49/136/136 43/139/139
f 43/139/139 31/132/132 27/133/133
f 43/139/139 33/131/131 31/132/132
f 41/127/127 37/129/129 33/131/131
f 41/127/127 39/128/128 37/129/129
f 37/129/129 35/130/130 33/131/131
f 43/139/139 41/127/127 33/131/131
f 43/139/139 27/133/133 30/134/134
f 30/134/134 51/135/135 49/136/136
f 49/136/136 45/138/138 43/139/139
s 14
f 30/140/140 29/141/141 52/142/142
f 30/140/140 52/142/142 51/143/143
s 15
f 46/156/156 48/155/155 50/154/154
f 50/154/154 29/152/152 44/144/144
f 28/151/151 32/150/150 44/144/144
f 32/150/150 34/149/149 44/144/144
f 34/149/149 38/147/147 42/145/145
f 38/147/147 40/146/146 42/145/145
f 34/149/149 36/148/148 38/147/147
f 34/149/149 42/145/145 44/144/144
f 29/152/152 28/151/151 44/144/144
f 50/154/154 52/153/153 29/152/152
f 44/144/144 46/156/156 50/154/154
o object4
g object4
v 0.20000000 0.35000000 0.42500000
v 0.20000000 0.35000000 0.57500000
v 0.20000000 0.52527253 0.57500000
v 0.20000000 0.55000000 0.55338947
v 0.20000000 0.55000000 0.44019197
v 0.20000000 0.52080480 0.42500000
v 0.45000000 0.35000000 0.42500000
v 0.45000000 0.35000000 0.57500000
v 0.45000000 0.55000000 0.45000000
v 0.45000000 0.50000000 0.42500000
v 0.45000000 0.52715966 0.57500000
v 0.45000000 0.55000000 0.52734270
v 0.42905429 0.55000000 0.57500000
v 0.40000000 0.55000000 0.42500000
v 0.22143162 0.55000000 0.42500000
v 0.22887435 0.55000000 0.57500000
vt 0.00000000 1.00000000
vt 0.00000000 0.00000000
vt 0.87636267 0.00000000
vt 1.00000000 0.14407020
vt 1.00000000 0.89872017
vt 0.85402399 1.00000000
vt 1.00000000 1.00000000
vt 0.00000000 1.00000000
vt 0.00000000 0.00000000
vt 1.00000000 0.00000000
vt 1.00000000 0.83333333
vt 0.75000000 1.00000000
vt 0.00000000 1.00000000
vt 0.00000000 0.00000000
vt 0.88579832 0.00000000
vt 1.00000000 0.31771533
vt 0.00000000 0.00000000
vt 1.00000000 0.83810617
vt 0.00000000 1.00000000
vt 1.00000000 1.00000000
vt 0.00000000 0.50000000
vt 1.00000000 0.00000000
vt 1.00000000 0.80000000
vt 0.75000000 1.00000000
vt 0.00000000 1.00000000
vt 0.00000000 0.00000000
vt 0.85402399 0.00000000
vt 1.00000000 0.08572648
vt 0.00000000 1.00000000
vt 0.00000000 0.00000000
vt 1.00000000 0.35017414
vt 0.89872017 0.00000000
vt 1.00000000 0.08572648
vt 1.00000000 0.80000000
vt 0.83333333 1.00000000
vt 0.31771533 1.00000000
vt 0.00000000 0.91621716
vt 0.00000000 0.11549740
vt 0.14407020 0.00000000
vt 0.00000000 1.00000000
vt 0.00000000 0.00000000
vt 1.00000000 0.42309565
vt 0.00000000 1.00000000
vt 0.00000000 0.00000000
vt 0.87636267 0.00000000
vt 1.00000000 0.11549740
vt 1.00000000 0.91621716
vt 0.88579832 1.00000000
vn -1.00000000 0.00000000 0.00000000
vn -1.00000000 0.00000000 0.00000000
vn -1.00000000 0.00000000 0.00000000
vn -1.00000000 0.00000000 0.00000000
vn -1.00000000 0.00000000 0.00000000
vn -1.00000000 0.00000000 0.00000000
vn 0.00000000 -1.00000000 0.00000000
vn 0.00000000 -1.00000000 0.00000000
vn 0.00000000 -1.00000000 0.00000000
vn 0.00000000 -1.00000000 0.00000000
vn 1.00000000 0.00000000 0.00000000
vn 1.00000000 0.00000000 0.00000000
vn 1.00000000 0.00000000 0.00000000
vn 1.00000000 0.00000000 0.00000000
vn 1.00000000 0.00000000 0.00000000
vn 1.00000000 0.00000000 0.00000000
vn 0.70114689 0.64298613 0.30815885
vn 0.70114689 0.64298613 0.30815885
vn 0.70114689 0.64298613 0.30815885
vn 0.40824829 0.40824829 -0.81649658
vn 0.40824829 0.40824829 -0.81649658
vn 0.40824829 0.40824829 -0.81649658
vn 0.00000000 0.00000000 -1.00000000
vn 0.00000000 0.00000000 -1.00000000
vn 0.00000000 0.00000000 -1.00000000
vn 0.00000000 0.00000000 -1.00000000
vn 0.00000000 0.00000000 -1.00000000
vn 0.00000000 0.00000000 -1.00000000
vn -0.53232137 0.39076660 -0.75095634
vn -0.53232137 0.39076660 -0.75095634
vn -0.53232137 0.39076660 -0.75095634
vn 0.00000000 1.00000000 0.00000000
vn 0.00000000 1.00000000 0.00000000
vn 0.00000000 1.00000000 0.00000000
vn 0.00000000 1.00000000 0.00000000
vn 0.00000000 1.00000000 0.00000000
vn 0.00000000 1.00000000 0.00000000
vn 0.00000000 1.00000000 0.00000000
vn 0.00000000 1.00000000 0.00000000
vn -0.49095407 0.57328885 0.65597560
vn -0.49095407 0.57328885 0.65597560
vn -0.49095407 0.57328885 0.65597560
vn 0.00000000 0.00000000 1.00000000
vn 0.00000000 0.00000000 1.00000000
vn 0.00000000 0.00000000 1.00000000
vn 0.00000000 0.00000000 1.00000000
vn 0.00000000 0.00000000 1.00000000
vn 0.00000000 0.00000000 1.00000000
s 1
usemtl Sandstone_4
f 56/160/160 57/161/161 58/162/162
f 54/158/158 55/159/159 58/162/162
f 58/162/162 53/157/157 54/158/158
f 55/159/159 56/160/160 58/162/162
s 2
f 59/163/163 60/164/164 53/166/166
f 60/164/164 54/165/165 53/166/166
s 3
f 62/168/168 61/167/167 64/172/172
f 63/171/171 60/170/170 62/168/168
f 60/170/170 59/169/169 62/168/168
f 62/168/168 64/172/172 63/171/171
s 4
f 65/175/175 63/174/174 64/173/173
s 5
f 66/178/178 61/177/177 62/176/176
s 6
f 66/179/179 62/180/180 59/181/181
f 59/181/181 58/183/183 67/184/184
f 59/181/181 53/182/182 58/183/183
f 67/184/184 66/179/179 59/181/181
s 7
f 57/187/187 67/186/186 58/185/185
s 8
f 64/192/192 61/191/191 66/190/190
f 68/194/194 66/190/190 67/189/189
f 68/194/194 67/189/189 57/188/188
f 57/188/188 56/195/195 68/194/194
f 68/194/194 65/193/193 66/190/190
f 65/193/193 64/192/192 66/190/190
s 9
f 56/198/198 55/197/197 68/196/196
s 10
f 55/201/201 54/200/200 60/199/199
f 63/204/204 68/202/202 55/201/201
f 63/204/204 65/203/203 68/202/202
f 55/201/201 60/199/199 63/204/204
