mtllib Materials_Modular_Temple.mtl
o object1
g object1
v 0.50000000 1.00000000 0.40000000
v 0.50000000 1.00000000 0.60000000
v -0.50000000 1.00000000 0.60000000
v -0.50000000 1.00000000 0.40000000
v -0.50000000 0.00000000 0.60000000
v -0.50000000 0.00000000 0.40000000
v 0.50000000 0.00000000 0.40000000
v 0.50000000 0.00000000 0.60000000
vt 1.00000000 0.00000000
vt 1.00000000 1.00000000
vt 0.00000000 1.00000000
vt 0.00000000 0.00000000
vt 1.00000000 0.00000000
vt 1.00000000 1.00000000
vt 0.00000000 1.00000000
vt 0.00000000 0.00000000
vt 1.00000000 0.00000000
vt 1.00000000 1.00000000
vt 0.00000000 1.00000000
vt 0.00000000 0.00000000
vt 1.00000000 0.00000000
vt 1.00000000 1.00000000
vt 0.00000000 1.00000000
vt 0.00000000 0.00000000
vt 1.00000000 0.00000000
vt 1.00000000 1.00000000
vt 0.00000000 1.00000000
vt 0.00000000 0.00000000
vt 1.00000000 0.00000000
vt 1.00000000 1.00000000
vt 0.00000000 1.00000000
vt 0.00000000 0.00000000
vn 0.00000000 1.00000000 0.00000000
vn 0.00000000 1.00000000 0.00000000
vn 0.00000000 1.00000000 0.00000000
vn 0.00000000 1.00000000 0.00000000
vn -1.00000000 0.00000000 -0.00000000
vn -1.00000000 0.00000000 -0.00000000
vn -1.00000000 0.00000000 -0.00000000
vn -1.00000000 0.00000000 -0.00000000
vn 0.00000000 -1.00000000 0.00000000
vn 0.00000000 -1.00000000 0.00000000
vn 0.00000000 -1.00000000 0.00000000
vn 0.00000000 -1.00000000 0.00000000
vn 0.00000000 0.00000000 -1.00000000
vn 0.00000000 0.00000000 -1.00000000
vn 0.00000000 0.00000000 -1.00000000
vn 0.00000000 0.00000000 -1.00000000
vn 1.00000000 0.00000000 0.00000000
vn 1.00000000 0.00000000 0.00000000
vn 1.00000000 0.00000000 0.00000000
vn 1.00000000 0.00000000 0.00000000
vn -0.00000000 0.00000000 1.00000000
vn -0.00000000 0.00000000 1.00000000
vn -0.00000000 0.00000000 1.00000000
vn -0.00000000 0.00000000 1.00000000
s 1
usemtl Sandstone_Floor
f 4/4/4 3/3/3 2/2/2
f 4/4/4 2/2/2 1/1/1
s 2
usemtl Sandstone_Trim
f 6/8/8 5/7/7 4/5/5
f 5/7/7 3/6/6 4/5/5
s 3
f 7/9/9 8/10/10 6/12/12
f 8/10/10 5/11/11 6/12/12
s 4
f 4/13/13 1/14/14 6/16/16
f 1/14/14 7/15/15 6/16/16
s 5
f 1/17/17 2/18/18 7/20/20
f 2/18/18 8/19/19 7/20/20
s 6
f 5/24/24 8/23/23 3/21/21
f 8/23/23 2/22/22 3/21/21
