mtllib Materials_Modular_Temple.mtl
o object1
g object1
v -0.59849242 0.00000000 0.54221765
v -0.59849242 0.15000000 0.54221765
v -0.59849242 0.15000000 0.46079750
v -0.59849242 0.00000000 0.46079750
v -0.53787769 -0.00000000 0.40000000
v -0.45786465 -0.00000000 0.40000000
v -0.39849242 -0.00000000 0.45955124
v -0.39849242 -0.00000000 0.54346391
v -0.45485856 -0.00000000 0.60000000
v -0.54088377 -0.00000000 0.60000000
v -0.47987101 0.20000000 0.55000000
v -0.45485856 0.15000000 0.60000000
v -0.54088377 0.15000000 0.60000000
v -0.52012899 0.20000000 0.55000000
v -0.53787769 0.15000000 0.40000000
v -0.45786465 0.15000000 0.40000000
v -0.52012899 0.20000000 0.45301515
v -0.47987101 0.20000000 0.45301515
v -0.54849242 0.20000000 0.52155105
v -0.54849242 0.20000000 0.48146410
v -0.45150758 0.20000000 0.48146410
v -0.45150758 0.20000000 0.52155105
v -0.50000000 0.20000000 0.50150758
v -0.39849242 0.15000000 0.54346391
v -0.39849242 0.15000000 0.45955124
vt 0.00000000 1.00000000
vt 0.00000000 0.00000000
vt 1.00000000 0.00000000
vt 1.00000000 1.00000000
vt 0.00000000 0.30398750
vt 0.30307369 0.00000000
vt 0.70313887 0.00000000
vt 1.00000000 0.29775621
vt 1.00000000 0.71731955
vt 0.71816931 1.00000000
vt 0.28804325 1.00000000
vt 0.00000000 0.71108826
vt 0.29075715 1.00000000
vt 0.00000000 0.00000000
vt 1.00000000 0.00000000
vt 0.75873607 1.00000000
vt 0.00000000 1.00000000
vt 0.00000000 0.00000000
vt 1.00000000 0.00000000
vt 1.00000000 1.00000000
vt 1.00000000 0.00000000
vt 1.00000000 1.00000000
vt 0.00000000 1.00000000
vt 0.00000000 0.00000000
vt 0.77817748 0.00000000
vt 1.00000000 1.00000000
vt 0.00000000 1.00000000
vt 0.27503465 0.00000000
vt 0.70754781 0.00000000
vt 1.00000000 0.29333398
vt 1.00000000 0.70666602
vt 0.70754781 1.00000000
vt 0.29245219 1.00000000
vt 0.00000000 0.70666602
vt 0.00000000 0.29333398
vt 0.29245219 0.00000000
vt 0.50000000 0.50000000
vt 0.00000000 1.00000000
vt 0.26113889 0.00000000
vt 0.73886111 0.00000000
vt 1.00000000 1.00000000
vt 0.00000000 1.00000000
vt 0.00000000 0.00000000
vt 1.00000000 0.00000000
vt 1.00000000 1.00000000
vt 0.25382663 1.00000000
vt 0.00000000 0.00000000
vt 1.00000000 0.00000000
vt 0.74617337 1.00000000
vt 0.00000000 1.00000000
vt 0.00000000 0.00000000
vt 1.00000000 0.00000000
vt 1.00000000 1.00000000
vt 0.00000000 1.00000000
vt 0.26058297 0.00000000
vt 0.73830519 0.00000000
vt 1.00000000 1.00000000
vt 1.00000000 0.00000000
vt 1.00000000 1.00000000
vt 0.00000000 1.00000000
vt 0.00000000 0.00000000
vt 0.72551976 0.00000000
vt 1.00000000 1.00000000
vt 0.00000000 1.00000000
vt 0.22231992 0.00000000
vt 1.00000000 0.00000000
vt 1.00000000 1.00000000
vt 0.00000000 1.00000000
vt 0.00000000 0.00000000
vt 1.00000000 0.00000000
vt 0.74671372 1.00000000
vt 0.25436698 1.00000000
vt 0.00000000 0.00000000
vt 0.00000000 1.00000000
vt 0.00000000 0.00000000
vt 1.00000000 0.00000000
vt 1.00000000 1.00000000
vt 0.24072496 1.00000000
vt 0.00000000 0.00000000
vt 1.00000000 0.00000000
vt 0.70865458 1.00000000
vn -1.00000000 -0.00000000 0.00000000
vn -1.00000000 -0.00000000 0.00000000
vn -1.00000000 -0.00000000 0.00000000
vn -1.00000000 -0.00000000 0.00000000
vn 0.00000000 -1.00000000 0.00000000
vn 0.00000000 -1.00000000 0.00000000
vn 0.00000000 -1.00000000 0.00000000
vn 0.00000000 -1.00000000 0.00000000
vn 0.00000000 -1.00000000 0.00000000
vn 0.00000000 -1.00000000 0.00000000
vn 0.00000000 -1.00000000 0.00000000
vn 0.00000000 -1.00000000 0.00000000
vn -0.00000000 0.70710678 0.70710678
vn -0.00000000 0.70710678 0.70710678
vn -0.00000000 0.70710678 0.70710678
vn -0.00000000 0.70710678 0.70710678
vn 0.00000000 -0.00000000 1.00000000
vn 0.00000000 -0.00000000 1.00000000
vn 0.00000000 -0.00000000 1.00000000
vn 0.00000000 -0.00000000 1.00000000
vn -0.00000000 0.00000000 -1.00000000
vn -0.00000000 0.00000000 -1.00000000
vn -0.00000000 0.00000000 -1.00000000
vn -0.00000000 0.00000000 -1.00000000
vn -0.00000000 0.72749155 -0.68611664
vn -0.00000000 0.72749155 -0.68611664
vn -0.00000000 0.72749155 -0.68611664
vn -0.00000000 0.72749155 -0.68611664
vn -0.00000000 1.00000000 -0.00000000
vn -0.00000000 1.00000000 -0.00000000
vn -0.00000000 1.00000000 -0.00000000
vn -0.00000000 1.00000000 -0.00000000
vn -0.00000000 1.00000000 -0.00000000
vn -0.00000000 1.00000000 -0.00000000
vn -0.00000000 1.00000000 -0.00000000
vn -0.00000000 1.00000000 -0.00000000
vn -0.00000000 1.00000000 -0.00000000
vn 0.68611664 0.72749155 -0.00000000
vn 0.68611664 0.72749155 -0.00000000
vn 0.68611664 0.72749155 -0.00000000
vn 0.68611664 0.72749155 -0.00000000
vn 1.00000000 0.00000000 -0.00000000
vn 1.00000000 0.00000000 -0.00000000
vn 1.00000000 0.00000000 -0.00000000
vn 1.00000000 0.00000000 -0.00000000
vn -0.70710678 0.70710678 0.00000000
vn -0.70710678 0.70710678 0.00000000
vn -0.70710678 0.70710678 0.00000000
vn -0.70710678 0.70710678 0.00000000
vn 0.70817039 0.00000000 -0.70604157
vn 0.70817039 0.00000000 -0.70604157
vn 0.70817039 0.00000000 -0.70604157
vn 0.70817039 0.00000000 -0.70604157
vn 0.48588749 0.72749155 -0.48442687
vn 0.48588749 0.72749155 -0.48442687
vn 0.48588749 0.72749155 -0.48442687
vn 0.48588749 0.72749155 -0.48442687
vn 0.70817039 0.00000000 0.70604157
vn 0.70817039 0.00000000 0.70604157
vn 0.70817039 0.00000000 0.70604157
vn 0.70817039 0.00000000 0.70604157
vn 0.48588749 0.72749155 0.48442687
vn 0.48588749 0.72749155 0.48442687
vn 0.48588749 0.72749155 0.48442687
vn 0.48588749 0.72749155 0.48442687
vn -0.70817039 -0.00000000 0.70604157
vn -0.70817039 -0.00000000 0.70604157
vn -0.70817039 -0.00000000 0.70604157
vn -0.70817039 -0.00000000 0.70604157
vn -0.50075209 0.70710678 0.49924678
vn -0.50075209 0.70710678 0.49924678
vn -0.50075209 0.70710678 0.49924678
vn -0.50075209 0.70710678 0.49924678
vn -0.70817039 -0.00000000 -0.70604157
vn -0.70817039 -0.00000000 -0.70604157
vn -0.70817039 -0.00000000 -0.70604157
vn -0.70817039 -0.00000000 -0.70604157
vn -0.50075209 0.70710678 -0.49924678
vn -0.50075209 0.70710678 -0.49924678
vn -0.50075209 0.70710678 -0.49924678
vn -0.50075209 0.70710678 -0.49924678
s 1
usemtl Sandstone_Trim
f 1/1/1 2/2/2 4/4/4
f 2/2/2 3/3/3 4/4/4
s 2
f 10/11/11 1/12/12 4/5/5
f 5/6/6 7/8/8 10/11/11
f 7/8/8 8/9/9 9/10/10
f 5/6/6 6/7/7 7/8/8
f 7/8/8 9/10/10 10/11/11
f 10/11/11 4/5/5 5/6/6
s 3
f 14/16/16 13/15/15 11/13/13
f 13/15/15 12/14/14 11/13/13
s 4
f 9/17/17 12/18/18 13/19/19
f 9/17/17 13/19/19 10/20/20
s 5
f 16/24/24 6/23/23 15/21/21
f 6/23/23 5/22/22 15/21/21
s 6
f 18/28/28 16/27/27 15/26/26
f 18/28/28 15/26/26 17/25/25
s 7
f 11/36/36 22/35/35 23/37/37
f 19/30/30 14/29/29 23/37/37
f 20/31/31 19/30/30 23/37/37
f 17/32/32 20/31/31 23/37/37
f 18/33/33 17/32/32 23/37/37
f 21/34/34 18/33/33 23/37/37
f 22/35/35 21/34/34 23/37/37
f 14/29/29 11/36/36 23/37/37
s 8
f 25/41/41 21/40/40 24/38/38
f 21/40/40 22/39/39 24/38/38
s 9
f 7/45/45 25/44/44 24/43/43
f 7/45/45 24/43/43 8/42/42
s 10
f 20/49/49 3/48/48 19/46/46
f 3/48/48 2/47/47 19/46/46
s 11
f 6/53/53 16/52/52 25/51/51
f 6/53/53 25/51/51 7/50/50
s 12
f 16/57/57 18/56/56 25/54/54
f 18/56/56 21/55/55 25/54/54
s 13
f 12/61/61 9/60/60 8/59/59
f 12/61/61 8/59/59 24/58/58
s 14
f 11/65/65 12/64/64 22/62/62
f 12/64/64 24/63/63 22/62/62
s 15
f 2/66/66 1/67/67 13/69/69
f 1/67/67 10/68/68 13/69/69
s 16
f 13/73/73 14/72/72 2/70/70
f 14/72/72 19/71/71 2/70/70
s 17
f 4/74/74 3/75/75 15/76/76
f 4/74/74 15/76/76 5/77/77
s 18
f 17/81/81 15/80/80 3/79/79
f 17/81/81 3/79/79 20/78/78
