mtllib Materials_Modular_Temple.mtl
o object1
g object1
v -0.60000000 0.00000000 0.54142136
v -0.60000000 0.00000000 0.45857864
v -0.60000000 1.00000000 0.45857864
v -0.60000000 1.00000000 0.54142136
v -0.54142136 1.00000000 0.60000000
v -0.54142136 1.00000000 0.40000000
v -0.45857864 1.00000000 0.40000000
v -0.40000000 1.00000000 0.45857864
v -0.40000000 1.00000000 0.54142136
v -0.45857864 1.00000000 0.60000000
v -0.50000000 1.00000000 0.50000000
v -0.45857864 0.00000000 0.40000000
v -0.54142136 0.00000000 0.40000000
v -0.40000000 0.00000000 0.45857864
v -0.40000000 0.00000000 0.54142136
v -0.45857864 0.00000000 0.60000000
v -0.54142136 0.00000000 0.60000000
v -0.50000000 0.00000000 0.50000000
vt 0.00000000 1.00000000
vt 0.00000000 0.00000000
vt 1.00000000 0.00000000
vt 1.00000000 1.00000000
vt 0.29289322 1.00000000
vt 0.00000000 0.70710678
vt 0.00000000 0.29289322
vt 0.29289322 0.00000000
vt 0.70710678 0.00000000
vt 1.00000000 0.29289322
vt 1.00000000 0.70710678
vt 0.70710678 1.00000000
vt 0.50000000 0.50000000
vt 1.00000000 0.00000000
vt 1.00000000 1.00000000
vt 0.00000000 1.00000000
vt 0.00000000 0.00000000
vt 0.00000000 1.00000000
vt 0.00000000 0.00000000
vt 1.00000000 0.00000000
vt 1.00000000 1.00000000
vt 0.00000000 1.00000000
vt 0.00000000 0.00000000
vt 1.00000000 0.00000000
vt 1.00000000 1.00000000
vt 1.00000000 0.00000000
vt 1.00000000 1.00000000
vt 0.00000000 1.00000000
vt 0.00000000 0.00000000
vt 0.00000000 0.00000000
vt 1.00000000 0.00000000
vt 1.00000000 1.00000000
vt 0.00000000 1.00000000
vt 1.00000000 0.00000000
vt 1.00000000 1.00000000
vt 0.00000000 1.00000000
vt 0.00000000 0.00000000
vt 0.29289322 1.00000000
vt 0.00000000 0.70710678
vt 0.00000000 0.29289322
vt 0.29289322 0.00000000
vt 0.70710678 0.00000000
vt 1.00000000 0.29289322
vt 1.00000000 0.70710678
vt 0.70710678 1.00000000
vt 0.50000000 0.50000000
vt 0.00000000 1.00000000
vt 0.00000000 0.00000000
vt 1.00000000 0.00000000
vt 1.00000000 1.00000000
vn -1.00000000 0.00000000 0.00000000
vn -1.00000000 0.00000000 0.00000000
vn -1.00000000 0.00000000 0.00000000
vn -1.00000000 0.00000000 0.00000000
vn 0.00000000 1.00000000 0.00000000
vn 0.00000000 1.00000000 0.00000000
vn 0.00000000 1.00000000 0.00000000
vn 0.00000000 1.00000000 0.00000000
vn 0.00000000 1.00000000 0.00000000
vn 0.00000000 1.00000000 0.00000000
vn 0.00000000 1.00000000 0.00000000
vn 0.00000000 1.00000000 0.00000000
vn 0.00000000 1.00000000 0.00000000
vn 0.00000000 0.00000000 -1.00000000
vn 0.00000000 0.00000000 -1.00000000
vn 0.00000000 0.00000000 -1.00000000
vn 0.00000000 0.00000000 -1.00000000
vn 0.70710678 0.00000000 -0.70710678
vn 0.70710678 0.00000000 -0.70710678
vn 0.70710678 0.00000000 -0.70710678
vn 0.70710678 0.00000000 -0.70710678
vn 1.00000000 0.00000000 0.00000000
vn 1.00000000 0.00000000 0.00000000
vn 1.00000000 0.00000000 0.00000000
vn 1.00000000 0.00000000 0.00000000
vn 0.70710678 0.00000000 0.70710678
vn 0.70710678 0.00000000 0.70710678
vn 0.70710678 0.00000000 0.70710678
vn 0.70710678 0.00000000 0.70710678
vn -0.00000000 0.00000000 1.00000000
vn -0.00000000 0.00000000 1.00000000
vn -0.00000000 0.00000000 1.00000000
vn -0.00000000 0.00000000 1.00000000
vn -0.70710678 0.00000000 0.70710678
vn -0.70710678 0.00000000 0.70710678
vn -0.70710678 0.00000000 0.70710678
vn -0.70710678 0.00000000 0.70710678
vn 0.00000000 -1.00000000 0.00000000
vn 0.00000000 -1.00000000 0.00000000
vn 0.00000000 -1.00000000 0.00000000
vn 0.00000000 -1.00000000 0.00000000
vn 0.00000000 -1.00000000 0.00000000
vn 0.00000000 -1.00000000 0.00000000
vn 0.00000000 -1.00000000 0.00000000
vn 0.00000000 -1.00000000 0.00000000
vn 0.00000000 -1.00000000 0.00000000
vn -0.70710678 0.00000000 -0.70710678
vn -0.70710678 0.00000000 -0.70710678
vn -0.70710678 0.00000000 -0.70710678
vn -0.70710678 0.00000000 -0.70710678
s 1
usemtl Sandstone_Trim
f 4/4/4 3/3/3 1/1/1
f 3/3/3 2/2/2 1/1/1
s 2
usemtl Sandstone_Floor
f 10/12/12 9/11/11 11/13/13
f 4/6/6 5/5/5 11/13/13
f 3/7/7 4/6/6 11/13/13
f 6/8/8 3/7/7 11/13/13
f 7/9/9 6/8/8 11/13/13
f 8/10/10 7/9/9 11/13/13
f 9/11/11 8/10/10 11/13/13
f 5/5/5 10/12/12 11/13/13
s 3
usemtl Sandstone_Trim
f 6/14/14 7/15/15 13/17/17
f 7/15/15 12/16/16 13/17/17
s 4
f 14/18/18 12/19/19 7/20/20
f 14/18/18 7/20/20 8/21/21
s 5
f 15/22/22 14/23/23 9/25/25
f 14/23/23 8/24/24 9/25/25
s 6
f 9/26/26 10/27/27 15/29/29
f 10/27/27 16/28/28 15/29/29
s 7
f 16/33/33 10/32/32 17/30/30
f 10/32/32 5/31/31 17/30/30
s 8
f 1/37/37 17/36/36 4/34/34
f 17/36/36 5/35/35 4/34/34
s 9
f 17/38/38 1/39/39 18/46/46
f 15/44/44 16/45/45 18/46/46
f 14/43/43 15/44/44 18/46/46
f 12/42/42 14/43/43 18/46/46
f 13/41/41 12/42/42 18/46/46
f 2/40/40 13/41/41 18/46/46
f 1/39/39 2/40/40 18/46/46
f 16/45/45 17/38/38 18/46/46
s 10
f 3/50/50 6/49/49 13/48/48
f 3/50/50 13/48/48 2/47/47
