mtllib Materials_Modular_Temple.mtl
o object1
g object1
v 0.60000000 -0.00000000 -0.50000000
v 0.40000000 0.00000000 -0.50000000
v 0.40000000 1.90000000 -0.50000000
v 0.33149158 2.24441509 -0.50000000
v 0.13639610 2.53639610 -0.50000000
v -0.15558491 2.73149158 -0.50000000
v -0.50000000 2.80000000 -0.50000000
v -0.84441509 2.73149158 -0.50000000
v -1.13639610 2.53639610 -0.50000000
v -1.33149158 2.24441509 -0.50000000
v -1.40000000 1.90000000 -0.50000000
v -1.40000000 -0.00000000 -0.50000000
v -1.60000000 0.00000000 -0.50000000
v -1.60000000 3.00000000 -0.50000000
v 0.60000000 3.00000000 -0.50000000
v 0.60000000 -0.00000000 0.50000000
v 0.40000000 0.00000000 0.50000000
v 0.40000000 1.90000000 0.50000000
v 0.33149158 2.24441509 0.50000000
v 0.13639610 2.53639610 0.50000000
v -0.15558491 2.73149158 0.50000000
v -0.50000000 2.80000000 0.50000000
v -0.84441509 2.73149158 0.50000000
v -1.13639610 2.53639610 0.50000000
v -1.33149158 2.24441509 0.50000000
v -1.40000000 1.90000000 0.50000000
v -1.40000000 -0.00000000 0.50000000
v -1.60000000 0.00000000 0.50000000
v -1.60000000 3.00000000 0.50000000
v 0.60000000 3.00000000 0.50000000
vt 1.00000000 0.00000000
vt 1.00000000 0.09090909
vt 0.36666667 0.09090909
vt 0.25186164 0.12204928
vt 0.15453463 0.21072904
vt 0.08950281 0.34344769
vt 0.06666667 0.50000000
vt 0.08950281 0.65655231
vt 0.15453463 0.78927096
vt 0.25186164 0.87795072
vt 0.36666667 0.90909091
vt 1.00000000 0.90909091
vt 1.00000000 1.00000000
vt 0.00000000 1.00000000
vt 0.00000000 0.00000000
vt 1.00000000 0.00000000
vt 1.00000000 0.09090909
vt 0.36666667 0.09090909
vt 0.25186164 0.12204928
vt 0.15453463 0.21072904
vt 0.08950281 0.34344769
vt 0.06666667 0.50000000
vt 0.08950281 0.65655231
vt 0.15453463 0.78927096
vt 0.25186164 0.87795072
vt 0.36666667 0.90909091
vt 1.00000000 0.90909091
vt 1.00000000 1.00000000
vt 0.00000000 1.00000000
vt 0.00000000 0.00000000
vt 0.00000000 0.00000000
vt 1.00000000 0.00000000
vt 1.00000000 1.00000000
vt 0.00000000 1.00000000
vt 0.00000000 1.00000000
vt 0.00000000 0.00000000
vt 1.00000000 0.00000000
vt 1.00000000 1.00000000
vt 0.00000000 1.00000000
vt 0.00000000 0.00000000
vt 1.00000000 0.00000000
vt 1.00000000 1.00000000
vt 0.00000000 1.00000000
vt 0.00000000 0.00000000
vt 1.00000000 0.00000000
vt 1.00000000 1.00000000
vt 0.00000000 1.00000000
vt 0.00000000 0.00000000
vt 1.00000000 0.00000000
vt 1.00000000 1.00000000
vt 0.00000000 1.00000000
vt 0.00000000 0.00000000
vt 1.00000000 0.00000000
vt 1.00000000 1.00000000
vt 0.00000000 1.00000000
vt 0.00000000 0.00000000
vt 1.00000000 0.00000000
vt 1.00000000 1.00000000
vt 0.00000000 1.00000000
vt 0.00000000 0.00000000
vt 1.00000000 0.00000000
vt 1.00000000 1.00000000
vt 0.00000000 1.00000000
vt 0.00000000 0.00000000
vt 1.00000000 0.00000000
vt 1.00000000 1.00000000
vt 1.00000000 1.00000000
vt 0.00000000 1.00000000
vt 0.00000000 0.00000000
vt 1.00000000 0.00000000
vt 0.00000000 0.00000000
vt 1.00000000 0.00000000
vt 1.00000000 1.00000000
vt 0.00000000 1.00000000
vt 0.00000000 1.00000000
vt 0.00000000 0.00000000
vt 1.00000000 0.00000000
vt 1.00000000 1.00000000
vt 1.00000000 1.00000000
vt 0.00000000 1.00000000
vt 0.00000000 0.00000000
vt 1.00000000 0.00000000
vt 0.00000000 1.00000000
vt 0.00000000 0.00000000
vt 1.00000000 0.00000000
vt 1.00000000 1.00000000
vt 0.00000000 1.00000000
vt 0.00000000 0.00000000
vt 1.00000000 0.00000000
vt 1.00000000 1.00000000
vn 0.00000000 0.00000000 -1.00000000
vn 0.00000000 0.00000000 -1.00000000
vn 0.00000000 0.00000000 -1.00000000
vn 0.00000000 0.00000000 -1.00000000
vn 0.00000000 0.00000000 -1.00000000
vn 0.00000000 0.00000000 -1.00000000
vn 0.00000000 0.00000000 -1.00000000
vn 0.00000000 0.00000000 -1.00000000
vn 0.00000000 0.00000000 -1.00000000
vn 0.00000000 0.00000000 -1.00000000
vn 0.00000000 0.00000000 -1.00000000
vn 0.00000000 0.00000000 -1.00000000
vn 0.00000000 0.00000000 -1.00000000
vn 0.00000000 0.00000000 -1.00000000
vn 0.00000000 0.00000000 -1.00000000
vn 0.00000000 0.00000000 1.00000000
vn 0.00000000 0.00000000 1.00000000
vn 0.00000000 0.00000000 1.00000000
vn 0.00000000 0.00000000 1.00000000
vn 0.00000000 0.00000000 1.00000000
vn 0.00000000 0.00000000 1.00000000
vn 0.00000000 0.00000000 1.00000000
vn 0.00000000 0.00000000 1.00000000
vn 0.00000000 0.00000000 1.00000000
vn 0.00000000 0.00000000 1.00000000
vn 0.00000000 0.00000000 1.00000000
vn 0.00000000 0.00000000 1.00000000
vn 0.00000000 0.00000000 1.00000000
vn 0.00000000 0.00000000 1.00000000
vn 0.00000000 0.00000000 1.00000000
vn -1.00000000 0.00000000 0.00000000
vn -1.00000000 0.00000000 0.00000000
vn -1.00000000 0.00000000 0.00000000
vn -1.00000000 0.00000000 0.00000000
vn -0.98078528 -0.19509032 0.00000000
vn -0.98078528 -0.19509032 0.00000000
vn -0.98078528 -0.19509032 0.00000000
vn -0.98078528 -0.19509032 0.00000000
vn -0.83146961 -0.55557023 0.00000000
vn -0.83146961 -0.55557023 0.00000000
vn -0.83146961 -0.55557023 0.00000000
vn -0.83146961 -0.55557023 0.00000000
vn -0.55557023 -0.83146961 0.00000000
vn -0.55557023 -0.83146961 0.00000000
vn -0.55557023 -0.83146961 0.00000000
vn -0.55557023 -0.83146961 0.00000000
vn -0.19509032 -0.98078528 0.00000000
vn -0.19509032 -0.98078528 0.00000000
vn -0.19509032 -0.98078528 0.00000000
vn -0.19509032 -0.98078528 0.00000000
vn 0.19509032 -0.98078528 0.00000000
vn 0.19509032 -0.98078528 0.00000000
vn 0.19509032 -0.98078528 0.00000000
vn 0.19509032 -0.98078528 0.00000000
vn 0.55557023 -0.83146961 0.00000000
vn 0.55557023 -0.83146961 0.00000000
vn 0.55557023 -0.83146961 0.00000000
vn 0.55557023 -0.83146961 0.00000000
vn 0.83146961 -0.55557023 0.00000000
vn 0.83146961 -0.55557023 0.00000000
vn 0.83146961 -0.55557023 0.00000000
vn 0.83146961 -0.55557023 0.00000000
vn 0.98078528 -0.19509032 0.00000000
vn 0.98078528 -0.19509032 0.00000000
vn 0.98078528 -0.19509032 0.00000000
vn 0.98078528 -0.19509032 0.00000000
vn 1.00000000 0.00000000 0.00000000
vn 1.00000000 0.00000000 0.00000000
vn 1.00000000 0.00000000 0.00000000
vn 1.00000000 0.00000000 0.00000000
vn -1.00000000 -0.00000000 0.00000000
vn -1.00000000 -0.00000000 0.00000000
vn -1.00000000 -0.00000000 0.00000000
vn -1.00000000 -0.00000000 0.00000000
vn 0.00000000 1.00000000 0.00000000
vn 0.00000000 1.00000000 0.00000000
vn 0.00000000 1.00000000 0.00000000
vn 0.00000000 1.00000000 0.00000000
vn 1.00000000 -0.00000000 0.00000000
vn 1.00000000 -0.00000000 0.00000000
vn 1.00000000 -0.00000000 0.00000000
vn 1.00000000 -0.00000000 0.00000000
vn 0.00000000 -1.00000000 0.00000000
vn 0.00000000 -1.00000000 0.00000000
vn 0.00000000 -1.00000000 0.00000000
vn 0.00000000 -1.00000000 0.00000000
vn 0.00000000 -1.00000000 0.00000000
vn 0.00000000 -1.00000000 0.00000000
vn 0.00000000 -1.00000000 0.00000000
vn 0.00000000 -1.00000000 0.00000000
s 1
usemtl Sandstone_Trim
f 1/1/1 2/2/2 3/3/3
f 3/3/3 4/4/4 15/15/15
f 5/5/5 6/6/6 15/15/15
f 6/6/6 7/7/7 15/15/15
f 7/7/7 8/8/8 14/14/14
f 9/9/9 10/10/10 14/14/14
f 10/10/10 11/11/11 14/14/14
f 11/11/11 12/12/12 13/13/13
f 11/11/11 13/13/13 14/14/14
f 8/8/8 9/9/9 14/14/14
f 7/7/7 14/14/14 15/15/15
f 4/4/4 5/5/5 15/15/15
f 1/1/1 3/3/3 15/15/15
s 2
f 18/18/18 17/17/17 16/16/16
f 30/30/30 18/18/18 16/16/16
f 30/30/30 20/20/20 19/19/19
f 30/30/30 21/21/21 20/20/20
f 30/30/30 22/22/22 21/21/21
f 29/29/29 23/23/23 22/22/22
f 29/29/29 24/24/24 23/23/23
f 29/29/29 25/25/25 24/24/24
f 29/29/29 26/26/26 25/25/25
f 28/28/28 27/27/27 26/26/26
f 29/29/29 28/28/28 26/26/26
f 30/30/30 29/29/29 22/22/22
f 30/30/30 19/19/19 18/18/18
s 3
f 2/31/31 17/32/32 18/33/33
f 2/31/31 18/33/33 3/34/34
s 4
f 4/35/35 3/36/36 18/37/37
f 4/35/35 18/37/37 19/38/38
s 5
f 5/39/39 4/40/40 19/41/41
f 5/39/39 19/41/41 20/42/42
s 6
f 6/43/43 5/44/44 20/45/45
f 6/43/43 20/45/45 21/46/46
s 7
f 7/47/47 6/48/48 21/49/49
f 7/47/47 21/49/49 22/50/50
s 8
f 8/51/51 7/52/52 22/53/53
f 8/51/51 22/53/53 23/54/54
s 9
f 9/55/55 8/56/56 23/57/57
f 9/55/55 23/57/57 24/58/58
s 10
f 10/59/59 9/60/60 24/61/61
f 10/59/59 24/61/61 25/62/62
s 11
f 11/63/63 10/64/64 25/65/65
f 11/63/63 25/65/65 26/66/66
s 12
f 27/67/67 12/68/68 26/70/70
f 12/68/68 11/69/69 26/70/70
s 13
f 13/71/71 28/72/72 14/74/74
f 28/72/72 29/73/73 14/74/74
s 14
usemtl Sandstone_Floor
f 15/75/75 14/76/76 30/78/78
f 14/76/76 29/77/77 30/78/78
s 15
usemtl Sandstone_Trim
f 16/79/79 1/80/80 15/81/81
f 16/79/79 15/81/81 30/82/82
s 16
f 27/83/83 28/84/84 12/86/86
f 28/84/84 13/85/85 12/86/86
s 17
f 16/87/87 17/88/88 1/90/90
f 17/88/88 2/89/89 1/90/90
