mtllib Materials_Modular_Temple.mtl
o object1
g object1
v -0.24246212 1.15000000 0.03033009
v -0.24246212 0.35000000 0.03033009
v -0.03033009 0.35000000 0.24246212
v -0.03033009 1.15000000 0.24246212
v 0.12720779 1.15000000 0.40000000
v 0.12720779 0.00000000 0.40000000
v -0.40000000 0.00000000 -0.12720779
v -0.40000000 1.15000000 -0.12720779
v -0.03033009 1.80000000 0.24246212
v -0.03840388 1.85740251 0.23438833
v -0.06139610 1.90606602 0.21139610
v -0.09580640 1.93858193 0.17698581
v -0.13639610 1.95000000 0.13639610
v -0.17698581 1.93858193 0.09580640
v -0.21139610 1.90606602 0.06139610
v -0.23438833 1.85740251 0.03840388
v -0.24246212 1.80000000 0.03033009
v -0.40000000 2.00000000 -0.12720779
v 0.12720779 2.00000000 0.40000000
v -0.38388348 0.35000000 0.17175144
v -0.17175144 0.35000000 0.38388348
v 0.50000000 0.00000000 0.40000000
v 0.50000000 2.00000000 0.40000000
v 0.50000000 0.00000000 0.60000000
v 0.50000000 2.00000000 0.60000000
v 0.04436508 0.00000000 0.60000000
v 0.04436508 2.00000000 0.60000000
v 0.04436508 1.15000000 0.60000000
v -0.40000000 0.00000000 -0.50000000
v -0.40000000 2.00000000 -0.50000000
v -0.60000000 0.00000000 -0.04436508
v -0.60000000 0.00000000 -0.50000000
v -0.37580968 1.85740251 0.17982524
v -0.38388348 1.80000000 0.17175144
v -0.38388348 1.15000000 0.17175144
v -0.17175144 1.15000000 0.38388348
v -0.60000000 1.15000000 -0.04436508
v -0.17175144 1.80000000 0.38388348
v -0.17982524 1.85740251 0.37580968
v -0.20281746 1.90606602 0.35281746
v -0.23722775 1.93858193 0.31840717
v -0.27781746 1.95000000 0.27781746
v -0.31840717 1.93858193 0.23722775
v -0.35281746 1.90606602 0.20281746
v -0.60000000 2.00000000 -0.04436508
v -0.60000000 2.00000000 -0.50000000
vt 0.57500000 0.29881554
vt 0.17500000 0.29881554
vt 0.17500000 0.70118446
vt 0.57500000 0.70118446
vt 0.57500000 1.00000000
vt 0.00000000 1.00000000
vt 0.00000000 0.00000000
vt 0.57500000 0.00000000
vt 0.90000000 0.70118446
vt 0.92870126 0.68587021
vt 0.95303301 0.64225890
vt 0.96929096 0.57698996
vt 0.97500000 0.50000000
vt 0.96929096 0.42301004
vt 0.95303301 0.35774110
vt 0.92870126 0.31412979
vt 0.90000000 0.29881554
vt 1.00000000 0.00000000
vt 1.00000000 1.00000000
vt 1.00000000 0.00000000
vt 1.00000000 1.00000000
vt 0.00000000 1.00000000
vt 0.00000000 0.00000000
vt 0.00000000 1.00000000
vt 0.00000000 0.00000000
vt 1.00000000 0.00000000
vt 1.00000000 1.00000000
vt 0.57500000 0.00000000
vt 1.00000000 0.00000000
vt 1.00000000 1.00000000
vt 0.00000000 1.00000000
vt 0.00000000 0.00000000
vt 1.00000000 0.00000000
vt 1.00000000 1.00000000
vt 0.00000000 1.00000000
vt 0.00000000 0.00000000
vt 0.42500000 0.00000000
vt 0.00000000 1.00000000
vt 0.00000000 0.00000000
vt 1.00000000 0.00000000
vt 1.00000000 1.00000000
vt 0.57500000 1.00000000
vt 0.41421356 0.00000000
vt 1.00000000 0.58578644
vt 1.00000000 1.00000000
vt 0.81818182 1.00000000
vt 0.81818182 0.66109799
vt 0.33890201 0.18181818
vt 0.00000000 0.18181818
vt 0.00000000 0.00000000
vt 1.00000000 0.00000000
vt 1.00000000 1.00000000
vt 0.00000000 1.00000000
vt 0.00000000 0.00000000
vt 0.57500000 0.33539453
vt 0.17500000 0.33539453
vt 0.17500000 0.66460547
vt 0.57500000 0.66460547
vt 0.57500000 1.00000000
vt 0.00000000 1.00000000
vt 0.00000000 0.00000000
vt 0.57500000 0.00000000
vt 0.90000000 0.66460547
vt 0.92870126 0.65207562
vt 0.95303301 0.61639364
vt 0.96929096 0.56299179
vt 0.97500000 0.50000000
vt 0.96929096 0.43700821
vt 0.95303301 0.38360636
vt 0.92870126 0.34792438
vt 0.90000000 0.33539453
vt 1.00000000 0.00000000
vt 1.00000000 1.00000000
vt 0.00000000 0.00000000
vt 1.00000000 0.00000000
vt 1.00000000 1.00000000
vt 0.00000000 1.00000000
vt 0.42500000 1.00000000
vt 1.00000000 1.00000000
vt 0.00000000 1.00000000
vt 0.00000000 0.00000000
vt 1.00000000 0.00000000
vt 1.00000000 0.00000000
vt 1.00000000 1.00000000
vt 0.00000000 1.00000000
vt 0.00000000 0.00000000
vt 1.00000000 0.00000000
vt 1.00000000 1.00000000
vt 0.00000000 1.00000000
vt 0.00000000 0.00000000
vt 1.00000000 0.00000000
vt 1.00000000 1.00000000
vt 0.00000000 1.00000000
vt 0.00000000 0.00000000
vt 1.00000000 0.00000000
vt 1.00000000 1.00000000
vt 0.00000000 1.00000000
vt 0.00000000 0.00000000
vt 1.00000000 0.00000000
vt 1.00000000 1.00000000
vt 0.00000000 1.00000000
vt 0.00000000 0.00000000
vt 1.00000000 0.00000000
vt 1.00000000 1.00000000
vt 0.00000000 1.00000000
vt 0.00000000 0.00000000
vt 1.00000000 0.00000000
vt 1.00000000 1.00000000
vt 0.00000000 1.00000000
vt 0.00000000 0.00000000
vt 1.00000000 0.00000000
vt 1.00000000 1.00000000
vt 0.00000000 1.00000000
vt 0.00000000 0.00000000
vt 1.00000000 0.44827586
vt 0.00000000 0.44827586
vt 1.00000000 1.00000000
vt 0.00000000 1.00000000
vt 0.00000000 0.00000000
vt 1.00000000 0.00000000
vt 0.00000000 0.55172414
vt 1.00000000 0.55172414
vt 0.58578644 0.00000000
vt 1.00000000 0.00000000
vt 1.00000000 0.18181818
vt 0.66109799 0.18181818
vt 0.18181818 0.66109799
vt 0.18181818 1.00000000
vt 0.00000000 1.00000000
vt 0.00000000 0.58578644
vn 0.70710678 0.00000000 -0.70710678
vn 0.70710678 0.00000000 -0.70710678
vn 0.70710678 0.00000000 -0.70710678
vn 0.70710678 0.00000000 -0.70710678
vn 0.70710678 0.00000000 -0.70710678
vn 0.70710678 0.00000000 -0.70710678
vn 0.70710678 0.00000000 -0.70710678
vn 0.70710678 0.00000000 -0.70710678
vn 0.70710678 0.00000000 -0.70710678
vn 0.70710678 0.00000000 -0.70710678
vn 0.70710678 0.00000000 -0.70710678
vn 0.70710678 0.00000000 -0.70710678
vn 0.70710678 0.00000000 -0.70710678
vn 0.70710678 0.00000000 -0.70710678
vn 0.70710678 0.00000000 -0.70710678
vn 0.70710678 0.00000000 -0.70710678
vn 0.70710678 0.00000000 -0.70710678
vn 0.70710678 0.00000000 -0.70710678
vn 0.70710678 0.00000000 -0.70710678
vn 0.00000000 1.00000000 -0.00000000
vn 0.00000000 1.00000000 -0.00000000
vn 0.00000000 1.00000000 -0.00000000
vn 0.00000000 1.00000000 -0.00000000
vn 0.00000000 0.00000000 -1.00000000
vn 0.00000000 0.00000000 -1.00000000
vn 0.00000000 0.00000000 -1.00000000
vn 0.00000000 0.00000000 -1.00000000
vn 0.00000000 0.00000000 -1.00000000
vn 1.00000000 0.00000000 0.00000000
vn 1.00000000 0.00000000 0.00000000
vn 1.00000000 0.00000000 0.00000000
vn 1.00000000 0.00000000 0.00000000
vn 0.00000000 0.00000000 1.00000000
vn 0.00000000 0.00000000 1.00000000
vn 0.00000000 0.00000000 1.00000000
vn 0.00000000 0.00000000 1.00000000
vn 0.00000000 0.00000000 1.00000000
vn 1.00000000 0.00000000 0.00000000
vn 1.00000000 0.00000000 0.00000000
vn 1.00000000 0.00000000 0.00000000
vn 1.00000000 0.00000000 0.00000000
vn 1.00000000 0.00000000 0.00000000
vn 0.00000000 -1.00000000 0.00000000
vn 0.00000000 -1.00000000 0.00000000
vn 0.00000000 -1.00000000 0.00000000
vn 0.00000000 -1.00000000 0.00000000
vn 0.00000000 -1.00000000 0.00000000
vn 0.00000000 -1.00000000 0.00000000
vn 0.00000000 -1.00000000 0.00000000
vn 0.00000000 -1.00000000 0.00000000
vn 0.69351992 -0.19509032 0.69351992
vn 0.69351992 -0.19509032 0.69351992
vn 0.69351992 -0.19509032 0.69351992
vn 0.69351992 -0.19509032 0.69351992
vn -0.70710678 0.00000000 0.70710678
vn -0.70710678 0.00000000 0.70710678
vn -0.70710678 0.00000000 0.70710678
vn -0.70710678 0.00000000 0.70710678
vn -0.70710678 0.00000000 0.70710678
vn -0.70710678 0.00000000 0.70710678
vn -0.70710678 0.00000000 0.70710678
vn -0.70710678 0.00000000 0.70710678
vn -0.70710678 0.00000000 0.70710678
vn -0.70710678 0.00000000 0.70710678
vn -0.70710678 0.00000000 0.70710678
vn -0.70710678 0.00000000 0.70710678
vn -0.70710678 0.00000000 0.70710678
vn -0.70710678 0.00000000 0.70710678
vn -0.70710678 0.00000000 0.70710678
vn -0.70710678 0.00000000 0.70710678
vn -0.70710678 0.00000000 0.70710678
vn -0.70710678 0.00000000 0.70710678
vn -0.70710678 0.00000000 0.70710678
vn -1.00000000 0.00000000 0.00000000
vn -1.00000000 0.00000000 0.00000000
vn -1.00000000 0.00000000 0.00000000
vn -1.00000000 0.00000000 0.00000000
vn -1.00000000 0.00000000 0.00000000
vn 0.00000000 0.00000000 -1.00000000
vn 0.00000000 0.00000000 -1.00000000
vn 0.00000000 0.00000000 -1.00000000
vn 0.00000000 0.00000000 -1.00000000
vn 0.58793780 -0.55557023 0.58793780
vn 0.58793780 -0.55557023 0.58793780
vn 0.58793780 -0.55557023 0.58793780
vn 0.58793780 -0.55557023 0.58793780
vn 0.39284748 -0.83146961 0.39284748
vn 0.39284748 -0.83146961 0.39284748
vn 0.39284748 -0.83146961 0.39284748
vn 0.39284748 -0.83146961 0.39284748
vn 0.13794969 -0.98078528 0.13794969
vn 0.13794969 -0.98078528 0.13794969
vn 0.13794969 -0.98078528 0.13794969
vn 0.13794969 -0.98078528 0.13794969
vn -0.13794969 -0.98078528 -0.13794969
vn -0.13794969 -0.98078528 -0.13794969
vn -0.13794969 -0.98078528 -0.13794969
vn -0.13794969 -0.98078528 -0.13794969
vn -0.39284748 -0.83146961 -0.39284748
vn -0.39284748 -0.83146961 -0.39284748
vn -0.39284748 -0.83146961 -0.39284748
vn -0.39284748 -0.83146961 -0.39284748
vn -0.58793780 -0.55557023 -0.58793780
vn -0.58793780 -0.55557023 -0.58793780
vn -0.58793780 -0.55557023 -0.58793780
vn -0.58793780 -0.55557023 -0.58793780
vn -0.69351992 -0.19509032 -0.69351992
vn -0.69351992 -0.19509032 -0.69351992
vn -0.69351992 -0.19509032 -0.69351992
vn -0.69351992 -0.19509032 -0.69351992
vn -0.70710678 0.00000000 -0.70710678
vn -0.70710678 0.00000000 -0.70710678
vn -0.70710678 0.00000000 -0.70710678
vn -0.70710678 0.00000000 -0.70710678
vn -0.70710678 0.00000000 -0.70710678
vn -0.70710678 0.00000000 -0.70710678
vn 0.70710678 0.00000000 0.70710678
vn 0.70710678 0.00000000 0.70710678
vn 0.70710678 0.00000000 0.70710678
vn 0.70710678 0.00000000 0.70710678
vn 0.70710678 0.00000000 0.70710678
vn 0.70710678 0.00000000 0.70710678
vn 0.00000000 1.00000000 0.00000000
vn 0.00000000 1.00000000 0.00000000
vn 0.00000000 1.00000000 0.00000000
vn 0.00000000 1.00000000 0.00000000
vn 0.00000000 1.00000000 0.00000000
vn 0.00000000 1.00000000 0.00000000
vn 0.00000000 1.00000000 0.00000000
vn 0.00000000 1.00000000 0.00000000
s 1
usemtl Sandstone_Trim
f 8/8/8 1/1/1 2/2/2
f 7/7/7 2/2/2 3/3/3
f 3/3/3 5/5/5 6/6/6
f 19/19/19 5/5/5 9/9/9
f 13/13/13 18/18/18 19/19/19
f 14/14/14 15/15/15 18/18/18
f 15/15/15 16/16/16 18/18/18
f 16/16/16 17/17/17 18/18/18
f 13/13/13 14/14/14 18/18/18
f 19/19/19 12/12/12 13/13/13
f 19/19/19 11/11/11 12/12/12
f 19/19/19 10/10/10 11/11/11
f 19/19/19 9/9/9 10/10/10
f 5/5/5 4/4/4 9/9/9
f 3/3/3 4/4/4 5/5/5
f 6/6/6 7/7/7 3/3/3
f 17/17/17 8/8/8 18/18/18
f 17/17/17 1/1/1 8/8/8
f 7/7/7 8/8/8 2/2/2
s 2
f 3/20/20 2/21/21 21/23/23
f 2/21/21 20/22/22 21/23/23
s 3
f 5/28/28 19/26/26 23/27/27
f 22/24/24 5/28/28 23/27/27
f 22/24/24 6/25/25 5/28/28
s 4
f 24/29/29 22/30/30 25/32/32
f 22/30/30 23/31/31 25/32/32
s 5
f 25/35/35 27/36/36 28/37/37
f 28/37/37 26/33/33 24/34/34
f 24/34/34 25/35/35 28/37/37
s 6
f 30/40/40 18/41/41 8/42/42
f 8/42/42 7/38/38 29/39/39
f 29/39/39 30/40/40 8/42/42
s 7
f 32/50/50 29/49/49 7/48/48
f 31/43/43 7/48/48 6/47/47
f 6/47/47 24/45/45 26/44/44
f 6/47/47 22/46/46 24/45/45
f 6/47/47 26/44/44 31/43/43
f 31/43/43 32/50/50 7/48/48
s 8
f 17/51/51 16/52/52 33/53/53
f 17/51/51 33/53/53 34/54/54
s 9
f 20/56/56 35/55/55 37/62/62
f 45/72/72 37/62/62 34/71/71
f 27/73/73 45/72/72 42/67/67
f 42/67/67 41/66/66 27/73/73
f 41/66/66 40/65/65 27/73/73
f 40/65/65 39/64/64 27/73/73
f 39/64/64 38/63/63 27/73/73
f 38/63/63 36/58/58 28/59/59
f 26/60/60 28/59/59 21/57/57
f 21/57/57 31/61/61 26/60/60
f 28/59/59 36/58/58 21/57/57
f 38/63/63 28/59/59 27/73/73
f 45/72/72 43/68/68 42/67/67
f 45/72/72 44/69/69 43/68/68
f 45/72/72 33/70/70 44/69/69
f 45/72/72 34/71/71 33/70/70
f 37/62/62 35/55/55 34/71/71
f 21/57/57 20/56/56 31/61/61
f 20/56/56 37/62/62 31/61/61
s 10
f 37/78/78 45/77/77 46/74/74
f 46/74/74 32/75/75 37/78/78
f 32/75/75 31/76/76 37/78/78
s 11
f 30/82/82 29/81/81 46/79/79
f 29/81/81 32/80/80 46/79/79
s 12
f 16/83/83 15/84/84 44/85/85
f 16/83/83 44/85/85 33/86/86
s 13
f 15/87/87 14/88/88 43/89/89
f 15/87/87 43/89/89 44/90/90
s 14
f 14/91/91 13/92/92 42/93/93
f 14/91/91 42/93/93 43/94/94
s 15
f 13/95/95 12/96/96 41/97/97
f 13/95/95 41/97/97 42/98/98
s 16
f 12/99/99 11/100/100 40/101/101
f 12/99/99 40/101/101 41/102/102
s 17
f 11/103/103 10/104/104 39/105/105
f 11/103/103 39/105/105 40/106/106
s 18
f 10/107/107 9/108/108 38/109/109
f 10/107/107 38/109/109 39/110/110
s 19
f 36/116/116 38/114/114 9/111/111
f 4/115/115 21/113/113 36/116/116
f 4/115/115 3/112/112 21/113/113
f 36/116/116 9/111/111 4/115/115
s 20
f 17/117/117 34/118/118 35/121/121
f 1/122/122 35/121/121 20/119/119
f 20/119/119 2/120/120 1/122/122
f 1/122/122 17/117/117 35/121/121
s 21
usemtl Sandstone_Floor
f 18/126/126 30/125/125 46/124/124
f 19/127/127 18/126/126 45/123/123
f 27/130/130 19/127/127 45/123/123
f 27/130/130 25/129/129 19/127/127
f 25/129/129 23/128/128 19/127/127
f 18/126/126 46/124/124 45/123/123
