mtllib Materials_Modular_Temple.mtl
o object1
g object1
v -0.06568542 0.56568542 -0.60000000
v -0.06568542 0.56568542 0.60000000
v -0.23910363 0.30614675 0.60000000
v -0.23910363 0.30614675 -0.60000000
v 0.19385325 0.73910363 -0.60000000
v 0.19385325 0.73910363 0.60000000
v 0.50000000 0.80000000 -0.60000000
v 0.50000000 0.80000000 0.60000000
v 0.50000000 1.00000000 -0.60000000
v 0.50000000 1.00000000 0.60000000
v -0.50000000 1.00000000 -0.60000000
v -0.50000000 1.00000000 0.60000000
v -0.50000000 -0.00000000 -0.60000000
v -0.50000000 -0.00000000 0.60000000
v -0.30000000 0.00000000 -0.60000000
v -0.30000000 0.00000000 0.60000000
vt 1.00000000 1.00000000
vt 0.00000000 1.00000000
vt 0.00000000 0.00000000
vt 1.00000000 0.00000000
vt 1.00000000 1.00000000
vt 0.00000000 1.00000000
vt 0.00000000 0.00000000
vt 1.00000000 0.00000000
vt 1.00000000 1.00000000
vt 0.00000000 1.00000000
vt 0.00000000 0.00000000
vt 1.00000000 0.00000000
vt 1.00000000 1.00000000
vt 0.00000000 1.00000000
vt 0.00000000 0.00000000
vt 1.00000000 0.00000000
vt 1.00000000 1.00000000
vt 0.00000000 1.00000000
vt 0.00000000 0.00000000
vt 1.00000000 0.00000000
vt 1.00000000 1.00000000
vt 0.00000000 1.00000000
vt 0.00000000 0.00000000
vt 1.00000000 0.00000000
vt 1.00000000 1.00000000
vt 0.00000000 1.00000000
vt 0.00000000 0.00000000
vt 1.00000000 0.00000000
vt 1.00000000 1.00000000
vt 0.00000000 1.00000000
vt 0.00000000 0.80000000
vt 0.30614675 0.73910363
vt 0.56568542 0.56568542
vt 0.73910363 0.30614675
vt 0.80000000 0.00000000
vt 1.00000000 0.00000000
vt 1.00000000 1.00000000
vt 0.00000000 1.00000000
vt 0.00000000 0.00000000
vt 1.00000000 0.00000000
vt 1.00000000 1.00000000
vt 0.00000000 1.00000000
vt 0.00000000 0.80000000
vt 0.30614675 0.73910363
vt 0.56568542 0.56568542
vt 0.73910363 0.30614675
vt 0.80000000 0.00000000
vt 1.00000000 0.00000000
vn 0.83146961 -0.55557023 0.00000000
vn 0.83146961 -0.55557023 0.00000000
vn 0.83146961 -0.55557023 0.00000000
vn 0.83146961 -0.55557023 0.00000000
vn 0.55557023 -0.83146961 0.00000000
vn 0.55557023 -0.83146961 0.00000000
vn 0.55557023 -0.83146961 0.00000000
vn 0.55557023 -0.83146961 0.00000000
vn 0.19509032 -0.98078528 0.00000000
vn 0.19509032 -0.98078528 0.00000000
vn 0.19509032 -0.98078528 0.00000000
vn 0.19509032 -0.98078528 0.00000000
vn 1.00000000 0.00000000 0.00000000
vn 1.00000000 0.00000000 0.00000000
vn 1.00000000 0.00000000 0.00000000
vn 1.00000000 0.00000000 0.00000000
vn -0.00000000 1.00000000 0.00000000
vn -0.00000000 1.00000000 0.00000000
vn -0.00000000 1.00000000 0.00000000
vn -0.00000000 1.00000000 0.00000000
vn -1.00000000 -0.00000000 -0.00000000
vn -1.00000000 -0.00000000 -0.00000000
vn -1.00000000 -0.00000000 -0.00000000
vn -1.00000000 -0.00000000 -0.00000000
vn 0.00000000 -1.00000000 -0.00000000
vn 0.00000000 -1.00000000 -0.00000000
vn 0.00000000 -1.00000000 -0.00000000
vn 0.00000000 -1.00000000 -0.00000000
vn 0.00000000 0.00000000 -1.00000000
vn 0.00000000 0.00000000 -1.00000000
vn 0.00000000 0.00000000 -1.00000000
vn 0.00000000 0.00000000 -1.00000000
vn 0.00000000 0.00000000 -1.00000000
vn 0.00000000 0.00000000 -1.00000000
vn 0.00000000 0.00000000 -1.00000000
vn 0.00000000 0.00000000 -1.00000000
vn 0.98078528 -0.19509032 0.00000000
vn 0.98078528 -0.19509032 0.00000000
vn 0.98078528 -0.19509032 0.00000000
vn 0.98078528 -0.19509032 0.00000000
vn -0.00000000 -0.00000000 1.00000000
vn -0.00000000 -0.00000000 1.00000000
vn -0.00000000 -0.00000000 1.00000000
vn -0.00000000 -0.00000000 1.00000000
vn -0.00000000 -0.00000000 1.00000000
vn -0.00000000 -0.00000000 1.00000000
vn -0.00000000 -0.00000000 1.00000000
vn -0.00000000 -0.00000000 1.00000000
s 1
usemtl Sandstone_Trim
f 1/1/1 2/2/2 4/4/4
f 2/2/2 3/3/3 4/4/4
s 2
f 5/5/5 6/6/6 1/8/8
f 6/6/6 2/7/7 1/8/8
s 3
f 7/9/9 8/10/10 5/12/12
f 8/10/10 6/11/11 5/12/12
s 4
f 9/13/13 10/14/14 8/15/15
f 9/13/13 8/15/15 7/16/16
s 5
f 11/17/17 12/18/18 10/19/19
f 11/17/17 10/19/19 9/20/20
s 6
f 13/21/21 14/22/22 11/24/24
f 14/22/22 12/23/23 11/24/24
s 7
f 15/25/25 16/26/26 13/28/28
f 16/26/26 14/27/27 13/28/28
s 8
f 9/36/36 7/35/35 5/34/34
f 11/29/29 5/34/34 1/33/33
f 4/32/32 13/30/30 11/29/29
f 4/32/32 15/31/31 13/30/30
f 11/29/29 1/33/33 4/32/32
f 11/29/29 9/36/36 5/34/34
s 9
f 4/37/37 3/38/38 15/40/40
f 3/38/38 16/39/39 15/40/40
s 10
f 6/46/46 8/47/47 10/48/48
f 2/45/45 6/46/46 12/41/41
f 12/41/41 14/42/42 3/44/44
f 14/42/42 16/43/43 3/44/44
f 3/44/44 2/45/45 12/41/41
f 6/46/46 10/48/48 12/41/41
