mtllib Materials_Modular_Temple.mtl
o object1
g object1
v -0.05000000 0.50000000 0.42500000
v -0.05000000 0.30000000 0.42500000
v -0.05000000 0.30000000 0.57500000
v -0.05000000 0.50000000 0.57500000
v -0.30000000 0.30000000 0.57500000
v -0.30000000 0.50000000 0.57500000
v -0.30000000 0.50000000 0.42500000
v -0.30000000 0.30000000 0.42500000
vt 1.00000000 1.00000000
vt 0.00000000 1.00000000
vt 0.00000000 0.00000000
vt 1.00000000 0.00000000
vt 1.00000000 1.00000000
vt 0.00000000 1.00000000
vt 0.00000000 0.00000000
vt 1.00000000 0.00000000
vt 1.00000000 1.00000000
vt 0.00000000 1.00000000
vt 0.00000000 0.00000000
vt 1.00000000 0.00000000
vt 1.00000000 1.00000000
vt 0.00000000 1.00000000
vt 0.00000000 0.00000000
vt 1.00000000 0.00000000
vt 1.00000000 1.00000000
vt 0.00000000 1.00000000
vt 0.00000000 0.00000000
vt 1.00000000 0.00000000
vt 1.00000000 1.00000000
vt 0.00000000 1.00000000
vt 0.00000000 0.00000000
vt 1.00000000 0.00000000
vn 1.00000000 0.00000000 0.00000000
vn 1.00000000 0.00000000 0.00000000
vn 1.00000000 0.00000000 0.00000000
vn 1.00000000 0.00000000 0.00000000
vn 0.00000000 0.00000000 1.00000000
vn 0.00000000 0.00000000 1.00000000
vn 0.00000000 0.00000000 1.00000000
vn 0.00000000 0.00000000 1.00000000
vn -1.00000000 0.00000000 0.00000000
vn -1.00000000 0.00000000 0.00000000
vn -1.00000000 0.00000000 0.00000000
vn -1.00000000 0.00000000 0.00000000
vn 0.00000000 1.00000000 0.00000000
vn 0.00000000 1.00000000 0.00000000
vn 0.00000000 1.00000000 0.00000000
vn 0.00000000 1.00000000 0.00000000
vn 0.00000000 0.00000000 -1.00000000
vn 0.00000000 0.00000000 -1.00000000
vn 0.00000000 0.00000000 -1.00000000
vn 0.00000000 0.00000000 -1.00000000
vn 0.00000000 -1.00000000 0.00000000
vn 0.00000000 -1.00000000 0.00000000
vn 0.00000000 -1.00000000 0.00000000
vn 0.00000000 -1.00000000 0.00000000
s 1
usemtl Sandstone_4
f 4/4/4 3/3/3 1/1/1
f 3/3/3 2/2/2 1/1/1
s 2
f 6/8/8 5/7/7 4/5/5
f 5/7/7 3/6/6 4/5/5
s 3
f 7/9/9 8/10/10 6/12/12
f 8/10/10 5/11/11 6/12/12
s 4
f 7/16/16 6/15/15 4/14/14
f 7/16/16 4/14/14 1/13/13
s 5
f 1/17/17 2/18/18 7/20/20
f 2/18/18 8/19/19 7/20/20
s 6
f 2/21/21 3/22/22 8/24/24
f 3/22/22 5/23/23 8/24/24
o object2
g object2
v 0.50000000 0.45000000 0.42500000
v 0.50000000 0.45000000 0.57500000
v 0.25000000 0.45000000 0.57500000
v 0.25000000 0.45000000 0.42500000
v 0.25000000 0.30000000 0.42500000
v 0.25000000 0.30000000 0.57500000
v 0.50000000 0.30000000 0.42500000
v 0.50000000 0.30000000 0.57500000
vt 1.00000000 1.00000000
vt 0.00000000 1.00000000
vt 0.00000000 0.00000000
vt 1.00000000 0.00000000
vt 1.00000000 1.00000000
vt 0.00000000 1.00000000
vt 0.00000000 0.00000000
vt 1.00000000 0.00000000
vt 1.00000000 1.00000000
vt 0.00000000 1.00000000
vt 0.00000000 0.00000000
vt 1.00000000 0.00000000
vt 1.00000000 1.00000000
vt 0.00000000 1.00000000
vt 0.00000000 0.00000000
vt 1.00000000 0.00000000
vt 1.00000000 1.00000000
vt 0.00000000 1.00000000
vt 0.00000000 0.00000000
vt 1.00000000 0.00000000
vt 1.00000000 1.00000000
vt 0.00000000 1.00000000
vt 0.00000000 0.00000000
vt 1.00000000 0.00000000
vn 0.00000000 1.00000000 0.00000000
vn 0.00000000 1.00000000 0.00000000
vn 0.00000000 1.00000000 0.00000000
vn 0.00000000 1.00000000 0.00000000
vn -1.00000000 0.00000000 0.00000000
vn -1.00000000 0.00000000 0.00000000
vn -1.00000000 0.00000000 0.00000000
vn -1.00000000 0.00000000 0.00000000
vn 0.00000000 -1.00000000 -0.00000000
vn 0.00000000 -1.00000000 -0.00000000
vn 0.00000000 -1.00000000 -0.00000000
vn 0.00000000 -1.00000000 -0.00000000
vn 0.00000000 0.00000000 -1.00000000
vn 0.00000000 0.00000000 -1.00000000
vn 0.00000000 0.00000000 -1.00000000
vn 0.00000000 0.00000000 -1.00000000
vn 1.00000000 0.00000000 0.00000000
vn 1.00000000 0.00000000 0.00000000
vn 1.00000000 0.00000000 0.00000000
vn 1.00000000 0.00000000 0.00000000
vn 0.00000000 0.00000000 1.00000000
vn 0.00000000 0.00000000 1.00000000
vn 0.00000000 0.00000000 1.00000000
vn 0.00000000 0.00000000 1.00000000
s 1
usemtl Sandstone_4
f 12/28/28 11/27/27 10/26/26
f 12/28/28 10/26/26 9/25/25
s 2
f 12/29/29 13/30/30 11/32/32
f 13/30/30 14/31/31 11/32/32
s 3
f 15/33/33 16/34/34 13/36/36
f 16/34/34 14/35/35 13/36/36
s 4
f 9/37/37 15/38/38 12/40/40
f 15/38/38 13/39/39 12/40/40
s 5
f 10/44/44 16/43/43 9/41/41
f 16/43/43 15/42/42 9/41/41
s 6
f 11/48/48 14/47/47 10/45/45
f 14/47/47 16/46/46 10/45/45
o object3
g object3
v 0.50000000 0.00000000 0.60000000
v 0.50000000 0.00000000 0.40000000
v -0.50000000 0.00000000 0.40000000
v -0.50000000 0.00000000 0.60000000
v -0.50000000 0.50000000 0.40000000
v -0.50000000 0.50000000 0.60000000
v -0.35982394 0.54672535 0.50000000
v -0.45169635 0.51610122 0.60000000
v -0.35982394 0.54672535 0.40000000
v -0.34073790 0.54536895 0.51022426
v -0.34073790 0.54536895 0.40000000
v -0.30098553 0.52549276 0.60000000
v -0.16118034 0.45559017 0.40000000
v -0.16118034 0.45559017 0.60000000
v -0.13881966 0.45559017 0.40000000
v -0.13881966 0.45559017 0.60000000
v 0.03026039 0.54013019 0.40000000
v 0.03026039 0.54013019 0.60000000
v 0.06224199 0.53163702 0.40000000
v 0.06224199 0.53163702 0.60000000
v 0.13308436 0.42537345 0.40000000
v 0.13308436 0.42537345 0.60000000
v 0.17156329 0.42156329 0.40000000
v 0.17156329 0.42156329 0.60000000
v 0.23232233 0.48232233 0.60000000
v 0.23232233 0.48232233 0.40000000
v 0.26767767 0.48232233 0.40000000
v 0.26767767 0.48232233 0.60000000
v 0.33550778 0.41449222 0.40000000
v 0.33550778 0.41449222 0.60000000
v 0.36705295 0.41136863 0.40000000
v 0.36705295 0.41136863 0.60000000
v 0.50000000 0.50000000 0.60000000
v 0.50000000 0.50000000 0.40000000
vt 1.00000000 1.00000000
vt 0.00000000 1.00000000
vt 0.00000000 0.00000000
vt 1.00000000 0.00000000
vt 1.00000000 1.00000000
vt 0.00000000 1.00000000
vt 0.00000000 0.00000000
vt 1.00000000 0.00000000
vt 0.50000000 0.00000000
vt 1.00000000 0.65540728
vt 1.00000000 1.00000000
vt 0.00000000 1.00000000
vt 0.00000000 0.00000000
vt 0.00000000 0.00000000
vt 0.90724131 0.00000000
vt 1.00000000 1.00000000
vt 0.00000000 1.00000000
vt 1.00000000 0.77860928
vt 0.55112129 1.00000000
vt 0.00000000 1.00000000
vt 0.00000000 0.00000000
vt 1.00000000 0.00000000
vt 0.00000000 1.00000000
vt 0.00000000 0.00000000
vt 1.00000000 0.00000000
vt 1.00000000 1.00000000
vt 0.00000000 1.00000000
vt 0.00000000 0.00000000
vt 1.00000000 0.00000000
vt 1.00000000 1.00000000
vt 0.00000000 1.00000000
vt 0.00000000 0.00000000
vt 1.00000000 0.00000000
vt 1.00000000 1.00000000
vt 0.00000000 1.00000000
vt 0.00000000 0.00000000
vt 1.00000000 0.00000000
vt 1.00000000 1.00000000
vt 0.00000000 1.00000000
vt 0.00000000 0.00000000
vt 1.00000000 0.00000000
vt 1.00000000 1.00000000
vt 1.00000000 0.00000000
vt 1.00000000 1.00000000
vt 0.00000000 1.00000000
vt 0.00000000 0.00000000
vt 0.00000000 1.00000000
vt 0.00000000 0.00000000
vt 1.00000000 0.00000000
vt 1.00000000 1.00000000
vt 0.00000000 1.00000000
vt 0.00000000 0.00000000
vt 1.00000000 0.00000000
vt 1.00000000 1.00000000
vt 0.00000000 1.00000000
vt 0.00000000 0.00000000
vt 1.00000000 0.00000000
vt 1.00000000 1.00000000
vt 1.00000000 0.00000000
vt 1.00000000 1.00000000
vt 0.00000000 1.00000000
vt 0.00000000 0.00000000
vt 0.00000000 1.00000000
vt 0.00000000 0.00000000
vt 0.89775742 0.25455913
vt 1.00000000 0.38015070
vt 0.78753874 0.36691564
vt 0.98427569 0.43775801
vt 1.00000000 0.46973961
vt 0.84348214 0.63881966
vt 0.84348214 0.66118034
vt 0.97290018 0.80098553
vt 0.95551262 0.95169635
vt 0.92570274 1.00000000
vt 0.00000000 1.00000000
vt 0.00000000 0.00000000
vt 0.92570274 0.00000000
vt 0.76161014 0.13294705
vt 0.76739317 0.16449222
vt 0.89297420 0.23232233
vt 0.89297420 0.26767767
vt 0.78048458 0.32843671
vt 1.00000000 1.00000000
vt 0.00000000 1.00000000
vt 0.00000000 0.00000000
vt 1.00000000 0.00000000
vt 0.99751904 0.84073790
vt 1.00000000 0.85982394
vt 0.91453597 1.00000000
vt 0.00000000 1.00000000
vt 0.00000000 0.00000000
vt 0.91453597 0.00000000
vt 0.75242282 0.13294705
vt 0.75813609 0.16449222
vt 0.88220224 0.23232233
vt 0.88220224 0.26767767
vt 0.77106958 0.32843671
vt 0.77803865 0.36691564
vt 0.97240235 0.43775801
vt 0.98793698 0.46973961
vt 0.83330719 0.63881966
vt 0.83330719 0.66118034
vn -0.00000000 -1.00000000 -0.00000000
vn -0.00000000 -1.00000000 -0.00000000
vn -0.00000000 -1.00000000 -0.00000000
vn -0.00000000 -1.00000000 -0.00000000
vn -1.00000000 0.00000000 -0.00000000
vn -1.00000000 0.00000000 -0.00000000
vn -1.00000000 0.00000000 -0.00000000
vn -1.00000000 0.00000000 -0.00000000
vn -0.31622777 0.94868330 0.00000000
vn -0.31622777 0.94868330 0.00000000
vn -0.31622777 0.94868330 0.00000000
vn -0.31622777 0.94868330 0.00000000
vn -0.31622777 0.94868330 0.00000000
vn 0.07088902 0.99748421 0.00000000
vn 0.07088902 0.99748421 0.00000000
vn 0.07088902 0.99748421 0.00000000
vn 0.07088902 0.99748421 0.00000000
vn 0.44721360 0.89442719 0.00000000
vn 0.44721360 0.89442719 0.00000000
vn 0.44721360 0.89442719 0.00000000
vn 0.44721360 0.89442719 0.00000000
vn 0.44721360 0.89442719 0.00000000
vn 0.00000000 1.00000000 0.00000000
vn 0.00000000 1.00000000 -0.00000000
vn 0.00000000 1.00000000 -0.00000000
vn 0.00000000 1.00000000 0.00000000
vn -0.44721360 0.89442719 -0.00000000
vn -0.44721360 0.89442719 -0.00000000
vn -0.44721360 0.89442719 -0.00000000
vn -0.44721360 0.89442719 -0.00000000
vn 0.25666794 0.96649965 0.00000000
vn 0.25666794 0.96649965 0.00000000
vn 0.25666794 0.96649965 0.00000000
vn 0.25666794 0.96649965 0.00000000
vn 0.83205029 0.55470020 0.00000000
vn 0.83205029 0.55470020 0.00000000
vn 0.83205029 0.55470020 0.00000000
vn 0.83205029 0.55470020 0.00000000
vn 0.09853762 0.99513333 0.00000000
vn 0.09853762 0.99513333 0.00000000
vn 0.09853762 0.99513333 0.00000000
vn 0.09853762 0.99513333 0.00000000
vn -0.70710678 0.70710678 0.00000000
vn -0.70710678 0.70710678 0.00000000
vn -0.70710678 0.70710678 0.00000000
vn -0.70710678 0.70710678 0.00000000
vn 0.00000000 1.00000000 -0.00000000
vn 0.00000000 1.00000000 0.00000000
vn 0.00000000 1.00000000 0.00000000
vn 0.00000000 1.00000000 -0.00000000
vn 0.70710678 0.70710678 0.00000000
vn 0.70710678 0.70710678 0.00000000
vn 0.70710678 0.70710678 0.00000000
vn 0.70710678 0.70710678 0.00000000
vn 0.09853762 0.99513333 -0.00000000
vn 0.09853762 0.99513333 0.00000000
vn 0.09853762 0.99513333 0.00000000
vn 0.09853762 0.99513333 -0.00000000
vn -0.55470020 0.83205029 0.00000000
vn -0.55470020 0.83205029 0.00000000
vn -0.55470020 0.83205029 0.00000000
vn -0.55470020 0.83205029 0.00000000
vn -0.06035851 0.96860320 0.24117355
vn -0.06035851 0.96860320 0.24117355
vn -0.06035851 0.96860320 0.24117355
vn -0.06035851 0.96860320 0.24117355
vn -0.00000000 0.00000000 1.00000000
vn -0.00000000 0.00000000 1.00000000
vn -0.00000000 0.00000000 1.00000000
vn -0.00000000 0.00000000 1.00000000
vn -0.00000000 0.00000000 1.00000000
vn -0.00000000 0.00000000 1.00000000
vn -0.00000000 0.00000000 1.00000000
vn -0.00000000 0.00000000 1.00000000
vn -0.00000000 0.00000000 1.00000000
vn -0.00000000 0.00000000 1.00000000
vn -0.00000000 0.00000000 1.00000000
vn -0.00000000 0.00000000 1.00000000
vn -0.00000000 0.00000000 1.00000000
vn -0.00000000 0.00000000 1.00000000
vn -0.00000000 0.00000000 1.00000000
vn -0.00000000 0.00000000 1.00000000
vn 1.00000000 0.00000000 0.00000000
vn 1.00000000 0.00000000 0.00000000
vn 1.00000000 0.00000000 0.00000000
vn 1.00000000 0.00000000 0.00000000
vn 0.00000000 0.00000000 -1.00000000
vn 0.00000000 0.00000000 -1.00000000
vn 0.00000000 0.00000000 -1.00000000
vn 0.00000000 0.00000000 -1.00000000
vn 0.00000000 0.00000000 -1.00000000
vn 0.00000000 0.00000000 -1.00000000
vn 0.00000000 0.00000000 -1.00000000
vn 0.00000000 0.00000000 -1.00000000
vn 0.00000000 0.00000000 -1.00000000
vn 0.00000000 0.00000000 -1.00000000
vn 0.00000000 0.00000000 -1.00000000
vn 0.00000000 0.00000000 -1.00000000
vn 0.00000000 0.00000000 -1.00000000
vn 0.00000000 0.00000000 -1.00000000
vn 0.00000000 0.00000000 -1.00000000
vn 0.00000000 0.00000000 -1.00000000
s 1
usemtl Sandstone_Trim
f 20/52/52 19/51/51 18/50/50
f 20/52/52 18/50/50 17/49/49
s 2
f 22/56/56 21/55/55 19/54/54
f 22/56/56 19/54/54 20/53/53
s 3
f 22/59/59 24/58/58 23/57/57
f 23/57/57 25/61/61 21/60/60
f 21/60/60 22/59/59 23/57/57
s 4
f 25/62/62 23/63/63 27/65/65
f 23/63/63 26/64/64 27/65/65
s 5
f 27/68/68 26/67/67 28/66/66
f 28/66/66 30/70/70 29/69/69
f 29/69/69 27/68/68 28/66/66
s 6
f 31/71/71 29/72/72 32/74/74
f 29/72/72 30/73/73 32/74/74
s 7
f 32/78/78 34/77/77 33/76/76
f 32/78/78 33/76/76 31/75/75
s 8
f 35/79/79 33/80/80 36/82/82
f 33/80/80 34/81/81 36/82/82
s 9
f 36/86/86 38/85/85 37/84/84
f 36/86/86 37/84/84 35/83/83
s 10
f 39/87/87 37/88/88 40/90/90
f 37/88/88 38/89/89 40/90/90
s 11
f 40/91/91 41/92/92 42/93/93
f 40/91/91 42/93/93 39/94/94
s 12
f 43/95/95 42/96/96 44/98/98
f 42/96/96 41/97/97 44/98/98
s 13
f 45/99/99 43/100/100 46/102/102
f 43/100/100 44/101/101 46/102/102
s 14
f 47/103/103 45/104/104 48/106/106
f 45/104/104 46/105/105 48/106/106
s 15
f 50/110/110 47/109/109 49/107/107
f 47/109/109 48/108/108 49/107/107
s 16
f 24/111/111 28/112/112 26/113/113
f 24/111/111 26/113/113 23/114/114
s 17
f 44/128/128 41/129/129 40/130/130
f 20/123/123 48/126/126 40/130/130
f 17/124/124 49/125/125 48/126/126
f 38/115/115 30/119/119 20/123/123
f 30/119/119 24/121/121 22/122/122
f 30/119/119 28/120/120 24/121/121
f 38/115/115 32/118/118 30/119/119
f 38/115/115 34/117/117 32/118/118
f 38/115/115 36/116/116 34/117/117
f 30/119/119 22/122/122 20/123/123
f 20/123/123 17/124/124 48/126/126
f 40/130/130 38/115/115 20/123/123
f 48/126/126 46/127/127 40/130/130
f 46/127/127 44/128/128 40/130/130
s 18
f 17/134/134 18/133/133 49/131/131
f 18/133/133 50/132/132 49/131/131
s 19
f 39/145/145 42/144/144 43/143/143
f 39/145/145 47/141/141 19/138/138
f 19/138/138 29/150/150 37/146/146
f 31/149/149 33/148/148 37/146/146
f 33/148/148 35/147/147 37/146/146
f 29/150/150 31/149/149 37/146/146
f 25/136/136 27/135/135 29/150/150
f 19/138/138 25/136/136 29/150/150
f 19/138/138 21/137/137 25/136/136
f 47/141/141 18/139/139 19/138/138
f 47/141/141 50/140/140 18/139/139
f 19/138/138 37/146/146 39/145/145
f 39/145/145 45/142/142 47/141/141
f 39/145/145 43/143/143 45/142/142
o object4
g object4
v 0.25000000 0.37340788 0.57500000
v 0.25000000 0.37340788 0.42500000
v 0.25000000 0.54840788 0.42500000
v 0.25000000 0.54840788 0.44562292
v 0.25000000 0.57340788 0.46624585
v 0.25000000 0.57340788 0.55000000
v 0.25000000 0.55000000 0.57500000
v -0.00000000 0.37340788 0.57500000
v -0.00000000 0.37340788 0.42500000
v -0.00000000 0.55000000 0.42500000
v -0.00000000 0.55000000 0.57500000
v -0.00000000 0.57340788 0.52500000
v -0.00000000 0.57340788 0.45000000
v 0.02500000 0.57340788 0.42500000
v 0.05000000 0.57340788 0.57500000
v 0.23750000 0.57340788 0.57500000
v 0.15000000 0.57340788 0.42500000
v 0.20000000 0.54840788 0.42500000
vt 0.00000000 0.00000000
vt 1.00000000 0.00000000
vt 1.00000000 0.87500000
vt 0.86251384 0.87500000
vt 0.72502769 1.00000000
vt 0.16666667 1.00000000
vt 0.00000000 0.88296060
vt 1.00000000 1.00000000
vt 0.00000000 1.00000000
vt 0.00000000 0.00000000
vt 1.00000000 0.00000000
vt 0.88296060 1.00000000
vt 0.00000000 1.00000000
vt 0.00000000 0.00000000
vt 0.88296060 0.00000000
vt 1.00000000 0.33333333
vt 1.00000000 0.83333333
vt 0.00000000 0.53285416
vt 1.00000000 0.00000000
vt 1.00000000 1.00000000
vt 1.00000000 0.82022913
vt 0.00000000 1.00000000
vt 0.00000000 0.00000000
vt 0.88296060 1.00000000
vt 0.00000000 1.00000000
vt 0.00000000 0.00000000
vt 0.88296060 0.00000000
vt 1.00000000 0.20000000
vt 1.00000000 0.95000000
vt 1.00000000 0.22188966
vt 0.00000000 1.00000000
vt 0.00000000 0.00000000
vt 0.72502769 1.00000000
vt 0.16666667 1.00000000
vt 0.00000000 0.95000000
vt 0.00000000 0.20000000
vt 0.33333333 0.00000000
vt 0.83333333 0.00000000
vt 1.00000000 0.10000000
vt 1.00000000 0.60000000
vt 0.00000000 0.11111111
vt 0.50000000 0.00000000
vt 1.00000000 0.44444444
vt 1.00000000 1.00000000
vt 0.00000000 1.00000000
vt 0.00000000 0.00000000
vt 1.00000000 0.00000000
vt 0.00000000 1.00000000
vt 0.00000000 0.00000000
vt 0.87500000 0.00000000
vt 0.87500000 0.20000000
vt 1.00000000 0.40000000
vt 1.00000000 0.90000000
vt 0.88296060 1.00000000
vn 1.00000000 0.00000000 0.00000000
vn 1.00000000 0.00000000 0.00000000
vn 1.00000000 0.00000000 0.00000000
vn 1.00000000 0.00000000 0.00000000
vn 1.00000000 0.00000000 0.00000000
vn 1.00000000 0.00000000 0.00000000
vn 1.00000000 0.00000000 0.00000000
vn 0.00000000 -1.00000000 0.00000000
vn 0.00000000 -1.00000000 0.00000000
vn 0.00000000 -1.00000000 0.00000000
vn 0.00000000 -1.00000000 0.00000000
vn -1.00000000 0.00000000 0.00000000
vn -1.00000000 0.00000000 0.00000000
vn -1.00000000 0.00000000 0.00000000
vn -1.00000000 0.00000000 0.00000000
vn -1.00000000 0.00000000 0.00000000
vn -1.00000000 0.00000000 0.00000000
vn -0.56427343 0.60265330 -0.56427343
vn -0.56427343 0.60265330 -0.56427343
vn -0.56427343 0.60265330 -0.56427343
vn -0.39035597 0.83381319 0.39035597
vn -0.39035597 0.83381319 0.39035597
vn -0.39035597 0.83381319 0.39035597
vn 0.00000000 0.00000000 1.00000000
vn 0.00000000 0.00000000 1.00000000
vn 0.00000000 0.00000000 1.00000000
vn 0.00000000 0.00000000 1.00000000
vn 0.00000000 0.00000000 1.00000000
vn 0.00000000 0.00000000 1.00000000
vn 0.80709099 0.43099323 0.40354550
vn 0.80709099 0.43099323 0.40354550
vn 0.80709099 0.43099323 0.40354550
vn 0.00000000 1.00000000 0.00000000
vn 0.00000000 1.00000000 0.00000000
vn 0.00000000 1.00000000 0.00000000
vn 0.00000000 1.00000000 0.00000000
vn 0.00000000 1.00000000 0.00000000
vn 0.00000000 1.00000000 0.00000000
vn 0.00000000 1.00000000 0.00000000
vn 0.00000000 1.00000000 0.00000000
vn 0.30319552 0.60639104 -0.73509345
vn 0.30319552 0.60639104 -0.73509345
vn 0.30319552 0.60639104 -0.73509345
vn 0.30319552 0.60639104 -0.73509345
vn 0.00000000 1.00000000 0.00000000
vn 0.00000000 1.00000000 0.00000000
vn 0.00000000 1.00000000 0.00000000
vn 0.00000000 0.00000000 -1.00000000
vn 0.00000000 0.00000000 -1.00000000
vn 0.00000000 0.00000000 -1.00000000
vn 0.00000000 0.00000000 -1.00000000
vn 0.00000000 0.00000000 -1.00000000
vn 0.00000000 0.00000000 -1.00000000
vn 0.00000000 0.00000000 -1.00000000
s 1
usemtl Sandstone_4
f 54/154/154 55/155/155 56/156/156
f 52/152/152 53/153/153 54/154/154
f 54/154/154 51/151/151 52/152/152
f 54/154/154 57/157/157 51/151/151
f 54/154/154 56/156/156 57/157/157
s 2
f 52/158/158 51/159/159 59/161/161
f 51/159/159 58/160/160 59/161/161
s 3
f 62/166/166 63/167/167 60/162/162
f 60/162/162 58/164/164 61/165/165
f 60/162/162 59/163/163 58/164/164
f 61/165/165 62/166/166 60/162/162
s 4
f 63/168/168 64/169/169 60/170/170
s 5
f 62/171/171 61/172/172 65/173/173
s 6
f 65/178/178 61/177/177 58/176/176
f 66/179/179 58/176/176 57/174/174
f 58/176/176 51/175/175 57/174/174
f 66/179/179 65/178/178 58/176/176
s 7
f 66/182/182 57/181/181 56/180/180
s 8
f 64/189/189 63/188/188 62/187/187
f 67/190/190 64/189/189 65/186/186
f 67/190/190 66/185/185 56/184/184
f 67/190/190 65/186/186 66/185/185
f 56/184/184 55/183/183 67/190/190
f 64/189/189 62/187/187 65/186/186
s 9
f 55/191/191 54/192/192 68/193/193
f 55/191/191 68/193/193 67/194/194
s 10
f 54/197/197 53/196/196 68/195/195
s 11
f 68/201/201 53/200/200 52/199/199
f 60/204/204 64/203/203 52/199/199
f 52/199/199 59/198/198 60/204/204
f 64/203/203 67/202/202 52/199/199
f 67/202/202 68/201/201 52/199/199
