mtllib Materials_Modular_Temple.mtl
o object1
g object1
v 0.50000000 0.15000000 0.60000000
v 0.50000000 0.00000000 0.60000000
v 0.04436508 0.00000000 0.60000000
v 0.04436508 0.15000000 0.60000000
v -0.60000000 0.00000000 -0.04436508
v -0.60000000 0.15000000 -0.04436508
v -0.60000000 0.00000000 -0.50000000
v -0.60000000 0.15000000 -0.50000000
v -0.40000000 0.00000000 -0.50000000
v -0.40000000 0.15000000 -0.50000000
v -0.45000000 0.20000000 -0.50000000
v -0.54698485 0.20000000 -0.50000000
v -0.54698485 0.20000000 -0.06632468
v -0.45000000 0.20000000 -0.10649712
v 0.06632468 0.20000000 0.54698485
v 0.10649712 0.20000000 0.45000000
v -0.40000000 0.15000000 -0.12720779
v 0.12720779 0.15000000 0.40000000
v 0.12720779 0.00000000 0.40000000
v -0.40000000 0.00000000 -0.12720779
v 0.50000000 0.15000000 0.40000000
v 0.50000000 0.00000000 0.40000000
v 0.50000000 0.20000000 0.45000000
v 0.50000000 0.20000000 0.54698485
vt 1.00000000 1.00000000
vt 0.00000000 1.00000000
vt 0.00000000 0.00000000
vt 1.00000000 0.00000000
vt 1.00000000 1.00000000
vt 0.00000000 1.00000000
vt 0.00000000 0.00000000
vt 1.00000000 0.00000000
vt 1.00000000 1.00000000
vt 0.00000000 1.00000000
vt 0.00000000 0.00000000
vt 1.00000000 0.00000000
vt 0.00000000 0.00000000
vt 0.75000000 0.00000000
vt 1.00000000 0.25000000
vt 1.00000000 0.73492424
vt 0.75000000 1.00000000
vt 0.00000000 1.00000000
vt 1.00000000 1.00000000
vt 0.00000000 1.00000000
vt 0.00000000 0.00000000
vt 1.00000000 0.00000000
vt 1.00000000 1.00000000
vt 0.00000000 1.00000000
vt 0.00000000 0.00000000
vt 1.00000000 0.00000000
vt 1.00000000 1.00000000
vt 0.00000000 1.00000000
vt 0.00000000 0.00000000
vt 1.00000000 0.00000000
vt 1.00000000 1.00000000
vt 0.00000000 1.00000000
vt 0.00000000 0.00000000
vt 1.00000000 0.00000000
vt 1.00000000 1.00000000
vt 0.00000000 1.00000000
vt 0.00000000 0.00000000
vt 1.00000000 0.00000000
vt 1.00000000 1.00000000
vt 0.00000000 1.00000000
vt 0.00000000 0.00000000
vt 1.00000000 0.00000000
vt 1.00000000 1.00000000
vt 0.00000000 1.00000000
vt 0.00000000 0.00000000
vt 1.00000000 0.00000000
vt 1.00000000 1.00000000
vt 0.00000000 1.00000000
vt 0.00000000 0.00000000
vt 1.00000000 0.00000000
vt 1.00000000 1.00000000
vt 0.00000000 1.00000000
vt 0.00000000 0.00000000
vt 1.00000000 0.00000000
vt 1.00000000 1.00000000
vt 0.00000000 1.00000000
vt 0.00000000 0.00000000
vt 1.00000000 0.00000000
vt 1.00000000 1.00000000
vt 0.00000000 1.00000000
vt 0.00000000 0.00000000
vt 1.00000000 0.00000000
vt 1.00000000 1.00000000
vt 0.00000000 1.00000000
vt 0.00000000 0.00000000
vt 1.00000000 0.00000000
vt 0.00000000 0.00000000
vt 0.75000000 0.00000000
vt 1.00000000 0.25000000
vt 1.00000000 0.73492424
vt 0.75000000 1.00000000
vt 0.00000000 1.00000000
vt 1.00000000 0.81818182
vt 1.00000000 1.00000000
vt 0.58578644 1.00000000
vt 0.00000000 0.41421356
vt 0.00000000 0.00000000
vt 0.18181818 0.00000000
vt 0.18181818 0.33890201
vt 0.66109799 0.81818182
vn 0.00000000 0.00000000 1.00000000
vn 0.00000000 0.00000000 1.00000000
vn 0.00000000 0.00000000 1.00000000
vn 0.00000000 0.00000000 1.00000000
vn -0.70710678 0.00000000 0.70710678
vn -0.70710678 0.00000000 0.70710678
vn -0.70710678 0.00000000 0.70710678
vn -0.70710678 0.00000000 0.70710678
vn -1.00000000 0.00000000 0.00000000
vn -1.00000000 0.00000000 0.00000000
vn -1.00000000 0.00000000 0.00000000
vn -1.00000000 0.00000000 0.00000000
vn 0.00000000 0.00000000 -1.00000000
vn 0.00000000 0.00000000 -1.00000000
vn 0.00000000 0.00000000 -1.00000000
vn 0.00000000 0.00000000 -1.00000000
vn 0.00000000 0.00000000 -1.00000000
vn 0.00000000 0.00000000 -1.00000000
vn 0.00000000 1.00000000 0.00000000
vn 0.00000000 1.00000000 0.00000000
vn 0.00000000 1.00000000 0.00000000
vn 0.00000000 1.00000000 0.00000000
vn 0.00000000 1.00000000 0.00000000
vn 0.00000000 1.00000000 0.00000000
vn 0.50000000 0.70710678 -0.50000000
vn 0.50000000 0.70710678 -0.50000000
vn 0.50000000 0.70710678 -0.50000000
vn 0.50000000 0.70710678 -0.50000000
vn 0.70710678 0.00000000 -0.70710678
vn 0.70710678 0.00000000 -0.70710678
vn 0.70710678 0.00000000 -0.70710678
vn 0.70710678 0.00000000 -0.70710678
vn 0.00000000 0.00000000 -1.00000000
vn 0.00000000 0.00000000 -1.00000000
vn 0.00000000 0.00000000 -1.00000000
vn 0.00000000 0.00000000 -1.00000000
vn 0.00000000 0.70710678 -0.70710678
vn 0.00000000 0.70710678 -0.70710678
vn 0.00000000 0.70710678 -0.70710678
vn 0.00000000 0.70710678 -0.70710678
vn 0.00000000 1.00000000 0.00000000
vn 0.00000000 1.00000000 0.00000000
vn 1.00000000 0.00000000 0.00000000
vn 1.00000000 0.00000000 0.00000000
vn 1.00000000 0.00000000 0.00000000
vn 1.00000000 0.00000000 0.00000000
vn 0.70710678 0.70710678 -0.00000000
vn 0.70710678 0.70710678 -0.00000000
vn 0.70710678 0.70710678 -0.00000000
vn 0.70710678 0.70710678 -0.00000000
vn -0.68611664 0.72749155 0.00000000
vn -0.68611664 0.72749155 0.00000000
vn -0.68611664 0.72749155 0.00000000
vn -0.68611664 0.72749155 0.00000000
vn -0.48515773 0.72749155 0.48515773
vn -0.48515773 0.72749155 0.48515773
vn -0.48515773 0.72749155 0.48515773
vn -0.48515773 0.72749155 0.48515773
vn -0.00000000 0.72749155 0.68611664
vn -0.00000000 0.72749155 0.68611664
vn -0.00000000 0.72749155 0.68611664
vn -0.00000000 0.72749155 0.68611664
vn 1.00000000 0.00000000 0.00000000
vn 1.00000000 0.00000000 0.00000000
vn 1.00000000 0.00000000 0.00000000
vn 1.00000000 0.00000000 0.00000000
vn 1.00000000 0.00000000 0.00000000
vn 1.00000000 0.00000000 0.00000000
vn 0.00000000 -1.00000000 0.00000000
vn 0.00000000 -1.00000000 0.00000000
vn 0.00000000 -1.00000000 0.00000000
vn 0.00000000 -1.00000000 0.00000000
vn 0.00000000 -1.00000000 0.00000000
vn 0.00000000 -1.00000000 0.00000000
vn 0.00000000 -1.00000000 0.00000000
vn 0.00000000 -1.00000000 0.00000000
s 1
usemtl Sandstone_Trim
f 4/4/4 3/3/3 1/1/1
f 3/3/3 2/2/2 1/1/1
s 2
f 6/8/8 5/7/7 4/5/5
f 5/7/7 3/6/6 4/5/5
s 3
f 8/12/12 7/11/11 5/10/10
f 8/12/12 5/10/10 6/9/9
s 4
f 12/16/16 11/15/15 10/14/14
f 7/18/18 10/14/14 9/13/13
f 7/18/18 8/17/17 10/14/14
f 8/17/17 12/16/16 10/14/14
s 5
f 14/22/22 11/21/21 12/20/20
f 14/25/22 13/24/19 15/23/23
f 15/43/23 24/44/41 16/46/24
f 24/44/41 23/45/42 16/46/24
f 16/26/24 14/25/22 15/23/23
f 14/22/22 12/20/20 13/19/19
s 6
f 18/30/28 17/29/27 14/28/26
f 18/30/28 14/28/26 16/27/25
s 7
f 18/31/29 19/32/30 17/34/32
f 19/32/30 20/33/31 17/34/32
s 8
f 21/35/33 22/36/34 18/38/36
f 22/36/34 19/37/35 18/38/36
s 9
f 16/39/37 23/40/38 18/42/40
f 23/40/38 21/41/39 18/42/40
s 10
f 17/47/43 20/48/44 9/49/45
f 17/47/43 9/49/45 10/50/46
s 11
f 17/54/50 10/53/49 11/52/48
f 17/54/50 11/52/48 14/51/47
s 12
f 13/58/54 12/57/53 8/56/52
f 13/58/54 8/56/52 6/55/51
s 13
f 15/62/58 13/61/57 4/59/55
f 13/61/57 6/60/56 4/59/55
s 14
f 4/63/59 1/64/60 15/66/62
f 1/64/60 24/65/61 15/66/62
s 15
f 21/68/64 23/69/65 24/70/66
f 22/67/63 21/68/64 1/71/67
f 1/71/67 2/72/68 22/67/63
f 21/68/64 24/70/66 1/71/67
s 16
f 7/74/70 9/73/69 20/80/76
f 5/75/71 20/80/76 19/79/75
f 19/79/75 2/77/73 3/76/72
f 19/79/75 22/78/74 2/77/73
f 19/79/75 3/76/72 5/75/71
f 5/75/71 7/74/70 20/80/76
