mtllib Materials_Modular_Temple.mtl
o object1
g object1
v -0.30000000 0.25000000 0.42500000
v -0.30000000 0.05000000 0.42500000
v -0.30000000 0.05000000 0.57500000
v -0.30000000 0.25000000 0.57500000
v -0.05000000 0.22375461 0.42500000
v -0.05000000 0.05000000 0.42500000
v -0.06657600 0.25000000 0.42500000
v -0.05000000 0.05000000 0.57500000
v -0.05000000 0.22707058 0.57500000
v -0.05000000 0.25000000 0.55605262
v -0.05000000 0.25000000 0.43935875
v -0.08604630 0.25000000 0.57500000
vt 1.00000000 1.00000000
vt 0.00000000 1.00000000
vt 0.00000000 0.00000000
vt 1.00000000 0.00000000
vt 0.86877303 1.00000000
vt 0.00000000 1.00000000
vt 0.00000000 0.00000000
vt 1.00000000 0.00000000
vt 1.00000000 0.93369600
vt 0.00000000 1.00000000
vt 0.00000000 0.00000000
vt 0.88535289 0.00000000
vt 1.00000000 0.12631584
vt 1.00000000 0.90427499
vt 0.86877303 1.00000000
vt 0.00000000 1.00000000
vt 0.00000000 0.00000000
vt 1.00000000 0.59423748
vt 0.00000000 1.00000000
vt 0.00000000 0.00000000
vt 1.00000000 0.42869131
vt 0.12631584 1.00000000
vt 0.00000000 0.85581479
vt 0.00000000 0.00000000
vt 1.00000000 0.00000000
vt 1.00000000 0.93369600
vt 0.90427499 1.00000000
vt 0.88535289 1.00000000
vt 0.00000000 1.00000000
vt 0.00000000 0.00000000
vt 1.00000000 0.00000000
vt 1.00000000 0.85581479
vt 1.00000000 1.00000000
vt 0.00000000 1.00000000
vt 0.00000000 0.00000000
vt 1.00000000 0.00000000
vn -1.00000000 0.00000000 0.00000000
vn -1.00000000 0.00000000 0.00000000
vn -1.00000000 0.00000000 0.00000000
vn -1.00000000 0.00000000 0.00000000
vn 0.00000000 0.00000000 -1.00000000
vn 0.00000000 0.00000000 -1.00000000
vn 0.00000000 0.00000000 -1.00000000
vn 0.00000000 0.00000000 -1.00000000
vn 0.00000000 0.00000000 -1.00000000
vn 1.00000000 0.00000000 0.00000000
vn 1.00000000 0.00000000 0.00000000
vn 1.00000000 0.00000000 0.00000000
vn 1.00000000 0.00000000 0.00000000
vn 1.00000000 0.00000000 0.00000000
vn 1.00000000 0.00000000 0.00000000
vn 0.37554081 0.59037062 0.71444498
vn 0.37554081 0.59037062 0.71444498
vn 0.37554081 0.59037062 0.71444498
vn 0.60505347 0.38213816 -0.69848459
vn 0.60505347 0.38213816 -0.69848459
vn 0.60505347 0.38213816 -0.69848459
vn 0.00000000 1.00000000 0.00000000
vn 0.00000000 1.00000000 0.00000000
vn 0.00000000 1.00000000 0.00000000
vn 0.00000000 1.00000000 0.00000000
vn 0.00000000 1.00000000 0.00000000
vn 0.00000000 1.00000000 0.00000000
vn 0.00000000 0.00000000 1.00000000
vn 0.00000000 0.00000000 1.00000000
vn 0.00000000 0.00000000 1.00000000
vn 0.00000000 0.00000000 1.00000000
vn 0.00000000 0.00000000 1.00000000
vn 0.00000000 -1.00000000 0.00000000
vn 0.00000000 -1.00000000 0.00000000
vn 0.00000000 -1.00000000 0.00000000
vn 0.00000000 -1.00000000 0.00000000
s 1
usemtl Sandstone_4
f 1/1/1 2/2/2 4/4/4
f 2/2/2 3/3/3 4/4/4
s 2
f 5/5/5 6/6/6 2/7/7
f 2/7/7 1/8/8 7/9/9
f 5/5/5 2/7/7 7/9/9
s 3
f 5/15/15 11/14/14 10/13/13
f 5/15/15 9/12/12 8/11/11
f 8/11/11 6/10/10 5/15/15
f 5/15/15 10/13/13 9/12/12
s 4
f 12/18/18 9/17/17 10/16/16
s 5
f 7/19/19 11/20/20 5/21/21
s 6
f 12/23/23 10/22/22 11/27/27
f 11/27/27 7/26/26 12/23/23
f 7/26/26 1/25/25 12/23/23
f 1/25/25 4/24/24 12/23/23
s 7
f 8/29/29 9/28/28 12/32/32
f 12/32/32 4/31/31 3/30/30
f 12/32/32 3/30/30 8/29/29
s 8
f 6/33/33 8/34/34 2/36/36
f 8/34/34 3/35/35 2/36/36
o object2
g object2
v -0.50000000 0.50000000 0.40000000
v -0.50000000 0.00000000 0.40000000
v 0.00000000 0.00000000 0.40000000
v -0.04604715 0.13814146 0.40000000
v -0.06185854 0.15395285 0.40000000
v -0.18900004 0.19633335 0.40000000
v -0.20430627 0.21076566 0.40000000
v -0.29525259 0.43813148 0.40000000
v -0.31240112 0.45310028 0.40000000
v -0.04604715 0.13814146 0.60000000
v 0.00000000 0.00000000 0.60000000
v -0.50000000 0.00000000 0.60000000
v -0.06185854 0.15395285 0.60000000
v -0.18900004 0.19633335 0.60000000
v -0.20430627 0.21076566 0.60000000
v -0.29525259 0.43813148 0.60000000
v -0.31240112 0.45310028 0.60000000
v -0.50000000 0.50000000 0.60000000
vt 0.00000000 0.00000000
vt 1.00000000 0.00000000
vt 1.00000000 1.00000000
vt 0.72371708 0.90790569
vt 0.69209431 0.87628292
vt 0.60733331 0.62199992
vt 0.57846867 0.59138747
vt 0.12373703 0.40949481
vt 0.09379944 0.37519776
vt 1.00000000 1.00000000
vt 0.00000000 1.00000000
vt 0.00000000 0.00000000
vt 1.00000000 0.00000000
vt 1.00000000 0.00000000
vt 1.00000000 1.00000000
vt 0.72371708 0.90790569
vt 0.69209431 0.87628292
vt 0.60733331 0.62199992
vt 0.57846867 0.59138747
vt 0.12373703 0.40949481
vt 0.09379944 0.37519776
vt 0.00000000 0.00000000
vt 0.00000000 0.00000000
vt 1.00000000 0.00000000
vt 1.00000000 1.00000000
vt 0.00000000 1.00000000
vt 0.00000000 0.00000000
vt 1.00000000 0.00000000
vt 1.00000000 1.00000000
vt 0.00000000 1.00000000
vt 0.00000000 0.00000000
vt 1.00000000 0.00000000
vt 1.00000000 1.00000000
vt 0.00000000 1.00000000
vt 0.00000000 0.00000000
vt 1.00000000 0.00000000
vt 1.00000000 1.00000000
vt 0.00000000 1.00000000
vt 0.00000000 0.00000000
vt 1.00000000 0.00000000
vt 1.00000000 1.00000000
vt 0.00000000 1.00000000
vt 0.00000000 0.00000000
vt 1.00000000 0.00000000
vt 1.00000000 1.00000000
vt 0.00000000 1.00000000
vt 0.00000000 1.00000000
vt 0.00000000 0.00000000
vt 1.00000000 0.00000000
vt 1.00000000 1.00000000
vt 0.00000000 1.00000000
vt 0.00000000 0.00000000
vt 1.00000000 0.00000000
vt 1.00000000 1.00000000
vn 0.00000000 0.00000000 -1.00000000
vn 0.00000000 0.00000000 -1.00000000
vn 0.00000000 0.00000000 -1.00000000
vn 0.00000000 0.00000000 -1.00000000
vn 0.00000000 0.00000000 -1.00000000
vn 0.00000000 0.00000000 -1.00000000
vn 0.00000000 0.00000000 -1.00000000
vn 0.00000000 0.00000000 -1.00000000
vn 0.00000000 0.00000000 -1.00000000
vn 0.94868330 0.31622777 0.00000000
vn 0.94868330 0.31622777 0.00000000
vn 0.94868330 0.31622777 0.00000000
vn 0.94868330 0.31622777 0.00000000
vn 0.00000000 0.00000000 1.00000000
vn 0.00000000 0.00000000 1.00000000
vn 0.00000000 0.00000000 1.00000000
vn 0.00000000 0.00000000 1.00000000
vn 0.00000000 0.00000000 1.00000000
vn 0.00000000 0.00000000 1.00000000
vn 0.00000000 0.00000000 1.00000000
vn 0.00000000 0.00000000 1.00000000
vn 0.00000000 0.00000000 1.00000000
vn 0.70710678 0.70710678 0.00000000
vn 0.70710678 0.70710678 0.00000000
vn 0.70710678 0.70710678 -0.00000000
vn 0.70710678 0.70710678 -0.00000000
vn 0.31622777 0.94868330 0.00000000
vn 0.31622777 0.94868330 0.00000000
vn 0.31622777 0.94868330 0.00000000
vn 0.31622777 0.94868330 0.00000000
vn 0.68603133 0.72757200 0.00000000
vn 0.68603133 0.72757200 0.00000000
vn 0.68603133 0.72757200 -0.00000000
vn 0.68603133 0.72757200 -0.00000000
vn 0.92847669 0.37139068 0.00000000
vn 0.92847669 0.37139068 0.00000000
vn 0.92847669 0.37139068 0.00000000
vn 0.92847669 0.37139068 0.00000000
vn 0.65760429 0.75336353 -0.00000000
vn 0.65760429 0.75336353 -0.00000000
vn 0.65760429 0.75336353 0.00000000
vn 0.65760429 0.75336353 0.00000000
vn 0.24253563 0.97014250 0.00000000
vn 0.24253563 0.97014250 0.00000000
vn 0.24253563 0.97014250 0.00000000
vn 0.24253563 0.97014250 0.00000000
vn -1.00000000 0.00000000 0.00000000
vn -1.00000000 0.00000000 0.00000000
vn -1.00000000 0.00000000 0.00000000
vn -1.00000000 0.00000000 0.00000000
vn 0.00000000 -1.00000000 0.00000000
vn 0.00000000 -1.00000000 0.00000000
vn 0.00000000 -1.00000000 0.00000000
vn 0.00000000 -1.00000000 0.00000000
s 1
usemtl Sandstone_Trim
f 16/40/40 15/39/39 14/38/38
f 19/43/43 18/42/42 14/38/38
f 21/45/45 20/44/44 19/43/43
f 14/38/38 21/45/45 19/43/43
f 14/38/38 13/37/37 21/45/45
f 18/42/42 16/40/40 14/38/38
f 18/42/42 17/41/41 16/40/40
s 2
f 16/46/46 22/47/47 23/48/48
f 16/46/46 23/48/48 15/49/49
s 3
f 24/50/50 23/51/51 22/52/52
f 22/52/52 25/53/53 26/54/54
f 24/50/50 26/54/54 27/55/55
f 27/55/55 28/56/56 29/57/57
f 27/55/55 29/57/57 24/50/50
f 24/50/50 22/52/52 26/54/54
f 29/57/57 30/58/58 24/50/50
s 4
f 22/59/59 16/60/60 25/62/62
f 16/60/60 17/61/61 25/62/62
s 5
f 25/63/63 17/64/64 26/66/66
f 17/64/64 18/65/65 26/66/66
s 6
f 26/67/67 18/68/68 27/70/70
f 18/68/68 19/69/69 27/70/70
s 7
f 27/71/71 19/72/72 28/74/74
f 19/72/72 20/73/73 28/74/74
s 8
f 28/75/75 20/76/76 29/78/78
f 20/76/76 21/77/77 29/78/78
s 9
f 29/79/79 21/80/80 30/82/82
f 21/80/80 13/81/81 30/82/82
s 10
f 24/83/83 30/84/84 14/86/86
f 30/84/84 13/85/85 14/86/86
s 11
f 23/87/87 24/88/88 15/90/90
f 24/88/88 14/89/89 15/90/90
o object3
g object3
v -0.38411743 0.49086323 0.57500000
v -0.41345291 0.48058001 0.57500000
v -0.41345291 0.49086323 0.56355440
v -0.28360484 0.49086323 0.57500000
v -0.41345291 0.49086323 0.42500000
v -0.27862324 0.49086323 0.42500000
v -0.26345291 0.49086323 0.43848848
v -0.26345291 0.49086323 0.55347500
v -0.26345291 0.47458098 0.42500000
v -0.26345291 0.29086323 0.42500000
v -0.41345291 0.29086323 0.42500000
v -0.26345291 0.29086323 0.57500000
v -0.41345291 0.29086323 0.57500000
v -0.26345291 0.45790938 0.57500000
vt 0.00000000 1.00000000
vt 0.00000000 0.00000000
vt 1.00000000 0.10943075
vt 0.00000000 0.86565381
vt 0.00000000 0.19556986
vt 0.07630401 0.00000000
vt 1.00000000 0.00000000
vt 1.00000000 0.89886450
vt 0.91007680 1.00000000
vt 0.14350003 1.00000000
vt 0.91858877 1.00000000
vt 0.00000000 1.00000000
vt 0.00000000 0.00000000
vt 1.00000000 0.00000000
vt 1.00000000 0.89886450
vt 1.00000000 1.00000000
vt 0.00000000 1.00000000
vt 0.00000000 0.00000000
vt 1.00000000 0.00000000
vt 0.00000000 0.00000000
vt 1.00000000 0.40697648
vt 0.00000000 1.00000000
vt 0.00000000 1.00000000
vt 0.00000000 0.00000000
vt 0.83523076 0.00000000
vt 1.00000000 0.14350003
vt 1.00000000 0.91007680
vt 0.91858877 1.00000000
vt 0.00000000 0.00000000
vt 1.00000000 0.46709000
vt 0.00000000 1.00000000
vt 0.00000000 1.00000000
vt 0.00000000 0.00000000
vt 0.94858391 0.00000000
vt 1.00000000 0.19556986
vt 1.00000000 0.86565381
vt 0.83523076 1.00000000
vt 1.00000000 0.07630401
vt 1.00000000 1.00000000
vt 0.00000000 1.00000000
vt 0.00000000 0.00000000
vt 0.94858391 0.00000000
vn -0.25231819 0.71980147 0.64670038
vn -0.25231819 0.71980147 0.64670038
vn -0.25231819 0.71980147 0.64670038
vn 0.00000000 1.00000000 0.00000000
vn 0.00000000 1.00000000 0.00000000
vn 0.00000000 1.00000000 0.00000000
vn 0.00000000 1.00000000 0.00000000
vn 0.00000000 1.00000000 0.00000000
vn 0.00000000 1.00000000 0.00000000
vn 0.00000000 1.00000000 0.00000000
vn 0.00000000 0.00000000 -1.00000000
vn 0.00000000 0.00000000 -1.00000000
vn 0.00000000 0.00000000 -1.00000000
vn 0.00000000 0.00000000 -1.00000000
vn 0.00000000 0.00000000 -1.00000000
vn 0.00000000 -1.00000000 0.00000000
vn 0.00000000 -1.00000000 0.00000000
vn 0.00000000 -1.00000000 0.00000000
vn 0.00000000 -1.00000000 0.00000000
vn 0.56496229 0.52638081 -0.63540606
vn 0.56496229 0.52638081 -0.63540606
vn 0.56496229 0.52638081 -0.63540606
vn 1.00000000 0.00000000 0.00000000
vn 1.00000000 0.00000000 0.00000000
vn 1.00000000 0.00000000 0.00000000
vn 1.00000000 0.00000000 0.00000000
vn 1.00000000 0.00000000 0.00000000
vn 1.00000000 0.00000000 0.00000000
vn 0.66660062 0.40763943 0.62407828
vn 0.66660062 0.40763943 0.62407828
vn 0.66660062 0.40763943 0.62407828
vn 0.00000000 0.00000000 1.00000000
vn 0.00000000 0.00000000 1.00000000
vn 0.00000000 0.00000000 1.00000000
vn 0.00000000 0.00000000 1.00000000
vn 0.00000000 0.00000000 1.00000000
vn 0.00000000 0.00000000 1.00000000
vn -1.00000000 0.00000000 0.00000000
vn -1.00000000 0.00000000 0.00000000
vn -1.00000000 0.00000000 0.00000000
vn -1.00000000 0.00000000 0.00000000
vn -1.00000000 0.00000000 0.00000000
s 1
usemtl Sandstone_4
f 33/93/93 32/92/92 31/91/91
s 2
f 31/95/95 34/94/94 38/100/100
f 37/99/99 36/98/98 31/95/95
f 36/98/98 35/97/97 31/95/95
f 31/95/95 38/100/100 37/99/99
f 35/97/97 33/96/96 31/95/95
s 3
f 39/101/101 40/102/102 41/103/103
f 41/103/103 35/104/104 36/105/105
f 39/101/101 41/103/103 36/105/105
s 4
f 40/106/106 42/107/107 41/109/109
f 42/107/107 43/108/108 41/109/109
s 5
f 39/112/112 36/111/111 37/110/110
s 6
f 37/117/117 38/116/116 44/115/115
f 44/115/115 40/113/113 39/118/118
f 44/115/115 42/114/114 40/113/113
f 39/118/118 37/117/117 44/115/115
s 7
f 34/119/119 44/120/120 38/121/121
s 8
f 44/127/127 34/126/126 31/125/125
f 31/125/125 32/124/124 42/122/122
f 32/124/124 43/123/123 42/122/122
f 42/122/122 44/127/127 31/125/125
s 9
f 41/130/130 43/131/131 32/132/132
f 33/128/128 41/130/130 32/132/132
f 33/128/128 35/129/129 41/130/130
