mtllib Materials_Modular_Temple.mtl
o object1
g object1
v -0.50000000 0.00000000 -0.60000000
v -0.50000000 0.90000000 -0.60000000
v -0.04436508 0.90000000 -0.60000000
v -0.04436508 0.00000000 -0.60000000
v -0.50000000 1.73149158 -1.15558491
v -0.50000000 1.80000000 -1.50000000
v 0.32842712 1.80000000 -1.50000000
v 0.18576572 1.73149158 -1.15558491
v -0.50000000 2.00000000 -1.50000000
v 0.32842712 2.00000000 -1.50000000
v 0.60000000 0.90000000 0.04436508
v -0.01598796 1.24441509 -0.66850842
v 0.66850842 1.24441509 0.01598796
v 0.06482323 1.53639610 -0.86360390
v 0.86360390 1.53639610 -0.06482323
v 1.15558491 1.73149158 -0.18576572
v 1.50000000 1.80000000 -0.32842712
v -0.50000000 2.00000000 -0.40000000
v -0.50000000 0.00000000 -0.40000000
v -0.12720779 0.00000000 -0.40000000
v -0.12720779 2.00000000 -0.40000000
v -0.50000000 1.24441509 -0.66850842
v -0.50000000 1.53639610 -0.86360390
v 1.50000000 2.00000000 -0.32842712
v 0.60000000 0.00000000 0.04436508
v 0.40000000 0.00000000 0.12720779
v 0.40000000 2.00000000 0.12720779
v 0.60000000 0.00000000 0.50000000
v 0.40000000 0.00000000 0.50000000
v 0.40000000 2.00000000 0.50000000
v 1.50000000 2.00000000 0.50000000
v 1.50000000 1.80000000 0.50000000
v 1.15558491 1.73149158 0.50000000
v 0.86360390 1.53639610 0.50000000
v 0.66850842 1.24441509 0.50000000
v 0.60000000 0.90000000 0.50000000
vt 1.00000000 0.00000000
vt 1.00000000 1.00000000
vt 0.00000000 1.00000000
vt 0.00000000 0.00000000
vt 1.00000000 0.00000000
vt 1.00000000 1.00000000
vt 0.00000000 1.00000000
vt 0.17220754 0.00000000
vt 0.00000000 0.00000000
vt 1.00000000 0.00000000
vt 1.00000000 1.00000000
vt 0.00000000 1.00000000
vt 0.02931447 0.00000000
vt 0.97068553 0.00000000
vt 1.00000000 1.00000000
vt 0.00000000 1.00000000
vt 0.92846329 0.00000000
vt 1.00000000 1.00000000
vt 0.00000000 1.00000000
vt 0.07153671 0.00000000
vt 0.08818062 0.00000000
vt 0.91181938 0.00000000
vt 1.00000000 1.00000000
vt 0.00000000 1.00000000
vt 0.08610377 0.00000000
vt 0.91389623 0.00000000
vt 1.00000000 1.00000000
vt 0.00000000 1.00000000
vt 1.00000000 0.00000000
vt 1.00000000 1.00000000
vt 0.00000000 1.00000000
vt 0.00000000 0.00000000
vt 1.00000000 0.00000000
vt 1.00000000 1.00000000
vt 0.00000000 1.00000000
vt 0.05862895 0.00000000
vt 1.00000000 0.00000000
vt 1.00000000 1.00000000
vt 0.00000000 1.00000000
vt 0.14307342 0.00000000
vt 1.00000000 0.00000000
vt 1.00000000 1.00000000
vt 0.00000000 1.00000000
vt 0.17636124 0.00000000
vt 1.00000000 0.00000000
vt 1.00000000 1.00000000
vt 0.00000000 1.00000000
vt 0.00000000 0.00000000
vt 1.00000000 0.00000000
vt 1.00000000 1.00000000
vt 0.00000000 1.00000000
vt 0.00000000 0.00000000
vt 1.00000000 0.00000000
vt 1.00000000 1.00000000
vt 0.00000000 1.00000000
vt 0.00000000 0.00000000
vt 0.09090909 1.00000000
vt 0.00000000 0.69495218
vt 0.20710678 0.00000000
vt 0.79289322 0.00000000
vt 1.00000000 0.69495218
vt 0.90909091 1.00000000
vt 0.73963991 0.43140276
vt 0.26036009 0.43140276
vt 1.00000000 1.00000000
vt 0.45000000 1.00000000
vt 0.45000000 0.81360390
vt 0.18639610 0.55000000
vt 0.00000000 0.55000000
vt 0.00000000 0.00000000
vt 0.41421356 0.00000000
vt 1.00000000 0.58578644
vt 1.00000000 1.00000000
vt 0.00000000 1.00000000
vt 0.00000000 0.00000000
vt 1.00000000 0.00000000
vt 0.00000000 1.00000000
vt 0.00000000 0.00000000
vt 0.82363876 0.00000000
vt 1.00000000 1.00000000
vt 0.00000000 1.00000000
vt 0.00000000 0.00000000
vt 0.82779246 0.00000000
vt 1.00000000 1.00000000
vt 0.00000000 1.00000000
vt 0.00000000 0.00000000
vt 1.00000000 0.00000000
vt 1.00000000 1.00000000
vt 0.00000000 1.00000000
vt 0.00000000 0.00000000
vt 0.94137105 0.00000000
vt 1.00000000 1.00000000
vt 0.00000000 1.00000000
vt 0.00000000 0.00000000
vt 0.85692658 0.00000000
vt 1.00000000 1.00000000
vt 0.00000000 1.00000000
vt 0.00000000 0.00000000
vt 1.00000000 0.00000000
vt 1.00000000 1.00000000
vt 0.45000000 0.18181818
vt 0.00000000 0.18181818
vt 0.00000000 0.00000000
vt 1.00000000 0.00000000
vt 1.00000000 1.00000000
vt 0.90000000 1.00000000
vt 0.86574579 0.68689537
vt 0.76819805 0.42145809
vt 0.62220754 0.24409856
vt 0.62220754 0.24409856
vt 0.45000000 0.18181818
vt 0.00000000 0.18181818
vt 0.00000000 0.00000000
vt 1.00000000 0.00000000
vt 1.00000000 1.00000000
vt 0.90000000 1.00000000
vt 0.86574579 0.68689537
vt 0.76819805 0.42145809
vn 0.00000000 0.00000000 -1.00000000
vn 0.00000000 0.00000000 -1.00000000
vn 0.00000000 0.00000000 -1.00000000
vn 0.00000000 0.00000000 -1.00000000
vn 0.00000000 -0.98078528 -0.19509032
vn 0.00000000 -0.98078528 -0.19509032
vn 0.00000000 -0.98078528 -0.19509032
vn 0.00000000 -0.98078528 -0.19509032
vn 0.00000000 0.00000000 -1.00000000
vn 0.00000000 0.00000000 -1.00000000
vn 0.00000000 0.00000000 -1.00000000
vn 0.00000000 0.00000000 -1.00000000
vn 0.69351992 -0.19509032 -0.69351992
vn 0.69351992 -0.19509032 -0.69351992
vn 0.69351992 -0.19509032 -0.69351992
vn 0.69351992 -0.19509032 -0.69351992
vn 0.58793780 -0.55557023 -0.58793780
vn 0.58793780 -0.55557023 -0.58793780
vn 0.58793780 -0.55557023 -0.58793780
vn 0.58793780 -0.55557023 -0.58793780
vn 0.39284748 -0.83146961 -0.39284748
vn 0.39284748 -0.83146961 -0.39284748
vn 0.39284748 -0.83146961 -0.39284748
vn 0.39284748 -0.83146961 -0.39284748
vn 0.13794969 -0.98078528 -0.13794969
vn 0.13794969 -0.98078528 -0.13794969
vn 0.13794969 -0.98078528 -0.13794969
vn 0.13794969 -0.98078528 -0.13794969
vn 0.00000000 -0.00000000 1.00000000
vn 0.00000000 -0.00000000 1.00000000
vn 0.00000000 -0.00000000 1.00000000
vn 0.00000000 -0.00000000 1.00000000
vn 0.00000000 -0.19509032 -0.98078528
vn 0.00000000 -0.19509032 -0.98078528
vn 0.00000000 -0.19509032 -0.98078528
vn 0.00000000 -0.19509032 -0.98078528
vn 0.00000000 -0.55557023 -0.83146961
vn 0.00000000 -0.55557023 -0.83146961
vn 0.00000000 -0.55557023 -0.83146961
vn 0.00000000 -0.55557023 -0.83146961
vn 0.00000000 -0.83146961 -0.55557023
vn 0.00000000 -0.83146961 -0.55557023
vn 0.00000000 -0.83146961 -0.55557023
vn 0.00000000 -0.83146961 -0.55557023
vn 0.70710678 0.00000000 -0.70710678
vn 0.70710678 0.00000000 -0.70710678
vn 0.70710678 0.00000000 -0.70710678
vn 0.70710678 0.00000000 -0.70710678
vn 0.70710678 0.00000000 -0.70710678
vn 0.70710678 0.00000000 -0.70710678
vn 0.70710678 0.00000000 -0.70710678
vn 0.70710678 0.00000000 -0.70710678
vn -0.70710678 -0.00000000 0.70710678
vn -0.70710678 -0.00000000 0.70710678
vn -0.70710678 -0.00000000 0.70710678
vn -0.70710678 -0.00000000 0.70710678
vn -0.00000000 -1.00000000 0.00000000
vn -0.00000000 -1.00000000 0.00000000
vn -0.00000000 -1.00000000 0.00000000
vn -0.00000000 -1.00000000 0.00000000
vn -0.00000000 -1.00000000 0.00000000
vn -0.00000000 -1.00000000 0.00000000
vn -0.00000000 -1.00000000 0.00000000
vn -0.00000000 -1.00000000 0.00000000
vn 0.00000000 1.00000000 0.00000000
vn 0.00000000 1.00000000 0.00000000
vn 0.00000000 1.00000000 0.00000000
vn 0.00000000 1.00000000 0.00000000
vn 0.00000000 1.00000000 0.00000000
vn 0.00000000 1.00000000 0.00000000
vn 0.00000000 1.00000000 0.00000000
vn 0.00000000 1.00000000 0.00000000
vn 1.00000000 0.00000000 0.00000000
vn 1.00000000 0.00000000 0.00000000
vn 1.00000000 0.00000000 0.00000000
vn 1.00000000 0.00000000 0.00000000
vn 0.55557023 -0.83146961 0.00000000
vn 0.55557023 -0.83146961 0.00000000
vn 0.55557023 -0.83146961 0.00000000
vn 0.55557023 -0.83146961 0.00000000
vn 0.19509032 -0.98078528 0.00000000
vn 0.19509032 -0.98078528 0.00000000
vn 0.19509032 -0.98078528 0.00000000
vn 0.19509032 -0.98078528 0.00000000
vn -1.00000000 -0.00000000 -0.00000000
vn -1.00000000 -0.00000000 -0.00000000
vn -1.00000000 -0.00000000 -0.00000000
vn -1.00000000 -0.00000000 -0.00000000
vn 0.98078528 -0.19509032 0.00000000
vn 0.98078528 -0.19509032 0.00000000
vn 0.98078528 -0.19509032 0.00000000
vn 0.98078528 -0.19509032 0.00000000
vn 0.83146961 -0.55557023 0.00000000
vn 0.83146961 -0.55557023 0.00000000
vn 0.83146961 -0.55557023 0.00000000
vn 0.83146961 -0.55557023 0.00000000
vn 1.00000000 0.00000000 0.00000000
vn 1.00000000 0.00000000 0.00000000
vn 1.00000000 0.00000000 0.00000000
vn 1.00000000 0.00000000 0.00000000
vn 0.00000000 0.00000000 1.00000000
vn 0.00000000 0.00000000 1.00000000
vn 0.00000000 0.00000000 1.00000000
vn 0.00000000 0.00000000 1.00000000
vn 0.00000000 0.00000000 1.00000000
vn 0.00000000 0.00000000 1.00000000
vn 0.00000000 0.00000000 1.00000000
vn 0.00000000 0.00000000 1.00000000
vn 0.00000000 0.00000000 1.00000000
vn -1.00000000 0.00000000 0.00000000
vn -1.00000000 0.00000000 0.00000000
vn -1.00000000 0.00000000 0.00000000
vn -1.00000000 0.00000000 0.00000000
vn -1.00000000 0.00000000 0.00000000
vn -1.00000000 0.00000000 0.00000000
vn -1.00000000 0.00000000 0.00000000
vn -1.00000000 0.00000000 0.00000000
vn -1.00000000 0.00000000 0.00000000
s 1
usemtl Sandstone_Trim
f 1/1/1 2/2/2 3/3/3
f 1/1/1 3/3/3 4/4/4
s 2
f 5/5/5 6/6/6 8/8/8
f 6/6/6 7/7/7 8/8/8
s 3
f 6/9/9 9/10/10 10/11/11
f 6/9/9 10/11/11 7/12/12
s 4
f 11/13/13 3/14/14 12/15/15
f 11/13/13 12/15/15 13/16/16
s 5
f 12/17/17 14/18/18 15/19/19
f 12/17/17 15/19/19 13/20/20
s 6
f 15/21/21 14/22/22 8/23/23
f 15/21/21 8/23/23 16/24/24
s 7
f 16/25/25 8/26/26 7/27/27
f 16/25/25 7/27/27 17/28/28
s 8
f 18/29/29 19/30/30 20/31/31
f 18/29/29 20/31/31 21/32/32
s 9
f 2/33/33 22/34/34 3/36/36
f 22/34/34 12/35/35 3/36/36
s 10
f 22/37/37 23/38/38 12/40/40
f 23/38/38 14/39/39 12/40/40
s 11
f 23/41/41 5/42/42 14/44/44
f 5/42/42 8/43/43 14/44/44
s 12
f 10/45/45 24/46/46 17/47/47
f 10/45/45 17/47/47 7/48/48
s 13
f 4/49/49 3/50/50 25/52/52
f 3/50/50 11/51/51 25/52/52
s 14
f 21/53/53 20/54/54 26/55/55
f 21/53/53 26/55/55 27/56/56
s 15
f 28/61/61 29/62/62 26/63/63
f 25/60/60 26/63/63 20/64/64
f 20/64/64 1/58/58 4/59/59
f 20/64/64 19/57/57 1/58/58
f 4/59/59 25/60/60 20/64/64
f 25/60/60 28/61/61 26/63/63
s 16
usemtl Sandstone_Floor
f 9/65/65 18/66/66 21/67/67
f 10/72/72 21/67/67 27/68/68
f 27/68/68 31/70/70 24/71/71
f 27/68/68 30/69/69 31/70/70
f 27/68/68 24/71/71 10/72/72
f 10/72/72 9/65/65 21/67/67
s 17
usemtl Sandstone_Trim
f 31/73/73 32/74/74 17/75/75
f 31/73/73 17/75/75 24/76/76
s 18
f 33/77/77 34/78/78 15/79/79
f 33/77/77 15/79/79 16/80/80
s 19
f 32/81/81 33/82/82 16/83/83
f 32/81/81 16/83/83 17/84/84
s 20
f 29/85/85 30/86/86 26/88/88
f 30/86/86 27/87/87 26/88/88
s 21
f 35/89/89 36/90/90 11/91/91
f 35/89/89 11/91/91 13/92/92
s 22
f 34/93/93 35/94/94 13/95/95
f 34/93/93 13/95/95 15/96/96
s 23
f 36/97/97 28/98/98 25/99/99
f 36/97/97 25/99/99 11/100/100
s 24
f 33/107/107 32/106/106 31/105/105
f 34/108/108 33/107/107 30/104/104
f 35/109/109 30/104/104 36/101/101
f 29/103/103 28/102/102 36/101/101
f 30/104/104 29/103/103 36/101/101
f 35/109/109 34/108/108 30/104/104
f 33/107/107 31/105/105 30/104/104
s 25
f 9/115/115 6/116/116 5/117/117
f 18/114/114 5/117/117 23/118/118
f 22/110/110 2/111/111 18/114/114
f 2/111/111 1/112/112 19/113/113
f 2/111/111 19/113/113 18/114/114
f 18/114/114 23/118/118 22/110/110
f 18/114/114 9/115/115 5/117/117
