mtllib Materials_Modular_Temple.mtl
o object1
g object1
v 0.50000000 0.00000000 1.40000000
v 0.50000000 0.15000000 1.40000000
v 0.50000000 0.20000000 1.45000000
v 0.50000000 0.20000000 1.54698485
v 0.50000000 0.15000000 1.60000000
v 0.50000000 0.00000000 1.60000000
v -0.28700577 0.15000000 1.40000000
v -0.28700577 0.00000000 1.40000000
v -1.40000000 0.15000000 0.28700577
v -1.40000000 -0.00000000 0.28700577
v -0.30771645 0.20000000 1.45000000
v -1.45000000 0.20000000 0.30771645
v -0.34788889 0.20000000 1.54698485
v -1.54698485 0.20000000 0.34788889
v -0.36984848 0.15000000 1.60000000
v -1.60000000 0.15000000 0.36984848
v -0.36984848 0.00000000 1.60000000
v -1.60000000 0.00000000 0.36984848
v -1.60000000 0.00000000 -0.50000000
v -1.60000000 0.15000000 -0.50000000
v -1.54698485 0.20000000 -0.50000000
v -1.45000000 0.20000000 -0.50000000
v -1.40000000 0.15000000 -0.50000000
v -1.40000000 0.00000000 -0.50000000
vt 0.00000000 1.00000000
vt 0.00000000 0.25000000
vt 0.25000000 0.00000000
vt 0.73492424 0.00000000
vt 1.00000000 0.25000000
vt 1.00000000 1.00000000
vt 1.00000000 1.00000000
vt 0.00000000 1.00000000
vt 0.00000000 0.00000000
vt 1.00000000 0.00000000
vt 1.00000000 1.00000000
vt 0.00000000 1.00000000
vt 0.00000000 0.00000000
vt 1.00000000 0.00000000
vt 1.00000000 1.00000000
vt 0.00000000 1.00000000
vt 0.00000000 0.00000000
vt 1.00000000 0.00000000
vt 1.00000000 1.00000000
vt 0.00000000 1.00000000
vt 0.00000000 0.00000000
vt 1.00000000 0.00000000
vt 1.00000000 1.00000000
vt 0.00000000 1.00000000
vt 0.00000000 0.00000000
vt 1.00000000 0.00000000
vt 1.00000000 1.00000000
vt 0.00000000 1.00000000
vt 0.00000000 0.00000000
vt 1.00000000 0.00000000
vt 1.00000000 1.00000000
vt 0.00000000 1.00000000
vt 0.00000000 0.00000000
vt 1.00000000 0.00000000
vt 0.00000000 0.00000000
vt 0.75000000 0.00000000
vt 1.00000000 0.26507576
vt 1.00000000 0.75000000
vt 0.75000000 1.00000000
vt 0.00000000 1.00000000
vt 1.00000000 1.00000000
vt 0.00000000 1.00000000
vt 0.00000000 0.00000000
vt 1.00000000 0.00000000
vt 1.00000000 1.00000000
vt 0.00000000 1.00000000
vt 0.00000000 0.00000000
vt 1.00000000 0.00000000
vt 1.00000000 1.00000000
vt 0.00000000 1.00000000
vt 0.00000000 0.00000000
vt 1.00000000 0.00000000
vt 1.00000000 1.00000000
vt 0.00000000 1.00000000
vt 0.00000000 0.00000000
vt 1.00000000 0.00000000
vt 0.09523810 0.00000000
vt 0.09523810 0.37476465
vt 0.62523535 0.90476190
vt 1.00000000 0.90476190
vt 1.00000000 1.00000000
vt 0.58578644 1.00000000
vt 0.00000000 0.41421356
vt 0.00000000 0.00000000
vt 1.00000000 1.00000000
vt 0.00000000 1.00000000
vt 0.00000000 0.00000000
vt 1.00000000 0.00000000
vt 1.00000000 1.00000000
vt 0.00000000 1.00000000
vt 0.00000000 0.00000000
vt 1.00000000 0.00000000
vt 1.00000000 1.00000000
vt 0.00000000 1.00000000
vt 0.00000000 0.00000000
vt 1.00000000 0.00000000
vt 1.00000000 1.00000000
vt 0.00000000 1.00000000
vt 0.00000000 0.00000000
vt 1.00000000 0.00000000
vn 1.00000000 0.00000000 0.00000000
vn 1.00000000 0.00000000 0.00000000
vn 1.00000000 0.00000000 0.00000000
vn 1.00000000 0.00000000 0.00000000
vn 1.00000000 0.00000000 0.00000000
vn 1.00000000 0.00000000 0.00000000
vn 0.00000000 0.00000000 -1.00000000
vn 0.00000000 0.00000000 -1.00000000
vn 0.00000000 0.00000000 -1.00000000
vn 0.00000000 0.00000000 -1.00000000
vn 0.70710678 0.00000000 -0.70710678
vn 0.70710678 0.00000000 -0.70710678
vn 0.70710678 0.00000000 -0.70710678
vn 0.70710678 0.00000000 -0.70710678
vn 0.50000000 0.70710678 -0.50000000
vn 0.50000000 0.70710678 -0.50000000
vn 0.50000000 0.70710678 -0.50000000
vn 0.50000000 0.70710678 -0.50000000
vn 0.00000000 1.00000000 0.00000000
vn 0.00000000 1.00000000 0.00000000
vn 0.00000000 1.00000000 0.00000000
vn 0.00000000 1.00000000 0.00000000
vn -0.48515773 0.72749155 0.48515773
vn -0.48515773 0.72749155 0.48515773
vn -0.48515773 0.72749155 0.48515773
vn -0.48515773 0.72749155 0.48515773
vn -0.70710678 0.00000000 0.70710678
vn -0.70710678 0.00000000 0.70710678
vn -0.70710678 0.00000000 0.70710678
vn -0.70710678 0.00000000 0.70710678
vn -1.00000000 0.00000000 0.00000000
vn -1.00000000 0.00000000 0.00000000
vn -1.00000000 0.00000000 0.00000000
vn -1.00000000 0.00000000 0.00000000
vn 0.00000000 -0.00000000 -1.00000000
vn 0.00000000 -0.00000000 -1.00000000
vn 0.00000000 -0.00000000 -1.00000000
vn 0.00000000 -0.00000000 -1.00000000
vn 0.00000000 -0.00000000 -1.00000000
vn 0.00000000 -0.00000000 -1.00000000
vn -0.68611664 0.72749155 -0.00000000
vn -0.68611664 0.72749155 -0.00000000
vn -0.68611664 0.72749155 -0.00000000
vn -0.68611664 0.72749155 -0.00000000
vn 0.00000000 1.00000000 -0.00000000
vn 0.00000000 1.00000000 -0.00000000
vn 0.70710678 0.70710678 0.00000000
vn 0.70710678 0.70710678 0.00000000
vn 0.70710678 0.70710678 -0.00000000
vn 0.70710678 0.70710678 -0.00000000
vn 1.00000000 0.00000000 0.00000000
vn 1.00000000 0.00000000 0.00000000
vn 1.00000000 0.00000000 0.00000000
vn 1.00000000 0.00000000 0.00000000
vn 0.00000000 -1.00000000 0.00000000
vn 0.00000000 -1.00000000 0.00000000
vn 0.00000000 -1.00000000 0.00000000
vn 0.00000000 -1.00000000 0.00000000
vn 0.00000000 -1.00000000 0.00000000
vn 0.00000000 -1.00000000 0.00000000
vn 0.00000000 -1.00000000 0.00000000
vn 0.00000000 -1.00000000 0.00000000
vn 0.00000000 0.00000000 1.00000000
vn 0.00000000 0.00000000 1.00000000
vn 0.00000000 0.00000000 1.00000000
vn 0.00000000 0.00000000 1.00000000
vn 0.00000000 0.72749155 0.68611664
vn 0.00000000 0.72749155 0.68611664
vn 0.00000000 0.72749155 0.68611664
vn 0.00000000 0.72749155 0.68611664
vn 0.00000000 1.00000000 0.00000000
vn 0.00000000 1.00000000 0.00000000
vn -0.00000000 0.70710678 -0.70710678
vn -0.00000000 0.70710678 -0.70710678
vn 0.00000000 0.70710678 -0.70710678
vn 0.00000000 0.70710678 -0.70710678
s 1
usemtl Sandstone_Trim
f 2/2/2 3/3/3 4/4/4
f 2/2/2 5/5/5 6/6/6
f 6/6/6 1/1/1 2/2/2
f 2/2/2 4/4/4 5/5/5
s 2
f 2/10/10 1/9/9 7/7/7
f 1/9/9 8/8/8 7/7/7
s 3
f 7/14/14 8/13/13 9/11/11
f 8/13/13 10/12/12 9/11/11
s 4
f 7/18/18 9/17/17 11/15/15
f 9/17/17 12/16/16 11/15/15
s 5
f 11/22/22 12/21/21 13/19/19
f 12/48/21 21/46/45 14/45/20
f 12/48/21 22/47/46 21/46/45
f 12/21/21 14/20/20 13/19/19
f 11/75/22 13/74/19 4/73/71
f 3/76/72 11/75/22 4/73/71
s 6
f 13/26/26 14/25/25 15/23/23
f 14/25/25 16/24/24 15/23/23
s 7
f 16/30/30 18/29/29 15/27/27
f 18/29/29 17/28/28 15/27/27
s 8
f 20/34/34 19/33/33 16/31/31
f 19/33/33 18/32/32 16/31/31
s 9
f 21/37/37 22/38/38 23/39/39
f 20/36/36 23/39/39 24/40/40
f 24/40/40 19/35/35 20/36/36
f 20/36/36 21/37/37 23/39/39
s 10
f 14/44/44 21/43/43 20/42/42
f 14/44/44 20/42/42 16/41/41
s 11
f 9/52/50 23/51/49 22/50/48
f 9/52/50 22/50/48 12/49/47
s 12
f 9/56/54 10/55/53 23/53/51
f 10/55/53 24/54/52 23/53/51
s 13
f 19/61/59 24/60/58 10/59/57
f 17/63/61 18/62/60 10/59/57
f 8/58/56 6/64/62 17/63/61
f 8/58/56 1/57/55 6/64/62
f 10/59/57 8/58/56 17/63/61
f 18/62/60 19/61/59 10/59/57
s 14
f 15/68/66 17/67/65 5/65/63
f 17/67/65 6/66/64 5/65/63
s 15
f 4/72/70 13/71/69 5/69/67
f 13/71/69 15/70/68 5/69/67
s 16
f 2/80/76 7/79/75 3/77/73
f 7/79/75 11/78/74 3/77/73
