mtllib Materials_Modular_Temple.mtl
o object1
g object1
v -0.50000000 1.00000000 0.40000000
v -0.50000000 0.00000000 0.40000000
v -0.50000000 0.00000000 0.60000000
v -0.50000000 1.00000000 0.60000000
v -0.50000000 0.65000000 0.40000000
v -0.15000000 0.65000000 0.40000000
v -0.15000000 0.35000000 0.40000000
v 0.15000000 0.35000000 0.40000000
v 0.15000000 0.65000000 0.40000000
v 0.50000000 0.65000000 0.40000000
v 0.50000000 0.00000000 0.40000000
v 0.15000000 0.80000000 0.40000000
v 0.13858193 0.85740251 0.40000000
v 0.10606602 0.90606602 0.40000000
v 0.05740251 0.93858193 0.40000000
v -0.00000000 0.95000000 0.40000000
v -0.05740251 0.93858193 0.40000000
v -0.10606602 0.90606602 0.40000000
v -0.13858193 0.85740251 0.40000000
v -0.15000000 0.80000000 0.40000000
v 0.50000000 1.00000000 0.40000000
v -0.15000000 0.80000000 0.60000000
v -0.15000000 0.35000000 0.60000000
v -0.13858193 0.85740251 0.60000000
v -0.10606602 0.90606602 0.60000000
v -0.05740251 0.93858193 0.60000000
v -0.00000000 0.95000000 0.60000000
v 0.05740251 0.93858193 0.60000000
v 0.10606602 0.90606602 0.60000000
v 0.13858193 0.85740251 0.60000000
v 0.15000000 0.80000000 0.60000000
v 0.15000000 0.35000000 0.60000000
v -0.00000000 0.35000000 0.60000000
v 0.50000000 1.00000000 0.60000000
v 0.50000000 0.00000000 0.60000000
v -0.00000000 1.00000000 0.60000000
v -0.00000000 0.00000000 0.60000000
vt 0.00000000 0.00000000
vt 1.00000000 0.00000000
vt 1.00000000 1.00000000
vt 0.00000000 1.00000000
vt 0.35000000 0.00000000
vt 0.65000000 0.35000000
vt 0.35000000 0.35000000
vt 0.35000000 0.65000000
vt 0.65000000 0.65000000
vt 0.65000000 1.00000000
vt 0.00000000 1.00000000
vt 0.00000000 0.00000000
vt 0.65000000 0.00000000
vt 0.80000000 0.65000000
vt 0.85740251 0.63858193
vt 0.90606602 0.60606602
vt 0.93858193 0.55740251
vt 0.95000000 0.50000000
vt 0.93858193 0.44259749
vt 0.90606602 0.39393398
vt 0.85740251 0.36141807
vt 0.80000000 0.35000000
vt 1.00000000 0.00000000
vt 1.00000000 1.00000000
vt 0.00000000 1.00000000
vt 0.00000000 0.00000000
vt 1.00000000 0.00000000
vt 1.00000000 1.00000000
vt 1.00000000 0.66666667
vt 0.00000000 1.00000000
vt 0.00000000 0.00000000
vt 1.00000000 0.00000000
vt 1.00000000 1.00000000
vt 0.00000000 1.00000000
vt 0.00000000 0.00000000
vt 1.00000000 0.00000000
vt 1.00000000 1.00000000
vt 0.00000000 1.00000000
vt 0.00000000 0.00000000
vt 1.00000000 0.00000000
vt 1.00000000 1.00000000
vt 0.00000000 1.00000000
vt 0.00000000 0.00000000
vt 1.00000000 0.00000000
vt 1.00000000 1.00000000
vt 0.00000000 1.00000000
vt 0.00000000 0.00000000
vt 1.00000000 0.00000000
vt 1.00000000 1.00000000
vt 0.00000000 1.00000000
vt 0.00000000 0.00000000
vt 1.00000000 0.00000000
vt 1.00000000 1.00000000
vt 0.00000000 1.00000000
vt 0.00000000 0.00000000
vt 1.00000000 0.00000000
vt 1.00000000 1.00000000
vt 0.00000000 1.00000000
vt 0.00000000 0.00000000
vt 1.00000000 0.00000000
vt 1.00000000 1.00000000
vt 0.00000000 1.00000000
vt 0.00000000 0.00000000
vt 1.00000000 0.00000000
vt 1.00000000 1.00000000
vt 1.00000000 0.33333333
vt 0.00000000 1.00000000
vt 0.00000000 0.00000000
vt 1.00000000 0.00000000
vt 1.00000000 1.00000000
vt 0.00000000 0.50000000
vt 1.00000000 1.00000000
vt 0.00000000 1.00000000
vt 0.00000000 0.00000000
vt 1.00000000 0.00000000
vt 0.65000000 0.00000000
vt 1.00000000 1.00000000
vt 0.00000000 1.00000000
vt 0.00000000 0.00000000
vt 1.00000000 0.00000000
vt 0.00000000 0.50000000
vt 0.65000000 0.50000000
vt 0.65000000 0.35000000
vt 0.20000000 0.35000000
vt 0.14259749 0.36141807
vt 0.09393398 0.39393398
vt 0.06141807 0.44259749
vt 0.05000000 0.50000000
vt 0.00000000 0.50000000
vt 0.00000000 0.00000000
vt 1.00000000 0.00000000
vt 1.00000000 0.50000000
vt 0.06141807 0.55740251
vt 0.09393398 0.60606602
vt 0.14259749 0.63858193
vt 0.20000000 0.65000000
vt 0.65000000 0.65000000
vt 1.00000000 1.00000000
vt 0.00000000 1.00000000
vt 1.00000000 0.00000000
vt 1.00000000 1.00000000
vt 0.00000000 1.00000000
vt 0.00000000 0.00000000
vt 0.50000000 1.00000000
vn -1.00000000 0.00000000 0.00000000
vn -1.00000000 0.00000000 0.00000000
vn -1.00000000 0.00000000 0.00000000
vn -1.00000000 0.00000000 0.00000000
vn -1.00000000 0.00000000 0.00000000
vn 0.00000000 0.00000000 -1.00000000
vn 0.00000000 0.00000000 -1.00000000
vn 0.00000000 0.00000000 -1.00000000
vn 0.00000000 0.00000000 -1.00000000
vn 0.00000000 0.00000000 -1.00000000
vn 0.00000000 0.00000000 -1.00000000
vn 0.00000000 0.00000000 -1.00000000
vn 0.00000000 0.00000000 -1.00000000
vn 0.00000000 0.00000000 -1.00000000
vn 0.00000000 0.00000000 -1.00000000
vn 0.00000000 0.00000000 -1.00000000
vn 0.00000000 0.00000000 -1.00000000
vn 0.00000000 0.00000000 -1.00000000
vn 0.00000000 0.00000000 -1.00000000
vn 0.00000000 0.00000000 -1.00000000
vn 0.00000000 0.00000000 -1.00000000
vn 0.00000000 0.00000000 -1.00000000
vn 0.00000000 0.00000000 -1.00000000
vn 0.00000000 0.00000000 -1.00000000
vn 1.00000000 0.00000000 0.00000000
vn 1.00000000 0.00000000 0.00000000
vn 1.00000000 0.00000000 0.00000000
vn 1.00000000 0.00000000 0.00000000
vn 1.00000000 0.00000000 0.00000000
vn 0.98078528 -0.19509032 0.00000000
vn 0.98078528 -0.19509032 0.00000000
vn 0.98078528 -0.19509032 0.00000000
vn 0.98078528 -0.19509032 0.00000000
vn 0.83146961 -0.55557023 0.00000000
vn 0.83146961 -0.55557023 0.00000000
vn 0.83146961 -0.55557023 0.00000000
vn 0.83146961 -0.55557023 0.00000000
vn 0.55557023 -0.83146961 0.00000000
vn 0.55557023 -0.83146961 0.00000000
vn 0.55557023 -0.83146961 0.00000000
vn 0.55557023 -0.83146961 0.00000000
vn 0.19509032 -0.98078528 0.00000000
vn 0.19509032 -0.98078528 0.00000000
vn 0.19509032 -0.98078528 0.00000000
vn 0.19509032 -0.98078528 0.00000000
vn -0.19509032 -0.98078528 0.00000000
vn -0.19509032 -0.98078528 0.00000000
vn -0.19509032 -0.98078528 0.00000000
vn -0.19509032 -0.98078528 0.00000000
vn -0.55557023 -0.83146961 0.00000000
vn -0.55557023 -0.83146961 0.00000000
vn -0.55557023 -0.83146961 0.00000000
vn -0.55557023 -0.83146961 0.00000000
vn -0.83146961 -0.55557023 0.00000000
vn -0.83146961 -0.55557023 0.00000000
vn -0.83146961 -0.55557023 0.00000000
vn -0.83146961 -0.55557023 0.00000000
vn -0.98078528 -0.19509032 0.00000000
vn -0.98078528 -0.19509032 0.00000000
vn -0.98078528 -0.19509032 0.00000000
vn -0.98078528 -0.19509032 0.00000000
vn -1.00000000 0.00000000 0.00000000
vn -1.00000000 0.00000000 0.00000000
vn -1.00000000 0.00000000 0.00000000
vn -1.00000000 0.00000000 0.00000000
vn -1.00000000 0.00000000 0.00000000
vn 0.00000000 1.00000000 0.00000000
vn 0.00000000 1.00000000 0.00000000
vn 0.00000000 1.00000000 0.00000000
vn 0.00000000 1.00000000 0.00000000
vn 0.00000000 1.00000000 0.00000000
vn 1.00000000 0.00000000 0.00000000
vn 1.00000000 0.00000000 0.00000000
vn 1.00000000 0.00000000 0.00000000
vn 1.00000000 0.00000000 0.00000000
vn 1.00000000 0.00000000 0.00000000
vn 0.00000000 1.00000000 0.00000000
vn 0.00000000 1.00000000 0.00000000
vn 0.00000000 1.00000000 0.00000000
vn 0.00000000 1.00000000 0.00000000
vn 0.00000000 1.00000000 0.00000000
vn -0.00000000 0.00000000 1.00000000
vn -0.00000000 0.00000000 1.00000000
vn -0.00000000 0.00000000 1.00000000
vn -0.00000000 0.00000000 1.00000000
vn -0.00000000 0.00000000 1.00000000
vn -0.00000000 0.00000000 1.00000000
vn -0.00000000 0.00000000 1.00000000
vn -0.00000000 0.00000000 1.00000000
vn -0.00000000 0.00000000 1.00000000
vn -0.00000000 0.00000000 1.00000000
vn -0.00000000 0.00000000 1.00000000
vn -0.00000000 0.00000000 1.00000000
vn -0.00000000 0.00000000 1.00000000
vn -0.00000000 0.00000000 1.00000000
vn -0.00000000 0.00000000 1.00000000
vn -0.00000000 0.00000000 1.00000000
vn -0.00000000 0.00000000 1.00000000
vn -0.00000000 0.00000000 1.00000000
vn 0.00000000 -1.00000000 0.00000000
vn 0.00000000 -1.00000000 0.00000000
vn 0.00000000 -1.00000000 0.00000000
vn 0.00000000 -1.00000000 0.00000000
vn 0.00000000 -1.00000000 0.00000000
s 1
usemtl Sandstone_Trim
f 4/4/4 1/1/1 5/5/5
f 5/5/5 2/2/2 3/3/3
f 5/5/5 3/3/3 4/4/4
s 2
f 8/8/8 9/9/9 10/10/10
f 21/24/24 10/10/10 12/14/14
f 16/18/18 1/23/23 21/24/24
f 17/19/19 18/20/20 1/23/23
f 18/20/20 19/21/21 1/23/23
f 19/21/21 20/22/22 1/23/23
f 20/22/22 6/6/6 5/13/13
f 2/12/12 5/13/13 7/7/7
f 7/7/7 11/11/11 2/12/12
f 5/13/13 6/6/6 7/7/7
f 20/22/22 5/13/13 1/23/23
f 16/18/18 17/19/19 1/23/23
f 21/24/24 15/17/17 16/18/18
f 21/24/24 14/16/16 15/17/17
f 21/24/24 13/15/15 14/16/16
f 21/24/24 12/14/14 13/15/15
f 10/10/10 9/9/9 12/14/14
f 7/7/7 8/8/8 11/11/11
f 8/8/8 10/10/10 11/11/11
s 3
f 6/29/29 20/28/28 22/25/25
f 22/25/25 23/26/26 6/29/29
f 23/26/26 7/27/27 6/29/29
s 4
f 24/30/30 22/31/31 19/33/33
f 22/31/31 20/32/32 19/33/33
s 5
f 25/34/34 24/35/35 18/37/37
f 24/35/35 19/36/36 18/37/37
s 6
f 26/38/38 25/39/39 17/41/41
f 25/39/39 18/40/40 17/41/41
s 7
f 27/42/42 26/43/43 16/45/45
f 26/43/43 17/44/44 16/45/45
s 8
f 28/46/46 27/47/47 15/49/49
f 27/47/47 16/48/48 15/49/49
s 9
f 29/50/50 28/51/51 14/53/53
f 28/51/51 15/52/52 14/53/53
s 10
f 30/54/54 29/55/55 13/57/57
f 29/55/55 14/56/56 13/57/57
s 11
f 31/58/58 30/59/59 12/61/61
f 30/59/59 13/60/60 12/61/61
s 12
f 31/63/63 12/64/64 9/66/66
f 9/66/66 8/65/65 32/62/62
f 32/62/62 31/63/63 9/66/66
s 13
f 7/70/70 23/67/67 33/71/71
f 33/71/71 32/68/68 8/69/69
f 33/71/71 8/69/69 7/70/70
s 14
f 10/76/76 21/75/75 34/72/72
f 34/72/72 35/73/73 10/76/76
f 35/73/73 11/74/74 10/76/76
s 15
usemtl Sandstone_Floor
f 36/81/81 34/78/78 21/77/77
f 1/80/80 36/81/81 21/77/77
f 1/80/80 4/79/79 36/81/81
s 16
usemtl Sandstone_Trim
f 26/87/87 27/88/88 36/89/89
f 34/99/99 36/89/89 29/94/94
f 29/94/94 30/95/95 34/99/99
f 30/95/95 31/96/96 34/99/99
f 31/96/96 32/97/97 35/98/98
f 32/97/97 37/92/92 35/98/98
f 3/91/91 37/92/92 23/83/83
f 4/90/90 3/91/91 22/84/84
f 24/85/85 25/86/86 4/90/90
f 4/90/90 22/84/84 24/85/85
f 3/91/91 23/83/83 22/84/84
f 37/92/92 33/82/82 23/83/83
f 32/97/97 33/82/82 37/92/92
f 31/96/96 35/98/98 34/99/99
f 36/89/89 28/93/93 29/94/94
f 25/86/86 36/89/89 4/90/90
f 36/89/89 27/88/88 28/93/93
f 25/86/86 26/87/87 36/89/89
s 17
f 11/100/100 35/101/101 37/104/104
f 37/104/104 3/102/102 2/103/103
f 11/100/100 37/104/104 2/103/103
