mtllib Materials_Modular_Temple.mtl
o object1
g object1
v -0.50000000 -0.00000000 0.60000000
v -0.50000000 0.15000000 0.60000000
v -0.50000000 0.20000000 0.55000000
v -0.50000000 0.20000000 0.45301515
v -0.50000000 0.15000000 0.40000000
v -0.50000000 -0.00000000 0.40000000
v 0.50000000 0.00000000 0.60000000
v 0.50000000 0.15000000 0.60000000
v 0.50000000 0.20000000 0.55000000
v 0.50000000 0.20000000 0.45301515
v 0.50000000 0.15000000 0.40000000
v 0.50000000 0.00000000 0.40000000
vt 0.00000000 1.00000000
vt 0.00000000 0.25000000
vt 0.25000000 0.00000000
vt 0.73492424 0.00000000
vt 1.00000000 0.25000000
vt 1.00000000 1.00000000
vt 1.00000000 0.00000000
vt 1.00000000 1.00000000
vt 0.00000000 1.00000000
vt 0.00000000 0.00000000
vt 0.00000000 1.00000000
vt 0.00000000 0.25000000
vt 0.25000000 0.00000000
vt 0.73492424 0.00000000
vt 1.00000000 0.25000000
vt 1.00000000 1.00000000
vt 0.00000000 1.00000000
vt 0.00000000 0.00000000
vt 1.00000000 0.00000000
vt 1.00000000 1.00000000
vt 1.00000000 0.00000000
vt 1.00000000 1.00000000
vt 0.00000000 1.00000000
vt 0.00000000 0.00000000
vt 1.00000000 1.00000000
vt 0.00000000 1.00000000
vt 0.00000000 0.00000000
vt 1.00000000 0.00000000
vt 1.00000000 1.00000000
vt 0.00000000 1.00000000
vt 0.00000000 0.00000000
vt 1.00000000 0.00000000
vt 1.00000000 1.00000000
vt 0.00000000 1.00000000
vt 0.00000000 0.00000000
vt 1.00000000 0.00000000
vn -1.00000000 0.00000000 0.00000000
vn -1.00000000 0.00000000 0.00000000
vn -1.00000000 0.00000000 0.00000000
vn -1.00000000 0.00000000 0.00000000
vn -1.00000000 0.00000000 0.00000000
vn -1.00000000 0.00000000 0.00000000
vn 0.00000000 -0.00000000 1.00000000
vn 0.00000000 -0.00000000 1.00000000
vn 0.00000000 -0.00000000 1.00000000
vn 0.00000000 -0.00000000 1.00000000
vn 1.00000000 0.00000000 0.00000000
vn 1.00000000 0.00000000 0.00000000
vn 1.00000000 0.00000000 0.00000000
vn 1.00000000 0.00000000 0.00000000
vn 1.00000000 0.00000000 0.00000000
vn 1.00000000 0.00000000 0.00000000
vn 0.00000000 -1.00000000 0.00000000
vn 0.00000000 -1.00000000 0.00000000
vn 0.00000000 -1.00000000 0.00000000
vn 0.00000000 -1.00000000 0.00000000
vn -0.00000000 0.00000000 -1.00000000
vn -0.00000000 0.00000000 -1.00000000
vn -0.00000000 0.00000000 -1.00000000
vn -0.00000000 0.00000000 -1.00000000
vn -0.00000000 0.72749155 -0.68611664
vn -0.00000000 0.72749155 -0.68611664
vn -0.00000000 0.72749155 -0.68611664
vn -0.00000000 0.72749155 -0.68611664
vn -0.00000000 1.00000000 0.00000000
vn -0.00000000 1.00000000 -0.00000000
vn -0.00000000 1.00000000 -0.00000000
vn -0.00000000 1.00000000 0.00000000
vn -0.00000000 0.70710678 0.70710678
vn -0.00000000 0.70710678 0.70710678
vn -0.00000000 0.70710678 0.70710678
vn -0.00000000 0.70710678 0.70710678
s 1
usemtl Sandstone_Trim
f 2/2/2 3/3/3 4/4/4
f 2/2/2 5/5/5 6/6/6
f 6/6/6 1/1/1 2/2/2
f 2/2/2 4/4/4 5/5/5
s 2
f 2/7/7 1/8/8 7/9/9
f 2/7/7 7/9/9 8/10/10
s 3
f 10/14/14 9/13/13 8/12/12
f 12/16/16 8/12/12 7/11/11
f 12/16/16 11/15/15 8/12/12
f 11/15/15 10/14/14 8/12/12
s 4
f 1/17/17 6/18/18 12/19/19
f 1/17/17 12/19/19 7/20/20
s 5
f 11/24/24 12/23/23 6/22/22
f 11/24/24 6/22/22 5/21/21
s 6
f 4/28/28 10/27/27 11/26/26
f 4/28/28 11/26/26 5/25/25
s 7
f 3/32/32 9/31/31 10/30/30
f 3/32/32 10/30/30 4/29/29
s 8
f 2/36/36 8/35/35 9/34/34
f 2/36/36 9/34/34 3/33/33
