mtllib Materials_Modular_Temple.mtl
o object1
g object1
v -0.08163702 0.78775801 0.40000000
v -0.09013019 0.81973961 0.40000000
v -0.09013019 0.81973961 0.60000000
v -0.08163702 0.78775801 0.60000000
v -0.00000000 1.00000000 0.40000000
v -0.50000000 1.00000000 0.40000000
v -0.50000000 0.00000000 0.40000000
v 0.50000000 0.00000000 0.40000000
v 0.50000000 0.50000000 0.40000000
v 0.26042368 0.40416947 0.40000000
v 0.23995858 0.40502071 0.40000000
v 0.06381966 0.49309017 0.40000000
v 0.05000000 0.51545085 0.40000000
v 0.05000000 0.68662041 0.40000000
v 0.03886750 0.70742166 0.40000000
v -0.50000000 0.00000000 0.60000000
v -0.50000000 1.00000000 0.60000000
v 0.50000000 0.00000000 0.60000000
v 0.50000000 0.50000000 0.60000000
v 0.26042368 0.40416947 0.60000000
v 0.23995858 0.40502071 0.60000000
v 0.06381966 0.49309017 0.60000000
v 0.05000000 0.51545085 0.60000000
v 0.05000000 0.68662041 0.60000000
v 0.03886750 0.70742166 0.60000000
v -0.00000000 1.00000000 0.60000000
vt 0.00000000 1.00000000
vt 0.00000000 0.00000000
vt 1.00000000 0.00000000
vt 1.00000000 1.00000000
vt 0.81973961 0.59013019
vt 1.00000000 0.50000000
vt 1.00000000 1.00000000
vt 0.00000000 1.00000000
vt 0.00000000 0.00000000
vt 0.50000000 0.00000000
vt 0.40416947 0.23957632
vt 0.40502071 0.26004142
vt 0.49309017 0.43618034
vt 0.51545085 0.45000000
vt 0.68662041 0.45000000
vt 0.70742166 0.46113250
vt 0.78775801 0.58163702
vt 1.00000000 1.00000000
vt 0.00000000 1.00000000
vt 0.00000000 0.00000000
vt 1.00000000 0.00000000
vt 1.00000000 1.00000000
vt 0.00000000 1.00000000
vt 0.00000000 0.00000000
vt 1.00000000 0.00000000
vt 1.00000000 1.00000000
vt 0.00000000 1.00000000
vt 0.00000000 0.00000000
vt 1.00000000 0.00000000
vt 1.00000000 0.00000000
vt 1.00000000 1.00000000
vt 0.00000000 1.00000000
vt 0.00000000 0.00000000
vt 0.00000000 1.00000000
vt 0.00000000 0.00000000
vt 1.00000000 0.00000000
vt 1.00000000 1.00000000
vt 0.00000000 1.00000000
vt 0.00000000 0.00000000
vt 1.00000000 0.00000000
vt 1.00000000 1.00000000
vt 0.00000000 1.00000000
vt 0.00000000 0.00000000
vt 1.00000000 0.00000000
vt 1.00000000 1.00000000
vt 0.00000000 1.00000000
vt 0.00000000 0.00000000
vt 1.00000000 0.00000000
vt 1.00000000 1.00000000
vt 0.00000000 1.00000000
vt 0.00000000 0.00000000
vt 1.00000000 0.00000000
vt 1.00000000 1.00000000
vt 1.00000000 1.00000000
vt 0.00000000 1.00000000
vt 0.00000000 0.00000000
vt 1.00000000 0.00000000
vt 0.00000000 1.00000000
vt 0.00000000 0.00000000
vt 1.00000000 0.00000000
vt 1.00000000 1.00000000
vt 1.00000000 0.50000000
vt 1.00000000 1.00000000
vt 0.00000000 1.00000000
vt 0.00000000 0.00000000
vt 0.50000000 0.00000000
vt 0.40416947 0.23957632
vt 0.40502071 0.26004142
vt 0.49309017 0.43618034
vt 0.51545085 0.45000000
vt 0.68662041 0.45000000
vt 0.70742166 0.46113250
vt 0.78775801 0.58163702
vt 0.81973961 0.59013019
vt 0.00000000 1.00000000
vt 0.00000000 0.00000000
vt 1.00000000 0.00000000
vt 1.00000000 1.00000000
vn 0.96649965 0.25666794 0.00000000
vn 0.96649965 0.25666794 0.00000000
vn 0.96649965 0.25666794 0.00000000
vn 0.96649965 0.25666794 0.00000000
vn 0.00000000 0.00000000 -1.00000000
vn 0.00000000 0.00000000 -1.00000000
vn 0.00000000 0.00000000 -1.00000000
vn 0.00000000 0.00000000 -1.00000000
vn 0.00000000 0.00000000 -1.00000000
vn 0.00000000 0.00000000 -1.00000000
vn 0.00000000 0.00000000 -1.00000000
vn 0.00000000 0.00000000 -1.00000000
vn 0.00000000 0.00000000 -1.00000000
vn 0.00000000 0.00000000 -1.00000000
vn 0.00000000 0.00000000 -1.00000000
vn 0.00000000 0.00000000 -1.00000000
vn 0.00000000 0.00000000 -1.00000000
vn -1.00000000 0.00000000 0.00000000
vn -1.00000000 0.00000000 0.00000000
vn -1.00000000 0.00000000 0.00000000
vn -1.00000000 0.00000000 0.00000000
vn -0.00000000 -1.00000000 -0.00000000
vn -0.00000000 -1.00000000 -0.00000000
vn -0.00000000 -1.00000000 -0.00000000
vn -0.00000000 -1.00000000 -0.00000000
vn 1.00000000 0.00000000 0.00000000
vn 1.00000000 0.00000000 0.00000000
vn 1.00000000 0.00000000 0.00000000
vn 1.00000000 0.00000000 0.00000000
vn -0.37139068 0.92847669 0.00000000
vn -0.37139068 0.92847669 0.00000000
vn -0.37139068 0.92847669 0.00000000
vn -0.37139068 0.92847669 0.00000000
vn 0.04155864 0.99913607 0.00000000
vn 0.04155864 0.99913607 0.00000000
vn 0.04155864 0.99913607 0.00000000
vn 0.04155864 0.99913607 0.00000000
vn 0.44721360 0.89442719 0.00000000
vn 0.44721360 0.89442719 0.00000000
vn 0.44721360 0.89442719 0.00000000
vn 0.44721360 0.89442719 0.00000000
vn 0.85065081 0.52573111 0.00000000
vn 0.85065081 0.52573111 0.00000000
vn 0.85065081 0.52573111 0.00000000
vn 0.85065081 0.52573111 0.00000000
vn 1.00000000 0.00000000 0.00000000
vn 1.00000000 0.00000000 0.00000000
vn 1.00000000 0.00000000 0.00000000
vn 1.00000000 0.00000000 0.00000000
vn 0.88167460 0.47185793 0.00000000
vn 0.88167460 0.47185793 0.00000000
vn 0.88167460 0.47185793 0.00000000
vn 0.88167460 0.47185793 0.00000000
vn 0.00000000 1.00000000 0.00000000
vn 0.00000000 1.00000000 0.00000000
vn 0.00000000 1.00000000 0.00000000
vn 0.00000000 1.00000000 0.00000000
vn 0.55470020 0.83205029 0.00000000
vn 0.55470020 0.83205029 0.00000000
vn 0.55470020 0.83205029 0.00000000
vn 0.55470020 0.83205029 0.00000000
vn -0.00000000 -0.00000000 1.00000000
vn -0.00000000 -0.00000000 1.00000000
vn -0.00000000 -0.00000000 1.00000000
vn -0.00000000 -0.00000000 1.00000000
vn -0.00000000 -0.00000000 1.00000000
vn -0.00000000 -0.00000000 1.00000000
vn -0.00000000 -0.00000000 1.00000000
vn -0.00000000 -0.00000000 1.00000000
vn -0.00000000 -0.00000000 1.00000000
vn -0.00000000 -0.00000000 1.00000000
vn -0.00000000 -0.00000000 1.00000000
vn -0.00000000 -0.00000000 1.00000000
vn -0.00000000 -0.00000000 1.00000000
vn 0.89442719 -0.44721360 0.00000000
vn 0.89442719 -0.44721360 0.00000000
vn 0.89442719 -0.44721360 0.00000000
vn 0.89442719 -0.44721360 0.00000000
s 1
usemtl Sandstone_Trim
f 1/1/1 2/2/2 4/4/4
f 2/2/2 3/3/3 4/4/4
s 2
f 6/7/7 5/6/6 2/5/5
f 1/17/17 7/8/8 2/5/5
f 13/14/14 12/13/13 7/8/8
f 12/13/13 11/12/12 7/8/8
f 11/12/12 10/11/11 7/8/8
f 10/11/11 9/10/10 8/9/9
f 10/11/11 8/9/9 7/8/8
f 1/17/17 13/14/14 7/8/8
f 1/17/17 14/15/15 13/14/14
f 1/17/17 15/16/16 14/15/15
f 7/8/8 6/7/7 2/5/5
s 3
f 17/21/21 6/20/20 16/18/18
f 6/20/20 7/19/19 16/18/18
s 4
f 16/25/25 7/24/24 8/23/23
f 16/25/25 8/23/23 18/22/22
s 5
f 18/29/29 8/28/28 19/26/26
f 8/28/28 9/27/27 19/26/26
s 6
f 9/33/33 10/32/32 19/30/30
f 10/32/32 20/31/31 19/30/30
s 7
f 10/34/34 11/35/35 20/37/37
f 11/35/35 21/36/36 20/37/37
s 8
f 22/41/41 21/40/40 11/39/39
f 22/41/41 11/39/39 12/38/38
s 9
f 12/42/42 13/43/43 22/45/45
f 13/43/43 23/44/44 22/45/45
s 10
f 24/49/49 23/48/48 13/47/47
f 24/49/49 13/47/47 14/46/46
s 11
f 14/50/50 15/51/51 24/53/53
f 15/51/51 25/52/52 24/53/53
s 12
f 26/57/57 5/56/56 17/54/54
f 5/56/56 6/55/55 17/54/54
s 13
f 4/61/61 25/60/60 15/59/59
f 4/61/61 15/59/59 1/58/58
s 14
f 3/74/74 26/62/62 17/63/63
f 16/64/64 4/73/73 3/74/74
f 23/70/70 24/71/71 4/73/73
f 24/71/71 25/72/72 4/73/73
f 16/64/64 23/70/70 4/73/73
f 16/64/64 22/69/69 23/70/70
f 16/64/64 21/68/68 22/69/69
f 16/64/64 20/67/67 21/68/68
f 18/65/65 19/66/66 20/67/67
f 16/64/64 18/65/65 20/67/67
f 3/74/74 17/63/63 16/64/64
s 15
f 26/78/78 3/77/77 5/75/75
f 3/77/77 2/76/76 5/75/75
o object2
g object2
v -0.05000000 0.75000000 0.42500000
v -0.05000000 0.75000000 0.57500000
v -0.30000000 0.75000000 0.57500000
v -0.30000000 0.75000000 0.42500000
v -0.05000000 0.95000000 0.42500000
v -0.05000000 0.95000000 0.57500000
v -0.30000000 0.95000000 0.57500000
v -0.30000000 0.95000000 0.42500000
vt 1.00000000 1.00000000
vt 0.00000000 1.00000000
vt 0.00000000 0.00000000
vt 1.00000000 0.00000000
vt 1.00000000 1.00000000
vt 0.00000000 1.00000000
vt 0.00000000 0.00000000
vt 1.00000000 0.00000000
vt 1.00000000 1.00000000
vt 0.00000000 1.00000000
vt 0.00000000 0.00000000
vt 1.00000000 0.00000000
vt 1.00000000 1.00000000
vt 0.00000000 1.00000000
vt 0.00000000 0.00000000
vt 1.00000000 0.00000000
vt 1.00000000 1.00000000
vt 0.00000000 1.00000000
vt 0.00000000 0.00000000
vt 1.00000000 0.00000000
vt 1.00000000 1.00000000
vt 0.00000000 1.00000000
vt 0.00000000 0.00000000
vt 1.00000000 0.00000000
vn 0.00000000 -1.00000000 0.00000000
vn 0.00000000 -1.00000000 0.00000000
vn 0.00000000 -1.00000000 0.00000000
vn 0.00000000 -1.00000000 0.00000000
vn 1.00000000 0.00000000 0.00000000
vn 1.00000000 0.00000000 0.00000000
vn 1.00000000 0.00000000 0.00000000
vn 1.00000000 0.00000000 0.00000000
vn 0.00000000 1.00000000 0.00000000
vn 0.00000000 1.00000000 0.00000000
vn 0.00000000 1.00000000 0.00000000
vn 0.00000000 1.00000000 0.00000000
vn 0.00000000 0.00000000 -1.00000000
vn 0.00000000 0.00000000 -1.00000000
vn 0.00000000 0.00000000 -1.00000000
vn 0.00000000 0.00000000 -1.00000000
vn -1.00000000 0.00000000 0.00000000
vn -1.00000000 0.00000000 0.00000000
vn -1.00000000 0.00000000 0.00000000
vn -1.00000000 0.00000000 0.00000000
vn 0.00000000 0.00000000 1.00000000
vn 0.00000000 0.00000000 1.00000000
vn 0.00000000 0.00000000 1.00000000
vn 0.00000000 0.00000000 1.00000000
s 1
usemtl Sandstone_4
f 27/79/79 28/80/80 30/82/82
f 28/80/80 29/81/81 30/82/82
s 2
f 32/86/86 28/85/85 31/83/83
f 28/85/85 27/84/84 31/83/83
s 3
f 34/90/90 33/89/89 32/88/88
f 34/90/90 32/88/88 31/87/87
s 4
f 31/91/91 27/92/92 34/94/94
f 27/92/92 30/93/93 34/94/94
s 5
f 34/95/95 30/96/96 33/98/98
f 30/96/96 29/97/97 33/98/98
s 6
f 33/102/102 29/101/101 32/99/99
f 29/101/101 28/100/100 32/99/99
o object3
g object3
v 0.24678052 0.45000000 0.57500000
v 0.38918191 0.45000000 0.57500000
v 0.38918191 0.25000000 0.57500000
v 0.23918191 0.25000000 0.57500000
v 0.23918191 0.43651343 0.57500000
v 0.38918191 0.25000000 0.42500000
v 0.23918191 0.25000000 0.42500000
v 0.25531636 0.45000000 0.42500000
v 0.38918191 0.45000000 0.42500000
v 0.23918191 0.42298452 0.42500000
v 0.23918191 0.45000000 0.45380499
v 0.23918191 0.45000000 0.56742134
vt 1.00000000 0.05065742
vt 1.00000000 1.00000000
vt 0.00000000 1.00000000
vt 0.00000000 0.00000000
vt 0.93256713 0.00000000
vt 1.00000000 1.00000000
vt 0.00000000 1.00000000
vt 0.00000000 0.00000000
vt 1.00000000 0.00000000
vt 1.00000000 0.10756301
vt 1.00000000 1.00000000
vt 0.00000000 1.00000000
vt 0.00000000 0.00000000
vt 0.86492260 0.00000000
vt 0.00000000 0.00000000
vt 1.00000000 0.46797457
vt 0.00000000 1.00000000
vt 1.00000000 0.80796672
vt 0.86492260 1.00000000
vt 0.00000000 1.00000000
vt 0.00000000 0.00000000
vt 0.93256713 0.00000000
vt 1.00000000 0.05052437
vt 0.00000000 1.00000000
vt 0.00000000 0.00000000
vt 1.00000000 0.75904628
vt 0.80796672 0.00000000
vt 1.00000000 0.10756301
vt 1.00000000 1.00000000
vt 0.00000000 1.00000000
vt 0.00000000 0.05065742
vt 0.05052437 0.00000000
vt 1.00000000 1.00000000
vt 0.00000000 1.00000000
vt 0.00000000 0.00000000
vt 1.00000000 0.00000000
vn 0.00000000 0.00000000 1.00000000
vn 0.00000000 0.00000000 1.00000000
vn 0.00000000 0.00000000 1.00000000
vn 0.00000000 0.00000000 1.00000000
vn 0.00000000 0.00000000 1.00000000
vn 0.00000000 -1.00000000 0.00000000
vn 0.00000000 -1.00000000 0.00000000
vn 0.00000000 -1.00000000 0.00000000
vn 0.00000000 -1.00000000 0.00000000
vn 0.00000000 0.00000000 -1.00000000
vn 0.00000000 0.00000000 -1.00000000
vn 0.00000000 0.00000000 -1.00000000
vn 0.00000000 0.00000000 -1.00000000
vn 0.00000000 0.00000000 -1.00000000
vn -0.77372461 0.46209147 -0.43338401
vn -0.77372461 0.46209147 -0.43338401
vn -0.77372461 0.46209147 -0.43338401
vn -1.00000000 0.00000000 0.00000000
vn -1.00000000 0.00000000 0.00000000
vn -1.00000000 0.00000000 0.00000000
vn -1.00000000 0.00000000 0.00000000
vn -1.00000000 0.00000000 0.00000000
vn -1.00000000 0.00000000 0.00000000
vn -0.65614811 0.36968734 0.65787607
vn -0.65614811 0.36968734 0.65787607
vn -0.65614811 0.36968734 0.65787607
vn 0.00000000 1.00000000 0.00000000
vn 0.00000000 1.00000000 0.00000000
vn 0.00000000 1.00000000 0.00000000
vn 0.00000000 1.00000000 0.00000000
vn 0.00000000 1.00000000 0.00000000
vn 0.00000000 1.00000000 0.00000000
vn 1.00000000 0.00000000 0.00000000
vn 1.00000000 0.00000000 0.00000000
vn 1.00000000 0.00000000 0.00000000
vn 1.00000000 0.00000000 0.00000000
s 1
usemtl Sandstone_4
f 39/107/107 38/106/106 37/105/105
f 37/105/105 36/104/104 35/103/103
f 39/107/107 37/105/105 35/103/103
s 2
f 40/108/108 37/109/109 41/111/111
f 37/109/109 38/110/110 41/111/111
s 3
f 44/116/116 42/112/112 43/113/113
f 43/113/113 40/114/114 44/116/116
f 40/114/114 41/115/115 44/116/116
s 4
f 45/119/119 42/118/118 44/117/117
s 5
f 46/125/125 45/120/120 44/121/121
f 44/121/121 38/123/123 39/124/124
f 44/121/121 41/122/122 38/123/123
f 44/121/121 39/124/124 46/125/125
s 6
f 46/128/128 39/127/127 35/126/126
s 7
f 43/131/131 42/130/130 45/129/129
f 46/134/134 35/133/133 43/131/131
f 35/133/133 36/132/132 43/131/131
f 43/131/131 45/129/129 46/134/134
s 8
f 36/138/138 37/137/137 43/135/135
f 37/137/137 40/136/136 43/135/135
o object4
g object4
v 0.18626425 0.55000000 0.42500000
v 0.22930000 0.52848212 0.42500000
v 0.22930000 0.55000000 0.45727682
v 0.17930000 0.55000000 0.57500000
v -0.02070000 0.55000000 0.57500000
v -0.02070000 0.55000000 0.42500000
v 0.22930000 0.55000000 0.50000000
v 0.22930000 0.50000000 0.57500000
v 0.22930000 0.35000000 0.57500000
v -0.02070000 0.35000000 0.57500000
v 0.22930000 0.35000000 0.42500000
v -0.02070000 0.35000000 0.42500000
vt 0.00000000 0.00000000
vt 1.00000000 0.64000000
vt 0.00000000 1.00000000
vt 0.00000000 0.80000000
vt 0.00000000 0.00000000
vt 1.00000000 0.00000000
vt 1.00000000 0.82785697
vt 0.78482121 1.00000000
vt 0.50000000 1.00000000
vt 0.00000000 0.00000000
vt 1.00000000 0.50000000
vt 0.00000000 1.00000000
vt 1.00000000 0.80000000
vt 0.75000000 1.00000000
vt 0.00000000 1.00000000
vt 0.00000000 0.00000000
vt 1.00000000 0.00000000
vt 1.00000000 1.00000000
vt 0.00000000 1.00000000
vt 0.00000000 0.00000000
vt 1.00000000 0.00000000
vt 1.00000000 1.00000000
vt 0.00000000 1.00000000
vt 0.00000000 0.00000000
vt 1.00000000 0.00000000
vt 1.00000000 0.82785697
vt 0.89241061 1.00000000
vt 0.00000000 1.00000000
vt 0.00000000 0.00000000
vt 1.00000000 0.00000000
vt 1.00000000 0.50000000
vt 1.00000000 0.78482121
vt 0.89241061 1.00000000
vt 0.00000000 1.00000000
vt 0.00000000 0.00000000
vt 0.75000000 0.00000000
vn 0.38411064 0.76822128 -0.51214752
vn 0.38411064 0.76822128 -0.51214752
vn 0.38411064 0.76822128 -0.51214752
vn 0.00000000 1.00000000 0.00000000
vn 0.00000000 1.00000000 0.00000000
vn 0.00000000 1.00000000 0.00000000
vn 0.00000000 1.00000000 0.00000000
vn 0.00000000 1.00000000 0.00000000
vn 0.00000000 1.00000000 0.00000000
vn 0.63960215 0.63960215 0.42640143
vn 0.63960215 0.63960215 0.42640143
vn 0.63960215 0.63960215 0.42640143
vn 0.00000000 0.00000000 1.00000000
vn 0.00000000 0.00000000 1.00000000
vn 0.00000000 0.00000000 1.00000000
vn 0.00000000 0.00000000 1.00000000
vn 0.00000000 0.00000000 1.00000000
vn 0.00000000 -1.00000000 0.00000000
vn 0.00000000 -1.00000000 0.00000000
vn 0.00000000 -1.00000000 0.00000000
vn 0.00000000 -1.00000000 0.00000000
vn -1.00000000 0.00000000 0.00000000
vn -1.00000000 0.00000000 0.00000000
vn -1.00000000 0.00000000 0.00000000
vn -1.00000000 0.00000000 0.00000000
vn 0.00000000 0.00000000 -1.00000000
vn 0.00000000 0.00000000 -1.00000000
vn 0.00000000 0.00000000 -1.00000000
vn 0.00000000 0.00000000 -1.00000000
vn 0.00000000 0.00000000 -1.00000000
vn 1.00000000 0.00000000 0.00000000
vn 1.00000000 0.00000000 0.00000000
vn 1.00000000 0.00000000 0.00000000
vn 1.00000000 0.00000000 0.00000000
vn 1.00000000 0.00000000 0.00000000
vn 1.00000000 0.00000000 0.00000000
s 1
usemtl Sandstone_4
f 49/141/141 48/140/140 47/139/139
s 2
f 53/147/147 49/146/146 47/145/145
f 47/145/145 52/144/144 50/142/142
f 52/144/144 51/143/143 50/142/142
f 50/142/142 53/147/147 47/145/145
s 3
f 54/150/150 53/149/149 50/148/148
s 4
f 55/153/153 54/152/152 50/151/151
f 50/151/151 51/155/155 56/154/154
f 56/154/154 55/153/153 50/151/151
s 5
f 57/156/156 55/157/157 58/159/159
f 55/157/157 56/158/158 58/159/159
s 6
f 52/160/160 58/161/161 51/163/163
f 58/161/161 56/162/162 51/163/163
s 7
f 47/164/164 48/165/165 57/166/166
f 47/164/164 57/166/166 58/167/167
f 58/167/167 52/168/168 47/164/164
s 8
f 48/171/171 49/170/170 53/169/169
f 54/174/174 57/172/172 48/171/171
f 54/174/174 55/173/173 57/172/172
f 48/171/171 53/169/169 54/174/174
