mtllib Materials_Modular_Temple.mtl
o object1
g object1
v 0.50000000 0.85000000 1.35000000
v -0.26629509 0.85000000 1.35000000
v -0.24558441 1.00000000 1.30000000
v 0.50000000 1.00000000 1.30000000
v -1.35000000 0.85000000 -0.50000000
v -1.65000000 0.85000000 -0.50000000
v -1.65000000 0.85000000 0.39055916
v -0.39055916 0.85000000 1.65000000
v 0.50000000 0.85000000 1.65000000
v -1.35000000 0.85000000 0.26629509
v 0.50000000 1.00000000 1.70000000
v -0.41126984 1.00000000 1.70000000
v -0.41126984 1.05000001 1.70000000
v 0.50000000 1.05000001 1.70000000
v -1.70000000 1.05000001 0.41126984
v -1.70000000 1.00000000 0.41126984
v -1.70000000 1.00000000 -0.50000000
v -1.70000000 1.05000001 -0.50000000
v -1.65000000 1.10000001 0.39055916
v -1.65000000 1.10000001 -0.50000000
v -0.39055916 1.10000001 1.65000000
v 0.50000000 1.10000001 1.65000000
v 0.50000000 1.10000001 1.35000000
v -0.26629509 1.10000001 1.35000000
v -1.35000000 1.10000001 0.26629509
v -1.35000000 1.10000001 -0.50000000
v -1.30000000 1.05000001 -0.50000000
v -1.30000000 1.05000001 0.24558441
v -1.30000000 1.00000000 -0.50000000
v -1.30000000 1.00000000 0.24558441
v -0.24558441 1.05000001 1.30000000
v 0.50000000 1.05000001 1.30000000
vt 0.00000000 0.00000000
vt 1.00000000 0.00000000
vt 0.97297297 1.00000000
vt 0.00000000 1.00000000
vt 1.00000000 0.86046512
vt 1.00000000 1.00000000
vt 0.58578644 1.00000000
vt 0.00000000 0.41421356
vt 0.00000000 0.00000000
vt 0.13953488 0.00000000
vt 0.13953488 0.35641632
vt 0.64358368 0.86046512
vt 0.00000000 0.00000000
vt 1.00000000 0.00000000
vt 0.97727273 1.00000000
vt 0.00000000 1.00000000
vt 1.00000000 0.00000000
vt 1.00000000 1.00000000
vt 0.00000000 1.00000000
vt 0.00000000 0.00000000
vt 1.00000000 0.00000000
vt 1.00000000 1.00000000
vt 0.00000000 1.00000000
vt 0.00000000 0.00000000
vt 1.00000000 0.00000000
vt 1.00000000 1.00000000
vt 0.00000000 1.00000000
vt 0.00000000 0.00000000
vt 0.97727273 0.00000000
vt 1.00000000 1.00000000
vt 0.00000000 1.00000000
vt 0.00000000 0.00000000
vt 1.00000000 1.00000000
vt 0.58578644 1.00000000
vt 0.00000000 0.41421356
vt 0.00000000 0.00000000
vt 0.13953488 0.00000000
vt 0.13953488 0.35641632
vt 0.64358368 0.86046512
vt 1.00000000 0.86046512
vt 0.00000000 0.00000000
vt 0.97297297 0.00000000
vt 1.00000000 1.00000000
vt 0.00000000 1.00000000
vt 0.00000000 0.00000000
vt 1.00000000 0.00000000
vt 1.00000000 1.00000000
vt 0.00000000 1.00000000
vt 1.00000000 0.00000000
vt 1.00000000 1.00000000
vt 0.00000000 1.00000000
vt 0.00000000 0.00000000
vt 0.01351351 0.00000000
vt 0.98648649 0.00000000
vt 1.00000000 1.00000000
vt 0.00000000 1.00000000
vt 0.00000000 0.00000000
vt 0.97297297 0.00000000
vt 1.00000000 1.00000000
vt 0.00000000 1.00000000
vt 0.01136364 0.00000000
vt 0.98863636 0.00000000
vt 1.00000000 1.00000000
vt 0.00000000 1.00000000
vt 0.97727273 0.00000000
vt 1.00000000 1.00000000
vt 0.00000000 1.00000000
vt 0.00000000 0.00000000
vt 0.00000000 0.00000000
vt 1.00000000 0.00000000
vt 0.97297297 1.00000000
vt 0.00000000 1.00000000
vt 0.80000001 0.00000000
vt 1.00000000 0.12500000
vt 1.00000000 0.87500000
vt 0.80000001 1.00000000
vt 0.59999996 1.00000000
vt 0.00000000 0.87500000
vt 0.00000000 0.12500000
vt 0.59999996 0.00000000
vt 0.00000000 0.00000000
vt 1.00000000 0.00000000
vt 0.97727273 1.00000000
vt 0.00000000 1.00000000
vt 0.00000000 0.00000000
vt 1.00000000 0.00000000
vt 0.98863636 1.00000000
vt 0.01136364 1.00000000
vt 0.80000001 0.00000000
vt 1.00000000 0.12500000
vt 1.00000000 0.87500000
vt 0.80000001 1.00000000
vt 0.59999996 1.00000000
vt 0.00000000 0.87500000
vt 0.00000000 0.12500000
vt 0.59999996 0.00000000
vt 0.00000000 0.00000000
vt 1.00000000 0.00000000
vt 1.00000000 1.00000000
vt 0.00000000 1.00000000
vt 1.00000000 0.00000000
vt 0.98648649 1.00000000
vt 0.01351351 1.00000000
vt 0.00000000 0.00000000
vn -0.00000000 -0.31622777 -0.94868330
vn -0.00000000 -0.31622777 -0.94868330
vn -0.00000000 -0.31622777 -0.94868330
vn -0.00000000 -0.31622777 -0.94868330
vn 0.00000000 -1.00000000 -0.00000000
vn 0.00000000 -1.00000000 -0.00000000
vn 0.00000000 -1.00000000 -0.00000000
vn 0.00000000 -1.00000000 -0.00000000
vn 0.00000000 -1.00000000 -0.00000000
vn 0.00000000 -1.00000000 -0.00000000
vn 0.00000000 -1.00000000 -0.00000000
vn 0.00000000 -1.00000000 -0.00000000
vn 0.00000000 -0.31622777 0.94868330
vn 0.00000000 -0.31622777 0.94868330
vn 0.00000000 -0.31622777 0.94868330
vn 0.00000000 -0.31622777 0.94868330
vn 0.00000000 -0.00000000 1.00000000
vn 0.00000000 -0.00000000 1.00000000
vn 0.00000000 -0.00000000 1.00000000
vn 0.00000000 -0.00000000 1.00000000
vn -0.70710678 -0.00000000 0.70710678
vn -0.70710678 -0.00000000 0.70710678
vn -0.70710678 -0.00000000 0.70710678
vn -0.70710678 -0.00000000 0.70710678
vn -1.00000000 -0.00000000 0.00000000
vn -1.00000000 -0.00000000 0.00000000
vn -1.00000000 -0.00000000 0.00000000
vn -1.00000000 -0.00000000 0.00000000
vn -0.70710678 0.70710678 -0.00000000
vn -0.70710678 0.70710678 -0.00000000
vn -0.70710678 0.70710678 -0.00000000
vn -0.70710678 0.70710678 -0.00000000
vn -0.00000000 1.00000000 0.00000000
vn -0.00000000 1.00000000 0.00000000
vn -0.00000000 1.00000000 0.00000000
vn -0.00000000 1.00000000 0.00000000
vn -0.00000000 1.00000000 0.00000000
vn -0.00000000 1.00000000 0.00000000
vn -0.00000000 1.00000000 0.00000000
vn -0.00000000 1.00000000 0.00000000
vn 0.70710678 0.70710678 -0.00000000
vn 0.70710678 0.70710678 -0.00000000
vn 0.70710678 0.70710678 -0.00000000
vn 0.70710678 0.70710678 -0.00000000
vn 1.00000000 0.00000000 -0.00000000
vn 1.00000000 0.00000000 -0.00000000
vn 1.00000000 0.00000000 -0.00000000
vn 1.00000000 0.00000000 -0.00000000
vn 0.70710678 0.00000000 -0.70710678
vn 0.70710678 0.00000000 -0.70710678
vn 0.70710678 0.00000000 -0.70710678
vn 0.70710678 0.00000000 -0.70710678
vn 0.50000000 0.70710678 -0.50000000
vn 0.50000000 0.70710678 -0.50000000
vn 0.50000000 0.70710678 -0.50000000
vn 0.50000000 0.70710678 -0.50000000
vn -0.00000000 0.70710678 -0.70710678
vn -0.00000000 0.70710678 -0.70710678
vn -0.00000000 0.70710678 -0.70710678
vn -0.00000000 0.70710678 -0.70710678
vn -0.50000000 0.70710678 0.50000000
vn -0.50000000 0.70710678 0.50000000
vn -0.50000000 0.70710678 0.50000000
vn -0.50000000 0.70710678 0.50000000
vn -0.00000000 0.70710678 0.70710678
vn -0.00000000 0.70710678 0.70710678
vn -0.00000000 0.70710678 0.70710678
vn -0.00000000 0.70710678 0.70710678
vn 0.94868330 -0.31622777 -0.00000000
vn 0.94868330 -0.31622777 -0.00000000
vn 0.94868330 -0.31622777 -0.00000000
vn 0.94868330 -0.31622777 -0.00000000
vn -0.00000000 -0.00000000 -1.00000000
vn -0.00000000 -0.00000000 -1.00000000
vn -0.00000000 -0.00000000 -1.00000000
vn -0.00000000 -0.00000000 -1.00000000
vn -0.00000000 -0.00000000 -1.00000000
vn -0.00000000 -0.00000000 -1.00000000
vn -0.00000000 -0.00000000 -1.00000000
vn -0.00000000 -0.00000000 -1.00000000
vn -0.94868330 -0.31622777 0.00000000
vn -0.94868330 -0.31622777 0.00000000
vn -0.94868330 -0.31622777 0.00000000
vn -0.94868330 -0.31622777 0.00000000
vn -0.67082039 -0.31622777 0.67082039
vn -0.67082039 -0.31622777 0.67082039
vn -0.67082039 -0.31622777 0.67082039
vn -0.67082039 -0.31622777 0.67082039
vn 1.00000000 0.00000000 -0.00000000
vn 1.00000000 0.00000000 -0.00000000
vn 1.00000000 0.00000000 -0.00000000
vn 1.00000000 0.00000000 -0.00000000
vn 1.00000000 0.00000000 -0.00000000
vn 1.00000000 0.00000000 -0.00000000
vn 1.00000000 0.00000000 -0.00000000
vn 1.00000000 0.00000000 -0.00000000
vn -0.00000000 0.00000000 -1.00000000
vn -0.00000000 0.00000000 -1.00000000
vn -0.00000000 0.00000000 -1.00000000
vn -0.00000000 0.00000000 -1.00000000
vn 0.67082039 -0.31622777 -0.67082039
vn 0.67082039 -0.31622777 -0.67082039
vn 0.67082039 -0.31622777 -0.67082039
vn 0.67082039 -0.31622777 -0.67082039
s 1
usemtl Sandstone_5
f 1/1/1 2/2/2 3/3/3
f 1/1/1 3/3/3 4/4/4
s 2
f 2/11/11 1/10/10 9/9/9
f 2/11/11 8/8/8 7/7/7
f 7/7/7 6/6/6 10/12/12
f 6/6/6 5/5/5 10/12/12
f 7/7/7 10/12/12 2/11/11
f 2/11/11 9/9/9 8/8/8
s 3
f 11/13/13 12/14/14 8/15/15
f 11/13/13 8/15/15 9/16/16
s 4
f 13/17/17 12/18/18 14/20/20
f 12/18/18 11/19/19 14/20/20
s 5
f 15/21/21 16/22/22 13/24/24
f 16/22/22 12/23/23 13/24/24
s 6
f 18/28/28 17/27/27 15/25/25
f 17/27/27 16/26/26 15/25/25
s 7
f 20/32/32 18/31/31 19/29/29
f 18/31/31 15/30/30 19/29/29
s 8
f 22/36/36 23/37/37 24/38/38
f 19/34/34 21/35/35 24/38/38
f 25/39/39 20/33/33 19/34/34
f 25/39/39 26/40/40 20/33/33
f 24/38/38 25/39/39 19/34/34
f 21/35/35 22/36/36 24/38/38
s 9
f 26/44/44 25/43/43 28/42/42
f 26/44/44 28/42/42 27/41/41
s 10
f 27/48/48 28/47/47 29/45/45
f 28/47/47 30/46/46 29/45/45
s 11
f 30/49/49 28/50/50 3/52/52
f 28/50/50 31/51/51 3/52/52
s 12
f 31/53/53 28/54/54 24/56/56
f 28/54/54 25/55/55 24/56/56
s 13
f 32/57/57 31/58/58 23/60/60
f 31/58/58 24/59/59 23/60/60
s 14
f 21/61/61 19/62/62 13/64/64
f 19/62/62 15/63/63 13/64/64
s 15
f 21/65/65 13/66/66 14/67/67
f 21/65/65 14/67/67 22/68/68
s 16
f 29/72/72 30/71/71 5/69/69
f 30/71/71 10/70/70 5/69/69
s 17
f 17/77/77 18/76/76 20/75/75
f 5/79/79 6/78/78 20/75/75
f 26/74/74 29/80/80 5/79/79
f 26/74/74 27/73/73 29/80/80
f 20/75/75 26/74/74 5/79/79
f 6/78/78 17/77/77 20/75/75
s 18
f 6/84/84 7/83/83 17/81/81
f 7/83/83 16/82/82 17/81/81
s 19
f 12/85/85 16/86/86 7/87/87
f 12/85/85 7/87/87 8/88/88
s 20
f 22/91/91 14/92/92 11/93/93
f 22/91/91 9/94/94 1/95/95
f 1/95/95 4/96/96 23/90/90
f 4/96/96 32/89/89 23/90/90
f 1/95/95 23/90/90 22/91/91
f 22/91/91 11/93/93 9/94/94
s 21
f 4/97/97 3/98/98 31/99/99
f 4/97/97 31/99/99 32/100/100
s 22
f 10/101/101 30/102/102 3/103/103
f 10/101/101 3/103/103 2/104/104
