mtllib Materials_Modular_Temple.mtl
o object1
g object1
v 0.50000000 1.00000000 0.60000000
v 0.32965666 0.91453095 0.60000000
v 0.18373022 0.61898142 0.60000000
v -0.17000000 0.46500000 0.60000000
v -0.21672412 0.16858235 0.60000000
v -0.50000000 -0.00000000 0.60000000
v -0.50000000 1.00000000 0.60000000
v -0.50000000 1.00000000 0.40000000
v 0.50000000 1.00000000 0.40000000
v 0.50000000 -0.00000000 0.60000000
v 0.50000000 -0.00000000 0.40000000
v -0.50000000 -0.00000000 0.40000000
v 0.27451452 0.25490290 0.60000000
v 0.22536040 0.59898171 0.60000000
v 0.37034334 0.88546905 0.60000000
v 0.18748590 0.51109420 0.60000000
v 0.22548548 0.24509710 0.60000000
v -0.18327588 0.13141765 0.60000000
v -0.13000000 0.43500000 0.60000000
v 0.15230264 0.55404426 0.60000000
v 0.16075289 0.58317981 0.57500000
v -0.15000000 0.45000000 0.57500000
v -0.20000000 0.15000000 0.57500000
v 0.20000000 0.60000000 0.57500000
v 0.35000000 0.90000000 0.57500000
v 0.21120063 0.52159559 0.57500000
v 0.25000000 0.25000000 0.57500000
v 0.33546905 0.22965666 0.40000000
v -0.06214107 0.32814607 0.40000000
v -0.21240347 0.77829392 0.40000000
v -0.20000000 0.80000000 0.42500000
v -0.18759653 0.82170608 0.40000000
v -0.05000000 0.35000000 0.42500000
v -0.03785893 0.37185393 0.40000000
v 0.35000000 0.25000000 0.42500000
v 0.36453095 0.27034334 0.40000000
vt 0.00000000 0.00000000
vt 0.08546905 0.17034334
vt 0.38101858 0.31626978
vt 0.53500000 0.67000000
vt 0.83141765 0.71672412
vt 1.00000000 1.00000000
vt 0.00000000 1.00000000
vt 1.00000000 0.00000000
vt 1.00000000 1.00000000
vt 0.00000000 1.00000000
vt 0.00000000 0.00000000
vt 1.00000000 0.00000000
vt 1.00000000 1.00000000
vt 0.00000000 1.00000000
vt 0.00000000 0.00000000
vt 1.00000000 0.00000000
vt 1.00000000 1.00000000
vt 0.00000000 1.00000000
vt 0.00000000 0.00000000
vt 1.00000000 0.00000000
vt 1.00000000 1.00000000
vt 0.00000000 1.00000000
vt 0.00000000 0.00000000
vt 1.00000000 0.00000000
vt 0.74509710 0.82102320
vt 0.40101829 1.00000000
vt 0.11453095 0.47209748
vt 0.00000000 0.00000000
vt 0.07752100 0.31251410
vt 0.55762181 0.27451452
vt 1.00000000 0.00000000
vt 1.00000000 1.00000000
vt 0.76280298 0.68327588
vt 0.21486418 0.63000000
vt 0.00000000 0.34769736
vt 0.00000000 0.00000000
vt 0.91823365 0.00000000
vt 1.00000000 1.00000000
vt 0.00000000 1.00000000
vt 1.00000000 0.00000000
vt 1.00000000 1.00000000
vt 0.00000000 1.00000000
vt 0.00000000 0.00000000
vt 1.00000000 1.00000000
vt 0.00000000 0.08488551
vt 0.12388236 0.00000000
vt 1.00000000 0.00000000
vt 0.11022716 1.00000000
vt 0.00000000 0.90493435
vt 1.00000000 0.00000000
vt 1.00000000 1.00000000
vt 0.00000000 1.00000000
vt 0.00000000 0.00000000
vt 0.00000000 1.00000000
vt 0.00000000 0.00000000
vt 0.88786541 0.00000000
vt 1.00000000 0.00000000
vt 1.00000000 1.00000000
vt 0.00000000 1.00000000
vt 0.00000000 0.00000000
vt 1.00000000 0.00000000
vt 1.00000000 1.00000000
vt 0.85469045 0.00000000
vt 1.00000000 0.19384239
vt 0.00000000 1.00000000
vt 0.00000000 1.00000000
vt 0.87312640 0.00000000
vt 1.00000000 0.22355127
vt 0.00000000 1.00000000
vt 0.05900180 0.00000000
vt 1.00000000 0.00000000
vt 1.00000000 1.00000000
vt 0.98308231 0.00000000
vt 1.00000000 1.00000000
vt 0.77598739 1.00000000
vt 0.00000000 1.00000000
vt 0.00000000 0.00000000
vt 1.00000000 0.00000000
vt 0.01923440 1.00000000
vt 0.00000000 0.83002040
vt 1.00000000 1.00000000
vt 0.00000000 0.16517802
vt 0.01961161 0.00000000
vt 0.00000000 0.00000000
vt 1.00000000 0.00000000
vt 0.97938669 1.00000000
vt 0.00000000 1.00000000
vt 1.00000000 0.00000000
vt 0.21453115 1.00000000
vt 0.00000000 0.22202444
vt 0.08672615 0.00000000
vt 0.78414608 0.00000000
vt 1.00000000 1.00000000
vt 0.00000000 1.00000000
vt 1.00000000 1.00000000
vt 0.77034334 0.83546905
vt 0.67185393 0.43785893
vt 0.22170608 0.28759653
vt 0.00000000 0.00000000
vt 1.00000000 0.00000000
vt 0.00000000 1.00000000
vt 0.90209525 0.00000000
vt 1.00000000 0.08817926
vt 0.89146961 1.00000000
vt 0.00000000 0.00000000
vt 1.00000000 0.92063053
vt 1.00000000 0.00000000
vt 1.00000000 1.00000000
vt 0.00000000 1.00000000
vt 0.00000000 0.00000000
vt 0.00000000 1.00000000
vt 0.00000000 0.00000000
vt 1.00000000 0.00000000
vt 1.00000000 1.00000000
vt 1.00000000 0.00000000
vt 0.07525000 1.00000000
vt 0.00000000 0.77288080
vt 1.00000000 0.00000000
vt 1.00000000 1.00000000
vt 0.00000000 1.00000000
vt 0.00000000 0.00000000
vt 0.00000000 1.00000000
vt 0.00000000 0.00000000
vt 1.00000000 0.00000000
vt 1.00000000 1.00000000
vt 0.08137335 1.00000000
vt 0.00000000 0.78116784
vt 1.00000000 0.00000000
vt 0.17829392 0.31240347
vt 0.62814607 0.46214107
vt 0.72965666 0.86453095
vt 1.00000000 1.00000000
vt 0.00000000 1.00000000
vt 0.00000000 0.00000000
vn 0.00000000 0.00000000 1.00000000
vn 0.00000000 0.00000000 1.00000000
vn 0.00000000 0.00000000 1.00000000
vn 0.00000000 0.00000000 1.00000000
vn 0.00000000 0.00000000 1.00000000
vn 0.00000000 0.00000000 1.00000000
vn 0.00000000 0.00000000 1.00000000
vn 0.00000000 1.00000000 0.00000000
vn 0.00000000 1.00000000 0.00000000
vn 0.00000000 1.00000000 0.00000000
vn 0.00000000 1.00000000 0.00000000
vn 1.00000000 0.00000000 0.00000000
vn 1.00000000 0.00000000 0.00000000
vn 1.00000000 0.00000000 0.00000000
vn 1.00000000 0.00000000 0.00000000
vn 0.00000000 -1.00000000 0.00000000
vn 0.00000000 -1.00000000 0.00000000
vn 0.00000000 -1.00000000 0.00000000
vn 0.00000000 -1.00000000 0.00000000
vn -1.00000000 0.00000000 0.00000000
vn -1.00000000 0.00000000 0.00000000
vn -1.00000000 0.00000000 0.00000000
vn -1.00000000 0.00000000 0.00000000
vn 0.00000000 0.00000000 1.00000000
vn 0.00000000 0.00000000 1.00000000
vn 0.00000000 0.00000000 1.00000000
vn 0.00000000 0.00000000 1.00000000
vn 0.00000000 0.00000000 1.00000000
vn 0.00000000 0.00000000 1.00000000
vn 0.00000000 0.00000000 1.00000000
vn 0.00000000 0.00000000 1.00000000
vn 0.00000000 0.00000000 1.00000000
vn -0.29405886 0.69733383 0.65364739
vn -0.28366852 0.67269408 0.68338485
vn -0.28639046 0.66824442 0.68660753
vn -0.29768703 0.69460306 0.65491146
vn -0.73514409 0.12901096 0.66552185
vn -0.73765536 0.12294256 0.66388982
vn -0.77699719 0.12949953 0.61603996
vn -0.77385872 0.13580501 0.61862726
vn -0.27883744 0.67201434 0.68603674
vn -0.27883744 0.67201434 0.68603674
vn -0.27883744 0.67201434 0.68603674
vn 0.36509754 -0.61348845 0.70023975
vn 0.36509754 -0.61348845 0.70023975
vn 0.36509754 -0.61348845 0.70023975
vn 0.73765536 -0.12294256 0.66388982
vn 0.74020967 -0.11667876 0.66217499
vn 0.78019193 -0.12298114 0.61333204
vn 0.77699719 -0.12949953 0.61603996
vn 0.30120484 -0.69193580 0.65612536
vn 0.29768703 -0.69460306 0.65491146
vn 0.28639046 -0.66824442 0.68660753
vn 0.28498915 -0.66497467 0.69035489
vn 0.28851697 -0.66278889 0.69099120
vn 0.65998520 -0.32586515 0.67692794
vn 0.65770052 -0.32885026 0.67770756
vn 0.63633699 -0.31816849 0.70274039
vn 0.63817827 -0.31509807 0.70245405
vn 0.33592531 -0.66951301 0.66250020
vn 0.33592531 -0.66951301 0.66250020
vn 0.33592531 -0.66951301 0.66250020
vn -0.47417468 0.53679729 0.69785890
vn -0.47417468 0.53679729 0.69785890
vn -0.47417468 0.53679729 0.69785890
vn -0.65770052 0.32885026 0.67770756
vn -0.65423655 0.33109015 0.67996606
vn -0.63455190 0.32112832 0.70300817
vn -0.63633699 0.31816849 0.70274039
vn -0.70053908 -0.10007701 0.70656180
vn -0.70053908 -0.10007701 0.70656180
vn -0.70053908 -0.10007701 0.70656180
vn -0.70053908 -0.10007701 0.70656180
vn -0.70053908 -0.10007701 0.70656180
vn -0.56665009 -0.50125506 0.65395033
vn -0.56665009 -0.50125506 0.65395033
vn -0.56665009 -0.50125506 0.65395033
vn 0.52022563 0.58266495 0.62439319
vn 0.52022563 0.58266495 0.62439319
vn 0.52022563 0.58266495 0.62439319
vn 0.70053908 0.10007701 0.70656180
vn 0.70053908 0.10007701 0.70656180
vn 0.70053908 0.10007701 0.70656180
vn 0.70053908 0.10007701 0.70656180
vn -0.00000000 -0.00000000 1.00000000
vn 0.00000000 -0.00000000 1.00000000
vn 0.00000000 -0.00000000 1.00000000
vn 0.54700636 0.44808932 0.70710678
vn 0.54700636 0.44808932 0.70710678
vn 0.54700636 0.44808932 0.70710678
vn 0.54700636 0.44808932 0.70710678
vn 0.00000000 0.00000000 -1.00000000
vn 0.00000000 0.00000000 -1.00000000
vn 0.00000000 0.00000000 -1.00000000
vn 0.00000000 0.00000000 -1.00000000
vn 0.00000000 0.00000000 -1.00000000
vn 0.00000000 0.00000000 -1.00000000
vn 0.43375998 0.56267228 -0.70374156
vn 0.43375998 0.56267228 -0.70374156
vn 0.43375998 0.56267228 -0.70374156
vn -0.35049368 -0.61412886 -0.70710673
vn -0.35049368 -0.61412886 -0.70710673
vn -0.35049368 -0.61412886 -0.70710673
vn -0.76362922 -0.25454307 -0.59336181
vn -0.76384283 -0.25425241 -0.59321146
vn -0.76089236 -0.25327032 -0.59740854
vn -0.76068063 -0.25356021 -0.59755519
vn -0.17589283 -0.69724243 -0.69492065
vn -0.17445210 -0.69780839 -0.69471571
vn -0.17756580 -0.71026319 -0.68117295
vn -0.17901186 -0.70960635 -0.68147897
vn -0.66976633 -0.33561991 -0.66239893
vn -0.66976633 -0.33561991 -0.66239893
vn -0.66976633 -0.33561991 -0.66239893
vn 0.76341575 0.25483334 -0.59351189
vn 0.76362922 0.25454307 -0.59336181
vn 0.76068063 0.25356021 -0.59755519
vn 0.76046904 0.25384971 -0.59770157
vn 0.17445210 0.69780839 -0.69471571
vn 0.17299123 0.69838035 -0.69450624
vn 0.17609915 0.71092727 -0.68086086
vn 0.17756580 0.71026319 -0.68117295
vn 0.59041974 0.42298936 -0.68737510
vn 0.59041974 0.42298936 -0.68737510
vn 0.59041974 0.42298936 -0.68737510
vn 0.00000000 0.00000000 -1.00000000
vn 0.00000000 0.00000000 -1.00000000
vn 0.00000000 0.00000000 -1.00000000
vn 0.00000000 0.00000000 -1.00000000
s 1
usemtl Sandstone_Trim
f 6/6/6 5/5/5 4/4/4
f 7/7/7 4/4/4 2/2/2
f 7/7/7 2/2/2 1/1/1
f 1/28/1 15/27/27 10/24/24
f 18/33/30 10/31/24 17/30/29
f 20/35/32 18/33/30 16/29/28
f 18/33/30 17/30/29 16/29/28
f 20/35/32 19/34/31 18/33/30
f 15/27/27 13/25/25 10/24/24
f 15/27/27 14/26/26 13/25/25
f 4/4/4 3/3/3 2/2/2
f 18/33/30 6/32/6 10/31/24
f 7/7/7 6/6/6 4/4/4
s 2
f 9/11/11 8/10/10 1/8/8
f 8/10/10 7/9/9 1/8/8
s 3
f 1/12/12 10/13/13 9/15/15
f 10/13/13 11/14/14 9/15/15
s 4
f 10/16/16 6/17/17 11/19/19
f 6/17/17 12/18/18 11/19/19
s 5
f 8/23/23 12/22/22 7/20/20
f 12/22/22 6/21/21 7/20/20
s 6
f 19/36/33 20/37/34 22/39/36
f 20/37/34 21/38/35 22/39/36
s 7
f 19/40/37 22/41/38 23/42/39
f 19/40/37 23/42/39 18/43/40
s 8
f 18/46/43 23/45/42 6/44/41
s 9
f 6/47/44 23/48/45 5/49/46
s 10
f 22/50/47 4/51/48 5/52/49
f 22/50/47 5/52/49 23/53/50
s 11
f 21/56/53 24/57/54 3/58/55
f 4/54/51 21/56/53 3/58/55
f 4/54/51 22/55/52 21/56/53
s 12
f 3/59/56 24/60/57 25/61/58
f 3/59/56 25/61/58 2/62/59
s 13
f 2/63/60 25/64/61 1/65/62
s 14
f 1/66/63 25/67/64 15/68/65
s 15
f 24/69/66 14/70/67 25/72/69
f 14/70/67 15/71/68 25/72/69
s 16
f 14/73/70 24/74/71 26/75/72
f 26/75/72 27/76/73 13/77/74
f 14/73/70 26/75/72 13/77/74
s 17
f 13/80/77 27/79/76 10/78/75
s 18
f 10/81/78 27/82/79 17/83/80
s 19
f 27/84/81 26/85/82 16/86/83
f 27/84/81 16/86/83 17/87/84
s 20
f 24/90/87 21/89/86 26/88/85
s 21
f 26/94/91 21/93/90 20/92/89
f 26/94/91 20/92/89 16/91/88
s 22
f 29/97/94 28/96/93 11/95/92
f 9/133/129 11/132/92 36/131/128
f 36/131/128 34/130/127 32/129/126
f 9/133/129 36/131/128 32/129/126
f 32/129/126 8/134/96 9/133/129
f 12/100/97 8/99/96 29/97/94
f 29/97/94 11/95/92 12/100/97
f 8/99/96 30/98/95 29/97/94
s 23
f 8/101/98 31/102/99 30/103/100
s 24
f 31/106/103 8/105/102 32/104/101
s 25
f 31/110/107 32/109/106 34/108/105
f 31/110/107 34/108/105 33/107/104
s 26
f 36/114/111 35/113/110 34/111/108
f 35/113/110 33/112/109 34/111/108
s 27
f 11/115/112 35/116/113 36/117/114
s 28
f 30/121/118 31/120/117 33/119/116
f 30/121/118 33/119/116 29/118/115
s 29
f 35/125/122 28/124/121 33/122/119
f 28/124/121 29/123/120 33/122/119
s 30
f 28/126/123 35/127/124 11/128/125
