mtllib Materials_Modular_Temple.mtl
o object1
g object1
v -0.60000000 2.00000000 -0.04436508
v 0.04436508 2.00000000 0.60000000
v 0.50000000 2.00000000 0.60000000
v 0.50000000 2.00000000 -0.50000000
v -0.60000000 2.00000000 -0.50000000
v 0.50000000 1.80000000 -0.50000000
v 0.50000000 1.73149158 -0.15558491
v 0.35733860 1.73149158 -0.15558491
v 0.15558491 1.73149158 -0.35733860
v -0.13639610 1.53639610 -0.23639610
v 0.23639610 1.53639610 0.13639610
v -0.33149158 1.24441509 -0.15558491
v 0.15558491 1.24441509 0.33149158
v -0.40000000 0.90000000 -0.12720779
v 0.12720779 0.90000000 0.40000000
v -0.40000000 0.00000000 -0.12720779
v 0.12720779 0.00000000 0.40000000
v -0.40000000 0.00000000 -0.50000000
v -0.40000000 0.90000000 -0.50000000
v -0.33149158 1.24441509 -0.50000000
v -0.13639610 1.53639610 -0.50000000
v 0.15558491 1.73149158 -0.50000000
v 0.50000000 1.53639610 0.13639610
v 0.50000000 1.24441509 0.33149158
v 0.50000000 0.90000000 0.40000000
v 0.50000000 0.00000000 0.40000000
v -0.60000000 0.00000000 -0.04436508
v -0.60000000 0.00000000 -0.50000000
v 0.50000000 0.00000000 0.60000000
v 0.04436508 0.00000000 0.60000000
vt 0.79289322 1.00000000
vt 0.20710678 1.00000000
vt 0.00000000 0.70710678
vt 0.50000000 0.00000000
vt 1.00000000 0.70710678
vt 0.00000000 1.00000000
vt 0.00000000 0.00000000
vt 1.00000000 0.00000000
vt 1.00000000 0.00000000
vt 0.50000000 1.00000000
vt 0.00000000 0.00000000
vt 1.00000000 0.00000000
vt 0.77059805 1.00000000
vt 0.22940195 1.00000000
vt 0.00000000 0.00000000
vt 1.00000000 0.00000000
vt 0.88268343 1.00000000
vt 0.11731657 1.00000000
vt 0.00000000 0.00000000
vt 1.00000000 0.00000000
vt 0.96193977 1.00000000
vt 0.03806023 1.00000000
vt 0.00000000 0.00000000
vt 1.00000000 0.00000000
vt 1.00000000 1.00000000
vt 0.00000000 1.00000000
vt 0.00000000 0.00000000
vt 1.00000000 0.00000000
vt 1.00000000 1.00000000
vt 0.00000000 1.00000000
vt 0.00000000 0.00000000
vt 1.00000000 0.00000000
vt 1.00000000 1.00000000
vt 0.07612047 1.00000000
vt 0.00000000 0.00000000
vt 1.00000000 0.00000000
vt 1.00000000 1.00000000
vt 0.23463314 1.00000000
vt 0.00000000 0.00000000
vt 1.00000000 0.00000000
vt 1.00000000 1.00000000
vt 0.45880390 1.00000000
vt 0.00000000 0.00000000
vt 1.00000000 0.00000000
vt 1.00000000 1.00000000
vt 0.00000000 0.00000000
vt 0.00000000 1.00000000
vt 0.00000000 0.00000000
vt 1.00000000 0.00000000
vt 0.54119610 1.00000000
vt 0.00000000 1.00000000
vt 0.00000000 0.00000000
vt 1.00000000 0.00000000
vt 0.76536686 1.00000000
vt 0.00000000 1.00000000
vt 0.00000000 0.00000000
vt 1.00000000 0.00000000
vt 0.92387953 1.00000000
vt 0.00000000 1.00000000
vt 0.00000000 0.00000000
vt 1.00000000 0.00000000
vt 1.00000000 1.00000000
vt 0.00000000 1.00000000
vt 0.00000000 0.00000000
vt 1.00000000 0.00000000
vt 1.00000000 1.00000000
vt 0.86574579 0.31310463
vt 0.90000000 0.00000000
vt 1.00000000 0.00000000
vt 1.00000000 1.00000000
vt 0.00000000 1.00000000
vt 0.00000000 0.81818182
vt 0.45000000 0.81818182
vt 0.62220754 0.75590144
vt 0.76819805 0.57854191
vt 0.90000000 1.00000000
vt 0.86574579 0.68689537
vt 0.76819805 0.42145809
vt 0.62220754 0.24409856
vt 0.45000000 0.18181818
vt 0.00000000 0.18181818
vt 0.00000000 0.00000000
vt 1.00000000 0.00000000
vt 1.00000000 1.00000000
vt 0.00000000 0.00000000
vt 1.00000000 0.00000000
vt 1.00000000 1.00000000
vt 0.00000000 1.00000000
vt 0.58578644 1.00000000
vt 0.00000000 0.41421356
vt 0.00000000 0.00000000
vt 0.18181818 0.00000000
vt 0.18181818 0.33890201
vt 0.66109799 0.81818182
vt 1.00000000 0.81818182
vt 1.00000000 1.00000000
vt 0.00000000 1.00000000
vt 0.00000000 0.00000000
vt 1.00000000 0.00000000
vt 1.00000000 1.00000000
vn 0.00000000 1.00000000 0.00000000
vn 0.00000000 1.00000000 0.00000000
vn 0.00000000 1.00000000 0.00000000
vn 0.00000000 1.00000000 0.00000000
vn 0.00000000 1.00000000 0.00000000
vn -0.00000000 -0.98078528 -0.19509032
vn -0.00000000 -0.98078528 -0.19509032
vn -0.00000000 -0.98078528 -0.19509032
vn 0.13794969 -0.98078528 -0.13794969
vn 0.13794969 -0.98078528 -0.13794969
vn 0.13794969 -0.98078528 -0.13794969
vn 0.39284748 -0.83146961 -0.39284748
vn 0.39284748 -0.83146961 -0.39284748
vn 0.39284748 -0.83146961 -0.39284748
vn 0.39284748 -0.83146961 -0.39284748
vn 0.58793780 -0.55557023 -0.58793780
vn 0.58793780 -0.55557023 -0.58793780
vn 0.58793780 -0.55557023 -0.58793780
vn 0.58793780 -0.55557023 -0.58793780
vn 0.69351992 -0.19509032 -0.69351992
vn 0.69351992 -0.19509032 -0.69351992
vn 0.69351992 -0.19509032 -0.69351992
vn 0.69351992 -0.19509032 -0.69351992
vn 0.70710678 0.00000000 -0.70710678
vn 0.70710678 0.00000000 -0.70710678
vn 0.70710678 0.00000000 -0.70710678
vn 0.70710678 0.00000000 -0.70710678
vn 1.00000000 0.00000000 -0.00000000
vn 1.00000000 0.00000000 -0.00000000
vn 1.00000000 0.00000000 -0.00000000
vn 1.00000000 0.00000000 -0.00000000
vn 0.98078528 -0.19509032 -0.00000000
vn 0.98078528 -0.19509032 -0.00000000
vn 0.98078528 -0.19509032 -0.00000000
vn 0.98078528 -0.19509032 -0.00000000
vn 0.83146961 -0.55557023 -0.00000000
vn 0.83146961 -0.55557023 -0.00000000
vn 0.83146961 -0.55557023 -0.00000000
vn 0.83146961 -0.55557023 -0.00000000
vn 0.55557023 -0.83146961 -0.00000000
vn 0.55557023 -0.83146961 -0.00000000
vn 0.55557023 -0.83146961 -0.00000000
vn 0.55557023 -0.83146961 -0.00000000
vn 0.19509032 -0.98078528 -0.00000000
vn 0.19509032 -0.98078528 -0.00000000
vn 0.19509032 -0.98078528 -0.00000000
vn -0.00000000 -0.83146961 -0.55557023
vn -0.00000000 -0.83146961 -0.55557023
vn -0.00000000 -0.83146961 -0.55557023
vn -0.00000000 -0.83146961 -0.55557023
vn -0.00000000 -0.55557023 -0.83146961
vn -0.00000000 -0.55557023 -0.83146961
vn -0.00000000 -0.55557023 -0.83146961
vn -0.00000000 -0.55557023 -0.83146961
vn -0.00000000 -0.19509032 -0.98078528
vn -0.00000000 -0.19509032 -0.98078528
vn -0.00000000 -0.19509032 -0.98078528
vn -0.00000000 -0.19509032 -0.98078528
vn -0.00000000 0.00000000 -1.00000000
vn -0.00000000 0.00000000 -1.00000000
vn -0.00000000 0.00000000 -1.00000000
vn -0.00000000 0.00000000 -1.00000000
vn -1.00000000 -0.00000000 0.00000000
vn -1.00000000 -0.00000000 0.00000000
vn -1.00000000 -0.00000000 0.00000000
vn -1.00000000 -0.00000000 0.00000000
vn 1.00000000 0.00000000 -0.00000000
vn 1.00000000 0.00000000 -0.00000000
vn 1.00000000 0.00000000 -0.00000000
vn 1.00000000 0.00000000 -0.00000000
vn 1.00000000 0.00000000 -0.00000000
vn 1.00000000 0.00000000 -0.00000000
vn 1.00000000 0.00000000 -0.00000000
vn 1.00000000 0.00000000 -0.00000000
vn 1.00000000 0.00000000 -0.00000000
vn -0.00000000 0.00000000 -1.00000000
vn -0.00000000 0.00000000 -1.00000000
vn -0.00000000 0.00000000 -1.00000000
vn -0.00000000 0.00000000 -1.00000000
vn -0.00000000 0.00000000 -1.00000000
vn -0.00000000 0.00000000 -1.00000000
vn -0.00000000 0.00000000 -1.00000000
vn -0.00000000 0.00000000 -1.00000000
vn -0.00000000 0.00000000 -1.00000000
vn 0.00000000 0.00000000 1.00000000
vn 0.00000000 0.00000000 1.00000000
vn 0.00000000 0.00000000 1.00000000
vn 0.00000000 0.00000000 1.00000000
vn 0.00000000 -1.00000000 -0.00000000
vn 0.00000000 -1.00000000 -0.00000000
vn 0.00000000 -1.00000000 -0.00000000
vn 0.00000000 -1.00000000 -0.00000000
vn 0.00000000 -1.00000000 -0.00000000
vn 0.00000000 -1.00000000 -0.00000000
vn 0.00000000 -1.00000000 -0.00000000
vn 0.00000000 -1.00000000 -0.00000000
vn -0.70710678 0.00000000 0.70710678
vn -0.70710678 0.00000000 0.70710678
vn -0.70710678 0.00000000 0.70710678
vn -0.70710678 0.00000000 0.70710678
s 1
usemtl Sandstone_Floor
f 1/1/1 2/2/2 3/3/3
f 1/1/1 3/3/3 4/4/4
f 4/4/4 5/5/5 1/1/1
s 2
usemtl Sandstone_Trim
f 6/6/6 7/7/7 8/8/8
s 3
f 9/9/9 6/10/10 8/11/11
s 4
f 10/12/12 9/13/13 8/14/14
f 10/12/12 8/14/14 11/15/15
s 5
f 12/16/16 10/17/17 11/18/18
f 12/16/16 11/18/18 13/19/19
s 6
f 14/20/20 12/21/21 13/22/22
f 14/20/20 13/22/22 15/23/23
s 7
f 16/24/24 14/25/25 17/27/27
f 14/25/25 15/26/26 17/27/27
s 8
f 18/28/28 19/29/29 16/31/31
f 19/29/29 14/30/30 16/31/31
s 9
f 19/32/32 20/33/33 12/34/34
f 19/32/32 12/34/34 14/35/35
s 10
f 20/36/36 21/37/37 10/38/38
f 20/36/36 10/38/38 12/39/39
s 11
f 21/40/40 22/41/41 9/42/42
f 21/40/40 9/42/42 10/43/43
s 12
f 22/44/44 6/45/45 9/46/46
s 13
f 7/47/47 23/48/48 8/50/50
f 23/48/48 11/49/49 8/50/50
s 14
f 23/51/51 24/52/52 11/54/54
f 24/52/52 13/53/53 11/54/54
s 15
f 24/55/55 25/56/56 13/58/58
f 25/56/56 15/57/57 13/58/58
s 16
f 25/59/59 26/60/60 15/62/62
f 26/60/60 17/61/61 15/62/62
s 17
f 27/63/63 1/64/64 28/66/66
f 1/64/64 5/65/65 28/66/66
s 18
f 7/67/67 6/68/68 4/69/69
f 23/75/75 7/67/67 3/70/70
f 3/70/70 25/73/73 24/74/74
f 29/71/71 26/72/72 25/73/73
f 3/70/70 29/71/71 25/73/73
f 24/74/74 23/75/75 3/70/70
f 7/67/67 4/69/69 3/70/70
s 19
f 4/84/84 6/76/76 22/77/77
f 5/83/83 22/77/77 21/78/78
f 20/79/79 19/80/80 5/83/83
f 19/80/80 18/81/81 28/82/82
f 19/80/80 28/82/82 5/83/83
f 5/83/83 21/78/78 20/79/79
f 5/83/83 4/84/84 22/77/77
s 20
f 2/85/85 30/86/86 29/87/87
f 2/85/85 29/87/87 3/88/88
s 21
f 28/91/91 18/92/92 16/93/93
f 30/89/89 27/90/90 16/93/93
f 17/94/94 29/96/96 30/89/89
f 17/94/94 26/95/95 29/96/96
f 16/93/93 17/94/94 30/89/89
f 27/90/90 28/91/91 16/93/93
s 22
f 2/100/100 1/99/99 27/98/98
f 2/100/100 27/98/98 30/97/97
