mtllib Materials_Modular_Temple.mtl
o object1
g object1
v -1.60000000 1.00000000 0.36984848
v -0.36984848 1.00000000 1.60000000
v 0.50000000 1.00000000 1.60000000
v 0.50000000 1.00000000 1.40000000
v -0.28700577 1.00000000 1.40000000
v -1.40000000 1.00000000 0.28700577
v -1.40000000 1.00000000 -0.50000000
v -1.60000000 1.00000000 -0.50000000
v -1.60000000 0.00000000 0.36984848
v -0.36984848 0.00000000 1.60000000
v -0.28700577 0.00000000 1.40000000
v -1.40000000 0.00000000 0.28700577
v -1.40000000 0.00000000 -0.50000000
v -1.60000000 0.00000000 -0.50000000
v 0.50000000 0.00000000 1.60000000
v 0.50000000 0.00000000 1.40000000
vt 0.41421356 0.00000000
vt 1.00000000 0.58578644
vt 1.00000000 1.00000000
vt 0.90476190 1.00000000
vt 0.90476190 0.62523535
vt 0.37476465 0.09523810
vt 0.00000000 0.09523810
vt 0.00000000 0.00000000
vt 0.00000000 0.00000000
vt 1.00000000 0.00000000
vt 1.00000000 1.00000000
vt 0.00000000 1.00000000
vt 0.90476190 0.62523535
vt 0.37476465 0.09523810
vt 0.00000000 0.09523810
vt 0.00000000 0.00000000
vt 0.41421356 0.00000000
vt 1.00000000 0.58578644
vt 1.00000000 1.00000000
vt 0.90476190 1.00000000
vt 0.00000000 0.00000000
vt 1.00000000 0.00000000
vt 1.00000000 1.00000000
vt 0.00000000 1.00000000
vt 0.00000000 0.00000000
vt 1.00000000 0.00000000
vt 1.00000000 1.00000000
vt 0.00000000 1.00000000
vt 0.00000000 0.00000000
vt 1.00000000 0.00000000
vt 1.00000000 1.00000000
vt 0.00000000 1.00000000
vt 0.00000000 0.00000000
vt 1.00000000 0.00000000
vt 1.00000000 1.00000000
vt 0.00000000 1.00000000
vt 0.00000000 0.00000000
vt 1.00000000 0.00000000
vt 1.00000000 1.00000000
vt 0.00000000 1.00000000
vt 0.00000000 1.00000000
vt 0.00000000 0.00000000
vt 1.00000000 0.00000000
vt 1.00000000 1.00000000
vt 0.00000000 0.00000000
vt 1.00000000 0.00000000
vt 1.00000000 1.00000000
vt 0.00000000 1.00000000
vn 0.00000000 1.00000000 0.00000000
vn 0.00000000 1.00000000 0.00000000
vn 0.00000000 1.00000000 0.00000000
vn 0.00000000 1.00000000 0.00000000
vn 0.00000000 1.00000000 0.00000000
vn 0.00000000 1.00000000 0.00000000
vn 0.00000000 1.00000000 0.00000000
vn 0.00000000 1.00000000 0.00000000
vn -0.70710678 0.00000000 0.70710678
vn -0.70710678 0.00000000 0.70710678
vn -0.70710678 0.00000000 0.70710678
vn -0.70710678 0.00000000 0.70710678
vn 0.00000000 -1.00000000 0.00000000
vn 0.00000000 -1.00000000 0.00000000
vn 0.00000000 -1.00000000 0.00000000
vn 0.00000000 -1.00000000 0.00000000
vn 0.00000000 -1.00000000 0.00000000
vn 0.00000000 -1.00000000 0.00000000
vn 0.00000000 -1.00000000 0.00000000
vn 0.00000000 -1.00000000 0.00000000
vn -1.00000000 0.00000000 0.00000000
vn -1.00000000 0.00000000 0.00000000
vn -1.00000000 0.00000000 0.00000000
vn -1.00000000 0.00000000 0.00000000
vn 0.00000000 -0.00000000 -1.00000000
vn 0.00000000 -0.00000000 -1.00000000
vn 0.00000000 -0.00000000 -1.00000000
vn 0.00000000 -0.00000000 -1.00000000
vn 1.00000000 0.00000000 0.00000000
vn 1.00000000 0.00000000 0.00000000
vn 1.00000000 0.00000000 0.00000000
vn 1.00000000 0.00000000 0.00000000
vn 0.70710678 0.00000000 -0.70710678
vn 0.70710678 0.00000000 -0.70710678
vn 0.70710678 0.00000000 -0.70710678
vn 0.70710678 0.00000000 -0.70710678
vn -0.00000000 0.00000000 -1.00000000
vn -0.00000000 0.00000000 -1.00000000
vn -0.00000000 0.00000000 -1.00000000
vn -0.00000000 0.00000000 -1.00000000
vn 1.00000000 0.00000000 0.00000000
vn 1.00000000 0.00000000 0.00000000
vn 1.00000000 0.00000000 0.00000000
vn 1.00000000 0.00000000 0.00000000
vn 0.00000000 0.00000000 1.00000000
vn 0.00000000 0.00000000 1.00000000
vn 0.00000000 0.00000000 1.00000000
vn 0.00000000 0.00000000 1.00000000
s 1
usemtl Sandstone_Floor
f 6/6/6 7/7/7 8/8/8
f 1/1/1 2/2/2 6/6/6
f 2/2/2 3/3/3 5/5/5
f 3/3/3 4/4/4 5/5/5
f 2/2/2 5/5/5 6/6/6
f 6/6/6 8/8/8 1/1/1
s 2
usemtl Sandstone_Trim
f 10/12/12 2/11/11 1/10/10
f 10/12/12 1/10/10 9/9/9
s 3
f 14/16/16 13/15/15 12/14/14
f 10/18/18 9/17/17 12/14/14
f 11/13/13 15/19/19 10/18/18
f 11/13/13 16/20/20 15/19/19
f 12/14/14 11/13/13 10/18/18
f 9/17/17 14/16/16 12/14/14
s 4
f 9/24/24 1/23/23 14/21/21
f 1/23/23 8/22/22 14/21/21
s 5
f 14/25/25 8/26/26 13/28/28
f 8/26/26 7/27/27 13/28/28
s 6
f 13/32/32 7/31/31 6/30/30
f 13/32/32 6/30/30 12/29/29
s 7
f 12/36/36 6/35/35 5/34/34
f 12/36/36 5/34/34 11/33/33
s 8
f 11/40/40 5/39/39 16/37/37
f 5/39/39 4/38/38 16/37/37
s 9
f 16/41/41 4/42/42 15/44/44
f 4/42/42 3/43/43 15/44/44
s 10
f 15/48/48 3/47/47 10/45/45
f 3/47/47 2/46/46 10/45/45
